<?xml version="1.0" encoding="utf-8"?>
<!-- Generator: Adobe Illustrator 16.0.0, SVG Export Plug-In . SVG Version: 6.00 Build 0)  -->
<!DOCTYPE svg PUBLIC "-//W3C//DTD SVG 1.1//EN" "http://www.w3.org/Graphics/SVG/1.1/DTD/svg11.dtd">
<svg version="1.1" id="Capa_1" xmlns="http://www.w3.org/2000/svg" xmlns:xlink="http://www.w3.org/1999/xlink" x="0px" y="0px"
	 width="262.773px" height="503.103px" viewBox="0 0 262.773 503.103" enable-background="new 0 0 262.773 503.103"
	 xml:space="preserve">
<g>
	<path fill="#1E2133" d="M158.287,135.906c0,4.416,5.367,7.994,11.99,7.994s13.982-8.698,13.982-13.113s-9.807-2.387-16.43-2.387
		C161.209,128.4,158.287,131.491,158.287,135.906"/>
	<path fill="none" stroke="#52586D" stroke-width="1.208" stroke-miterlimit="10" d="M158.287,135.906
		c0,4.416,5.367,7.994,11.99,7.994s13.982-8.698,13.982-13.113s-9.807-2.387-16.43-2.387
		C161.209,128.4,158.287,131.491,158.287,135.906z"/>
	<path fill="#C1716B" d="M118.475,125.806c0,1.428,1.215,2.584,2.717,2.584s2.717-1.157,2.717-2.584
		c0-1.427-1.215-2.584-2.717-2.584S118.475,124.378,118.475,125.806"/>
	
		<ellipse fill="none" stroke="#BA645D" stroke-width="1.208" stroke-miterlimit="10" cx="121.191" cy="125.806" rx="2.717" ry="2.584"/>
	<path fill="#FFC691" d="M100.039,149.778c0,0-18.602,38.171-19.436,40.338s-11.168,25.552-12.168,27.859
		c-1,2.31-19.326,9.656-24.125,28.671c0.499,2.678,9.789,4.976,10.457,4.308c0.666-0.666,12.297-2.031,12.297-2.031
		s10.871-9.255,11.373-16.53c1.197-5.726,3.666-7.773,4.334-8.274c0.666-0.5,15.666-22.168,19.334-26.502
		c3.666-4.334,8.576-26.003,9.203-26.669c0.631-0.667,4.631-16.002,4.797-16.501c0.168-0.501-2.154-4.668-2.154-4.668H100.039z"/>
	<path fill="none" stroke="#F1B486" stroke-width="1.208" stroke-miterlimit="10" d="M100.039,149.778
		c0,0-18.602,38.171-19.436,40.338s-11.168,25.552-12.168,27.859c-1,2.31-19.326,9.656-24.125,28.671
		c0.499,2.678,9.789,4.976,10.457,4.308c0.666-0.666,12.297-2.031,12.297-2.031s10.871-9.255,11.373-16.53
		c1.197-5.726,3.666-7.773,4.334-8.274c0.666-0.5,15.666-22.168,19.334-26.502c3.666-4.334,8.576-26.003,9.203-26.669
		c0.631-0.667,4.631-16.002,4.797-16.501c0.168-0.501-2.154-4.668-2.154-4.668H100.039z"/>
	<path fill="#6D6E71" d="M99.453,256.179c0,0-3.041,2.575-4.291,0.469c-1.248-2.104-0.707-5.382,1.09-8.188
		c1.797-2.808,3.668-6.396,3.902-6.629c0.234-0.234,1.639-5.459,1.639-5.459l2.885-3.977c0,0,1.078,4.52,0.891,4.756
		c-0.215,0.276-2.953,16.137-5.266,18.214L99.453,256.179z"/>
	<path fill="#FFC691" d="M173.152,94.202c0,0-9.031,35.095-6.457,38.9c2.572,3.805-4.779,32.621-12.691,33.436
		c-7.912,0.816-25.75-11.236-26.398-16.112c-0.648-4.875,2.83-13.024,4.65-15.102c1.82-2.077,6.027-18.338,6.451-21.289
		c0.422-2.952,1.096-13.342,1.566-14.408C140.746,98.561,170.973,82.942,173.152,94.202"/>
	<path fill="none" stroke="#F1B486" stroke-width="1.208" stroke-miterlimit="10" d="M173.152,94.202c0,0-9.031,35.095-6.457,38.9
		c2.572,3.805-4.779,32.621-12.691,33.436c-7.912,0.816-25.75-11.236-26.398-16.112c-0.648-4.875,2.83-13.024,4.65-15.102
		c1.82-2.077,6.027-18.338,6.451-21.289c0.422-2.952,1.096-13.342,1.566-14.408C140.746,98.561,170.973,82.942,173.152,94.202z"/>
	<path fill="#F1B486" d="M166.623,101.775c0,0-4.99,20.396-6.799,23.352c-1.809,2.956-3.561,3.303-3.951,7.405
		c-0.389,4.101,0.873,19.501-5.381,21.888c-6.254,2.386-16.541,9.297-16.541,9.297s24.031,1.876,26.68-0.817
		c2.646-2.693,9.844-23.761,9.844-23.761s-4.807-7.9-3.992-12.556c0.811-4.656,4.932-25.3,4.932-25.3l0.602-5.196L166.623,101.775z"
		/>
	<path fill="#F1B486" d="M92.17,165.32l-1.15,3.018c0,0,9.602,1.951,11.209,2.296c1.605,0.344,0,12.938,0,13.296
		c0,0.356-5.252,13.424-7.617,16.47s-15.084,22.32-15.838,22.665s0.066,1.721,0,2.18c-0.064,0.46-0.408,5.621-2.131,9.292
		c-1.721,3.673-7.303,10.188-8.451,10.459c-1.148,0.268,0.805,2.718,0.805,2.718s8.115-9.5,8.748-12.12
		c0.633-2.621,1.26-5.762,1.869-7.041c0.611-1.28,3.156-4.432,3.156-4.432s9.207-12.747,9.752-13.508
		c0.543-0.763,8.141-11.939,9.584-12.995c1.441-1.056,4.344-9.543,5.789-12.412s2.344-13.434,3.414-14.257
		c1.072-0.824,2.152-3.411,2.152-3.411l-7.871-1.185l-10.869-0.864L92.17,165.32z"/>
	<rect x="163.398" y="394.199" fill="#808589" width="10" height="45.495"/>
	
		<rect x="163.398" y="394.199" fill="none" stroke="#656C70" stroke-width="1.133" stroke-miterlimit="10" width="10" height="45.495"/>
	<path fill="#252728" d="M174.775,395.221h-13.063c-1.727,0-3.146-1.356-3.229-3.08l-2.316-48.6h24.152l-2.314,48.6
		C177.924,393.865,176.504,395.221,174.775,395.221"/>
	<path fill="none" stroke="#000000" stroke-width="1.133" stroke-miterlimit="10" d="M174.775,395.221h-13.063
		c-1.727,0-3.146-1.356-3.229-3.08l-2.316-48.6h24.152l-2.314,48.6C177.924,393.865,176.504,395.221,174.775,395.221z"/>
	<path fill="#1A1B1C" d="M180.971,486.571c0,6.943-5.629,12.571-12.572,12.571s-12.572-5.628-12.572-12.571S161.455,474,168.398,474
		S180.971,479.627,180.971,486.571"/>
	<circle fill="none" stroke="#000000" stroke-width="1.133" stroke-miterlimit="10" cx="168.398" cy="486.571" r="12.572"/>
	<path fill="#1A1B1C" d="M217.371,484.11c0,6.627-5.373,11.997-11.998,11.997c-6.627,0-11.998-5.37-11.998-11.997
		s5.371-11.998,11.998-11.998C211.998,472.112,217.371,477.483,217.371,484.11"/>
	<circle fill="none" stroke="#000000" stroke-width="1.133" stroke-miterlimit="10" cx="205.373" cy="484.11" r="11.998"/>
	<path fill="#1A1B1C" d="M143.443,484.11c0,6.627-5.371,11.997-11.998,11.997s-11.998-5.37-11.998-11.997
		s5.371-11.998,11.998-11.998S143.443,477.483,143.443,484.11"/>
	<circle fill="none" stroke="#000000" stroke-width="1.133" stroke-miterlimit="10" cx="131.445" cy="484.11" r="11.998"/>
	<path fill="#A0A6AA" d="M177.189,486.571c0,4.854-3.936,8.79-8.791,8.79s-8.791-3.936-8.791-8.79s3.936-8.791,8.791-8.791
		S177.189,481.716,177.189,486.571"/>
	<path fill="#A0A6AA" d="M213.176,484.11c0,4.31-3.494,7.803-7.803,7.803c-4.311,0-7.803-3.493-7.803-7.803s3.492-7.803,7.803-7.803
		C209.682,476.307,213.176,479.8,213.176,484.11"/>
	<path fill="#A0A6AA" d="M139.248,484.11c0,4.31-3.494,7.803-7.803,7.803s-7.803-3.493-7.803-7.803s3.494-7.803,7.803-7.803
		S139.248,479.8,139.248,484.11"/>
	<path fill="#1A1B1C" d="M175.871,485.281c0,4.141-3.357,7.498-7.498,7.498c-4.143,0-7.502-3.357-7.502-7.498
		c0-4.144,3.359-7.501,7.502-7.501C172.514,477.78,175.871,481.137,175.871,485.281"/>
	<circle fill="none" stroke="#000000" stroke-width="1.133" stroke-miterlimit="10" cx="168.371" cy="485.281" r="7.5"/>
	<path fill="#1A1B1C" d="M211.91,483.297c0,3.609-2.928,6.537-6.537,6.537s-6.537-2.928-6.537-6.537
		c0-3.611,2.928-6.537,6.537-6.537S211.91,479.686,211.91,483.297"/>
	<circle fill="none" stroke="#000000" stroke-width="1.133" stroke-miterlimit="10" cx="205.373" cy="483.297" r="6.537"/>
	<path fill="#1A1B1C" d="M137.773,483.297c0,3.495-2.832,6.328-6.328,6.328s-6.33-2.833-6.33-6.328s2.834-6.329,6.33-6.329
		S137.773,479.802,137.773,483.297"/>
	<circle fill="none" stroke="#000000" stroke-width="1.133" stroke-miterlimit="10" cx="131.444" cy="483.297" r="6.329"/>
	<path fill="#A0A6AA" d="M172.732,398.18c0,0-7.615-2.947-7.141,4.744v33.333c0,0-1.283,1.83,6.012,2.634h-7.281l-0.334-43.043h8.82
		L172.732,398.18z"/>
	<path fill="#808589" d="M211.91,456.461c-1.848-9.642-20.41-9.538-20.41-9.538h-10.717v-5.347c0-1.04-0.844-1.885-1.885-1.885
		h-21.307c-1.041,0-1.885,0.845-1.885,1.885v5.347h-15.691c-16.512,0-14.809,12.104-14.809,12.104v15.126
		c0,2.004,1.627,3.627,3.629,3.627h5.076c2.004,0,3.629-1.623,3.629-3.627v-1.374v-5.652c0-12.102,8.012-11.383,8.012-11.383
		l16.525-0.075v19.849c0,1.251,1.014,2.263,2.264,2.263h7.807c1.25,0,2.264-1.012,2.264-2.263v-19.903l16.883-0.076
		c6.311,0,7.479,5.68,7.654,8.725v10.999c0,1.392,1.127,2.519,2.52,2.519h7.295c1.391,0,2.518-1.127,2.518-2.519v-18.229
		c0-0.032-0.008-0.063-0.008-0.096L211.91,456.461z"/>
	<path fill="none" stroke="#656C70" stroke-width="1.133" stroke-miterlimit="10" d="M211.91,456.461
		c-1.848-9.642-20.41-9.538-20.41-9.538h-10.717v-5.347c0-1.04-0.844-1.885-1.885-1.885h-21.307c-1.041,0-1.885,0.845-1.885,1.885
		v5.347h-15.691c-16.512,0-14.809,12.104-14.809,12.104v15.126c0,2.004,1.627,3.627,3.629,3.627h5.076
		c2.004,0,3.629-1.623,3.629-3.627v-1.374v-5.652c0-12.102,8.012-11.383,8.012-11.383l16.525-0.075v19.849
		c0,1.251,1.014,2.263,2.264,2.263h7.807c1.25,0,2.264-1.012,2.264-2.263v-19.903l16.883-0.076c6.311,0,7.479,5.68,7.654,8.725
		v10.999c0,1.392,1.127,2.519,2.52,2.519h7.295c1.391,0,2.518-1.127,2.518-2.519v-18.229c0-0.032-0.008-0.063-0.008-0.096
		L211.91,456.461z"/>
	<path fill="#A0A6AA" d="M168.533,450.154c0,0-6.057-0.537-5.826,5l-0.008,18.921c0,0-0.762,3.631,3.623,2.894
		c0,0-1.385,0.108-2.078-3.354l-0.154-18.536C164.09,455.078,164.822,451.232,168.533,450.154"/>
	<path fill="#A0A6AA" d="M168.398,440.385h-9.461c0,0-3.307-0.77-2.539,3.229l-0.115,4.001l3.115-5.307L168.398,440.385z"/>
	<path fill="#A0A6AA" d="M134.555,448.23c0,0-8.926,0.848-8.539,12.154l-0.014,12.691c0,0-1.447,4.387,5.398,3.846
		c0,0-3-1-2.693-7.23l0.154-12.613C128.861,457.078,128.631,452.539,134.555,448.23"/>
	<path fill="#231F20" d="M142.67,341.564v6.131c0,0,0.656,5.037,8.32,5.693c7.666,0.657,29.563-2.189,29.563-2.189
		s9.854,2.41,10.949-7.444c1.096-9.855-2.627-12.92-2.627-12.92s-27.811-1.095-28.906-0.876c-1.094,0.218-19.707,2.408-19.707,2.408
		L142.67,341.564z"/>
	<path fill="#939598" d="M210.553,301.93c0,0,6.789-2.191,9.635-10.292c2.848-8.104,1.314-35.913,1.314-39.197
		c0-3.285-0.053-9.052,0.412-9.124s13.82-1.388,13.82,6.716c0,8.101,2.848,37.883,1.096,42.48c-1.752,4.6,1.971,11.605-5.037,14.452
		C224.787,309.812,210.553,301.93,210.553,301.93"/>
	<path fill="none" stroke="#6D6E71" stroke-width="1.208" stroke-miterlimit="10" d="M210.553,301.93c0,0,6.789-2.191,9.635-10.292
		c2.848-8.104,1.314-35.913,1.314-39.197c0-3.285-0.053-9.052,0.412-9.124s13.82-1.388,13.82,6.716
		c0,8.101,2.848,37.883,1.096,42.48c-1.752,4.6,1.971,11.605-5.037,14.452C224.787,309.812,210.553,301.93,210.553,301.93z"/>
	<path fill="#2B3990" d="M208.582,301.053c0,0,20.365-1.095,25.182,8.102c4.818,9.197,0.439,25.182-29.561,27.812
		c-30,2.627-76.424,4.816-81.021-1.535c-4.598-6.348-3.723-19.705-3.066-20.582c0.656-0.876,25.621-16.861,26.496-17.3
		c0.877-0.438,31.752,0.876,33.285,0C181.428,296.674,208.582,301.053,208.582,301.053"/>
	<path fill="none" stroke="#1C75BC" stroke-width="1.208" stroke-miterlimit="10" d="M208.582,301.053
		c0,0,20.365-1.095,25.182,8.102c4.818,9.197,0.439,25.182-29.561,27.812c-30,2.627-76.424,4.816-81.021-1.535
		c-4.598-6.348-3.723-19.705-3.066-20.582c0.656-0.876,25.621-16.861,26.496-17.3c0.877-0.438,31.752,0.876,33.285,0
		C181.428,296.674,208.582,301.053,208.582,301.053z"/>
	<path fill="#262262" d="M239.195,161.538c0,0,16.904,1.481,20.189,10.389c3.285,8.908,3.064,35.338,3.285,41.065
		c0.219,5.727,0.219,20.817-1.314,24.441c-1.533,3.623-3.443,8.629-11.576,11.053c-8.133,2.423-23.68,2.588-23.68,2.588
		s6.131-24.635,7.008-25.54c0.877-0.901,8.32-43.114,8.32-43.114l-5.691-14.336L239.195,161.538z"/>
	<path fill="#2B3990" d="M193.691,160.375c0,0,43.139-1.877,49.27,2.503c6.133,4.379,7.008,17.956,6.789,29.78
		c-0.219,11.826-1.971,43.837-5.477,48.087c-3.502,4.249-8.32,8.629-17.08,9.724c-8.758,1.095-45.984,0.848-52.99-1.984
		c-7.008-2.832-13.139-54.101-8.322-61.97C170.699,178.645,174.859,160.772,193.691,160.375"/>
	<path fill="none" stroke="#1C75BC" stroke-width="1.208" stroke-miterlimit="10" d="M193.691,160.375c0,0,43.139-1.877,49.27,2.503
		c6.133,4.379,7.008,17.956,6.789,29.78c-0.219,11.826-1.971,43.837-5.477,48.087c-3.502,4.249-8.32,8.629-17.08,9.724
		c-8.758,1.095-45.984,0.848-52.99-1.984c-7.008-2.832-13.139-54.101-8.322-61.97C170.699,178.645,174.859,160.772,193.691,160.375z
		"/>
	<path fill="#FFC691" d="M54.557,230.719c0,0-1.535,2.614-3.252,2.277c-4.658-0.919-9.182,1.758-10.385,3.028
		c-1.203,1.271-5.479,9.406-5.746,10.008c-0.268,0.602,0.803,4.412,0.803,4.412l18.321,10.164c0,0,10.898-11.852,11.77-12.979
		c0.869-1.131,2.205-1.197,0.801-3.471c-1.402-2.273-2.34-3.545-2.875-4.213"/>
	<path fill="none" stroke="#F1B486" stroke-width="0.697" stroke-miterlimit="10" d="M54.557,230.719c0,0-1.535,2.614-3.252,2.277
		c-4.658-0.919-9.182,1.758-10.385,3.028c-1.203,1.271-5.479,9.406-5.746,10.008c-0.268,0.602,0.803,4.412,0.803,4.412
		l18.321,10.164c0,0,10.898-11.852,11.77-12.979c0.869-1.131,2.205-1.197,0.801-3.471c-1.402-2.273-2.34-3.545-2.875-4.213"/>
	<path fill="#262262" d="M120.174,322.478c0,0,0.654-1.266,2.617-1.835c4.93,0.39,12.238-0.441,12.77-1.577
		c0.77-1.652,10.221-6.633,13.744-6.633c3.525,0,23.615-2.343,26.59-2.123s17.838-2.13,18.17-2.253
		c0.33-0.121,6.168-2.105,6.279-2.436c0.109-0.33,5.693-3.2,0.756-5.359c-0.404-0.176-33.035,5.359-36.23,5.689
		c-3.195,0.332-18.729,3.351-20.049,2.889c-1.324-0.465-12.334,0.527-14.045,1.628c-1.709,1.103-10.736,9.732-10.736,9.732
		L120.174,322.478z"/>
	<path fill="#383838" d="M199.818,266.024c-1.9-2.042-4.814-4.839-7.5-7.346c-3.479-3.247-8.041-4.921-8.041-4.921l-30.875-4.833
		l-39.945,2.148c0,0-2.533,2.686-48.348,16.729c-45.813,14.044-63.081,31.771-64.461,53.644
		c-1.382,21.87,30.389,46.734,30.389,46.734s10.255,5.265,16.011,10.559c5.755,5.296,23.357-6.876,24.509-7.566
		s36.604-17.728,38.447-17.686c0.51,0.012-0.188-2.353-0.852-3.024c-6.02-6.096-5.682-15.78,0.08-22.323
		c5.027-5.709,27.283-16.104,28.398-16.594c5.756-2.532,18.188-3.915,24.633-3.96c6.447-0.046,29.955-2.256,34.645-4.328
		c4.691-2.071,9.412-10.799,9.115-18.299C205.701,276.816,204.178,270.709,199.818,266.024"/>
	<path fill="none" stroke="#1E1D1D" stroke-width="1.208" stroke-miterlimit="10" d="M199.818,266.024
		c-1.9-2.042-4.814-4.839-7.5-7.346c-3.479-3.247-8.041-4.921-8.041-4.921l-30.875-4.833l-39.945,2.148
		c0,0-2.533,2.686-48.348,16.729c-45.813,14.044-63.081,31.771-64.461,53.644c-1.382,21.87,30.389,46.734,30.389,46.734
		s10.255,5.265,16.011,10.559c5.755,5.296,23.357-6.876,24.509-7.566s36.604-17.728,38.447-17.686
		c0.51,0.012-0.188-2.353-0.852-3.024c-6.02-6.096-5.682-15.78,0.08-22.323c5.027-5.709,27.283-16.104,28.398-16.594
		c5.756-2.532,18.188-3.915,24.633-3.96c6.447-0.046,29.955-2.256,34.645-4.328c4.691-2.071,9.412-10.799,9.115-18.299
		C205.701,276.816,204.178,270.709,199.818,266.024z"/>
	<path fill="#2D304F" d="M168.07,131.783c0,0,3.268-4.771,9.111-7.237c3.34-1.41,9.322-1.242,11.473-1.083
		c5.914,0.438,28.713,40.863,28.713,40.863s-19.77,4.589-24.184,14.535l-3.824-6.57c0,0-8.807,18.386-11.85,23.222
		c-3.045,4.834-3.273,20.719-2.814,25.323c0.461,4.605,7.828,31.081,12.893,33.613c5.066,2.533,10.361,4.604,9.67,6.907
		c-0.689,2.303,0.461,1.381-3.684,0s-9.67-7.366-28.086-8.287c-18.42-0.921-44.895,1.38-52.723,1.841
		c-7.826,0.461-8.979,0.922-8.979,0.922s7.367-21.412,7.139-32.001c-0.23-10.591-3.686-20.721-3.455-21.873
		s-22.441-21.22,4.148-38.175l-19.803-2.244c0,0,10.359-29.339,17.957-32.331c7.598-2.993,11.637-2.139,15.885,0.46
		c4.273,2.614,8.172,2.872,7.752,3.907c-5.182,8.289,0.063,20.245,2.51,23.531c2.104,2.825,6.775,3.412,14.602-0.041
		C158.35,153.611,160.844,135.691,168.07,131.783"/>
	<path fill="none" stroke="#52586D" stroke-width="1.208" stroke-miterlimit="10" d="M168.07,131.783c0,0,3.268-4.771,9.111-7.237
		c3.34-1.41,9.322-1.242,11.473-1.083c5.914,0.438,28.713,40.863,28.713,40.863s-19.77,4.589-24.184,14.535l-3.824-6.57
		c0,0-8.807,18.386-11.85,23.222c-3.045,4.834-3.273,20.719-2.814,25.323c0.461,4.605,7.828,31.081,12.893,33.613
		c5.066,2.533,10.361,4.604,9.67,6.907c-0.689,2.303,0.461,1.381-3.684,0s-9.67-7.366-28.086-8.287
		c-18.42-0.921-44.895,1.38-52.723,1.841c-7.826,0.461-8.979,0.922-8.979,0.922s7.367-21.412,7.139-32.001
		c-0.23-10.591-3.686-20.721-3.455-21.873s-22.441-21.22,4.148-38.175l-19.803-2.244c0,0,10.359-29.339,17.957-32.331
		c7.598-2.993,11.637-2.139,15.885,0.46c4.273,2.614,8.172,2.872,7.752,3.907c-5.182,8.289,0.063,20.245,2.51,23.531
		c2.104,2.825,6.775,3.412,14.602-0.041C158.35,153.611,160.844,135.691,168.07,131.783z"/>
	<path fill="none" stroke="#1E1D1D" stroke-width="1.208" stroke-miterlimit="10" d="M107.236,268.759
		c0,0-102.509,33.325-89.542,77.052"/>
	<path fill="#373B5B" d="M184.666,163.602c0,0-0.908,4.432-0.779,7.146c0.129,2.717-2.076,11.216-4.414,14.428
		c-2.334,3.214-6.617,7.886-8.436,13.078c-1.816,5.191,0.26,11.291-1.166,15.185c-1.43,3.893-2.857,6.359-4.545,8.697
		c-1.686,2.334,3.246,11.306,3.764,13.57c0.52,2.264,0.727,8.42,2.807,10.657c2.08,2.235,11.082,6.791,11.211,7.569
		c0.131,0.778,7.592,3.422,7.689,3.657c0.098,0.236,5.029,2.479,5.029,2.479s0.453-0.465-1.529-1.676
		c-0.811-0.494-2.01-1.096-3.357-1.756c-1.949-0.954-4.283-1.895-5.105-3.077c-0.439-0.63-1.297-1.71-2.162-3.357
		c-1.879-3.578-4.182-9.104-5.033-13.332c-1.242-6.171-4.992-14.15-4.605-22.026c0.387-7.875,1.031-13.988,1.887-16.812
		c0.379-1.251,1.938-4.028,3.713-7.376c1.84-3.467,3.918-7.541,5.502-10.725c3.115-6.257,4.166-8.652,4.166-8.652L184.666,163.602z"
		/>
	<path fill="#D1D3D4" d="M130.273,281.124l-63.67,2.167c0,0-4.502,0-4.502-3c0-2.999,8.334-5.166,10.666-5.166
		c2.336,0,22.67,0.666,24.17,0c1.5-0.668,20.002,0.666,21.002,0c1-0.668,6.01-0.218,7.088-0.193
		C126.107,274.957,132.607,278.458,130.273,281.124"/>
	<path fill="#E6E7E8" d="M94.484,246.025c0,0,27.121,19.764,29.121,22.265c2.002,2.501,4.168,7.001,6.336,7.668
		c2.166,0.666,3.832,1.833,1.166,2.999c-2.666,1.168-65.006,1.168-65.006,1.168s-4.668,1.333-2.166,2.999
		c2.5,1.668,0.832,1.835,0.832,1.835s-24.668-19.502-30.835-23.669s-10.667-8.002-13.169-10.335
		c-2.499-2.334-6.333-4.024-6.165-4.93c0.166-0.903,4.5-1.943,10.667-1.089c6.167,0.852,20.668,0.66,22.168,1.089
		c1.5,0.429,20.502-0.596,29.17,0C85.27,246.623,94.484,246.025,94.484,246.025"/>
	<path fill="#58595B" d="M146.768,421.777c0,0,10.598,7.088,11.586,9.161c0.99,2.073,7.9,7.738,9.281,9.259
		c1.383,1.52,4.734,4.042,6.355,6.633c1.623,2.591,4.889,13.187,4.699,15.501c-0.189,2.312,0.982,13.58,0.008,16.313
		c-0.977,2.732-4.568,13.511-5.398,14.616c-0.828,1.105,1.936,7.048,8.844,5.941c6.912-1.105,14.648-4.974,20.176-12.298
		s6.91-16.721,5.113-27.913c0,0-6.771-10.78-6.771-12.99c0-2.211-0.828-20.313-1.52-22.525c-0.689-2.211-4.146-8.567-12.852-10.915
		c-8.705-2.351-12.299-0.554-17.135-4.008c-4.836-3.456-10.965-8.138-10.965-8.138s-3.402,11.396-6.561,13.806
		c-3.158,2.41-5.941,5.989-5.941,5.989L146.768,421.777z"/>
	<path fill="none" stroke="#231F20" stroke-width="1.208" stroke-miterlimit="10" d="M146.768,421.777
		c0,0,10.598,7.088,11.586,9.161c0.99,2.073,7.9,7.738,9.281,9.259c1.383,1.52,4.734,4.042,6.355,6.633
		c1.623,2.591,4.889,13.187,4.699,15.501c-0.189,2.312,0.982,13.58,0.008,16.313c-0.977,2.732-4.568,13.511-5.398,14.616
		c-0.828,1.105,1.936,7.048,8.844,5.941c6.912-1.105,14.648-4.974,20.176-12.298s6.91-16.721,5.113-27.913
		c0,0-6.771-10.78-6.771-12.99c0-2.211-0.828-20.313-1.52-22.525c-0.689-2.211-4.146-8.567-12.852-10.915
		c-8.705-2.351-12.299-0.554-17.135-4.008c-4.836-3.456-10.965-8.138-10.965-8.138s-3.402,11.396-6.561,13.806
		c-3.158,2.41-5.941,5.989-5.941,5.989L146.768,421.777z"/>
	
		<path fill="none" stroke="#231F20" stroke-width="1.208" stroke-linecap="round" stroke-linejoin="round" stroke-miterlimit="10" d="
		M161.691,417.534c0,0-5.389,9.674-7.186,10.502c0,0,8.291-9.119,14.096-8.843c5.803,0.276,0.967,3.041,0,4.975
		s-7.6,9.118-7.738,10.502c-0.139,1.381,1.279,0.452,1.443,0.604c0.164,0.15,8.834-8.954,11.131-8.787s4.283,1.549,2.213,2.793
		c-2.074,1.243-11.748,8.43-11.057,9.673c0.691,1.244,2.35,1.797,3.041,1.244c0.689-0.554,6.77-9.535,11.055-7.602
		c4.283,1.935,6.504,2.605,4.283,3.871c-2.221,1.264-13.807,3.463-12.707,6.222c1.1,2.76,1.271,2.536,2.43,2.44
		c1.158-0.095,2.125-6.314,9.863-4.795c7.738,1.521,3.316,4.843,3.316,4.843s-11.607-2.63-11.885,1.653
		c-0.275,4.284-0.121,3.883,1.391,3.047s5.656-4.704,9.527-2.771c3.869,1.935,5.666,3.317,4.699,4.698
		c-0.969,1.382-11.258,0.139-12.676,3.454c-1.422,3.316,1.344,2.764,1.758,2.764s4.008-4.223,9.949-3.699
		c5.941,0.521,7.047,3.423,7.047,4.805s-12.246-2.646-17.039,2.271c0,0-1.412,3.563,1.25,3.203s3.49-3.217,7.361-2.271
		c3.867,0.941,7.322,5.459,7.461,7.002s-7.465-2.84-11.885,0.525"/>
	
		<path fill="none" stroke="#231F20" stroke-width="1.208" stroke-linecap="round" stroke-linejoin="round" stroke-miterlimit="10" d="
		M197.621,485.573c0,0-11.129-8.716-17.725-4.73"/>
	<path fill="#383133" d="M190.939,494.858c0,0,7.096-4.597,9.721-14.014c2.627-9.418,2.35-19.366,0-25.586
		c-2.35-6.218-4.559-11.469-4.975-15.892c-0.414-4.421-0.275-11.331-0.828-14.923c-0.553-3.593-5.824-11.239-8.568-11.884
		c0,0,8.982,2.901,11.332,6.771s3.322,12.466,2.629,17.012c-0.695,4.545,0.672,11.192,1.922,13.534
		c1.252,2.342,5.24,7.99,5.557,11.166c0.314,3.175-0.363,18.345-3.229,22.466c-2.682,3.858-5.873,9.457-11.387,11.662
		C192.287,495.5,191.529,494.812,190.939,494.858"/>
	<path fill="#58595B" d="M70.904,416.291c0,0,4.973,10.502,6.217,13.404c1.244,2.9,3.732,6.218,4.975,11.882
		c1.244,5.667,2.627,7.05,0.967,13.268c-1.658,6.218-4.559,17.1-6.355,20.295c-1.797,3.197-1.244,7.481-3.178,9.415
		c-1.936,1.934-10.088,7.877-12.576,8.705c-2.488,0.832-0.691,4.838,5.252,6.633c5.941,1.797,16.582,4.837,26.809,0
		c10.225-4.835,7.738-14.647,10.779-23.075c3.039-8.431,1.795-12.301,6.355-15.615c4.561-3.317,9.396-8.567,10.777-13.682
		c1.383-5.112,1.063-10.778-3.959-15.615c-5.023-4.836-22.709-19.622-23.953-21.832c-1.244-2.213-4.699-4.838-4.699-4.838
		S80.438,417.671,70.904,416.291"/>
	<path fill="none" stroke="#231F20" stroke-width="1.208" stroke-miterlimit="10" d="M70.904,416.291c0,0,4.973,10.502,6.217,13.404
		c1.244,2.9,3.732,6.218,4.975,11.882c1.244,5.667,2.627,7.05,0.967,13.268c-1.658,6.218-4.559,17.1-6.355,20.295
		c-1.797,3.197-1.244,7.481-3.178,9.415c-1.936,1.934-10.088,7.877-12.576,8.705c-2.488,0.832-0.691,4.838,5.252,6.633
		c5.941,1.797,16.582,4.837,26.809,0c10.225-4.835,7.738-14.647,10.779-23.075c3.039-8.431,1.795-12.301,6.355-15.615
		c4.561-3.317,9.396-8.567,10.777-13.682c1.383-5.112,1.063-10.778-3.959-15.615c-5.023-4.836-22.709-19.622-23.953-21.832
		c-1.244-2.213-4.699-4.838-4.699-4.838S80.438,417.671,70.904,416.291z"/>
	
		<path fill="none" stroke="#231F20" stroke-width="1.208" stroke-linecap="round" stroke-linejoin="round" stroke-miterlimit="10" d="
		M75.74,420.297c0.414-0.276,9.811-0.494,11.193,1.479c1.381,1.975-3.555,0.438-7.047,3.357c-3.494,2.919-2.766,4.561-2.766,4.561
		s-0.553,3.316,2.072,1.521c2.627-1.797,8.326-5.725,11.557-5.282c3.23,0.445,4.197,2.379,2.125,2.655s-13.598,4.699-12.496,7.685
		c1.104,2.984,1.164,2.155,3.375,0c2.211-2.157,8.43-6.854,12.299-3.814s2.764,5.251,0,4.835c-2.764-0.414-13.715-0.095-14.182,3.34
		c-0.465,3.431,1.055,4.628,3.404,3.063c2.348-1.565,6.908-5.986,10.777-3.499c3.869,2.486,3.455,5.112,1.936,5.112
		c-1.521,0-12.955-1.398-14.424,2.133c-1.469,3.533-0.777,3.133,2.816,2.435c3.594-0.696,7.186-4.429,9.949-1.803
		s4.975,6.891,3.316,5.794s-11.619-6.428-16.381,0.176c-4.762,6.604,2.857,1.631,4.713,1.491c1.855-0.138,8.488,1.244,9.318,4.561
		c0.828,3.317-3.455-1.381-5.666-1.104c-2.211,0.275-9.674,0.104-10.602,3.34c-0.926,3.233,4.383-2.188,8.254,0
		c3.867,2.186,6.77,8.836,5.664,9.036c-1.105,0.198-6.91-10.165-13.266-6.435c-6.357,3.73-1.381,4.926-1.381,4.926
		s7.6-2.699,9.119,1.509c1.52,4.206,1.33,5.45,1.33,5.45s-8.516-7.032-11.418-5.45c-2.902,1.579-3.592,3.772-3.592,3.772"/>
	
		<path fill="none" stroke="#231F20" stroke-width="1.208" stroke-linecap="round" stroke-linejoin="round" stroke-miterlimit="10" d="
		M72.387,485.573c0,0,12.631-1.847,15.592,9.622"/>
	<path fill="#383133" d="M70.434,501.082c0,0,12.744-1.772,21.889-7.406s7.084-15.928,7.895-18.536
		c0.811-2.606,0.811-11.588,6.338-17.255c5.529-5.666,9.813-9.811,8.846-16.444c-0.969-6.632-5.113-14.92-5.113-14.92
		s5.359,3.416,8.514,7.751c1.303,1.789,1.941,3.857,2.27,5.992c0.467,3.033-0.088,5.179-0.816,7.801
		c-0.82,2.955-2.525,5.283-4.23,7.035c-0.936,0.963-2.088,2.312-3.494,3.569c-1.611,1.444-3.5,2.841-4.768,4.539
		c-1.428,1.917-1.502,4.539-1.883,6.104c-0.484,1.977-2.012,5.854-3.088,10.342c-1.188,4.944-1.973,10.563-3.441,13.639
		c-0.359,0.749-1.18,2.18-1.658,2.754c-3.08,3.691-5.863,4.919-10.957,5.901C80.664,503.116,70.434,501.082,70.434,501.082"/>
	<path fill="#383838" d="M28.867,368.763c0,0,37.061,43.657,37.338,44.072c0.275,0.415,0.141,4.572,8.43,3.322
		c8.291-1.25,16.754-12.028,16.115-15.068s-18.465-17.963-19.156-19.208c-0.691-1.244-8.982-9.673-9.258-10.365
		c-0.176-0.438-31.062-31.476-40.863-32.423C15.853,338.549,24.542,364.613,28.867,368.763"/>
	<path fill="none" stroke="#1E1D1D" stroke-width="1.208" stroke-miterlimit="10" d="M28.867,368.763
		c0,0,37.061,43.657,37.338,44.072c0.275,0.415,0.141,4.572,8.43,3.322c8.291-1.25,16.754-12.028,16.115-15.068
		s-18.465-17.963-19.156-19.208c-0.691-1.244-8.982-9.673-9.258-10.365c-0.176-0.438-31.062-31.476-40.863-32.423
		C15.853,338.549,24.542,364.613,28.867,368.763z"/>
	<path fill="#FFC691" d="M98.709,231.508c0.078-1.636,1.34-3.395,3.078-5.008c1.393-1.294,3.334-5.242,6.152-5.242
		c2.814,0,15.205,0.563,15.205,0.563l-2.252-0.563c-2.254-0.565-7.604-6.479-8.168-7.604c-0.563-1.126,2.816-2.253,6.859,0.282
		c4.043,2.533,13.979-0.564,18.768,0.844c4.787,1.409,6.758,5.632,7.885,9.012c1.125,3.38,3.098,4.507,8.73,3.823
		c5.631-0.683,19.73-6.78,26.75-9.214c7.023-2.435,27.598-9.815,27.598-9.815l-15.168-30.599c0,0,4.184-4.46,10.197-7.907
		c2.334-1.337,10.533-5.292,10.699-4.89c6.082,14.782,17.857,46.857,18.471,52.607c0.779,7.32-2.963,6.329-15.754,12.801
		c-12.791,6.475-69.486,11.856-71.826,11.544s-2.184-0.313-7.645,2.962c-5.457,3.276-14.035-0.467-14.191,0.47
		c-0.156,0.935-7.098,3.35-7.098,3.35s8.813,3.201,8.592,5.114s-5.16,1.829-9.217,1.205c-1.104-0.171-3.309-0.869-4.146-1.354
		c-2.236-1.297-2.246-2.935-2.246-2.935s-0.031,1.829-1.484,5.693c-1.449,3.863-4.443,3.275-4.443,3.275s0.623-14.973,0.467-14.739
		c-0.053,0.082,0.23-5.232-0.779-4.914c-2.496,8.111-5.729,6.968-6.24,7.021c-0.777,0.077,0.258-4.199,0.412-5.682
		C98.07,240.127,98.631,233.146,98.709,231.508"/>
	<path fill="none" stroke="#F1B486" stroke-width="1.208" stroke-miterlimit="10" d="M98.709,231.508
		c0.078-1.636,1.34-3.395,3.078-5.008c1.393-1.294,3.334-5.242,6.152-5.242c2.814,0,15.205,0.563,15.205,0.563l-2.252-0.563
		c-2.254-0.565-7.604-6.479-8.168-7.604c-0.563-1.126,2.816-2.253,6.859,0.282c4.043,2.533,13.979-0.564,18.768,0.844
		c4.787,1.409,6.758,5.632,7.885,9.012c1.125,3.38,3.098,4.507,8.73,3.823c5.631-0.683,19.73-6.78,26.75-9.214
		c7.023-2.435,27.598-9.815,27.598-9.815l-15.168-30.599c0,0,4.184-4.46,10.197-7.907c2.334-1.337,10.533-5.292,10.699-4.89
		c6.082,14.782,17.857,46.857,18.471,52.607c0.779,7.32-2.963,6.329-15.754,12.801c-12.791,6.475-69.486,11.856-71.826,11.544
		s-2.184-0.313-7.645,2.962c-5.457,3.276-14.035-0.467-14.191,0.47c-0.156,0.935-7.098,3.35-7.098,3.35s8.813,3.201,8.592,5.114
		s-5.16,1.829-9.217,1.205c-1.104-0.171-3.309-0.869-4.146-1.354c-2.236-1.297-2.246-2.935-2.246-2.935s-0.031,1.829-1.484,5.693
		c-1.449,3.863-4.443,3.275-4.443,3.275s0.623-14.973,0.467-14.739c-0.053,0.082,0.23-5.232-0.779-4.914
		c-2.496,8.111-5.729,6.968-6.24,7.021c-0.777,0.077,0.258-4.199,0.412-5.682C98.07,240.127,98.631,233.146,98.709,231.508z"/>
	<path fill="none" stroke="#F1B486" stroke-width="1.208" stroke-miterlimit="10" d="M209.102,208.154
		c0.215,0.431-0.111,2.413,0.279,3.896"/>
	
		<path fill="none" stroke="#F1B486" stroke-width="1.208" stroke-linecap="round" stroke-linejoin="round" stroke-miterlimit="10" d="
		M120.633,238.81c0.018-0.396,0.299-2.175-0.744-2.805s0.488-1.968-0.576-3.778c-1.064-1.81-3.461-0.971-3.994-2.389
		c-0.531-1.417,0.828-2.336-0.518-3.392c-1.344-1.058-2.264-0.365-3.34-1.228c-1.08-0.859-2.508-3.61-4.225-3.413"/>
	
		<path fill="none" stroke="#F1B486" stroke-width="1.208" stroke-linecap="round" stroke-linejoin="round" stroke-miterlimit="10" d="
		M111.619,235.592c-0.234,0-5.928,3.274-6.551,4.99c-0.625,1.716-0.898,5.442-0.898,5.442"/>
	<path fill="#F1B486" d="M118.793,240.27c0,0-6.316,3.511-7.174,4.835c-0.723,1.119-1.656,2.142-1.582,4.412
		c0.006,0.2,0.26,0.912,0.432,1.361c0.109,0.287-0.895,0.18-0.969,0.143c-0.074-0.036,0.207-0.521,0.033-1.205
		c-0.281-1.111-0.508-2.852-0.41-4.398c0.156-2.495,1.248-3.274,1.561-3.587c0.207-0.208,3.766-1.763,6.1-2.848
		c1.174-0.547,2.037,0.959,2.012,0.88"/>
	<path fill="#F1B486" d="M217.367,170.976c0,0-5.682,1.847-8.219,4.554c-2.535,2.705-8.846,6.199-9.266,6.345
		c-0.422,0.145,3.926,8.039,3.926,8.039l6.777,15.611c0,0,3.879,2.703,4.02,4.181c0,0-3.662-0.89-4.9-1.104
		c-1.236-0.215-14.125-27.721-14.125-27.721s5.48-8.08,11.875-9.45c6.396-1.371,9.086-2.455,9.086-2.455L217.367,170.976z"/>
	<path fill="#F1B486" d="M104.561,240.315c-0.391-1.732-0.393-2.465-0.199-3.945c0.193-1.483,5.229-6.706,5.465-6.549l-1.932-2.575
		c0,0-4.543,6.006-4.621,6.863c-0.074,0.834-0.711,4.285,0.041,5.798c0.021,0.04-0.273,0.985,0.094,0.772
		C103.408,240.679,104.529,240.6,104.561,240.315"/>
	<path fill="#6D6E71" d="M96.252,248.459c0.1-0.159,0.369-0.6,0.574-0.919c1.461,1.384,4.012-0.663,4.109-0.632
		c0.74,0.239,1.598,0.269,2.432,0.143c-0.934,3.774-2.039,7.395-3.064,8.313l-0.85,0.814l-3.742,1.551c0,0-1.375-3.695-1.088-5.255
		C94.863,251.143,95.424,249.751,96.252,248.459"/>
	<path fill="#231F20" d="M99.822,255.501l0.096,0.231l0.385-0.368c0,0,0.418-0.345,0.381-0.455c-0.615-1.772-2.428-4.471-5.643-3.99
		c-0.09,0.015-0.172,0.563-0.172,0.563l-0.162,0.579l0.256-0.111C98.529,251.238,99.771,255.329,99.822,255.501"/>
	<path fill="#2D304F" d="M216.953,164.408c0,0,0.668,1.988,1.807,2.565c1.139,0.576-6.836,2.976-9.125,4.104
		c-2.289,1.128-14.861,10.081-15.199,10.425c-0.492-0.201-1.084-1.949-1.645-2.406c-0.137-0.124,4.369-5.116,9.699-8.584
		C207.443,167.29,215.557,164.532,216.953,164.408"/>
	<path fill="none" stroke="#52586D" stroke-width="1.208" stroke-miterlimit="10" d="M216.953,164.408c0,0,0.668,1.988,1.807,2.565
		c1.139,0.576-6.836,2.976-9.125,4.104c-2.289,1.128-14.861,10.081-15.199,10.425c-0.492-0.201-1.084-1.949-1.645-2.406
		c-0.137-0.124,4.369-5.116,9.699-8.584C207.443,167.29,215.557,164.532,216.953,164.408z"/>
	<path fill="#383838" d="M151.867,386.603c0,0,7.678,10.3,7.865,11.966c0.186,1.668-1.881,5.756-3.934,9.899
		c-2.053,4.145-2.975,9.669-10.111,11.741s-17.297,2.533-21.195-1.38c-3.898-3.914-9.654-4.605-16.563-6.217
		c-6.904-1.61-15.424-2.303-20.719-5.525c-5.295-3.224-1.283-11.608-8.648-12.301c-7.369-0.69-51.071-25.902-58.333-41.3
		c-5.149-10.917-4.565-25.657,5.635-31.413c10.197-5.757,39.476,17.896,42.009,17.496c2.531-0.398,24.402,2.143,25.094,2.139
		s17.727,12.889,17.727,12.889s16.238,8.748,19.859,14.504c3.623,5.755,6.123,7.598,9.707,9.438
		C143.846,380.382,151.867,386.603,151.867,386.603"/>
	<path fill="none" stroke="#1E1D1D" stroke-width="1.208" stroke-miterlimit="10" d="M151.867,386.603c0,0,7.678,10.3,7.865,11.966
		c0.186,1.668-1.881,5.756-3.934,9.899c-2.053,4.145-2.975,9.669-10.111,11.741s-17.297,2.533-21.195-1.38
		c-3.898-3.914-9.654-4.605-16.563-6.217c-6.904-1.61-15.424-2.303-20.719-5.525c-5.295-3.224-1.283-11.608-8.648-12.301
		c-7.369-0.69-51.071-25.902-58.333-41.3c-5.149-10.917-4.565-25.657,5.635-31.413c10.197-5.757,39.476,17.896,42.009,17.496
		c2.531-0.398,24.402,2.143,25.094,2.139s17.727,12.889,17.727,12.889s16.238,8.748,19.859,14.504
		c3.623,5.755,6.123,7.598,9.707,9.438C143.846,380.382,151.867,386.603,151.867,386.603z"/>
	<path fill="#383838" d="M61.693,315.438l35.236,21.265l3.338,11.212l-21.137,1.166c0,0-17.523-1.497-17.939-1.166
		c-0.418,0.331-16.272,4.921-16.272,4.921l-11.68,3.198l-4.156-0.638c0,0-15.235-14.012-12.571-22.454
		c1.351-6.377,6.548-13.669,13.579-16.251C43.403,311.8,61.693,315.438,61.693,315.438"/>
	<path fill="#1E1D1D" d="M105.521,344.493c-0.764-2.597-0.928-6.464-0.506-8.762c-2.732-4.926-6.414-4.27-10.471-5.69
		c-5.33-1.866-10.566-0.964-15.676-0.813c-0.643,0.106-3.66,0.076-4.291,0.195c7.18,2.145,22.471,5.753,25.023,10.146
		c0,0,2.547,4.896,0.207,5.42c-4.463,0.998-15.525-1.809-17.494,0.082c-3,2.884-0.5,2.383,3,2.884
		c1.322,0.188-0.775,0.945-4.055,2.433c0.039,0.433,20.799-2.819,23.92,4.647c2.631-1.146,9.816,2.233,10.195,2.243
		C111.389,353.774,106.969,349.408,105.521,344.493"/>
	<path fill="#1E1D1D" d="M196.029,262.907c-0.686-0.249,0.008,4.336,0.395,9.642c0.385,5.308-3.498,16.503-16,17.361
		c-12.5,0.859-41.441,17.086-47.941,17.794s-18.201,3.559-23.201,8.059c-5,4.501-14.305,5.479-14.305,5.479
		s8.701,6.986,12.549,9.169c3.926-5.458,10.363-8.667,12.059-10.108c0.879-0.744,9.066-0.549,11.602-2.109
		c2.531-1.56,0.689-4.425,6.445-6.958c5.756-2.531,18.188-3.913,24.635-3.959c6.445-0.045,25.309-1.694,30.17-3.33
		c7.736-0.535,11.836-6.512,13.084-18.987C205.525,275.016,199.32,264.75,196.029,262.907"/>
	<path fill="#1E1D1D" d="M151.047,416.391c0,0-11.582,4.698-16.32,2.716c-4.738-1.983-11.682-5.841-15.316-6.392
		c-3.637-0.552-19.836-3.195-22.041-3.968c-2.203-0.771-11.568-3.891-12.68-5.999c-1.109-2.111-2.803-9.267-7.318-9.514
		c-4.52-0.247-11.477-4.193-14.34-6.484c-2.863-2.294-11.334-12.549-17.08-14.813c-5.748-2.264-21.13-16.422-21.2-17.233
		c-0.044-0.492,0.373,4.315,4.162,9.503c2.474,3.388,7.722,7.1,10.602,9.032c5.328,3.579,14.629,10.628,15.633,11.223
		c2.547,1.513,12.973,8.174,12.973,8.174s6.176,2.867,6.84,3.019c0.668,0.15,2.721,0.672,3.615,1.539
		c0.893,0.865,4.154,7.474,5.254,8.462s7.816,4.495,14.975,5.173c7.16,0.674,20.736,4.817,21.016,4.936
		c0.275,0.118,4.59,3.235,5.594,3.833c1.004,0.595,4.564,2.459,9.203,2.181c4.637-0.276,10.363-0.283,14.492-3.074
		C153.24,415.91,151.047,416.391,151.047,416.391"/>
	<path fill="#1E1D1D" d="M70.311,386.024c0,0-5.342-0.658-4.768-7.929c0,0,11.652,2.949,10.928,7.283
		c-0.727,4.332,1.836,9.016,5.813,11.35c3.979,2.333-1.963,0-1.963,0L70.311,386.024z"/>
	<path fill="#1E1D1D" d="M116.115,412.194c0.189,0.03,11.781-2.72,14.438-9.221c2.658-6.503,5.023,0.985,4.727,3.299
		c-0.295,2.314-7.502,11.422-10.252,10.119C122.277,415.089,116.115,412.194,116.115,412.194"/>
	<path fill="#2D304F" d="M107.193,166.825c-0.188-0.314-4.66-1.098-7.209-1.247c-2.549-0.151-9.592,0.149-8.768-0.824
		c0.824-0.975,1.049-2.955,1.049-2.955l16.455,1.654l2.898,0.329"/>
	<path fill="none" stroke="#52586D" stroke-width="1.208" stroke-miterlimit="10" d="M107.193,166.825
		c-0.188-0.314-4.66-1.098-7.209-1.247c-2.549-0.151-9.592,0.149-8.768-0.824c0.824-0.975,1.049-2.955,1.049-2.955l16.455,1.654
		l2.898,0.329"/>
	<path fill="#373B5B" d="M116.525,155.289c0,0-5.518,7.92-6.064,7.857c-0.545-0.062,2.598,0.315,2.598,0.315L116.525,155.289z"/>
	<path fill="#E5865C" d="M125.131,254.501c-0.082-0.541,0.012-0.706-0.617-1.055c-0.627-0.346-2.615,0.642-2.615,0.642l0.477,0.865
		C122.498,255.031,125.188,255.131,125.131,254.501"/>
	<path fill="none" stroke="#F1B486" stroke-width="1.208" stroke-miterlimit="10" d="M125.131,254.501
		c-0.082-0.541,0.012-0.706-0.617-1.055c-0.627-0.346-2.615,0.642-2.615,0.642l0.477,0.865
		C122.498,255.031,125.188,255.131,125.131,254.501z"/>
	<path fill="#E5865C" d="M104.477,259.411c0.541,0.076,0.672,0.213,1.186-0.288c0.512-0.503,0.135-2.69,0.135-2.69l-0.965,0.208
		C104.723,256.734,103.857,259.284,104.477,259.411"/>
	<path fill="none" stroke="#F1B486" stroke-width="1.208" stroke-miterlimit="10" d="M104.477,259.411
		c0.541,0.076,0.672,0.213,1.186-0.288c0.512-0.503,0.135-2.69,0.135-2.69l-0.965,0.208
		C104.723,256.734,103.857,259.284,104.477,259.411z"/>
	<path fill="#E5865C" d="M97.697,247.148c0.545-0.022,0.699,0.09,1.117-0.495c0.412-0.586-0.35-2.672-0.35-2.672l-0.91,0.379
		C97.463,244.471,97.064,247.133,97.697,247.148"/>
	<path fill="none" stroke="#F1B486" stroke-width="1.208" stroke-miterlimit="10" d="M97.697,247.148
		c0.545-0.022,0.699,0.09,1.117-0.495c0.412-0.586-0.35-2.672-0.35-2.672l-0.91,0.379C97.463,244.471,97.064,247.133,97.697,247.148
		z"/>
	<path fill="#E5865C" d="M113.123,212.925c-0.016,0.547-0.139,0.692,0.416,1.147c0.555,0.454,2.689-0.157,2.689-0.157l-0.314-0.938
		C115.809,212.88,113.182,212.296,113.123,212.925"/>
	<path fill="none" stroke="#F1B486" stroke-width="1.208" stroke-miterlimit="10" d="M113.123,212.925
		c-0.016,0.547-0.139,0.692,0.416,1.147c0.555,0.454,2.689-0.157,2.689-0.157l-0.314-0.938
		C115.809,212.88,113.182,212.296,113.123,212.925z"/>
	<path fill="#6D6E71" d="M118.889,205.739c-0.219-0.333-4.615-2.915-6.396,2.434c-1.393,4.189-2.973,10.338-3.545,12.597
		c1.322,0.01,3.531,0.187,4.861,0.147c0.771-3.715,1.766-7.691,2.662-8.782C118.264,209.95,120.215,207.768,118.889,205.739"/>
	<path fill="#414042" d="M33.158,249.206c0.941,0.307,1.309,0.819,1.854,1.632c0.586,0.875,0.79,1.63,1.863,2.176
		c0.575,0.293,1.311,0.308,1.907,0.569c1.009,0.443,1.741,1.192,2.531,1.931c0.543,0.563,1.128,1.077,1.754,1.543
		c0.62,0.226,1.241,0.453,1.863,0.679c0.202,0.123,0.447,0.066,0.661,0.283c0.638,0.646,0.433,1.519,1.25,2.085
		c0.528,0.365,1.062,0.267,1.576,0.829c1.072,1.176,1.955,2.364,3.205,3.432c0.84,0.717,2.695,3.705,3.838,3.099
		c0.219-0.116,0.646-0.044,0.734,0.225c0.867,2.665,3.16,4.153,4.83,6.264c0.627,0.789,1.004,1.055,1.816,1.542
		c0.25,0.15,1.539,1.498,1.406,1.494c0.617,0.021,0.627,0.771,0,0.751c-0.836-0.028-0.742-0.4-1.297-0.903
		c-0.74-0.674-1.365-0.667-2.016-1.396c-1.871-2.101-4.465-4.435-5.527-7.116c-2.014,0.528-3.133-2.267-4.492-3.427
		c-1.18-1.012-2.02-1.993-3.046-3.11c-0.69-0.751-1.747-0.771-2.358-1.558c-0.668-0.858,0.028-0.976-1.278-1.709
		c-0.247-0.142-0.61-0.115-0.879-0.274c-1.309-0.78-2.274-1.851-3.413-2.825c-1.369-1.175-3.131-1.202-4.446-2.304
		c-1.136-0.949-1.294-2.759-2.842-3.263C32.035,249.651,32.677,249.048,33.158,249.206"/>
	<path fill="#414042" d="M51.393,252.234c1.6,2.65,3.457,5.121,5.639,7.323c1.947,1.964,4.092,3.552,5.898,5.676
		c2.211,2.598,4.426,6.372,7.473,7.935c1.865,0.956,3.15,1.96,4.047,3.917c0.219,0.477-0.764,0.634-0.963,0.2
		c-1.313-2.856-4.094-3.063-6.01-5.173c-2.076-2.29-3.92-4.805-5.949-7.137c-1.635-1.874-3.623-3.285-5.359-5.039
		c-2.18-2.206-4.037-4.67-5.639-7.324C50.229,252.116,51.146,251.83,51.393,252.234"/>
	<path fill="#414042" d="M66.457,258.566c0.586,0.23,0.598,0.247,0.943,0.815c0.371,0.613,0.387,1.198,0.844,1.842
		c0.629,0.885,1.273,1.247,2.229,1.736c1.857,0.956,2.934,1.776,4.107,3.552c1.016,1.535,2.521,2.541,3.566,3.977
		c1.361,1.871,3.652,3.365,5.941,3.725c0.648,0.101,0.291,0.81-0.266,0.723c-2.166-0.34-3.342-1.435-5.139-2.525
		c-0.387-0.237-0.871-0.356-1.193-0.668c-0.174-0.167-0.152-0.477-0.27-0.657c-0.99-1.534-0.66-1.203-1.82-2.162
		c-0.799-0.657-1.303-1.498-1.881-2.343c-0.984-1.438-1.992-2.177-3.553-2.971c-0.875-0.446-1.791-0.868-2.453-1.627
		c-0.564-0.648-0.854-2.489-1.563-2.769C65.344,258.976,65.979,258.378,66.457,258.566"/>
	<path fill="#414042" d="M75.797,257.16c2.191,1.632,4.107,3.551,5.633,5.826c0.623,0.928,1.109,1.905,1.639,2.884
		c0.973,1.798,2.393,2.444,4.137,3.351c0.811,0.422,1.617,0.855,2.311,1.459c1.223,1.061,1.336,1.96,3.006,2.632
		c1.855,0.747,3.08,1.516,3.576,3.624c0.123,0.524-0.857,0.663-0.965,0.201c-0.711-3.034-3.688-2.384-5.174-4.469
		c-1.461-2.047-3.373-2.695-5.449-3.942c-1.914-1.149-2.373-2.846-3.508-4.683c-1.543-2.499-3.563-4.604-5.91-6.353
		C74.592,257.318,75.412,256.872,75.797,257.16"/>
	<path fill="#414042" d="M83.178,252.215c1.4,2.153,3.738,3.414,5.459,5.29c0.893,0.974,1.682,2.038,2.359,3.173
		c0.686,1.154,1.104,2.936,2.238,3.605c0.598,0.354,1.262,0.366,1.836,0.771c0.828,0.582,1.273,1.814,1.779,2.615
		c1.627,2.571,4.057,5.429,6.986,6.509c0.613,0.226-0.025,0.823-0.504,0.646c-2.225-0.819-4.113-2.652-5.631-4.434
		c-0.934-1.098-1.65-2.283-2.398-3.506c-0.813-1.328-1.848-1.205-2.953-1.974c-0.621-0.433-0.863-1.186-1.189-1.827
		c-0.781-1.521-1.535-2.968-2.613-4.3c-1.863-2.295-4.619-3.706-6.232-6.19C81.998,252.107,82.92,251.818,83.178,252.215"/>
	<path fill="#414042" d="M91.387,251.157c0.414,0.69,0.838,1.375,1.24,2.069c0.313,0.544,0.52,1.543,0.939,1.955
		c0.408,0.402,0.963,0.683,1.385,1.087c0.512,0.488,0.99,1.013,1.477,1.523c0.389,0.411-0.543,0.717-0.863,0.379
		c-0.572-0.601-1.127-1.247-1.762-1.779c-0.402-0.336-0.959-0.576-1.301-0.977c-0.318-0.374-0.377-0.861-0.553-1.313
		c-0.352-0.905-0.926-1.732-1.426-2.565C90.225,251.037,91.145,250.75,91.387,251.157"/>
	<path fill="#F1B486" d="M144.986,241.8c0,0-1.66-1.091-2.904-0.992c-1.246,0.098-5.205,3.738-8.303,3.099
		c-3.096-0.639-7.121,0.64-8.047,0.384s-2.203,0.108-2.457,0.678c-0.256,0.567-2.203,2.037-4.057,2.26
		c-1.852,0.224-3.611,1.695-3.611,1.695l4.793-1.407l4.732-2.204l4.762,0.995c0,0,7.824-0.316,8.611-1.058
		c0.785-0.746,3.959-2.618,3.959-2.618L144.986,241.8z"/>
	<path fill="#FFC691" d="M124.219,17.175c0,0-1.146,37.621-3.137,42.698c-1.99,5.078-4.879,7.039-4.752,16.104
		c0.113,8.241,2.707,27.293,10.775,29.98c8.068,2.687,25.109,2.33,39.518-4.182c14.41-6.513,17.873-16.799,23.41-26.48
		c5.537-9.683,3.531-43.752,3.256-46.442c-0.277-2.689-14.645-15.272-16.84-17.063c-2.195-1.791-28.354,2.922-28.354,2.922
		S125.564,9.384,124.219,17.175"/>
	<path fill="none" stroke="#F1B486" stroke-width="1.208" stroke-miterlimit="10" d="M124.219,17.175c0,0-1.146,37.621-3.137,42.698
		c-1.99,5.078-4.879,7.039-4.752,16.104c0.113,8.241,2.707,27.293,10.775,29.98c8.068,2.687,25.109,2.33,39.518-4.182
		c14.41-6.513,17.873-16.799,23.41-26.48c5.537-9.683,3.531-43.752,3.256-46.442c-0.277-2.689-14.645-15.272-16.84-17.063
		c-2.195-1.791-28.354,2.922-28.354,2.922S125.564,9.384,124.219,17.175z"/>
	<path fill="#F1B486" d="M132.582,35.116c-0.037,0.373,0.395,11.063,11.551,17.081c8.795,4.215,14.123,1.995,14.123,1.995
		s-6.416-8.646-8.299-12.877l28.027,13.796c0,0-4.746-5.245-7.697-7.646c-2.951-2.399-4.932-7.282-4.932-7.282
		s9.904,6.798,10.967,8.696c1.063,1.898,4.377,5.922,4.557,9.805s-0.254,6.601-0.254,6.601s5.705-7.377,5.193-10.06
		c-0.508-2.684,7.158,9.678-5.291,28.414c-12.449,18.736-45.934,24.322-49.68,23.865c0,0,15.387,0.896,24.758-2.062
		c9.369-2.959,19.451-8.089,22.732-9.655c3.279-1.568,10.793-11.683,11.604-12.381c0.813-0.699,5.367-26.864,5.367-26.864
		l-2.01-11.166c0,0-3.807-7.103-3.986-7.663c-0.182-0.561-6.703-5.418-6.703-5.418l-20.016-6.541c0,0-6.168-5.386-6.531-5.349
		c-0.363,0.037-8.123,1.082-8.635,0.89c-0.51-0.194-7.299,1.612-7.299,1.612l-8.51-0.018l-9.293,25.095l10.492,0.509L132.582,35.116
		z"/>
	<path fill="#E2AC7F" d="M146.799,58.316c0,0,2.709-4.437,10.025-2.325c7.314,2.11,6.758,5.578,6.947,5.981
		c0.189,0.403-4.209-3.8-6.16-4.247c-1.955-0.445-10.857,1.082-10.857,1.082L146.799,58.316z"/>
	<path fill="#FFFFFF" d="M146.789,58.824c0,0-1.273,7.2,5.549,8.994c6.822,1.795,9.984-3.473,10.666-5.856
		c0.686-2.383-7.09-5.438-11.047-4.51C148.006,58.377,146.789,58.824,146.789,58.824"/>
	<path fill="#3C2415" d="M166.09,63.632c0,0-2.416,0.104-3.521-0.524c0,0,1-1.616-0.127-2.503c-1.127-0.889-6.301-3.103-9.111-2.787
		c-2.811,0.316-5.047,0.854-6.543,1.007l-0.811-0.385c0,0,1.654-0.728,3.553-1.225c1.898-0.494,5.275-0.839,9.432,0.354
		c4.154,1.191,5.18,4.243,5.18,4.243S164.563,63.444,166.09,63.632"/>
	<path fill="#178EC3" d="M147.281,59.537c-0.834,1.747-0.055,4.286,1.945,5.238c1.998,0.953,4.293,0.309,5.125-1.439
		c0.832-1.748,0.814-3.347-1.184-4.299C150.17,57.58,148.084,58.59,147.281,59.537"/>
	<path fill="#001523" d="M152.996,61.937c-0.363,1.221-1.467,1.97-2.465,1.672c-0.998-0.297-1.512-1.528-1.148-2.748
		s1.467-1.969,2.465-1.672C152.846,59.485,153.361,60.715,152.996,61.937"/>
	<path fill="#FFFFFF" d="M148.09,60.886c-0.152,0.505,0.004,0.996,0.348,1.098c0.34,0.103,0.738-0.224,0.891-0.729
		c0.15-0.504-0.006-0.996-0.348-1.098C148.639,60.054,148.24,60.381,148.09,60.886"/>
	<path fill="#FFFFFF" d="M153.828,62.959c-0.236,0.794-0.93,1.289-1.547,1.105c-0.617-0.185-0.926-0.977-0.689-1.771
		c0.236-0.794,0.93-1.289,1.545-1.105C153.756,61.373,154.064,62.165,153.828,62.959"/>
	<path fill="#3C2415" d="M151.992,47.157c-0.053,1.104,1.105,2.264,3.354,2.343c3.016,0.105,7.689,1.066,11.113,5.325
		c0,0-1.652-6.187-8.264-9.152c-0.902-0.406-2.164-0.576-3.137-0.526C153.031,45.25,152.039,46.182,151.992,47.157"/>
	<path fill="#FFFFFF" d="M135.889,57.233c0,0-0.832,6.339-6.994,6.042c-6.16-0.298-7.412-5.521-7.357-7.688
		c0.057-2.169,6.826-2.407,9.881-0.596C134.471,56.803,135.889,57.233,135.889,57.233"/>
	<path fill="#E2AC7F" d="M136.014,56.807c0,0-1.094-4.412-7.75-4.575c-6.654-0.163-7.102,2.874-7.365,3.162
		c-0.264,0.286,4.508-2.063,6.254-1.921s8.77,3.758,8.77,3.758L136.014,56.807z"/>
	<path fill="#178EC3" d="M129.4,56.566c0.234,1.677-1.082,3.589-3,3.857c-1.918,0.269-3.662-0.872-3.896-2.548
		c-0.234-1.677,0.201-3.005,2.119-3.273C127.551,54.395,128.98,55.566,129.4,56.566"/>
	<path fill="#3C2415" d="M118.527,56.168c0,0,1.988,0.721,3.076,0.489c0,0,0.307-0.894,1.311-1.643
		c1.48-1.104,5.346-1.129,7.605-0.126c2.262,1.004,4.289,2.636,5.369,2.346l0.777-0.108c0,0-1.289-0.586-2.744-1.497
		c-1.451-0.913-4.074-2.544-7.854-2.644c-3.779-0.099-5.438,2.177-5.438,2.177S119.852,56.413,118.527,56.168"/>
	<path fill="#001523" d="M124.002,57.064c-0.018,1.114,0.707,2.028,1.617,2.043c0.908,0.015,1.662-0.875,1.68-1.99
		c0.02-1.114-0.705-2.027-1.615-2.042C124.773,55.061,124.02,55.951,124.002,57.064"/>
	<path fill="#FFFFFF" d="M128.371,57.48c-0.006,0.46-0.266,0.83-0.578,0.825s-0.559-0.382-0.551-0.843
		c0.008-0.46,0.266-0.83,0.576-0.825C128.133,56.642,128.377,57.021,128.371,57.48"/>
	<path fill="#FFFFFF" d="M123.041,57.699c-0.012,0.725,0.434,1.319,0.998,1.329c0.563,0.009,1.031-0.571,1.041-1.295
		c0.012-0.724-0.436-1.319-1-1.327C123.518,56.395,123.051,56.975,123.041,57.699"/>
	<path fill="#3C2415" d="M135.598,46.249c-0.17,0.953-1.381,1.717-3.313,1.351c-2.594-0.494-6.766-0.577-10.508,2.394
		c0,0,2.604-4.958,8.814-6.209c0.85-0.171,1.957-0.072,2.777,0.159C135.078,44.422,135.744,45.408,135.598,46.249"/>
	<path fill="#FFC691" d="M135.75,54.255c0.258-0.011,1.916,2.804,1.936,2.998c0.021,0.194-1.811,5.259-1.832,5.454
		c-0.023,0.194-3.088,1.578-3.088,1.578s-0.156-1.87-0.072-2.1c0.082-0.231,1.23-6.712,1.24-7.719
		c0.01-1.006,0.008-1.217,0.008-1.217L135.75,54.255z"/>
	<path fill="none" stroke="#F1B486" stroke-width="1.208" stroke-miterlimit="10" d="M133.934,52.803c0,0,0.738,9.992-2.91,12.978
		c-3.654,2.989-5.201,5.933-3.984,7.828c1.984,3.086,6.42,2.998,7.57,1.583c1.152-1.416,7.23,2.201,5.316-1.707"/>
	<path fill="#FFC691" d="M178.963,80.47c0,0,2.674,1.581,3.994,0.741c1.318-0.839,2.139-5.542,3.445-7.485
		c1.307-1.941,4.6-6.999,3.084-9.053c-1.518-2.054-5.537-5.891-7.039-2.958"/>
	<path fill="none" stroke="#F1B486" stroke-width="1.208" stroke-miterlimit="10" d="M178.963,80.47c0,0,2.674,1.581,3.994,0.741
		c1.318-0.839,2.139-5.542,3.445-7.485c1.307-1.941,4.6-6.999,3.084-9.053c-1.518-2.054-5.537-5.891-7.039-2.958"/>
	<path fill="#F1B486" d="M183.57,73.215c0,0,0.627-2.375,1.807-3.601c1.178-1.227,3.238-4.05,0.621-4.884
		c0,0-1.078,0.111-1.408,1.15"/>
	<path fill="#96AA00" d="M181.164,79.583c0.053,0.51,0.508,0.882,1.02,0.83c0.512-0.053,0.883-0.509,0.83-1.02
		c-0.053-0.511-0.51-0.883-1.02-0.83C181.482,78.616,181.111,79.073,181.164,79.583"/>
	<path fill="#C1716B" d="M130.168,129.416c0,1.428,1.217,2.584,2.717,2.584c1.502,0,2.717-1.156,2.717-2.584
		c0-1.427-1.215-2.584-2.717-2.584C131.385,126.832,130.168,127.989,130.168,129.416"/>
	
		<ellipse fill="none" stroke="#BA645D" stroke-width="1.208" stroke-miterlimit="10" cx="132.885" cy="129.416" rx="2.717" ry="2.584"/>
	<path fill="#272A3F" d="M131.502,132.873c-1.361,1.289-3.352,2.876-5.105,3.126c-3.02,0.43-9.293,0.932-9.793,3.402
		c-0.016,1.292,1.063,2.102,1.172,3.163c1.377,1.034,3.662,1.388,3.662,1.388s-0.861,0.658-1.146,0.658s-5.93,1.531-6.887-0.861
		c-0.959-2.394,0.021-6.783,0.908-7.66c0.885-0.879,3.695-5.076,4.873-5.237c1.18-0.162,5.914-1.058,6.488-1.435
		c0.574-0.378,2.848,2.066,2.957,2.341C128.74,132.032,131.035,132.42,131.502,132.873"/>
	<polygon fill="#D39C76" points="135.137,127.026 133.898,130.275 133.219,128.399 	"/>
	<path fill="#603913" d="M137.564,123.425c0,0.196-8.877,10.5-15.303,11.423c-7.893,1.134-7.619,6.157-6.494,7.238
		c1.125,1.083-2.645,0.882-3.674-0.734c-1.027-1.616-0.686-7.445,1.176-8.767c1.861-1.324,4.719-4.652,7.969-5.559
		c3.248-0.907,5.502-4.091,6.383-4.238C128.504,122.641,137.564,123.425,137.564,123.425"/>
	<path fill="none" stroke="#3C2415" stroke-width="1.163" stroke-miterlimit="10" d="M137.564,123.425
		c0,0.196-8.877,10.5-15.303,11.423c-7.893,1.134-7.619,6.157-6.494,7.238c1.125,1.083-2.645,0.882-3.674-0.734
		c-1.027-1.616-0.686-7.445,1.176-8.767c1.861-1.324,4.719-4.652,7.969-5.559c3.248-0.907,5.502-4.091,6.383-4.238
		C128.504,122.641,137.564,123.425,137.564,123.425z"/>
	<path fill="#3C2415" d="M108.744,144.731c-0.496-9.485,12.611-16.642,16.182-19.524c3.568-2.881-1.537-5.721-0.496-10.255
		c0.523-2.276,3.545-5.054,6.375-6.955c1.816,0.126,6.764,0.248,7.98,0.165c-0.186,3.253,1.807,7.965,1.807,7.965
		s3.408,5.885-2.328,8.408c-5.738,2.523-14.635,5.801-19.869,9.544c-1.045,0.746-2.789,2.521-3.666,4.171
		c-1.023,1.922-1.088,3.73-0.896,4.419c1.623,5.279,10.383,4.616,10.383,4.616s-3.127,2.801-6.834,3.086
		c0.266,0.24,2.135,0.531,2.135,0.531l-4.543,2.245C114.973,153.147,108.514,150.776,108.744,144.731"/>
	<path fill="#603913" d="M113.93,151.946c0,0-4.738-3.259-3.988-8.38c0.75-5.12,5.006-9.306,10.563-11.896
		c0,0-7.867,4.988-7.713,10.594c0.15,5.604,8.152,6.077,8.152,6.077l-3.848,1.26c0,0-4.436-1.703-5.113-5.525
		c0,0-0.512,4.665,4.855,7.138L113.93,151.946z"/>
	<g>
		<defs>
			<path id="SVGID_1_" d="M133.049,111.83c-0.203,4.226-1.002,8.043-3.266,11.664c-2.576,4.116-6.123,6.989-9.84,9.971
				c-2.447,1.963-5.662,4.386-6.102,7.777c-0.373,2.876,1.488,4.876,4.059,5.697c1.811,0.578,3.834,0.742,5.738,0.598
				c-0.711,0.605-1.428,1.298-2.246,1.704c-1.24,0.616-2.725,0.849-4.08,1.076c-0.137,0.022-0.152,0.228-0.008,0.252
				c0.398,0.066,0.795,0.133,1.193,0.2c0.295,0.049,0.592,0.105,0.891,0.15c0.455,0.067,0.066,0.021-0.24,0.149
				c-0.887,0.373-1.711,0.923-2.607,1.295c-0.4,0.165-1.086,0.586-1.529,0.577c-0.709-0.014-1.898-0.931-2.449-1.33
				c-0.74-0.538-1.396-1.196-1.92-1.952c-0.939-1.357-1.393-2.99-1.418-4.636c-0.135-9.052,9.371-13.095,15.004-18.25
				c3.1-2.84,5.717-6.589,5.717-10.986c0-0.049-0.074-0.041-0.076,0.008c-0.08,9.783-10.947,13.708-16.682,19.668
				c-3.865,4.015-6.279,11.255-1.574,15.66c0.797,0.746,2.49,2.144,3.607,2c0.623-0.079,1.334-0.494,1.908-0.746
				c0.924-0.402,1.818-0.858,2.654-1.428c0.088-0.062,0.049-0.208-0.053-0.225c-0.547-0.093-1.094-0.186-1.641-0.279
				c1.156-0.199,2.365-0.453,3.396-0.958c0.965-0.476,1.791-1.334,2.629-2.005c0.1-0.078,0.041-0.25-0.09-0.237
				c-4.148,0.417-11.434-0.885-9.754-6.783c1.008-3.539,4.746-5.921,7.441-8.063c3.346-2.659,6.326-5.48,8.555-9.203
				c2.107-3.526,2.887-7.273,3.002-11.355c0-0.064-0.057-0.098-0.111-0.098S133.053,111.768,133.049,111.83"/>
		</defs>
		<clipPath id="SVGID_2_">
			<use xlink:href="#SVGID_1_"  overflow="visible"/>
		</clipPath>
		
			<linearGradient id="SVGID_3_" gradientUnits="userSpaceOnUse" x1="-1600.6592" y1="1156.8833" x2="-1599.8311" y2="1156.8833" gradientTransform="matrix(6.7765 65.7349 65.7349 -6.7765 -65081.4688 113183.5313)">
			<stop  offset="0" style="stop-color:#180403"/>
			<stop  offset="0.0159" style="stop-color:#180403"/>
			<stop  offset="0.508" style="stop-color:#401611"/>
			<stop  offset="1" style="stop-color:#63261D"/>
		</linearGradient>
		<polygon clip-path="url(#SVGID_2_)" fill="url(#SVGID_3_)" points="132.992,109.05 137.506,152.828 107.186,155.954 
			102.674,112.176 		"/>
	</g>
	<path fill="#E78277" d="M138.449,124.652c0,0-8.621-6.32-16.76-4.361c0,0-4.377,1.871-2.549,5.072c0,0,15.184,0.165,15.811,6.108
		C134.951,131.471,140.449,130.292,138.449,124.652"/>
	<path fill="none" stroke="#BA645D" stroke-width="1.208" stroke-miterlimit="10" d="M138.449,124.652c0,0-8.621-6.32-16.76-4.361
		c0,0-4.377,1.871-2.549,5.072c0,0,15.184,0.165,15.811,6.108C134.951,131.471,140.449,130.292,138.449,124.652z"/>
	<path fill="#2D304F" d="M167.457,128.515c0,0,3.49,1.933-0.389,6.788c0,0,2.553,1.797,4.064,0.461
		c1.51-1.337,12.123-8.639,12.123-8.639l-7.756,0.928L167.457,128.515z"/>
	
		<path fill="none" stroke="#52586D" stroke-width="1.208" stroke-linecap="round" stroke-linejoin="round" stroke-miterlimit="10" d="
		M167.457,128.515c0,0,3.49,1.933-0.389,6.788c0,0,2.553,1.797,4.064,0.461c1.51-1.337,12.123-8.639,12.123-8.639l-7.756,0.928
		L167.457,128.515z"/>
	<path fill="#603913" d="M173.494,31.19c0.504,0.942,5.459,17.116,9.477,27.918c0.654,1.757,1.869,1.1,4.258,3
		c0.59,0.467,1.977,3.557,1.766,4.628c-2.5,12.663-16.123,32.629-16.123,32.629s-3.008,12.079-4.324,19.722
		c3.201-0.018,25.08-0.498,34.203-14.524c7.617-16.3,17.266-32.883,15.188-59.582c-1.877-24.099-23.313-39.329-33.113-42.148
		c-21.697-6.24-46.268,2.599-46.268,2.599l27.289,17.913C165.846,23.345,165.43,16.082,173.494,31.19"/>
	<path fill="none" stroke="#3C2415" stroke-width="1.208" stroke-miterlimit="10" d="M173.494,31.19
		c0.504,0.942,5.459,17.116,9.477,27.918c0.654,1.757,1.869,1.1,4.258,3c0.59,0.467,1.977,3.557,1.766,4.628
		c-2.5,12.663-16.123,32.629-16.123,32.629s-3.008,12.079-4.324,19.722c3.201-0.018,25.08-0.498,34.203-14.524
		c7.617-16.3,17.266-32.883,15.188-59.582c-1.877-24.099-23.313-39.329-33.113-42.148c-21.697-6.24-46.268,2.599-46.268,2.599
		l27.289,17.913C165.846,23.345,165.43,16.082,173.494,31.19z"/>
	<path fill="#603913" d="M138.559,5.432c0,0-12.086,0.166-17.898,8.761c-5.814,8.595-5.631,12.466-6.906,14.758
		c-1.277,2.293-2.293,13.418-1.023,15.233c1.268,1.813,2.551,2.604,6.98,2.737s12.365,0.455,12.365,0.455
		s-5.268-18.078,2.109-24.102c0,0-6.506,27.58,21.033,30.576c0,0-13.428-19.146-9.754-27.521c0,0,2.492,24.163,29.264,28.103
		c0,0-17.117-15.093-14.789-23.976c0,0,7.293,14.159,13.93,15.636c6.635,1.477,8.883,10.701,8.883,10.701s6.008-23.474-5.844-37.812
		"/>
	<path fill="none" stroke="#3C2415" stroke-width="1.208" stroke-miterlimit="10" d="M138.559,5.432c0,0-12.086,0.166-17.898,8.761
		c-5.814,8.595-5.631,12.466-6.906,14.758c-1.277,2.293-2.293,13.418-1.023,15.233c1.268,1.813,2.551,2.604,6.98,2.737
		s12.365,0.455,12.365,0.455s-5.268-18.078,2.109-24.102c0,0-6.506,27.58,21.033,30.576c0,0-13.428-19.146-9.754-27.521
		c0,0,2.492,24.163,29.264,28.103c0,0-17.117-15.093-14.789-23.976c0,0,7.293,14.159,13.93,15.636
		c6.635,1.477,8.883,10.701,8.883,10.701s6.008-23.474-5.844-37.812"/>
	<path fill="#2D304F" d="M183.65,125.289c0,0-0.211-0.475-4.289,0.579s-6.783,3.058-6.783,3.058l-3.973,3.128l-1.301,0.879
		c0,0-1.125,1.055-1.479,1.23c-0.35,0.177-0.42,1.476-0.42,1.476s8.965-0.105,9.121-0.21c0.158-0.106,6.838-3.656,7.26-3.832
		c0.422-0.176,3.057-3.305,3.164-3.446C185.057,128.012,183.65,125.289,183.65,125.289"/>
	<path fill="#373B5B" d="M199.174,135.794c0,0-5.889-9.416-9.773-11.553c-1.514-0.826-5.715-0.344-5.715-0.344
		c-10.012,0.671-11.043,6.514-12.412,9.313c-1.371,2.798,3.469,7.096,3.469,7.096c-0.6-2.298-0.5-6.796-0.5-6.796
		c0.461-5.879,4.611-7.936,8.043-8.624c2.52-0.505,6.861,1.618,9.52,3.983C194.371,131.154,197.355,133.887,199.174,135.794"/>
	<path fill="#FFC691" d="M188.467,66.803c-0.854-0.215-0.904-3.174-1.754-2.91l-4.156-2.443c1.502-2.933,5.521,0.904,7.039,2.958
		C190.059,65.519,188.859,65.719,188.467,66.803"/>
	<path fill="#F1B486" d="M189.357,65.591c0.027-1.541-1.666-2.629-2.346-3.21c-1.035-0.887-2.154-1.56-2.984-1.492
		c-0.283,0.042-0.742,0.303-1.08,0.962l-0.836-0.629c0.521-1.017,1.287-1.316,1.834-1.329c1.199-0.098,2.561,0.737,3.719,1.729
		c1.033,0.89,1.902,1.904,2.334,2.489C190.293,64.512,189.596,65.604,189.357,65.591"/>
	
		<path fill="none" stroke="#3C2415" stroke-width="1.208" stroke-linecap="round" stroke-linejoin="round" stroke-miterlimit="10" d="
		M189.01,66.618c0.08-0.998,3.566-5.256,2.199-13.606"/>
	<path fill="#9D0227" d="M121.383,82.14c0,0-0.094,8.282,6.951,10.14c8.342,2.191,14.26-5.695,14.26-5.695
		s-8.832-0.013-12.602-0.881C126.221,84.836,121.383,82.14,121.383,82.14"/>
	<path fill="#DE0227" d="M123.934,88.592c-0.455,3.247,0.859,4.863,6.113,5.297c7.033,0.584,12.883-7.597,12.883-7.597
		s-4.492-0.479-9.713-1.205C127.994,84.362,124.389,85.346,123.934,88.592"/>
	<path fill="#FFFFFF" d="M121.744,82.335c0,0,0.406,2.817,5.514,4.62c5.549,1.967,14.377-0.067,14.377-0.067
		s-8.158-1.285-12.643-2.74C122.902,82.167,121.744,82.335,121.744,82.335"/>
	<path fill="#F3573F" d="M124.609,81.462c0.768,0.002,1.436,0.831,2.432,1.274c1.912,0.831,4.883-0.492,6.795,0.092
		c5.412,1.657,8.541,3.58,9.094,3.464c-2.51,2.014-7.123-0.985-9.801-0.641c-1.766,0.227-4.926-0.634-6.676-1.053
		c-1.236-0.289-2.068-0.964-3.074-1.33c-1.623-0.593-1.494-0.423-1.996-1.129c0.016,0.026,0.914,0.168,1.375-0.005
		C123.295,81.933,123.793,81.465,124.609,81.462"/>
	<path fill="#C1636D" d="M121.373,82.191c-0.004,0.015-0.008,0.035-0.01,0.058C121.365,82.228,121.369,82.209,121.373,82.191"/>
	<path fill="#EF967B" d="M123.086,91.614c-0.002-0.004-0.004-0.007-0.006-0.011c-2.385-4.721-1.842-8.661-1.717-9.355
		c-0.033,0.208-0.027,0.495,0.002,0.823c-0.006-0.434-0.002-0.768,0.008-0.885c0,0,0,0.002,0,0.004c0-0.001,0-0.003,0-0.005
		c0.004-0.031,0.006-0.049,0.01-0.045c0.127-0.255-0.527,6.855,6.242,9.356c8.855,3.287,15.34-5.275,15.305-5.204
		c0.361-0.169-4.234,11.17-14.734,8.915c-2.885-0.62-4.313-1.988-5.107-3.587v0C123.088,91.619,123.086,91.617,123.086,91.614"/>
	<path fill="#7F532E" d="M215.51,52.164c0,0-2.393-26.466-17.217-36.968C183.471,4.694,166.031,4.586,166.031,4.586
		s24.818,6.202,30.004,14.473C201.219,27.329,213.955,38.085,215.51,52.164"/>
	<path fill="#7F532E" d="M172.371,16.518c0,0,8.916,12.402,8.678,23.953l-0.047,5.886c0,0-1.305-3.698-4.822-5.199
		c-3.516-1.501,2.539-5.068-0.063-10.534S172.371,16.518,172.371,16.518"/>
	<path fill="#7F532E" d="M138.826,10.269c0,0-21.016,5.024-24.355,27.583C114.471,37.852,114.137,11.105,138.826,10.269"/>
	<path fill="#7F532E" d="M139.791,19.635c0,0-1.199,20.958,8.672,28.701c0,0-10.225-0.997-12.334-10.61
		C134.021,28.112,139.791,19.635,139.791,19.635"/>
	<path fill="#3C2415" d="M193.443,69.979c0,0-8.545,25.144-20.574,29.386l-2.553,10.918
		C170.316,110.284,183.088,103.847,193.443,69.979"/>
	<path fill="#3C2415" d="M168.615,118.705c0,0,1.992,0.608,10.08-0.41c8.09-1.018,16.49-6.292,20.35-9.319
		c3.861-3.029,4.789-6.713,5.158-7.483s-8.346,8.049-12.275,9.847c-3.93,1.798-22.289,5.166-22.799,4.624L168.615,118.705z"/>
	<path fill="#3C2415" d="M210.219,55.279c0,0,2.141,25.652-11.121,38.016c0,0,4.063-13.863,4.828-19.818
		c0.768-5.955,3.365-19.743,0.969-30.959C206.963,41.541,210.219,55.279,210.219,55.279"/>
	
		<path fill="none" stroke="#F1B486" stroke-width="1.208" stroke-linecap="round" stroke-linejoin="round" stroke-miterlimit="10" d="
		M131.744,99.876c0,0-4.873-3.825-7.016-2.844c-2.143,0.985-1.889,1.699-1.889,1.699"/>
	<path fill="none" stroke="#272A3F" stroke-width="1.289" stroke-linejoin="round" d="M168.621,172.45
		c-0.012-0.144-0.023-0.289-0.035-0.433c0,0-0.145,0.045-0.412,0.123"/>
	<path fill="none" stroke="#272A3F" stroke-width="1.289" stroke-linejoin="round" stroke-dasharray="1.059,1.059" d="
		M167.33,172.375c-2.986,0.806-10.604,2.579-15.148,1.108"/>
	<path fill="none" stroke="#272A3F" stroke-width="1.289" stroke-linejoin="round" d="M151.77,173.338
		c-0.137-0.052-0.271-0.108-0.4-0.168c-0.111,0.069-0.217,0.167-0.314,0.292"/>
	<path fill="none" stroke="#272A3F" stroke-width="1.289" stroke-linejoin="round" stroke-dasharray="1.039,1.039" d="
		M150.648,174.215c-1.611,4.178-0.045,18.175,8.539,18.197c9.381,0.023,10.26-8.63,9.465-19.524"/>
	<polygon fill-rule="evenodd" clip-rule="evenodd" fill="#FFFFFF" points="155.807,181.74 159.334,181.636 157.543,185.692 
		157.07,185.247 158.213,182.671 158.242,182.599 158.254,182.53 158.24,182.45 158.213,182.408 158.182,182.374 158.107,182.336 
		158.016,182.32 155.85,182.384 	"/>
	<path fill-rule="evenodd" clip-rule="evenodd" fill="#FFFFFF" d="M159.408,177.94c0.455-0.014,0.857,0.39,0.891,0.896
		c0.035,0.507-0.307,0.933-0.762,0.946c-0.453,0.013-0.855-0.39-0.889-0.897C158.613,178.377,158.955,177.953,159.408,177.94"/>
	<polygon fill-rule="evenodd" clip-rule="evenodd" fill="#FFFFFF" points="159.695,182.299 158.006,186.021 158.543,186.289 
		159.648,183.866 159.684,183.812 159.738,183.779 159.809,183.762 159.889,183.773 159.941,183.81 159.98,183.857 161.43,186.204 
		161.938,185.884 	"/>
	<polygon fill-rule="evenodd" clip-rule="evenodd" fill="#FFFFFF" points="159.943,181.612 163.514,181.507 163.559,182.141 
		161.377,182.206 161.311,182.231 161.248,182.267 161.201,182.33 161.184,182.405 161.188,182.473 161.211,182.543 
		162.736,185.075 162.346,185.532 	"/>
	<path fill-rule="evenodd" clip-rule="evenodd" fill="#FFFFFF" d="M156.607,181.001v0.003c0,0.016-0.002,0.027-0.002,0.034
		c0.004,0.048,0.031,0.082,0.082,0.104c0.051,0.021,0.127,0.031,0.23,0.027c0.076-0.001,0.137-0.013,0.18-0.034
		c0.043-0.02,0.064-0.048,0.061-0.08c-0.002-0.05-0.094-0.088-0.27-0.115c-0.021-0.003-0.037-0.006-0.047-0.007
		c-0.012-0.001-0.027-0.004-0.051-0.007c-0.279-0.042-0.463-0.091-0.547-0.148c-0.039-0.028-0.07-0.06-0.092-0.1
		c-0.023-0.038-0.037-0.083-0.041-0.13c-0.008-0.121,0.051-0.215,0.174-0.281c0.123-0.066,0.307-0.104,0.553-0.111
		c0.244-0.007,0.426,0.017,0.545,0.072c0.121,0.057,0.188,0.146,0.195,0.268l0.002,0.014l-0.461,0.014v-0.006
		c-0.002-0.042-0.027-0.073-0.076-0.093c-0.049-0.021-0.117-0.03-0.207-0.027c-0.07,0.002-0.123,0.012-0.158,0.028
		c-0.039,0.017-0.055,0.04-0.055,0.068c0.006,0.052,0.109,0.092,0.311,0.121c0.039,0.006,0.07,0.01,0.094,0.013
		c0.143,0.022,0.246,0.042,0.309,0.06c0.063,0.017,0.115,0.038,0.162,0.062c0.051,0.029,0.09,0.065,0.121,0.109
		c0.029,0.045,0.045,0.094,0.051,0.149c0.008,0.123-0.055,0.221-0.189,0.291c-0.133,0.072-0.33,0.111-0.594,0.119
		c-0.256,0.008-0.447-0.019-0.566-0.08c-0.119-0.061-0.186-0.163-0.195-0.304v-0.019L156.607,181.001z M157.896,181.367
		l-0.084-1.221l1.311-0.038l0.018,0.263l-0.818,0.024l0.014,0.194l0.758-0.022l0.016,0.261l-0.756,0.021l0.018,0.237l0.848-0.025
		l0.02,0.267L157.896,181.367z M159.445,181.322l-0.086-1.221l0.625-0.019l0.723,0.8l-0.057-0.818l0.473-0.015l0.084,1.222
		l-0.646,0.019l-0.701-0.804l0.057,0.822L159.445,181.322z M162.445,180.746l-0.268-0.436l-0.217,0.45L162.445,180.746z
		 M161.729,181.255l-0.492,0.015l0.676-1.244l0.545-0.016l0.814,1.2l-0.549,0.016l-0.125-0.217l-0.766,0.023L161.729,181.255z"/>
	<path d="M186.279,163.337l20.846-16.231l-2.127-2.644l-21.363,16.389C183.635,160.851,184.742,164.614,186.279,163.337"/>
	<path fill="#808285" d="M217.762,157.166c0.16,0.563-4.109,2.976-4.725,1.761c-0.615-1.214-4.049-8.898-8.389-14.093
		c-4.34-5.196-5.656-5.32-3.889-6.521c1.766-1.203,3.447-2.145,3.447-2.145s3.375,3.397,6.936,8.408
		C213.762,148.261,216.568,152.941,217.762,157.166"/>
	<path fill="#FFFFFF" d="M213.445,156.961c0,0-3.105-6.917-6.107-10.6c-3-3.683-6.176-7.241-6.176-7.241s-0.355-0.106,0.484-0.516
		c0.844-0.409,3.119-1.855,3.119-1.855s5.121,5.829,7,8.716c3.002,4.083,5.143,9.052,5.537,10.267
		c0.396,1.215-3.576,1.841-3.576,1.841S213.428,157.344,213.445,156.961"/>
	<path fill="#414042" d="M213.842,155.668l-0.498-0.966c0,0,2.238-0.906,2.52-1.316l0.467,1.129L213.842,155.668z"/>
	<path fill="#414042" d="M212.727,153.435l-0.51-0.886c0,0,1.123-0.629,1.479-0.858l0.381,1.006L212.727,153.435z"/>
	<polygon fill="#414042" points="206.34,143.494 205.453,142.379 207.818,140.335 208.699,141.41 	"/>
	<path fill="#414042" d="M203.996,140.477l-0.918-1.083l2.42-1.876l0.873,1.094C206.371,138.613,203.912,140.399,203.996,140.477"/>
	<polygon fill="#F1B486" points="134.256,82.185 133.441,81.343 131.344,81.134 131.504,82.185 	"/>
	<polygon fill="#F1B486" points="127.922,81.046 127.113,80.844 126.281,81.679 127.195,82.134 	"/>
	<path fill="#EF967B" d="M136.293,84.68c0,0-2.42-1.045-3.531-1.18c-1.111-0.134-2.17,0.49-2.17,0.49s1.639-0.352,2.299-0.194
		C133.688,83.989,136.303,84.952,136.293,84.68"/>
	<path fill="#EF967B" d="M126.553,83.083c0,0-0.947-0.957-1.346-0.894c-0.398,0.063-1.813-0.023-2.377,0.308
		c0,0,1.563,0.083,2.248,0.1c0.439,0.01,0.789,0.736,1.094,0.69C126.477,83.241,126.775,83.251,126.553,83.083"/>
	<path fill="#F4D5CE" d="M127.055,92.764c0,0-2.238-1.051-2.822-1.636c-0.561-0.56-0.826-0.039-0.59,0.168
		c0.174,0.152,1.84,1.695,2.887,1.887C127.578,93.373,127.658,93.109,127.055,92.764"/>
	<path fill="#BA7261" d="M137.125,93.633c0,0-3.832,1.701-5.611,1.713c-2.076,0.012-3.156,0.018-6.352-1.33
		c0,0,2.348,1.824,6.42,1.609C135.654,95.41,137.125,93.633,137.125,93.633"/>
	<path fill="#FFC691" d="M35.721,245.437c0,0,1.901-0.442,2.787,0c0.887,0.443,3.518,1.646,6.193,0.886
		c2.675-0.76,6.601-0.419,6.601-0.419s1.648,0.229,2.914-0.975c1.268-1.203,2.787-1.646,2.914-3.293
		c0.127-1.647,0.252-4.308,0-5.257"/>
	<path fill="none" stroke="#F1B486" stroke-width="0.66" stroke-miterlimit="10" d="M35.721,245.437c0,0,1.901-0.442,2.787,0
		c0.887,0.443,3.518,1.646,6.193,0.886c2.675-0.76,6.601-0.419,6.601-0.419s1.648,0.229,2.914-0.975
		c1.268-1.203,2.787-1.646,2.914-3.293c0.127-1.647,0.252-4.308,0-5.257"/>
	<path fill="#FFC691" d="M39.903,240.657c0,0,1.52,2.372,2.851,2.752c0,0,1.203,2.282,1.455,3.611
		c0.254,1.331,1.774,5.827,4.877,8.044c3.105,2.217,4.814,1.394,5.385,0.76s1.521-1.584,0.633-4.749
		c-0.887-3.169-1.268-4.624-1.9-5.638s-1.139-0.951-1.457-2.028c-0.316-1.076-0.506-1.837-0.443-2.279
		c0.064-0.444-0.252-2.217-0.252-2.217"/>
	<path fill="none" stroke="#F1B486" stroke-width="0.66" stroke-miterlimit="10" d="M39.903,240.657c0,0,1.52,2.372,2.851,2.752
		c0,0,1.203,2.282,1.455,3.611c0.254,1.331,1.774,5.827,4.877,8.044c3.105,2.217,4.814,1.394,5.385,0.76s1.521-1.584,0.633-4.749
		c-0.887-3.169-1.268-4.624-1.9-5.638s-1.139-0.951-1.457-2.028c-0.316-1.076-0.506-1.837-0.443-2.279
		c0.064-0.444-0.252-2.217-0.252-2.217"/>
	<path fill="#F1B486" d="M39.206,243.647c0,0,2.417,1.573,3.22,1.716c0.852,0.151,0.974-0.348,0.974-0.348l-0.646-1.606
		c0,0-2.653-1.64-3.02-2.572C39.206,241.31,39.206,243.647,39.206,243.647"/>
	<path fill="#E5865C" d="M52.57,251.618c0,0-3.227,0.151-3.662,1.528c0.574,2.047,1.322,2.977,2.432,2.764
		c1.107-0.214,1.84-0.569,2.328-1.103C54.154,254.273,52.76,252.125,52.57,251.618"/>
	<path fill="none" stroke="#F1B486" stroke-width="0.66" stroke-miterlimit="10" d="M52.57,251.618c0,0-3.227,0.151-3.662,1.528
		c0.574,2.047,1.322,2.977,2.432,2.764c1.107-0.214,1.84-0.569,2.328-1.103C54.154,254.273,52.76,252.125,52.57,251.618z"/>
	<path fill="#262262" d="M119.328,324.829c0,0,48.445,1.384,62.553-0.083c14.107-1.465,53.072-7.214,52.24-15.907
		c0,0,9.625,16.649-15.367,25.729c-9.354,3.493-35.424,5.002-56.893,5.356c-21.035,0.776-32.877-1.107-35.236-2.019
		C121.307,336.858,120.258,331.037,119.328,324.829"/>
</g>
</svg>
