<?xml version="1.0" encoding="utf-8"?>
<!-- Generator: Adobe Illustrator 16.0.0, SVG Export Plug-In . SVG Version: 6.00 Build 0)  -->
<!DOCTYPE svg PUBLIC "-//W3C//DTD SVG 1.1//EN" "http://www.w3.org/Graphics/SVG/1.1/DTD/svg11.dtd">
<svg version="1.1" id="Capa_1" xmlns="http://www.w3.org/2000/svg" xmlns:xlink="http://www.w3.org/1999/xlink" x="0px" y="0px"
	 width="247.638px" height="52.237px" viewBox="0 0 247.638 52.237" enable-background="new 0 0 247.638 52.237"
	 xml:space="preserve">
<g>
	<g>
		<polygon fill-rule="evenodd" clip-rule="evenodd" fill="#2D3944" points="233.611,52.237 247.638,34.452 237.212,14.283 
			233.611,14.285 		"/>
		<rect fill-rule="evenodd" clip-rule="evenodd" fill="#FFCC73" width="247.637" height="34.967"/>
		<polygon fill="#002549" points="233.611,42.137 0,34.967 233.611,34.967 		"/>
	</g>
	<g>
		<path fill="#002549" d="M58.869,15.082H56.58l-0.91-2.439h-4.165l-0.86,2.439h-2.232l4.059-10.737h2.225L58.869,15.082z
			 M54.995,10.834L53.559,6.85l-1.408,3.984H54.995z"/>
		<path fill="#002549" d="M58.714,12.863l2.004-0.315c0.085,0.4,0.258,0.705,0.519,0.912c0.26,0.208,0.625,0.311,1.095,0.311
			c0.516,0,0.905-0.098,1.166-0.293c0.175-0.137,0.263-0.32,0.263-0.549c0-0.156-0.048-0.286-0.143-0.388
			c-0.099-0.098-0.322-0.188-0.668-0.271c-1.611-0.366-2.632-0.701-3.063-1.003c-0.597-0.42-0.896-1.003-0.896-1.75
			c0-0.674,0.258-1.24,0.774-1.699s1.317-0.688,2.403-0.688c1.033,0,1.801,0.173,2.303,0.52c0.502,0.347,0.848,0.859,1.038,1.538
			l-1.884,0.359c-0.081-0.303-0.233-0.535-0.458-0.696s-0.546-0.242-0.963-0.242c-0.526,0-0.902,0.076-1.13,0.227
			c-0.152,0.107-0.228,0.247-0.228,0.417c0,0.146,0.066,0.271,0.199,0.374c0.18,0.137,0.802,0.33,1.866,0.579
			s1.807,0.554,2.229,0.916c0.417,0.366,0.625,0.876,0.625,1.531c0,0.713-0.289,1.326-0.867,1.838s-1.434,0.769-2.566,0.769
			c-1.029,0-1.842-0.215-2.442-0.645S58.898,13.6,58.714,12.863z"/>
		<path fill="#002549" d="M66.903,7.304h1.863v1.143c0.242-0.391,0.568-0.708,0.98-0.952c0.413-0.244,0.87-0.366,1.372-0.366
			c0.876,0,1.621,0.354,2.232,1.062s0.917,1.694,0.917,2.959c0,1.299-0.308,2.309-0.924,3.029c-0.616,0.72-1.363,1.08-2.239,1.08
			c-0.417,0-0.795-0.085-1.134-0.256s-0.695-0.464-1.07-0.879v3.918h-1.998V7.304z M68.879,11.061c0,0.874,0.168,1.52,0.505,1.937
			c0.336,0.418,0.747,0.626,1.23,0.626c0.464,0,0.85-0.191,1.158-0.575s0.462-1.012,0.462-1.886c0-0.815-0.159-1.421-0.477-1.816
			s-0.71-0.593-1.18-0.593c-0.488,0-0.894,0.194-1.216,0.582C69.041,9.725,68.879,10.299,68.879,11.061z"/>
		<path fill="#002549" d="M79.671,12.606l1.99,0.344c-0.256,0.752-0.66,1.325-1.212,1.717c-0.552,0.394-1.243,0.59-2.072,0.59
			c-1.312,0-2.284-0.442-2.914-1.326c-0.498-0.708-0.747-1.602-0.747-2.681c0-1.289,0.327-2.298,0.981-3.029
			c0.654-0.729,1.481-1.095,2.481-1.095c1.123,0,2.009,0.382,2.658,1.146c0.649,0.764,0.96,1.935,0.931,3.512h-5.004
			c0.014,0.61,0.175,1.085,0.483,1.425c0.308,0.339,0.692,0.509,1.151,0.509c0.313,0,0.576-0.088,0.789-0.264
			S79.562,12.997,79.671,12.606z M79.785,10.526c-0.014-0.596-0.164-1.048-0.448-1.358c-0.285-0.31-0.63-0.465-1.038-0.465
			c-0.436,0-0.796,0.164-1.081,0.491c-0.284,0.327-0.424,0.771-0.419,1.333H79.785z"/>
		<path fill="#002549" d="M89.424,9.604L87.456,9.97c-0.066-0.405-0.217-0.71-0.452-0.916c-0.234-0.205-0.539-0.308-0.913-0.308
			c-0.498,0-0.895,0.177-1.191,0.531c-0.296,0.354-0.444,0.946-0.444,1.776c0,0.923,0.15,1.575,0.451,1.956
			c0.301,0.381,0.705,0.571,1.212,0.571c0.379,0,0.689-0.111,0.931-0.333c0.242-0.222,0.412-0.604,0.512-1.146l1.962,0.344
			c-0.204,0.928-0.595,1.628-1.173,2.102s-1.353,0.71-2.324,0.71c-1.104,0-1.984-0.359-2.641-1.077
			c-0.657-0.718-0.985-1.711-0.985-2.981c0-1.284,0.33-2.284,0.988-2.999s1.549-1.073,2.672-1.073c0.919,0,1.65,0.204,2.193,0.611
			C88.798,8.147,89.188,8.769,89.424,9.604z"/>
		<path fill="#002549" d="M93.847,7.304v1.641h-1.365v3.135c0,0.635,0.013,1.005,0.039,1.109c0.026,0.105,0.085,0.192,0.178,0.26
			c0.093,0.068,0.205,0.103,0.338,0.103c0.185,0,0.453-0.066,0.803-0.198l0.17,1.597c-0.464,0.205-0.99,0.308-1.578,0.308
			c-0.36,0-0.685-0.062-0.974-0.187c-0.289-0.125-0.501-0.286-0.636-0.483c-0.135-0.198-0.229-0.465-0.281-0.802
			c-0.042-0.239-0.064-0.723-0.064-1.45V8.944h-0.917V7.304h0.917V5.758l2.004-1.201v2.747H93.847z"/>
		<path fill="#002549" d="M94.218,11.083c0-0.684,0.164-1.345,0.49-1.985c0.327-0.64,0.79-1.128,1.39-1.465s1.269-0.505,2.008-0.505
			c1.142,0,2.078,0.382,2.808,1.146c0.729,0.764,1.095,1.729,1.095,2.896c0,1.177-0.369,2.152-1.105,2.926
			c-0.737,0.774-1.665,1.161-2.783,1.161c-0.692,0-1.352-0.161-1.979-0.483c-0.628-0.322-1.105-0.795-1.433-1.417
			C94.381,12.734,94.218,11.977,94.218,11.083z M96.265,11.193c0,0.771,0.178,1.362,0.533,1.772s0.794,0.615,1.315,0.615
			c0.521,0,0.958-0.205,1.312-0.615s0.53-1.006,0.53-1.787c0-0.762-0.177-1.348-0.53-1.758s-0.79-0.615-1.312-0.615
			c-0.521,0-0.959,0.205-1.315,0.615S96.265,10.421,96.265,11.193z"/>
		<path fill="#002549" d="M102.315,12.863l2.004-0.315c0.085,0.4,0.258,0.705,0.519,0.912c0.26,0.208,0.625,0.311,1.095,0.311
			c0.516,0,0.905-0.098,1.166-0.293c0.175-0.137,0.263-0.32,0.263-0.549c0-0.156-0.048-0.286-0.143-0.388
			c-0.099-0.098-0.322-0.188-0.668-0.271c-1.611-0.366-2.632-0.701-3.063-1.003c-0.597-0.42-0.896-1.003-0.896-1.75
			c0-0.674,0.258-1.24,0.774-1.699s1.317-0.688,2.403-0.688c1.033,0,1.801,0.173,2.303,0.52c0.502,0.347,0.848,0.859,1.038,1.538
			l-1.884,0.359c-0.081-0.303-0.233-0.535-0.458-0.696s-0.546-0.242-0.963-0.242c-0.526,0-0.902,0.076-1.13,0.227
			c-0.152,0.107-0.228,0.247-0.228,0.417c0,0.146,0.066,0.271,0.199,0.374c0.18,0.137,0.802,0.33,1.866,0.579
			s1.807,0.554,2.229,0.916c0.417,0.366,0.625,0.876,0.625,1.531c0,0.713-0.289,1.326-0.867,1.838s-1.434,0.769-2.566,0.769
			c-1.029,0-1.842-0.215-2.442-0.645S102.5,13.6,102.315,12.863z"/>
		<path fill="#002549" d="M113.868,15.595l2.282,0.286c0.038,0.273,0.125,0.461,0.263,0.564c0.189,0.146,0.488,0.22,0.896,0.22
			c0.521,0,0.912-0.081,1.173-0.242c0.175-0.107,0.308-0.281,0.398-0.52c0.062-0.171,0.093-0.486,0.093-0.945v-1.135
			c-0.597,0.84-1.351,1.26-2.261,1.26c-1.014,0-1.817-0.442-2.41-1.326c-0.464-0.698-0.696-1.567-0.696-2.607
			c0-1.304,0.304-2.3,0.913-2.988s1.366-1.033,2.271-1.033c0.933,0,1.703,0.422,2.31,1.267V7.304h1.869v6.98
			c0,0.918-0.073,1.604-0.22,2.058s-0.353,0.811-0.618,1.069c-0.266,0.259-0.62,0.461-1.063,0.608
			c-0.443,0.146-1.003,0.22-1.681,0.22c-1.279,0-2.187-0.226-2.722-0.677c-0.536-0.452-0.803-1.024-0.803-1.718
			C113.861,15.775,113.864,15.692,113.868,15.595z M115.652,11.032c0,0.825,0.155,1.43,0.466,1.813
			c0.31,0.383,0.693,0.575,1.148,0.575c0.488,0,0.9-0.196,1.237-0.589s0.505-0.976,0.505-1.747c0-0.806-0.162-1.404-0.483-1.794
			c-0.322-0.391-0.73-0.586-1.223-0.586c-0.479,0-0.874,0.192-1.184,0.575C115.808,9.661,115.652,10.246,115.652,11.032z"/>
		<path fill="#002549" d="M126.764,12.606l1.99,0.344c-0.256,0.752-0.66,1.325-1.211,1.717c-0.553,0.394-1.243,0.59-2.072,0.59
			c-1.312,0-2.285-0.442-2.915-1.326c-0.498-0.708-0.747-1.602-0.747-2.681c0-1.289,0.327-2.298,0.981-3.029
			c0.654-0.729,1.481-1.095,2.481-1.095c1.123,0,2.01,0.382,2.658,1.146c0.649,0.764,0.96,1.935,0.932,3.512h-5.004
			c0.014,0.61,0.175,1.085,0.483,1.425c0.309,0.339,0.692,0.509,1.152,0.509c0.312,0,0.575-0.088,0.789-0.264
			C126.494,13.28,126.654,12.997,126.764,12.606z M126.878,10.526c-0.015-0.596-0.163-1.048-0.448-1.358
			c-0.284-0.31-0.63-0.465-1.037-0.465c-0.437,0-0.797,0.164-1.081,0.491s-0.424,0.771-0.419,1.333H126.878z"/>
		<path fill="#002549" d="M136.802,15.082h-1.997v-3.97c0-0.84-0.043-1.383-0.128-1.63c-0.085-0.246-0.224-0.438-0.416-0.575
			s-0.423-0.205-0.692-0.205c-0.347,0-0.656,0.098-0.932,0.293s-0.463,0.454-0.565,0.776c-0.102,0.322-0.153,0.918-0.153,1.787
			v3.523h-1.996V7.304h1.854v1.143c0.659-0.879,1.488-1.318,2.487-1.318c0.441,0,0.844,0.082,1.209,0.245
			c0.365,0.164,0.641,0.373,0.828,0.626s0.317,0.542,0.391,0.864c0.074,0.322,0.11,0.784,0.11,1.384V15.082z"/>
		<path fill="#002549" d="M142.646,12.606l1.99,0.344c-0.256,0.752-0.66,1.325-1.213,1.717c-0.552,0.394-1.242,0.59-2.072,0.59
			c-1.312,0-2.283-0.442-2.914-1.326c-0.497-0.708-0.746-1.602-0.746-2.681c0-1.289,0.327-2.298,0.98-3.029
			c0.654-0.729,1.481-1.095,2.481-1.095c1.123,0,2.009,0.382,2.658,1.146s0.96,1.935,0.931,3.512h-5.004
			c0.015,0.61,0.176,1.085,0.484,1.425c0.307,0.339,0.691,0.509,1.15,0.509c0.313,0,0.576-0.088,0.789-0.264
			C142.376,13.28,142.537,12.997,142.646,12.606z M142.76,10.526c-0.014-0.596-0.164-1.048-0.447-1.358
			c-0.285-0.31-0.631-0.465-1.039-0.465c-0.436,0-0.795,0.164-1.08,0.491c-0.284,0.327-0.424,0.771-0.419,1.333H142.76z"/>
		<path fill="#002549" d="M147.729,15.082h-1.997V7.304h1.855V8.41c0.316-0.522,0.603-0.867,0.855-1.033
			c0.254-0.166,0.542-0.249,0.864-0.249c0.454,0,0.894,0.129,1.315,0.388l-0.619,1.794c-0.336-0.225-0.648-0.337-0.938-0.337
			c-0.28,0-0.518,0.08-0.711,0.238c-0.195,0.159-0.348,0.445-0.459,0.86s-0.167,1.284-0.167,2.607V15.082z"/>
		<path fill="#002549" d="M152.422,9.677l-1.812-0.337c0.204-0.752,0.555-1.309,1.053-1.67c0.497-0.361,1.236-0.542,2.217-0.542
			c0.892,0,1.555,0.109,1.99,0.326c0.437,0.217,0.744,0.493,0.922,0.827c0.178,0.335,0.266,0.949,0.266,1.842l-0.021,2.402
			c0,0.684,0.032,1.188,0.096,1.512c0.064,0.325,0.184,0.673,0.359,1.044h-1.976c-0.052-0.137-0.116-0.339-0.192-0.608
			c-0.033-0.122-0.057-0.203-0.07-0.242c-0.342,0.342-0.707,0.598-1.096,0.769s-0.803,0.256-1.244,0.256
			c-0.776,0-1.389-0.217-1.837-0.652s-0.671-0.984-0.671-1.648c0-0.439,0.102-0.831,0.305-1.176c0.204-0.344,0.49-0.607,0.857-0.791
			c0.367-0.183,0.896-0.343,1.588-0.479c0.934-0.181,1.58-0.349,1.941-0.505V9.801c0-0.396-0.096-0.677-0.285-0.846
			c-0.189-0.168-0.547-0.252-1.073-0.252c-0.355,0-0.632,0.072-0.831,0.216S152.545,9.315,152.422,9.677z M155.096,11.347
			c-0.256,0.088-0.662,0.193-1.217,0.315c-0.554,0.122-0.916,0.242-1.087,0.359c-0.261,0.19-0.392,0.432-0.392,0.725
			c0,0.288,0.105,0.537,0.313,0.747s0.474,0.315,0.796,0.315c0.36,0,0.704-0.122,1.031-0.366c0.241-0.186,0.4-0.413,0.477-0.681
			c0.051-0.176,0.078-0.51,0.078-1.003V11.347z"/>
		<path fill="#002549" d="M158.473,15.082V4.345h1.998v10.737H158.473z"/>
		<path fill="#002549" d="M166.336,12.606l1.99,0.344c-0.256,0.752-0.66,1.325-1.213,1.717c-0.552,0.394-1.242,0.59-2.072,0.59
			c-1.312,0-2.283-0.442-2.914-1.326c-0.497-0.708-0.746-1.602-0.746-2.681c0-1.289,0.327-2.298,0.98-3.029
			c0.654-0.729,1.481-1.095,2.481-1.095c1.123,0,2.009,0.382,2.658,1.146s0.96,1.935,0.931,3.512h-5.004
			c0.015,0.61,0.176,1.085,0.484,1.425c0.307,0.339,0.691,0.509,1.15,0.509c0.313,0,0.576-0.088,0.789-0.264
			C166.065,13.28,166.227,12.997,166.336,12.606z M166.449,10.526c-0.014-0.596-0.164-1.048-0.447-1.358
			c-0.285-0.31-0.631-0.465-1.039-0.465c-0.436,0-0.795,0.164-1.08,0.491c-0.284,0.327-0.424,0.771-0.419,1.333H166.449z"/>
		<path fill="#002549" d="M168.803,12.863l2.005-0.315c0.085,0.4,0.259,0.705,0.519,0.912c0.261,0.208,0.626,0.311,1.096,0.311
			c0.516,0,0.904-0.098,1.165-0.293c0.175-0.137,0.263-0.32,0.263-0.549c0-0.156-0.047-0.286-0.143-0.388
			c-0.099-0.098-0.322-0.188-0.668-0.271c-1.611-0.366-2.632-0.701-3.062-1.003c-0.598-0.42-0.896-1.003-0.896-1.75
			c0-0.674,0.258-1.24,0.775-1.699c0.516-0.459,1.316-0.688,2.402-0.688c1.033,0,1.801,0.173,2.303,0.52s0.848,0.859,1.038,1.538
			l-1.884,0.359c-0.08-0.303-0.233-0.535-0.459-0.696c-0.225-0.161-0.546-0.242-0.963-0.242c-0.525,0-0.902,0.076-1.13,0.227
			c-0.151,0.107-0.228,0.247-0.228,0.417c0,0.146,0.066,0.271,0.199,0.374c0.18,0.137,0.802,0.33,1.865,0.579
			c1.064,0.249,1.807,0.554,2.229,0.916c0.418,0.366,0.626,0.876,0.626,1.531c0,0.713-0.289,1.326-0.867,1.838
			s-1.434,0.769-2.565,0.769c-1.029,0-1.843-0.215-2.442-0.645S168.988,13.6,168.803,12.863z"/>
		<path fill="#002549" d="M187.465,15.082h-1.855v-1.143c-0.309,0.444-0.672,0.775-1.092,0.992
			c-0.419,0.217-0.842,0.326-1.269,0.326c-0.867,0-1.61-0.36-2.228-1.08c-0.619-0.72-0.928-1.725-0.928-3.014
			c0-1.318,0.301-2.32,0.902-3.006s1.362-1.029,2.281-1.029c0.844,0,1.574,0.361,2.189,1.084V4.345h1.998V15.082z M182.133,11.024
			c0,0.83,0.111,1.431,0.334,1.802c0.322,0.537,0.773,0.806,1.352,0.806c0.459,0,0.85-0.201,1.172-0.604
			c0.322-0.402,0.484-1.004,0.484-1.805c0-0.894-0.156-1.537-0.47-1.93c-0.312-0.393-0.714-0.589-1.201-0.589
			c-0.474,0-0.87,0.194-1.19,0.583C182.293,9.673,182.133,10.253,182.133,11.024z"/>
		<path fill="#002549" d="M193.252,12.606l1.99,0.344c-0.256,0.752-0.66,1.325-1.212,1.717c-0.552,0.394-1.243,0.59-2.072,0.59
			c-1.312,0-2.284-0.442-2.914-1.326c-0.497-0.708-0.747-1.602-0.747-2.681c0-1.289,0.328-2.298,0.981-3.029
			c0.653-0.729,1.481-1.095,2.481-1.095c1.123,0,2.009,0.382,2.658,1.146c0.648,0.764,0.959,1.935,0.931,3.512h-5.004
			c0.015,0.61,0.175,1.085,0.483,1.425c0.308,0.339,0.691,0.509,1.151,0.509c0.313,0,0.575-0.088,0.789-0.264
			S193.143,12.997,193.252,12.606z M193.365,10.526c-0.014-0.596-0.163-1.048-0.447-1.358c-0.285-0.31-0.631-0.465-1.038-0.465
			c-0.437,0-0.796,0.164-1.081,0.491c-0.283,0.327-0.424,0.771-0.418,1.333H193.365z"/>
		<path fill="#002549" d="M196.424,15.082V4.345h1.997v10.737H196.424z"/>
		<path fill="#002549" d="M49.4,20.304h1.863v1.143c0.242-0.391,0.568-0.708,0.98-0.952c0.413-0.244,0.87-0.366,1.372-0.366
			c0.876,0,1.621,0.354,2.232,1.062s0.917,1.694,0.917,2.959c0,1.299-0.308,2.309-0.924,3.029c-0.616,0.72-1.363,1.08-2.239,1.08
			c-0.417,0-0.795-0.086-1.134-0.257s-0.695-0.464-1.07-0.879v3.919H49.4V20.304z M51.376,24.061c0,0.874,0.168,1.52,0.505,1.938
			c0.336,0.418,0.747,0.626,1.23,0.626c0.464,0,0.85-0.191,1.158-0.575c0.308-0.383,0.462-1.012,0.462-1.886
			c0-0.815-0.159-1.421-0.477-1.816s-0.71-0.593-1.18-0.593c-0.488,0-0.894,0.194-1.216,0.582
			C51.538,22.725,51.376,23.299,51.376,24.061z"/>
		<path fill="#002549" d="M59.708,28.083h-1.998v-7.779h1.855v1.106c0.317-0.522,0.603-0.867,0.856-1.033s0.542-0.249,0.864-0.249
			c0.455,0,0.893,0.129,1.315,0.388l-0.619,1.794c-0.336-0.225-0.649-0.337-0.938-0.337c-0.28,0-0.517,0.08-0.711,0.238
			s-0.347,0.445-0.458,0.86s-0.167,1.284-0.167,2.607V28.083z"/>
		<path fill="#002549" d="M62.447,24.083c0-0.684,0.164-1.345,0.49-1.985c0.327-0.64,0.79-1.128,1.39-1.465s1.269-0.505,2.008-0.505
			c1.142,0,2.078,0.382,2.808,1.146c0.729,0.764,1.095,1.729,1.095,2.896c0,1.177-0.369,2.152-1.105,2.925
			c-0.737,0.775-1.665,1.162-2.783,1.162c-0.692,0-1.352-0.162-1.979-0.484c-0.628-0.322-1.105-0.795-1.433-1.416
			C62.61,25.734,62.447,24.977,62.447,24.083z M64.494,24.193c0,0.771,0.178,1.362,0.533,1.772s0.794,0.615,1.315,0.615
			c0.521,0,0.958-0.205,1.312-0.615s0.53-1.006,0.53-1.787c0-0.762-0.177-1.348-0.53-1.758s-0.79-0.615-1.312-0.615
			c-0.521,0-0.959,0.205-1.315,0.615S64.494,23.421,64.494,24.193z"/>
		<path fill="#002549" d="M71.062,28.594l2.282,0.286c0.038,0.273,0.125,0.462,0.263,0.563c0.189,0.146,0.488,0.221,0.896,0.221
			c0.521,0,0.912-0.081,1.173-0.242c0.175-0.107,0.308-0.281,0.398-0.52c0.062-0.172,0.093-0.486,0.093-0.945v-1.135
			c-0.597,0.84-1.351,1.26-2.261,1.26c-1.014,0-1.817-0.442-2.41-1.326c-0.464-0.698-0.696-1.567-0.696-2.607
			c0-1.304,0.304-2.3,0.913-2.988s1.366-1.033,2.271-1.033c0.933,0,1.703,0.422,2.31,1.267v-1.091h1.869v6.98
			c0,0.918-0.073,1.604-0.22,2.059c-0.147,0.453-0.353,0.811-0.618,1.068c-0.266,0.26-0.62,0.462-1.063,0.608
			c-0.443,0.146-1.003,0.22-1.681,0.22c-1.279,0-2.187-0.227-2.722-0.678c-0.536-0.451-0.803-1.023-0.803-1.717
			C71.056,28.776,71.058,28.692,71.062,28.594z M72.847,24.032c0,0.825,0.155,1.43,0.466,1.813c0.31,0.383,0.693,0.575,1.148,0.575
			c0.488,0,0.9-0.196,1.237-0.589s0.505-0.976,0.505-1.747c0-0.806-0.162-1.404-0.483-1.794c-0.322-0.391-0.73-0.586-1.223-0.586
			c-0.479,0-0.874,0.192-1.184,0.575C73.002,22.661,72.847,23.246,72.847,24.032z"/>
		<path fill="#002549" d="M81.499,28.083h-1.998v-7.779h1.855v1.106c0.317-0.522,0.603-0.867,0.856-1.033s0.542-0.249,0.864-0.249
			c0.455,0,0.893,0.129,1.315,0.388l-0.619,1.794c-0.336-0.225-0.649-0.337-0.938-0.337c-0.28,0-0.517,0.08-0.711,0.238
			s-0.347,0.445-0.458,0.86s-0.167,1.284-0.167,2.607V28.083z"/>
		<path fill="#002549" d="M86.191,22.677l-1.812-0.337c0.204-0.752,0.554-1.309,1.052-1.67s1.237-0.542,2.218-0.542
			c0.891,0,1.554,0.109,1.99,0.326s0.743,0.493,0.921,0.827c0.178,0.335,0.267,0.949,0.267,1.842l-0.021,2.402
			c0,0.684,0.032,1.188,0.096,1.512c0.064,0.326,0.184,0.674,0.359,1.045h-1.976c-0.052-0.137-0.116-0.34-0.192-0.608
			c-0.033-0.122-0.057-0.202-0.071-0.241c-0.341,0.342-0.706,0.598-1.095,0.769s-0.803,0.257-1.244,0.257
			c-0.777,0-1.389-0.218-1.837-0.652c-0.448-0.435-0.671-0.984-0.671-1.648c0-0.439,0.102-0.831,0.306-1.175
			c0.204-0.344,0.489-0.607,0.856-0.791c0.367-0.183,0.896-0.343,1.588-0.479c0.934-0.181,1.581-0.349,1.941-0.505v-0.205
			c0-0.396-0.095-0.677-0.285-0.846c-0.189-0.168-0.547-0.252-1.073-0.252c-0.355,0-0.632,0.072-0.832,0.216
			S86.314,22.315,86.191,22.677z M88.864,24.347c-0.256,0.088-0.661,0.193-1.216,0.315c-0.554,0.122-0.917,0.242-1.087,0.359
			c-0.261,0.19-0.391,0.432-0.391,0.725c0,0.288,0.104,0.537,0.313,0.747s0.474,0.314,0.796,0.314c0.36,0,0.704-0.121,1.031-0.365
			c0.242-0.186,0.4-0.413,0.477-0.682c0.052-0.176,0.078-0.51,0.078-1.003V24.347z"/>
		<path fill="#002549" d="M92.092,20.304h1.841v1.062c0.658-0.825,1.443-1.238,2.353-1.238c0.483,0,0.903,0.103,1.258,0.308
			s0.647,0.515,0.874,0.93c0.332-0.415,0.689-0.725,1.074-0.93c0.384-0.205,0.793-0.308,1.229-0.308
			c0.555,0,1.023,0.116,1.407,0.348c0.384,0.232,0.671,0.573,0.86,1.022c0.137,0.332,0.206,0.869,0.206,1.611v4.974h-1.998v-4.446
			c0-0.771-0.068-1.27-0.206-1.494c-0.185-0.293-0.469-0.439-0.853-0.439c-0.279,0-0.542,0.088-0.789,0.264
			c-0.246,0.176-0.424,0.434-0.533,0.773c-0.109,0.339-0.164,0.875-0.164,1.607v3.736h-1.998v-4.263
			c0-0.757-0.036-1.245-0.106-1.465c-0.071-0.22-0.181-0.383-0.331-0.491s-0.352-0.161-0.608-0.161
			c-0.308,0-0.585,0.085-0.832,0.256c-0.247,0.171-0.423,0.417-0.53,0.74c-0.106,0.322-0.16,0.857-0.16,1.604v3.78h-1.998V20.304z"
			/>
		<path fill="#002549" d="M106.125,22.677l-1.812-0.337c0.204-0.752,0.554-1.309,1.052-1.67s1.237-0.542,2.218-0.542
			c0.891,0,1.554,0.109,1.99,0.326s0.743,0.493,0.921,0.827c0.178,0.335,0.267,0.949,0.267,1.842l-0.021,2.402
			c0,0.684,0.032,1.188,0.096,1.512c0.064,0.326,0.184,0.674,0.359,1.045h-1.976c-0.052-0.137-0.116-0.34-0.192-0.608
			c-0.033-0.122-0.057-0.202-0.071-0.241c-0.341,0.342-0.706,0.598-1.095,0.769s-0.803,0.257-1.244,0.257
			c-0.777,0-1.389-0.218-1.837-0.652c-0.448-0.435-0.671-0.984-0.671-1.648c0-0.439,0.102-0.831,0.306-1.175
			c0.204-0.344,0.489-0.607,0.856-0.791c0.367-0.183,0.896-0.343,1.588-0.479c0.934-0.181,1.581-0.349,1.941-0.505v-0.205
			c0-0.396-0.095-0.677-0.285-0.846c-0.189-0.168-0.547-0.252-1.073-0.252c-0.355,0-0.632,0.072-0.832,0.216
			S106.249,22.315,106.125,22.677z M108.798,24.347c-0.256,0.088-0.661,0.193-1.216,0.315c-0.554,0.122-0.917,0.242-1.087,0.359
			c-0.261,0.19-0.391,0.432-0.391,0.725c0,0.288,0.104,0.537,0.313,0.747s0.474,0.314,0.796,0.314c0.36,0,0.704-0.121,1.031-0.365
			c0.242-0.186,0.4-0.413,0.477-0.682c0.052-0.176,0.078-0.51,0.078-1.003V24.347z"/>
	</g>
	<g opacity="0.7">
		<path fill="#FFFFFF" d="M37.924,30.792c0.419,0.376,0.933,0.566,1.426,0.566c0.495,0,0.969-0.188,1.307-0.565
			c0.339-0.377,0.475-0.871,0.423-1.368c-0.052-0.492-0.292-0.989-0.71-1.365l-3.116-2.824c0.232-0.673,0.325-1.421,0.243-2.208
			c-0.314-2.99-3.003-5.42-5.993-5.42c-2.987,0-5.164,2.43-4.849,5.42c0.314,2.986,3.002,5.42,5.988,5.42
			c0.79,0,1.519-0.175,2.166-0.48L37.924,30.792z M28.551,23.027c-0.207-1.944,1.21-3.525,3.153-3.525c1.945,0,3.696,1.58,3.9,3.525
			c0.206,1.943-1.213,3.526-3.159,3.526C30.502,26.553,28.754,24.97,28.551,23.027z"/>
		<g>
			<path fill="#FFFFFF" d="M28.794,5.206H10.917c-1.072,0-1.859,0.877-1.746,1.949l0.242,2.291c0.112,1.071,1.084,1.951,2.155,1.951
				h17.878c1.073,0,1.859-0.879,1.745-1.951L30.95,7.155C30.838,6.083,29.868,5.206,28.794,5.206z M15.956,8.989h-3.954
				c-0.379,0-0.72-0.307-0.761-0.689c-0.04-0.38,0.236-0.686,0.616-0.686h3.953c0.38,0,0.721,0.306,0.76,0.686
				C16.611,8.682,16.335,8.989,15.956,8.989z"/>
			<g>
				<path fill="none" d="M17.59,24.529h-3.955c-0.38,0-0.656,0.309-0.616,0.688s0.381,0.687,0.76,0.687h3.954
					c0.38,0,0.656-0.307,0.616-0.686C18.309,24.837,17.968,24.529,17.59,24.529z"/>
				<path fill="none" d="M16.66,15.694h-3.953c-0.381,0-0.656,0.306-0.616,0.688c0.04,0.378,0.38,0.686,0.76,0.686h3.953
					c0.38,0,0.656-0.308,0.615-0.686C17.379,16,17.041,15.694,16.66,15.694z"/>
				<path fill="#FFFFFF" d="M31.274,15.41c0.184,0,0.366,0.015,0.547,0.028L31.8,15.237c-0.113-1.072-1.083-1.952-2.156-1.952
					H11.765c-1.07,0-1.856,0.88-1.744,1.952l0.241,2.289c0.112,1.071,1.083,1.95,2.153,1.95H24.97
					C25.994,17.062,28.357,15.41,31.274,15.41z M16.805,17.068h-3.953c-0.38,0-0.722-0.308-0.76-0.686
					c-0.04-0.382,0.235-0.688,0.616-0.688h3.953c0.381,0,0.72,0.306,0.76,0.688C17.46,16.76,17.185,17.068,16.805,17.068z"/>
				<path fill="#FFFFFF" d="M24.424,22.121H12.694c-1.071,0-1.858,0.879-1.745,1.95l0.241,2.291c0.112,1.071,1.083,1.95,2.155,1.95
					h13.709c-0.213-0.233-0.41-0.481-0.596-0.736c-1.083-1.271-1.82-2.842-1.999-4.549C24.428,22.719,24.42,22.419,24.424,22.121z
					 M17.732,25.905h-3.954c-0.378,0-0.72-0.307-0.76-0.687c-0.04-0.379,0.236-0.688,0.616-0.688h3.955
					c0.378,0,0.719,0.31,0.758,0.689C18.389,25.596,18.113,25.905,17.732,25.905z"/>
			</g>
		</g>
	</g>
</g>
</svg>
