<?xml version="1.0" encoding="utf-8"?>
<!-- Generator: Adobe Illustrator 16.0.0, SVG Export Plug-In . SVG Version: 6.00 Build 0)  -->
<!DOCTYPE svg PUBLIC "-//W3C//DTD SVG 1.1//EN" "http://www.w3.org/Graphics/SVG/1.1/DTD/svg11.dtd">
<svg version="1.1" id="Capa_1" xmlns="http://www.w3.org/2000/svg" xmlns:xlink="http://www.w3.org/1999/xlink" x="0px" y="0px"
	 width="247.638px" height="52.237px" viewBox="0 0 247.638 52.237" enable-background="new 0 0 247.638 52.237"
	 xml:space="preserve">
<g>
	<g>
		<polygon fill-rule="evenodd" clip-rule="evenodd" fill="#2D3944" points="233.611,52.237 247.638,34.452 237.212,14.283 
			233.611,14.285 		"/>
		<rect fill-rule="evenodd" clip-rule="evenodd" fill="#76C5ED" width="247.637" height="34.967"/>
		<polygon fill="#002549" points="233.611,42.137 0,34.967 233.611,34.967 		"/>
	</g>
	<g>
		<path fill="#002549" d="M58.869,14.261H56.58l-0.91-2.438h-4.165l-0.86,2.438h-2.232l4.059-10.737h2.225L58.869,14.261z
			 M54.995,10.013l-1.436-3.984l-1.408,3.984H54.995z"/>
		<path fill="#002549" d="M58.714,12.041l2.004-0.314c0.085,0.4,0.258,0.705,0.519,0.912c0.26,0.207,0.625,0.311,1.095,0.311
			c0.516,0,0.905-0.098,1.166-0.293c0.175-0.137,0.263-0.319,0.263-0.549c0-0.156-0.048-0.285-0.143-0.389
			c-0.099-0.098-0.322-0.188-0.668-0.271c-1.611-0.366-2.632-0.7-3.063-1.003c-0.597-0.42-0.896-1.004-0.896-1.751
			c0-0.674,0.258-1.24,0.774-1.699s1.317-0.688,2.403-0.688c1.033,0,1.801,0.174,2.303,0.52c0.502,0.348,0.848,0.859,1.038,1.539
			l-1.884,0.358c-0.081-0.303-0.233-0.534-0.458-0.696c-0.225-0.16-0.546-0.241-0.963-0.241c-0.526,0-0.902,0.075-1.13,0.228
			c-0.152,0.107-0.228,0.246-0.228,0.417c0,0.146,0.066,0.271,0.199,0.374c0.18,0.137,0.802,0.329,1.866,0.578
			s1.807,0.555,2.229,0.916c0.417,0.365,0.625,0.876,0.625,1.53c0,0.713-0.289,1.325-0.867,1.839
			c-0.578,0.512-1.434,0.769-2.566,0.769c-1.029,0-1.842-0.215-2.442-0.645S58.898,12.779,58.714,12.041z"/>
		<path fill="#002549" d="M66.903,6.482h1.863v1.143c0.242-0.391,0.568-0.708,0.98-0.952c0.413-0.244,0.87-0.366,1.372-0.366
			c0.876,0,1.621,0.354,2.232,1.062c0.611,0.707,0.917,1.693,0.917,2.959c0,1.299-0.308,2.309-0.924,3.028
			c-0.616,0.72-1.363,1.08-2.239,1.08c-0.417,0-0.795-0.085-1.134-0.257c-0.339-0.17-0.695-0.463-1.07-0.879v3.919h-1.998V6.482z
			 M68.879,10.24c0,0.873,0.168,1.52,0.505,1.937c0.336,0.418,0.747,0.626,1.23,0.626c0.464,0,0.85-0.191,1.158-0.574
			s0.462-1.012,0.462-1.887c0-0.814-0.159-1.42-0.477-1.816c-0.317-0.395-0.71-0.593-1.18-0.593c-0.488,0-0.894,0.194-1.216,0.582
			C69.041,8.903,68.879,9.479,68.879,10.24z"/>
		<path fill="#002549" d="M79.671,11.785l1.99,0.344c-0.256,0.752-0.66,1.325-1.212,1.718c-0.552,0.394-1.243,0.59-2.072,0.59
			c-1.312,0-2.284-0.442-2.914-1.325c-0.498-0.709-0.747-1.602-0.747-2.682c0-1.289,0.327-2.298,0.981-3.028
			c0.654-0.729,1.481-1.095,2.481-1.095c1.123,0,2.009,0.383,2.658,1.146c0.649,0.764,0.96,1.935,0.931,3.512h-5.004
			c0.014,0.61,0.175,1.086,0.483,1.425c0.308,0.339,0.692,0.509,1.151,0.509c0.313,0,0.576-0.088,0.789-0.264
			S79.562,12.176,79.671,11.785z M79.785,9.705c-0.014-0.596-0.164-1.049-0.448-1.358c-0.285-0.31-0.63-0.466-1.038-0.466
			c-0.436,0-0.796,0.164-1.081,0.491c-0.284,0.327-0.424,0.771-0.419,1.333H79.785z"/>
		<path fill="#002549" d="M89.424,8.782l-1.969,0.366c-0.066-0.405-0.217-0.711-0.452-0.916c-0.234-0.205-0.539-0.307-0.913-0.307
			c-0.498,0-0.895,0.177-1.191,0.53c-0.296,0.354-0.444,0.946-0.444,1.776c0,0.923,0.15,1.574,0.451,1.955
			c0.301,0.381,0.705,0.572,1.212,0.572c0.379,0,0.689-0.111,0.931-0.334c0.242-0.222,0.412-0.604,0.512-1.146l1.962,0.345
			c-0.204,0.928-0.595,1.628-1.173,2.103c-0.578,0.473-1.353,0.71-2.324,0.71c-1.104,0-1.984-0.358-2.641-1.077
			c-0.657-0.717-0.985-1.711-0.985-2.98c0-1.284,0.33-2.283,0.988-2.999s1.549-1.073,2.672-1.073c0.919,0,1.65,0.204,2.193,0.611
			C88.798,7.326,89.188,7.947,89.424,8.782z"/>
		<path fill="#002549" d="M93.847,6.482v1.641h-1.365v3.135c0,0.635,0.013,1.005,0.039,1.109c0.026,0.105,0.085,0.191,0.178,0.26
			c0.093,0.068,0.205,0.104,0.338,0.104c0.185,0,0.453-0.066,0.803-0.198l0.17,1.597c-0.464,0.205-0.99,0.308-1.578,0.308
			c-0.36,0-0.685-0.062-0.974-0.187c-0.289-0.125-0.501-0.286-0.636-0.483c-0.135-0.198-0.229-0.466-0.281-0.802
			c-0.042-0.24-0.064-0.723-0.064-1.451V8.123h-0.917V6.482h0.917V4.938l2.004-1.201v2.746H93.847z"/>
		<path fill="#002549" d="M94.218,10.262c0-0.684,0.164-1.346,0.49-1.984c0.327-0.641,0.79-1.129,1.39-1.465
			c0.6-0.338,1.269-0.506,2.008-0.506c1.142,0,2.078,0.383,2.808,1.146c0.729,0.764,1.095,1.729,1.095,2.896
			c0,1.177-0.369,2.152-1.105,2.926c-0.737,0.774-1.665,1.161-2.783,1.161c-0.692,0-1.352-0.161-1.979-0.483
			c-0.628-0.322-1.105-0.795-1.433-1.417C94.381,11.913,94.218,11.155,94.218,10.262z M96.265,10.371
			c0,0.771,0.178,1.363,0.533,1.773s0.794,0.615,1.315,0.615c0.521,0,0.958-0.205,1.312-0.615s0.53-1.006,0.53-1.787
			c0-0.762-0.177-1.348-0.53-1.758s-0.79-0.615-1.312-0.615c-0.521,0-0.959,0.205-1.315,0.615S96.265,9.6,96.265,10.371z"/>
		<path fill="#002549" d="M102.315,12.041l2.004-0.314c0.085,0.4,0.258,0.705,0.519,0.912c0.26,0.207,0.625,0.311,1.095,0.311
			c0.516,0,0.905-0.098,1.166-0.293c0.175-0.137,0.263-0.319,0.263-0.549c0-0.156-0.048-0.285-0.143-0.389
			c-0.099-0.098-0.322-0.188-0.668-0.271c-1.611-0.366-2.632-0.7-3.063-1.003c-0.597-0.42-0.896-1.004-0.896-1.751
			c0-0.674,0.258-1.24,0.774-1.699s1.317-0.688,2.403-0.688c1.033,0,1.801,0.174,2.303,0.52c0.502,0.348,0.848,0.859,1.038,1.539
			l-1.884,0.358c-0.081-0.303-0.233-0.534-0.458-0.696c-0.225-0.16-0.546-0.241-0.963-0.241c-0.526,0-0.902,0.075-1.13,0.228
			c-0.152,0.107-0.228,0.246-0.228,0.417c0,0.146,0.066,0.271,0.199,0.374c0.18,0.137,0.802,0.329,1.866,0.578
			s1.807,0.555,2.229,0.916c0.417,0.365,0.625,0.876,0.625,1.53c0,0.713-0.289,1.325-0.867,1.839
			c-0.578,0.512-1.434,0.769-2.566,0.769c-1.029,0-1.842-0.215-2.442-0.645S102.5,12.779,102.315,12.041z"/>
		<path fill="#002549" d="M113.996,6.482h1.863v1.143c0.242-0.391,0.568-0.708,0.98-0.952c0.413-0.244,0.87-0.366,1.372-0.366
			c0.876,0,1.621,0.354,2.232,1.062c0.611,0.707,0.917,1.693,0.917,2.959c0,1.299-0.308,2.309-0.924,3.028
			c-0.616,0.72-1.363,1.08-2.239,1.08c-0.417,0-0.795-0.085-1.134-0.257c-0.339-0.17-0.695-0.463-1.07-0.879v3.919h-1.998V6.482z
			 M115.972,10.24c0,0.873,0.168,1.52,0.505,1.937c0.336,0.418,0.747,0.626,1.23,0.626c0.464,0,0.85-0.191,1.158-0.574
			s0.462-1.012,0.462-1.887c0-0.814-0.159-1.42-0.477-1.816c-0.317-0.395-0.71-0.593-1.18-0.593c-0.488,0-0.894,0.194-1.216,0.582
			C116.133,8.903,115.972,9.479,115.972,10.24z"/>
		<path fill="#002549" d="M126.764,11.785l1.99,0.344c-0.256,0.752-0.66,1.325-1.211,1.718c-0.553,0.394-1.243,0.59-2.072,0.59
			c-1.312,0-2.285-0.442-2.915-1.325c-0.498-0.709-0.747-1.602-0.747-2.682c0-1.289,0.327-2.298,0.981-3.028
			c0.654-0.729,1.481-1.095,2.481-1.095c1.123,0,2.01,0.383,2.658,1.146c0.649,0.764,0.96,1.935,0.932,3.512h-5.004
			c0.014,0.61,0.175,1.086,0.483,1.425c0.309,0.339,0.692,0.509,1.152,0.509c0.312,0,0.575-0.088,0.789-0.264
			C126.494,12.459,126.654,12.176,126.764,11.785z M126.878,9.705c-0.015-0.596-0.163-1.049-0.448-1.358
			c-0.284-0.31-0.63-0.466-1.037-0.466c-0.437,0-0.797,0.164-1.081,0.491s-0.424,0.771-0.419,1.333H126.878z"/>
		<path fill="#002549" d="M136.859,14.261h-1.855v-1.143c-0.309,0.444-0.672,0.775-1.092,0.992
			c-0.419,0.218-0.842,0.326-1.269,0.326c-0.867,0-1.61-0.36-2.228-1.08c-0.619-0.72-0.928-1.726-0.928-3.015
			c0-1.318,0.301-2.32,0.902-3.006s1.362-1.029,2.281-1.029c0.844,0,1.574,0.361,2.189,1.084V3.523h1.998V14.261z M131.527,10.203
			c0,0.83,0.111,1.431,0.334,1.802c0.322,0.537,0.773,0.806,1.352,0.806c0.459,0,0.85-0.201,1.172-0.604
			c0.322-0.402,0.484-1.005,0.484-1.806c0-0.893-0.156-1.536-0.47-1.93c-0.312-0.393-0.714-0.59-1.201-0.59
			c-0.474,0-0.87,0.194-1.19,0.583C131.688,8.852,131.527,9.432,131.527,10.203z"/>
		<path fill="#002549" d="M139.768,8.855l-1.812-0.337c0.203-0.752,0.554-1.309,1.051-1.67c0.498-0.361,1.237-0.542,2.219-0.542
			c0.891,0,1.554,0.109,1.99,0.326c0.436,0.217,0.742,0.493,0.92,0.827c0.178,0.335,0.268,0.948,0.268,1.843l-0.021,2.402
			c0,0.684,0.031,1.188,0.096,1.512c0.063,0.325,0.184,0.673,0.359,1.044h-1.977c-0.053-0.137-0.116-0.339-0.192-0.608
			c-0.033-0.121-0.057-0.202-0.071-0.241c-0.341,0.342-0.705,0.599-1.094,0.769c-0.389,0.172-0.804,0.257-1.244,0.257
			c-0.777,0-1.39-0.218-1.838-0.651c-0.447-0.436-0.672-0.984-0.672-1.648c0-0.439,0.102-0.831,0.307-1.176
			c0.203-0.344,0.488-0.607,0.855-0.791c0.367-0.183,0.896-0.343,1.589-0.479c0.934-0.181,1.581-0.349,1.94-0.505V8.98
			c0-0.396-0.095-0.678-0.284-0.847c-0.189-0.168-0.548-0.253-1.073-0.253c-0.355,0-0.633,0.072-0.832,0.217
			S139.891,8.494,139.768,8.855z M142.439,10.525c-0.256,0.088-0.66,0.193-1.215,0.314c-0.555,0.123-0.918,0.242-1.088,0.359
			c-0.261,0.19-0.391,0.432-0.391,0.725c0,0.289,0.104,0.537,0.312,0.748c0.209,0.209,0.474,0.314,0.796,0.314
			c0.36,0,0.704-0.122,1.03-0.366c0.242-0.186,0.4-0.413,0.477-0.681c0.053-0.176,0.078-0.511,0.078-1.004V10.525z"/>
		<path fill="#002549" d="M145.633,14.773l2.281,0.285c0.038,0.273,0.125,0.462,0.264,0.564c0.189,0.146,0.488,0.22,0.895,0.22
			c0.521,0,0.912-0.081,1.174-0.241c0.175-0.107,0.308-0.281,0.397-0.521c0.062-0.171,0.093-0.485,0.093-0.944v-1.136
			c-0.598,0.84-1.351,1.26-2.261,1.26c-1.014,0-1.817-0.442-2.409-1.325c-0.465-0.699-0.697-1.568-0.697-2.607
			c0-1.305,0.305-2.301,0.914-2.988c0.608-0.689,1.365-1.033,2.271-1.033c0.933,0,1.703,0.422,2.31,1.268V6.482h1.869v6.98
			c0,0.918-0.073,1.604-0.22,2.058c-0.147,0.454-0.354,0.811-0.619,1.069s-0.619,0.461-1.062,0.607s-1.004,0.221-1.682,0.221
			c-1.279,0-2.187-0.227-2.722-0.678c-0.536-0.452-0.804-1.024-0.804-1.718C145.625,14.954,145.628,14.871,145.633,14.773z
			 M147.416,10.211c0,0.824,0.156,1.43,0.467,1.812c0.31,0.383,0.692,0.574,1.147,0.574c0.487,0,0.9-0.195,1.237-0.589
			c0.336-0.394,0.504-0.976,0.504-1.747c0-0.806-0.161-1.404-0.482-1.795c-0.322-0.391-0.73-0.586-1.223-0.586
			c-0.479,0-0.874,0.192-1.184,0.575C147.572,8.84,147.416,9.424,147.416,10.211z"/>
		<path fill="#002549" d="M153.695,10.262c0-0.684,0.163-1.346,0.49-1.984c0.326-0.641,0.789-1.129,1.389-1.465
			c0.6-0.338,1.27-0.506,2.009-0.506c1.142,0,2.077,0.383,2.808,1.146c0.729,0.764,1.095,1.729,1.095,2.896
			c0,1.177-0.368,2.152-1.105,2.926c-0.737,0.774-1.665,1.161-2.782,1.161c-0.692,0-1.353-0.161-1.98-0.483
			s-1.105-0.795-1.432-1.417C153.858,11.913,153.695,11.155,153.695,10.262z M155.742,10.371c0,0.771,0.178,1.363,0.533,1.773
			s0.793,0.615,1.314,0.615s0.959-0.205,1.312-0.615s0.53-1.006,0.53-1.787c0-0.762-0.178-1.348-0.53-1.758s-0.79-0.615-1.312-0.615
			s-0.959,0.205-1.314,0.615S155.742,9.6,155.742,10.371z M156.58,5.53l0.981-2.19h2.239l-1.955,2.19H156.58z"/>
		<path fill="#002549" d="M162.311,14.773l2.281,0.285c0.039,0.273,0.126,0.462,0.264,0.564c0.189,0.146,0.488,0.22,0.896,0.22
			c0.521,0,0.912-0.081,1.173-0.241c0.176-0.107,0.309-0.281,0.398-0.521c0.062-0.171,0.092-0.485,0.092-0.944v-1.136
			c-0.597,0.84-1.35,1.26-2.26,1.26c-1.014,0-1.817-0.442-2.41-1.325c-0.465-0.699-0.696-1.568-0.696-2.607
			c0-1.305,0.304-2.301,0.913-2.988c0.609-0.689,1.366-1.033,2.271-1.033c0.934,0,1.703,0.422,2.311,1.268V6.482h1.869v6.98
			c0,0.918-0.074,1.604-0.221,2.058s-0.354,0.811-0.618,1.069c-0.266,0.259-0.62,0.461-1.063,0.607
			c-0.442,0.146-1.003,0.221-1.681,0.221c-1.279,0-2.187-0.227-2.722-0.678c-0.536-0.452-0.804-1.024-0.804-1.718
			C162.304,14.954,162.307,14.871,162.311,14.773z M164.095,10.211c0,0.824,0.155,1.43,0.466,1.812s0.693,0.574,1.148,0.574
			c0.487,0,0.9-0.195,1.236-0.589s0.505-0.976,0.505-1.747c0-0.806-0.161-1.404-0.483-1.795s-0.73-0.586-1.223-0.586
			c-0.479,0-0.873,0.192-1.184,0.575C164.25,8.84,164.095,9.424,164.095,10.211z"/>
		<path fill="#002549" d="M170.835,5.428V3.523h1.997v1.904H170.835z M170.835,14.261V6.482h1.997v7.778H170.835z"/>
		<path fill="#002549" d="M180.908,8.782l-1.969,0.366c-0.066-0.405-0.217-0.711-0.451-0.916s-0.539-0.307-0.914-0.307
			c-0.497,0-0.895,0.177-1.19,0.53c-0.296,0.354-0.444,0.946-0.444,1.776c0,0.923,0.15,1.574,0.451,1.955s0.705,0.572,1.213,0.572
			c0.379,0,0.689-0.111,0.931-0.334c0.241-0.222,0.412-0.604,0.512-1.146l1.962,0.345c-0.203,0.928-0.595,1.628-1.173,2.103
			c-0.578,0.473-1.353,0.71-2.324,0.71c-1.104,0-1.984-0.358-2.641-1.077c-0.657-0.717-0.985-1.711-0.985-2.98
			c0-1.284,0.33-2.283,0.988-2.999c0.659-0.716,1.55-1.073,2.673-1.073c0.919,0,1.65,0.204,2.192,0.611
			C180.281,7.326,180.672,7.947,180.908,8.782z"/>
		<path fill="#002549" d="M181.407,10.262c0-0.684,0.163-1.346,0.49-1.984c0.327-0.641,0.79-1.129,1.39-1.465
			c0.6-0.338,1.27-0.506,2.008-0.506c1.143,0,2.078,0.383,2.809,1.146c0.729,0.764,1.094,1.729,1.094,2.896
			c0,1.177-0.368,2.152-1.105,2.926c-0.736,0.774-1.664,1.161-2.782,1.161c-0.692,0-1.353-0.161-1.979-0.483
			c-0.629-0.322-1.105-0.795-1.433-1.417C181.57,11.913,181.407,11.155,181.407,10.262z M183.454,10.371
			c0,0.771,0.178,1.363,0.533,1.773s0.794,0.615,1.315,0.615s0.958-0.205,1.311-0.615c0.354-0.41,0.53-1.006,0.53-1.787
			c0-0.762-0.177-1.348-0.53-1.758c-0.353-0.41-0.789-0.615-1.311-0.615s-0.96,0.205-1.315,0.615S183.454,9.6,183.454,10.371z"/>
		<path fill="#002549" d="M189.505,12.041l2.005-0.314c0.085,0.4,0.258,0.705,0.519,0.912s0.626,0.311,1.095,0.311
			c0.516,0,0.904-0.098,1.166-0.293c0.175-0.137,0.263-0.319,0.263-0.549c0-0.156-0.048-0.285-0.143-0.389
			c-0.099-0.098-0.322-0.188-0.668-0.271c-1.611-0.366-2.632-0.7-3.063-1.003c-0.598-0.42-0.896-1.004-0.896-1.751
			c0-0.674,0.258-1.24,0.774-1.699s1.317-0.688,2.402-0.688c1.033,0,1.801,0.174,2.303,0.52c0.503,0.348,0.849,0.859,1.039,1.539
			l-1.885,0.358c-0.08-0.303-0.232-0.534-0.458-0.696c-0.226-0.16-0.546-0.241-0.964-0.241c-0.525,0-0.902,0.075-1.129,0.228
			c-0.152,0.107-0.229,0.246-0.229,0.417c0,0.146,0.066,0.271,0.199,0.374c0.18,0.137,0.803,0.329,1.866,0.578
			s1.807,0.555,2.229,0.916c0.417,0.365,0.626,0.876,0.626,1.53c0,0.713-0.289,1.325-0.867,1.839
			c-0.578,0.512-1.434,0.769-2.566,0.769c-1.029,0-1.842-0.215-2.441-0.645S189.689,12.779,189.505,12.041z"/>
		<path fill="#002549" d="M200.297,6.482h2.125l1.807,5.522l1.762-5.522h2.069l-2.665,7.485l-0.477,1.354
			c-0.176,0.455-0.343,0.801-0.502,1.041c-0.158,0.238-0.341,0.433-0.547,0.582c-0.206,0.148-0.46,0.265-0.761,0.348
			s-0.641,0.125-1.021,0.125c-0.383,0-0.76-0.042-1.129-0.125l-0.178-1.611c0.312,0.063,0.594,0.096,0.846,0.096
			c0.464,0,0.808-0.141,1.03-0.422s0.394-0.639,0.512-1.072L200.297,6.482z"/>
		<path fill="#002549" d="M56.381,30.26h-1.855v-1.143c-0.308,0.445-0.671,0.775-1.091,0.992c-0.419,0.219-0.842,0.326-1.269,0.326
			c-0.867,0-1.61-0.359-2.228-1.08c-0.619-0.719-0.928-1.725-0.928-3.014c0-1.318,0.301-2.32,0.903-3.006
			c0.602-0.686,1.362-1.029,2.282-1.029c0.843,0,1.573,0.361,2.189,1.084v-3.867h1.998V30.26z M51.05,26.203
			c0,0.83,0.111,1.43,0.334,1.801c0.322,0.537,0.772,0.807,1.351,0.807c0.459,0,0.851-0.201,1.173-0.605
			c0.322-0.402,0.483-1.004,0.483-1.805c0-0.893-0.156-1.536-0.469-1.93c-0.312-0.393-0.713-0.59-1.201-0.59
			c-0.474,0-0.871,0.194-1.191,0.583C51.209,24.852,51.05,25.432,51.05,26.203z"/>
		<path fill="#002549" d="M57.796,21.428v-1.904h1.998v1.904H57.796z M57.796,30.26v-7.778h1.998v7.778H57.796z"/>
		<path fill="#002549" d="M68.211,30.26h-1.855v-1.143c-0.308,0.445-0.671,0.775-1.091,0.992c-0.419,0.219-0.842,0.326-1.269,0.326
			c-0.867,0-1.61-0.359-2.228-1.08c-0.619-0.719-0.928-1.725-0.928-3.014c0-1.318,0.301-2.32,0.903-3.006
			c0.602-0.686,1.362-1.029,2.282-1.029c0.843,0,1.573,0.361,2.189,1.084v-3.867h1.998V30.26z M62.88,26.203
			c0,0.83,0.111,1.43,0.334,1.801c0.322,0.537,0.772,0.807,1.351,0.807c0.459,0,0.851-0.201,1.173-0.605
			c0.322-0.402,0.483-1.004,0.483-1.805c0-0.893-0.156-1.536-0.469-1.93c-0.312-0.393-0.713-0.59-1.201-0.59
			c-0.474,0-0.871,0.194-1.191,0.583C63.04,24.852,62.88,25.432,62.88,26.203z"/>
		<path fill="#002549" d="M71.12,24.855l-1.812-0.337c0.204-0.752,0.554-1.309,1.052-1.67s1.237-0.542,2.218-0.542
			c0.891,0,1.554,0.109,1.99,0.326s0.743,0.493,0.921,0.827c0.178,0.335,0.267,0.948,0.267,1.843l-0.021,2.403
			c0,0.684,0.032,1.188,0.096,1.512s0.184,0.672,0.359,1.043h-1.976c-0.052-0.137-0.116-0.338-0.192-0.607
			c-0.033-0.121-0.057-0.203-0.071-0.242c-0.341,0.342-0.706,0.6-1.095,0.77c-0.389,0.172-0.803,0.256-1.244,0.256
			c-0.777,0-1.389-0.217-1.837-0.65c-0.448-0.436-0.671-0.984-0.671-1.648c0-0.439,0.102-0.832,0.306-1.176
			c0.204-0.344,0.489-0.607,0.856-0.791c0.367-0.183,0.896-0.343,1.588-0.479c0.934-0.181,1.581-0.349,1.941-0.505V24.98
			c0-0.396-0.095-0.678-0.285-0.847c-0.189-0.168-0.547-0.253-1.073-0.253c-0.355,0-0.632,0.072-0.832,0.217
			S71.243,24.494,71.12,24.855z M73.792,26.525c-0.256,0.088-0.661,0.193-1.216,0.314c-0.554,0.123-0.917,0.243-1.087,0.36
			c-0.261,0.189-0.391,0.432-0.391,0.725c0,0.289,0.104,0.537,0.313,0.748c0.208,0.209,0.474,0.314,0.796,0.314
			c0.36,0,0.704-0.123,1.031-0.367c0.242-0.186,0.4-0.412,0.477-0.68c0.052-0.176,0.078-0.512,0.078-1.004V26.525z M71.631,21.53
			l0.981-2.19h2.239l-1.955,2.19H71.631z"/>
		<path fill="#002549" d="M83.752,24.782l-1.969,0.366c-0.066-0.405-0.217-0.711-0.452-0.916c-0.234-0.205-0.539-0.307-0.913-0.307
			c-0.498,0-0.895,0.177-1.191,0.53c-0.296,0.354-0.444,0.946-0.444,1.776c0,0.922,0.15,1.575,0.451,1.956
			c0.301,0.381,0.705,0.572,1.212,0.572c0.379,0,0.689-0.111,0.931-0.334s0.412-0.604,0.512-1.146l1.962,0.344
			c-0.204,0.928-0.595,1.629-1.173,2.104c-0.578,0.473-1.353,0.709-2.324,0.709c-1.104,0-1.984-0.357-2.641-1.076
			c-0.657-0.717-0.985-1.711-0.985-2.981c0-1.284,0.33-2.283,0.988-2.999s1.549-1.073,2.672-1.073c0.919,0,1.65,0.204,2.193,0.611
			C83.125,23.326,83.515,23.947,83.752,24.782z"/>
		<path fill="#002549" d="M88.174,22.482v1.641H86.81v3.135c0,0.635,0.013,1.004,0.039,1.109c0.026,0.105,0.085,0.191,0.178,0.26
			c0.093,0.068,0.205,0.104,0.338,0.104c0.185,0,0.453-0.066,0.803-0.199l0.17,1.598c-0.464,0.205-0.99,0.307-1.578,0.307
			c-0.36,0-0.685-0.062-0.974-0.186c-0.289-0.125-0.501-0.287-0.636-0.484c-0.135-0.197-0.229-0.465-0.281-0.801
			c-0.042-0.24-0.064-0.723-0.064-1.451v-3.391h-0.917v-1.641h0.917v-1.545l2.004-1.201v2.746H88.174z"/>
		<path fill="#002549" d="M89.008,21.428v-1.904h1.998v1.904H89.008z M89.008,30.26v-7.778h1.998v7.778H89.008z"/>
		<path fill="#002549" d="M99.081,24.782l-1.969,0.366c-0.066-0.405-0.217-0.711-0.452-0.916c-0.234-0.205-0.539-0.307-0.913-0.307
			c-0.498,0-0.895,0.177-1.191,0.53c-0.296,0.354-0.444,0.946-0.444,1.776c0,0.922,0.15,1.575,0.451,1.956
			c0.301,0.381,0.705,0.572,1.212,0.572c0.379,0,0.689-0.111,0.931-0.334s0.412-0.604,0.512-1.146l1.962,0.344
			c-0.204,0.928-0.595,1.629-1.173,2.104c-0.578,0.473-1.353,0.709-2.324,0.709c-1.104,0-1.984-0.357-2.641-1.076
			c-0.657-0.717-0.985-1.711-0.985-2.981c0-1.284,0.33-2.283,0.988-2.999s1.549-1.073,2.672-1.073c0.919,0,1.65,0.204,2.193,0.611
			C98.455,23.326,98.844,23.947,99.081,24.782z"/>
		<path fill="#002549" d="M99.58,26.262c0-0.684,0.164-1.346,0.49-1.984c0.327-0.641,0.79-1.129,1.39-1.465
			c0.6-0.338,1.269-0.506,2.008-0.506c1.142,0,2.078,0.383,2.808,1.146c0.729,0.764,1.095,1.729,1.095,2.896
			c0,1.176-0.369,2.153-1.105,2.926s-1.665,1.16-2.783,1.16c-0.692,0-1.352-0.16-1.979-0.482c-0.628-0.322-1.105-0.795-1.433-1.418
			C99.744,27.913,99.58,27.155,99.58,26.262z M101.627,26.371c0,0.772,0.178,1.364,0.533,1.774s0.794,0.615,1.315,0.615
			c0.521,0,0.958-0.205,1.312-0.615s0.53-1.006,0.53-1.788c0-0.762-0.177-1.348-0.53-1.758s-0.79-0.615-1.312-0.615
			c-0.521,0-0.959,0.205-1.315,0.615S101.627,25.6,101.627,26.371z"/>
		<path fill="#002549" d="M107.677,28.042l2.004-0.314c0.085,0.4,0.258,0.705,0.519,0.912c0.26,0.207,0.625,0.311,1.095,0.311
			c0.516,0,0.905-0.098,1.166-0.293c0.175-0.137,0.263-0.32,0.263-0.549c0-0.156-0.048-0.285-0.143-0.389
			c-0.099-0.098-0.322-0.188-0.668-0.271c-1.611-0.365-2.632-0.7-3.063-1.002c-0.597-0.42-0.896-1.004-0.896-1.751
			c0-0.674,0.258-1.24,0.774-1.699s1.317-0.688,2.403-0.688c1.033,0,1.801,0.174,2.303,0.52c0.502,0.348,0.848,0.859,1.038,1.539
			l-1.884,0.358c-0.081-0.303-0.233-0.534-0.458-0.696c-0.225-0.16-0.546-0.241-0.963-0.241c-0.526,0-0.902,0.075-1.13,0.228
			c-0.152,0.107-0.228,0.246-0.228,0.417c0,0.146,0.066,0.271,0.199,0.374c0.18,0.137,0.802,0.329,1.866,0.578
			s1.807,0.555,2.229,0.916c0.417,0.365,0.625,0.875,0.625,1.53c0,0.713-0.289,1.326-0.867,1.84
			c-0.578,0.512-1.434,0.768-2.566,0.768c-1.029,0-1.842-0.215-2.442-0.645S107.862,28.78,107.677,28.042z"/>
		<path fill="#002549" d="M126.339,30.26h-1.855v-1.143c-0.308,0.445-0.671,0.775-1.091,0.992c-0.419,0.219-0.842,0.326-1.269,0.326
			c-0.867,0-1.61-0.359-2.228-1.08c-0.619-0.719-0.928-1.725-0.928-3.014c0-1.318,0.301-2.32,0.903-3.006
			c0.602-0.686,1.362-1.029,2.282-1.029c0.843,0,1.573,0.361,2.189,1.084v-3.867h1.997V30.26z M121.008,26.203
			c0,0.83,0.111,1.43,0.334,1.801c0.322,0.537,0.772,0.807,1.351,0.807c0.459,0,0.851-0.201,1.173-0.605
			c0.322-0.402,0.483-1.004,0.483-1.805c0-0.893-0.156-1.536-0.469-1.93c-0.312-0.393-0.713-0.59-1.201-0.59
			c-0.474,0-0.871,0.194-1.191,0.583C121.167,24.852,121.008,25.432,121.008,26.203z"/>
		<path fill="#002549" d="M132.126,27.786l1.99,0.344c-0.256,0.752-0.66,1.324-1.212,1.717c-0.553,0.395-1.242,0.59-2.072,0.59
			c-1.312,0-2.284-0.441-2.914-1.324c-0.498-0.709-0.746-1.602-0.746-2.682c0-1.289,0.326-2.298,0.98-3.028
			c0.654-0.729,1.48-1.095,2.48-1.095c1.123,0,2.01,0.383,2.658,1.146c0.65,0.764,0.961,1.935,0.932,3.512h-5.004
			c0.014,0.61,0.176,1.086,0.483,1.424c0.308,0.34,0.692,0.51,1.151,0.51c0.312,0,0.576-0.088,0.789-0.264
			S132.017,28.176,132.126,27.786z M132.24,25.705c-0.015-0.596-0.164-1.049-0.448-1.358s-0.63-0.466-1.038-0.466
			c-0.436,0-0.796,0.164-1.08,0.491c-0.285,0.327-0.424,0.771-0.42,1.333H132.24z"/>
		<path fill="#002549" d="M135.297,30.26V19.523h1.998V30.26H135.297z"/>
		<path fill="#002549" d="M142.223,22.482h1.863v1.143c0.242-0.391,0.568-0.708,0.98-0.952s0.869-0.366,1.372-0.366
			c0.876,0,1.62,0.354,2.231,1.062c0.611,0.707,0.918,1.693,0.918,2.959c0,1.299-0.309,2.309-0.924,3.028
			c-0.617,0.721-1.363,1.08-2.24,1.08c-0.416,0-0.795-0.084-1.133-0.256c-0.34-0.17-0.695-0.463-1.07-0.879v3.918h-1.998V22.482z
			 M144.199,26.24c0,0.874,0.168,1.52,0.505,1.936c0.337,0.418,0.747,0.627,1.229,0.627c0.465,0,0.851-0.191,1.158-0.574
			c0.309-0.383,0.463-1.012,0.463-1.887c0-0.814-0.159-1.42-0.477-1.816c-0.317-0.395-0.711-0.593-1.18-0.593
			c-0.488,0-0.894,0.194-1.216,0.582C144.36,24.903,144.199,25.479,144.199,26.24z"/>
		<path fill="#002549" d="M152.531,30.26h-1.998v-7.778h1.855v1.105c0.318-0.521,0.604-0.866,0.857-1.032
			c0.253-0.166,0.541-0.249,0.863-0.249c0.455,0,0.893,0.129,1.314,0.389l-0.618,1.794c-0.337-0.225-0.649-0.337-0.938-0.337
			c-0.279,0-0.516,0.08-0.711,0.238c-0.193,0.158-0.347,0.445-0.458,0.86s-0.167,1.284-0.167,2.607V30.26z"/>
		<path fill="#002549" d="M155.27,26.262c0-0.684,0.164-1.346,0.49-1.984c0.327-0.641,0.79-1.129,1.39-1.465
			c0.6-0.338,1.269-0.506,2.009-0.506c1.141,0,2.077,0.383,2.807,1.146c0.73,0.764,1.096,1.729,1.096,2.896
			c0,1.176-0.369,2.153-1.105,2.926c-0.737,0.773-1.665,1.16-2.783,1.16c-0.691,0-1.352-0.16-1.979-0.482s-1.105-0.795-1.433-1.418
			C155.434,27.913,155.27,27.155,155.27,26.262z M157.316,26.371c0,0.772,0.178,1.364,0.533,1.774s0.794,0.615,1.314,0.615
			c0.521,0,0.959-0.205,1.312-0.615c0.353-0.41,0.529-1.006,0.529-1.788c0-0.762-0.177-1.348-0.529-1.758
			c-0.354-0.41-0.791-0.615-1.312-0.615c-0.521,0-0.959,0.205-1.314,0.615S157.316,25.6,157.316,26.371z"/>
		<path fill="#002549" d="M163.885,30.774l2.282,0.285c0.038,0.273,0.126,0.461,0.263,0.564c0.189,0.146,0.488,0.219,0.896,0.219
			c0.521,0,0.912-0.08,1.172-0.24c0.176-0.107,0.309-0.281,0.398-0.521c0.062-0.17,0.093-0.484,0.093-0.943V29
			c-0.597,0.84-1.351,1.26-2.261,1.26c-1.014,0-1.816-0.441-2.41-1.324c-0.464-0.699-0.695-1.568-0.695-2.608
			c0-1.305,0.304-2.301,0.912-2.988c0.609-0.689,1.367-1.033,2.271-1.033c0.934,0,1.703,0.422,2.311,1.268v-1.092h1.869v6.981
			c0,0.918-0.073,1.604-0.221,2.057c-0.146,0.455-0.353,0.811-0.617,1.07c-0.266,0.258-0.62,0.461-1.063,0.607
			c-0.442,0.146-1.003,0.221-1.681,0.221c-1.279,0-2.188-0.227-2.723-0.678c-0.535-0.453-0.803-1.025-0.803-1.719
			C163.879,30.954,163.881,30.872,163.885,30.774z M165.67,26.211c0,0.824,0.154,1.43,0.465,1.813s0.693,0.574,1.148,0.574
			c0.488,0,0.9-0.195,1.236-0.59c0.337-0.393,0.506-0.975,0.506-1.747c0-0.806-0.162-1.404-0.484-1.795s-0.729-0.586-1.223-0.586
			c-0.479,0-0.873,0.192-1.184,0.575C165.824,24.84,165.67,25.424,165.67,26.211z"/>
		<path fill="#002549" d="M174.322,30.26h-1.998v-7.778h1.855v1.105c0.317-0.521,0.604-0.866,0.856-1.032s0.542-0.249,0.864-0.249
			c0.454,0,0.893,0.129,1.314,0.389l-0.619,1.794c-0.336-0.225-0.648-0.337-0.938-0.337c-0.279,0-0.517,0.08-0.711,0.238
			s-0.348,0.445-0.459,0.86s-0.166,1.284-0.166,2.607V30.26z"/>
		<path fill="#002549" d="M179.014,24.855l-1.812-0.337c0.204-0.752,0.555-1.309,1.053-1.67c0.497-0.361,1.236-0.542,2.217-0.542
			c0.892,0,1.555,0.109,1.99,0.326c0.437,0.217,0.744,0.493,0.922,0.827c0.178,0.335,0.266,0.948,0.266,1.843l-0.021,2.403
			c0,0.684,0.032,1.188,0.096,1.512c0.064,0.324,0.184,0.672,0.359,1.043h-1.976c-0.052-0.137-0.116-0.338-0.192-0.607
			c-0.033-0.121-0.057-0.203-0.07-0.242c-0.342,0.342-0.707,0.6-1.096,0.77c-0.389,0.172-0.803,0.256-1.244,0.256
			c-0.776,0-1.389-0.217-1.837-0.65c-0.448-0.436-0.671-0.984-0.671-1.648c0-0.439,0.102-0.832,0.305-1.176
			c0.204-0.344,0.49-0.607,0.857-0.791c0.367-0.183,0.896-0.343,1.588-0.479c0.934-0.181,1.58-0.349,1.941-0.505V24.98
			c0-0.396-0.096-0.678-0.285-0.847c-0.189-0.168-0.547-0.253-1.073-0.253c-0.355,0-0.632,0.072-0.831,0.217
			S179.137,24.494,179.014,24.855z M181.688,26.525c-0.256,0.088-0.662,0.193-1.217,0.314c-0.554,0.123-0.916,0.243-1.087,0.36
			c-0.261,0.189-0.392,0.432-0.392,0.725c0,0.289,0.105,0.537,0.313,0.748c0.208,0.209,0.474,0.314,0.796,0.314
			c0.36,0,0.704-0.123,1.031-0.367c0.241-0.186,0.4-0.412,0.477-0.68c0.051-0.176,0.078-0.512,0.078-1.004V26.525z"/>
		<path fill="#002549" d="M184.915,22.482h1.841v1.062c0.658-0.826,1.443-1.238,2.354-1.238c0.482,0,0.902,0.103,1.258,0.308
			s0.646,0.515,0.874,0.931c0.332-0.416,0.689-0.726,1.073-0.931c0.385-0.205,0.794-0.308,1.23-0.308
			c0.555,0,1.023,0.116,1.406,0.348c0.385,0.232,0.672,0.572,0.861,1.021c0.137,0.332,0.205,0.869,0.205,1.611v4.973h-1.997v-4.446
			c0-0.771-0.068-1.27-0.206-1.494c-0.185-0.293-0.469-0.439-0.854-0.439c-0.279,0-0.542,0.088-0.789,0.264
			c-0.246,0.176-0.424,0.434-0.532,0.773c-0.109,0.34-0.163,0.875-0.163,1.607v3.735h-1.998v-4.262c0-0.757-0.035-1.245-0.106-1.465
			s-0.181-0.383-0.331-0.49c-0.148-0.107-0.352-0.162-0.607-0.162c-0.309,0-0.586,0.086-0.832,0.257s-0.422,0.417-0.529,0.739
			c-0.106,0.322-0.16,0.857-0.16,1.604v3.779h-1.997V22.482z"/>
		<path fill="#002549" d="M198.947,24.855l-1.812-0.337c0.204-0.752,0.555-1.309,1.053-1.67c0.497-0.361,1.236-0.542,2.217-0.542
			c0.892,0,1.555,0.109,1.99,0.326c0.437,0.217,0.744,0.493,0.922,0.827c0.178,0.335,0.266,0.948,0.266,1.843l-0.021,2.403
			c0,0.684,0.032,1.188,0.096,1.512c0.064,0.324,0.184,0.672,0.359,1.043h-1.976c-0.052-0.137-0.116-0.338-0.192-0.607
			c-0.033-0.121-0.057-0.203-0.07-0.242c-0.342,0.342-0.707,0.6-1.096,0.77c-0.389,0.172-0.803,0.256-1.244,0.256
			c-0.776,0-1.389-0.217-1.837-0.65c-0.448-0.436-0.671-0.984-0.671-1.648c0-0.439,0.102-0.832,0.305-1.176
			c0.204-0.344,0.49-0.607,0.857-0.791c0.367-0.183,0.896-0.343,1.588-0.479c0.934-0.181,1.58-0.349,1.941-0.505V24.98
			c0-0.396-0.096-0.678-0.285-0.847c-0.189-0.168-0.547-0.253-1.073-0.253c-0.355,0-0.632,0.072-0.831,0.217
			S199.07,24.494,198.947,24.855z M201.621,26.525c-0.256,0.088-0.662,0.193-1.217,0.314c-0.554,0.123-0.916,0.243-1.087,0.36
			c-0.261,0.189-0.392,0.432-0.392,0.725c0,0.289,0.105,0.537,0.313,0.748c0.208,0.209,0.474,0.314,0.796,0.314
			c0.36,0,0.704-0.123,1.031-0.367c0.241-0.186,0.4-0.412,0.477-0.68c0.051-0.176,0.078-0.512,0.078-1.004V26.525z"/>
	</g>
	<g opacity="0.7">
		<g>
			<path fill="#FFFFFF" d="M20.26,20.461l-9.828,7.764c-0.715,0.598-1.844,0.447-2.519-0.332c-0.677-0.779-0.643-1.891,0.072-2.483
				l9.828-7.766c0.06,0.156,0.354,0.745,1.028,1.522C19.517,19.945,19.935,20.229,20.26,20.461L20.26,20.461z"/>
			<path fill="#FFFFFF" d="M19.2,16.553c0,0,0.1,0.465,0.92,1.41c0.822,0.947,1.344,1.219,1.344,1.219s1.589-2.972,1.199-3.323
				C22.274,15.508,19.2,16.553,19.2,16.553z"/>
		</g>
		<g>
			<g>
				<g>
					<path fill="#FFFFFF" d="M27.517,14.219l-0.82-7.795H15.339c-0.923,0-1.599,0.756-1.501,1.676l0.998,9.502l1.772-1.4
						c0.25-0.196,0.552-0.307,0.875-0.332c0.145-0.466,0.493-0.844,0.982-1.011C19.221,14.602,21.095,14,22.158,14
						c0.648,0,1.198,0.201,1.635,0.596c1.276,1.157,0.757,2.775-0.725,5.547c-0.225,0.419-0.615,0.682-1.059,0.777
						c-0.061,0.39-0.242,0.74-0.546,0.98l-5.701,4.506l0.242,2.301c0.097,0.92,0.931,1.676,1.853,1.676h17.057
						c0.923,0,1.6-0.754,1.501-1.676l-1.523-14.489H27.517L27.517,14.219z"/>
				</g>
				<polygon fill="#FFFFFF" points="28.809,6.139 29.434,12.08 34.384,12.08 				"/>
			</g>
		</g>
	</g>
</g>
</svg>
