<?xml version="1.0" encoding="utf-8"?>
<!-- Generator: Adobe Illustrator 16.0.0, SVG Export Plug-In . SVG Version: 6.00 Build 0)  -->
<!DOCTYPE svg PUBLIC "-//W3C//DTD SVG 1.1//EN" "http://www.w3.org/Graphics/SVG/1.1/DTD/svg11.dtd">
<svg version="1.1" id="Capa_1" xmlns="http://www.w3.org/2000/svg" xmlns:xlink="http://www.w3.org/1999/xlink" x="0px" y="0px"
	 width="247.638px" height="52.236px" viewBox="0 0 247.638 52.236" enable-background="new 0 0 247.638 52.236"
	 xml:space="preserve">
<g>
	<g>
		<polygon fill-rule="evenodd" clip-rule="evenodd" fill="#2D3944" points="233.611,52.236 247.638,34.453 237.212,14.283 
			233.611,14.285 		"/>
		<rect fill-rule="evenodd" clip-rule="evenodd" fill="#76C5ED" width="247.637" height="34.968"/>
		<polygon fill="#002549" points="233.611,42.138 0,34.968 233.611,34.968 		"/>
	</g>
	<g>
		<path fill="#002549" d="M49.474,14.578V3.929h1.999v8.84h4.971v1.81H49.474z"/>
		<path fill="#002549" d="M57.329,5.745V3.841h1.898v1.904H57.329z M57.329,14.578V6.8h1.898v7.778H57.329z"/>
		<path fill="#002549" d="M67.17,14.578h-1.898v-3.97c0-0.84-0.041-1.383-0.122-1.63c-0.081-0.246-0.212-0.438-0.395-0.575
			c-0.182-0.137-0.402-0.205-0.658-0.205c-0.329,0-0.624,0.098-0.885,0.293s-0.44,0.455-0.537,0.777
			c-0.097,0.322-0.145,0.918-0.145,1.787v3.522h-1.897V6.8h1.762v1.143c0.626-0.879,1.414-1.318,2.364-1.318
			c0.419,0,0.801,0.082,1.148,0.245c0.346,0.164,0.609,0.372,0.787,0.626s0.302,0.543,0.372,0.865
			c0.069,0.322,0.104,0.783,0.104,1.384V14.578z"/>
		<path fill="#002549" d="M72.723,12.103l1.891,0.344c-0.243,0.752-0.627,1.325-1.151,1.718c-0.525,0.394-1.181,0.59-1.969,0.59
			c-1.247,0-2.17-0.442-2.769-1.325c-0.473-0.709-0.709-1.602-0.709-2.682c0-1.289,0.311-2.298,0.932-3.028
			c0.621-0.729,1.407-1.095,2.357-1.095c1.067,0,1.909,0.383,2.526,1.146c0.617,0.764,0.912,1.935,0.884,3.512H69.96
			c0.014,0.61,0.167,1.086,0.459,1.425c0.292,0.339,0.657,0.509,1.094,0.509c0.297,0,0.547-0.088,0.75-0.264
			S72.619,12.493,72.723,12.103z M72.831,10.022c-0.014-0.596-0.156-1.049-0.426-1.358s-0.599-0.466-0.986-0.466
			c-0.415,0-0.756,0.164-1.026,0.491c-0.271,0.327-0.403,0.771-0.398,1.333H72.831z"/>
		<path fill="#002549" d="M77.154,9.173l-1.722-0.337c0.193-0.752,0.527-1.309,1-1.67s1.175-0.542,2.107-0.542
			c0.846,0,1.477,0.109,1.891,0.326c0.414,0.217,0.706,0.493,0.875,0.827c0.169,0.335,0.253,0.948,0.253,1.843l-0.021,2.402
			c0,0.684,0.03,1.188,0.091,1.512c0.061,0.325,0.174,0.673,0.341,1.044h-1.877c-0.049-0.137-0.11-0.339-0.182-0.608
			c-0.032-0.121-0.054-0.202-0.068-0.241c-0.324,0.342-0.671,0.599-1.04,0.769c-0.369,0.172-0.763,0.257-1.182,0.257
			c-0.738,0-1.32-0.218-1.746-0.651c-0.426-0.436-0.638-0.984-0.638-1.648c0-0.439,0.097-0.831,0.29-1.176
			c0.194-0.344,0.465-0.607,0.814-0.791c0.349-0.183,0.852-0.343,1.509-0.479c0.887-0.181,1.501-0.349,1.844-0.505V9.298
			c0-0.396-0.09-0.678-0.27-0.847c-0.18-0.168-0.52-0.253-1.02-0.253c-0.337,0-0.601,0.072-0.79,0.217S77.271,8.812,77.154,9.173z
			 M79.693,10.843c-0.243,0.088-0.628,0.193-1.155,0.314c-0.527,0.123-0.871,0.242-1.033,0.359c-0.248,0.19-0.372,0.432-0.372,0.725
			c0,0.289,0.099,0.537,0.297,0.748c0.198,0.209,0.45,0.314,0.756,0.314c0.342,0,0.668-0.122,0.979-0.366
			c0.23-0.186,0.38-0.413,0.453-0.681c0.049-0.176,0.074-0.511,0.074-1.004V10.843z"/>
		<path fill="#002549" d="M82.761,6.8h1.749v1.062c0.625-0.826,1.371-1.238,2.235-1.238c0.459,0,0.858,0.103,1.195,0.308
			c0.338,0.205,0.615,0.515,0.831,0.931c0.315-0.416,0.655-0.726,1.02-0.931s0.754-0.308,1.168-0.308
			c0.526,0,0.972,0.116,1.337,0.348c0.365,0.232,0.637,0.572,0.817,1.021c0.13,0.332,0.196,0.869,0.196,1.611v4.974h-1.898v-4.446
			c0-0.771-0.065-1.27-0.196-1.494c-0.175-0.293-0.446-0.439-0.811-0.439c-0.266,0-0.515,0.088-0.75,0.264
			c-0.234,0.176-0.403,0.434-0.506,0.773s-0.155,0.875-0.155,1.607v3.735h-1.898v-4.263c0-0.757-0.034-1.245-0.101-1.465
			c-0.068-0.22-0.172-0.383-0.314-0.49c-0.142-0.107-0.334-0.162-0.578-0.162c-0.292,0-0.556,0.086-0.79,0.257
			c-0.234,0.171-0.402,0.417-0.503,0.739c-0.101,0.322-0.152,0.857-0.152,1.604v3.779h-1.897V6.8z"/>
		<path fill="#002549" d="M94.675,5.745V3.841h1.898v1.904H94.675z M94.675,14.578V6.8h1.898v7.778H94.675z"/>
		<path fill="#002549" d="M102.146,12.103l1.891,0.344c-0.243,0.752-0.627,1.325-1.151,1.718c-0.525,0.394-1.181,0.59-1.969,0.59
			c-1.247,0-2.17-0.442-2.769-1.325c-0.473-0.709-0.709-1.602-0.709-2.682c0-1.289,0.311-2.298,0.932-3.028
			c0.621-0.729,1.407-1.095,2.357-1.095c1.067,0,1.909,0.383,2.526,1.146c0.617,0.764,0.912,1.935,0.884,3.512h-4.754
			c0.014,0.61,0.167,1.086,0.459,1.425c0.292,0.339,0.657,0.509,1.094,0.509c0.297,0,0.547-0.088,0.75-0.264
			S102.042,12.493,102.146,12.103z M102.254,10.022c-0.014-0.596-0.156-1.049-0.426-1.358s-0.599-0.466-0.986-0.466
			c-0.415,0-0.756,0.164-1.026,0.491c-0.271,0.327-0.403,0.771-0.398,1.333H102.254z"/>
		<path fill="#002549" d="M111.683,14.578h-1.898v-3.97c0-0.84-0.041-1.383-0.122-1.63c-0.081-0.246-0.212-0.438-0.395-0.575
			c-0.182-0.137-0.402-0.205-0.658-0.205c-0.329,0-0.624,0.098-0.885,0.293s-0.44,0.455-0.537,0.777
			c-0.097,0.322-0.145,0.918-0.145,1.787v3.522h-1.897V6.8h1.762v1.143c0.626-0.879,1.414-1.318,2.364-1.318
			c0.419,0,0.801,0.082,1.148,0.245c0.346,0.164,0.609,0.372,0.787,0.626s0.302,0.543,0.372,0.865
			c0.069,0.322,0.104,0.783,0.104,1.384V14.578z"/>
		<path fill="#002549" d="M116.371,6.8V8.44h-1.297v3.135c0,0.635,0.013,1.005,0.037,1.109c0.025,0.105,0.081,0.191,0.169,0.26
			s0.195,0.104,0.321,0.104c0.176,0,0.43-0.066,0.763-0.198l0.162,1.597c-0.441,0.205-0.941,0.308-1.499,0.308
			c-0.342,0-0.651-0.062-0.925-0.187c-0.275-0.125-0.476-0.286-0.604-0.483c-0.128-0.198-0.217-0.466-0.267-0.802
			c-0.041-0.24-0.061-0.723-0.061-1.451V8.44h-0.871V6.8h0.871V5.255l1.904-1.201V6.8H116.371z"/>
		<path fill="#002549" d="M116.723,10.579c0-0.684,0.155-1.346,0.466-1.984c0.311-0.641,0.751-1.129,1.32-1.465
			c0.57-0.338,1.206-0.506,1.908-0.506c1.085,0,1.974,0.383,2.667,1.146s1.04,1.729,1.04,2.896c0,1.177-0.35,2.152-1.05,2.926
			c-0.7,0.774-1.582,1.161-2.644,1.161c-0.657,0-1.284-0.161-1.881-0.483c-0.596-0.322-1.05-0.795-1.361-1.417
			C116.878,12.23,116.723,11.473,116.723,10.579z M118.667,10.688c0,0.771,0.169,1.363,0.507,1.773
			c0.337,0.41,0.754,0.615,1.25,0.615c0.495,0,0.91-0.205,1.246-0.615s0.503-1.006,0.503-1.787c0-0.762-0.168-1.348-0.503-1.758
			s-0.75-0.615-1.246-0.615c-0.496,0-0.912,0.205-1.25,0.615C118.836,9.327,118.667,9.917,118.667,10.688z"/>
		<path fill="#002549" d="M124.417,12.358l1.904-0.314c0.081,0.4,0.246,0.705,0.493,0.912s0.594,0.311,1.04,0.311
			c0.491,0,0.86-0.098,1.107-0.293c0.167-0.137,0.25-0.319,0.25-0.549c0-0.156-0.045-0.285-0.135-0.389
			c-0.094-0.098-0.306-0.188-0.635-0.271c-1.531-0.366-2.501-0.7-2.911-1.003c-0.567-0.42-0.851-1.004-0.851-1.751
			c0-0.674,0.246-1.24,0.736-1.699s1.251-0.688,2.283-0.688c0.981,0,1.711,0.174,2.188,0.52c0.477,0.348,0.806,0.859,0.986,1.539
			l-1.79,0.358c-0.077-0.303-0.222-0.534-0.436-0.696c-0.214-0.16-0.519-0.241-0.915-0.241c-0.5,0-0.858,0.075-1.074,0.228
			c-0.144,0.107-0.216,0.246-0.216,0.417c0,0.146,0.063,0.271,0.189,0.374c0.171,0.137,0.762,0.329,1.773,0.578
			s1.716,0.555,2.117,0.916c0.396,0.365,0.594,0.876,0.594,1.53c0,0.713-0.274,1.325-0.824,1.839
			c-0.549,0.512-1.362,0.769-2.438,0.769c-0.977,0-1.75-0.215-2.32-0.645C124.964,13.68,124.592,13.097,124.417,12.358z"/>
		<path fill="#002549" d="M135.515,6.8h1.769v1.143c0.23-0.391,0.541-0.708,0.933-0.952s0.826-0.366,1.304-0.366
			c0.832,0,1.539,0.354,2.12,1.062c0.581,0.707,0.871,1.693,0.871,2.959c0,1.299-0.292,2.309-0.878,3.028
			c-0.585,0.72-1.295,1.08-2.127,1.08c-0.396,0-0.756-0.085-1.077-0.257c-0.322-0.17-0.661-0.463-1.017-0.879v3.919h-1.897V6.8z
			 M137.393,10.558c0,0.873,0.159,1.52,0.479,1.937c0.32,0.418,0.709,0.626,1.168,0.626c0.441,0,0.809-0.191,1.102-0.574
			s0.439-1.012,0.439-1.887c0-0.814-0.151-1.42-0.453-1.816c-0.302-0.395-0.676-0.593-1.121-0.593c-0.464,0-0.849,0.194-1.154,0.582
			C137.545,9.221,137.393,9.796,137.393,10.558z"/>
		<path fill="#002549" d="M144.91,9.173l-1.723-0.337c0.193-0.752,0.527-1.309,1-1.67s1.175-0.542,2.107-0.542
			c0.846,0,1.477,0.109,1.891,0.326s0.705,0.493,0.875,0.827c0.168,0.335,0.253,0.948,0.253,1.843l-0.021,2.402
			c0,0.684,0.03,1.188,0.092,1.512c0.061,0.325,0.174,0.673,0.34,1.044h-1.877c-0.049-0.137-0.11-0.339-0.182-0.608
			c-0.032-0.121-0.055-0.202-0.068-0.241c-0.324,0.342-0.671,0.599-1.04,0.769c-0.369,0.172-0.763,0.257-1.182,0.257
			c-0.738,0-1.32-0.218-1.745-0.651c-0.426-0.436-0.639-0.984-0.639-1.648c0-0.439,0.097-0.831,0.29-1.176
			c0.194-0.344,0.465-0.607,0.813-0.791c0.35-0.183,0.853-0.343,1.51-0.479c0.887-0.181,1.502-0.349,1.844-0.505V9.298
			c0-0.396-0.09-0.678-0.27-0.847c-0.181-0.168-0.521-0.253-1.021-0.253c-0.337,0-0.601,0.072-0.79,0.217
			S145.027,8.812,144.91,9.173z M147.449,10.843c-0.243,0.088-0.628,0.193-1.154,0.314c-0.527,0.123-0.871,0.242-1.033,0.359
			c-0.248,0.19-0.372,0.432-0.372,0.725c0,0.289,0.099,0.537,0.298,0.748c0.197,0.209,0.449,0.314,0.756,0.314
			c0.342,0,0.668-0.122,0.979-0.366c0.23-0.186,0.381-0.413,0.453-0.681c0.049-0.176,0.074-0.511,0.074-1.004V10.843z"/>
		<path fill="#002549" d="M152.475,14.578h-1.897V6.8h1.763v1.105c0.302-0.521,0.572-0.866,0.814-1.032
			c0.24-0.166,0.514-0.249,0.82-0.249c0.432,0,0.848,0.129,1.249,0.389l-0.587,1.794c-0.32-0.225-0.617-0.337-0.893-0.337
			c-0.266,0-0.49,0.08-0.675,0.238s-0.33,0.445-0.436,0.86c-0.106,0.415-0.159,1.284-0.159,2.607V14.578z"/>
		<path fill="#002549" d="M156.934,9.173l-1.723-0.337c0.193-0.752,0.527-1.309,1-1.67s1.175-0.542,2.107-0.542
			c0.846,0,1.477,0.109,1.891,0.326s0.705,0.493,0.875,0.827c0.168,0.335,0.253,0.948,0.253,1.843l-0.021,2.402
			c0,0.684,0.03,1.188,0.092,1.512c0.061,0.325,0.174,0.673,0.34,1.044h-1.877c-0.049-0.137-0.11-0.339-0.182-0.608
			c-0.032-0.121-0.055-0.202-0.068-0.241c-0.324,0.342-0.671,0.599-1.04,0.769c-0.369,0.172-0.763,0.257-1.182,0.257
			c-0.738,0-1.32-0.218-1.745-0.651c-0.426-0.436-0.639-0.984-0.639-1.648c0-0.439,0.097-0.831,0.29-1.176
			c0.194-0.344,0.465-0.607,0.813-0.791c0.35-0.183,0.853-0.343,1.51-0.479c0.887-0.181,1.502-0.349,1.844-0.505V9.298
			c0-0.396-0.09-0.678-0.27-0.847c-0.181-0.168-0.521-0.253-1.021-0.253c-0.337,0-0.601,0.072-0.79,0.217
			S157.051,8.812,156.934,9.173z M159.473,10.843c-0.243,0.088-0.628,0.193-1.154,0.314c-0.527,0.123-0.871,0.242-1.033,0.359
			c-0.248,0.19-0.372,0.432-0.372,0.725c0,0.289,0.099,0.537,0.298,0.748c0.197,0.209,0.449,0.314,0.756,0.314
			c0.342,0,0.668-0.122,0.979-0.366c0.23-0.186,0.381-0.413,0.453-0.681c0.049-0.176,0.074-0.511,0.074-1.004V10.843z"/>
		<path fill="#002549" d="M170.152,12.103l1.891,0.344c-0.243,0.752-0.627,1.325-1.151,1.718c-0.524,0.394-1.181,0.59-1.969,0.59
			c-1.247,0-2.171-0.442-2.769-1.325c-0.473-0.709-0.709-1.602-0.709-2.682c0-1.289,0.311-2.298,0.932-3.028
			c0.621-0.729,1.406-1.095,2.357-1.095c1.066,0,1.908,0.383,2.525,1.146s0.912,1.935,0.885,3.512h-4.755
			c0.014,0.61,0.167,1.086,0.46,1.425c0.292,0.339,0.656,0.509,1.094,0.509c0.297,0,0.547-0.088,0.75-0.264
			C169.896,12.776,170.049,12.493,170.152,12.103z M170.26,10.022c-0.014-0.596-0.155-1.049-0.426-1.358
			c-0.27-0.31-0.598-0.466-0.985-0.466c-0.415,0-0.757,0.164-1.026,0.491c-0.271,0.327-0.403,0.771-0.398,1.333H170.26z"/>
		<path fill="#002549" d="M173.166,14.578V3.841h1.897v10.737H173.166z"/>
		<path fill="#002549" d="M186.377,14.578h-1.762v-1.143c-0.293,0.444-0.639,0.775-1.037,0.992
			c-0.398,0.218-0.801,0.326-1.205,0.326c-0.824,0-1.53-0.36-2.117-1.08c-0.588-0.72-0.882-1.726-0.882-3.015
			c0-1.318,0.286-2.32,0.857-3.006s1.294-1.029,2.168-1.029c0.802,0,1.495,0.361,2.08,1.084V3.841h1.897V14.578z M181.312,10.521
			c0,0.83,0.105,1.431,0.316,1.802c0.307,0.537,0.734,0.806,1.283,0.806c0.438,0,0.809-0.201,1.115-0.604
			c0.306-0.402,0.459-1.005,0.459-1.806c0-0.893-0.148-1.536-0.445-1.93c-0.298-0.393-0.678-0.59-1.142-0.59
			c-0.45,0-0.827,0.194-1.132,0.583C181.465,9.169,181.312,9.749,181.312,10.521z"/>
		<path fill="#002549" d="M191.876,12.103l1.892,0.344c-0.244,0.752-0.627,1.325-1.152,1.718c-0.524,0.394-1.181,0.59-1.969,0.59
			c-1.246,0-2.17-0.442-2.769-1.325c-0.473-0.709-0.709-1.602-0.709-2.682c0-1.289,0.311-2.298,0.933-3.028
			c0.621-0.729,1.406-1.095,2.356-1.095c1.067,0,1.909,0.383,2.526,1.146c0.616,0.764,0.911,1.935,0.884,3.512h-4.755
			c0.014,0.61,0.167,1.086,0.46,1.425c0.292,0.339,0.657,0.509,1.095,0.509c0.297,0,0.547-0.088,0.749-0.264
			S191.772,12.493,191.876,12.103z M191.984,10.022c-0.014-0.596-0.156-1.049-0.426-1.358s-0.599-0.466-0.986-0.466
			c-0.414,0-0.756,0.164-1.025,0.491c-0.271,0.327-0.404,0.771-0.398,1.333H191.984z"/>
		<path fill="#002549" d="M194.221,12.358l1.904-0.314c0.081,0.4,0.246,0.705,0.493,0.912s0.595,0.311,1.04,0.311
			c0.49,0,0.859-0.098,1.107-0.293c0.166-0.137,0.25-0.319,0.25-0.549c0-0.156-0.045-0.285-0.135-0.389
			c-0.095-0.098-0.307-0.188-0.635-0.271c-1.531-0.366-2.502-0.7-2.911-1.003c-0.567-0.42-0.851-1.004-0.851-1.751
			c0-0.674,0.245-1.24,0.736-1.699c0.49-0.459,1.251-0.688,2.282-0.688c0.981,0,1.711,0.174,2.188,0.52
			c0.477,0.348,0.805,0.859,0.985,1.539l-1.79,0.358c-0.076-0.303-0.221-0.534-0.436-0.696c-0.213-0.16-0.519-0.241-0.914-0.241
			c-0.5,0-0.858,0.075-1.074,0.228c-0.145,0.107-0.217,0.246-0.217,0.417c0,0.146,0.063,0.271,0.189,0.374
			c0.172,0.137,0.762,0.329,1.773,0.578c1.01,0.249,1.716,0.555,2.117,0.916c0.396,0.365,0.594,0.876,0.594,1.53
			c0,0.713-0.274,1.325-0.824,1.839c-0.549,0.512-1.361,0.769-2.438,0.769c-0.977,0-1.75-0.215-2.32-0.645
			C194.769,13.68,194.396,13.097,194.221,12.358z"/>
		<path fill="#002549" d="M203.475,9.173l-1.723-0.337c0.193-0.752,0.527-1.309,1-1.67s1.174-0.542,2.106-0.542
			c0.847,0,1.477,0.109,1.892,0.326c0.414,0.217,0.705,0.493,0.874,0.827c0.169,0.335,0.253,0.948,0.253,1.843l-0.02,2.402
			c0,0.684,0.029,1.188,0.091,1.512c0.061,0.325,0.175,0.673,0.341,1.044h-1.877c-0.05-0.137-0.111-0.339-0.183-0.608
			c-0.032-0.121-0.054-0.202-0.067-0.241c-0.324,0.342-0.672,0.599-1.041,0.769c-0.369,0.172-0.762,0.257-1.182,0.257
			c-0.738,0-1.32-0.218-1.745-0.651c-0.426-0.436-0.638-0.984-0.638-1.648c0-0.439,0.096-0.831,0.289-1.176
			c0.194-0.344,0.465-0.607,0.814-0.791c0.35-0.183,0.852-0.343,1.51-0.479c0.887-0.181,1.501-0.349,1.844-0.505V9.298
			c0-0.396-0.09-0.678-0.271-0.847c-0.181-0.168-0.521-0.253-1.021-0.253c-0.337,0-0.601,0.072-0.789,0.217
			C203.744,8.56,203.591,8.812,203.475,9.173z M206.014,10.843c-0.244,0.088-0.629,0.193-1.155,0.314
			c-0.526,0.123-0.871,0.242-1.033,0.359c-0.247,0.19-0.372,0.432-0.372,0.725c0,0.289,0.1,0.537,0.298,0.748
			c0.198,0.209,0.45,0.314,0.757,0.314c0.342,0,0.668-0.122,0.979-0.366c0.23-0.186,0.381-0.413,0.453-0.681
			c0.049-0.176,0.074-0.511,0.074-1.004V10.843z"/>
		<path fill="#002549" d="M211.039,14.578h-1.898V6.8h1.764v1.105c0.301-0.521,0.572-0.866,0.813-1.032s0.515-0.249,0.82-0.249
			c0.433,0,0.849,0.129,1.249,0.389L213.2,8.807c-0.319-0.225-0.617-0.337-0.892-0.337c-0.266,0-0.49,0.08-0.676,0.238
			c-0.184,0.158-0.33,0.445-0.436,0.86s-0.158,1.284-0.158,2.607V14.578z"/>
		<path fill="#002549" d="M215.896,14.578h-1.898V6.8h1.763v1.105c0.302-0.521,0.573-0.866,0.813-1.032
			c0.241-0.166,0.515-0.249,0.82-0.249c0.433,0,0.85,0.129,1.25,0.389l-0.588,1.794c-0.319-0.225-0.617-0.337-0.891-0.337
			c-0.266,0-0.491,0.08-0.676,0.238s-0.33,0.445-0.436,0.86s-0.158,1.284-0.158,2.607V14.578z"/>
		<path fill="#002549" d="M218.497,10.579c0-0.684,0.155-1.346,0.466-1.984c0.311-0.641,0.751-1.129,1.32-1.465
			c0.57-0.338,1.205-0.506,1.908-0.506c1.085,0,1.975,0.383,2.668,1.146s1.039,1.729,1.039,2.896c0,1.177-0.35,2.152-1.05,2.926
			c-0.7,0.774-1.581,1.161-2.644,1.161c-0.658,0-1.285-0.161-1.881-0.483c-0.597-0.322-1.051-0.795-1.361-1.417
			C218.652,12.23,218.497,11.473,218.497,10.579z M220.441,10.688c0,0.771,0.17,1.363,0.508,1.773
			c0.337,0.41,0.754,0.615,1.249,0.615s0.91-0.205,1.245-0.615c0.336-0.41,0.504-1.006,0.504-1.787c0-0.762-0.168-1.348-0.504-1.758
			c-0.335-0.41-0.75-0.615-1.245-0.615s-0.912,0.205-1.249,0.615C220.611,9.327,220.441,9.917,220.441,10.688z"/>
		<path fill="#002549" d="M226.859,14.578V3.841h1.897v10.737H226.859z"/>
		<path fill="#002549" d="M230.176,14.578V3.841h1.898v10.737H230.176z"/>
		<path fill="#002549" d="M233.055,10.579c0-0.684,0.154-1.346,0.465-1.984c0.312-0.641,0.752-1.129,1.32-1.465
			c0.57-0.338,1.206-0.506,1.908-0.506c1.086,0,1.975,0.383,2.668,1.146s1.04,1.729,1.04,2.896c0,1.177-0.351,2.152-1.05,2.926
			c-0.701,0.774-1.582,1.161-2.645,1.161c-0.657,0-1.284-0.161-1.881-0.483c-0.596-0.322-1.05-0.795-1.361-1.417
			C233.209,12.23,233.055,11.473,233.055,10.579z M234.999,10.688c0,0.771,0.169,1.363,0.507,1.773s0.754,0.615,1.25,0.615
			c0.494,0,0.91-0.205,1.245-0.615s0.503-1.006,0.503-1.787c0-0.762-0.168-1.348-0.503-1.758s-0.751-0.615-1.245-0.615
			c-0.496,0-0.912,0.205-1.25,0.615S234.999,9.917,234.999,10.688z"/>
		<path fill="#002549" d="M55.984,30.578h-1.763v-1.143c-0.293,0.444-0.638,0.775-1.037,0.992c-0.398,0.218-0.8,0.326-1.206,0.326
			c-0.824,0-1.53-0.36-2.117-1.08c-0.588-0.72-0.881-1.726-0.881-3.015c0-1.318,0.286-2.32,0.857-3.006s1.294-1.029,2.168-1.029
			c0.801,0,1.495,0.361,2.08,1.084v-3.867h1.898V30.578z M50.919,26.521c0,0.83,0.106,1.431,0.317,1.802
			c0.306,0.537,0.734,0.806,1.283,0.806c0.437,0,0.808-0.201,1.114-0.604c0.306-0.402,0.459-1.005,0.459-1.806
			c0-0.893-0.148-1.536-0.446-1.93c-0.297-0.393-0.678-0.59-1.141-0.59c-0.451,0-0.828,0.194-1.131,0.583
			C51.071,25.169,50.919,25.749,50.919,26.521z"/>
		<path fill="#002549" d="M61.482,28.103l1.891,0.344c-0.243,0.752-0.627,1.325-1.151,1.718c-0.525,0.394-1.181,0.59-1.969,0.59
			c-1.247,0-2.17-0.442-2.769-1.325c-0.473-0.709-0.709-1.602-0.709-2.682c0-1.289,0.311-2.298,0.932-3.028
			c0.621-0.729,1.407-1.095,2.357-1.095c1.067,0,1.909,0.383,2.526,1.146c0.617,0.764,0.912,1.935,0.884,3.512H58.72
			c0.014,0.61,0.167,1.086,0.459,1.425c0.292,0.339,0.657,0.509,1.094,0.509c0.297,0,0.547-0.088,0.75-0.264
			S61.379,28.493,61.482,28.103z M61.591,26.022c-0.014-0.596-0.156-1.049-0.426-1.358s-0.599-0.466-0.986-0.466
			c-0.415,0-0.756,0.164-1.026,0.491c-0.271,0.327-0.403,0.771-0.398,1.333H61.591z"/>
		<path fill="#002549" d="M64.496,30.578V19.841h1.898v10.737H64.496z"/>
		<path fill="#002549" d="M71.076,22.8h1.769v1.143c0.23-0.391,0.541-0.708,0.932-0.952s0.826-0.366,1.303-0.366
			c0.833,0,1.54,0.354,2.121,1.062c0.581,0.707,0.871,1.693,0.871,2.959c0,1.299-0.292,2.309-0.878,3.028
			c-0.585,0.72-1.294,1.08-2.127,1.08c-0.396,0-0.755-0.085-1.077-0.257c-0.322-0.17-0.661-0.463-1.017-0.879v3.919h-1.897V22.8z
			 M72.954,26.558c0,0.873,0.16,1.52,0.479,1.937c0.319,0.418,0.709,0.626,1.168,0.626c0.441,0,0.808-0.191,1.101-0.574
			c0.292-0.383,0.439-1.012,0.439-1.887c0-0.814-0.151-1.42-0.453-1.816c-0.302-0.395-0.675-0.593-1.121-0.593
			c-0.464,0-0.849,0.194-1.155,0.582C73.106,25.221,72.954,25.796,72.954,26.558z"/>
		<path fill="#002549" d="M80.87,30.578h-1.898V22.8h1.763v1.105c0.302-0.521,0.573-0.866,0.814-1.032
			c0.241-0.166,0.514-0.249,0.82-0.249c0.432,0,0.849,0.129,1.25,0.389l-0.587,1.794c-0.32-0.225-0.617-0.337-0.892-0.337
			c-0.266,0-0.491,0.08-0.675,0.238s-0.33,0.445-0.436,0.86c-0.106,0.415-0.159,1.284-0.159,2.607V30.578z"/>
		<path fill="#002549" d="M83.471,26.579c0-0.684,0.155-1.346,0.466-1.984c0.311-0.641,0.751-1.129,1.32-1.465
			c0.57-0.338,1.206-0.506,1.908-0.506c1.085,0,1.974,0.383,2.667,1.146s1.04,1.729,1.04,2.896c0,1.177-0.35,2.152-1.05,2.926
			c-0.7,0.774-1.582,1.161-2.644,1.161c-0.657,0-1.284-0.161-1.881-0.483c-0.596-0.322-1.05-0.795-1.361-1.417
			C83.626,28.23,83.471,27.473,83.471,26.579z M85.416,26.688c0,0.771,0.169,1.363,0.507,1.773c0.337,0.41,0.754,0.615,1.25,0.615
			c0.495,0,0.91-0.205,1.246-0.615s0.503-1.006,0.503-1.787c0-0.762-0.168-1.348-0.503-1.758s-0.75-0.615-1.246-0.615
			c-0.496,0-0.912,0.205-1.25,0.615C85.585,25.327,85.416,25.917,85.416,26.688z"/>
		<path fill="#002549" d="M91.658,31.091l2.167,0.285c0.036,0.273,0.12,0.462,0.25,0.564c0.18,0.146,0.464,0.22,0.851,0.22
			c0.495,0,0.867-0.081,1.114-0.241c0.167-0.107,0.292-0.281,0.378-0.521c0.059-0.171,0.088-0.485,0.088-0.944v-1.136
			c-0.567,0.84-1.283,1.26-2.147,1.26c-0.963,0-1.727-0.442-2.29-1.325c-0.441-0.699-0.662-1.568-0.662-2.607
			c0-1.305,0.289-2.301,0.868-2.988c0.579-0.689,1.298-1.033,2.158-1.033c0.887,0,1.619,0.422,2.195,1.268V22.8h1.776v6.98
			c0,0.918-0.07,1.604-0.209,2.058s-0.335,0.811-0.587,1.069c-0.252,0.259-0.589,0.461-1.01,0.607S95.644,33.735,95,33.735
			c-1.216,0-2.078-0.227-2.586-0.678c-0.509-0.452-0.763-1.024-0.763-1.718C91.651,31.271,91.653,31.188,91.658,31.091z
			 M93.353,26.528c0,0.824,0.147,1.43,0.442,1.812s0.659,0.574,1.091,0.574c0.463,0,0.855-0.195,1.175-0.589
			c0.32-0.394,0.479-0.976,0.479-1.747c0-0.806-0.153-1.404-0.459-1.795s-0.693-0.586-1.162-0.586c-0.455,0-0.83,0.192-1.125,0.575
			C93.5,25.157,93.353,25.741,93.353,26.528z"/>
		<path fill="#002549" d="M101.573,30.578h-1.898V22.8h1.763v1.105c0.302-0.521,0.573-0.866,0.814-1.032
			c0.241-0.166,0.514-0.249,0.82-0.249c0.432,0,0.849,0.129,1.25,0.389l-0.587,1.794c-0.32-0.225-0.617-0.337-0.892-0.337
			c-0.266,0-0.491,0.08-0.675,0.238s-0.33,0.445-0.436,0.86c-0.106,0.415-0.159,1.284-0.159,2.607V30.578z"/>
		<path fill="#002549" d="M106.031,25.173l-1.722-0.337c0.193-0.752,0.527-1.309,1-1.67s1.175-0.542,2.107-0.542
			c0.846,0,1.477,0.109,1.891,0.326c0.414,0.217,0.706,0.493,0.875,0.827c0.169,0.335,0.253,0.948,0.253,1.843l-0.021,2.402
			c0,0.684,0.03,1.188,0.091,1.512c0.061,0.325,0.174,0.673,0.341,1.044h-1.877c-0.049-0.137-0.11-0.339-0.182-0.608
			c-0.032-0.121-0.054-0.202-0.068-0.241c-0.324,0.342-0.671,0.599-1.04,0.769c-0.369,0.172-0.763,0.257-1.182,0.257
			c-0.738,0-1.32-0.218-1.746-0.651c-0.426-0.436-0.638-0.984-0.638-1.648c0-0.439,0.097-0.831,0.29-1.176
			c0.194-0.344,0.465-0.607,0.814-0.791c0.349-0.183,0.852-0.343,1.509-0.479c0.887-0.181,1.501-0.349,1.844-0.505v-0.205
			c0-0.396-0.09-0.678-0.27-0.847c-0.18-0.168-0.52-0.253-1.02-0.253c-0.337,0-0.601,0.072-0.79,0.217
			S106.148,24.812,106.031,25.173z M108.57,26.843c-0.243,0.088-0.628,0.193-1.155,0.314c-0.527,0.123-0.871,0.242-1.033,0.359
			c-0.248,0.19-0.372,0.432-0.372,0.725c0,0.289,0.099,0.537,0.297,0.748c0.198,0.209,0.45,0.314,0.756,0.314
			c0.342,0,0.668-0.122,0.979-0.366c0.23-0.186,0.38-0.413,0.453-0.681c0.049-0.176,0.074-0.511,0.074-1.004V26.843z"/>
		<path fill="#002549" d="M111.638,22.8h1.749v1.062c0.625-0.826,1.371-1.238,2.235-1.238c0.459,0,0.858,0.103,1.195,0.308
			c0.338,0.205,0.615,0.515,0.831,0.931c0.315-0.416,0.655-0.726,1.02-0.931s0.754-0.308,1.168-0.308
			c0.526,0,0.972,0.116,1.337,0.348c0.365,0.232,0.637,0.572,0.817,1.021c0.13,0.332,0.196,0.869,0.196,1.611v4.974h-1.898v-4.446
			c0-0.771-0.065-1.27-0.196-1.494c-0.175-0.293-0.446-0.439-0.811-0.439c-0.266,0-0.515,0.088-0.75,0.264
			c-0.234,0.176-0.403,0.434-0.506,0.773s-0.155,0.875-0.155,1.607v3.735h-1.898v-4.263c0-0.757-0.034-1.245-0.101-1.465
			c-0.068-0.22-0.172-0.383-0.314-0.49c-0.142-0.107-0.334-0.162-0.578-0.162c-0.292,0-0.556,0.086-0.79,0.257
			c-0.234,0.171-0.402,0.417-0.503,0.739c-0.101,0.322-0.152,0.857-0.152,1.604v3.779h-1.897V22.8z"/>
		<path fill="#002549" d="M124.97,25.173l-1.722-0.337c0.193-0.752,0.527-1.309,1-1.67s1.175-0.542,2.107-0.542
			c0.846,0,1.477,0.109,1.891,0.326c0.414,0.217,0.706,0.493,0.875,0.827c0.169,0.335,0.253,0.948,0.253,1.843l-0.021,2.402
			c0,0.684,0.03,1.188,0.091,1.512c0.061,0.325,0.174,0.673,0.341,1.044h-1.877c-0.049-0.137-0.11-0.339-0.182-0.608
			c-0.032-0.121-0.054-0.202-0.068-0.241c-0.324,0.342-0.671,0.599-1.04,0.769c-0.369,0.172-0.763,0.257-1.182,0.257
			c-0.738,0-1.32-0.218-1.746-0.651c-0.426-0.436-0.638-0.984-0.638-1.648c0-0.439,0.097-0.831,0.29-1.176
			c0.194-0.344,0.465-0.607,0.814-0.791c0.349-0.183,0.852-0.343,1.509-0.479c0.887-0.181,1.501-0.349,1.844-0.505v-0.205
			c0-0.396-0.09-0.678-0.27-0.847c-0.18-0.168-0.52-0.253-1.02-0.253c-0.337,0-0.601,0.072-0.79,0.217S125.087,24.812,124.97,25.173
			z M127.509,26.843c-0.243,0.088-0.628,0.193-1.155,0.314c-0.527,0.123-0.871,0.242-1.033,0.359
			c-0.248,0.19-0.372,0.432-0.372,0.725c0,0.289,0.099,0.537,0.297,0.748c0.198,0.209,0.45,0.314,0.756,0.314
			c0.342,0,0.668-0.122,0.979-0.366c0.23-0.186,0.38-0.413,0.453-0.681c0.049-0.176,0.074-0.511,0.074-1.004V26.843z"/>
		<path fill="#002549" d="M140.613,30.578h-1.762v-1.143c-0.293,0.444-0.639,0.775-1.037,0.992
			c-0.398,0.218-0.801,0.326-1.205,0.326c-0.824,0-1.53-0.36-2.117-1.08c-0.588-0.72-0.882-1.726-0.882-3.015
			c0-1.318,0.286-2.32,0.857-3.006c0.571-0.686,1.294-1.029,2.168-1.029c0.802,0,1.495,0.361,2.08,1.084v-3.867h1.897V30.578z
			 M135.549,26.521c0,0.83,0.105,1.431,0.316,1.802c0.307,0.537,0.734,0.806,1.283,0.806c0.438,0,0.809-0.201,1.115-0.604
			c0.306-0.402,0.459-1.005,0.459-1.806c0-0.893-0.148-1.536-0.445-1.93c-0.298-0.393-0.678-0.59-1.142-0.59
			c-0.45,0-0.827,0.194-1.132,0.583C135.701,25.169,135.549,25.749,135.549,26.521z"/>
		<path fill="#002549" d="M146.111,28.103l1.892,0.344c-0.243,0.752-0.627,1.325-1.151,1.718c-0.525,0.394-1.182,0.59-1.969,0.59
			c-1.247,0-2.17-0.442-2.77-1.325c-0.473-0.709-0.709-1.602-0.709-2.682c0-1.289,0.311-2.298,0.933-3.028
			c0.621-0.729,1.407-1.095,2.356-1.095c1.067,0,1.909,0.383,2.526,1.146c0.616,0.764,0.911,1.935,0.884,3.512h-4.754
			c0.014,0.61,0.166,1.086,0.459,1.425s0.658,0.509,1.095,0.509c0.297,0,0.547-0.088,0.749-0.264
			C145.855,28.776,146.008,28.493,146.111,28.103z M146.221,26.022c-0.014-0.596-0.156-1.049-0.426-1.358
			c-0.271-0.31-0.6-0.466-0.986-0.466c-0.414,0-0.756,0.164-1.026,0.491s-0.403,0.771-0.398,1.333H146.221z"/>
		<path fill="#002549" d="M151.611,22.8h1.055v-0.586c0-0.654,0.063-1.143,0.191-1.465c0.129-0.322,0.365-0.584,0.709-0.787
			c0.345-0.203,0.781-0.305,1.307-0.305c0.541,0,1.07,0.088,1.588,0.264l-0.257,1.436c-0.302-0.078-0.593-0.117-0.871-0.117
			c-0.274,0-0.472,0.07-0.591,0.209c-0.119,0.14-0.18,0.406-0.18,0.803V22.8h1.419v1.619h-1.419v6.159h-1.896v-6.159h-1.055V22.8z"
			/>
		<path fill="#002549" d="M156.084,26.579c0-0.684,0.154-1.346,0.465-1.984c0.312-0.641,0.752-1.129,1.32-1.465
			c0.57-0.338,1.206-0.506,1.908-0.506c1.086,0,1.975,0.383,2.668,1.146s1.04,1.729,1.04,2.896c0,1.177-0.351,2.152-1.05,2.926
			c-0.701,0.774-1.582,1.161-2.645,1.161c-0.657,0-1.284-0.161-1.881-0.483c-0.596-0.322-1.05-0.795-1.361-1.417
			C156.238,28.23,156.084,27.473,156.084,26.579z M158.028,26.688c0,0.771,0.169,1.363,0.507,1.773s0.754,0.615,1.25,0.615
			c0.494,0,0.91-0.205,1.245-0.615s0.503-1.006,0.503-1.787c0-0.762-0.168-1.348-0.503-1.758s-0.751-0.615-1.245-0.615
			c-0.496,0-0.912,0.205-1.25,0.615S158.028,25.917,158.028,26.688z"/>
		<path fill="#002549" d="M166.262,30.578h-1.897V22.8h1.763v1.105c0.302-0.521,0.572-0.866,0.814-1.032
			c0.24-0.166,0.514-0.249,0.82-0.249c0.432,0,0.848,0.129,1.249,0.389l-0.587,1.794c-0.32-0.225-0.617-0.337-0.893-0.337
			c-0.266,0-0.49,0.08-0.675,0.238s-0.33,0.445-0.436,0.86c-0.106,0.415-0.159,1.284-0.159,2.607V30.578z"/>
		<path fill="#002549" d="M169.16,22.8h1.75v1.062c0.625-0.826,1.371-1.238,2.234-1.238c0.46,0,0.858,0.103,1.195,0.308
			c0.338,0.205,0.615,0.515,0.831,0.931c0.315-0.416,0.655-0.726,1.021-0.931c0.364-0.205,0.754-0.308,1.168-0.308
			c0.526,0,0.973,0.116,1.337,0.348c0.364,0.232,0.638,0.572,0.817,1.021c0.131,0.332,0.195,0.869,0.195,1.611v4.974h-1.897v-4.446
			c0-0.771-0.065-1.27-0.196-1.494c-0.175-0.293-0.445-0.439-0.811-0.439c-0.266,0-0.515,0.088-0.749,0.264
			c-0.233,0.176-0.403,0.434-0.507,0.773s-0.154,0.875-0.154,1.607v3.735h-1.898v-4.263c0-0.757-0.033-1.245-0.102-1.465
			c-0.067-0.22-0.172-0.383-0.313-0.49s-0.335-0.162-0.577-0.162c-0.293,0-0.557,0.086-0.791,0.257s-0.401,0.417-0.503,0.739
			c-0.101,0.322-0.151,0.857-0.151,1.604v3.779h-1.898V22.8z"/>
		<path fill="#002549" d="M182.493,25.173l-1.722-0.337c0.193-0.752,0.526-1.309,0.999-1.67s1.175-0.542,2.106-0.542
			c0.847,0,1.477,0.109,1.892,0.326c0.414,0.217,0.706,0.493,0.874,0.827c0.17,0.335,0.254,0.948,0.254,1.843l-0.021,2.402
			c0,0.684,0.03,1.188,0.091,1.512c0.061,0.325,0.175,0.673,0.342,1.044h-1.878c-0.05-0.137-0.11-0.339-0.183-0.608
			c-0.031-0.121-0.054-0.202-0.067-0.241c-0.323,0.342-0.671,0.599-1.04,0.769c-0.369,0.172-0.763,0.257-1.182,0.257
			c-0.738,0-1.32-0.218-1.746-0.651c-0.426-0.436-0.638-0.984-0.638-1.648c0-0.439,0.097-0.831,0.29-1.176
			c0.193-0.344,0.465-0.607,0.814-0.791c0.349-0.183,0.852-0.343,1.509-0.479c0.888-0.181,1.501-0.349,1.844-0.505v-0.205
			c0-0.396-0.09-0.678-0.271-0.847c-0.18-0.168-0.52-0.253-1.02-0.253c-0.338,0-0.602,0.072-0.79,0.217
			S182.609,24.812,182.493,25.173z M185.032,26.843c-0.243,0.088-0.628,0.193-1.155,0.314c-0.526,0.123-0.871,0.242-1.033,0.359
			c-0.247,0.19-0.371,0.432-0.371,0.725c0,0.289,0.1,0.537,0.297,0.748c0.198,0.209,0.451,0.314,0.757,0.314
			c0.342,0,0.669-0.122,0.979-0.366c0.229-0.186,0.38-0.413,0.452-0.681c0.05-0.176,0.074-0.511,0.074-1.004V26.843z"/>
		<path fill="#002549" d="M194.495,25.1l-1.87,0.366c-0.064-0.405-0.207-0.711-0.43-0.916s-0.512-0.307-0.867-0.307
			c-0.473,0-0.851,0.177-1.132,0.53c-0.281,0.354-0.422,0.946-0.422,1.776c0,0.923,0.143,1.574,0.429,1.955s0.67,0.572,1.151,0.572
			c0.36,0,0.655-0.111,0.885-0.334c0.229-0.222,0.392-0.604,0.486-1.146l1.864,0.345c-0.193,0.928-0.565,1.628-1.115,2.103
			c-0.549,0.473-1.285,0.71-2.208,0.71c-1.049,0-1.886-0.358-2.509-1.077c-0.623-0.717-0.936-1.711-0.936-2.98
			c0-1.284,0.312-2.283,0.939-2.999c0.625-0.716,1.472-1.073,2.539-1.073c0.873,0,1.568,0.204,2.084,0.611
			C193.899,23.644,194.27,24.265,194.495,25.1z"/>
		<path fill="#002549" d="M195.408,21.745v-1.904h1.897v1.904H195.408z M195.408,30.578V22.8h1.897v7.778H195.408z"/>
		<path fill="#002549" d="M198.286,26.579c0-0.684,0.155-1.346,0.466-1.984c0.311-0.641,0.751-1.129,1.32-1.465
			c0.57-0.338,1.205-0.506,1.908-0.506c1.085,0,1.975,0.383,2.668,1.146s1.039,1.729,1.039,2.896c0,1.177-0.35,2.152-1.05,2.926
			c-0.7,0.774-1.581,1.161-2.644,1.161c-0.658,0-1.285-0.161-1.881-0.483c-0.597-0.322-1.051-0.795-1.361-1.417
			C198.441,28.23,198.286,27.473,198.286,26.579z M200.23,26.688c0,0.771,0.17,1.363,0.508,1.773
			c0.337,0.41,0.754,0.615,1.249,0.615s0.91-0.205,1.245-0.615c0.336-0.41,0.504-1.006,0.504-1.787c0-0.762-0.168-1.348-0.504-1.758
			c-0.335-0.41-0.75-0.615-1.245-0.615s-0.912,0.205-1.249,0.615C200.4,25.327,200.23,25.917,200.23,26.688z M201.028,21.848
			l0.932-2.19h2.128l-1.857,2.19H201.028z"/>
		<path fill="#002549" d="M213.172,30.578h-1.898v-3.97c0-0.84-0.04-1.383-0.121-1.63c-0.08-0.246-0.213-0.438-0.395-0.575
			c-0.183-0.137-0.402-0.205-0.658-0.205c-0.329,0-0.624,0.098-0.885,0.293c-0.262,0.195-0.44,0.455-0.537,0.777
			c-0.098,0.322-0.146,0.918-0.146,1.787v3.522h-1.897V22.8h1.762v1.143c0.627-0.879,1.414-1.318,2.364-1.318
			c0.419,0,0.802,0.082,1.148,0.245c0.347,0.164,0.608,0.372,0.786,0.626s0.303,0.543,0.372,0.865s0.104,0.783,0.104,1.384V30.578z"
			/>
	</g>
	<g id="diary_2_" opacity="0.7">
		<g id="tag_euro_4_">
			<g id="diary_3_">
				<g>
					<g>
						<g>
							<path fill="#FFFFFF" d="M15.521,22.827c0.711,0,1.289,0.583,1.289,1.292l0,0c0,0.713-0.577,1.289-1.289,1.289h-1.682
								c-0.715,0-1.295-0.576-1.295-1.289l0,0c0-0.709,0.58-1.293,1.295-1.292H15.521z"/>
						</g>
						<g>
							<path fill="#FFFFFF" d="M15.521,16.201c0.711,0,1.289,0.58,1.289,1.295l0,0c0,0.71-0.577,1.289-1.289,1.289h-1.682
								c-0.715,0-1.295-0.579-1.295-1.289l0,0c0-0.715,0.58-1.295,1.295-1.295H15.521z"/>
						</g>
						<g>
							<path fill="#FFFFFF" d="M15.521,9.582c0.711,0,1.289,0.573,1.289,1.289l0,0c0,0.706-0.577,1.289-1.289,1.289h-1.682
								c-0.715,0-1.295-0.583-1.295-1.289l0,0c0-0.716,0.58-1.289,1.295-1.289H15.521z"/>
							<g>
								<path fill="#FFFFFF" d="M16.194,6.262c-0.809,0-1.458,0.652-1.458,1.461v1.16h0.997c1.099,0,1.99,0.889,1.99,1.988
									c0,1.093-0.892,1.986-1.99,1.986h-0.997v2.646h0.997c1.099,0,1.99,0.892,1.99,1.993c0,1.096-0.892,1.988-1.99,1.988h-0.997
									v2.645h0.997c1.099,0,1.99,0.891,1.99,1.99c0,1.102-0.892,1.996-1.99,1.996h-0.997v1.154c0,0.806,0.649,1.455,1.458,1.455
									h3.128V6.262H16.194z"/>
							</g>
						</g>
					</g>
					<g>
						<path fill="#FFFFFF" d="M36.794,6.727h-1.642c0.16,0.232,0.256,0.517,0.256,0.825v4.52h1.386c0.506,0,0.914-0.417,0.914-0.914
							v-3.52C37.708,7.135,37.3,6.727,36.794,6.727z"/>
						<path fill="#FFFFFF" d="M36.367,18.007c0.503,0,0.914-0.411,0.914-0.914v-3.514c0-0.506-0.411-0.914-0.914-0.914h-0.958v5.342
							H36.367z"/>
						<path fill="#FFFFFF" d="M35.792,24.282c0.505,0,0.914-0.405,0.914-0.914v-3.515c0-0.508-0.409-0.914-0.914-0.914h-0.384v5.343
							H35.792z"/>
					</g>
					<path fill="#FFFFFF" d="M33.126,6.262H20.371v22.463h12.755c0.806,0,1.46-0.652,1.46-1.455V7.723
						C34.586,6.914,33.932,6.262,33.126,6.262z"/>
				</g>
			</g>
		</g>
	</g>
</g>
</svg>
