<?xml version="1.0" encoding="utf-8"?>
<!-- Generator: Adobe Illustrator 16.0.0, SVG Export Plug-In . SVG Version: 6.00 Build 0)  -->
<!DOCTYPE svg PUBLIC "-//W3C//DTD SVG 1.1//EN" "http://www.w3.org/Graphics/SVG/1.1/DTD/svg11.dtd">
<svg version="1.1" id="Capa_1" xmlns="http://www.w3.org/2000/svg" xmlns:xlink="http://www.w3.org/1999/xlink" x="0px" y="0px"
	 width="247.638px" height="52.236px" viewBox="0 0 247.638 52.236" enable-background="new 0 0 247.638 52.236"
	 xml:space="preserve">
<g>
	<g>
		<polygon fill-rule="evenodd" clip-rule="evenodd" fill="#2D3944" points="233.611,52.236 247.638,34.452 237.212,14.283 
			233.611,14.285 		"/>
		<rect fill-rule="evenodd" clip-rule="evenodd" fill="#76C5ED" width="247.637" height="34.968"/>
		<polygon fill="#002549" points="233.611,42.138 0,34.968 233.611,34.968 		"/>
	</g>
	<g>
		<path fill="#002549" d="M56.139,18.129l2.04,0.667c-0.313,1.172-0.833,2.042-1.56,2.611c-0.728,0.569-1.65,0.853-2.769,0.853
			c-1.383,0-2.521-0.486-3.412-1.461c-0.891-0.974-1.336-2.306-1.336-3.995c0-1.787,0.448-3.175,1.343-4.164
			c0.896-0.988,2.073-1.483,3.533-1.483c1.274,0,2.31,0.389,3.106,1.165c0.474,0.459,0.829,1.118,1.066,1.978l-2.083,0.513
			c-0.123-0.557-0.38-0.996-0.771-1.318s-0.866-0.483-1.425-0.483c-0.772,0-1.399,0.285-1.88,0.857
			c-0.481,0.57-0.722,1.496-0.722,2.775c0,1.357,0.237,2.324,0.711,2.9c0.474,0.576,1.09,0.864,1.848,0.864
			c0.559,0,1.04-0.183,1.443-0.55C55.675,19.492,55.964,18.916,56.139,18.129z"/>
		<path fill="#002549" d="M63.789,19.602l1.99,0.344c-0.256,0.752-0.66,1.325-1.212,1.718c-0.552,0.394-1.243,0.59-2.072,0.59
			c-1.312,0-2.284-0.442-2.914-1.325c-0.498-0.709-0.747-1.602-0.747-2.682c0-1.289,0.327-2.298,0.981-3.028
			c0.654-0.729,1.481-1.095,2.481-1.095c1.123,0,2.009,0.383,2.658,1.146c0.649,0.764,0.96,1.935,0.931,3.512h-5.004
			c0.014,0.61,0.175,1.086,0.483,1.425c0.308,0.339,0.692,0.509,1.151,0.509c0.313,0,0.576-0.088,0.789-0.264
			S63.68,19.992,63.789,19.602z M63.903,17.521c-0.014-0.596-0.164-1.049-0.448-1.358c-0.285-0.31-0.63-0.466-1.038-0.466
			c-0.436,0-0.796,0.164-1.081,0.491c-0.284,0.327-0.424,0.771-0.419,1.333H63.903z"/>
		<path fill="#002549" d="M68.873,22.077h-1.998v-7.778h1.855v1.105c0.317-0.521,0.603-0.866,0.856-1.032s0.542-0.249,0.864-0.249
			c0.455,0,0.893,0.129,1.315,0.389l-0.619,1.794c-0.336-0.225-0.649-0.337-0.938-0.337c-0.28,0-0.517,0.08-0.711,0.238
			s-0.347,0.445-0.458,0.86s-0.167,1.284-0.167,2.607V22.077z"/>
		<path fill="#002549" d="M75.534,14.299v1.641h-1.365v3.135c0,0.635,0.013,1.005,0.039,1.109c0.026,0.105,0.085,0.191,0.178,0.26
			c0.093,0.068,0.205,0.104,0.338,0.104c0.185,0,0.453-0.066,0.803-0.198l0.17,1.597c-0.464,0.205-0.99,0.308-1.578,0.308
			c-0.36,0-0.685-0.062-0.974-0.187c-0.289-0.125-0.501-0.286-0.636-0.483c-0.135-0.198-0.229-0.466-0.281-0.802
			c-0.042-0.24-0.064-0.723-0.064-1.451v-3.391h-0.917v-1.641h0.917v-1.545l2.004-1.201v2.746H75.534z"/>
		<path fill="#002549" d="M76.367,13.244V11.34h1.998v1.904H76.367z M76.367,22.077v-7.778h1.998v7.778H76.367z"/>
		<path fill="#002549" d="M78.984,14.299h1.109v-0.586c0-0.654,0.068-1.143,0.203-1.465c0.135-0.322,0.384-0.584,0.747-0.787
			c0.362-0.203,0.821-0.305,1.375-0.305c0.568,0,1.125,0.088,1.67,0.264l-0.271,1.436c-0.317-0.078-0.623-0.117-0.917-0.117
			c-0.29,0-0.497,0.07-0.622,0.209c-0.125,0.14-0.188,0.406-0.188,0.803v0.549h1.493v1.619H82.09v6.159h-1.998v-6.159h-1.109V14.299
			z"/>
		<path fill="#002549" d="M84.153,13.244V11.34h1.998v1.904H84.153z M84.153,22.077v-7.778h1.998v7.778H84.153z"/>
		<path fill="#002549" d="M94.226,16.599l-1.969,0.366c-0.066-0.405-0.217-0.711-0.452-0.916c-0.234-0.205-0.539-0.307-0.913-0.307
			c-0.498,0-0.895,0.177-1.191,0.53c-0.296,0.354-0.444,0.946-0.444,1.776c0,0.923,0.15,1.574,0.451,1.955
			c0.301,0.381,0.705,0.572,1.212,0.572c0.379,0,0.689-0.111,0.931-0.334c0.242-0.222,0.412-0.604,0.512-1.146l1.962,0.345
			c-0.204,0.928-0.595,1.628-1.173,2.103c-0.578,0.473-1.353,0.71-2.324,0.71c-1.104,0-1.984-0.358-2.641-1.077
			c-0.657-0.717-0.985-1.711-0.985-2.98c0-1.284,0.33-2.283,0.988-2.999s1.549-1.073,2.672-1.073c0.919,0,1.65,0.204,2.193,0.611
			C93.6,15.143,93.989,15.764,94.226,16.599z"/>
		<path fill="#002549" d="M96.68,16.672l-1.812-0.337c0.204-0.752,0.554-1.309,1.052-1.67s1.237-0.542,2.218-0.542
			c0.891,0,1.554,0.109,1.99,0.326s0.743,0.493,0.921,0.827c0.178,0.335,0.267,0.948,0.267,1.843l-0.021,2.402
			c0,0.684,0.032,1.188,0.096,1.512c0.064,0.325,0.184,0.673,0.359,1.044h-1.976c-0.052-0.137-0.116-0.339-0.192-0.608
			c-0.033-0.121-0.057-0.202-0.071-0.241c-0.341,0.342-0.706,0.599-1.095,0.769c-0.389,0.172-0.803,0.257-1.244,0.257
			c-0.777,0-1.389-0.218-1.837-0.651c-0.448-0.436-0.671-0.984-0.671-1.648c0-0.439,0.102-0.831,0.306-1.176
			c0.204-0.344,0.489-0.607,0.856-0.791c0.367-0.183,0.896-0.343,1.588-0.479c0.934-0.181,1.581-0.349,1.941-0.505v-0.205
			c0-0.396-0.095-0.678-0.285-0.847c-0.189-0.168-0.547-0.253-1.073-0.253c-0.355,0-0.632,0.072-0.832,0.217
			S96.803,16.311,96.68,16.672z M99.353,18.342c-0.256,0.088-0.661,0.193-1.216,0.314c-0.554,0.123-0.917,0.242-1.087,0.359
			c-0.261,0.19-0.391,0.432-0.391,0.725c0,0.289,0.104,0.537,0.313,0.748c0.208,0.209,0.474,0.314,0.796,0.314
			c0.36,0,0.704-0.122,1.031-0.366c0.242-0.186,0.4-0.413,0.477-0.681c0.052-0.176,0.078-0.511,0.078-1.004V18.342z"/>
		<path fill="#002549" d="M109.312,16.599l-1.969,0.366c-0.066-0.405-0.217-0.711-0.452-0.916c-0.234-0.205-0.539-0.307-0.913-0.307
			c-0.498,0-0.895,0.177-1.191,0.53c-0.296,0.354-0.444,0.946-0.444,1.776c0,0.923,0.15,1.574,0.451,1.955
			c0.301,0.381,0.705,0.572,1.212,0.572c0.379,0,0.689-0.111,0.931-0.334c0.242-0.222,0.412-0.604,0.512-1.146l1.962,0.345
			c-0.204,0.928-0.595,1.628-1.173,2.103c-0.578,0.473-1.353,0.71-2.324,0.71c-1.104,0-1.984-0.358-2.641-1.077
			c-0.657-0.717-0.985-1.711-0.985-2.98c0-1.284,0.33-2.283,0.988-2.999s1.549-1.073,2.672-1.073c0.919,0,1.65,0.204,2.193,0.611
			C108.686,15.143,109.075,15.764,109.312,16.599z"/>
		<path fill="#002549" d="M110.273,13.244V11.34h1.998v1.904H110.273z M110.273,22.077v-7.778h1.998v7.778H110.273z"/>
		<path fill="#002549" d="M113.303,18.078c0-0.684,0.164-1.346,0.49-1.984c0.327-0.641,0.79-1.129,1.39-1.465
			c0.6-0.338,1.269-0.506,2.008-0.506c1.142,0,2.078,0.383,2.808,1.146c0.729,0.764,1.095,1.729,1.095,2.896
			c0,1.177-0.369,2.152-1.105,2.926c-0.737,0.774-1.665,1.161-2.783,1.161c-0.692,0-1.352-0.161-1.979-0.483
			c-0.628-0.322-1.105-0.795-1.433-1.417C113.466,19.729,113.303,18.972,113.303,18.078z M115.35,18.188
			c0,0.771,0.178,1.363,0.533,1.773s0.794,0.615,1.315,0.615c0.521,0,0.958-0.205,1.312-0.615s0.53-1.006,0.53-1.787
			c0-0.762-0.177-1.348-0.53-1.758s-0.79-0.615-1.312-0.615c-0.521,0-0.959,0.205-1.315,0.615S115.35,17.416,115.35,18.188z
			 M116.188,13.347l0.981-2.19h2.239l-1.955,2.19H116.188z"/>
		<path fill="#002549" d="M128.97,22.077h-1.997v-3.97c0-0.84-0.043-1.383-0.128-1.63c-0.085-0.246-0.224-0.438-0.416-0.575
			s-0.423-0.205-0.693-0.205c-0.346,0-0.656,0.098-0.931,0.293s-0.463,0.455-0.565,0.777c-0.102,0.322-0.153,0.918-0.153,1.787
			v3.522h-1.997v-7.778h1.855v1.143c0.659-0.879,1.488-1.318,2.488-1.318c0.441,0,0.844,0.082,1.208,0.245
			c0.365,0.164,0.641,0.372,0.828,0.626s0.317,0.543,0.391,0.865c0.073,0.322,0.11,0.783,0.11,1.384V22.077z"/>
		<path fill="#002549" d="M140.857,22.077h-1.855v-1.143c-0.309,0.444-0.672,0.775-1.091,0.992
			c-0.419,0.218-0.843,0.326-1.269,0.326c-0.867,0-1.61-0.36-2.229-1.08c-0.619-0.72-0.928-1.726-0.928-3.015
			c0-1.318,0.301-2.32,0.902-3.006s1.363-1.029,2.282-1.029c0.843,0,1.573,0.361,2.188,1.084V11.34h1.998V22.077z M135.526,18.02
			c0,0.83,0.111,1.431,0.334,1.802c0.322,0.537,0.772,0.806,1.351,0.806c0.459,0,0.851-0.201,1.173-0.604
			c0.322-0.402,0.483-1.005,0.483-1.806c0-0.893-0.156-1.536-0.469-1.93c-0.312-0.393-0.714-0.59-1.201-0.59
			c-0.475,0-0.871,0.194-1.191,0.583C135.686,16.668,135.526,17.248,135.526,18.02z"/>
		<path fill="#002549" d="M146.645,19.602l1.99,0.344c-0.256,0.752-0.66,1.325-1.212,1.718c-0.552,0.394-1.243,0.59-2.072,0.59
			c-1.312,0-2.284-0.442-2.914-1.325c-0.497-0.709-0.747-1.602-0.747-2.682c0-1.289,0.328-2.298,0.981-3.028
			c0.653-0.729,1.481-1.095,2.481-1.095c1.123,0,2.009,0.383,2.658,1.146c0.648,0.764,0.959,1.935,0.931,3.512h-5.004
			c0.015,0.61,0.175,1.086,0.483,1.425c0.308,0.339,0.691,0.509,1.151,0.509c0.313,0,0.575-0.088,0.789-0.264
			S146.535,19.992,146.645,19.602z M146.758,17.521c-0.014-0.596-0.163-1.049-0.447-1.358c-0.285-0.31-0.631-0.466-1.038-0.466
			c-0.437,0-0.796,0.164-1.081,0.491c-0.283,0.327-0.424,0.771-0.418,1.333H146.758z"/>
		<path fill="#002549" d="M149.816,22.077V11.34h1.997v10.737H149.816z"/>
		<path fill="#002549" d="M156.742,14.299h1.862v1.143c0.241-0.391,0.568-0.708,0.98-0.952c0.413-0.244,0.87-0.366,1.372-0.366
			c0.877,0,1.621,0.354,2.232,1.062c0.611,0.707,0.916,1.693,0.916,2.959c0,1.299-0.308,2.309-0.924,3.028
			c-0.615,0.72-1.362,1.08-2.238,1.08c-0.418,0-0.795-0.085-1.135-0.257c-0.338-0.17-0.695-0.463-1.069-0.879v3.919h-1.997V14.299z
			 M158.718,18.057c0,0.873,0.169,1.52,0.505,1.937c0.336,0.418,0.746,0.626,1.23,0.626c0.464,0,0.85-0.191,1.158-0.574
			c0.308-0.383,0.462-1.012,0.462-1.887c0-0.814-0.159-1.42-0.477-1.816c-0.317-0.395-0.71-0.593-1.18-0.593
			c-0.488,0-0.894,0.194-1.216,0.582C158.879,16.72,158.718,17.295,158.718,18.057z"/>
		<path fill="#002549" d="M167.05,22.077h-1.997v-7.778h1.855v1.105c0.316-0.521,0.603-0.866,0.855-1.032
			c0.254-0.166,0.542-0.249,0.864-0.249c0.454,0,0.894,0.129,1.315,0.389l-0.619,1.794c-0.336-0.225-0.648-0.337-0.938-0.337
			c-0.28,0-0.518,0.08-0.711,0.238c-0.195,0.158-0.348,0.445-0.459,0.86s-0.167,1.284-0.167,2.607V22.077z"/>
		<path fill="#002549" d="M169.788,18.078c0-0.684,0.163-1.346,0.49-1.984c0.327-0.641,0.79-1.129,1.39-1.465
			c0.6-0.338,1.27-0.506,2.008-0.506c1.143,0,2.078,0.383,2.809,1.146c0.729,0.764,1.094,1.729,1.094,2.896
			c0,1.177-0.368,2.152-1.105,2.926c-0.736,0.774-1.664,1.161-2.782,1.161c-0.692,0-1.353-0.161-1.979-0.483
			c-0.629-0.322-1.105-0.795-1.433-1.417C169.951,19.729,169.788,18.972,169.788,18.078z M171.835,18.188
			c0,0.771,0.178,1.363,0.533,1.773s0.794,0.615,1.315,0.615s0.958-0.205,1.311-0.615c0.354-0.41,0.53-1.006,0.53-1.787
			c0-0.762-0.177-1.348-0.53-1.758c-0.353-0.41-0.789-0.615-1.311-0.615s-0.96,0.205-1.315,0.615S171.835,17.416,171.835,18.188z"/>
		<path fill="#002549" d="M178.404,22.59l2.281,0.285c0.038,0.273,0.125,0.462,0.264,0.564c0.189,0.146,0.488,0.22,0.895,0.22
			c0.521,0,0.912-0.081,1.174-0.241c0.175-0.107,0.308-0.281,0.397-0.521c0.062-0.171,0.093-0.485,0.093-0.944v-1.136
			c-0.598,0.84-1.351,1.26-2.261,1.26c-1.014,0-1.817-0.442-2.409-1.325c-0.465-0.699-0.697-1.568-0.697-2.607
			c0-1.305,0.305-2.301,0.914-2.988c0.608-0.689,1.365-1.033,2.271-1.033c0.933,0,1.703,0.422,2.31,1.268v-1.092h1.869v6.98
			c0,0.918-0.073,1.604-0.22,2.058c-0.147,0.454-0.354,0.811-0.619,1.069s-0.619,0.461-1.062,0.607s-1.004,0.221-1.682,0.221
			c-1.279,0-2.187-0.227-2.722-0.678c-0.536-0.452-0.804-1.024-0.804-1.718C178.396,22.771,178.399,22.688,178.404,22.59z
			 M180.188,18.027c0,0.824,0.156,1.43,0.467,1.812c0.31,0.383,0.692,0.574,1.147,0.574c0.487,0,0.9-0.195,1.237-0.589
			c0.336-0.394,0.504-0.976,0.504-1.747c0-0.806-0.161-1.404-0.482-1.795c-0.322-0.391-0.73-0.586-1.223-0.586
			c-0.479,0-0.874,0.192-1.184,0.575C180.344,16.656,180.188,17.24,180.188,18.027z"/>
		<path fill="#002549" d="M188.84,22.077h-1.997v-7.778h1.855v1.105c0.317-0.521,0.603-0.866,0.856-1.032s0.541-0.249,0.863-0.249
			c0.455,0,0.894,0.129,1.315,0.389l-0.618,1.794c-0.337-0.225-0.649-0.337-0.938-0.337c-0.28,0-0.517,0.08-0.711,0.238
			s-0.347,0.445-0.458,0.86s-0.168,1.284-0.168,2.607V22.077z"/>
		<path fill="#002549" d="M193.533,16.672l-1.812-0.337c0.203-0.752,0.554-1.309,1.051-1.67c0.498-0.361,1.237-0.542,2.219-0.542
			c0.891,0,1.554,0.109,1.99,0.326c0.436,0.217,0.742,0.493,0.92,0.827c0.178,0.335,0.268,0.948,0.268,1.843l-0.021,2.402
			c0,0.684,0.031,1.188,0.096,1.512c0.063,0.325,0.184,0.673,0.359,1.044h-1.977c-0.053-0.137-0.116-0.339-0.192-0.608
			c-0.033-0.121-0.057-0.202-0.071-0.241c-0.341,0.342-0.705,0.599-1.094,0.769c-0.389,0.172-0.804,0.257-1.244,0.257
			c-0.777,0-1.39-0.218-1.838-0.651c-0.447-0.436-0.672-0.984-0.672-1.648c0-0.439,0.102-0.831,0.307-1.176
			c0.203-0.344,0.488-0.607,0.855-0.791c0.367-0.183,0.896-0.343,1.589-0.479c0.934-0.181,1.581-0.349,1.94-0.505v-0.205
			c0-0.396-0.095-0.678-0.284-0.847c-0.189-0.168-0.548-0.253-1.073-0.253c-0.355,0-0.633,0.072-0.832,0.217
			S193.656,16.311,193.533,16.672z M196.205,18.342c-0.256,0.088-0.66,0.193-1.215,0.314c-0.555,0.123-0.918,0.242-1.088,0.359
			c-0.261,0.19-0.391,0.432-0.391,0.725c0,0.289,0.104,0.537,0.312,0.748c0.209,0.209,0.474,0.314,0.796,0.314
			c0.36,0,0.704-0.122,1.03-0.366c0.242-0.186,0.4-0.413,0.477-0.681c0.053-0.176,0.078-0.511,0.078-1.004V18.342z"/>
		<path fill="#002549" d="M199.434,14.299h1.842v1.062c0.658-0.826,1.442-1.238,2.352-1.238c0.484,0,0.903,0.103,1.259,0.308
			s0.647,0.515,0.874,0.931c0.332-0.416,0.689-0.726,1.074-0.931c0.383-0.205,0.793-0.308,1.229-0.308
			c0.555,0,1.023,0.116,1.408,0.348c0.384,0.232,0.67,0.572,0.859,1.021c0.138,0.332,0.207,0.869,0.207,1.611v4.974h-1.998v-4.446
			c0-0.771-0.068-1.27-0.206-1.494c-0.185-0.293-0.47-0.439-0.853-0.439c-0.279,0-0.543,0.088-0.789,0.264s-0.424,0.434-0.533,0.773
			s-0.164,0.875-0.164,1.607v3.735h-1.997v-4.263c0-0.757-0.036-1.245-0.106-1.465c-0.071-0.22-0.182-0.383-0.33-0.49
			c-0.15-0.107-0.353-0.162-0.608-0.162c-0.308,0-0.585,0.086-0.831,0.257c-0.247,0.171-0.424,0.417-0.53,0.739
			s-0.159,0.857-0.159,1.604v3.779h-1.998V14.299z"/>
		<path fill="#002549" d="M213.467,16.672l-1.812-0.337c0.203-0.752,0.554-1.309,1.051-1.67c0.498-0.361,1.237-0.542,2.219-0.542
			c0.891,0,1.554,0.109,1.99,0.326c0.436,0.217,0.742,0.493,0.92,0.827c0.178,0.335,0.268,0.948,0.268,1.843l-0.021,2.402
			c0,0.684,0.031,1.188,0.096,1.512c0.063,0.325,0.184,0.673,0.359,1.044h-1.977c-0.053-0.137-0.116-0.339-0.192-0.608
			c-0.033-0.121-0.057-0.202-0.071-0.241c-0.341,0.342-0.705,0.599-1.094,0.769c-0.389,0.172-0.804,0.257-1.244,0.257
			c-0.777,0-1.39-0.218-1.838-0.651c-0.447-0.436-0.672-0.984-0.672-1.648c0-0.439,0.102-0.831,0.307-1.176
			c0.203-0.344,0.488-0.607,0.855-0.791c0.367-0.183,0.896-0.343,1.589-0.479c0.934-0.181,1.581-0.349,1.94-0.505v-0.205
			c0-0.396-0.095-0.678-0.284-0.847c-0.189-0.168-0.548-0.253-1.073-0.253c-0.355,0-0.633,0.072-0.832,0.217
			S213.59,16.311,213.467,16.672z M216.139,18.342c-0.256,0.088-0.66,0.193-1.215,0.314c-0.555,0.123-0.918,0.242-1.088,0.359
			c-0.261,0.19-0.391,0.432-0.391,0.725c0,0.289,0.104,0.537,0.312,0.748c0.209,0.209,0.474,0.314,0.796,0.314
			c0.36,0,0.704-0.122,1.03-0.366c0.242-0.186,0.4-0.413,0.477-0.681c0.053-0.176,0.078-0.511,0.078-1.004V18.342z"/>
	</g>
	<g id="license" opacity="0.7">
		<g>
			<path fill="#FFFFFF" d="M20.667,17.604c0.392,1.67-0.617,3.341-2.249,3.72c-1.628,0.376-3.259-0.68-3.652-2.354
				c-0.389-1.671,0.615-3.339,2.246-3.717C18.645,14.875,20.276,15.931,20.667,17.604z"/>
			<path fill="#FFFFFF" d="M23.343,23.83c-0.371-1.614-1.734-2.689-3.046-2.383l-3.507,0.816c-1.308,0.302-2.065,1.865-1.688,3.481
				C15.102,25.744,19.314,27.373,23.343,23.83z"/>
		</g>
		<path fill="#FFFFFF" d="M40.377,21.324L37.366,8.341c-0.283-1.225-1.515-1.998-2.756-1.713l-23.392,5.435
			c-1.23,0.286-2.005,1.516-1.717,2.75l3.014,12.979c0.286,1.232,1.516,2.001,2.75,1.715l23.399-5.433
			C39.903,23.786,40.669,22.552,40.377,21.324z M19.715,10.517l6.844-1.586c0.362-0.084,0.75,0.253,0.866,0.762
			c0.118,0.507-0.077,0.984-0.439,1.07l-6.846,1.592c-0.368,0.084-0.755-0.261-0.875-0.766
			C19.149,11.085,19.347,10.603,19.715,10.517z M23.162,26.062l-6.387,1.482c-1.228,0.285-2.46-0.479-2.75-1.718l-1.816-7.843
			c-0.291-1.229,0.478-2.46,1.709-2.751l6.387-1.478c1.234-0.29,2.468,0.476,2.759,1.71l1.812,7.838
			C25.165,24.544,24.399,25.778,23.162,26.062z M31.511,22.751l-2.521,0.59c-1.115,0.255-2.228-0.436-2.49-1.553
			c-0.254-1.113,0.437-2.231,1.551-2.493l2.522-0.581c1.112-0.259,2.227,0.434,2.482,1.555
			C33.317,21.381,32.624,22.496,31.511,22.751z M35.942,14.905l-9.553,2.216c-0.508,0.12-1.014-0.192-1.136-0.698
			c-0.112-0.512,0.198-1.019,0.707-1.139l9.558-2.217c0.507-0.115,1.015,0.198,1.13,0.706C36.764,14.285,36.45,14.788,35.942,14.905
			z"/>
		<path fill="#FFFFFF" d="M23.945,2.61H22.56c-1.276,0-2.309,1.033-2.309,2.312l0.498,4.429c0,1.068,0.861,1.925,1.928,1.925h1.158
			c1.059,0,1.923-0.856,1.923-1.925l0.5-4.429C26.259,3.644,25.227,2.61,23.945,2.61z M23.233,6.657c-0.763,0-1.383-0.61-1.383-1.37
			s0.62-1.376,1.383-1.376c0.756,0,1.37,0.616,1.37,1.376S23.99,6.657,23.233,6.657z"/>
	</g>
</g>
</svg>
