<?xml version="1.0" encoding="utf-8"?>
<!-- Generator: Adobe Illustrator 16.0.0, SVG Export Plug-In . SVG Version: 6.00 Build 0)  -->
<!DOCTYPE svg PUBLIC "-//W3C//DTD SVG 1.1//EN" "http://www.w3.org/Graphics/SVG/1.1/DTD/svg11.dtd">
<svg version="1.1" id="Capa_1" xmlns="http://www.w3.org/2000/svg" xmlns:xlink="http://www.w3.org/1999/xlink" x="0px" y="0px"
	 width="247.638px" height="52.236px" viewBox="0 0 247.638 52.236" enable-background="new 0 0 247.638 52.236"
	 xml:space="preserve">
<g>
	<g>
		<polygon fill-rule="evenodd" clip-rule="evenodd" fill="#2D3944" points="233.611,52.236 247.638,34.452 237.212,14.283 
			233.611,14.285 		"/>
		<rect fill-rule="evenodd" clip-rule="evenodd" fill="#FFCC73" width="247.637" height="34.968"/>
		<polygon fill="#002549" points="233.611,42.138 0,34.968 233.611,34.968 		"/>
	</g>
	<g>
		<path fill="#002549" d="M56.139,19.859l2.04,0.666c-0.313,1.172-0.833,2.043-1.56,2.611c-0.728,0.568-1.65,0.854-2.769,0.854
			c-1.383,0-2.521-0.487-3.412-1.462c-0.891-0.974-1.336-2.306-1.336-3.995c0-1.787,0.448-3.175,1.343-4.164
			c0.896-0.988,2.073-1.482,3.533-1.482c1.274,0,2.31,0.388,3.106,1.164c0.474,0.459,0.829,1.118,1.066,1.978l-2.083,0.513
			c-0.123-0.557-0.38-0.996-0.771-1.318s-0.866-0.483-1.425-0.483c-0.772,0-1.399,0.286-1.88,0.856
			c-0.481,0.572-0.722,1.497-0.722,2.776c0,1.357,0.237,2.324,0.711,2.9c0.474,0.576,1.09,0.864,1.848,0.864
			c0.559,0,1.04-0.184,1.443-0.549C55.675,21.221,55.964,20.645,56.139,19.859z"/>
		<path fill="#002549" d="M61.33,23.807h-1.998v-7.778h1.855v1.106c0.317-0.523,0.603-0.867,0.856-1.033s0.542-0.249,0.864-0.249
			c0.455,0,0.893,0.13,1.315,0.388l-0.619,1.795c-0.336-0.225-0.649-0.337-0.938-0.337c-0.28,0-0.517,0.079-0.711,0.238
			s-0.347,0.445-0.458,0.86s-0.167,1.284-0.167,2.607V23.807z"/>
		<path fill="#002549" d="M68.901,21.331l1.99,0.345c-0.256,0.752-0.66,1.324-1.212,1.717c-0.552,0.394-1.243,0.59-2.072,0.59
			c-1.312,0-2.284-0.441-2.914-1.326c-0.498-0.707-0.747-1.602-0.747-2.68c0-1.289,0.327-2.299,0.981-3.029
			c0.654-0.729,1.481-1.095,2.481-1.095c1.123,0,2.009,0.382,2.658,1.146c0.649,0.765,0.96,1.935,0.931,3.512h-5.004
			c0.014,0.61,0.175,1.085,0.483,1.425c0.308,0.34,0.692,0.509,1.151,0.509c0.313,0,0.576-0.088,0.789-0.264
			S68.792,21.722,68.901,21.331z M69.015,19.251c-0.014-0.596-0.164-1.048-0.448-1.358c-0.285-0.311-0.63-0.465-1.038-0.465
			c-0.436,0-0.796,0.163-1.081,0.49c-0.284,0.327-0.424,0.771-0.419,1.333H69.015z M66.463,15.076l0.981-2.189h2.239l-1.955,2.189
			H66.463z"/>
		<path fill="#002549" d="M78.996,23.807H77.14v-1.143c-0.308,0.444-0.671,0.775-1.091,0.992s-0.842,0.326-1.269,0.326
			c-0.867,0-1.61-0.359-2.228-1.08c-0.619-0.721-0.928-1.725-0.928-3.014c0-1.318,0.301-2.32,0.903-3.007
			c0.602-0.687,1.362-1.029,2.282-1.029c0.843,0,1.573,0.361,2.189,1.084v-3.867h1.998V23.807z M73.665,19.749
			c0,0.83,0.111,1.431,0.334,1.802c0.322,0.537,0.772,0.806,1.351,0.806c0.459,0,0.851-0.201,1.173-0.604
			c0.322-0.402,0.483-1.004,0.483-1.805c0-0.895-0.156-1.537-0.469-1.931c-0.312-0.393-0.713-0.589-1.201-0.589
			c-0.474,0-0.871,0.193-1.191,0.582C73.824,18.397,73.665,18.978,73.665,19.749z"/>
		<path fill="#002549" d="M80.412,14.974v-1.904h1.998v1.904H80.412z M80.412,23.807v-7.778h1.998v7.778H80.412z"/>
		<path fill="#002549" d="M87.364,16.028v1.641H86v3.135c0,0.635,0.013,1.005,0.039,1.109c0.026,0.105,0.085,0.192,0.178,0.261
			c0.093,0.068,0.205,0.102,0.338,0.102c0.185,0,0.453-0.065,0.803-0.197l0.17,1.597c-0.464,0.205-0.99,0.308-1.578,0.308
			c-0.36,0-0.685-0.062-0.974-0.187c-0.289-0.125-0.501-0.286-0.636-0.483c-0.135-0.198-0.229-0.465-0.281-0.803
			c-0.042-0.238-0.064-0.723-0.064-1.449v-3.392h-0.917v-1.641h0.917v-1.546L86,13.281v2.747H87.364z"/>
		<path fill="#002549" d="M87.735,19.808c0-0.684,0.164-1.345,0.49-1.985c0.327-0.639,0.79-1.127,1.39-1.465
			c0.6-0.336,1.269-0.505,2.008-0.505c1.142,0,2.078,0.382,2.808,1.146c0.729,0.765,1.095,1.729,1.095,2.896
			c0,1.177-0.369,2.152-1.105,2.926c-0.737,0.774-1.665,1.161-2.783,1.161c-0.692,0-1.352-0.161-1.979-0.483
			c-0.628-0.322-1.105-0.795-1.433-1.417C87.899,21.459,87.735,20.701,87.735,19.808z M89.782,19.918
			c0,0.771,0.178,1.361,0.533,1.771s0.794,0.615,1.315,0.615c0.521,0,0.958-0.205,1.312-0.615s0.53-1.006,0.53-1.787
			c0-0.762-0.177-1.348-0.53-1.758s-0.79-0.615-1.312-0.615c-0.521,0-0.959,0.205-1.315,0.615S89.782,19.146,89.782,19.918z"/>
		<path fill="#002549" d="M95.833,21.588l2.004-0.315c0.085,0.4,0.258,0.704,0.519,0.912c0.26,0.208,0.625,0.312,1.095,0.312
			c0.516,0,0.905-0.098,1.166-0.293c0.175-0.137,0.263-0.32,0.263-0.55c0-0.156-0.048-0.286-0.143-0.388
			c-0.099-0.098-0.322-0.188-0.668-0.271c-1.611-0.366-2.632-0.701-3.063-1.004c-0.597-0.42-0.896-1.003-0.896-1.75
			c0-0.674,0.258-1.24,0.774-1.699s1.317-0.688,2.403-0.688c1.033,0,1.801,0.173,2.303,0.521c0.502,0.346,0.848,0.859,1.038,1.537
			l-1.884,0.359c-0.081-0.303-0.233-0.535-0.458-0.695c-0.225-0.162-0.546-0.242-0.963-0.242c-0.526,0-0.902,0.076-1.13,0.227
			c-0.152,0.107-0.228,0.247-0.228,0.418c0,0.146,0.066,0.271,0.199,0.373c0.18,0.137,0.802,0.33,1.866,0.579
			s1.807,0.554,2.229,0.915c0.417,0.367,0.625,0.877,0.625,1.531c0,0.713-0.289,1.326-0.867,1.838
			c-0.578,0.514-1.434,0.77-2.566,0.77c-1.029,0-1.842-0.215-2.442-0.645S96.018,22.324,95.833,21.588z"/>
		<path fill="#002549" d="M114.494,23.807h-1.855v-1.143c-0.308,0.444-0.671,0.775-1.091,0.992s-0.842,0.326-1.269,0.326
			c-0.867,0-1.61-0.359-2.228-1.08c-0.619-0.721-0.928-1.725-0.928-3.014c0-1.318,0.301-2.32,0.903-3.007
			c0.602-0.687,1.362-1.029,2.282-1.029c0.843,0,1.573,0.361,2.189,1.084v-3.867h1.998V23.807z M109.163,19.749
			c0,0.83,0.111,1.431,0.334,1.802c0.322,0.537,0.772,0.806,1.351,0.806c0.459,0,0.851-0.201,1.173-0.604
			c0.322-0.402,0.483-1.004,0.483-1.805c0-0.895-0.156-1.537-0.469-1.931c-0.312-0.393-0.713-0.589-1.201-0.589
			c-0.474,0-0.871,0.193-1.191,0.582C109.323,18.397,109.163,18.978,109.163,19.749z"/>
		<path fill="#002549" d="M120.281,21.331l1.99,0.345c-0.256,0.752-0.66,1.324-1.212,1.717c-0.552,0.394-1.243,0.59-2.072,0.59
			c-1.312,0-2.284-0.441-2.914-1.326c-0.498-0.707-0.747-1.602-0.747-2.68c0-1.289,0.327-2.299,0.981-3.029
			c0.654-0.729,1.481-1.095,2.481-1.095c1.123,0,2.009,0.382,2.658,1.146c0.649,0.765,0.96,1.935,0.931,3.512h-5.004
			c0.014,0.61,0.175,1.085,0.483,1.425c0.308,0.34,0.692,0.509,1.151,0.509c0.313,0,0.576-0.088,0.789-0.264
			S120.172,21.722,120.281,21.331z M120.395,19.251c-0.014-0.596-0.164-1.048-0.448-1.358c-0.285-0.311-0.63-0.465-1.038-0.465
			c-0.436,0-0.796,0.163-1.081,0.49c-0.284,0.327-0.424,0.771-0.419,1.333H120.395z"/>
		<path fill="#002549" d="M123.453,23.807V13.069h1.998v10.737H123.453z"/>
		<path fill="#002549" d="M130.378,16.028h1.863v1.143c0.242-0.391,0.568-0.708,0.98-0.952c0.413-0.244,0.87-0.366,1.372-0.366
			c0.877,0,1.621,0.354,2.232,1.062c0.611,0.709,0.916,1.695,0.916,2.959c0,1.299-0.308,2.309-0.924,3.029
			c-0.615,0.721-1.362,1.08-2.238,1.08c-0.418,0-0.795-0.086-1.134-0.256c-0.339-0.172-0.695-0.465-1.07-0.879v3.918h-1.998V16.028z
			 M132.354,19.785c0,0.875,0.168,1.521,0.505,1.938c0.336,0.418,0.747,0.627,1.23,0.627c0.464,0,0.85-0.191,1.159-0.575
			c0.308-0.384,0.462-1.013,0.462-1.886c0-0.816-0.159-1.422-0.477-1.816c-0.317-0.396-0.71-0.594-1.18-0.594
			c-0.488,0-0.894,0.194-1.216,0.582C132.516,18.449,132.354,19.023,132.354,19.785z"/>
		<path fill="#002549" d="M140.687,23.807h-1.997v-7.778h1.855v1.106c0.316-0.523,0.603-0.867,0.855-1.033
			c0.254-0.166,0.542-0.249,0.864-0.249c0.454,0,0.894,0.13,1.315,0.388l-0.619,1.795c-0.336-0.225-0.648-0.337-0.938-0.337
			c-0.28,0-0.518,0.079-0.711,0.238c-0.195,0.159-0.348,0.445-0.459,0.86s-0.167,1.284-0.167,2.607V23.807z"/>
		<path fill="#002549" d="M143.425,19.808c0-0.684,0.163-1.345,0.49-1.985c0.327-0.639,0.79-1.127,1.39-1.465
			c0.6-0.336,1.27-0.505,2.008-0.505c1.143,0,2.078,0.382,2.809,1.146c0.729,0.765,1.094,1.729,1.094,2.896
			c0,1.177-0.368,2.152-1.105,2.926c-0.736,0.774-1.664,1.161-2.782,1.161c-0.692,0-1.353-0.161-1.979-0.483
			c-0.629-0.322-1.105-0.795-1.433-1.417C143.588,21.459,143.425,20.701,143.425,19.808z M145.472,19.918
			c0,0.771,0.178,1.361,0.533,1.771s0.794,0.615,1.315,0.615s0.958-0.205,1.311-0.615c0.354-0.41,0.53-1.006,0.53-1.787
			c0-0.762-0.177-1.348-0.53-1.758c-0.353-0.41-0.789-0.615-1.311-0.615s-0.96,0.205-1.315,0.615S145.472,19.146,145.472,19.918z"/>
		<path fill="#002549" d="M152.041,24.319l2.281,0.286c0.038,0.273,0.125,0.461,0.264,0.563c0.189,0.146,0.488,0.22,0.895,0.22
			c0.521,0,0.912-0.08,1.174-0.242c0.175-0.107,0.308-0.28,0.397-0.52c0.062-0.171,0.093-0.486,0.093-0.945v-1.135
			c-0.598,0.84-1.351,1.26-2.261,1.26c-1.014,0-1.817-0.441-2.409-1.326c-0.465-0.697-0.697-1.566-0.697-2.607
			c0-1.303,0.305-2.299,0.914-2.988c0.608-0.688,1.365-1.032,2.271-1.032c0.933,0,1.703,0.423,2.31,1.267v-1.091h1.869v6.979
			c0,0.918-0.073,1.604-0.22,2.059c-0.147,0.454-0.354,0.811-0.619,1.069s-0.619,0.462-1.062,0.608s-1.004,0.219-1.682,0.219
			c-1.279,0-2.187-0.226-2.722-0.677c-0.536-0.452-0.804-1.024-0.804-1.718C152.033,24.5,152.036,24.417,152.041,24.319z
			 M153.824,19.756c0,0.826,0.156,1.43,0.467,1.813c0.31,0.384,0.692,0.575,1.147,0.575c0.487,0,0.9-0.197,1.237-0.59
			c0.336-0.393,0.504-0.976,0.504-1.747c0-0.806-0.161-1.403-0.482-1.794c-0.322-0.391-0.73-0.586-1.223-0.586
			c-0.479,0-0.874,0.191-1.184,0.574C153.98,18.386,153.824,18.971,153.824,19.756z"/>
		<path fill="#002549" d="M162.477,23.807h-1.997v-7.778h1.855v1.106c0.317-0.523,0.603-0.867,0.856-1.033s0.541-0.249,0.863-0.249
			c0.455,0,0.894,0.13,1.315,0.388l-0.618,1.795c-0.337-0.225-0.649-0.337-0.938-0.337c-0.28,0-0.517,0.079-0.711,0.238
			s-0.347,0.445-0.458,0.86s-0.168,1.284-0.168,2.607V23.807z"/>
		<path fill="#002549" d="M167.17,18.401l-1.812-0.337c0.203-0.752,0.554-1.309,1.051-1.67c0.498-0.361,1.237-0.542,2.219-0.542
			c0.891,0,1.554,0.108,1.99,0.326c0.436,0.218,0.742,0.493,0.92,0.827c0.178,0.335,0.268,0.949,0.268,1.842l-0.021,2.402
			c0,0.684,0.031,1.188,0.096,1.513c0.063,0.325,0.184,0.673,0.359,1.044h-1.977c-0.053-0.137-0.116-0.34-0.192-0.607
			c-0.033-0.123-0.057-0.203-0.071-0.242c-0.341,0.342-0.705,0.598-1.094,0.77c-0.389,0.17-0.804,0.256-1.244,0.256
			c-0.777,0-1.39-0.217-1.838-0.652c-0.447-0.434-0.672-0.983-0.672-1.647c0-0.439,0.102-0.831,0.307-1.176
			c0.203-0.344,0.488-0.607,0.855-0.791c0.367-0.183,0.896-0.343,1.589-0.479c0.934-0.181,1.581-0.35,1.94-0.506v-0.205
			c0-0.395-0.095-0.677-0.284-0.846c-0.189-0.168-0.548-0.252-1.073-0.252c-0.355,0-0.633,0.072-0.832,0.216
			S167.293,18.04,167.17,18.401z M169.842,20.071c-0.256,0.088-0.66,0.192-1.215,0.315c-0.555,0.121-0.918,0.241-1.088,0.358
			c-0.261,0.19-0.391,0.433-0.391,0.726c0,0.287,0.104,0.537,0.312,0.746c0.209,0.211,0.474,0.315,0.796,0.315
			c0.36,0,0.704-0.122,1.03-0.366c0.242-0.186,0.4-0.412,0.477-0.682c0.053-0.176,0.078-0.51,0.078-1.003V20.071z"/>
		<path fill="#002549" d="M173.07,16.028h1.842v1.062c0.658-0.824,1.442-1.237,2.352-1.237c0.484,0,0.903,0.103,1.259,0.308
			s0.647,0.516,0.874,0.93c0.332-0.414,0.689-0.725,1.074-0.93c0.383-0.205,0.793-0.308,1.229-0.308
			c0.555,0,1.023,0.116,1.408,0.348c0.384,0.232,0.67,0.573,0.859,1.022c0.138,0.332,0.207,0.869,0.207,1.611v4.973h-1.998v-4.445
			c0-0.771-0.068-1.27-0.206-1.494c-0.185-0.293-0.47-0.439-0.853-0.439c-0.279,0-0.543,0.088-0.789,0.264s-0.424,0.434-0.533,0.772
			s-0.164,0.875-0.164,1.607v3.735h-1.997v-4.263c0-0.757-0.036-1.245-0.106-1.465c-0.071-0.22-0.182-0.384-0.33-0.491
			c-0.15-0.107-0.353-0.16-0.608-0.16c-0.308,0-0.585,0.085-0.831,0.256c-0.247,0.171-0.424,0.418-0.53,0.74
			s-0.159,0.856-0.159,1.604v3.779h-1.998V16.028z"/>
		<path fill="#002549" d="M187.104,18.401l-1.812-0.337c0.203-0.752,0.554-1.309,1.051-1.67c0.498-0.361,1.237-0.542,2.219-0.542
			c0.891,0,1.554,0.108,1.99,0.326c0.436,0.218,0.742,0.493,0.92,0.827c0.178,0.335,0.268,0.949,0.268,1.842l-0.021,2.402
			c0,0.684,0.031,1.188,0.096,1.513c0.063,0.325,0.184,0.673,0.359,1.044h-1.977c-0.053-0.137-0.116-0.34-0.192-0.607
			c-0.033-0.123-0.057-0.203-0.071-0.242c-0.341,0.342-0.705,0.598-1.094,0.77c-0.389,0.17-0.804,0.256-1.244,0.256
			c-0.777,0-1.39-0.217-1.838-0.652c-0.447-0.434-0.672-0.983-0.672-1.647c0-0.439,0.102-0.831,0.307-1.176
			c0.203-0.344,0.488-0.607,0.855-0.791c0.367-0.183,0.896-0.343,1.589-0.479c0.934-0.181,1.581-0.35,1.94-0.506v-0.205
			c0-0.395-0.095-0.677-0.284-0.846c-0.189-0.168-0.548-0.252-1.073-0.252c-0.355,0-0.633,0.072-0.832,0.216
			S187.227,18.04,187.104,18.401z M189.775,20.071c-0.256,0.088-0.66,0.192-1.215,0.315c-0.555,0.121-0.918,0.241-1.088,0.358
			c-0.261,0.19-0.391,0.433-0.391,0.726c0,0.287,0.104,0.537,0.312,0.746c0.209,0.211,0.474,0.315,0.796,0.315
			c0.36,0,0.704-0.122,1.03-0.366c0.242-0.186,0.4-0.412,0.477-0.682c0.053-0.176,0.078-0.51,0.078-1.003V20.071z"/>
	</g>
	<path opacity="0.7" fill-rule="evenodd" clip-rule="evenodd" fill="#FFFFFF" d="M35.597,12.284
		c-0.158-0.307-0.613-0.459-1.074-0.459h-1.067h-0.312h-2.75V8.92c0-0.763-0.608-1.374-1.375-1.374h-0.767V6.015
		c0-0.304-0.299-0.609-0.608-0.609h-13.92c-0.455,0-0.763,0.306-0.763,0.609v1.99h-0.608c-0.765,0-1.381,0.609-1.381,1.373v16.363
		c0,0.765,0.616,1.377,1.381,1.377h6.267h3.06h6.274h2.291h1.528c0.611,0,1.222-0.459,1.371-1.072l2.759-12.54V13.2
		C35.903,12.896,35.903,12.589,35.597,12.284 M15.56,11.671h12.084V6.015h-13.92v9.327l0.461-2.603
		C14.341,12.13,14.95,11.671,15.56,11.671 M28.252,11.671h0.308c0.153,0,0.306,0,0.306,0.154h0.153V8.92h-0.767V11.671z
		 M12.353,21.612l0.608-3.057V9.378h-0.608V21.612z M15.411,9.991c0-0.305,0.301-0.613,0.612-0.613h9.173
		c0.452,0,0.768,0.309,0.768,0.613c0,0.457-0.315,0.762-0.768,0.762h-9.173C15.711,10.753,15.411,10.448,15.411,9.991 M15.411,7.696
		c0-0.307,0.301-0.61,0.612-0.61h9.173c0.452,0,0.768,0.304,0.768,0.61c0,0.461-0.315,0.766-0.768,0.766h-9.173
		C15.711,8.462,15.411,8.157,15.411,7.696"/>
</g>
</svg>
