<?xml version="1.0" encoding="utf-8"?>
<!-- Generator: Adobe Illustrator 16.0.0, SVG Export Plug-In . SVG Version: 6.00 Build 0)  -->
<!DOCTYPE svg PUBLIC "-//W3C//DTD SVG 1.1//EN" "http://www.w3.org/Graphics/SVG/1.1/DTD/svg11.dtd">
<svg version="1.1" id="Capa_1" xmlns="http://www.w3.org/2000/svg" xmlns:xlink="http://www.w3.org/1999/xlink" x="0px" y="0px"
	 width="238.951px" height="54.931px" viewBox="0 0 238.951 54.931" enable-background="new 0 0 238.951 54.931"
	 xml:space="preserve">
<g>
	<polygon opacity="0.7" fill="#FFFFFF" points="215.264,0 238.951,27.466 215.264,54.931 193.701,54.931 217.389,27.466 193.701,0 	
		"/>
	<polygon opacity="0.7" fill="#FFFFFF" points="23.691,54.931 0,27.464 23.691,0 45.254,0 21.562,27.464 45.254,54.931 	"/>
	<polygon opacity="0.9" fill="#FFFFFF" points="51.779,0 187.176,0 210.863,27.466 187.176,54.931 51.779,54.931 28.088,27.466 	"/>
	<g>
		<path fill="#0C488D" d="M79.99,38.429V16.008h3.884v22.421H79.99z"/>
		<path fill="#0C488D" d="M86.593,38.429V16.008h3.779l7.873,14.972V16.008h3.608v22.421h-3.896l-7.756-14.622v14.622H86.593z"/>
		<path fill="#0C488D" d="M104.821,38.429V16.008h3.884v22.421H104.821z"/>
		<path fill="#0C488D" d="M123.693,30.185l3.766,1.393c-0.577,2.447-1.537,4.264-2.88,5.451c-1.344,1.188-3.047,1.783-5.111,1.783
			c-2.555,0-4.654-1.018-6.299-3.053c-1.645-2.033-2.467-4.814-2.467-8.342c0-3.732,0.827-6.63,2.48-8.695s3.827-3.098,6.521-3.098
			c2.353,0,4.265,0.811,5.734,2.433c0.874,0.958,1.53,2.335,1.968,4.129l-3.845,1.07c-0.228-1.162-0.702-2.08-1.424-2.753
			s-1.599-1.009-2.631-1.009c-1.426,0-2.583,0.596-3.471,1.789s-1.331,3.125-1.331,5.797c0,2.834,0.437,4.852,1.312,6.055
			s2.012,1.805,3.412,1.805c1.032,0,1.92-0.381,2.663-1.146C122.836,33.031,123.369,31.828,123.693,30.185z"/>
		<path fill="#0C488D" d="M129.652,38.429V16.008h3.884v22.421H129.652z"/>
		<path fill="#0C488D" d="M135.429,27.355c0-2.283,0.293-4.2,0.879-5.75c0.438-1.142,1.034-2.167,1.791-3.074
			s1.586-1.58,2.486-2.019c1.199-0.592,2.581-0.888,4.146-0.888c2.835,0,5.103,1.025,6.804,3.074c1.702,2.05,2.553,4.899,2.553,8.55
			c0,3.619-0.845,6.451-2.532,8.494c-1.688,2.045-3.946,3.068-6.771,3.068c-2.86,0-5.135-1.018-6.823-3.053
			C136.272,33.726,135.429,30.925,135.429,27.355z M139.431,27.203c0,2.539,0.503,4.463,1.509,5.773s2.283,1.965,3.832,1.965
			c1.548,0,2.818-0.648,3.812-1.949s1.489-3.25,1.489-5.85c0-2.569-0.483-4.486-1.45-5.75c-0.966-1.265-2.25-1.896-3.851-1.896
			c-1.602,0-2.892,0.64-3.871,1.919C139.921,22.694,139.431,24.624,139.431,27.203z"/>
	</g>
</g>
</svg>
