<?xml version="1.0" encoding="utf-8"?>
<!-- Generator: Adobe Illustrator 16.0.0, SVG Export Plug-In . SVG Version: 6.00 Build 0)  -->
<!DOCTYPE svg PUBLIC "-//W3C//DTD SVG 1.1//EN" "http://www.w3.org/Graphics/SVG/1.1/DTD/svg11.dtd">
<svg version="1.1" id="Capa_1" xmlns="http://www.w3.org/2000/svg" xmlns:xlink="http://www.w3.org/1999/xlink" x="0px" y="0px"
	 width="145.917px" height="121.759px" viewBox="0 0 145.917 121.759" enable-background="new 0 0 145.917 121.759"
	 xml:space="preserve">
<g>
	<path fill-rule="evenodd" clip-rule="evenodd" fill="#0C488D" d="M145.918,109.759c0,6.627-5.373,12-12,12H12
		c-6.627,0-12-5.373-12-12V85.86c0-6.627,5.373-12,12-12h121.918c6.627,0,12,5.373,12,12V109.759z"/>
	<path fill-rule="evenodd" clip-rule="evenodd" fill="#042F5B" d="M61.99,72.558l52.416,49.201h19.512c0,0,10.105-0.002,12-10.76
		l-0.07-26.422c0,0-1.492-10.717-11.93-10.717L61.99,72.558z"/>
	<g>
		<defs>
			<circle id="SVGID_1_" cx="72.959" cy="41.447" r="41.447"/>
		</defs>
		<clipPath id="SVGID_2_">
			<use xlink:href="#SVGID_1_"  overflow="visible"/>
		</clipPath>
		<g clip-path="url(#SVGID_2_)">
			<path fill-rule="evenodd" clip-rule="evenodd" fill="#0C488D" d="M65.654-5.54c4.869,0,9.738,0,14.609,0
				c-0.057,0.811,0.623,0.611,1.021,0.688c19.537,3.732,34.004,18.198,37.736,37.736c0.076,0.397-0.123,1.078,0.688,1.021
				c0,1.705,0,3.409,0,5.113c-0.721,0.037-1.262-0.372-1.824-0.733c-6.84-4.396-13.684-8.791-20.525-13.186
				c-0.984-1.064-1.93-2.168-2.959-3.187c-2.824-2.791-5.266-5.958-8.357-8.484c-0.684-0.359-1.422-0.329-2.16-0.305
				c-7.846,0.005-15.689,0.005-23.535,0.019c-4.91,0.009-7.631,2.575-7.65,7.494c-0.057,13.866-0.049,27.733-0.002,41.6
				c0.014,4.121,1.969,6.346,6.025,7.242c1.768,1.663,3.531,3.331,5.305,4.988c3.459,3.231,6.963,6.419,10.367,9.707
				c1.201,1.159,2.723,2.078,3.314,3.786c-4.018,0-8.035,0-12.053,0c0.057-0.81-0.625-0.611-1.021-0.688
				c-19.539-3.731-34.006-18.198-37.736-37.736c-0.076-0.397,0.121-1.077-0.688-1.021c0-4.869,0-9.739,0-14.609
				c0.811,0.057,0.611-0.624,0.688-1.021C30.627,13.346,45.094-1.12,64.633-4.853C65.029-4.929,65.709-4.73,65.654-5.54z"/>
			<path fill-rule="evenodd" clip-rule="evenodd" fill="#042F5B" d="M77.707,87.96c-0.592-1.708-2.113-2.627-3.314-3.786
				c-3.404-3.288-6.908-6.476-10.367-9.707c-1.773-1.657-3.537-3.325-5.305-4.988c4.584,0,9.168,0,13.951,0
				c-1.129-2.123-2.402-3.121-4.629-2.94c-2.539,0.206-5.107,0.052-7.664,0.047c-3.385-0.007-4.861-1.37-4.873-4.694
				c-0.033-9.434,0.012-18.867-0.041-28.301c-0.008-1.307,0.529-1.48,1.623-1.464c3.285,0.053,6.572,0.02,9.859,0.02
				c8.643,0,17.285-0.003,25.928,0.004c0.803,0.001,1.715-0.29,1.707,1.15c-0.045,9.86-0.004,19.72-0.057,29.579
				c-0.01,1.823-1.02,3.283-2.854,3.508c-1.912,0.234-2.727,1.457-3.869,3.012c1.201,0,2.094,0.009,2.984-0.002
				c3.674-0.043,6.596-2.724,6.617-6.376c0.068-11.503,0.018-23.006,0.045-34.51c0.002-0.926-0.219-1.327-1.213-1.262
				c-1.15,0.075-2.311,0.034-3.467,0.013c-4.953-0.09-8.727-3.897-8.789-8.85c-0.023-1.763-0.064-3.525-0.098-5.288
				c0.738-0.024,1.477-0.055,2.16,0.305c0.008,1.823-0.051,3.649,0.039,5.469c0.172,3.422,2.756,6.046,6.182,6.241
				c1.693,0.097,3.396-0.02,5.096-0.039c6.842,4.395,13.686,8.789,20.525,13.186c0.563,0.361,1.104,0.771,1.824,0.733
				c0,3.287,0,6.574,0,9.861c-0.785-0.125-0.631,0.526-0.719,0.918c-4.629,20.337-17.111,32.812-37.445,37.443
				c-0.391,0.089-1.043-0.066-0.916,0.719C79.654,87.96,78.68,87.96,77.707,87.96z M89.404,64.525c-1.383,0-2.332-0.074-3.264,0.019
				c-1.207,0.12-1.555-0.326-1.521-1.521c0.082-2.975-0.002-5.955,0.043-8.932c0.016-0.907-0.182-1.308-1.193-1.273
				c-2.125,0.071-4.254,0.064-6.379,0.002c-0.963-0.029-1.256,0.285-1.229,1.239c0.061,2.246,0.02,4.496,0.02,6.744
				c0,3.576,0,3.575-3.648,3.729c-0.217,0.009-0.434,0.049-0.979,0.114c2.961,3.398,5.734,6.573,8.496,9.761
				c0.365,0.423,0.672,0.438,1.033,0.024C83.553,71.245,86.324,68.062,89.404,64.525z M84.51,36.461
				c-1.758,0-3.516,0.021-5.273-0.007c-1.066-0.017-1.551,0.445-1.537,1.523c0.025,2.182,0.018,4.364,0.004,6.547
				c-0.006,0.985,0.453,1.435,1.436,1.432c3.576-0.013,7.154-0.01,10.73-0.007c0.895,0,1.342-0.423,1.342-1.327
				c-0.004-2.243-0.008-4.486,0.006-6.729c0.008-0.984-0.447-1.441-1.432-1.434C88.027,36.475,86.27,36.464,84.51,36.461z
				 M75.271,50.707c-4.742,0-9.482-0.005-14.223,0.005c-0.9,0.002-1.938-0.151-1.951,1.255c-0.012,1.396,1,1.289,1.918,1.291
				c3.586,0.007,7.172-0.003,10.758,0.007c1.113,0.003,2.246,0.138,2.393-1.481c0.051-0.576,0.627-0.692,1.135-0.694
				c3.281-0.009,6.564-0.009,9.846-0.005c0.5,0.001,1.066,0.063,1.191,0.628c0.199,0.912,0.465,1.634,1.607,1.55
				c0.846-0.063,1.699-0.03,2.543-0.105c0.393-0.036,0.602-0.371,0.67-0.765c0.234-1.342-0.469-1.699-1.666-1.693
				C84.752,50.724,80.012,50.709,75.271,50.707z M66.746,43.409c-2.061,0-4.121,0.002-6.182-0.001
				c-0.811-0.001-1.434,0.197-1.469,1.186c-0.037,1.056,0.543,1.365,1.477,1.363c3.998-0.009,7.998-0.005,11.996-0.003
				c0.813,0,1.434-0.196,1.469-1.186c0.039-1.054-0.541-1.368-1.475-1.362C70.623,43.418,68.684,43.409,66.746,43.409z
				 M66.383,38.648c2.061,0,4.121,0.006,6.182-0.002c0.697-0.003,1.377-0.073,1.443-0.994c0.064-0.899-0.443-1.449-1.262-1.458
				c-4.119-0.046-8.236-0.046-12.354-0.001c-0.82,0.009-1.33,0.556-1.268,1.456c0.064,0.921,0.744,0.993,1.441,0.997
				C62.506,38.654,64.445,38.648,66.383,38.648z M66.574,58.011c-1.887,0-3.771-0.016-5.656,0.008
				c-0.762,0.01-1.697-0.162-1.787,1.018c-0.082,1.077,0.738,1.41,1.531,1.422c4.01,0.06,8.021,0.059,12.031,0.021
				c0.816-0.008,1.354-0.515,1.313-1.428c-0.043-0.926-0.701-1.03-1.412-1.033C70.586,58.012,68.58,58.017,66.574,58.011z
				 M88.969,58.05c0-0.004,0-0.007,0-0.011c-0.48,0-0.963-0.022-1.441,0.006c-0.631,0.038-0.994,0.368-1.002,1.03
				c-0.01,0.642,0.287,1.055,0.938,1.084c0.9,0.04,1.803,0.041,2.701,0.011c0.627-0.021,0.994-0.367,1.004-1.029
				c0.008-0.643-0.289-1.033-0.939-1.085C89.811,58.023,89.389,58.05,88.969,58.05z"/>
			<path fill-rule="evenodd" clip-rule="evenodd" fill="#F7F3F4" d="M83.883,13.124c0.033,1.763,0.074,3.525,0.098,5.288
				c0.063,4.952,3.836,8.76,8.789,8.85c1.156,0.021,2.316,0.063,3.467-0.013c0.994-0.065,1.215,0.336,1.213,1.262
				c-0.027,11.504,0.023,23.007-0.045,34.51c-0.021,3.652-2.943,6.333-6.617,6.376c-0.891,0.011-1.783,0.002-2.984,0.002
				c1.143-1.555,1.957-2.777,3.869-3.012c1.834-0.225,2.844-1.685,2.854-3.508c0.053-9.859,0.012-19.719,0.057-29.579
				c0.008-1.44-0.904-1.149-1.707-1.15c-8.643-0.007-17.285-0.004-25.928-0.004c-3.287,0-6.574,0.033-9.859-0.02
				c-1.094-0.017-1.631,0.157-1.623,1.464c0.053,9.434,0.008,18.867,0.041,28.301c0.012,3.324,1.488,4.688,4.873,4.694
				c2.557,0.005,5.125,0.159,7.664-0.047c2.227-0.181,3.5,0.817,4.629,2.94c-4.783,0-9.367,0-13.951,0
				c-4.057-0.896-6.012-3.121-6.025-7.242c-0.047-13.866-0.055-27.733,0.002-41.6c0.02-4.919,2.74-7.485,7.65-7.494
				C68.193,13.129,76.037,13.129,83.883,13.124z M67.162,26.61c2.865-0.003,3.945-0.498,4.604-1.978
				c0.744-1.677,0.443-3.849-0.686-4.949c-0.813-0.792-4.369-1.364-5.408-0.91c-0.533,0.232-0.447,0.668-0.451,1.072
				c-0.014,1.52,0.119,3.052-0.039,4.554C64.988,26.24,65.553,27.045,67.162,26.61z M60.43,18.753
				c-2.441-0.008-2.441-0.008-2.443,2.369c0,1.455,0.016,2.909-0.006,4.364c-0.01,0.669,0.021,1.142,0.934,1.137
				c0.943-0.006,0.986-0.548,0.879-1.171c-0.262-1.54,0.498-1.768,1.832-1.751c2.082,0.027,3.211-1.842,2.301-3.603
				C63.162,18.622,61.762,18.772,60.43,18.753z M73.25,22.726c0,0.852-0.014,1.703,0.004,2.554c0.014,0.627-0.213,1.391,0.91,1.343
				c0.979-0.042,0.869-0.718,0.807-1.28c-0.162-1.434,0.238-2.193,1.857-1.982c0.496,0.065,1.354,0.358,1.404-0.629
				c0.059-1.109-0.848-0.707-1.434-0.844c-0.643-0.15-1.818,0.56-1.75-0.84c0.061-1.203,1.121-0.508,1.719-0.694
				c0.168-0.052,0.365,0.009,0.545-0.011c0.602-0.067,1.459,0.273,1.428-0.847c-0.027-0.975-0.785-0.735-1.342-0.762
				C73.25,18.543,73.25,18.548,73.25,22.726z"/>
			<path fill-rule="evenodd" clip-rule="evenodd" fill="#F7F3F4" d="M97.359,25.1c-1.699,0.02-3.402,0.136-5.096,0.039
				c-3.426-0.195-6.01-2.819-6.182-6.241c-0.09-1.819-0.031-3.646-0.039-5.469c3.092,2.526,5.533,5.693,8.357,8.484
				C95.43,22.932,96.375,24.035,97.359,25.1z"/>
			<path fill-rule="evenodd" clip-rule="evenodd" fill="#FEFDFD" d="M89.404,64.525c-3.08,3.536-5.852,6.72-8.621,9.905
				c-0.361,0.414-0.668,0.398-1.033-0.024c-2.762-3.188-5.535-6.362-8.496-9.761c0.545-0.065,0.762-0.105,0.979-0.114
				c3.648-0.153,3.648-0.152,3.648-3.729c0-2.248,0.041-4.498-0.02-6.744c-0.027-0.954,0.266-1.269,1.229-1.239
				c2.125,0.063,4.254,0.069,6.379-0.002c1.012-0.034,1.209,0.366,1.193,1.273c-0.045,2.977,0.039,5.957-0.043,8.932
				c-0.033,1.195,0.314,1.642,1.521,1.521C87.072,64.451,88.021,64.525,89.404,64.525z"/>
			<path fill-rule="evenodd" clip-rule="evenodd" fill="#0C488D" d="M84.51,36.463c1.76,0.001,3.518,0.012,5.275-0.004
				c0.984-0.008,1.439,0.449,1.432,1.434c-0.014,2.243-0.01,4.486-0.006,6.729c0,0.904-0.447,1.327-1.342,1.327
				c-3.576-0.003-7.154-0.006-10.73,0.007c-0.982,0.003-1.441-0.446-1.436-1.432c0.014-2.183,0.021-4.365-0.004-6.547
				c-0.014-1.078,0.471-1.54,1.537-1.523C80.994,36.481,82.752,36.461,84.51,36.463z"/>
			<path fill-rule="evenodd" clip-rule="evenodd" fill="#0C488D" d="M75.271,50.708c4.74,0.001,9.48,0.016,14.221-0.01
				c1.197-0.006,1.9,0.352,1.666,1.693c-0.068,0.394-0.277,0.729-0.67,0.765c-0.844,0.075-1.697,0.043-2.543,0.105
				c-1.143,0.084-1.408-0.638-1.607-1.55c-0.125-0.564-0.691-0.627-1.191-0.628c-3.281-0.004-6.564-0.004-9.846,0.005
				c-0.508,0.002-1.084,0.118-1.135,0.694c-0.146,1.619-1.279,1.484-2.393,1.481c-3.586-0.01-7.172,0-10.758-0.007
				c-0.918-0.002-1.93,0.105-1.918-1.291c0.014-1.406,1.051-1.253,1.951-1.255C65.789,50.702,70.529,50.707,75.271,50.708z"/>
			<path fill-rule="evenodd" clip-rule="evenodd" fill="#0C488D" d="M66.746,43.409c1.938,0,3.877,0.009,5.816-0.003
				c0.934-0.006,1.514,0.309,1.475,1.362c-0.035,0.989-0.656,1.186-1.469,1.186c-3.998-0.002-7.998-0.006-11.996,0.003
				c-0.934,0.002-1.514-0.308-1.477-1.363c0.035-0.988,0.658-1.187,1.469-1.186C62.625,43.411,64.686,43.409,66.746,43.409z"/>
			<path fill-rule="evenodd" clip-rule="evenodd" fill="#0C488D" d="M66.383,38.648c-1.938,0-3.877,0.006-5.816-0.002
				c-0.697-0.004-1.377-0.076-1.441-0.997c-0.063-0.9,0.447-1.447,1.268-1.456c4.117-0.045,8.234-0.045,12.354,0.001
				c0.818,0.009,1.326,0.559,1.262,1.458c-0.066,0.921-0.746,0.991-1.443,0.994C70.504,38.654,68.443,38.648,66.383,38.648z"/>
			<path fill-rule="evenodd" clip-rule="evenodd" fill="#0C488D" d="M66.574,58.014c2.006,0.003,4.012-0.002,6.02,0.005
				c0.711,0.003,1.369,0.107,1.412,1.033c0.041,0.913-0.496,1.42-1.313,1.428c-4.01,0.037-8.021,0.038-12.031-0.021
				c-0.793-0.012-1.613-0.345-1.531-1.422c0.09-1.18,1.025-1.008,1.787-1.018C62.803,57.995,64.688,58.011,66.574,58.014z"/>
			<path fill-rule="evenodd" clip-rule="evenodd" fill="#0C488D" d="M88.969,58.05c0.42,0,0.842-0.026,1.26,0.006
				c0.65,0.052,0.947,0.442,0.939,1.085c-0.01,0.662-0.377,1.009-1.004,1.029c-0.898,0.03-1.801,0.029-2.701-0.011
				c-0.65-0.029-0.947-0.442-0.938-1.084c0.008-0.662,0.371-0.992,1.002-1.03c0.479-0.028,0.961-0.006,1.441-0.006
				C88.969,58.043,88.969,58.046,88.969,58.05z"/>
			<path fill-rule="evenodd" clip-rule="evenodd" fill="#0C488D" d="M67.162,26.61c-1.609,0.435-2.174-0.37-1.98-2.211
				c0.158-1.502,0.025-3.034,0.039-4.554c0.004-0.404-0.082-0.84,0.451-1.072c1.039-0.454,4.596,0.118,5.408,0.91
				c1.129,1.101,1.43,3.272,0.686,4.949C71.107,26.112,70.027,26.607,67.162,26.61z M68.131,20.356
				c-0.689-0.105-1.123,0.099-1.07,0.953c0.047,0.726-0.021,1.458,0.018,2.184c0.027,0.514-0.264,1.216,0.338,1.479
				c0.613,0.266,1.342,0.15,1.928-0.225c1.023-0.655,1.133-1.688,0.895-2.741C70,20.956,69.344,20.298,68.131,20.356z"/>
			<path fill-rule="evenodd" clip-rule="evenodd" fill="#0C488D" d="M60.432,18.752c1.33,0.021,2.73-0.13,3.494,1.347
				c0.91,1.761-0.219,3.63-2.301,3.603c-1.334-0.017-2.094,0.211-1.832,1.751c0.107,0.623,0.064,1.165-0.879,1.171
				c-0.912,0.005-0.943-0.468-0.934-1.137c0.021-1.455,0.006-2.909,0.006-4.364C57.988,18.745,57.988,18.745,60.432,18.752z
				 M60.652,20.176c-0.645-0.115-0.881,0.32-0.867,1.166c0.014,0.752,0.201,1.155,1.021,1.062c0.719-0.083,1.545-0.032,1.594-1.061
				C62.451,20.295,61.656,20.266,60.652,20.176z"/>
			<path fill-rule="evenodd" clip-rule="evenodd" fill="#0C488D" d="M73.25,22.726c0-4.178,0-4.183,4.148-3.992
				c0.557,0.026,1.314-0.213,1.342,0.762c0.031,1.12-0.826,0.779-1.428,0.847c-0.18,0.02-0.377-0.041-0.545,0.011
				c-0.598,0.187-1.658-0.509-1.719,0.694c-0.068,1.399,1.107,0.689,1.75,0.84c0.586,0.137,1.492-0.266,1.434,0.844
				c-0.051,0.987-0.908,0.694-1.404,0.629c-1.619-0.211-2.02,0.549-1.857,1.982c0.063,0.563,0.172,1.238-0.807,1.28
				c-1.123,0.048-0.896-0.716-0.91-1.343C73.236,24.429,73.25,23.577,73.25,22.726z"/>
			<path fill-rule="evenodd" clip-rule="evenodd" fill="#F7F3F4" d="M68.131,20.356c1.213-0.059,1.869,0.6,2.107,1.649
				c0.238,1.054,0.129,2.086-0.895,2.741c-0.586,0.375-1.314,0.49-1.928,0.225c-0.602-0.263-0.311-0.965-0.338-1.479
				c-0.039-0.726,0.029-1.458-0.018-2.184C67.008,20.455,67.441,20.251,68.131,20.356z"/>
			<path fill-rule="evenodd" clip-rule="evenodd" fill="#F7F3F4" d="M60.652,20.176c1.004,0.09,1.799,0.119,1.748,1.167
				c-0.049,1.028-0.875,0.978-1.594,1.061c-0.82,0.094-1.008-0.31-1.021-1.062C59.771,20.496,60.008,20.061,60.652,20.176z"/>
		</g>
	</g>
	<g>
		<path fill="#DDDDDD" d="M20.949,91.135L15.957,78.25h1.846l3.348,9.36c0.27,0.75,0.496,1.453,0.678,2.109
			c0.199-0.703,0.43-1.406,0.693-2.109l3.48-9.36h1.74l-5.045,12.885H20.949z"/>
		<path fill="#DDDDDD" d="M35.459,88.129l1.635,0.202c-0.258,0.955-0.734,1.696-1.432,2.224s-1.588,0.791-2.672,0.791
			c-1.365,0-2.448-0.421-3.248-1.261c-0.8-0.842-1.199-2.021-1.199-3.538c0-1.57,0.404-2.789,1.213-3.656s1.857-1.301,3.146-1.301
			c1.248,0,2.268,0.425,3.059,1.274s1.186,2.045,1.186,3.586c0,0.094-0.002,0.234-0.008,0.422h-6.961
			c0.059,1.025,0.348,1.811,0.869,2.355s1.172,0.817,1.951,0.817c0.58,0,1.076-0.152,1.486-0.457S35.219,88.797,35.459,88.129z
			 M30.266,85.571h5.211c-0.07-0.785-0.27-1.374-0.598-1.767c-0.504-0.609-1.156-0.914-1.959-0.914
			c-0.727,0-1.338,0.243-1.833,0.729S30.318,84.757,30.266,85.571z"/>
		<path fill="#DDDDDD" d="M39.063,91.135v-9.334h1.424v1.415c0.363-0.662,0.699-1.099,1.007-1.31s0.646-0.316,1.015-0.316
			c0.533,0,1.076,0.17,1.627,0.51l-0.545,1.468c-0.387-0.229-0.773-0.343-1.16-0.343c-0.346,0-0.656,0.104-0.932,0.312
			c-0.275,0.209-0.473,0.497-0.59,0.866c-0.176,0.563-0.264,1.178-0.264,1.846v4.887H39.063z"/>
		<path fill="#DDDDDD" d="M50.059,91.135v-9.334h1.424v1.415c0.363-0.662,0.698-1.099,1.006-1.31s0.646-0.316,1.016-0.316
			c0.533,0,1.074,0.17,1.625,0.51l-0.545,1.468c-0.387-0.229-0.773-0.343-1.16-0.343c-0.346,0-0.656,0.104-0.932,0.312
			c-0.275,0.209-0.471,0.497-0.588,0.866c-0.176,0.563-0.264,1.178-0.264,1.846v4.887H50.059z"/>
		<path fill="#DDDDDD" d="M62.459,88.129l1.635,0.202c-0.258,0.955-0.734,1.696-1.432,2.224s-1.588,0.791-2.672,0.791
			c-1.365,0-2.448-0.421-3.248-1.261c-0.8-0.842-1.199-2.021-1.199-3.538c0-1.57,0.404-2.789,1.213-3.656s1.857-1.301,3.146-1.301
			c1.248,0,2.268,0.425,3.059,1.274s1.186,2.045,1.186,3.586c0,0.094-0.002,0.234-0.008,0.422h-6.961
			c0.059,1.025,0.348,1.811,0.869,2.355s1.172,0.817,1.951,0.817c0.58,0,1.076-0.152,1.486-0.457S62.219,88.797,62.459,88.129z
			 M57.266,85.571h5.211c-0.07-0.785-0.27-1.374-0.598-1.767c-0.504-0.609-1.156-0.914-1.959-0.914
			c-0.727,0-1.338,0.243-1.833,0.729S57.318,84.757,57.266,85.571z"/>
		<path fill="#DDDDDD" d="M65.447,88.349l1.564-0.246c0.088,0.627,0.333,1.107,0.734,1.441s0.963,0.501,1.684,0.501
			c0.727,0,1.266-0.147,1.617-0.444c0.352-0.295,0.527-0.643,0.527-1.041c0-0.357-0.156-0.639-0.467-0.844
			c-0.217-0.141-0.756-0.319-1.617-0.536c-1.16-0.293-1.964-0.546-2.412-0.761c-0.448-0.213-0.788-0.51-1.02-0.887
			c-0.231-0.379-0.348-0.796-0.348-1.253c0-0.416,0.096-0.802,0.286-1.155c0.19-0.355,0.45-0.649,0.778-0.884
			c0.246-0.182,0.581-0.335,1.006-0.462c0.425-0.125,0.881-0.188,1.367-0.188c0.732,0,1.375,0.105,1.929,0.316
			s0.962,0.497,1.226,0.856c0.264,0.361,0.445,0.843,0.545,1.446l-1.547,0.211c-0.07-0.48-0.273-0.855-0.61-1.125
			s-0.813-0.404-1.429-0.404c-0.727,0-1.244,0.12-1.555,0.36s-0.467,0.521-0.467,0.844c0,0.205,0.064,0.39,0.193,0.554
			c0.129,0.17,0.332,0.311,0.607,0.422c0.158,0.059,0.623,0.193,1.396,0.404c1.119,0.299,1.9,0.544,2.343,0.733
			c0.442,0.191,0.79,0.468,1.042,0.831s0.377,0.814,0.377,1.354c0,0.527-0.153,1.024-0.461,1.489
			c-0.308,0.467-0.752,0.826-1.332,1.082c-0.58,0.254-1.236,0.382-1.969,0.382c-1.213,0-2.137-0.252-2.772-0.756
			S65.623,89.339,65.447,88.349z"/>
		<path fill="#DDDDDD" d="M81.197,91.135v-1.371c-0.727,1.055-1.713,1.582-2.961,1.582c-0.551,0-1.065-0.105-1.543-0.316
			s-0.832-0.476-1.063-0.796c-0.231-0.318-0.394-0.71-0.487-1.173c-0.064-0.311-0.098-0.803-0.098-1.477v-5.783h1.582v5.177
			c0,0.826,0.033,1.383,0.098,1.67c0.1,0.416,0.311,0.742,0.633,0.98c0.322,0.236,0.721,0.355,1.195,0.355s0.92-0.121,1.336-0.365
			c0.416-0.242,0.71-0.574,0.883-0.992c0.173-0.42,0.26-1.027,0.26-1.824v-5.001h1.582v9.334H81.197z"/>
		<path fill="#DDDDDD" d="M85.057,91.135V78.25h1.582v12.885H85.057z"/>
		<path fill="#DDDDDD" d="M92.545,89.72l0.229,1.397c-0.445,0.094-0.844,0.141-1.195,0.141c-0.574,0-1.02-0.091-1.336-0.272
			s-0.539-0.42-0.668-0.717c-0.129-0.295-0.193-0.918-0.193-1.867v-5.37h-1.16v-1.23h1.16v-2.312l1.572-0.949v3.261h1.592v1.23
			h-1.592v5.458c0,0.451,0.028,0.741,0.084,0.87s0.146,0.231,0.272,0.308s0.306,0.114,0.54,0.114
			C92.025,89.781,92.258,89.761,92.545,89.72z"/>
		<path fill="#DDDDDD" d="M100.182,89.983c-0.586,0.498-1.149,0.85-1.691,1.055s-1.123,0.308-1.744,0.308
			c-1.025,0-1.814-0.251-2.365-0.751c-0.551-0.502-0.826-1.142-0.826-1.921c0-0.457,0.104-0.874,0.313-1.253
			c0.208-0.377,0.48-0.681,0.817-0.909s0.716-0.401,1.138-0.519c0.311-0.082,0.779-0.161,1.406-0.237
			c1.277-0.152,2.219-0.334,2.822-0.545c0.006-0.217,0.008-0.354,0.008-0.413c0-0.645-0.148-1.099-0.447-1.362
			c-0.404-0.357-1.006-0.536-1.803-0.536c-0.744,0-1.293,0.131-1.647,0.391c-0.354,0.262-0.616,0.723-0.786,1.385l-1.547-0.211
			c0.141-0.662,0.371-1.197,0.693-1.604c0.322-0.408,0.789-0.721,1.398-0.941c0.609-0.219,1.314-0.329,2.117-0.329
			c0.797,0,1.445,0.094,1.943,0.281s0.863,0.423,1.098,0.708c0.234,0.283,0.398,0.643,0.492,1.076c0.053,0.27,0.08,0.756,0.08,1.459
			v2.109c0,1.471,0.033,2.4,0.101,2.791c0.067,0.389,0.2,0.763,0.399,1.12h-1.652C100.334,90.807,100.229,90.423,100.182,89.983z
			 M100.051,86.45c-0.574,0.234-1.436,0.434-2.584,0.598c-0.65,0.094-1.111,0.199-1.381,0.316s-0.477,0.289-0.623,0.514
			c-0.146,0.227-0.221,0.477-0.221,0.752c0,0.422,0.16,0.773,0.479,1.055s0.786,0.422,1.401,0.422c0.609,0,1.152-0.133,1.627-0.4
			c0.475-0.266,0.822-0.631,1.045-1.094c0.17-0.357,0.256-0.885,0.256-1.582V86.45z"/>
		<path fill="#DDDDDD" d="M110.158,91.135v-1.178c-0.592,0.926-1.463,1.389-2.611,1.389c-0.744,0-1.428-0.205-2.052-0.615
			s-1.107-0.983-1.45-1.718c-0.343-0.736-0.514-1.581-0.514-2.536c0-0.932,0.154-1.776,0.465-2.536
			c0.311-0.758,0.777-1.34,1.398-1.744s1.314-0.606,2.082-0.606c0.563,0,1.064,0.118,1.504,0.356
			c0.439,0.236,0.797,0.546,1.072,0.927V78.25h1.572v12.885H110.158z M105.156,86.477c0,1.195,0.252,2.089,0.756,2.681
			s1.1,0.888,1.785,0.888c0.691,0,1.278-0.282,1.762-0.849c0.483-0.564,0.725-1.428,0.725-2.588c0-1.277-0.246-2.215-0.738-2.813
			s-1.098-0.896-1.818-0.896c-0.703,0-1.291,0.287-1.763,0.861S105.156,85.24,105.156,86.477z"/>
		<path fill="#DDDDDD" d="M113.523,86.468c0-1.729,0.48-3.009,1.441-3.841c0.803-0.691,1.781-1.037,2.936-1.037
			c1.283,0,2.332,0.421,3.146,1.261c0.814,0.842,1.223,2.003,1.223,3.485c0,1.201-0.18,2.146-0.541,2.835
			c-0.359,0.688-0.885,1.223-1.572,1.604c-0.689,0.381-1.441,0.571-2.256,0.571c-1.307,0-2.362-0.419-3.168-1.257
			S113.523,88.044,113.523,86.468z M115.15,86.468c0,1.195,0.26,2.09,0.781,2.686c0.521,0.594,1.178,0.892,1.969,0.892
			c0.785,0,1.439-0.299,1.961-0.896s0.781-1.509,0.781-2.733c0-1.154-0.262-2.029-0.786-2.623c-0.524-0.596-1.177-0.893-1.956-0.893
			c-0.791,0-1.447,0.296-1.969,0.888S115.15,85.272,115.15,86.468z"/>
		<path fill="#DDDDDD" d="M123.49,88.349l1.564-0.246c0.088,0.627,0.334,1.107,0.734,1.441c0.402,0.334,0.963,0.501,1.684,0.501
			c0.727,0,1.266-0.147,1.617-0.444c0.352-0.295,0.527-0.643,0.527-1.041c0-0.357-0.156-0.639-0.467-0.844
			c-0.217-0.141-0.756-0.319-1.617-0.536c-1.16-0.293-1.963-0.546-2.412-0.761c-0.447-0.213-0.787-0.51-1.02-0.887
			c-0.23-0.379-0.348-0.796-0.348-1.253c0-0.416,0.096-0.802,0.287-1.155c0.189-0.355,0.449-0.649,0.777-0.884
			c0.246-0.182,0.582-0.335,1.006-0.462c0.426-0.125,0.881-0.188,1.367-0.188c0.732,0,1.375,0.105,1.93,0.316
			c0.553,0.211,0.961,0.497,1.225,0.856c0.264,0.361,0.445,0.843,0.545,1.446l-1.547,0.211c-0.07-0.48-0.273-0.855-0.609-1.125
			c-0.338-0.27-0.814-0.404-1.43-0.404c-0.727,0-1.244,0.12-1.555,0.36s-0.467,0.521-0.467,0.844c0,0.205,0.064,0.39,0.193,0.554
			c0.129,0.17,0.332,0.311,0.607,0.422c0.158,0.059,0.623,0.193,1.396,0.404c1.119,0.299,1.9,0.544,2.344,0.733
			c0.441,0.191,0.789,0.468,1.041,0.831s0.377,0.814,0.377,1.354c0,0.527-0.152,1.024-0.461,1.489
			c-0.307,0.467-0.752,0.826-1.332,1.082c-0.58,0.254-1.236,0.382-1.969,0.382c-1.213,0-2.137-0.252-2.771-0.756
			C124.072,90.086,123.666,89.339,123.49,88.349z"/>
		<path fill="#DDDDDD" d="M22.104,110.135v-1.178c-0.592,0.926-1.462,1.389-2.61,1.389c-0.744,0-1.428-0.205-2.053-0.615
			c-0.623-0.41-1.107-0.983-1.449-1.718c-0.344-0.736-0.515-1.581-0.515-2.536c0-0.932,0.155-1.776,0.466-2.536
			c0.311-0.758,0.776-1.34,1.397-1.744s1.315-0.606,2.083-0.606c0.563,0,1.063,0.118,1.503,0.356
			c0.439,0.236,0.797,0.546,1.072,0.927V97.25h1.573v12.885H22.104z M17.104,105.477c0,1.195,0.252,2.089,0.756,2.681
			s1.099,0.888,1.784,0.888c0.691,0,1.278-0.282,1.763-0.849c0.482-0.564,0.725-1.428,0.725-2.588c0-1.277-0.246-2.215-0.738-2.813
			s-1.099-0.896-1.819-0.896c-0.703,0-1.29,0.287-1.763,0.861C17.34,103.335,17.104,104.24,17.104,105.477z"/>
		<path fill="#DDDDDD" d="M32.449,107.129l1.635,0.202c-0.258,0.955-0.735,1.696-1.433,2.224s-1.588,0.791-2.672,0.791
			c-1.365,0-2.448-0.421-3.247-1.261c-0.801-0.842-1.2-2.021-1.2-3.538c0-1.57,0.404-2.789,1.213-3.656s1.857-1.301,3.146-1.301
			c1.248,0,2.268,0.425,3.059,1.274s1.187,2.045,1.187,3.586c0,0.094-0.003,0.234-0.009,0.422h-6.961
			c0.059,1.025,0.349,1.811,0.87,2.355s1.172,0.817,1.951,0.817c0.58,0,1.075-0.152,1.485-0.457S32.209,107.797,32.449,107.129z
			 M27.255,104.571h5.212c-0.07-0.785-0.27-1.374-0.598-1.767c-0.504-0.609-1.157-0.914-1.96-0.914
			c-0.727,0-1.337,0.243-1.833,0.729C27.582,103.106,27.308,103.757,27.255,104.571z"/>
		<path fill="#DDDDDD" d="M47.162,108.983c-0.586,0.498-1.15,0.85-1.691,1.055c-0.543,0.205-1.124,0.308-1.745,0.308
			c-1.025,0-1.813-0.251-2.364-0.751c-0.551-0.502-0.826-1.142-0.826-1.921c0-0.457,0.104-0.874,0.313-1.253
			c0.207-0.377,0.48-0.681,0.816-0.909c0.338-0.229,0.717-0.401,1.139-0.519c0.311-0.082,0.779-0.161,1.406-0.237
			c1.277-0.152,2.218-0.334,2.821-0.545c0.006-0.217,0.009-0.354,0.009-0.413c0-0.645-0.149-1.099-0.448-1.362
			c-0.404-0.357-1.005-0.536-1.802-0.536c-0.744,0-1.293,0.131-1.648,0.391c-0.354,0.262-0.616,0.723-0.786,1.385l-1.547-0.211
			c0.141-0.662,0.372-1.197,0.694-1.604c0.322-0.408,0.788-0.721,1.397-0.941c0.609-0.219,1.315-0.329,2.118-0.329
			c0.797,0,1.444,0.094,1.942,0.281s0.864,0.423,1.099,0.708c0.234,0.283,0.398,0.643,0.492,1.076
			c0.053,0.27,0.079,0.756,0.079,1.459v2.109c0,1.471,0.034,2.4,0.101,2.791c0.068,0.389,0.201,0.763,0.4,1.12h-1.652
			C47.314,109.807,47.209,109.423,47.162,108.983z M47.03,105.45c-0.574,0.234-1.436,0.434-2.584,0.598
			c-0.65,0.094-1.11,0.199-1.38,0.316s-0.478,0.289-0.624,0.514c-0.146,0.227-0.22,0.477-0.22,0.752c0,0.422,0.16,0.773,0.479,1.055
			c0.32,0.281,0.787,0.422,1.402,0.422c0.609,0,1.151-0.133,1.626-0.4c0.475-0.266,0.823-0.631,1.046-1.094
			c0.17-0.357,0.255-0.885,0.255-1.582V105.45z"/>
		<path fill="#DDDDDD" d="M51.082,113.712v-12.911h1.441v1.213c0.34-0.475,0.724-0.831,1.151-1.067
			c0.428-0.238,0.946-0.356,1.556-0.356c0.797,0,1.5,0.205,2.109,0.615s1.069,0.989,1.38,1.735c0.311,0.748,0.466,1.566,0.466,2.457
			c0,0.955-0.172,1.814-0.514,2.58c-0.344,0.764-0.842,1.35-1.494,1.758c-0.654,0.406-1.341,0.61-2.062,0.61
			c-0.527,0-1.001-0.111-1.419-0.334c-0.42-0.223-0.764-0.504-1.033-0.844v4.544H51.082z M52.515,105.521
			c0,1.201,0.243,2.089,0.729,2.663s1.075,0.861,1.767,0.861c0.703,0,1.306-0.298,1.806-0.892c0.502-0.596,0.752-1.517,0.752-2.765
			c0-1.189-0.244-2.08-0.734-2.672c-0.488-0.592-1.073-0.888-1.753-0.888c-0.674,0-1.271,0.314-1.788,0.945
			C52.773,103.403,52.515,104.319,52.515,105.521z"/>
		<path fill="#DDDDDD" d="M61.075,110.135v-9.334h1.424v1.415c0.363-0.662,0.698-1.099,1.007-1.31
			c0.307-0.211,0.646-0.316,1.015-0.316c0.533,0,1.075,0.17,1.626,0.51l-0.545,1.468c-0.387-0.229-0.773-0.343-1.16-0.343
			c-0.346,0-0.656,0.104-0.932,0.312c-0.275,0.209-0.472,0.497-0.589,0.866c-0.176,0.563-0.264,1.178-0.264,1.846v4.887H61.075z"/>
		<path fill="#DDDDDD" d="M73.477,107.129l1.635,0.202c-0.258,0.955-0.735,1.696-1.433,2.224s-1.588,0.791-2.672,0.791
			c-1.365,0-2.448-0.421-3.247-1.261c-0.801-0.842-1.2-2.021-1.2-3.538c0-1.57,0.404-2.789,1.213-3.656s1.857-1.301,3.146-1.301
			c1.248,0,2.268,0.425,3.059,1.274s1.187,2.045,1.187,3.586c0,0.094-0.003,0.234-0.009,0.422h-6.961
			c0.059,1.025,0.349,1.811,0.87,2.355s1.172,0.817,1.951,0.817c0.58,0,1.075-0.152,1.485-0.457S73.236,107.797,73.477,107.129z
			 M68.282,104.571h5.212c-0.07-0.785-0.27-1.374-0.598-1.767c-0.504-0.609-1.157-0.914-1.96-0.914
			c-0.727,0-1.337,0.243-1.833,0.729C68.609,103.106,68.335,103.757,68.282,104.571z"/>
		<path fill="#DDDDDD" d="M77.098,110.135v-9.334h1.424v1.327c0.686-1.025,1.676-1.538,2.971-1.538c0.563,0,1.08,0.101,1.551,0.304
			c0.473,0.201,0.825,0.467,1.06,0.795s0.398,0.718,0.492,1.169c0.059,0.293,0.088,0.806,0.088,1.538v5.739h-1.582v-5.678
			c0-0.645-0.062-1.126-0.185-1.446c-0.123-0.318-0.342-0.574-0.654-0.764c-0.314-0.191-0.682-0.286-1.104-0.286
			c-0.674,0-1.256,0.214-1.744,0.642c-0.49,0.428-0.734,1.239-0.734,2.435v5.098H77.098z"/>
		<path fill="#DDDDDD" d="M93.164,110.135v-1.178c-0.592,0.926-1.462,1.389-2.61,1.389c-0.744,0-1.429-0.205-2.052-0.615
			c-0.625-0.41-1.107-0.983-1.451-1.718c-0.342-0.736-0.514-1.581-0.514-2.536c0-0.932,0.155-1.776,0.466-2.536
			c0.311-0.758,0.776-1.34,1.397-1.744s1.315-0.606,2.083-0.606c0.563,0,1.063,0.118,1.503,0.356
			c0.439,0.236,0.797,0.546,1.072,0.927V97.25h1.573v12.885H93.164z M88.163,105.477c0,1.195,0.252,2.089,0.756,2.681
			s1.099,0.888,1.784,0.888c0.691,0,1.279-0.282,1.762-0.849c0.484-0.564,0.726-1.428,0.726-2.588c0-1.277-0.246-2.215-0.738-2.813
			s-1.099-0.896-1.819-0.896c-0.703,0-1.291,0.287-1.762,0.861C88.398,103.335,88.163,104.24,88.163,105.477z"/>
		<path fill="#DDDDDD" d="M97.128,99.069V97.25h1.582v1.819H97.128z M97.128,110.135v-9.334h1.582v9.334H97.128z"/>
		<path fill="#DDDDDD" d="M100.283,110.135v-1.283l5.941-6.82c-0.674,0.035-1.269,0.053-1.784,0.053h-3.806v-1.283h7.629v1.046
			l-5.054,5.924l-0.976,1.081c0.709-0.053,1.374-0.079,1.995-0.079h4.315v1.362H100.283z"/>
		<path fill="#DDDDDD" d="M116.209,108.983c-0.586,0.498-1.15,0.85-1.691,1.055c-0.543,0.205-1.124,0.308-1.745,0.308
			c-1.025,0-1.813-0.251-2.364-0.751c-0.551-0.502-0.826-1.142-0.826-1.921c0-0.457,0.104-0.874,0.313-1.253
			c0.207-0.377,0.48-0.681,0.816-0.909c0.338-0.229,0.717-0.401,1.139-0.519c0.311-0.082,0.779-0.161,1.406-0.237
			c1.277-0.152,2.218-0.334,2.821-0.545c0.006-0.217,0.009-0.354,0.009-0.413c0-0.645-0.149-1.099-0.448-1.362
			c-0.404-0.357-1.005-0.536-1.802-0.536c-0.744,0-1.293,0.131-1.648,0.391c-0.354,0.262-0.616,0.723-0.786,1.385l-1.547-0.211
			c0.141-0.662,0.372-1.197,0.694-1.604c0.322-0.408,0.788-0.721,1.397-0.941c0.609-0.219,1.315-0.329,2.118-0.329
			c0.797,0,1.444,0.094,1.942,0.281s0.864,0.423,1.099,0.708c0.234,0.283,0.398,0.643,0.492,1.076
			c0.053,0.27,0.079,0.756,0.079,1.459v2.109c0,1.471,0.034,2.4,0.101,2.791c0.068,0.389,0.201,0.763,0.4,1.12h-1.652
			C116.361,109.807,116.256,109.423,116.209,108.983z M116.077,105.45c-0.574,0.234-1.436,0.434-2.584,0.598
			c-0.65,0.094-1.11,0.199-1.38,0.316s-0.478,0.289-0.624,0.514c-0.146,0.227-0.22,0.477-0.22,0.752c0,0.422,0.16,0.773,0.479,1.055
			c0.32,0.281,0.787,0.422,1.402,0.422c0.609,0,1.151-0.133,1.626-0.4c0.475-0.266,0.823-0.631,1.046-1.094
			c0.17-0.357,0.255-0.885,0.255-1.582V105.45z"/>
		<path fill="#DDDDDD" d="M118.116,113.756l0.299-1.345c0.316,0.082,0.565,0.123,0.747,0.123c0.322,0,0.563-0.107,0.721-0.32
			c0.158-0.215,0.238-0.749,0.238-1.604v-9.809h1.582v9.844c0,1.148-0.15,1.948-0.449,2.399c-0.381,0.586-1.014,0.879-1.898,0.879
			C118.928,113.923,118.515,113.867,118.116,113.756z M120.121,99.087V97.25h1.582v1.837H120.121z"/>
		<path fill="#DDDDDD" d="M130.518,107.129l1.635,0.202c-0.258,0.955-0.734,1.696-1.432,2.224s-1.588,0.791-2.672,0.791
			c-1.365,0-2.449-0.421-3.248-1.261c-0.801-0.842-1.199-2.021-1.199-3.538c0-1.57,0.404-2.789,1.213-3.656s1.857-1.301,3.146-1.301
			c1.248,0,2.268,0.425,3.059,1.274s1.186,2.045,1.186,3.586c0,0.094-0.002,0.234-0.008,0.422h-6.961
			c0.059,1.025,0.348,1.811,0.869,2.355s1.172,0.817,1.951,0.817c0.58,0,1.076-0.152,1.486-0.457S130.277,107.797,130.518,107.129z
			 M125.324,104.571h5.211c-0.07-0.785-0.27-1.374-0.598-1.767c-0.504-0.609-1.156-0.914-1.959-0.914
			c-0.727,0-1.338,0.243-1.834,0.729C125.65,103.106,125.377,103.757,125.324,104.571z"/>
	</g>
</g>
</svg>
