<?xml version="1.0" encoding="utf-8"?>
<!-- Generator: Adobe Illustrator 16.0.0, SVG Export Plug-In . SVG Version: 6.00 Build 0)  -->
<!DOCTYPE svg PUBLIC "-//W3C//DTD SVG 1.1//EN" "http://www.w3.org/Graphics/SVG/1.1/DTD/svg11.dtd">
<svg version="1.1" id="Capa_1" xmlns="http://www.w3.org/2000/svg" xmlns:xlink="http://www.w3.org/1999/xlink" x="0px" y="0px"
	 width="145.918px" height="127.299px" viewBox="0 0 145.918 127.299" enable-background="new 0 0 145.918 127.299"
	 xml:space="preserve">
<g>
	<path fill-rule="evenodd" clip-rule="evenodd" fill="#0C488D" d="M145.918,115.299c0,6.627-5.373,12-12,12H12
		c-6.627,0-12-5.373-12-12V91.4c0-6.627,5.373-12,12-12h121.918c6.627,0,12,5.373,12,12V115.299z"/>
	<path fill-rule="evenodd" clip-rule="evenodd" fill="#042F5B" d="M61.99,78.098l52.416,49.201h19.512c0,0,10.105-0.002,12-10.76
		l-0.07-26.422c0,0-1.492-10.717-11.93-10.717L61.99,78.098z"/>
	<g>
		<defs>
			<circle id="SVGID_1_" cx="72.959" cy="46.987" r="41.447"/>
		</defs>
		<clipPath id="SVGID_2_">
			<use xlink:href="#SVGID_1_"  overflow="visible"/>
		</clipPath>
		<g clip-path="url(#SVGID_2_)">
			<path fill-rule="evenodd" clip-rule="evenodd" fill="#0C488D" d="M65.654,0c4.869,0,9.738,0,14.609,0
				c-0.057,0.811,0.623,0.611,1.021,0.688c19.537,3.732,34.004,18.198,37.736,37.736c0.076,0.397-0.123,1.078,0.688,1.021
				c0,1.705,0,3.409,0,5.113c-0.721,0.037-1.262-0.372-1.824-0.733c-6.84-4.396-13.684-8.791-20.525-13.186
				c-0.984-1.064-1.93-2.168-2.959-3.187c-2.824-2.791-5.266-5.958-8.357-8.484c-0.684-0.359-1.422-0.329-2.16-0.305
				c-7.846,0.005-15.689,0.005-23.535,0.019c-4.91,0.009-7.631,2.575-7.65,7.494c-0.057,13.866-0.049,27.733-0.002,41.6
				c0.014,4.121,1.969,6.346,6.025,7.242c1.768,1.663,3.531,3.331,5.305,4.988c3.459,3.231,6.963,6.419,10.367,9.707
				c1.201,1.159,2.723,2.078,3.314,3.786c-4.018,0-8.035,0-12.053,0c0.057-0.81-0.625-0.611-1.021-0.688
				c-19.539-3.731-34.006-18.198-37.736-37.736c-0.076-0.397,0.121-1.077-0.688-1.021c0-4.869,0-9.739,0-14.609
				c0.811,0.057,0.611-0.624,0.688-1.021C30.627,18.886,45.094,4.42,64.633,0.688C65.029,0.611,65.709,0.81,65.654,0z"/>
			<path fill-rule="evenodd" clip-rule="evenodd" fill="#042F5B" d="M77.707,93.5c-0.592-1.708-2.113-2.627-3.314-3.786
				c-3.404-3.288-6.908-6.476-10.367-9.707c-1.773-1.657-3.537-3.325-5.305-4.988c4.584,0,9.168,0,13.951,0
				c-1.129-2.123-2.402-3.121-4.629-2.94c-2.539,0.206-5.107,0.052-7.664,0.047c-3.385-0.007-4.861-1.37-4.873-4.694
				c-0.033-9.434,0.012-18.867-0.041-28.301c-0.008-1.307,0.529-1.48,1.623-1.464c3.285,0.053,6.572,0.02,9.859,0.02
				c8.643,0,17.285-0.003,25.928,0.004c0.803,0.001,1.715-0.29,1.707,1.15c-0.045,9.86-0.004,19.72-0.057,29.579
				c-0.01,1.823-1.02,3.283-2.854,3.508c-1.912,0.234-2.727,1.457-3.869,3.012c1.201,0,2.094,0.009,2.984-0.002
				c3.674-0.043,6.596-2.724,6.617-6.376c0.068-11.503,0.018-23.006,0.045-34.51c0.002-0.926-0.219-1.327-1.213-1.262
				c-1.15,0.075-2.311,0.034-3.467,0.013c-4.953-0.09-8.727-3.897-8.789-8.85c-0.023-1.763-0.064-3.525-0.098-5.288
				c0.738-0.024,1.477-0.055,2.16,0.305c0.008,1.823-0.051,3.649,0.039,5.469c0.172,3.422,2.756,6.046,6.182,6.241
				c1.693,0.097,3.396-0.02,5.096-0.039c6.842,4.395,13.686,8.789,20.525,13.186c0.563,0.361,1.104,0.771,1.824,0.733
				c0,3.287,0,6.574,0,9.861c-0.785-0.125-0.631,0.526-0.719,0.918c-4.629,20.337-17.111,32.812-37.445,37.443
				c-0.391,0.089-1.043-0.066-0.916,0.719C79.654,93.5,78.68,93.5,77.707,93.5z M89.404,70.065c-1.383,0-2.332-0.074-3.264,0.019
				c-1.207,0.12-1.555-0.326-1.521-1.521c0.082-2.975-0.002-5.955,0.043-8.932c0.016-0.907-0.182-1.308-1.193-1.273
				c-2.125,0.071-4.254,0.064-6.379,0.002c-0.963-0.029-1.256,0.285-1.229,1.239c0.061,2.246,0.02,4.496,0.02,6.744
				c0,3.576,0,3.575-3.648,3.729c-0.217,0.009-0.434,0.049-0.979,0.114c2.961,3.398,5.734,6.573,8.496,9.761
				c0.365,0.423,0.672,0.438,1.033,0.024C83.553,76.785,86.324,73.602,89.404,70.065z M84.51,42.001
				c-1.758,0-3.516,0.021-5.273-0.007c-1.066-0.017-1.551,0.445-1.537,1.523c0.025,2.182,0.018,4.364,0.004,6.547
				c-0.006,0.985,0.453,1.435,1.436,1.432c3.576-0.013,7.154-0.01,10.73-0.007c0.895,0,1.342-0.423,1.342-1.327
				c-0.004-2.243-0.008-4.486,0.006-6.729c0.008-0.984-0.447-1.441-1.432-1.434C88.027,42.015,86.27,42.004,84.51,42.001z
				 M75.271,56.247c-4.742,0-9.482-0.005-14.223,0.005c-0.9,0.002-1.938-0.151-1.951,1.255c-0.012,1.396,1,1.289,1.918,1.291
				c3.586,0.007,7.172-0.003,10.758,0.007c1.113,0.003,2.246,0.138,2.393-1.481c0.051-0.576,0.627-0.692,1.135-0.694
				c3.281-0.009,6.564-0.009,9.846-0.005c0.5,0.001,1.066,0.063,1.191,0.628c0.199,0.912,0.465,1.634,1.607,1.55
				c0.846-0.063,1.699-0.03,2.543-0.105c0.393-0.036,0.602-0.371,0.67-0.765c0.234-1.342-0.469-1.699-1.666-1.693
				C84.752,56.264,80.012,56.249,75.271,56.247z M66.746,48.949c-2.061,0-4.121,0.002-6.182-0.001
				c-0.811-0.001-1.434,0.197-1.469,1.186c-0.037,1.056,0.543,1.365,1.477,1.363c3.998-0.009,7.998-0.005,11.996-0.003
				c0.813,0,1.434-0.196,1.469-1.186c0.039-1.054-0.541-1.368-1.475-1.362C70.623,48.958,68.684,48.949,66.746,48.949z
				 M66.383,44.188c2.061,0,4.121,0.006,6.182-0.002c0.697-0.003,1.377-0.073,1.443-0.994c0.064-0.899-0.443-1.449-1.262-1.458
				c-4.119-0.046-8.236-0.046-12.354-0.001c-0.82,0.009-1.33,0.556-1.268,1.456c0.064,0.921,0.744,0.993,1.441,0.997
				C62.506,44.194,64.445,44.188,66.383,44.188z M66.574,63.551c-1.887,0-3.771-0.016-5.656,0.008
				c-0.762,0.01-1.697-0.162-1.787,1.018c-0.082,1.077,0.738,1.41,1.531,1.422c4.01,0.06,8.021,0.059,12.031,0.021
				c0.816-0.008,1.354-0.515,1.313-1.428c-0.043-0.926-0.701-1.03-1.412-1.033C70.586,63.552,68.58,63.557,66.574,63.551z
				 M88.969,63.59c0-0.004,0-0.007,0-0.011c-0.48,0-0.963-0.022-1.441,0.006c-0.631,0.038-0.994,0.368-1.002,1.03
				c-0.01,0.642,0.287,1.055,0.938,1.084c0.9,0.04,1.803,0.041,2.701,0.011c0.627-0.021,0.994-0.367,1.004-1.029
				c0.008-0.643-0.289-1.033-0.939-1.085C89.811,63.563,89.389,63.59,88.969,63.59z"/>
			<path fill-rule="evenodd" clip-rule="evenodd" fill="#F7F3F4" d="M83.883,18.664c0.033,1.763,0.074,3.525,0.098,5.288
				c0.063,4.952,3.836,8.76,8.789,8.85c1.156,0.021,2.316,0.063,3.467-0.013c0.994-0.065,1.215,0.336,1.213,1.262
				c-0.027,11.504,0.023,23.007-0.045,34.51c-0.021,3.652-2.943,6.333-6.617,6.376c-0.891,0.011-1.783,0.002-2.984,0.002
				c1.143-1.555,1.957-2.777,3.869-3.012c1.834-0.225,2.844-1.685,2.854-3.508c0.053-9.859,0.012-19.719,0.057-29.579
				c0.008-1.44-0.904-1.149-1.707-1.15c-8.643-0.007-17.285-0.004-25.928-0.004c-3.287,0-6.574,0.033-9.859-0.02
				c-1.094-0.017-1.631,0.157-1.623,1.464c0.053,9.434,0.008,18.867,0.041,28.301c0.012,3.324,1.488,4.688,4.873,4.694
				c2.557,0.005,5.125,0.159,7.664-0.047c2.227-0.181,3.5,0.817,4.629,2.94c-4.783,0-9.367,0-13.951,0
				c-4.057-0.896-6.012-3.121-6.025-7.242c-0.047-13.866-0.055-27.733,0.002-41.6c0.02-4.919,2.74-7.485,7.65-7.494
				C68.193,18.669,76.037,18.669,83.883,18.664z M67.162,32.15c2.865-0.003,3.945-0.498,4.604-1.978
				c0.744-1.677,0.443-3.849-0.686-4.949c-0.813-0.792-4.369-1.364-5.408-0.91c-0.533,0.232-0.447,0.668-0.451,1.072
				c-0.014,1.52,0.119,3.052-0.039,4.554C64.988,31.78,65.553,32.585,67.162,32.15z M60.43,24.293
				c-2.441-0.008-2.441-0.008-2.443,2.369c0,1.455,0.016,2.909-0.006,4.364c-0.01,0.669,0.021,1.142,0.934,1.137
				c0.943-0.006,0.986-0.548,0.879-1.171c-0.262-1.54,0.498-1.768,1.832-1.751c2.082,0.027,3.211-1.842,2.301-3.603
				C63.162,24.162,61.762,24.313,60.43,24.293z M73.25,28.266c0,0.852-0.014,1.703,0.004,2.554c0.014,0.627-0.213,1.391,0.91,1.343
				c0.979-0.042,0.869-0.718,0.807-1.28c-0.162-1.434,0.238-2.193,1.857-1.982c0.496,0.065,1.354,0.358,1.404-0.629
				c0.059-1.109-0.848-0.707-1.434-0.844c-0.643-0.15-1.818,0.56-1.75-0.84c0.061-1.203,1.121-0.508,1.719-0.694
				c0.168-0.052,0.365,0.009,0.545-0.011c0.602-0.067,1.459,0.273,1.428-0.847c-0.027-0.975-0.785-0.735-1.342-0.762
				C73.25,24.083,73.25,24.088,73.25,28.266z"/>
			<path fill-rule="evenodd" clip-rule="evenodd" fill="#F7F3F4" d="M97.359,30.64c-1.699,0.02-3.402,0.136-5.096,0.039
				c-3.426-0.195-6.01-2.819-6.182-6.241c-0.09-1.819-0.031-3.646-0.039-5.469c3.092,2.526,5.533,5.693,8.357,8.484
				C95.43,28.472,96.375,29.575,97.359,30.64z"/>
			<path fill-rule="evenodd" clip-rule="evenodd" fill="#FEFDFD" d="M89.404,70.065c-3.08,3.536-5.852,6.72-8.621,9.905
				c-0.361,0.414-0.668,0.398-1.033-0.024c-2.762-3.188-5.535-6.362-8.496-9.761c0.545-0.065,0.762-0.105,0.979-0.114
				c3.648-0.153,3.648-0.152,3.648-3.729c0-2.248,0.041-4.498-0.02-6.744c-0.027-0.954,0.266-1.269,1.229-1.239
				c2.125,0.063,4.254,0.069,6.379-0.002c1.012-0.034,1.209,0.366,1.193,1.273c-0.045,2.977,0.039,5.957-0.043,8.932
				c-0.033,1.195,0.314,1.642,1.521,1.521C87.072,69.991,88.021,70.065,89.404,70.065z"/>
			<path fill-rule="evenodd" clip-rule="evenodd" fill="#0C488D" d="M84.51,42.003c1.76,0.001,3.518,0.012,5.275-0.004
				c0.984-0.008,1.439,0.449,1.432,1.434c-0.014,2.243-0.01,4.486-0.006,6.729c0,0.904-0.447,1.327-1.342,1.327
				c-3.576-0.003-7.154-0.006-10.73,0.007c-0.982,0.003-1.441-0.446-1.436-1.432c0.014-2.183,0.021-4.365-0.004-6.547
				c-0.014-1.078,0.471-1.54,1.537-1.523C80.994,42.021,82.752,42.001,84.51,42.003z"/>
			<path fill-rule="evenodd" clip-rule="evenodd" fill="#0C488D" d="M75.271,56.248c4.74,0.001,9.48,0.016,14.221-0.01
				c1.197-0.006,1.9,0.352,1.666,1.693c-0.068,0.394-0.277,0.729-0.67,0.765c-0.844,0.075-1.697,0.043-2.543,0.105
				c-1.143,0.084-1.408-0.638-1.607-1.55c-0.125-0.564-0.691-0.627-1.191-0.628c-3.281-0.004-6.564-0.004-9.846,0.005
				c-0.508,0.002-1.084,0.118-1.135,0.694c-0.146,1.619-1.279,1.484-2.393,1.481c-3.586-0.01-7.172,0-10.758-0.007
				c-0.918-0.002-1.93,0.105-1.918-1.291c0.014-1.406,1.051-1.253,1.951-1.255C65.789,56.242,70.529,56.247,75.271,56.248z"/>
			<path fill-rule="evenodd" clip-rule="evenodd" fill="#0C488D" d="M66.746,48.949c1.938,0,3.877,0.009,5.816-0.003
				c0.934-0.006,1.514,0.309,1.475,1.362c-0.035,0.989-0.656,1.186-1.469,1.186c-3.998-0.002-7.998-0.006-11.996,0.003
				c-0.934,0.002-1.514-0.308-1.477-1.363c0.035-0.988,0.658-1.187,1.469-1.186C62.625,48.951,64.686,48.949,66.746,48.949z"/>
			<path fill-rule="evenodd" clip-rule="evenodd" fill="#0C488D" d="M66.383,44.188c-1.938,0-3.877,0.006-5.816-0.002
				c-0.697-0.004-1.377-0.076-1.441-0.997c-0.063-0.9,0.447-1.447,1.268-1.456c4.117-0.045,8.234-0.045,12.354,0.001
				c0.818,0.009,1.326,0.559,1.262,1.458c-0.066,0.921-0.746,0.991-1.443,0.994C70.504,44.194,68.443,44.188,66.383,44.188z"/>
			<path fill-rule="evenodd" clip-rule="evenodd" fill="#0C488D" d="M66.574,63.554c2.006,0.003,4.012-0.002,6.02,0.005
				c0.711,0.003,1.369,0.107,1.412,1.033c0.041,0.913-0.496,1.42-1.313,1.428c-4.01,0.037-8.021,0.038-12.031-0.021
				c-0.793-0.012-1.613-0.345-1.531-1.422c0.09-1.18,1.025-1.008,1.787-1.018C62.803,63.535,64.688,63.551,66.574,63.554z"/>
			<path fill-rule="evenodd" clip-rule="evenodd" fill="#0C488D" d="M88.969,63.59c0.42,0,0.842-0.026,1.26,0.006
				c0.65,0.052,0.947,0.442,0.939,1.085c-0.01,0.662-0.377,1.009-1.004,1.029c-0.898,0.03-1.801,0.029-2.701-0.011
				c-0.65-0.029-0.947-0.442-0.938-1.084c0.008-0.662,0.371-0.992,1.002-1.03c0.479-0.028,0.961-0.006,1.441-0.006
				C88.969,63.583,88.969,63.586,88.969,63.59z"/>
			<path fill-rule="evenodd" clip-rule="evenodd" fill="#0C488D" d="M67.162,32.15c-1.609,0.435-2.174-0.37-1.98-2.211
				c0.158-1.502,0.025-3.034,0.039-4.554c0.004-0.404-0.082-0.84,0.451-1.072c1.039-0.454,4.596,0.118,5.408,0.91
				c1.129,1.101,1.43,3.272,0.686,4.949C71.107,31.652,70.027,32.147,67.162,32.15z M68.131,25.896
				c-0.689-0.105-1.123,0.099-1.07,0.953c0.047,0.726-0.021,1.458,0.018,2.184c0.027,0.514-0.264,1.216,0.338,1.479
				c0.613,0.266,1.342,0.15,1.928-0.225c1.023-0.655,1.133-1.688,0.895-2.741C70,26.496,69.344,25.838,68.131,25.896z"/>
			<path fill-rule="evenodd" clip-rule="evenodd" fill="#0C488D" d="M60.432,24.292c1.33,0.021,2.73-0.13,3.494,1.347
				c0.91,1.761-0.219,3.63-2.301,3.603c-1.334-0.017-2.094,0.211-1.832,1.751c0.107,0.623,0.064,1.165-0.879,1.171
				c-0.912,0.005-0.943-0.468-0.934-1.137c0.021-1.455,0.006-2.909,0.006-4.364C57.988,24.285,57.988,24.285,60.432,24.292z
				 M60.652,25.716c-0.645-0.115-0.881,0.32-0.867,1.166c0.014,0.752,0.201,1.155,1.021,1.062c0.719-0.083,1.545-0.032,1.594-1.061
				C62.451,25.835,61.656,25.806,60.652,25.716z"/>
			<path fill-rule="evenodd" clip-rule="evenodd" fill="#0C488D" d="M73.25,28.266c0-4.178,0-4.183,4.148-3.992
				c0.557,0.026,1.314-0.213,1.342,0.762c0.031,1.12-0.826,0.779-1.428,0.847c-0.18,0.02-0.377-0.041-0.545,0.011
				c-0.598,0.187-1.658-0.509-1.719,0.694c-0.068,1.399,1.107,0.689,1.75,0.84c0.586,0.137,1.492-0.266,1.434,0.844
				c-0.051,0.987-0.908,0.694-1.404,0.629c-1.619-0.211-2.02,0.549-1.857,1.982c0.063,0.563,0.172,1.238-0.807,1.28
				c-1.123,0.048-0.896-0.716-0.91-1.343C73.236,29.969,73.25,29.117,73.25,28.266z"/>
			<path fill-rule="evenodd" clip-rule="evenodd" fill="#F7F3F4" d="M68.131,25.896c1.213-0.059,1.869,0.6,2.107,1.649
				c0.238,1.054,0.129,2.086-0.895,2.741c-0.586,0.375-1.314,0.49-1.928,0.225c-0.602-0.263-0.311-0.965-0.338-1.479
				c-0.039-0.726,0.029-1.458-0.018-2.184C67.008,25.995,67.441,25.791,68.131,25.896z"/>
			<path fill-rule="evenodd" clip-rule="evenodd" fill="#F7F3F4" d="M60.652,25.716c1.004,0.09,1.799,0.119,1.748,1.167
				c-0.049,1.028-0.875,0.978-1.594,1.061c-0.82,0.094-1.008-0.31-1.021-1.062C59.771,26.036,60.008,25.601,60.652,25.716z"/>
		</g>
	</g>
	<g>
		<path fill="#DDDDDD" d="M32.191,95.466c-0.448,0.224-1.345,0.448-2.493,0.448c-2.661,0-4.665-1.682-4.665-4.777
			c0-2.955,2.004-4.958,4.931-4.958c1.177,0,1.919,0.252,2.241,0.421l-0.294,0.994c-0.462-0.225-1.12-0.393-1.905-0.393
			c-2.213,0-3.684,1.415-3.684,3.895c0,2.311,1.331,3.796,3.628,3.796c0.742,0,1.499-0.154,1.989-0.393L32.191,95.466z"/>
		<path fill="#DDDDDD" d="M39.653,92.328c0,2.508-1.737,3.6-3.376,3.6c-1.835,0-3.25-1.344-3.25-3.488c0-2.269,1.484-3.6,3.362-3.6
			C38.336,88.84,39.653,90.255,39.653,92.328z M34.274,92.398c0,1.484,0.854,2.605,2.059,2.605c1.177,0,2.06-1.107,2.06-2.634
			c0-1.148-0.574-2.605-2.031-2.605S34.274,91.109,34.274,92.398z"/>
		<path fill="#DDDDDD" d="M41.204,90.829c0-0.7-0.014-1.274-0.056-1.835h1.093l0.069,1.121h0.028
			c0.336-0.645,1.12-1.275,2.241-1.275c0.938,0,2.396,0.561,2.396,2.886v4.048h-1.233v-3.908c0-1.092-0.406-2.002-1.568-2.002
			c-0.813,0-1.442,0.574-1.653,1.26c-0.056,0.154-0.084,0.365-0.084,0.574v4.076h-1.232V90.829z"/>
		<path fill="#DDDDDD" d="M55.109,92.328c0,2.508-1.737,3.6-3.376,3.6c-1.835,0-3.25-1.344-3.25-3.488c0-2.269,1.485-3.6,3.362-3.6
			C53.792,88.84,55.109,90.255,55.109,92.328z M49.73,92.398c0,1.484,0.854,2.605,2.059,2.605c1.177,0,2.06-1.107,2.06-2.634
			c0-1.148-0.574-2.605-2.031-2.605S49.73,91.109,49.73,92.398z"/>
		<path fill="#DDDDDD" d="M61.492,95.521c-0.322,0.168-1.037,0.393-1.947,0.393c-2.045,0-3.376-1.387-3.376-3.46
			c0-2.087,1.429-3.601,3.642-3.601c0.729,0,1.373,0.183,1.709,0.352l-0.279,0.951c-0.295-0.168-0.757-0.322-1.43-0.322
			c-1.555,0-2.395,1.149-2.395,2.564c0,1.568,1.008,2.535,2.353,2.535c0.701,0,1.163-0.182,1.514-0.336L61.492,95.521z"/>
		<path fill="#DDDDDD" d="M64.305,87.09c0.014,0.42-0.294,0.756-0.784,0.756c-0.435,0-0.743-0.336-0.743-0.756
			c0-0.436,0.322-0.771,0.771-0.771C64.011,86.318,64.305,86.654,64.305,87.09z M62.932,95.773v-6.779h1.232v6.779H62.932z"/>
		<path fill="#DDDDDD" d="M66.207,90.829c0-0.7-0.014-1.274-0.056-1.835h1.078l0.057,1.093h0.042
			c0.378-0.645,1.008-1.247,2.129-1.247c0.925,0,1.625,0.561,1.919,1.359h0.028c0.21-0.379,0.476-0.673,0.756-0.883
			c0.406-0.309,0.854-0.477,1.499-0.477c0.896,0,2.228,0.589,2.228,2.941v3.992h-1.205v-3.838c0-1.303-0.477-2.087-1.471-2.087
			c-0.7,0-1.247,0.519-1.457,1.12c-0.056,0.168-0.098,0.393-0.098,0.617v4.188h-1.205v-4.062c0-1.079-0.476-1.863-1.414-1.863
			c-0.771,0-1.331,0.616-1.527,1.233c-0.07,0.182-0.098,0.392-0.098,0.602v4.09h-1.205V90.829z"/>
		<path fill="#DDDDDD" d="M79.257,87.09c0.014,0.42-0.294,0.756-0.784,0.756c-0.435,0-0.743-0.336-0.743-0.756
			c0-0.436,0.322-0.771,0.771-0.771C78.963,86.318,79.257,86.654,79.257,87.09z M77.884,95.773v-6.779h1.232v6.779H77.884z"/>
		<path fill="#DDDDDD" d="M81.846,92.608c0.028,1.667,1.093,2.353,2.325,2.353c0.883,0,1.415-0.153,1.877-0.35l0.21,0.883
			c-0.434,0.195-1.177,0.42-2.255,0.42c-2.087,0-3.334-1.373-3.334-3.418s1.205-3.656,3.18-3.656c2.213,0,2.802,1.947,2.802,3.193
			c0,0.253-0.028,0.449-0.042,0.575H81.846z M85.46,91.726c0.014-0.784-0.322-2.003-1.709-2.003c-1.247,0-1.793,1.148-1.892,2.003
			H85.46z"/>
		<path fill="#DDDDDD" d="M88.173,90.829c0-0.7-0.014-1.274-0.056-1.835h1.093l0.069,1.121h0.028
			c0.336-0.645,1.12-1.275,2.241-1.275c0.938,0,2.396,0.561,2.396,2.886v4.048h-1.233v-3.908c0-1.092-0.406-2.002-1.568-2.002
			c-0.813,0-1.442,0.574-1.653,1.26c-0.056,0.154-0.084,0.365-0.084,0.574v4.076h-1.232V90.829z"/>
		<path fill="#DDDDDD" d="M97.372,87.047v1.947h1.765v0.938h-1.765v3.656c0,0.841,0.237,1.316,0.924,1.316
			c0.322,0,0.561-0.042,0.715-0.084l0.056,0.925c-0.238,0.098-0.616,0.168-1.093,0.168c-0.574,0-1.036-0.182-1.33-0.519
			c-0.351-0.364-0.477-0.966-0.477-1.765v-3.698h-1.051v-0.938h1.051v-1.625L97.372,87.047z"/>
		<path fill="#DDDDDD" d="M106.573,92.328c0,2.508-1.737,3.6-3.376,3.6c-1.835,0-3.25-1.344-3.25-3.488c0-2.269,1.484-3.6,3.362-3.6
			C105.256,88.84,106.573,90.255,106.573,92.328z M101.194,92.398c0,1.484,0.854,2.605,2.059,2.605c1.177,0,2.06-1.107,2.06-2.634
			c0-1.148-0.574-2.605-2.031-2.605S101.194,91.109,101.194,92.398z"/>
		<path fill="#DDDDDD" d="M107.955,94.514c0.364,0.238,1.009,0.49,1.625,0.49c0.896,0,1.316-0.449,1.316-1.009
			c0-0.589-0.35-0.911-1.261-1.247c-1.219-0.434-1.793-1.106-1.793-1.919c0-1.093,0.883-1.989,2.34-1.989
			c0.686,0,1.288,0.196,1.667,0.42l-0.309,0.896c-0.267-0.168-0.757-0.392-1.387-0.392c-0.729,0-1.135,0.421-1.135,0.925
			c0,0.561,0.406,0.813,1.289,1.148c1.177,0.448,1.778,1.037,1.778,2.045c0,1.191-0.924,2.031-2.535,2.031
			c-0.742,0-1.429-0.182-1.905-0.463L107.955,94.514z"/>
		<path fill="#DDDDDD" d="M117.083,88.994L118.568,93c0.153,0.449,0.321,0.98,0.434,1.387h0.028
			c0.126-0.406,0.266-0.924,0.435-1.414l1.345-3.979h1.302l-1.849,4.832c-0.883,2.326-1.484,3.517-2.325,4.245
			c-0.603,0.532-1.205,0.742-1.513,0.798l-0.309-1.036c0.309-0.099,0.715-0.294,1.079-0.603c0.336-0.266,0.756-0.742,1.036-1.373
			c0.057-0.125,0.099-0.224,0.099-0.293c0-0.07-0.028-0.169-0.084-0.322l-2.508-6.248H117.083z"/>
		<path fill="#DDDDDD" d="M46.842,108.322c-0.322,0.168-1.037,0.392-1.947,0.392c-2.045,0-3.376-1.387-3.376-3.46
			c0-2.087,1.429-3.6,3.642-3.6c0.729,0,1.373,0.182,1.709,0.35l-0.279,0.953c-0.295-0.168-0.757-0.322-1.43-0.322
			c-1.555,0-2.395,1.148-2.395,2.563c0,1.569,1.008,2.536,2.353,2.536c0.701,0,1.163-0.183,1.514-0.337L46.842,108.322z"/>
		<path fill="#DDDDDD" d="M48.28,103.909c0-0.798-0.014-1.485-0.056-2.115h1.078l0.042,1.331h0.057
			c0.308-0.91,1.05-1.484,1.877-1.484c0.14,0,0.237,0.014,0.35,0.041v1.163c-0.126-0.028-0.252-0.042-0.42-0.042
			c-0.868,0-1.485,0.658-1.653,1.582c-0.027,0.169-0.056,0.365-0.056,0.575v3.614H48.28V103.909z"/>
		<path fill="#DDDDDD" d="M54.288,99.889c0.014,0.42-0.294,0.757-0.784,0.757c-0.435,0-0.743-0.337-0.743-0.757
			c0-0.434,0.322-0.77,0.771-0.77C53.994,99.119,54.288,99.455,54.288,99.889z M52.915,108.574v-6.78h1.232v6.78H52.915z"/>
		<path fill="#DDDDDD" d="M57.676,99.848v1.946h1.765v0.938h-1.765v3.656c0,0.84,0.237,1.316,0.924,1.316
			c0.322,0,0.561-0.042,0.715-0.084l0.056,0.925c-0.238,0.098-0.616,0.168-1.093,0.168c-0.574,0-1.036-0.183-1.33-0.519
			c-0.351-0.363-0.477-0.967-0.477-1.765v-3.698H55.42v-0.938h1.051v-1.624L57.676,99.848z"/>
		<path fill="#DDDDDD" d="M61.427,105.408c0.028,1.666,1.093,2.354,2.325,2.354c0.883,0,1.415-0.154,1.877-0.351l0.21,0.882
			c-0.434,0.197-1.177,0.421-2.255,0.421c-2.087,0-3.334-1.372-3.334-3.418c0-2.045,1.205-3.655,3.18-3.655
			c2.213,0,2.802,1.946,2.802,3.193c0,0.252-0.028,0.447-0.042,0.574H61.427z M65.041,104.525c0.014-0.784-0.322-2.003-1.709-2.003
			c-1.247,0-1.793,1.148-1.892,2.003H65.041z"/>
		<path fill="#DDDDDD" d="M67.755,103.909c0-0.798-0.014-1.485-0.056-2.115h1.078l0.042,1.331h0.057
			c0.308-0.91,1.05-1.484,1.877-1.484c0.14,0,0.237,0.014,0.35,0.041v1.163c-0.126-0.028-0.252-0.042-0.42-0.042
			c-0.868,0-1.485,0.658-1.653,1.582c-0.027,0.169-0.056,0.365-0.056,0.575v3.614h-1.219V103.909z"/>
		<path fill="#DDDDDD" d="M73.762,99.889c0.014,0.42-0.294,0.757-0.784,0.757c-0.435,0-0.743-0.337-0.743-0.757
			c0-0.434,0.322-0.77,0.771-0.77C73.468,99.119,73.762,99.455,73.762,99.889z M72.389,108.574v-6.78h1.232v6.78H72.389z"/>
		<path fill="#DDDDDD" d="M81.8,105.128c0,2.507-1.737,3.601-3.376,3.601c-1.835,0-3.25-1.346-3.25-3.488
			c0-2.27,1.484-3.6,3.362-3.6C80.482,101.641,81.8,103.055,81.8,105.128z M76.421,105.197c0,1.485,0.854,2.605,2.059,2.605
			c1.177,0,2.06-1.105,2.06-2.633c0-1.148-0.574-2.605-2.031-2.605S76.421,103.909,76.421,105.197z"/>
		<path fill="#DDDDDD" d="M83.183,107.313c0.364,0.238,1.009,0.49,1.625,0.49c0.896,0,1.316-0.447,1.316-1.008
			c0-0.588-0.35-0.91-1.261-1.246c-1.219-0.436-1.793-1.107-1.793-1.92c0-1.092,0.883-1.988,2.34-1.988
			c0.686,0,1.288,0.195,1.667,0.42l-0.309,0.896c-0.267-0.168-0.757-0.393-1.387-0.393c-0.729,0-1.135,0.42-1.135,0.924
			c0,0.561,0.406,0.813,1.289,1.149c1.177,0.448,1.778,1.036,1.778,2.045c0,1.19-0.924,2.031-2.535,2.031
			c-0.742,0-1.429-0.183-1.905-0.462L83.183,107.313z"/>
		<path fill="#DDDDDD" d="M97.718,98.629v8.193c0,0.604,0.014,1.289,0.056,1.752h-1.106l-0.056-1.178h-0.028
			c-0.378,0.757-1.205,1.332-2.312,1.332c-1.639,0-2.899-1.387-2.899-3.447c-0.014-2.254,1.387-3.641,3.04-3.641
			c1.036,0,1.736,0.49,2.045,1.036h0.028v-4.048H97.718z M96.485,104.554c0-0.154-0.015-0.364-0.057-0.519
			c-0.182-0.784-0.854-1.429-1.778-1.429c-1.275,0-2.031,1.12-2.031,2.62c0,1.372,0.672,2.507,2.003,2.507
			c0.826,0,1.583-0.546,1.807-1.471c0.042-0.169,0.057-0.337,0.057-0.532V104.554z"/>
		<path fill="#DDDDDD" d="M100.444,105.408c0.028,1.666,1.093,2.354,2.325,2.354c0.883,0,1.415-0.154,1.877-0.351l0.21,0.882
			c-0.434,0.197-1.177,0.421-2.255,0.421c-2.087,0-3.334-1.372-3.334-3.418c0-2.045,1.205-3.655,3.18-3.655
			c2.213,0,2.802,1.946,2.802,3.193c0,0.252-0.028,0.447-0.042,0.574H100.444z M104.059,104.525
			c0.014-0.784-0.322-2.003-1.709-2.003c-1.247,0-1.793,1.148-1.892,2.003H104.059z"/>
		<path fill="#DDDDDD" d="M44.956,118.209c0.028,1.666,1.093,2.353,2.325,2.353c0.883,0,1.415-0.153,1.877-0.351l0.21,0.883
			c-0.434,0.196-1.177,0.42-2.255,0.42c-2.087,0-3.334-1.373-3.334-3.418s1.205-3.655,3.18-3.655c2.213,0,2.802,1.946,2.802,3.193
			c0,0.253-0.028,0.448-0.042,0.575H44.956z M48.57,117.326c0.014-0.785-0.322-2.004-1.709-2.004c-1.247,0-1.793,1.148-1.892,2.004
			H48.57z"/>
		<path fill="#DDDDDD" d="M51.76,114.594l1.33,3.811c0.225,0.617,0.406,1.177,0.547,1.736h0.042c0.154-0.56,0.35-1.119,0.574-1.736
			l1.316-3.811h1.289l-2.661,6.78h-1.177l-2.578-6.78H51.76z"/>
		<path fill="#DDDDDD" d="M61.715,121.374l-0.098-0.854h-0.042c-0.378,0.532-1.106,1.009-2.073,1.009
			c-1.373,0-2.073-0.967-2.073-1.947c0-1.639,1.457-2.535,4.076-2.521v-0.14c0-0.561-0.154-1.569-1.541-1.569
			c-0.63,0-1.288,0.196-1.765,0.505l-0.28-0.813c0.561-0.365,1.373-0.603,2.228-0.603c2.073,0,2.577,1.415,2.577,2.773v2.535
			c0,0.589,0.028,1.163,0.112,1.625H61.715z M61.533,117.914c-1.345-0.027-2.872,0.211-2.872,1.527c0,0.798,0.532,1.176,1.163,1.176
			c0.882,0,1.442-0.561,1.639-1.135c0.042-0.125,0.07-0.266,0.07-0.392V117.914z"/>
		<path fill="#DDDDDD" d="M64.709,111.429h1.232v9.945h-1.232V111.429z"/>
		<path fill="#DDDDDD" d="M73.686,119.525c0,0.7,0.015,1.316,0.057,1.849h-1.093l-0.07-1.106h-0.028
			c-0.321,0.547-1.036,1.261-2.241,1.261c-1.064,0-2.339-0.589-2.339-2.97v-3.965h1.232v3.754c0,1.289,0.393,2.158,1.513,2.158
			c0.827,0,1.401-0.574,1.625-1.121c0.07-0.182,0.112-0.406,0.112-0.631v-4.16h1.232V119.525z"/>
		<path fill="#DDDDDD" d="M79.48,121.374l-0.098-0.854h-0.042c-0.378,0.532-1.106,1.009-2.073,1.009
			c-1.373,0-2.073-0.967-2.073-1.947c0-1.639,1.457-2.535,4.076-2.521v-0.14c0-0.561-0.154-1.569-1.541-1.569
			c-0.63,0-1.288,0.196-1.765,0.505l-0.28-0.813c0.561-0.365,1.373-0.603,2.228-0.603c2.073,0,2.577,1.415,2.577,2.773v2.535
			c0,0.589,0.028,1.163,0.112,1.625H79.48z M79.299,117.914c-1.345-0.027-2.872,0.211-2.872,1.527c0,0.798,0.532,1.176,1.163,1.176
			c0.882,0,1.442-0.561,1.639-1.135c0.042-0.125,0.07-0.266,0.07-0.392V117.914z"/>
		<path fill="#DDDDDD" d="M87.308,121.122c-0.322,0.168-1.037,0.392-1.947,0.392c-2.045,0-3.376-1.387-3.376-3.459
			c0-2.088,1.429-3.601,3.642-3.601c0.729,0,1.373,0.183,1.709,0.351l-0.28,0.952c-0.294-0.168-0.756-0.321-1.429-0.321
			c-1.555,0-2.395,1.148-2.395,2.563c0,1.568,1.008,2.535,2.353,2.535c0.701,0,1.163-0.182,1.514-0.336L87.308,121.122z"/>
		<path fill="#DDDDDD" d="M90.12,112.689c0.014,0.42-0.294,0.756-0.784,0.756c-0.435,0-0.743-0.336-0.743-0.756
			c0-0.435,0.322-0.771,0.771-0.771C89.826,111.919,90.12,112.255,90.12,112.689z M88.747,121.374v-6.78h1.232v6.78H88.747z"/>
		<path fill="#DDDDDD" d="M98.158,117.928c0,2.508-1.737,3.601-3.376,3.601c-1.835,0-3.25-1.345-3.25-3.488
			c0-2.269,1.485-3.6,3.362-3.6C96.841,114.44,98.158,115.855,98.158,117.928z M92.779,117.998c0,1.484,0.854,2.605,2.059,2.605
			c1.177,0,2.06-1.106,2.06-2.633c0-1.148-0.574-2.605-2.031-2.605S92.779,116.709,92.779,117.998z M96.688,111.667l-1.709,2.003
			h-0.883l1.232-2.003H96.688z"/>
		<path fill="#DDDDDD" d="M99.709,116.43c0-0.701-0.014-1.275-0.056-1.836h1.093l0.069,1.121h0.028
			c0.336-0.645,1.12-1.274,2.241-1.274c0.938,0,2.396,0.56,2.396,2.886v4.048h-1.233v-3.908c0-1.093-0.405-2.003-1.568-2.003
			c-0.813,0-1.442,0.574-1.653,1.261c-0.056,0.153-0.084,0.364-0.084,0.574v4.076h-1.232V116.43z"/>
	</g>
</g>
</svg>
