<?xml version="1.0" encoding="utf-8"?>
<!-- Generator: Adobe Illustrator 16.0.0, SVG Export Plug-In . SVG Version: 6.00 Build 0)  -->
<!DOCTYPE svg PUBLIC "-//W3C//DTD SVG 1.1//EN" "http://www.w3.org/Graphics/SVG/1.1/DTD/svg11.dtd">
<svg version="1.1" id="Capa_1" xmlns="http://www.w3.org/2000/svg" xmlns:xlink="http://www.w3.org/1999/xlink" x="0px" y="0px"
	 width="145.918px" height="127.299px" viewBox="0 0 145.918 127.299" enable-background="new 0 0 145.918 127.299"
	 xml:space="preserve">
<g>
	<path fill-rule="evenodd" clip-rule="evenodd" fill="#0C488D" d="M145.918,115.299c0,6.627-5.373,12-12,12H12
		c-6.627,0-12-5.373-12-12V91.4c0-6.627,5.373-12,12-12h121.918c6.627,0,12,5.373,12,12V115.299z"/>
	<path fill-rule="evenodd" clip-rule="evenodd" fill="#042F5B" d="M61.99,78.098l52.416,49.201h19.512c0,0,10.105-0.002,12-10.76
		l-0.07-26.422c0,0-1.492-10.717-11.93-10.717L61.99,78.098z"/>
	<g>
		<defs>
			<circle id="SVGID_1_" cx="72.959" cy="46.987" r="41.447"/>
		</defs>
		<clipPath id="SVGID_2_">
			<use xlink:href="#SVGID_1_"  overflow="visible"/>
		</clipPath>
		<g clip-path="url(#SVGID_2_)">
			<path fill-rule="evenodd" clip-rule="evenodd" fill="#0C488D" d="M65.654,0c4.869,0,9.738,0,14.609,0
				c-0.057,0.811,0.623,0.611,1.021,0.688c19.537,3.732,34.004,18.198,37.736,37.736c0.076,0.397-0.123,1.078,0.688,1.021
				c0,1.705,0,3.409,0,5.113c-0.721,0.037-1.262-0.372-1.824-0.733c-6.84-4.396-13.684-8.791-20.525-13.186
				c-0.984-1.064-1.93-2.168-2.959-3.187c-2.824-2.791-5.266-5.958-8.357-8.484c-0.684-0.359-1.422-0.329-2.16-0.305
				c-7.846,0.005-15.689,0.005-23.535,0.019c-4.91,0.009-7.631,2.575-7.65,7.494c-0.057,13.866-0.049,27.733-0.002,41.6
				c0.014,4.121,1.969,6.346,6.025,7.242c1.768,1.663,3.531,3.331,5.305,4.988c3.459,3.231,6.963,6.419,10.367,9.707
				c1.201,1.159,2.723,2.078,3.314,3.786c-4.018,0-8.035,0-12.053,0c0.057-0.81-0.625-0.611-1.021-0.688
				c-19.539-3.731-34.006-18.198-37.736-37.736c-0.076-0.397,0.121-1.077-0.688-1.021c0-4.869,0-9.739,0-14.609
				c0.811,0.057,0.611-0.624,0.688-1.021C30.627,18.886,45.094,4.42,64.633,0.688C65.029,0.611,65.709,0.81,65.654,0z"/>
			<path fill-rule="evenodd" clip-rule="evenodd" fill="#042F5B" d="M77.707,93.5c-0.592-1.708-2.113-2.627-3.314-3.786
				c-3.404-3.288-6.908-6.476-10.367-9.707c-1.773-1.657-3.537-3.325-5.305-4.988c4.584,0,9.168,0,13.951,0
				c-1.129-2.123-2.402-3.121-4.629-2.94c-2.539,0.206-5.107,0.052-7.664,0.047c-3.385-0.007-4.861-1.37-4.873-4.694
				c-0.033-9.434,0.012-18.867-0.041-28.301c-0.008-1.307,0.529-1.48,1.623-1.464c3.285,0.053,6.572,0.02,9.859,0.02
				c8.643,0,17.285-0.003,25.928,0.004c0.803,0.001,1.715-0.29,1.707,1.15c-0.045,9.86-0.004,19.72-0.057,29.579
				c-0.01,1.823-1.02,3.283-2.854,3.508c-1.912,0.234-2.727,1.457-3.869,3.012c1.201,0,2.094,0.009,2.984-0.002
				c3.674-0.043,6.596-2.724,6.617-6.376c0.068-11.503,0.018-23.006,0.045-34.51c0.002-0.926-0.219-1.327-1.213-1.262
				c-1.15,0.075-2.311,0.034-3.467,0.013c-4.953-0.09-8.727-3.897-8.789-8.85c-0.023-1.763-0.064-3.525-0.098-5.288
				c0.738-0.024,1.477-0.055,2.16,0.305c0.008,1.823-0.051,3.649,0.039,5.469c0.172,3.422,2.756,6.046,6.182,6.241
				c1.693,0.097,3.396-0.02,5.096-0.039c6.842,4.395,13.686,8.789,20.525,13.186c0.563,0.361,1.104,0.771,1.824,0.733
				c0,3.287,0,6.574,0,9.861c-0.785-0.125-0.631,0.526-0.719,0.918c-4.629,20.337-17.111,32.812-37.445,37.443
				c-0.391,0.089-1.043-0.066-0.916,0.719C79.654,93.5,78.68,93.5,77.707,93.5z M89.404,70.065c-1.383,0-2.332-0.074-3.264,0.019
				c-1.207,0.12-1.555-0.326-1.521-1.521c0.082-2.975-0.002-5.955,0.043-8.932c0.016-0.907-0.182-1.308-1.193-1.273
				c-2.125,0.071-4.254,0.064-6.379,0.002c-0.963-0.029-1.256,0.285-1.229,1.239c0.061,2.246,0.02,4.496,0.02,6.744
				c0,3.576,0,3.575-3.648,3.729c-0.217,0.009-0.434,0.049-0.979,0.114c2.961,3.398,5.734,6.573,8.496,9.761
				c0.365,0.423,0.672,0.438,1.033,0.024C83.553,76.785,86.324,73.602,89.404,70.065z M84.51,42.001
				c-1.758,0-3.516,0.021-5.273-0.007c-1.066-0.017-1.551,0.445-1.537,1.523c0.025,2.182,0.018,4.364,0.004,6.547
				c-0.006,0.985,0.453,1.435,1.436,1.432c3.576-0.013,7.154-0.01,10.73-0.007c0.895,0,1.342-0.423,1.342-1.327
				c-0.004-2.243-0.008-4.486,0.006-6.729c0.008-0.984-0.447-1.441-1.432-1.434C88.027,42.015,86.27,42.004,84.51,42.001z
				 M75.271,56.247c-4.742,0-9.482-0.005-14.223,0.005c-0.9,0.002-1.938-0.151-1.951,1.255c-0.012,1.396,1,1.289,1.918,1.291
				c3.586,0.007,7.172-0.003,10.758,0.007c1.113,0.003,2.246,0.138,2.393-1.481c0.051-0.576,0.627-0.692,1.135-0.694
				c3.281-0.009,6.564-0.009,9.846-0.005c0.5,0.001,1.066,0.063,1.191,0.628c0.199,0.912,0.465,1.634,1.607,1.55
				c0.846-0.063,1.699-0.03,2.543-0.105c0.393-0.036,0.602-0.371,0.67-0.765c0.234-1.342-0.469-1.699-1.666-1.693
				C84.752,56.264,80.012,56.249,75.271,56.247z M66.746,48.949c-2.061,0-4.121,0.002-6.182-0.001
				c-0.811-0.001-1.434,0.197-1.469,1.186c-0.037,1.056,0.543,1.365,1.477,1.363c3.998-0.009,7.998-0.005,11.996-0.003
				c0.813,0,1.434-0.196,1.469-1.186c0.039-1.054-0.541-1.368-1.475-1.362C70.623,48.958,68.684,48.949,66.746,48.949z
				 M66.383,44.188c2.061,0,4.121,0.006,6.182-0.002c0.697-0.003,1.377-0.073,1.443-0.994c0.064-0.899-0.443-1.449-1.262-1.458
				c-4.119-0.046-8.236-0.046-12.354-0.001c-0.82,0.009-1.33,0.556-1.268,1.456c0.064,0.921,0.744,0.993,1.441,0.997
				C62.506,44.194,64.445,44.188,66.383,44.188z M66.574,63.551c-1.887,0-3.771-0.016-5.656,0.008
				c-0.762,0.01-1.697-0.162-1.787,1.018c-0.082,1.077,0.738,1.41,1.531,1.422c4.01,0.06,8.021,0.059,12.031,0.021
				c0.816-0.008,1.354-0.515,1.313-1.428c-0.043-0.926-0.701-1.03-1.412-1.033C70.586,63.552,68.58,63.557,66.574,63.551z
				 M88.969,63.59c0-0.004,0-0.007,0-0.011c-0.48,0-0.963-0.022-1.441,0.006c-0.631,0.038-0.994,0.368-1.002,1.03
				c-0.01,0.642,0.287,1.055,0.938,1.084c0.9,0.04,1.803,0.041,2.701,0.011c0.627-0.021,0.994-0.367,1.004-1.029
				c0.008-0.643-0.289-1.033-0.939-1.085C89.811,63.563,89.389,63.59,88.969,63.59z"/>
			<path fill-rule="evenodd" clip-rule="evenodd" fill="#F7F3F4" d="M83.883,18.664c0.033,1.763,0.074,3.525,0.098,5.288
				c0.063,4.952,3.836,8.76,8.789,8.85c1.156,0.021,2.316,0.063,3.467-0.013c0.994-0.065,1.215,0.336,1.213,1.262
				c-0.027,11.504,0.023,23.007-0.045,34.51c-0.021,3.652-2.943,6.333-6.617,6.376c-0.891,0.011-1.783,0.002-2.984,0.002
				c1.143-1.555,1.957-2.777,3.869-3.012c1.834-0.225,2.844-1.685,2.854-3.508c0.053-9.859,0.012-19.719,0.057-29.579
				c0.008-1.44-0.904-1.149-1.707-1.15c-8.643-0.007-17.285-0.004-25.928-0.004c-3.287,0-6.574,0.033-9.859-0.02
				c-1.094-0.017-1.631,0.157-1.623,1.464c0.053,9.434,0.008,18.867,0.041,28.301c0.012,3.324,1.488,4.688,4.873,4.694
				c2.557,0.005,5.125,0.159,7.664-0.047c2.227-0.181,3.5,0.817,4.629,2.94c-4.783,0-9.367,0-13.951,0
				c-4.057-0.896-6.012-3.121-6.025-7.242c-0.047-13.866-0.055-27.733,0.002-41.6c0.02-4.919,2.74-7.485,7.65-7.494
				C68.193,18.669,76.037,18.669,83.883,18.664z M67.162,32.15c2.865-0.003,3.945-0.498,4.604-1.978
				c0.744-1.677,0.443-3.849-0.686-4.949c-0.813-0.792-4.369-1.364-5.408-0.91c-0.533,0.232-0.447,0.668-0.451,1.072
				c-0.014,1.52,0.119,3.052-0.039,4.554C64.988,31.78,65.553,32.585,67.162,32.15z M60.43,24.293
				c-2.441-0.008-2.441-0.008-2.443,2.369c0,1.455,0.016,2.909-0.006,4.364c-0.01,0.669,0.021,1.142,0.934,1.137
				c0.943-0.006,0.986-0.548,0.879-1.171c-0.262-1.54,0.498-1.768,1.832-1.751c2.082,0.027,3.211-1.842,2.301-3.603
				C63.162,24.162,61.762,24.313,60.43,24.293z M73.25,28.266c0,0.852-0.014,1.703,0.004,2.554c0.014,0.627-0.213,1.391,0.91,1.343
				c0.979-0.042,0.869-0.718,0.807-1.28c-0.162-1.434,0.238-2.193,1.857-1.982c0.496,0.065,1.354,0.358,1.404-0.629
				c0.059-1.109-0.848-0.707-1.434-0.844c-0.643-0.15-1.818,0.56-1.75-0.84c0.061-1.203,1.121-0.508,1.719-0.694
				c0.168-0.052,0.365,0.009,0.545-0.011c0.602-0.067,1.459,0.273,1.428-0.847c-0.027-0.975-0.785-0.735-1.342-0.762
				C73.25,24.083,73.25,24.088,73.25,28.266z"/>
			<path fill-rule="evenodd" clip-rule="evenodd" fill="#F7F3F4" d="M97.359,30.64c-1.699,0.02-3.402,0.136-5.096,0.039
				c-3.426-0.195-6.01-2.819-6.182-6.241c-0.09-1.819-0.031-3.646-0.039-5.469c3.092,2.526,5.533,5.693,8.357,8.484
				C95.43,28.472,96.375,29.575,97.359,30.64z"/>
			<path fill-rule="evenodd" clip-rule="evenodd" fill="#FEFDFD" d="M89.404,70.065c-3.08,3.536-5.852,6.72-8.621,9.905
				c-0.361,0.414-0.668,0.398-1.033-0.024c-2.762-3.188-5.535-6.362-8.496-9.761c0.545-0.065,0.762-0.105,0.979-0.114
				c3.648-0.153,3.648-0.152,3.648-3.729c0-2.248,0.041-4.498-0.02-6.744c-0.027-0.954,0.266-1.269,1.229-1.239
				c2.125,0.063,4.254,0.069,6.379-0.002c1.012-0.034,1.209,0.366,1.193,1.273c-0.045,2.977,0.039,5.957-0.043,8.932
				c-0.033,1.195,0.314,1.642,1.521,1.521C87.072,69.991,88.021,70.065,89.404,70.065z"/>
			<path fill-rule="evenodd" clip-rule="evenodd" fill="#0C488D" d="M84.51,42.003c1.76,0.001,3.518,0.012,5.275-0.004
				c0.984-0.008,1.439,0.449,1.432,1.434c-0.014,2.243-0.01,4.486-0.006,6.729c0,0.904-0.447,1.327-1.342,1.327
				c-3.576-0.003-7.154-0.006-10.73,0.007c-0.982,0.003-1.441-0.446-1.436-1.432c0.014-2.183,0.021-4.365-0.004-6.547
				c-0.014-1.078,0.471-1.54,1.537-1.523C80.994,42.021,82.752,42.001,84.51,42.003z"/>
			<path fill-rule="evenodd" clip-rule="evenodd" fill="#0C488D" d="M75.271,56.248c4.74,0.001,9.48,0.016,14.221-0.01
				c1.197-0.006,1.9,0.352,1.666,1.693c-0.068,0.394-0.277,0.729-0.67,0.765c-0.844,0.075-1.697,0.043-2.543,0.105
				c-1.143,0.084-1.408-0.638-1.607-1.55c-0.125-0.564-0.691-0.627-1.191-0.628c-3.281-0.004-6.564-0.004-9.846,0.005
				c-0.508,0.002-1.084,0.118-1.135,0.694c-0.146,1.619-1.279,1.484-2.393,1.481c-3.586-0.01-7.172,0-10.758-0.007
				c-0.918-0.002-1.93,0.105-1.918-1.291c0.014-1.406,1.051-1.253,1.951-1.255C65.789,56.242,70.529,56.247,75.271,56.248z"/>
			<path fill-rule="evenodd" clip-rule="evenodd" fill="#0C488D" d="M66.746,48.949c1.938,0,3.877,0.009,5.816-0.003
				c0.934-0.006,1.514,0.309,1.475,1.362c-0.035,0.989-0.656,1.186-1.469,1.186c-3.998-0.002-7.998-0.006-11.996,0.003
				c-0.934,0.002-1.514-0.308-1.477-1.363c0.035-0.988,0.658-1.187,1.469-1.186C62.625,48.951,64.686,48.949,66.746,48.949z"/>
			<path fill-rule="evenodd" clip-rule="evenodd" fill="#0C488D" d="M66.383,44.188c-1.938,0-3.877,0.006-5.816-0.002
				c-0.697-0.004-1.377-0.076-1.441-0.997c-0.063-0.9,0.447-1.447,1.268-1.456c4.117-0.045,8.234-0.045,12.354,0.001
				c0.818,0.009,1.326,0.559,1.262,1.458c-0.066,0.921-0.746,0.991-1.443,0.994C70.504,44.194,68.443,44.188,66.383,44.188z"/>
			<path fill-rule="evenodd" clip-rule="evenodd" fill="#0C488D" d="M66.574,63.554c2.006,0.003,4.012-0.002,6.02,0.005
				c0.711,0.003,1.369,0.107,1.412,1.033c0.041,0.913-0.496,1.42-1.313,1.428c-4.01,0.037-8.021,0.038-12.031-0.021
				c-0.793-0.012-1.613-0.345-1.531-1.422c0.09-1.18,1.025-1.008,1.787-1.018C62.803,63.535,64.688,63.551,66.574,63.554z"/>
			<path fill-rule="evenodd" clip-rule="evenodd" fill="#0C488D" d="M88.969,63.59c0.42,0,0.842-0.026,1.26,0.006
				c0.65,0.052,0.947,0.442,0.939,1.085c-0.01,0.662-0.377,1.009-1.004,1.029c-0.898,0.03-1.801,0.029-2.701-0.011
				c-0.65-0.029-0.947-0.442-0.938-1.084c0.008-0.662,0.371-0.992,1.002-1.03c0.479-0.028,0.961-0.006,1.441-0.006
				C88.969,63.583,88.969,63.586,88.969,63.59z"/>
			<path fill-rule="evenodd" clip-rule="evenodd" fill="#0C488D" d="M67.162,32.15c-1.609,0.435-2.174-0.37-1.98-2.211
				c0.158-1.502,0.025-3.034,0.039-4.554c0.004-0.404-0.082-0.84,0.451-1.072c1.039-0.454,4.596,0.118,5.408,0.91
				c1.129,1.101,1.43,3.272,0.686,4.949C71.107,31.652,70.027,32.147,67.162,32.15z M68.131,25.896
				c-0.689-0.105-1.123,0.099-1.07,0.953c0.047,0.726-0.021,1.458,0.018,2.184c0.027,0.514-0.264,1.216,0.338,1.479
				c0.613,0.266,1.342,0.15,1.928-0.225c1.023-0.655,1.133-1.688,0.895-2.741C70,26.496,69.344,25.838,68.131,25.896z"/>
			<path fill-rule="evenodd" clip-rule="evenodd" fill="#0C488D" d="M60.432,24.292c1.33,0.021,2.73-0.13,3.494,1.347
				c0.91,1.761-0.219,3.63-2.301,3.603c-1.334-0.017-2.094,0.211-1.832,1.751c0.107,0.623,0.064,1.165-0.879,1.171
				c-0.912,0.005-0.943-0.468-0.934-1.137c0.021-1.455,0.006-2.909,0.006-4.364C57.988,24.285,57.988,24.285,60.432,24.292z
				 M60.652,25.716c-0.645-0.115-0.881,0.32-0.867,1.166c0.014,0.752,0.201,1.155,1.021,1.062c0.719-0.083,1.545-0.032,1.594-1.061
				C62.451,25.835,61.656,25.806,60.652,25.716z"/>
			<path fill-rule="evenodd" clip-rule="evenodd" fill="#0C488D" d="M73.25,28.266c0-4.178,0-4.183,4.148-3.992
				c0.557,0.026,1.314-0.213,1.342,0.762c0.031,1.12-0.826,0.779-1.428,0.847c-0.18,0.02-0.377-0.041-0.545,0.011
				c-0.598,0.187-1.658-0.509-1.719,0.694c-0.068,1.399,1.107,0.689,1.75,0.84c0.586,0.137,1.492-0.266,1.434,0.844
				c-0.051,0.987-0.908,0.694-1.404,0.629c-1.619-0.211-2.02,0.549-1.857,1.982c0.063,0.563,0.172,1.238-0.807,1.28
				c-1.123,0.048-0.896-0.716-0.91-1.343C73.236,29.969,73.25,29.117,73.25,28.266z"/>
			<path fill-rule="evenodd" clip-rule="evenodd" fill="#F7F3F4" d="M68.131,25.896c1.213-0.059,1.869,0.6,2.107,1.649
				c0.238,1.054,0.129,2.086-0.895,2.741c-0.586,0.375-1.314,0.49-1.928,0.225c-0.602-0.263-0.311-0.965-0.338-1.479
				c-0.039-0.726,0.029-1.458-0.018-2.184C67.008,25.995,67.441,25.791,68.131,25.896z"/>
			<path fill-rule="evenodd" clip-rule="evenodd" fill="#F7F3F4" d="M60.652,25.716c1.004,0.09,1.799,0.119,1.748,1.167
				c-0.049,1.028-0.875,0.978-1.594,1.061c-0.82,0.094-1.008-0.31-1.021-1.062C59.771,26.036,60.008,25.601,60.652,25.716z"/>
		</g>
	</g>
	<g>
		<path fill="#DDDDDD" d="M25.225,97.43l-1.12,3.395h-1.44l3.665-10.789h1.681l3.682,10.789h-1.488l-1.152-3.395H25.225z
			 M28.763,96.342l-1.057-3.105c-0.24-0.704-0.4-1.344-0.561-1.969h-0.032c-0.16,0.641-0.336,1.297-0.544,1.953l-1.057,3.121H28.763
			z"/>
		<path fill="#DDDDDD" d="M38.554,100.535c-0.368,0.192-1.185,0.449-2.225,0.449c-2.337,0-3.857-1.586-3.857-3.954
			c0-2.386,1.633-4.114,4.161-4.114c0.833,0,1.569,0.209,1.953,0.4l-0.32,1.089c-0.336-0.192-0.864-0.368-1.633-0.368
			c-1.776,0-2.736,1.313-2.736,2.93c0,1.792,1.152,2.896,2.688,2.896c0.801,0,1.329-0.208,1.729-0.385L38.554,100.535z"/>
		<path fill="#DDDDDD" d="M42.104,90.852v2.225h2.017v1.072h-2.017v4.178c0,0.961,0.272,1.506,1.057,1.506
			c0.368,0,0.64-0.049,0.816-0.097l0.063,1.056c-0.271,0.113-0.704,0.193-1.248,0.193c-0.656,0-1.185-0.209-1.521-0.593
			c-0.4-0.416-0.545-1.104-0.545-2.017v-4.227h-1.2v-1.072h1.2V91.22L42.104,90.852z"/>
		<path fill="#DDDDDD" d="M47.272,90.9c0.016,0.479-0.336,0.863-0.896,0.863c-0.496,0-0.849-0.384-0.849-0.863
			c0-0.497,0.368-0.881,0.881-0.881C46.937,90.02,47.272,90.403,47.272,90.9z M45.704,100.824v-7.748h1.408v7.748H45.704z"/>
		<path fill="#DDDDDD" d="M49.992,93.076l1.521,4.354c0.256,0.705,0.464,1.346,0.624,1.985h0.048c0.177-0.64,0.4-1.28,0.656-1.985
			l1.505-4.354h1.473l-3.041,7.748h-1.345l-2.945-7.748H49.992z"/>
		<path fill="#DDDDDD" d="M58.712,90.9c0.016,0.479-0.336,0.863-0.896,0.863c-0.496,0-0.849-0.384-0.849-0.863
			c0-0.497,0.368-0.881,0.881-0.881C58.376,90.02,58.712,90.403,58.712,90.9z M57.144,100.824v-7.748h1.408v7.748H57.144z"/>
		<path fill="#DDDDDD" d="M67.578,89.459v9.363c0,0.689,0.016,1.473,0.063,2.002h-1.265l-0.063-1.346h-0.032
			C65.85,100.344,64.905,101,63.641,101c-1.873,0-3.313-1.585-3.313-3.938c-0.017-2.577,1.585-4.162,3.474-4.162
			c1.185,0,1.984,0.561,2.337,1.185h0.031v-4.626H67.578z M66.169,96.23c0-0.177-0.016-0.417-0.063-0.593
			c-0.208-0.896-0.977-1.633-2.033-1.633c-1.456,0-2.32,1.28-2.32,2.993c0,1.568,0.768,2.865,2.288,2.865
			c0.945,0,1.81-0.624,2.065-1.681c0.048-0.192,0.063-0.384,0.063-0.608V96.23z"/>
		<path fill="#DDDDDD" d="M74.201,100.824l-0.112-0.977h-0.048c-0.432,0.607-1.265,1.152-2.369,1.152
			c-1.568,0-2.368-1.104-2.368-2.225c0-1.873,1.664-2.897,4.657-2.882v-0.159c0-0.641-0.176-1.793-1.761-1.793
			c-0.72,0-1.473,0.224-2.017,0.576l-0.32-0.929c0.641-0.416,1.569-0.688,2.545-0.688c2.369,0,2.945,1.617,2.945,3.17v2.896
			c0,0.672,0.032,1.328,0.128,1.857H74.201z M73.993,96.87c-1.536-0.032-3.281,0.24-3.281,1.745c0,0.912,0.608,1.344,1.328,1.344
			c1.009,0,1.649-0.64,1.873-1.296c0.048-0.144,0.08-0.304,0.08-0.448V96.87z"/>
		<path fill="#DDDDDD" d="M84.314,89.459v9.363c0,0.689,0.016,1.473,0.063,2.002h-1.265l-0.063-1.346h-0.032
			c-0.432,0.865-1.376,1.521-2.641,1.521c-1.873,0-3.313-1.585-3.313-3.938c-0.017-2.577,1.585-4.162,3.474-4.162
			c1.185,0,1.984,0.561,2.337,1.185h0.031v-4.626H84.314z M82.905,96.23c0-0.177-0.016-0.417-0.063-0.593
			c-0.208-0.896-0.977-1.633-2.033-1.633c-1.456,0-2.32,1.28-2.32,2.993c0,1.568,0.768,2.865,2.288,2.865
			c0.945,0,1.81-0.624,2.065-1.681c0.048-0.192,0.063-0.384,0.063-0.608V96.23z"/>
		<path fill="#DDDDDD" d="M87.432,97.206c0.031,1.905,1.248,2.689,2.656,2.689c1.009,0,1.617-0.177,2.146-0.4l0.24,1.009
			c-0.496,0.224-1.345,0.48-2.577,0.48c-2.385,0-3.81-1.569-3.81-3.906s1.376-4.178,3.634-4.178c2.528,0,3.201,2.225,3.201,3.649
			c0,0.288-0.032,0.513-0.049,0.656H87.432z M91.561,96.197c0.017-0.896-0.368-2.289-1.952-2.289c-1.425,0-2.049,1.313-2.161,2.289
			H91.561z"/>
		<path fill="#DDDDDD" d="M94.471,99.383c0.416,0.272,1.152,0.561,1.856,0.561c1.024,0,1.505-0.512,1.505-1.152
			c0-0.672-0.4-1.041-1.44-1.425c-1.393-0.496-2.049-1.265-2.049-2.192c0-1.249,1.008-2.273,2.673-2.273
			c0.784,0,1.473,0.225,1.904,0.48l-0.352,1.024c-0.305-0.192-0.864-0.448-1.585-0.448c-0.832,0-1.296,0.48-1.296,1.057
			c0,0.641,0.464,0.928,1.472,1.313c1.345,0.512,2.033,1.184,2.033,2.337c0,1.36-1.057,2.321-2.897,2.321
			c-0.848,0-1.632-0.209-2.177-0.529L94.471,99.383z"/>
		<path fill="#DDDDDD" d="M111.082,89.459v9.363c0,0.689,0.016,1.473,0.063,2.002h-1.265l-0.063-1.346h-0.032
			c-0.432,0.865-1.376,1.521-2.641,1.521c-1.873,0-3.313-1.585-3.313-3.938c-0.017-2.577,1.585-4.162,3.474-4.162
			c1.185,0,1.984,0.561,2.337,1.185h0.031v-4.626H111.082z M109.673,96.23c0-0.177-0.016-0.417-0.063-0.593
			c-0.208-0.896-0.977-1.633-2.033-1.633c-1.456,0-2.32,1.28-2.32,2.993c0,1.568,0.768,2.865,2.288,2.865
			c0.945,0,1.81-0.624,2.065-1.681c0.048-0.192,0.063-0.384,0.063-0.608V96.23z"/>
		<path fill="#DDDDDD" d="M114.199,97.206c0.031,1.905,1.248,2.689,2.656,2.689c1.009,0,1.617-0.177,2.146-0.4l0.24,1.009
			c-0.496,0.224-1.345,0.48-2.577,0.48c-2.385,0-3.81-1.569-3.81-3.906s1.376-4.178,3.634-4.178c2.528,0,3.201,2.225,3.201,3.649
			c0,0.288-0.032,0.513-0.049,0.656H114.199z M118.328,96.197c0.017-0.896-0.368-2.289-1.952-2.289
			c-1.425,0-2.049,1.313-2.161,2.289H118.328z"/>
		<path fill="#DDDDDD" d="M39.409,116.023l-0.112-0.977h-0.048c-0.432,0.609-1.265,1.153-2.369,1.153
			c-1.568,0-2.368-1.104-2.368-2.226c0-1.872,1.664-2.896,4.657-2.881v-0.16c0-0.641-0.176-1.793-1.761-1.793
			c-0.72,0-1.473,0.225-2.017,0.576l-0.32-0.928c0.641-0.416,1.569-0.688,2.545-0.688c2.369,0,2.945,1.616,2.945,3.169v2.897
			c0,0.673,0.032,1.329,0.128,1.856H39.409z M39.201,112.07c-1.536-0.032-3.281,0.24-3.281,1.744c0,0.913,0.608,1.346,1.328,1.346
			c1.009,0,1.649-0.641,1.873-1.297c0.048-0.145,0.08-0.305,0.08-0.448V112.07z"/>
		<path fill="#DDDDDD" d="M42.832,110.806c0-0.992-0.032-1.792-0.064-2.528h1.265l0.063,1.328h0.032
			c0.576-0.944,1.488-1.505,2.753-1.505c1.873,0,3.281,1.585,3.281,3.938c0,2.785-1.696,4.162-3.521,4.162
			c-1.024,0-1.92-0.448-2.385-1.217h-0.031v4.21h-1.393V110.806z M44.225,112.871c0,0.207,0.031,0.4,0.063,0.576
			c0.256,0.977,1.104,1.648,2.113,1.648c1.488,0,2.353-1.217,2.353-2.993c0-1.553-0.816-2.882-2.305-2.882
			c-0.961,0-1.857,0.689-2.129,1.745c-0.048,0.177-0.096,0.384-0.096,0.576V112.871z"/>
		<path fill="#DDDDDD" d="M51.936,110.693c0-0.912-0.017-1.696-0.064-2.416h1.232l0.048,1.52h0.064
			c0.352-1.04,1.2-1.696,2.145-1.696c0.16,0,0.272,0.017,0.4,0.048v1.328c-0.145-0.031-0.288-0.047-0.48-0.047
			c-0.992,0-1.696,0.752-1.889,1.809c-0.032,0.191-0.063,0.416-0.063,0.656v4.129h-1.393V110.693z"/>
		<path fill="#DDDDDD" d="M57.792,112.406c0.031,1.904,1.248,2.689,2.657,2.689c1.008,0,1.616-0.176,2.145-0.4l0.24,1.008
			c-0.496,0.225-1.345,0.48-2.577,0.48c-2.385,0-3.81-1.568-3.81-3.905s1.376-4.178,3.634-4.178c2.528,0,3.201,2.226,3.201,3.649
			c0,0.288-0.032,0.512-0.049,0.656H57.792z M61.921,111.398c0.017-0.896-0.368-2.289-1.952-2.289c-1.425,0-2.049,1.313-2.161,2.289
			H61.921z"/>
		<path fill="#DDDDDD" d="M65.023,110.373c0-0.8-0.017-1.456-0.064-2.096h1.248l0.08,1.279h0.032
			c0.385-0.736,1.28-1.456,2.562-1.456c1.072,0,2.736,0.641,2.736,3.298v4.625h-1.408v-4.465c0-1.249-0.464-2.289-1.793-2.289
			c-0.928,0-1.648,0.656-1.889,1.44c-0.063,0.176-0.096,0.416-0.096,0.656v4.657h-1.408V110.373z"/>
		<path fill="#DDDDDD" d="M80.594,104.659v9.364c0,0.688,0.016,1.473,0.063,2h-1.265l-0.063-1.344h-0.032
			c-0.432,0.864-1.376,1.521-2.641,1.521c-1.873,0-3.313-1.585-3.313-3.938c-0.017-2.576,1.585-4.161,3.474-4.161
			c1.185,0,1.984,0.561,2.337,1.185h0.031v-4.626H80.594z M79.185,111.43c0-0.176-0.016-0.416-0.063-0.592
			c-0.208-0.896-0.977-1.633-2.033-1.633c-1.456,0-2.32,1.281-2.32,2.993c0,1.569,0.768,2.865,2.288,2.865
			c0.945,0,1.81-0.624,2.065-1.681c0.048-0.191,0.063-0.385,0.063-0.608V111.43z"/>
		<path fill="#DDDDDD" d="M84.496,106.1c0.016,0.48-0.336,0.865-0.896,0.865c-0.496,0-0.849-0.385-0.849-0.865
			c0-0.496,0.368-0.88,0.881-0.88C84.16,105.22,84.496,105.604,84.496,106.1z M82.928,116.023v-7.746h1.408v7.746H82.928z"/>
		<path fill="#DDDDDD" d="M85.79,115.207l3.506-4.561c0.336-0.417,0.656-0.785,1.008-1.201v-0.032H86.11v-1.136h5.906l-0.016,0.88
			l-3.458,4.497c-0.32,0.433-0.64,0.816-0.992,1.217v0.032h4.53v1.12H85.79V115.207z"/>
		<path fill="#DDDDDD" d="M97.809,116.023l-0.112-0.977h-0.048c-0.432,0.609-1.265,1.153-2.369,1.153
			c-1.568,0-2.368-1.104-2.368-2.226c0-1.872,1.664-2.896,4.657-2.881v-0.16c0-0.641-0.176-1.793-1.761-1.793
			c-0.72,0-1.473,0.225-2.017,0.576l-0.32-0.928c0.641-0.416,1.569-0.688,2.545-0.688c2.369,0,2.945,1.616,2.945,3.169v2.897
			c0,0.673,0.032,1.329,0.128,1.856H97.809z M97.601,112.07c-1.536-0.032-3.281,0.24-3.281,1.744c0,0.913,0.608,1.346,1.328,1.346
			c1.009,0,1.649-0.641,1.873-1.297c0.048-0.145,0.08-0.305,0.08-0.448V112.07z"/>
		<path fill="#DDDDDD" d="M99.342,118.265c0.641-0.048,1.201-0.224,1.537-0.593c0.384-0.447,0.528-1.056,0.528-2.912v-6.482h1.408
			v7.026c0,1.505-0.24,2.481-0.928,3.185c-0.625,0.625-1.649,0.881-2.401,0.881L99.342,118.265z M102.976,106.1
			c0.016,0.465-0.32,0.865-0.88,0.865c-0.528,0-0.864-0.4-0.864-0.865c0-0.496,0.368-0.88,0.896-0.88
			C102.64,105.22,102.976,105.604,102.976,106.1z"/>
		<path fill="#DDDDDD" d="M105.903,112.406c0.031,1.904,1.248,2.689,2.657,2.689c1.008,0,1.616-0.176,2.145-0.4l0.24,1.008
			c-0.496,0.225-1.345,0.48-2.577,0.48c-2.385,0-3.81-1.568-3.81-3.905s1.376-4.178,3.634-4.178c2.528,0,3.201,2.226,3.201,3.649
			c0,0.288-0.032,0.512-0.049,0.656H105.903z M110.032,111.398c0.017-0.896-0.368-2.289-1.952-2.289
			c-1.425,0-2.049,1.313-2.161,2.289H110.032z"/>
	</g>
</g>
</svg>
