<?xml version="1.0" encoding="utf-8"?>
<!-- Generator: Adobe Illustrator 16.0.0, SVG Export Plug-In . SVG Version: 6.00 Build 0)  -->
<!DOCTYPE svg PUBLIC "-//W3C//DTD SVG 1.1//EN" "http://www.w3.org/Graphics/SVG/1.1/DTD/svg11.dtd">
<svg version="1.1" id="Capa_1" xmlns="http://www.w3.org/2000/svg" xmlns:xlink="http://www.w3.org/1999/xlink" x="0px" y="0px"
	 width="258.326px" height="249.898px" viewBox="0 0 258.326 249.898" enable-background="new 0 0 258.326 249.898"
	 xml:space="preserve">
<g id="Scheduling_1_">
	<g>
		<g>
			<rect x="99.395" y="67.376" fill-rule="evenodd" clip-rule="evenodd" fill="#F2F2F2" width="154.263" height="104.69"/>
			<path fill-rule="evenodd" clip-rule="evenodd" fill="#FFFFFF" d="M155.098,170.812l2.487,1.311
				c1.119,0.588,1.575,2.012,0.968,3.15l-23.914,45.512c-0.607,1.139-2.012,1.576-3.15,0.987l-2.486-1.31
				c-1.139-0.607-1.575-2.012-0.987-3.15l23.914-45.531C152.536,170.661,153.96,170.205,155.098,170.812L155.098,170.812z"/>
			<path fill-rule="evenodd" clip-rule="evenodd" fill="#FFFFFF" d="M197.953,170.812l-2.468,1.311
				c-1.139,0.588-1.594,2.012-0.986,3.15l23.913,45.512c0.607,1.139,2.012,1.576,3.151,0.987l2.486-1.31
				c1.138-0.607,1.575-2.012,0.987-3.15l-23.915-45.531C200.516,170.661,199.092,170.205,197.953,170.812L197.953,170.812z"/>
			<path fill-rule="evenodd" clip-rule="evenodd" fill="#FFFFFF" d="M175.121,210.631h2.809c1.291,0,2.335-1.044,2.335-2.335
				v-37.294c0-1.29-1.044-2.354-2.335-2.354h-2.809c-1.29,0-2.334,1.063-2.334,2.354v37.294
				C172.787,209.587,173.831,210.631,175.121,210.631L175.121,210.631z"/>
			<rect x="97.174" y="67.376" fill-rule="evenodd" clip-rule="evenodd" fill="#969696" width="2.221" height="104.69"/>
			<rect x="252.547" y="67.376" fill-rule="evenodd" clip-rule="evenodd" fill="#969696" width="2.221" height="104.69"/>
			<path fill-rule="evenodd" clip-rule="evenodd" fill="#FCCE3D" d="M98.236,67.376h156.578c1.936,0,3.512,1.575,3.512,3.492l0,0
				c0,1.936-1.576,3.511-3.512,3.511H98.236c-1.936,0-3.511-1.575-3.511-3.511l0,0C94.726,68.951,96.301,67.376,98.236,67.376
				L98.236,67.376z"/>
			<path fill-rule="evenodd" clip-rule="evenodd" fill="#FCCE3D" d="M98.236,168.326h156.578c1.936,0,3.512,1.596,3.512,3.512l0,0
				c0,1.937-1.576,3.512-3.512,3.512H98.236c-1.936,0-3.511-1.575-3.511-3.512l0,0C94.726,169.921,96.301,168.326,98.236,168.326
				L98.236,168.326z"/>
		</g>
		<g>
			<g>
				<path fill-rule="evenodd" clip-rule="evenodd" fill="#ADECF7" d="M129.799,120.043c9.072,0,16.493-7.421,16.493-16.493
					c0-9.091-7.421-16.493-16.493-16.493c-9.091,0-16.493,7.402-16.493,16.493C113.306,112.623,120.708,120.043,129.799,120.043
					L129.799,120.043z"/>
				<polygon fill-rule="evenodd" clip-rule="evenodd" fill="#F26D6E" points="120.651,100.04 129.229,114.653 149.461,81.478 
					129.723,104.101 				"/>
			</g>
			<g>
				<rect x="161.627" y="95.503" fill-rule="evenodd" clip-rule="evenodd" fill="#A6A9AB" width="77.72" height="2.486"/>
				<rect x="192.715" y="102.525" fill-rule="evenodd" clip-rule="evenodd" fill="#A6A9AB" width="46.632" height="2.468"/>
				<rect x="160.678" y="109.547" fill-rule="evenodd" clip-rule="evenodd" fill="#A6A9AB" width="51.073" height="2.468"/>
				<rect x="224.752" y="109.547" fill-rule="evenodd" clip-rule="evenodd" fill="#A6A9AB" width="14.595" height="2.468"/>
				<rect x="169.883" y="102.525" fill-rule="evenodd" clip-rule="evenodd" fill="#A6A9AB" width="8.237" height="2.468"/>
			</g>
			<g>
				<path fill-rule="evenodd" clip-rule="evenodd" fill="#ADECF7" d="M217.597,157.356c7.63,0,13.836-6.225,13.836-13.854
					c0-7.629-6.206-13.836-13.836-13.836c-7.629,0-13.836,6.207-13.836,13.836C203.761,151.131,209.968,157.356,217.597,157.356
					L217.597,157.356z"/>
				<path fill-rule="evenodd" clip-rule="evenodd" fill="#F26D6E" d="M216.268,140.997h-1.518l-0.968,1.67l-0.949-1.67h-1.519
					l1.822,3.169v1.842h1.31v-1.842L216.268,140.997z M216.838,146.007h3.112v-1.063h-1.804v-0.93h1.595v-1.101h-1.595v-0.816h1.804
					v-1.101h-3.112V146.007z M223.879,142.533c0-0.854-0.684-1.536-1.537-1.536c-0.854,0-1.537,0.683-1.537,1.536
					c0,0.874,0.683,1.557,1.537,1.557c0.209,0,0.38,0.171,0.38,0.381c0,0.208-0.171,0.359-0.38,0.359s-0.361-0.151-0.361-0.379
					h-1.176c0,0.893,0.683,1.557,1.537,1.557c0.854,0,1.537-0.684,1.537-1.537c0-0.361-0.114-0.703-0.322-0.969
					c-0.285-0.36-0.722-0.588-1.215-0.588c-0.209,0-0.361-0.171-0.361-0.381c0-0.207,0.152-0.379,0.361-0.379s0.38,0.172,0.38,0.379
					H223.879z"/>
			</g>
			<g>
				<path fill-rule="evenodd" clip-rule="evenodd" fill="#A6A9AB" d="M147.811,149.518c6.946,0,12.603-5.655,12.603-12.603
					c0-6.946-5.656-12.621-12.603-12.621c-6.947,0-12.622,5.675-12.622,12.621C135.188,143.863,140.863,149.518,147.811,149.518
					L147.811,149.518z"/>
				<path fill-rule="evenodd" clip-rule="evenodd" fill="#A6A9AB" d="M180.112,144.792c4.347,0,7.876-3.55,7.876-7.877
					c0-4.346-3.529-7.876-7.876-7.876c-4.346,0-7.876,3.53-7.876,7.876C172.236,141.243,175.767,144.792,180.112,144.792
					L180.112,144.792z"/>
				<path fill-rule="evenodd" clip-rule="evenodd" fill="#A6A9AB" d="M165.992,162.841c3.91,0,7.079-3.17,7.079-7.061
					c0-3.91-3.169-7.078-7.079-7.078c-3.891,0-7.08,3.168-7.08,7.078C158.912,159.671,162.102,162.841,165.992,162.841
					L165.992,162.841z"/>
				<path fill-rule="evenodd" clip-rule="evenodd" fill="#FFFFFF" d="M177.722,135.151c-0.02-0.247-0.02-0.475-0.02-0.702
					c0-0.74,0.095-1.291,0.322-1.709c0.285-0.493,0.759-0.815,1.386-0.93c0.323-0.076,0.627-0.095,0.911-0.095
					c0.304,0,0.569,0.038,0.835,0.095c0.513,0.133,0.93,0.398,1.234,0.835c0.304,0.437,0.474,1.044,0.512,1.804v0.209
					c0,0.664-0.113,1.139-0.322,1.441c-0.227,0.342-0.589,0.59-1.12,0.76c0.437,0.076,0.76,0.228,0.969,0.475
					c0.228,0.246,0.379,0.588,0.455,1.006c0.057,0.228,0.075,0.475,0.075,0.759c0,0.228-0.019,0.475-0.057,0.74
					c-0.057,0.569-0.303,1.082-0.702,1.499c-0.397,0.418-1.024,0.646-1.859,0.665h-0.114c-0.778,0-1.404-0.209-1.879-0.608
					c-0.475-0.416-0.721-1.328-0.721-2.693v-0.059l1.803-0.094c0,0.075-0.02,0.152-0.02,0.228c0,0.968,0.267,1.48,0.778,1.519
					c0.038,0,0.076,0,0.095,0c0.494,0,0.778-0.247,0.873-0.76c0.038-0.151,0.038-0.285,0.038-0.417c0-0.36-0.095-0.684-0.304-0.949
					c-0.285-0.36-0.759-0.55-1.424-0.55l-0.095-1.311c0.076,0,0.152,0,0.229,0c0.588,0,0.987-0.17,1.195-0.512
					c0.209-0.304,0.304-0.703,0.304-1.195c0-0.115,0-0.21-0.019-0.305c-0.038-0.588-0.304-0.892-0.798-0.892h-0.075
					c-0.494,0.038-0.741,0.513-0.741,1.461c0,0.114,0,0.228,0,0.36L177.722,135.151z"/>
				<path fill-rule="evenodd" clip-rule="evenodd" fill="#FFFFFF" d="M143.938,134.069c-0.02-0.341-0.038-0.646-0.038-0.93
					c0-1.007,0.19-1.728,0.551-2.183c0.475-0.569,1.063-0.912,1.784-1.025c0.266-0.037,0.512-0.057,0.759-0.057
					c0.455,0,0.873,0.057,1.29,0.189c0.646,0.19,1.12,0.588,1.442,1.158c0.267,0.493,0.398,1.102,0.398,1.859
					c0,0.152,0,0.305,0,0.475c-0.075,0.969-0.359,1.842-0.872,2.657s-1.405,1.993-2.677,3.492l3.683,0.038l-0.02,2.106
					c-1.612,0.076-3.7,0.114-6.244,0.114l-0.189-2.297c1.519-1.67,2.619-2.941,3.265-3.814c0.607-0.816,0.892-1.633,0.892-2.41
					v-0.209c-0.058-0.854-0.418-1.271-1.063-1.271h-0.02c-0.568,0.019-0.854,0.531-0.854,1.537c0,0.189,0.02,0.398,0.02,0.626
					L143.938,134.069z"/>
				<path fill-rule="evenodd" clip-rule="evenodd" fill="#FFFFFF" d="M166.922,152.195c-0.019,1.727-0.037,3.453-0.037,5.161
					c0,0.873,0,1.728,0.019,2.581l-1.366,0.076c-0.038-2.221-0.057-4.25-0.095-6.13c-0.323,0.058-0.74,0.209-1.272,0.456
					l-0.266-1.215l1.538-0.969L166.922,152.195z"/>
			</g>
		</g>
	</g>
	<g>
		<polygon fill-rule="evenodd" clip-rule="evenodd" fill="#F9BF92" points="43.121,103.341 58.476,103.341 73.829,103.341 
			73.829,127.559 58.476,127.559 43.121,127.559 		"/>
		<path fill-rule="evenodd" clip-rule="evenodd" fill="#F9D4B4" d="M58.476,114.843c-16.322-0.19-29.513-17.802-29.513-39.496
			c0-21.693,13.19-39.306,29.513-39.496c16.321,0.19,29.513,17.802,29.513,39.496C87.988,97.041,74.797,114.653,58.476,114.843
			L58.476,114.843z"/>
		<polygon fill-rule="evenodd" clip-rule="evenodd" fill="#FBFFFC" points="35.587,119.17 55.552,191.14 55.552,212.13 
			58.476,201.634 61.379,212.13 61.379,191.14 81.364,119.17 73.829,118.544 58.476,125.224 43.121,118.544 		"/>
		<polygon fill-rule="evenodd" clip-rule="evenodd" fill="#3C4650" points="35.587,119.17 8.978,129.154 0,181.289 14.14,231.982 
			58.476,231.982 102.811,231.982 116.931,181.289 107.973,129.154 81.364,119.17 58.476,199.509 		"/>
		<path fill-rule="evenodd" clip-rule="evenodd" fill="#3F3E43" d="M58.476,30.879c-8.561,1.632-13.57-0.171-19.169,3.227
			c-7.839,4.745-15.089,17.347-12.128,34.979c0.816,4.954,1.651,9.926,2.485,14.899c1.595-8.598,0.949-17.404,7.896-25.508
			c2.523,2.524-1.253,5.656,1.252,8.18c2.183-6.13,12.621-9.736,19.663-10.685c7.345-0.38,20.251,1.12,24.881,5.276
			c5.353,4.802,2.202,13.494,3.91,22.737c0.835-4.973,1.67-9.945,2.505-14.899c2.961-17.631-4.308-30.234-12.127-34.979
			C72.026,30.708,67.035,32.511,58.476,30.879L58.476,30.879z"/>
		<polygon fill-rule="evenodd" clip-rule="evenodd" fill="#EE6249" points="58.476,125.224 51.586,132.17 55.191,140.806 
			52.439,179.524 58.476,199.509 64.511,179.524 61.74,140.806 65.365,132.17 		"/>
	</g>
	<g>
		<path fill-rule="evenodd" clip-rule="evenodd" fill="#EE6249" d="M179.563,79.75c18.846,0,34.2-15.373,34.2-34.219
			c0-18.847-15.354-34.201-34.2-34.201c-18.847,0-34.22,15.354-34.22,34.201C145.343,64.377,160.716,79.75,179.563,79.75
			L179.563,79.75z"/>
		<path fill-rule="evenodd" clip-rule="evenodd" fill="#FFDF86" d="M179.563,74c15.677,0,28.469-12.792,28.469-28.469
			c0-15.677-12.792-28.469-28.469-28.469c-15.696,0-28.47,12.792-28.47,28.469C151.093,61.208,163.866,74,179.563,74L179.563,74z"/>
		<rect x="178.006" y="23.515" fill-rule="evenodd" clip-rule="evenodd" fill="#EE6249" width="3.113" height="22.016"/>
		<polygon fill-rule="evenodd" clip-rule="evenodd" fill="#EE6249" points="178.879,44.297 180.265,47.068 166.467,53.996 
			165.081,51.206 		"/>
		<path fill-rule="evenodd" clip-rule="evenodd" fill="#EE6249" d="M179.563,49.611c2.24,0,4.08-1.822,4.08-4.08
			c0-2.24-1.84-4.081-4.08-4.081c-2.259,0-4.08,1.841-4.08,4.081C175.482,47.79,177.304,49.611,179.563,49.611L179.563,49.611z"/>
	</g>
	<g>
		<g>
			<path fill-rule="evenodd" clip-rule="evenodd" fill="#DBDBDB" d="M70.66,196.036h72.804c1.557,0,2.81,1.253,2.81,2.81v48.244
				c0,1.538-1.253,2.809-2.81,2.809H70.66c-1.557,0-2.81-1.271-2.81-2.809v-48.244C67.851,197.289,69.104,196.036,70.66,196.036
				L70.66,196.036z"/>
			<path fill-rule="evenodd" clip-rule="evenodd" fill="#A1A1A1" d="M71.096,183.548h71.932c1.784,0,3.246,1.461,3.246,3.264v11.312
				c0,1.784-1.462,3.245-3.246,3.245H71.096c-1.783,0-3.245-1.461-3.245-3.245v-11.312
				C67.851,185.009,69.313,183.548,71.096,183.548L71.096,183.548z"/>
			<path fill-rule="evenodd" clip-rule="evenodd" fill="#686868" d="M77.15,190.115c1.386,0,2.506-1.139,2.506-2.524
				s-1.12-2.524-2.506-2.524c-1.404,0-2.524,1.139-2.524,2.524S75.746,190.115,77.15,190.115L77.15,190.115z"/>
			<path fill-rule="evenodd" clip-rule="evenodd" fill="#686868" d="M87.115,190.115c1.385,0,2.524-1.139,2.524-2.524
				s-1.14-2.524-2.524-2.524c-1.386,0-2.525,1.139-2.525,2.524S85.729,190.115,87.115,190.115L87.115,190.115z"/>
			<path fill-rule="evenodd" clip-rule="evenodd" fill="#686868" d="M97.098,190.115c1.386,0,2.506-1.139,2.506-2.524
				s-1.12-2.524-2.506-2.524c-1.404,0-2.524,1.139-2.524,2.524S95.693,190.115,97.098,190.115L97.098,190.115z"/>
			<path fill-rule="evenodd" clip-rule="evenodd" fill="#686868" d="M107.063,190.115c1.385,0,2.523-1.139,2.523-2.524
				s-1.139-2.524-2.523-2.524c-1.386,0-2.524,1.139-2.524,2.524S105.677,190.115,107.063,190.115L107.063,190.115z"/>
			<path fill-rule="evenodd" clip-rule="evenodd" fill="#686868" d="M117.045,190.115c1.386,0,2.506-1.139,2.506-2.524
				s-1.12-2.524-2.506-2.524c-1.404,0-2.524,1.139-2.524,2.524S115.641,190.115,117.045,190.115L117.045,190.115z"/>
			<path fill-rule="evenodd" clip-rule="evenodd" fill="#686868" d="M127.009,190.115c1.386,0,2.524-1.139,2.524-2.524
				s-1.139-2.524-2.524-2.524s-2.524,1.139-2.524,2.524S125.623,190.115,127.009,190.115L127.009,190.115z"/>
			<path fill-rule="evenodd" clip-rule="evenodd" fill="#686868" d="M136.974,190.115c1.403,0,2.523-1.139,2.523-2.524
				s-1.12-2.524-2.523-2.524c-1.386,0-2.505,1.139-2.505,2.524S135.588,190.115,136.974,190.115L136.974,190.115z"/>
			<rect x="74.987" y="209.492" fill-rule="evenodd" clip-rule="evenodd" fill="#F26D6E" width="7.819" height="7.82"/>
			<rect x="74.987" y="222.587" fill-rule="evenodd" clip-rule="evenodd" fill="#F26D6E" width="7.819" height="7.839"/>
			<rect x="89.126" y="209.492" fill-rule="evenodd" clip-rule="evenodd" fill="#FFFFFF" width="7.82" height="7.82"/>
			<rect x="89.126" y="222.587" fill-rule="evenodd" clip-rule="evenodd" fill="#FFFFFF" width="7.82" height="7.839"/>
			<rect x="103.247" y="209.492" fill-rule="evenodd" clip-rule="evenodd" fill="#FFFFFF" width="7.819" height="7.82"/>
			<rect x="103.247" y="222.587" fill-rule="evenodd" clip-rule="evenodd" fill="#FFFFFF" width="7.819" height="7.839"/>
			<rect x="117.367" y="209.492" fill-rule="evenodd" clip-rule="evenodd" fill="#FFFFFF" width="7.819" height="7.82"/>
			<rect x="117.367" y="222.587" fill-rule="evenodd" clip-rule="evenodd" fill="#FFFFFF" width="7.819" height="7.839"/>
			<rect x="131.488" y="209.492" fill-rule="evenodd" clip-rule="evenodd" fill="#FFFFFF" width="7.838" height="7.82"/>
			<rect x="131.488" y="222.587" fill-rule="evenodd" clip-rule="evenodd" fill="#FFFFFF" width="7.838" height="7.839"/>
			<polygon fill-rule="evenodd" clip-rule="evenodd" fill="#F26D6E" points="118.525,225.359 121.277,229.173 128.982,218.621 
				121.391,226.554 			"/>
			<rect x="74.987" y="235.703" fill-rule="evenodd" clip-rule="evenodd" fill="#F26D6E" width="7.819" height="7.818"/>
			<rect x="89.126" y="235.703" fill-rule="evenodd" clip-rule="evenodd" fill="#FFFFFF" width="7.82" height="7.818"/>
			<rect x="103.247" y="235.703" fill-rule="evenodd" clip-rule="evenodd" fill="#FFFFFF" width="7.819" height="7.818"/>
			<rect x="117.367" y="235.703" fill-rule="evenodd" clip-rule="evenodd" fill="#FFFFFF" width="7.819" height="7.818"/>
			<rect x="131.488" y="235.703" fill-rule="evenodd" clip-rule="evenodd" fill="#FFFFFF" width="7.838" height="7.818"/>
		</g>
		<g>
			<path fill-rule="evenodd" clip-rule="evenodd" fill="#DBDBDB" d="M77.227,179.087L77.227,179.087
				c1.025,0,1.879,0.854,1.879,1.879v5.238c0,1.025-0.854,1.879-1.879,1.879l0,0c-1.044,0-1.879-0.854-1.879-1.879v-5.238
				C75.348,179.942,76.183,179.087,77.227,179.087L77.227,179.087z"/>
			<path fill-rule="evenodd" clip-rule="evenodd" fill="#DBDBDB" d="M87.19,179.087L87.19,179.087c1.044,0,1.88,0.854,1.88,1.879
				v5.238c0,1.025-0.836,1.879-1.88,1.879l0,0c-1.024,0-1.879-0.854-1.879-1.879v-5.238
				C85.312,179.942,86.166,179.087,87.19,179.087L87.19,179.087z"/>
			<path fill-rule="evenodd" clip-rule="evenodd" fill="#DBDBDB" d="M97.174,179.087L97.174,179.087
				c1.024,0,1.879,0.854,1.879,1.879v5.238c0,1.025-0.854,1.879-1.879,1.879l0,0c-1.044,0-1.879-0.854-1.879-1.879v-5.238
				C95.295,179.942,96.13,179.087,97.174,179.087L97.174,179.087z"/>
			<path fill-rule="evenodd" clip-rule="evenodd" fill="#DBDBDB" d="M107.138,179.087L107.138,179.087
				c1.044,0,1.879,0.854,1.879,1.879v5.238c0,1.025-0.835,1.879-1.879,1.879l0,0c-1.024,0-1.879-0.854-1.879-1.879v-5.238
				C105.259,179.942,106.113,179.087,107.138,179.087L107.138,179.087z"/>
			<path fill-rule="evenodd" clip-rule="evenodd" fill="#DBDBDB" d="M117.121,179.087L117.121,179.087
				c1.024,0,1.879,0.854,1.879,1.879v5.238c0,1.025-0.854,1.879-1.879,1.879l0,0c-1.044,0-1.879-0.854-1.879-1.879v-5.238
				C115.242,179.942,116.077,179.087,117.121,179.087L117.121,179.087z"/>
			<path fill-rule="evenodd" clip-rule="evenodd" fill="#DBDBDB" d="M127.085,179.087L127.085,179.087
				c1.044,0,1.879,0.854,1.879,1.879v5.238c0,1.025-0.835,1.879-1.879,1.879l0,0c-1.025,0-1.879-0.854-1.879-1.879v-5.238
				C125.206,179.942,126.06,179.087,127.085,179.087L127.085,179.087z"/>
			<path fill-rule="evenodd" clip-rule="evenodd" fill="#DBDBDB" d="M137.068,179.087L137.068,179.087
				c1.024,0,1.879,0.854,1.879,1.879v5.238c0,1.025-0.854,1.879-1.879,1.879l0,0c-1.045,0-1.88-0.854-1.88-1.879v-5.238
				C135.188,179.942,136.023,179.087,137.068,179.087L137.068,179.087z"/>
		</g>
	</g>
	<path fill-rule="evenodd" clip-rule="evenodd" fill="#FCCE3D" d="M58.172,19.15h2.372V4.327h-2.372V19.15z M16.266,47.239
		l-0.893,2.201L4.878,45.17l0.911-2.202L16.266,47.239z M42.457,22.244l-2.184,0.911l-4.346-10.457l2.201-0.911L42.457,22.244z
		 M13.399,56.064l-0.456,2.334l-7.269-1.404l0.456-2.334L13.399,56.064z M20.82,39.154l-1.31,1.993l-6.188-4.1l1.311-1.974
		L20.82,39.154z M34.03,26.514l-1.974,1.328l-4.157-6.149l1.974-1.329L34.03,26.514z M51.168,19.833l-2.334,0.475l-1.462-7.25
		l2.315-0.475L51.168,19.833z M13.001,18.903l-1.67,1.689l1.557,1.519l1.651-1.689L13.001,18.903z M26.666,32.302l-1.67,1.708
		L14.425,23.629l1.67-1.689L26.666,32.302z M102.45,47.239l0.892,2.201l10.496-4.27l-0.893-2.202L102.45,47.239z M76.259,22.244
		l2.201,0.911l4.327-10.457l-2.183-0.911L76.259,22.244z M105.315,56.064l0.456,2.334l7.27-1.404l-0.438-2.334L105.315,56.064z
		 M97.914,39.154l1.31,1.993l6.168-4.1l-1.31-1.974L97.914,39.154z M84.704,26.514l1.955,1.328l4.156-6.149l-1.974-1.329
		L84.704,26.514z M67.547,19.833l2.335,0.475l1.48-7.25l-2.335-0.475L67.547,19.833z M105.715,18.903l1.67,1.689l-1.537,1.519
		l-1.671-1.689L105.715,18.903z M58.172,0h2.372v2.164h-2.372V0z M92.049,32.302l1.671,1.708l10.571-10.382l-1.67-1.689
		L92.049,32.302z"/>
</g>
</svg>
