<?xml version="1.0" encoding="utf-8"?>
<!-- Generator: Adobe Illustrator 16.0.0, SVG Export Plug-In . SVG Version: 6.00 Build 0)  -->
<!DOCTYPE svg PUBLIC "-//W3C//DTD SVG 1.1//EN" "http://www.w3.org/Graphics/SVG/1.1/DTD/svg11.dtd">
<svg version="1.1" id="Capa_1" xmlns="http://www.w3.org/2000/svg" xmlns:xlink="http://www.w3.org/1999/xlink" x="0px" y="0px"
	 width="60.123px" height="46.066px" viewBox="0 0 60.123 46.066" enable-background="new 0 0 60.123 46.066" xml:space="preserve">
<g>
	<path fill="#FFCC73" stroke="#FFCC73" stroke-width="3" stroke-miterlimit="10" d="M58.623,38.065c0,3.59-2.493,6.501-5.572,6.501
		H7.074c-3.078,0-5.574-2.911-5.574-6.501V8.001C1.5,4.411,3.996,1.5,7.074,1.5h45.977c3.079,0,5.572,2.911,5.572,6.501V38.065z"/>
	<g>
		<path fill="#0C488D" d="M21.493,17.569h-0.054l-3.311,1.575l-0.668-3.044l4.593-2.137h3.364v17.358h-3.925V17.569z"/>
		<path fill="#0C488D" d="M43.953,22.562c0,5.367-2.162,9.053-6.596,9.053c-4.486,0-6.463-4.032-6.49-8.946
			c0-5.021,2.138-8.999,6.624-8.999C42.139,13.67,43.953,17.81,43.953,22.562z M34.954,22.669c-0.026,3.979,0.935,5.875,2.511,5.875
			c1.574,0,2.43-1.976,2.43-5.928c0-3.846-0.828-5.875-2.457-5.875C35.942,16.741,34.928,18.637,34.954,22.669z"/>
	</g>
</g>
</svg>
