<?xml version="1.0" encoding="utf-8"?>
<!-- Generator: Adobe Illustrator 16.0.0, SVG Export Plug-In . SVG Version: 6.00 Build 0)  -->
<!DOCTYPE svg PUBLIC "-//W3C//DTD SVG 1.1//EN" "http://www.w3.org/Graphics/SVG/1.1/DTD/svg11.dtd">
<svg version="1.1" id="Capa_1" xmlns="http://www.w3.org/2000/svg" xmlns:xlink="http://www.w3.org/1999/xlink" x="0px" y="0px"
	 width="60.123px" height="46.066px" viewBox="0 0 60.123 46.066" enable-background="new 0 0 60.123 46.066" xml:space="preserve">
<g>
	<path fill="#0C488D" stroke="#FFCC73" stroke-width="3" stroke-miterlimit="10" d="M58.623,38.065c0,3.59-2.494,6.501-5.572,6.501
		H7.073c-3.077,0-5.573-2.911-5.573-6.501V8.001C1.5,4.411,3.996,1.5,7.073,1.5h45.978c3.078,0,5.572,2.911,5.572,6.501V38.065z"/>
	<g>
		<path fill="#D8D8D8" d="M22.16,17.569h-0.053l-3.312,1.575l-0.667-3.044l4.593-2.137h3.365v17.358H22.16V17.569z"/>
		<path fill="#D8D8D8" d="M36.983,17.569H36.93l-3.311,1.575l-0.668-3.044l4.593-2.137h3.364v17.358h-3.925V17.569z"/>
	</g>
</g>
</svg>
