<?xml version="1.0" encoding="utf-8"?>
<!-- Generator: Adobe Illustrator 16.0.0, SVG Export Plug-In . SVG Version: 6.00 Build 0)  -->
<!DOCTYPE svg PUBLIC "-//W3C//DTD SVG 1.1//EN" "http://www.w3.org/Graphics/SVG/1.1/DTD/svg11.dtd">
<svg version="1.1" id="Capa_1" xmlns="http://www.w3.org/2000/svg" xmlns:xlink="http://www.w3.org/1999/xlink" x="0px" y="0px"
	 width="60.123px" height="46.066px" viewBox="0 0 60.123 46.066" enable-background="new 0 0 60.123 46.066" xml:space="preserve">
<g>
	<path fill="#FFCC73" stroke="#FFCC73" stroke-width="3" stroke-miterlimit="10" d="M58.623,38.065c0,3.59-2.494,6.501-5.573,6.501
		H7.072c-3.077,0-5.572-2.911-5.572-6.501V8.001C1.5,4.411,3.995,1.5,7.072,1.5H53.05c3.079,0,5.573,2.911,5.573,6.501V38.065z"/>
	<g>
		<path fill="#0C488D" d="M22.828,17.569h-0.054l-3.312,1.575l-0.668-3.044l4.594-2.137h3.364v17.358h-3.925V17.569z"/>
		<path fill="#0C488D" d="M32.47,31.322v-2.458l2.243-2.028c3.792-3.392,5.635-5.342,5.688-7.371c0-1.415-0.854-2.536-2.858-2.536
			c-1.494,0-2.803,0.747-3.711,1.441l-1.148-2.91c1.309-0.988,3.338-1.79,5.688-1.79c3.927,0,6.089,2.297,6.089,5.447
			c0,2.911-2.108,5.235-4.62,7.479l-1.602,1.334v0.054h6.543v3.339H32.47z"/>
	</g>
</g>
</svg>
