<?xml version="1.0" encoding="utf-8"?>
<!-- Generator: Adobe Illustrator 16.0.0, SVG Export Plug-In . SVG Version: 6.00 Build 0)  -->
<!DOCTYPE svg PUBLIC "-//W3C//DTD SVG 1.1//EN" "http://www.w3.org/Graphics/SVG/1.1/DTD/svg11.dtd">
<svg version="1.1" id="Capa_1" xmlns="http://www.w3.org/2000/svg" xmlns:xlink="http://www.w3.org/1999/xlink" x="0px" y="0px"
	 width="60.123px" height="46.065px" viewBox="0 0 60.123 46.065" enable-background="new 0 0 60.123 46.065" xml:space="preserve">
<g>
	<path fill="#FFCC73" stroke="#FFCC73" stroke-width="3" stroke-miterlimit="10" d="M58.623,38.065c0,3.589-2.493,6.5-5.572,6.5
		H7.074c-3.078,0-5.574-2.911-5.574-6.5V8.001C1.5,4.411,3.996,1.5,7.074,1.5h45.977c3.079,0,5.572,2.911,5.572,6.501V38.065z"/>
	<g>
		<path fill="#0C488D" d="M21.493,17.57h-0.054l-3.311,1.575l-0.668-3.045l4.593-2.136h3.364v17.357h-3.925V17.57z"/>
		<path fill="#0C488D" d="M31.856,27.343c0.722,0.374,2.377,1.068,4.032,1.068c2.109,0,3.178-1.015,3.178-2.323
			c0-1.709-1.709-2.482-3.498-2.482h-1.656v-2.911h1.576c1.361-0.027,3.098-0.533,3.098-2.004c0-1.041-0.855-1.814-2.564-1.814
			c-1.414,0-2.91,0.613-3.631,1.042l-0.828-2.938c1.041-0.668,3.125-1.31,5.367-1.31c3.713,0,5.769,1.95,5.769,4.325
			c0,1.844-1.041,3.285-3.178,4.033v0.054c2.083,0.374,3.767,1.949,3.767,4.219c0,3.071-2.699,5.314-7.105,5.314
			c-2.242,0-4.139-0.587-5.153-1.228L31.856,27.343z"/>
	</g>
</g>
</svg>
