<?xml version="1.0" encoding="utf-8"?>
<!-- Generator: Adobe Illustrator 16.0.0, SVG Export Plug-In . SVG Version: 6.00 Build 0)  -->
<!DOCTYPE svg PUBLIC "-//W3C//DTD SVG 1.1//EN" "http://www.w3.org/Graphics/SVG/1.1/DTD/svg11.dtd">
<svg version="1.1" id="Capa_1" xmlns="http://www.w3.org/2000/svg" xmlns:xlink="http://www.w3.org/1999/xlink" x="0px" y="0px"
	 width="60.123px" height="46.065px" viewBox="0 0 60.123 46.065" enable-background="new 0 0 60.123 46.065" xml:space="preserve">
<g>
	<path fill="#FFCC73" stroke="#FFCC73" stroke-width="3" stroke-miterlimit="10" d="M58.623,38.065c0,3.589-2.494,6.5-5.572,6.5
		H7.073c-3.077,0-5.573-2.911-5.573-6.5V8.001C1.5,4.411,3.996,1.5,7.073,1.5h45.978c3.078,0,5.572,2.911,5.572,6.501V38.065z"/>
	<g>
		<path fill="#0C488D" d="M21.493,17.57h-0.054l-3.312,1.575l-0.667-3.045l4.592-2.136h3.365v17.357h-3.925V17.57z"/>
		<path fill="#0C488D" d="M38.318,31.322v-4.139h-7.69v-2.645l6.569-10.574h4.967v10.174h2.083v3.045h-2.083v4.139H38.318z
			 M38.318,24.139v-3.846c0-1.042,0.053-2.108,0.133-3.231h-0.106c-0.561,1.123-1.015,2.138-1.603,3.231l-2.322,3.793v0.053H38.318z
			"/>
	</g>
</g>
</svg>
