<?xml version="1.0" encoding="utf-8"?>
<!-- Generator: Adobe Illustrator 16.0.0, SVG Export Plug-In . SVG Version: 6.00 Build 0)  -->
<!DOCTYPE svg PUBLIC "-//W3C//DTD SVG 1.1//EN" "http://www.w3.org/Graphics/SVG/1.1/DTD/svg11.dtd">
<svg version="1.1" id="Capa_1" xmlns="http://www.w3.org/2000/svg" xmlns:xlink="http://www.w3.org/1999/xlink" x="0px" y="0px"
	 width="60.123px" height="46.067px" viewBox="0 0 60.123 46.067" enable-background="new 0 0 60.123 46.067" xml:space="preserve">
<g>
	<path fill="#0C488D" stroke="#FFCC73" stroke-width="3" stroke-miterlimit="10" d="M58.623,38.065c0,3.59-2.494,6.502-5.572,6.502
		H7.073c-3.077,0-5.573-2.912-5.573-6.502V8c0-3.589,2.496-6.5,5.573-6.5h45.978c3.078,0,5.572,2.911,5.572,6.5V38.065z"/>
	<g>
		<path fill="#D8D8D8" d="M22.989,31.323v-2.457l2.243-2.029c3.791-3.393,5.635-5.342,5.688-7.371c0-1.416-0.854-2.537-2.857-2.537
			c-1.494,0-2.803,0.748-3.711,1.443l-1.148-2.912c1.309-0.988,3.338-1.79,5.688-1.79c3.926,0,6.089,2.297,6.089,5.448
			c0,2.91-2.108,5.234-4.62,7.479l-1.602,1.334v0.055H35.3v3.338H22.989z"/>
	</g>
</g>
</svg>
