<?xml version="1.0" encoding="utf-8"?>
<!-- Generator: Adobe Illustrator 16.0.0, SVG Export Plug-In . SVG Version: 6.00 Build 0)  -->
<!DOCTYPE svg PUBLIC "-//W3C//DTD SVG 1.1//EN" "http://www.w3.org/Graphics/SVG/1.1/DTD/svg11.dtd">
<svg version="1.1" id="Capa_1" xmlns="http://www.w3.org/2000/svg" xmlns:xlink="http://www.w3.org/1999/xlink" x="0px" y="0px"
	 width="60.123px" height="46.066px" viewBox="0 0 60.123 46.066" enable-background="new 0 0 60.123 46.066" xml:space="preserve">
<g>
	<path fill="#FFCC73" stroke="#FFCC73" stroke-width="3" stroke-miterlimit="10" d="M58.623,38.065c0,3.591-2.494,6.502-5.573,6.502
		H7.072c-3.077,0-5.572-2.911-5.572-6.502V8c0-3.589,2.495-6.5,5.572-6.5H53.05c3.079,0,5.573,2.911,5.573,6.5V38.065z"/>
	<g>
		<path fill="#0C488D" d="M23.71,27.345c0.722,0.373,2.377,1.066,4.032,1.066c2.109,0,3.178-1.015,3.178-2.322
			c0-1.709-1.709-2.484-3.499-2.484h-1.655v-2.91h1.576c1.361-0.024,3.098-0.532,3.098-2.004c0-1.041-0.855-1.813-2.563-1.813
			c-1.416,0-2.911,0.613-3.632,1.041l-0.828-2.938c1.041-0.668,3.125-1.309,5.367-1.309c3.713,0,5.77,1.949,5.77,4.326
			c0,1.842-1.041,3.285-3.179,4.03v0.056c2.083,0.373,3.767,1.949,3.767,4.219c0,3.07-2.699,5.314-7.104,5.314
			c-2.243,0-4.14-0.586-5.154-1.229L23.71,27.345z"/>
	</g>
</g>
</svg>
