<?xml version="1.0" encoding="utf-8"?>
<!-- Generator: Adobe Illustrator 16.0.0, SVG Export Plug-In . SVG Version: 6.00 Build 0)  -->
<!DOCTYPE svg PUBLIC "-//W3C//DTD SVG 1.1//EN" "http://www.w3.org/Graphics/SVG/1.1/DTD/svg11.dtd">
<svg version="1.1" id="Capa_1" xmlns="http://www.w3.org/2000/svg" xmlns:xlink="http://www.w3.org/1999/xlink" x="0px" y="0px"
	 width="60.123px" height="46.066px" viewBox="0 0 60.123 46.066" enable-background="new 0 0 60.123 46.066" xml:space="preserve">
<g>
	<path fill="#0C488D" stroke="#FFCC73" stroke-width="3" stroke-miterlimit="10" d="M58.623,38.065c0,3.59-2.493,6.501-5.572,6.501
		H7.074c-3.078,0-5.574-2.911-5.574-6.501V8c0-3.589,2.496-6.5,5.574-6.5h45.977c3.079,0,5.572,2.911,5.572,6.5V38.065z"/>
	<g>
		<path fill="#D8D8D8" d="M30.172,31.322v-4.139h-7.689v-2.645l6.568-10.575h4.968v10.175h2.083v3.045h-2.083v4.139H30.172z
			 M30.172,24.139v-3.846c0-1.041,0.055-2.109,0.135-3.231h-0.107c-0.561,1.122-1.014,2.137-1.602,3.231l-2.324,3.793v0.053H30.172z
			"/>
	</g>
</g>
</svg>
