<?xml version="1.0" encoding="utf-8"?>
<!-- Generator: Adobe Illustrator 16.0.0, SVG Export Plug-In . SVG Version: 6.00 Build 0)  -->
<!DOCTYPE svg PUBLIC "-//W3C//DTD SVG 1.1//EN" "http://www.w3.org/Graphics/SVG/1.1/DTD/svg11.dtd">
<svg version="1.1" id="Capa_1" xmlns="http://www.w3.org/2000/svg" xmlns:xlink="http://www.w3.org/1999/xlink" x="0px" y="0px"
	 width="60.123px" height="46.066px" viewBox="0 0 60.123 46.066" enable-background="new 0 0 60.123 46.066" xml:space="preserve">
<g>
	<path fill="#0C488D" stroke="#FFCC73" stroke-width="3" stroke-miterlimit="10" d="M58.623,38.065c0,3.59-2.494,6.501-5.572,6.501
		H7.073c-3.077,0-5.573-2.911-5.573-6.501V8c0-3.589,2.496-6.5,5.573-6.5h45.978c3.078,0,5.572,2.911,5.572,6.5V38.065z"/>
	<g>
		<path fill="#D8D8D8" d="M34.579,17.303H27.85l-0.375,2.67c0.375-0.053,0.695-0.053,1.122-0.053c1.656,0,3.339,0.373,4.567,1.255
			c1.309,0.881,2.109,2.323,2.109,4.353c0,3.231-2.777,6.088-7.451,6.088c-2.109,0-3.872-0.479-4.833-0.987l0.722-3.043
			c0.773,0.372,2.35,0.854,3.925,0.854c1.683,0,3.472-0.802,3.472-2.645c0-1.788-1.416-2.884-4.887-2.884
			c-0.961,0-1.629,0.054-2.351,0.16l1.148-9.106h9.561V17.303z"/>
	</g>
</g>
</svg>
