<?xml version="1.0" encoding="utf-8"?>
<!-- Generator: Adobe Illustrator 16.0.0, SVG Export Plug-In . SVG Version: 6.00 Build 0)  -->
<!DOCTYPE svg PUBLIC "-//W3C//DTD SVG 1.1//EN" "http://www.w3.org/Graphics/SVG/1.1/DTD/svg11.dtd">
<svg version="1.1" id="Capa_1" xmlns="http://www.w3.org/2000/svg" xmlns:xlink="http://www.w3.org/1999/xlink" x="0px" y="0px"
	 width="60.123px" height="46.066px" viewBox="0 0 60.123 46.066" enable-background="new 0 0 60.123 46.066" xml:space="preserve">
<g>
	<path fill="#0C488D" stroke="#FFCC73" stroke-width="3" stroke-miterlimit="10" d="M58.623,38.065c0,3.59-2.494,6.501-5.573,6.501
		H7.072c-3.077,0-5.572-2.911-5.572-6.501V8c0-3.589,2.495-6.5,5.572-6.5H53.05c3.079,0,5.573,2.911,5.573,6.5V38.065z"/>
	<g>
		<path fill="#D8D8D8" d="M34.071,16.849c-0.454-0.027-0.935,0-1.575,0.053c-3.605,0.295-5.209,2.137-5.662,4.167h0.08
			c0.855-0.882,2.057-1.39,3.686-1.39c2.911,0,5.367,2.057,5.367,5.661c0,3.445-2.643,6.275-6.409,6.275
			c-4.619,0-6.89-3.443-6.89-7.583c0-3.258,1.201-5.982,3.071-7.718c1.735-1.575,3.979-2.431,6.702-2.563
			c0.748-0.054,1.229-0.054,1.63-0.026V16.849z M31.854,25.555c0-1.603-0.854-2.992-2.591-2.992c-1.094,0-2.002,0.668-2.402,1.549
			c-0.107,0.215-0.16,0.535-0.16,1.016c0.079,1.843,0.961,3.498,2.804,3.498C30.947,28.625,31.854,27.316,31.854,25.555z"/>
	</g>
</g>
</svg>
