<?xml version="1.0" encoding="utf-8"?>
<!-- Generator: Adobe Illustrator 16.0.0, SVG Export Plug-In . SVG Version: 6.00 Build 0)  -->
<!DOCTYPE svg PUBLIC "-//W3C//DTD SVG 1.1//EN" "http://www.w3.org/Graphics/SVG/1.1/DTD/svg11.dtd">
<svg version="1.1" id="Capa_1" xmlns="http://www.w3.org/2000/svg" xmlns:xlink="http://www.w3.org/1999/xlink" x="0px" y="0px"
	 width="60.123px" height="46.066px" viewBox="0 0 60.123 46.066" enable-background="new 0 0 60.123 46.066" xml:space="preserve">
<g>
	<path fill="#0C488D" stroke="#FFCC73" stroke-width="3" stroke-miterlimit="10" d="M58.623,38.064c0,3.591-2.494,6.502-5.572,6.502
		H7.073c-3.077,0-5.573-2.911-5.573-6.502V8.001C1.5,4.411,3.996,1.5,7.073,1.5h45.978c3.078,0,5.572,2.911,5.572,6.501V38.064z"/>
	<g>
		<path fill="#D8D8D8" d="M24.058,26.781c0-2.081,1.202-3.524,3.098-4.352v-0.08c-1.683-0.854-2.511-2.271-2.511-3.792
			c0-2.938,2.645-4.888,6.116-4.888c4.06,0,5.741,2.351,5.741,4.46c0,1.495-0.801,2.964-2.51,3.817v0.081
			c1.682,0.641,3.178,2.083,3.178,4.326c0,3.151-2.645,5.261-6.678,5.261C26.088,31.615,24.058,29.132,24.058,26.781z
			 M33.031,26.648c0-1.521-1.122-2.431-2.725-2.857c-1.336,0.373-2.109,1.336-2.109,2.591c-0.027,1.254,0.935,2.43,2.457,2.43
			C32.096,28.812,33.031,27.877,33.031,26.648z M28.464,18.424c0,1.175,1.067,1.922,2.456,2.351
			c0.936-0.268,1.764-1.124,1.764-2.217c0-1.069-0.615-2.138-2.109-2.138C29.186,16.42,28.464,17.33,28.464,18.424z"/>
	</g>
</g>
</svg>
