<?xml version="1.0" encoding="utf-8"?>
<!-- Generator: Adobe Illustrator 16.0.0, SVG Export Plug-In . SVG Version: 6.00 Build 0)  -->
<!DOCTYPE svg PUBLIC "-//W3C//DTD SVG 1.1//EN" "http://www.w3.org/Graphics/SVG/1.1/DTD/svg11.dtd">
<svg version="1.1" id="Capa_1" xmlns="http://www.w3.org/2000/svg" xmlns:xlink="http://www.w3.org/1999/xlink" x="0px" y="0px"
	 width="60.123px" height="46.066px" viewBox="0 0 60.123 46.066" enable-background="new 0 0 60.123 46.066" xml:space="preserve">
<g>
	<path fill="#0C488D" stroke="#FFCC73" stroke-width="3" stroke-miterlimit="10" d="M58.623,38.064c0,3.591-2.494,6.502-5.573,6.502
		H7.072c-3.077,0-5.572-2.911-5.572-6.502V8.001C1.5,4.411,3.995,1.5,7.072,1.5H53.05c3.079,0,5.573,2.911,5.573,6.501V38.064z"/>
	<g>
		<path fill="#D8D8D8" d="M24.938,28.384c0.508,0.054,0.962,0.054,1.763,0c1.229-0.08,2.483-0.427,3.418-1.068
			c1.122-0.774,1.869-1.896,2.189-3.204l-0.08-0.026c-0.775,0.801-1.896,1.255-3.472,1.255c-2.938,0-5.421-2.057-5.421-5.421
			c0-3.392,2.725-6.249,6.543-6.249c4.459,0,6.569,3.418,6.569,7.479c0,3.604-1.148,6.248-3.044,7.983
			c-1.656,1.496-3.926,2.324-6.623,2.431c-0.694,0.053-1.389,0.027-1.843,0V28.384z M27.395,19.678c0,1.497,0.803,2.779,2.457,2.779
			c1.096,0,1.87-0.536,2.244-1.149c0.133-0.24,0.213-0.508,0.213-1.016c0-1.842-0.694-3.657-2.537-3.657
			C28.383,16.635,27.369,17.863,27.395,19.678z"/>
	</g>
</g>
</svg>
