<?xml version="1.0" encoding="utf-8"?>
<!-- Generator: Adobe Illustrator 16.0.0, SVG Export Plug-In . SVG Version: 6.00 Build 0)  -->
<!DOCTYPE svg PUBLIC "-//W3C//DTD SVG 1.1//EN" "http://www.w3.org/Graphics/SVG/1.1/DTD/svg11.dtd">
<svg version="1.1" id="Capa_1" xmlns="http://www.w3.org/2000/svg" xmlns:xlink="http://www.w3.org/1999/xlink" x="0px" y="0px"
	 width="292.857px" height="547.794px" viewBox="0 0 292.857 547.794" enable-background="new 0 0 292.857 547.794"
	 xml:space="preserve">
<g>
	<defs>
		<rect id="SVGID_1_" x="-71.429" width="492.857" height="547.794"/>
	</defs>
	<clipPath id="SVGID_2_">
		<use xlink:href="#SVGID_1_"  overflow="visible"/>
	</clipPath>
	<g clip-path="url(#SVGID_2_)">
		<path fill="#C07F51" d="M58.31,455.011c0,5.867-4.05,10.621-9.041,10.621c-4.995,0-9.045-4.754-9.045-10.621
			c0-5.861,4.05-10.615,9.045-10.615C54.26,444.396,58.31,449.15,58.31,455.011"/>
		<path fill="none" stroke="#4C3617" stroke-miterlimit="10" d="M58.31,455.011c0,5.867-4.05,10.621-9.041,10.621
			c-4.995,0-9.045-4.754-9.045-10.621c0-5.861,4.05-10.615,9.045-10.615C54.26,444.396,58.31,449.15,58.31,455.011z"/>
		<path fill="#AAC2C9" d="M138.801,796.626c0.141,1.623,2.942,0.553,4.684,0.553c1.737,0,1.609-0.354,1.609-2.555
			c0-2.199-1.41-3.98-3.147-3.98S138.605,794.429,138.801,796.626"/>
		<path fill="#AAC2C9" d="M80.563,791.9c0.141,1.623,1.633,2.973,3.37,2.973c1.741,0,2.438-0.234,2.438-2.436
			s0.123-6.006-1.613-6.006C83.018,786.431,80.373,789.708,80.563,791.9"/>
		<path fill="#58595B" d="M81.973,790.236c0.195,0.584,3.105,14.738,2.135,21.912c-0.97,7.176-4.846,10.084-11.246,10.471
			c-6.396,0.391-10.857,0.777-12.218,1.746c-1.355,0.969-2.711,12.785-11.052,14.928c-8.337,2.148-40.137,5.645-49.444-9
			c-9.307-14.654,20.359-22.799,20.359-22.799l28.505-10.857l5.235-12.604L81.973,790.236z"/>
		<path fill="none" stroke="#231F20" stroke-miterlimit="10" d="M81.973,790.236c0.195,0.584,3.105,14.738,2.135,21.912
			c-0.97,7.176-4.846,10.084-11.246,10.471c-6.396,0.391-10.857,0.777-12.218,1.746c-1.355,0.969-2.711,12.785-11.052,14.928
			c-8.337,2.148-40.137,5.645-49.444-9c-9.307-14.654,20.359-22.799,20.359-22.799l28.505-10.857l5.235-12.604L81.973,790.236z"/>
		<path fill="#C07F51" d="M45.123,473.244c0,0,10.331,10.26,8.806,14.406c-1.53,4.146-2.62,6.254-5.75,4.365
			c-3.126-1.893-10.327-18.406-10.327-18.406l-1.604-7.639C36.247,465.97,39.887,461.314,45.123,473.244"/>
		<path fill="none" stroke="#4C3617" stroke-miterlimit="10" d="M45.123,473.244c0,0,10.331,10.26,8.806,14.406
			c-1.53,4.146-2.62,6.254-5.75,4.365c-3.126-1.893-10.327-18.406-10.327-18.406l-1.604-7.639
			C36.247,465.97,39.887,461.314,45.123,473.244z"/>
		<path fill="#726658" d="M43.971,779.767c-0.153,0.596-8.337,14.541-12.412,17.838c-4.071,3.297-8.917,6.205-13.377,7.369
			c-4.461,1.164-12.413,2.908-13.573,10.08c-1.165,7.178,6.012,12.994,16.479,14.352c10.471,1.357,24.043,1.744,27.729-3.295
			c3.686-5.043,3.491-6.594,6.206-7.951c2.716-1.355,17.258-6.012,20.164-8.529c2.91-2.523,5.431-5.623,4.655-11.25
			c-0.774-5.621-0.39-12.604-0.774-13.377c-0.391-0.775-20.749-13.186-20.749-13.186S46.491,769.878,43.971,779.767"/>
		<path fill="none" stroke="#231F20" stroke-miterlimit="10" d="M43.971,779.767c-0.153,0.596-8.337,14.541-12.412,17.838
			c-4.071,3.297-8.917,6.205-13.377,7.369c-4.461,1.164-12.413,2.908-13.573,10.08c-1.165,7.178,6.012,12.994,16.479,14.352
			c10.471,1.357,24.043,1.744,27.729-3.295c3.686-5.043,3.491-6.594,6.206-7.951c2.716-1.355,17.258-6.012,20.164-8.529
			c2.91-2.523,5.431-5.623,4.655-11.25c-0.774-5.621-0.39-12.604-0.774-13.377c-0.391-0.775-20.749-13.186-20.749-13.186
			S46.491,769.878,43.971,779.767z"/>
		<path fill="#C07F51" d="M51.018,466.625c0,0,1.519,4.146,3.305,6.33c1.786,2.182,2.296,4.75,0.477,5.939
			c-1.815,1.189-3.396,0.953-5.261-0.713c-1.865-1.662-5.94-7.943-7.105-9.932c-1.165-1.99-3.056-8.316-3.13-9.482
			c-0.071-1.164,0.016-6.887,0.526-7.686C40.339,450.281,45.633,444.654,51.018,466.625"/>
		<path fill="none" stroke="#4C3617" stroke-miterlimit="10" d="M51.018,466.625c0,0,1.519,4.146,3.305,6.33
			c1.786,2.182,2.296,4.75,0.477,5.939c-1.815,1.189-3.396,0.953-5.261-0.713c-1.865-1.662-5.94-7.943-7.105-9.932
			c-1.165-1.99-3.056-8.316-3.13-9.482c-0.071-1.164,0.016-6.887,0.526-7.686C40.339,450.281,45.633,444.654,51.018,466.625z"/>
		<path fill="#58595B" d="M152.294,788.632c-0.68,1.359-10.98,10.639-9.563,17.885c1.418,7.242,6.504,11.316,11.77,12.221
			c5.265,0.906,11.604,1.359,16.13,4.754s9.733,10.41,19.691,11.543c9.962,1.133,31.01,2.715,33.952-3.623
			c2.944-6.336,7.698-15.645,0-18.686c-7.693-3.043-36.215-7.316-36.215-7.316L152.294,788.632z"/>
		<path fill="none" stroke="#231F20" stroke-miterlimit="10" d="M152.294,788.632c-0.68,1.359-10.98,10.639-9.563,17.885
			c1.418,7.242,6.504,11.316,11.77,12.221c5.265,0.906,11.604,1.359,16.13,4.754s9.733,10.41,19.691,11.543
			c9.962,1.133,31.01,2.715,33.952-3.623c2.944-6.336,7.698-15.645,0-18.686c-7.693-3.043-36.215-7.316-36.215-7.316
			L152.294,788.632z"/>
		<path fill="#C07F51" d="M40.841,299.966c0.128,0.902-0.576,7.201-1.729,11.234c-1.153,4.031-9.506,16.129-9.797,37.158
			c-0.286,21.027,1.729,64.738,1.729,70.682c0,5.939-1.496,28.984-1.753,31.289c-0.262,2.305-3.718,8.93-1.99,13.537
			c1.729,4.611,6.198,14.404,6.559,19.299c0.356,4.898,9.863,22.469,15.044,18.15c5.187-4.322,0-9.219,0-9.219
			s-6.334-10.656-6.625-16.705c-0.285-6.053,3.744-25.063,3.744-25.063s2.653,2.092,3.706,5.645
			c1.153,3.873,1.306,8.588,3.208,10.488c5.07,5.053,9.797,3.166,10.373,1.15s-3.172-7.779-2.305-10.656
			c0.861-2.881,2.223-10.48,1.069-17.393c-1.152-6.914-7.694-11.701-7.694-11.701s-1.443-17.471,2.015-26.885
			c3.457-9.412,20.164-28.424,19.012-45.994c-1.152-17.572-0.75-31.975,0.058-36.586c0.805-4.607,7.144-14.686,6.28-21.602
			c-0.865-6.912-7.2-12.385-8.066-12.385c-0.863,0-21.316,4.896-22.179,4.896C50.632,289.308,39.112,288.154,40.841,299.966"/>
		<path fill="none" stroke="#4C3617" stroke-miterlimit="10" d="M40.841,299.966c0.128,0.902-0.576,7.201-1.729,11.234
			c-1.153,4.031-9.506,16.129-9.797,37.158c-0.286,21.027,1.729,64.738,1.729,70.682c0,5.939-1.496,28.984-1.753,31.289
			c-0.262,2.305-3.718,8.93-1.99,13.537c1.729,4.611,6.198,14.404,6.559,19.299c0.356,4.898,9.863,22.469,15.044,18.15
			c5.187-4.322,0-9.219,0-9.219s-6.334-10.656-6.625-16.705c-0.285-6.053,3.744-25.063,3.744-25.063s2.653,2.092,3.706,5.645
			c1.153,3.873,1.306,8.588,3.208,10.488c5.07,5.053,9.797,3.166,10.373,1.15s-3.172-7.779-2.305-10.656
			c0.861-2.881,2.223-10.48,1.069-17.393c-1.152-6.914-7.694-11.701-7.694-11.701s-1.443-17.471,2.015-26.885
			c3.457-9.412,20.164-28.424,19.012-45.994c-1.152-17.572-0.75-31.975,0.058-36.586c0.805-4.607,7.144-14.686,6.28-21.602
			c-0.865-6.912-7.2-12.385-8.066-12.385c-0.863,0-21.316,4.896-22.179,4.896C50.632,289.308,39.112,288.154,40.841,299.966z"/>
		<path fill="#726658" d="M186.636,779.58c0,0,6.629,10.186,11.836,13.58c5.206,3.396,17.656,13.678,24.442,14.99
			c6.79,1.309,7.47,4.387,5.435,8.844c-2.036,4.461-9.734,8.535-23.086,8.535c-13.358,0-24.447-10.186-30.786-10.639
			s-15.163-3.525-23.087-6.74c-7.921-3.219-9.957-13.855-7.921-18.609c2.034-4.756,17.655-17.879,17.655-17.879
			S182.424,773.751,186.636,779.58"/>
		<path fill="none" stroke="#231F20" stroke-miterlimit="10" d="M186.636,779.58c0,0,6.629,10.186,11.836,13.58
			c5.206,3.396,17.656,13.678,24.442,14.99c6.79,1.309,7.47,4.387,5.435,8.844c-2.036,4.461-9.734,8.535-23.086,8.535
			c-13.358,0-24.447-10.186-30.786-10.639s-15.163-3.525-23.087-6.74c-7.921-3.219-9.957-13.855-7.921-18.609
			c2.034-4.756,17.655-17.879,17.655-17.879S182.424,773.751,186.636,779.58z"/>
		<path fill="#C07F51" d="M229.161,469.951c0,0-8.801,11.924-10.223,12.682c-1.418,0.756-5.584,6.055-9.18,7.473
			c-3.598,1.422-3.975,4.168-1.23,4.924s13.44-7.193,16.467-9.086c3.03-1.891,7.097-9.461,6.814-9.744
			C231.524,475.914,232.946,468.816,229.161,469.951"/>
		<path fill="none" stroke="#4C3617" stroke-miterlimit="10" d="M229.161,469.951c0,0-8.801,11.924-10.223,12.682
			c-1.418,0.756-5.584,6.055-9.18,7.473c-3.598,1.422-3.975,4.168-1.23,4.924s13.44-7.193,16.467-9.086
			c3.03-1.891,7.097-9.461,6.814-9.744C231.524,475.914,232.946,468.816,229.161,469.951z"/>
		<path fill="#4C3617" d="M89.878,413.416c0,0-7.192,31.709-8.054,36.438c-0.858,4.729-2.558,12.307-2.981,19.975
			c-0.423,7.67-2.972,17.795-4.667,25.252c-1.701,7.455,2.122,43.527,0,48.619c-2.123,5.094-7.214,36.922-7.214,45.834
			c0,8.91-5.945,74.264-7.218,79.359c-1.272,5.09-5.091,21.215-5.091,28.857c0,7.639,1.272,25.461,0,33.525
			c-1.272,8.063-8.913,23.766-8.913,31.4c0,7.641-5.517,19.949-5.517,19.949s14.43-3.818,22.916,2.971
			c8.49,6.789,19.099,16.127,22.494,2.547c0,0,0-15.705,1.695-19.949c1.699-4.244,2.549-11.455,2.549-16.125
			c0-4.668,2.969-25.461,5.94-32.252c2.969-6.789,6.364-31.404,7.214-35.648s3.395-5.516,3.395-11.459
			c0-5.939-1.272-7.213,2.974-15.701c4.241-8.486,8.909-16.975,9.759-23.766c0.85-6.787,1.695-21.902,3.395-28.988
			c1.696-7.082,7.214-25.332,8.486-28.725c1.272-3.396,6.367-17.822,8.063-22.07c1.7-4.242,2.973-10.184,2.973-11.881
			s-1.272,47.955,0,58.988c1.272,11.035,8.485,32.676,4.244,46.682c-4.244,14.004,2.219,35.223,1.323,41.588
			c-0.899,6.369-2.325,34.799,0.087,40.318c2.408,5.516-3.494,32.525-2.785,36.768c0.713,4.246-1.327,14.141-3.027,18.809
			c-1.694,4.668-2.471,10.775-2.471,10.775s27.399-22.584,49.889-14.096c0,0-2.699-23.398-2.699-32.313
			c0-8.912,8.059-20.793,8.059-26.736v-26.309c0-4.246,4.992-24.615,6.741-30.98c1.75-6.365,5.568-54.158,8.113-60.818
			c2.549-6.658,5.518-20.664,5.095-26.604c-0.427-5.943,0.041-46.258,0.041-46.258s-3.859-112.459-5.559-117.977
			c-1.696-5.516-90.816-2.547-90.816-2.547L89.878,413.416z"/>
		<path fill="none" stroke="#3D2314" stroke-miterlimit="10" d="M89.878,413.416c0,0-7.192,31.709-8.054,36.438
			c-0.858,4.729-2.558,12.307-2.981,19.975c-0.423,7.67-2.972,17.795-4.667,25.252c-1.701,7.455,2.122,43.527,0,48.619
			c-2.123,5.094-7.214,36.922-7.214,45.834c0,8.91-5.945,74.264-7.218,79.359c-1.272,5.09-5.091,21.215-5.091,28.857
			c0,7.639,1.272,25.461,0,33.525c-1.272,8.063-8.913,23.766-8.913,31.4c0,7.641-5.517,19.949-5.517,19.949
			s14.43-3.818,22.916,2.971c8.49,6.789,19.099,16.127,22.494,2.547c0,0,0-15.705,1.695-19.949
			c1.699-4.244,2.549-11.455,2.549-16.125c0-4.668,2.969-25.461,5.94-32.252c2.969-6.789,6.364-31.404,7.214-35.648
			s3.395-5.516,3.395-11.459c0-5.939-1.272-7.213,2.974-15.701c4.241-8.486,8.909-16.975,9.759-23.766
			c0.85-6.787,1.695-21.902,3.395-28.988c1.696-7.082,7.214-25.332,8.486-28.725c1.272-3.396,6.367-17.822,8.063-22.07
			c1.7-4.242,2.973-10.184,2.973-11.881s-1.272,47.955,0,58.988c1.272,11.035,8.485,32.676,4.244,46.682
			c-4.244,14.004,2.219,35.223,1.323,41.588c-0.899,6.369-2.325,34.799,0.087,40.318c2.408,5.516-3.494,32.525-2.785,36.768
			c0.713,4.246-1.327,14.141-3.027,18.809c-1.694,4.668-2.471,10.775-2.471,10.775s27.399-22.584,49.889-14.096
			c0,0-2.699-23.398-2.699-32.313c0-8.912,8.059-20.793,8.059-26.736v-26.309c0-4.246,4.992-24.615,6.741-30.98
			c1.75-6.365,5.568-54.158,8.113-60.818c2.549-6.658,5.518-20.664,5.095-26.604c-0.427-5.943,0.041-46.258,0.041-46.258
			s-3.859-112.459-5.559-117.977c-1.696-5.516-90.816-2.547-90.816-2.547L89.878,413.416z"/>
		<path fill="#3D2314" d="M197.58,434.429c0,0,6.529,24.152,6.72,48.025c0.195,23.869,4.573,79.461,4.644,87.262
			c0.066,7.801-6.786,38.887-8.126,53.426c-1.334,14.539-10.359,47.08-10.359,54.375s12.486-28.43,16.271-41.654
			c3.785-13.223,11.803-36.787,12.558-47.818c0.749-11.029-0.25-26.576,0-31.588c0.248-5.01,1.562-46.156,0-52.152
			c-1.56-5.998-2.363-48.457-2.31-56.811c0.054-8.352,0.373-30.373-2.293-30.393C212.015,417.082,195.271,424.388,197.58,434.429"/>
		<path fill="#C07F51" d="M228.971,480.08c-0.597-0.063-7.761,7.473-9.274,8.893c-1.513,1.42-6.057,5.109-7.95,5.676
			c-1.891,0.57-8.138,2.086-7.38,6.248c0.755,4.164,9.779,3.881,12.271,2.461c2.491-1.42,13.187-9.746,13.187-10.314
			S233.701,480.55,228.971,480.08"/>
		<path fill="none" stroke="#4C3617" stroke-miterlimit="10" d="M228.971,480.08c-0.597-0.063-7.761,7.473-9.274,8.893
			c-1.513,1.42-6.057,5.109-7.95,5.676c-1.891,0.57-8.138,2.086-7.38,6.248c0.755,4.164,9.779,3.881,12.271,2.461
			c2.491-1.42,13.187-9.746,13.187-10.314S233.701,480.55,228.971,480.08z"/>
		<path fill="#C07F51" d="M221.343,308.13c0,0-0.365,23.469,3.668,31.17c4.034,7.701,2.202,14.303,0,23.105
			c-2.2,8.799-4.784,27.5-3.676,44.369c1.109,16.869,2.897,34.838,2.897,34.838s-3.604-0.072-7.848,5.52
			c-4.249,5.59-6.152,17.664-8.499,18.785c-2.351,1.117-7.938,4.246-8.162,7.826c-0.225,3.578,4.473,7.824,10.062,4.357
			c5.592-3.465,12.075-9.727,13.308-10.73c1.226-1.008,4.692-3.355,5.14-1.008s-1.339,18.223-1.451,20.797
			c-0.111,2.572-14.203,13.082-15.542,24.822c-1.342,11.738,13.195-3.467,13.976-4.92c0.784-1.453,11.739-11.293,13.307-12.414
			c1.563-1.115,5.252-5.586,5.364-11.289c0.111-5.705,4.138-22.699,2.575-30.863c0,0,23.422-51.824,20.367-78.646
			c-3.056-26.82-6.791-30.895-7.471-41.082c-0.681-10.186,4.755-27.162,3.056-31.914C260.717,296.099,218.3,297.412,221.343,308.13"
			/>
		<path fill="none" stroke="#4C3617" stroke-miterlimit="10" d="M221.343,308.13c0,0-0.365,23.469,3.668,31.17
			c4.034,7.701,2.202,14.303,0,23.105c-2.2,8.799-4.784,27.5-3.676,44.369c1.109,16.869,2.897,34.838,2.897,34.838
			s-3.604-0.072-7.848,5.52c-4.249,5.59-6.152,17.664-8.499,18.785c-2.351,1.117-7.938,4.246-8.162,7.826
			c-0.225,3.578,4.473,7.824,10.062,4.357c5.592-3.465,12.075-9.727,13.308-10.73c1.226-1.008,4.692-3.355,5.14-1.008
			s-1.339,18.223-1.451,20.797c-0.111,2.572-14.203,13.082-15.542,24.822c-1.342,11.738,13.195-3.467,13.976-4.92
			c0.784-1.453,11.739-11.293,13.307-12.414c1.563-1.115,5.252-5.586,5.364-11.289c0.111-5.705,4.138-22.699,2.575-30.863
			c0,0,23.422-51.824,20.367-78.646c-3.056-26.82-6.791-30.895-7.471-41.082c-0.681-10.186,4.755-27.162,3.056-31.914
			C260.717,296.099,218.3,297.412,221.343,308.13z"/>
		<line fill="none" stroke="#3D2314" stroke-miterlimit="10" x1="141.226" y1="429.541" x2="143.771" y2="459.25"/>
		<path fill="#4C3617" d="M134.435,476.648c-2.118,0.85-23.762-14.428-29.707-17.398c0,0,21.222,21.219,81.059,0
			c0,0-34.375,9.338-36.075,13.154c0,0,11.886,3.396,12.731,12.732"/>
		<path fill="none" stroke="#3D2314" stroke-miterlimit="10" d="M134.435,476.648c-2.118,0.85-23.762-14.428-29.707-17.398
			c0,0,21.222,21.219,81.059,0c0,0-34.375,9.338-36.075,13.154c0,0,11.886,3.396,12.731,12.732"/>
		<path fill="#DBE4E8" d="M143.771,475.8c0,0,2.122,26.734-2.545,32.252"/>
		<path fill="none" stroke="#AAC2C9" stroke-width="0.723" d="M143.771,475.8c0,0,2.122,26.734-2.545,32.252"/>
		<path fill="#A66641" d="M222.757,326.091c0,0,28.819-1.211,30.494-1.508c1.67-0.303-1.073,4.355,0,8.621
			c1.073,4.264,7.094,20.656,10.348,23.4c-2.26-11.725-4.262-15.889-4.752-23.209c-0.588-8.85,3.425-22.809,3.379-29.443
			c-1.418-1.652-2.826-3.225-3.889-4.268c-1.815-0.396-4.212-0.654-6.91-0.762c-5.961,0.557-15.525,1.473-21.287,2.027
			c-6.103,1.6-8.453,0.385-8.37,7.807S222.757,326.091,222.757,326.091"/>
		<path fill="#A66641" d="M70.25,297.382c-0.382-0.191-27.681-4.682-28.535,2.242c0,0-0.924,10.402-2.192,12.932
			c-1,1.992-5.431,11.139-5.787,13.463c-0.116,0.777,4.555-7.203,8.821-9.48c4.266-2.275,21.146,0,24.939,0.285
			c3.794,0.283,4.826,0.609,7.389,0.664c1.628-4.186,5.529-14.166,5.661-14.652C80.318,302.08,70.626,297.572,70.25,297.382"/>
		<path fill="#3D2314" d="M89.713,416.603c-0.133,0.525-2.513,10.836-2.513,10.836s19.621,3.035,24.434,4.068
			c4.813,1.027,13.067-2.725,17.707-1.965c4.642,0.762,18.054,1.121,22.436,2.143c4.382,1.023,19.679,3.088,22.602,3.432
			c2.922,0.342,19.766-0.688,23.202-0.688c3.441,0,8.154-1.033,9.149-1.549c0.99-0.516,3.329-1.928,3.329-1.928l-0.933-17.537
			l-91.99-1.678C117.136,411.738,92.465,405.601,89.713,416.603"/>
		<path fill="#4C3617" d="M142.075,541.578c0,0,2.968-29.953,1.695-42.35"/>
		<path fill="none" stroke="#3D2314" stroke-miterlimit="10" d="M142.075,541.578c0,0,2.968-29.953,1.695-42.35"/>
		<path fill="#2D304F" d="M125.348,166.458c-2.122,0-13.153-1.695-16.549,7.641l-3.396,9.335c0,0-25.462,17.822-35.647,17.822
			s-17.481,2.547-21.474,17.401c-3.989,14.854-8.656,70.449-14.174,74.265c0,0-12.731,12.309,50.924,10.186
			c0,0,6.368,42.014,3.395,56.867c-2.822,14.123-4.854,53.393-5.989,57.961c-0.059,0.236,0.116,0.67,0.062,0.711
			c-0.667,0.49,22.055,7.107,38.181,5.834c16.127-1.273,67.051,5.941,74.268,4.668c7.214-1.273,19.601-3.82,20.409-6.365
			c0.808-2.545-4.283-31.406-5.555-47.955c-1.277-16.551,1.271-56.02,0.422-60.262c-0.783-3.904,46.962-0.262,57.553-9.582
			c0.917-0.807,1.556-1.711,1.857-2.727c1.635-5.439-0.737-10.98-3.871-18.445c-0.324-0.773-0.846-1.824-1.805-2.182
			c-3.788-9.809-7.66-23.293-9.679-40.336c0,0,1.044-1.809,1.023-3.512c-0.062-5.339-0.829-15.704-1.79-18.279
			c-1.272-3.393-17.403-14.426-29.707-21.641c-12.31-7.215-21.698-13.582-21.698-13.582s4.722-12.306-6.313-14.429
			c-11.031-2.121-67.669-3.515-67.669-3.515L125.348,166.458z"/>
		<path fill="none" stroke="#52586D" stroke-miterlimit="10" d="M125.348,166.458c-2.122,0-13.153-1.695-16.549,7.641l-3.396,9.335
			c0,0-25.462,17.822-35.647,17.822s-17.481,2.547-21.474,17.401c-3.989,14.854-8.656,70.449-14.174,74.265
			c0,0-12.731,12.309,50.924,10.186c0,0,6.368,42.014,3.395,56.867c-2.822,14.123-4.854,53.393-5.989,57.961
			c-0.059,0.236,0.116,0.67,0.062,0.711c-0.667,0.49,22.055,7.107,38.181,5.834c16.127-1.273,67.051,5.941,74.268,4.668
			c7.214-1.273,19.601-3.82,20.409-6.365c0.808-2.545-4.283-31.406-5.555-47.955c-1.277-16.551,1.271-56.02,0.422-60.262
			c-0.783-3.904,46.962-0.262,57.553-9.582c0.917-0.807,1.556-1.711,1.857-2.727c1.635-5.439-0.737-10.98-3.871-18.445
			c-0.324-0.773-0.846-1.824-1.805-2.182c-3.788-9.809-7.66-23.293-9.679-40.336c0,0,1.044-1.809,1.023-3.512
			c-0.062-5.339-0.829-15.704-1.79-18.279c-1.272-3.393-17.403-14.426-29.707-21.641c-12.31-7.215-21.698-13.582-21.698-13.582
			s4.722-12.306-6.313-14.429c-11.031-2.121-67.669-3.515-67.669-3.515L125.348,166.458z"/>
		<path fill="#373B5B" d="M208.396,289.25c2.55-5.094,11.459-22.916,12.731-30.131c1.277-7.215,4.668-44.134,4.668-44.134
			s-10.472,37.152-18.274,43.943c-7.797,6.791-15.595,22.723-14.413,36.146s9.933,65.709,5.56,80.648
			c-4.378,14.941-5.402,35.99-10.662,39.387c-5.258,3.393-12.16,13.252-12.164,13.256c9.373,0.85,16.79,1.385,19.227,0.957
			c7.215-1.273,19.601-3.818,20.41-6.365c0.808-2.545-4.283-31.402-5.556-47.955c-1.124-14.561,0.713-46.842,0.593-57.291
			c-0.506-1.492-0.846-2.574-0.846-2.574S205.851,294.341,208.396,289.25"/>
		<path fill="#2D304F" d="M85.069,303.359c-1.496-11.111-8.771-40.596-10.471-51.207c-1.696-10.607,3.395-31.404,3.395-31.404"/>
		<path fill="none" stroke="#52586D" stroke-miterlimit="10" d="M85.069,303.359c-1.496-11.111-8.771-40.596-10.471-51.207
			c-1.696-10.607,3.395-31.404,3.395-31.404"/>
		<path fill="#074051" d="M123.528,169.596c-2.96,0.108-7.338,1.117-7.604,5.339c-0.041,0.686,0.27,1.471,0.9,2.291l6.703-1.951
			V169.596z"/>
		<path fill="#C07F51" d="M185.106,132.143l-16.702,1.978l-44.181,2.514v39.15l-6.259,1.82c5.576,7.271,34.735,19.436,36.535,31.261
			c0,0,27.095-19.606,34.495-24.236l-4.784-3.097L185.106,132.143z"/>
		<path fill="none" stroke="#4C3617" stroke-miterlimit="10" d="M185.106,132.143l-16.702,1.978l-44.181,2.514v39.15l-6.259,1.82
			c5.576,7.271,34.735,19.436,36.535,31.261c0,0,27.095-19.606,34.495-24.236l-4.784-3.097L185.106,132.143z"/>
		<polygon fill="#A66641" points="163.383,154.762 165.622,186.885 174.05,194.058 187.743,184.634 183.502,181.936 
			184.352,135.109 		"/>
		<path fill="#C07F51" d="M118.744,89.771c0,0-5.186-10.838-9.519-8.671c-4.337,2.167-3.018,17.812-2.263,20.168
			c0.754,2.357,2.731,11.78,3.582,13.384c0.85,1.602,3.78,5.354,5.654,3.391c1.873-1.96,4.995-12.062,4.713-14.229
			c-0.282-2.167,1.555-8.865,0.017-10.463C119.391,91.754,118.744,89.771,118.744,89.771"/>
		<path fill="none" stroke="#4C3617" stroke-miterlimit="10" d="M118.744,89.771c0,0-5.186-10.838-9.519-8.671
			c-4.337,2.167-3.018,17.812-2.263,20.168c0.754,2.357,2.731,11.78,3.582,13.384c0.85,1.602,3.78,5.354,5.654,3.391
			c1.873-1.96,4.995-12.062,4.713-14.229c-0.282-2.167,1.555-8.865,0.017-10.463C119.391,91.754,118.744,89.771,118.744,89.771z"/>
		<path fill="#3D2314" d="M118.292,100.137c0,0-2.144-13.1-5.842-12.346c-3.696,0.754-3.792,4.869-4.074,6.156
			c-0.281,1.289,0.282,8.923,1.132,6.189c0.85-2.732,6.608-6.129,7.445-4.334C117.791,97.596,118.292,100.137,118.292,100.137"/>
		<path fill="#A66641" d="M188.104,88.083c0,0,5.187-10.836,9.518-8.67c4.337,2.168,3.019,17.813,2.265,20.171
			c-0.756,2.354-2.732,11.779-3.582,13.381c-0.846,1.603-3.781,5.354-5.654,3.394c-1.875-1.961-4.996-12.064-4.715-14.232
			c0.282-2.168-1.554-8.863-0.016-10.461C187.457,90.067,188.104,88.083,188.104,88.083"/>
		<path fill="none" stroke="#4C3617" stroke-miterlimit="10" d="M188.104,88.083c0,0,5.187-10.836,9.518-8.67
			c4.337,2.168,3.019,17.813,2.265,20.171c-0.756,2.354-2.732,11.779-3.582,13.381c-0.846,1.603-3.781,5.354-5.654,3.394
			c-1.875-1.961-4.996-12.064-4.715-14.232c0.282-2.168-1.554-8.863-0.016-10.461C187.457,90.067,188.104,88.083,188.104,88.083z"/>
		<path fill="#3D2314" d="M188.555,98.452c0,0,2.144-13.1,5.842-12.346c3.698,0.753,3.793,4.867,4.075,6.157
			c0.282,1.289-0.282,8.923-1.132,6.189c-0.851-2.732-6.607-6.129-7.445-4.336C189.057,95.911,188.555,98.452,188.555,98.452"/>
		<path fill="#C07F51" d="M117.956,49.169c0.009,0.069-4.323,7.991-4.332,8.621c-0.033,4.67,4.668,15.32,4.332,17.061
			c-0.377,1.976-0.07,24.067,0.133,25.503c0.207,1.438-3.217,20.656-1.058,29.815c2.161,9.158,11.02,26.757,34.068,26.221
			c23.05-0.539,37.957-12.752,37.419-41.309c-0.54-28.557-0.718-43.104-0.718-43.104s0-17.061-0.717-18.319
			c-0.722-1.256-8.085-24.067-8.801-24.246c-0.718-0.181-49.03-2.336-49.752-2.336C127.814,27.078,116.182,30.67,117.956,49.169"/>
		<path fill="none" stroke="#4C3617" stroke-miterlimit="10" d="M117.956,49.169c0.009,0.069-4.323,7.991-4.332,8.621
			c-0.033,4.67,4.668,15.32,4.332,17.061c-0.377,1.976-0.07,24.067,0.133,25.503c0.207,1.438-3.217,20.656-1.058,29.815
			c2.161,9.158,11.02,26.757,34.068,26.221c23.05-0.539,37.957-12.752,37.419-41.309c-0.54-28.557-0.718-43.104-0.718-43.104
			s0-17.061-0.717-18.319c-0.722-1.256-8.085-24.067-8.801-24.246c-0.718-0.181-49.03-2.336-49.752-2.336
			C127.814,27.078,116.182,30.67,117.956,49.169z"/>
		<path fill="#591E1E" d="M131.554,125.404c0,0,14.535-1.442,18.162-1.316c3.631,0.128,17.191,1.061,17.191,1.061
			s-12.437,2.61-17.316,2.718C144.708,127.973,132.039,125.829,131.554,125.404"/>
		<path fill="#A66641" d="M187.871,115.26c-0.203-10.733-0.419-19.393-0.493-26.312c-0.115-11.255,0.423-16.97,0.423-16.97
			s0-17.061-0.722-18.319c-0.717-1.256-8.08-24.067-8.796-24.248c-0.323-0.079-10.149-0.553-20.985-1.053
			c-0.851,1.507-1.165,3.439-0.746,5.904c2.951,0.56,4.054,2.763,4.054,2.763s11.322,5.4,11.061,18.436
			c-0.261,13.036,2.915,17.337,2.915,17.337l-1.979,2.875c0,0,6.92,2.778,2.587,7.369c0,0-5.729,12.893-10.376,11.923
			c0,0,24.795,5.646,13.398,50.733c0.121,0.049,3.225-3.021,5.791-8.6C187.017,130.858,188.008,122.532,187.871,115.26"/>
		<path fill="#3D2314" d="M129.97,18.996c3.918,0.438,3.952-1.975,7.541-3.054c3.595-1.078,4.313,0,8.623,0s1.435-2.153,7.362-1.437
			c5.929,0.72,5.567,2.548,8.084,2.173c2.512-0.375,7.002-0.736,10.235,0.881c3.233,1.617,3.412,2.873,6.285,3.772
			c2.877,0.897,7.574,2.692,10.43,10.774c2.864,8.084,5.377,25.325,5.556,26.762s0.899,15.625,0,17.6
			c-0.896,1.976-1.617,5.568-2.334,6.465c-0.718,0.897-2.873,5.567-4.668,4.131c-1.8-1.437-0.775-8.073,0-9.518
			c0.771-1.445-1.078-0.181-2.155-3.233c-1.078-3.053-0.184-6.826-0.9-7.901c-0.717-1.078-1.617-0.72-1.438-3.414
			c0.183-2.693,4.312-4.31,3.772-7.362c-0.539-3.054-3.59-0.539-4.13-3.054c-0.537-2.514-1.077-7.362-1.077-8.979
			s1.31-5.953,0.295-6.03c-1.012-0.077-8.735,3.157-9.635-2.232c0,0-1.077,3.594-5.385,3.594c-4.312,0-9.879-4.672-9.879-4.672
			s-2.156,3.951-7.905,3.951c-5.746,0-6.823,1.616-11.313-3.412c0,0-5.924,3.592-12.03-2.155c0,0-0.249,5.37-3.416,5.389
			c0,0,1.977,7.901-2.152,8.618c0,0,1.106,7.719-1.782,8.801c-2.889,1.078-2.363,5.748-1.637,7.184
			c0.725,1.437,3.859,7.922,2.698,10.776c-1.16,2.854-0.531,14.112-0.531,14.112s-3.332-4.007-5.186-7.839
			c-0.966-2.004-1.393-7.51-1.824-10.223c-1.261-7.903,0-12.571,0-14.727s-0.722-8.084,1.073-10.057
			c1.8-1.978-0.895-7.006,1.617-12.034c2.517-5.029,5.211-5.568,6.646-7.363C122.247,23.488,125.12,18.459,129.97,18.996"/>
		<path fill="none" stroke="#3D2314" stroke-linecap="round" stroke-linejoin="round" stroke-miterlimit="10" d="M143.439,79.341
			c0,0,1.795,15.626-0.896,18.678"/>
		<path fill="#3D2314" d="M172.603,75.672c0,0-4.307-5.748-8.262-4.67c-3.947,1.078-9.298,5.597-9.298,5.597l0.858-3.329
			c0,0,3.055-6.399,9.339-6.757c6.289-0.359,9.341,5.567,9.341,6.286C174.581,73.516,172.603,75.672,172.603,75.672"/>
		<path fill="#FFFFFF" d="M155.523,83.52c0,0-2.736,10.828,9.29,11.444c12.021,0.617,11.472-10.69,10.376-11.923
			C174.092,81.808,159.222,80.505,155.523,83.52"/>
		<path fill="none" stroke="#3D2314" stroke-miterlimit="10" d="M155.523,83.52c0,0-2.736,10.828,9.29,11.444
			c12.021,0.617,11.472-10.69,10.376-11.923C174.092,81.808,159.222,80.505,155.523,83.52z"/>
		<path fill="#3E540D" d="M160.822,87.002c0,2.286,2.117,4.597,4.733,4.597s4.733-1.853,4.733-4.139s-1.533-4.934-4.149-4.934
			C163.997,82.479,160.253,83.318,160.822,87.002"/>
		<path fill="#001523" d="M168.134,86.658c0.232,1.484-0.563,2.844-1.777,3.035c-1.215,0.19-2.393-0.86-2.621-2.347
			c-0.236-1.486,0.564-2.846,1.778-3.036C166.729,84.121,167.901,85.171,168.134,86.658"/>
		<path fill="#FFFFFF" d="M162.368,88.03c0.096,0.616,0.51,1.06,0.928,0.995c0.415-0.064,0.672-0.616,0.576-1.229
			c-0.095-0.616-0.51-1.062-0.924-0.995C162.529,86.865,162.269,87.416,162.368,88.03"/>
		<path fill="#FFFFFF" d="M169.54,87.325c0.153,0.966-0.336,1.847-1.091,1.965c-0.75,0.116-1.48-0.572-1.633-1.538
			c-0.149-0.968,0.335-1.847,1.09-1.965C168.656,85.671,169.39,86.359,169.54,87.325"/>
		<path fill="#3D2314" d="M151.958,84.684c0,0,16.242-3.357,27.137-0.615c0,0-6.442-4.659-13.568-3.907
			C158.401,80.917,156.137,81.602,151.958,84.684"/>
		<path fill="#3D2314" d="M123.242,75.672c0,0,4.311-5.748,8.262-4.67c3.951,1.078,9.303,5.597,9.303,5.597l-0.862-3.329
			c0,0-3.051-6.399-9.336-6.757c-6.284-0.359-9.34,5.567-9.34,6.286C121.269,73.516,123.242,75.672,123.242,75.672"/>
		<path fill="#FFFFFF" d="M140.325,83.52c0,0,2.736,10.828-9.289,11.444c-12.022,0.617-11.472-10.69-10.377-11.923
			C121.753,81.808,136.628,80.505,140.325,83.52"/>
		<path fill="none" stroke="#3D2314" stroke-miterlimit="10" d="M140.325,83.52c0,0,2.736,10.828-9.289,11.444
			c-12.022,0.617-11.472-10.69-10.377-11.923C121.753,81.808,136.628,80.505,140.325,83.52z"/>
		<path fill="#3E540D" d="M134.667,87.27c0,2.286-2.118,4.599-4.733,4.599c-2.616,0-4.735-1.855-4.735-4.142
			c0-2.284,1.534-4.933,4.149-4.933C131.487,82.747,135.234,83.588,134.667,87.27"/>
		<path fill="#001523" d="M127.354,86.925c-0.235,1.486,0.565,2.846,1.779,3.036c1.215,0.191,2.388-0.86,2.62-2.349
			c0.235-1.486-0.563-2.844-1.779-3.036C128.76,84.388,127.582,85.438,127.354,86.925"/>
		<path fill="#FFFFFF" d="M133.121,88.297c-0.096,0.616-0.51,1.062-0.929,0.997c-0.419-0.066-0.676-0.617-0.58-1.231
			c0.099-0.613,0.51-1.059,0.928-0.995C132.959,87.132,133.216,87.684,133.121,88.297"/>
		<path fill="#FFFFFF" d="M125.949,87.595c-0.154,0.966,0.336,1.847,1.086,1.963c0.75,0.118,1.483-0.57,1.633-1.538
			c0.154-0.966-0.335-1.847-1.086-1.963C126.832,85.938,126.099,86.627,125.949,87.595"/>
		<path fill="#3D2314" d="M143.892,84.684c0,0-16.243-3.357-27.138-0.615c0,0,6.442-4.659,13.568-3.907
			C137.448,80.917,139.713,81.602,143.892,84.684"/>
		<path fill="none" stroke="#3D2314" stroke-linecap="round" stroke-linejoin="round" stroke-miterlimit="10" d="M137.374,103.06
			c0,0-8.013,4.712-0.567,8.766"/>
		<path fill="none" stroke="#3D2314" stroke-linecap="round" stroke-linejoin="round" stroke-miterlimit="10" d="M156.883,103.814
			c0,0,9.373,6.221-1.629,8.67"/>
		<path fill="none" stroke="#3D2314" stroke-linecap="round" stroke-linejoin="round" stroke-miterlimit="10" d="M155.665,108.148
			c0,0,0.087-1.98-1.986-1.603c-2.072,0.377-1.509,5.843-7.163,5.938c-5.655,0.094-3.769-5.747-6.974-5.041
			c-3.205,0.705-2.64,1.647-1.227,2.591"/>
		<path fill="none" stroke="#4C3617" stroke-linecap="round" stroke-linejoin="round" stroke-miterlimit="10" d="M144.819,143.775
			c0,0,12.063-4.902,18.563,2.261"/>
		<path fill="#703B18" d="M169.146,125.522c0,0-11.678-6.923-13.962-6.923s-3.95,1.196-4.867,2.392
			c-0.12,0.156-0.244,0.249-0.368,0.294c-0.125-0.046-0.249-0.139-0.369-0.294c-0.917-1.196-2.583-2.392-4.867-2.392
			c-2.285,0-13.963,6.923-13.963,6.923c0.432-0.112,2.607-0.332,5.73-0.535c3.635-0.238,8.556-0.454,13.469-0.45
			C159.15,124.546,168.342,125.315,169.146,125.522"/>
		<path fill="#512A14" d="M130.749,125.517c0.278,0.159,4.664,2.675,7.919,5.509c2.446,2.131,4.087,2.485,6.98,3.399
			c0.685,0.303,7.914,0.303,8.599,0c2.897-0.914,4.534-1.269,6.984-3.399c3.251-2.833,6.095-4.871,7.914-5.509
			c-0.92-1.399-11.102,1.647-18.788,1.647C142.673,127.164,130.948,124.76,130.749,125.517"/>
		<path fill="#AF3C3D" d="M136.122,126.274c0,0,17.37,1.107,25.939,0.019c0,0-4.139,2.769-13.03,2.278
			C139.937,128.938,140.732,127.541,136.122,126.274"/>
		<path fill="#3D2314" d="M155.665,107.815c0,0.638-0.655,1.154-1.46,1.154c-0.808,0-1.459-0.516-1.459-1.154
			c0-0.639,0.651-1.153,1.459-1.153C155.01,106.662,155.665,107.176,155.665,107.815"/>
		<path fill="#3D2314" d="M141.508,108.815c0,0.676-0.854,1.223-1.911,1.223c-1.054,0-1.907-0.547-1.907-1.223
			c0-0.673,0.854-1.218,1.907-1.218C140.653,107.597,141.508,108.142,141.508,108.815"/>
		<path fill="#FFFFFF" d="M149.09,126.826c11.595-0.238,14.99-1.78,14.99-1.78s-9.809-0.589-14.783-0.508
			c-8.337,0.031-16.437,0.729-16.437,0.729S137.499,127.064,149.09,126.826"/>
		<path fill="#725444" d="M115.046,45.086c1.219-2.258,0.921-4.93,0.829-7.408c-0.174-4.596,1.675-7.558,5.198-10.314
			c0.319-0.249,0.312-0.57,0.149-0.827c-1.5,1.192-3.577,2.377-5.547,6.316c-2.516,5.028,0.179,10.057-1.616,12.033
			c-0.083,0.089-0.149,0.192-0.22,0.294C114.155,45.525,114.757,45.614,115.046,45.086"/>
		<path fill="#725444" d="M133.875,20.378c2.604-0.827,4.104-2.79,7.139-1.891c2.509,0.747,5.519-0.296,8.063-0.493
			c0.867-0.066,0.876-1.424,0-1.355c-0.016,0-0.032,0-0.049,0.002c-0.461,0.388-0.999,0.771-2.815,0.771
			c-1.438,0-2.471-0.118-3.349-0.238c-0.589-0.027-1.179-0.1-1.787-0.216c-0.975-0.068-1.974,0-3.487,0.454
			c-2.296,0.69-3.142,1.922-4.472,2.609C133.233,20.295,133.502,20.495,133.875,20.378"/>
		<path fill="#725444" d="M140.844,24.903c0,0-1.417-1.262-2.839,0.632c0,0-1.816-2.641-4.893-1.045c0,0,1.903-2.837,4.734-0.97
			C137.847,23.521,140.89,22.765,140.844,24.903"/>
		<path fill="#725444" d="M165.618,25.826c0,0,4.038,0.121,4.369,2.773c0,0,4.312,1.99,4.975,0s-0.663-2.773-0.663-2.773
			s-1.824,2.043-2.487,1.829l-0.664-0.216C171.147,27.438,167.72,23.216,165.618,25.826"/>
		<path fill="#074051" d="M190.188,184.59c1.418-0.912,3.951-3.237,5.179-6.178c1.227-2.944-10.315-4.823-10.315-4.823l-0.137,7.52
			L190.188,184.59z"/>
		<path fill="#C49A6C" d="M16.004,805.546c0.067,0.238,19.671-1.717,23.779,9.58c0,0,5.24,4.92,6.173-1.209
			c0.029-0.186,0.054-0.383,0.074-0.588c0.685-7.018-16.992-10.775-23.302-10.051C22.729,803.279,15.15,802.404,16.004,805.546"/>
		<path fill="none" stroke="#231F20" stroke-miterlimit="10" d="M16.004,805.546c0.067,0.238,19.671-1.717,23.779,9.58
			c0,0,5.24,4.92,6.173-1.209c0.029-0.186,0.054-0.383,0.074-0.588c0.685-7.018-16.992-10.775-23.302-10.051
			C22.729,803.279,15.15,802.404,16.004,805.546z"/>
		<path fill="#C49A6C" d="M47.655,810.847c0,0,2.314,3.252,4.022,1.199c1.712-2.053-0.253-10.527-8.644-12.498
			c-8.387-1.967-12.628-2.146-15.127,0.758c-2.505,2.902,0.368,1.225,5.352,2.332C38.241,803.744,44.148,805.371,47.655,810.847"/>
		<path fill="none" stroke="#231F20" stroke-miterlimit="10" d="M47.655,810.847c0,0,2.314,3.252,4.022,1.199
			c1.712-2.053-0.253-10.527-8.644-12.498c-8.387-1.967-12.628-2.146-15.127,0.758c-2.505,2.902,0.368,1.225,5.352,2.332
			C38.241,803.744,44.148,805.371,47.655,810.847z"/>
		<path fill="#C49A6C" d="M37.984,791.761c0,0,11.384,0,15.235,4.193c3.851,4.195,5.563,8.988,5.563,8.988s1.373,2.568-1.197,3.168
			c-2.566,0.596-4.088-5.65-9.021-8.18c-4.929-2.52-12.635-4.506-15.073-4.285C31.053,795.871,33.876,790.306,37.984,791.761"/>
		<path fill="none" stroke="#231F20" stroke-miterlimit="10" d="M37.984,791.761c0,0,11.384,0,15.235,4.193
			c3.851,4.195,5.563,8.988,5.563,8.988s1.373,2.568-1.197,3.168c-2.566,0.596-4.088-5.65-9.021-8.18
			c-4.929-2.52-12.635-4.506-15.073-4.285C31.053,795.871,33.876,790.306,37.984,791.761z"/>
		<path fill="#C49A6C" d="M41.321,784.742c0,0,7.362-1.625,12.669,1.371s10.355,5.637,11.127,8.979
			c0.771,3.346-1.713,6.598-6.335,3.432s-2.027-6.066-10.612-8.729c-8.585-2.664-9.075-0.402-9.63-1.061
			C37.984,788.082,37.72,785.16,41.321,784.742"/>
		<path fill="none" stroke="#231F20" stroke-miterlimit="10" d="M41.321,784.742c0,0,7.362-1.625,12.669,1.371
			s10.355,5.637,11.127,8.979c0.771,3.346-1.713,6.598-6.335,3.432s-2.027-6.066-10.612-8.729c-8.585-2.664-9.075-0.402-9.63-1.061
			C37.984,788.082,37.72,785.16,41.321,784.742z"/>
		<path fill="#C49A6C" d="M164.217,795.505c0,0,11.284-8.035,18.552-8.633c7.267-0.598,10.016,0.902,10.016,0.902
			s-0.158-4.398-3.807-4.83c-3.643-0.434-11.085-4.365-17.324,1.02C165.41,789.351,159.428,792.599,164.217,795.505"/>
		<path fill="none" stroke="#231F20" stroke-miterlimit="10" d="M164.217,795.505c0,0,11.284-8.035,18.552-8.633
			c7.267-0.598,10.016,0.902,10.016,0.902s-0.158-4.398-3.807-4.83c-3.643-0.434-11.085-4.365-17.324,1.02
			C165.41,789.351,159.428,792.599,164.217,795.505z"/>
		<path fill="#C49A6C" d="M168.321,801.746c0,0,7.855-8.182,16.499-10.688c8.644-2.504,11.712,0.857,13.336,1.457
			c1.625,0.598,3.333,2.594,0.854,2.576c-2.478-0.012-14.629-0.064-18.464,2.467c-3.834,2.527-8.549,5.984-9.318,6.668
			C170.456,804.91,167.467,804.31,168.321,801.746"/>
		<path fill="none" stroke="#231F20" stroke-miterlimit="10" d="M168.321,801.746c0,0,7.855-8.182,16.499-10.688
			c8.644-2.504,11.712,0.857,13.336,1.457c1.625,0.598,3.333,2.594,0.854,2.576c-2.478-0.012-14.629-0.064-18.464,2.467
			c-3.834,2.527-8.549,5.984-9.318,6.668C170.456,804.91,167.467,804.31,168.321,801.746z"/>
		<path fill="#C49A6C" d="M178.494,809.357c0.125-0.342,4.444-10.432,12.565-12.74c8.125-2.309,14.331,1.531,16.645,3.148
			c2.316,1.619,1.31,1.98-2.45,1.896c-3.765-0.086-8.893-2.174-13.938,0.963c-5.046,3.143-10.343,6.219-11.027,8.441
			C179.605,813.289,178.018,810.656,178.494,809.357"/>
		<path fill="none" stroke="#231F20" stroke-miterlimit="10" d="M178.494,809.357c0.125-0.342,4.444-10.432,12.565-12.74
			c8.125-2.309,14.331,1.531,16.645,3.148c2.316,1.619,1.31,1.98-2.45,1.896c-3.765-0.086-8.893-2.174-13.938,0.963
			c-5.046,3.143-10.343,6.219-11.027,8.441C179.605,813.289,178.018,810.656,178.494,809.357z"/>
		<path fill="#373B5B" d="M268.938,302.294c1.625-5.424-1.181-11.645-4.121-18.939c-0.298-0.748-0.778-0.879-1.073-1.66
			c-3.582-9.541-6.814-21.912-8.838-39.018c0,0-0.522-1.053-0.622-3.047c-0.024-0.473,0.515-1.205,0.489-1.752
			c-0.266-6.108-1.095-16.019-1.961-18.334c0,0-3.661,47.418-2.98,57.592c0.676,10.174,3.396,20.404-5.436,25.475
			c-8.825,5.07-6.325,8.979-6.325,8.979c11.988-0.813,24.247-2.381,29.006-6.568C267.993,304.214,268.631,303.312,268.938,302.294"
			/>
		<path fill="#A66641" d="M210.742,467.693c3.296-0.453,8.092-8.838,10.488-15.902c2.4-7.066,10.792-5.523,10.658-11.117
			c-0.137-5.588-4.664-34.871-5.525-45.768c-0.862-10.9,9.033-38.6,7.615-40.961c-1.979-3.283-3.893-4.686-5.904-4.768
			c0.005,4.209-1.239,8.516-2.495,13.547c-2.201,8.799-4.784,27.504-3.677,44.371c1.11,16.869,2.956,35.17,2.956,35.17
			s-3.545-0.461-7.881,5.23c-4.25,5.588-6.168,17.287-8.466,18.822C208.454,466.345,209.996,467.796,210.742,467.693"/>
		<path fill="#373B5B" d="M143.771,306.109c-9.842,5.344-53.846,2.494-60.33-13.607c-1.438-3.621,1.012,7.547,2.122,15.205
			C94.621,314.585,145.271,312.654,143.771,306.109"/>
		<path fill="#3D2314" d="M94.924,658.689c0.397-1.066,1.136-1.982,2.06-2.65c3.943-2.834,15.695-12.293,16.417-24.717
			c0.867-14.939,5.846-43.459,6.302-48.889c0.452-5.438,9.957-34.627,10.864-40.855c0.905-6.229-0.907-58.146,0-59.123
			c0.291-0.316,0.652-1.732,0.685-3.592c0.042-2.201-1.144-4.252-3.067-5.334c-4.154-2.338-11.724-6.596-12.147-7.336
			c-1.136-1.992,10.593,2.012,7.642,1.182c0,0,8.402,1.363,14.488,1.602c3.184,0.125,5.737,2.645,5.837,5.83
			c0.112,3.643,0.229,8.441,0.248,13.217c0.029,7.537-0.414,15.088,0.005,17.568c0.87,5.195-1.928,33.004-2.404,37.674
			c-0.046,0.443-0.141,0.873-0.282,1.297c-1.74,5.195-13.701,40.904-14.115,42.285c-0.444,1.486-8.262,26.82-7.558,41.76
			c0.709,14.936-10.228,25.352-11.914,31.432c-0.46,1.658-1.58,3.307-2.969,4.822c-4.369,4.781-12.357,0.16-10.177-5.939
			C94.865,658.845,94.895,658.767,94.924,658.689"/>
		<path fill="#3D2314" d="M71.136,780.068c5.013-2.506-3.511-9.527,0-10.527c3.508-1.006,9.676-1.029,8.847-5.529
			c-0.825-4.5,5.353-12.578,6.725-19.598c0,0-3.881,10.764-3.515,16.311c0.364,5.549,0.998,9.688,0.36,13.699
			c-0.635,4.008-2.649,2.881-3.57,6.73c-0.915,3.85-0.148,7.25,1.99,9.082c2.144,1.836-3.893-3.006-12.342-5.934
			c-7.706-2.67-7.416-5.002-7.416-5.002S66.12,782.576,71.136,780.068"/>
		<path fill="#3D2314" d="M190.458,692.822c-0.336,1.621,4.332,21.414,2.326,28.555c-2.012,7.135-6.633,18.078-6.148,27.721
			c0.481,9.646,1.459,29.891,2.541,31.885c1.082,1.992-5.63-3.639-17.889-1.174c0,0,9.751-1.984,9.428-8.146
			s-7.789-4.055-10.708-4.133c0,0,7.139-2.676,10.058-5.273c2.918-2.594-3.242-11.354-6.816-9.732
			c-3.564,1.621,6.41-4.541,8.399-10.383c1.985-5.842,3.884-24.984,4.394-27.904C186.554,711.316,190.458,692.822,190.458,692.822"
			/>
		<path fill="#C07F51" d="M213.577,513.806c0.598,0.748,0.921,0.736,2.16,0.801c1.236,0.061,2.712-1.828,2.712-1.828l-1.464-0.945
			C216.736,511.804,212.943,512.906,213.577,513.806"/>
		<path fill="none" stroke="#4C3617" stroke-miterlimit="10" d="M213.577,513.806c0.598,0.748,0.921,0.736,2.16,0.801
			c1.236,0.061,2.712-1.828,2.712-1.828l-1.464-0.945C216.736,511.804,212.943,512.906,213.577,513.806z"/>
		<path fill="#C07F51" d="M45.106,500.974c0.473-0.832,0.345-1.131-0.058-2.303c-0.407-1.17-2.712-1.836-2.712-1.836l-0.331,1.709
			C42.072,498.789,44.505,501.898,45.106,500.974"/>
		<path fill="none" stroke="#4C3617" stroke-miterlimit="10" d="M45.106,500.974c0.473-0.832,0.345-1.131-0.058-2.303
			c-0.407-1.17-2.712-1.836-2.712-1.836l-0.331,1.709C42.072,498.789,44.505,501.898,45.106,500.974z"/>
		<path fill="#C07F51" d="M62.891,467.361c-0.957,0.039-1.165-0.211-2.022-1.105c-0.854-0.896-0.391-3.248-0.391-3.248l1.672,0.486
			C62.335,463.664,63.985,467.253,62.891,467.361"/>
		<path fill="none" stroke="#4C3617" stroke-miterlimit="10" d="M62.891,467.361c-0.957,0.039-1.165-0.211-2.022-1.105
			c-0.854-0.896-0.391-3.248-0.391-3.248l1.672,0.486C62.335,463.664,63.985,467.253,62.891,467.361z"/>
		<path fill="#C07F51" d="M201.397,474.314c-0.537-0.791-0.435-1.102-0.128-2.305c0.307-1.195,2.55-2.049,2.55-2.049l0.469,1.678
			C204.241,471.884,202.07,475.187,201.397,474.314"/>
		<path fill="none" stroke="#4C3617" stroke-miterlimit="10" d="M201.397,474.314c-0.537-0.791-0.435-1.102-0.128-2.305
			c0.307-1.195,2.55-2.049,2.55-2.049l0.469,1.678C204.241,471.884,202.07,475.187,201.397,474.314z"/>
		<path fill="#52586D" d="M62.858,206.659c5.932-0.792,20.37-5.934,29.47-9.69c5.303-2.193,14.895-9.612,17.445-13.283
			c0.575-0.828-2.426-0.237-3.735,0.187c-2.429,1.683-26.485,18.066-36.137,18.066c-10.187,0-17.481,2.545-21.475,17.398
			c-1.633,6.079-3.378,18.98-5.252,32.363c2.719-11.121,7.835-33.139,9.1-37.822C53.953,207.648,56.925,207.451,62.858,206.659"/>
		<path fill="#52586D" d="M106.829,181.632c0,0,2.476-8.76,5.046-11.126c2.566-2.37,5.604-3.164,7.237-3.35
			c0,0-4.903,1.353-6.441,4.062c-1.542,2.71-1.214,4.533,0.303,5.464c1.518,0.934-0.303,2.896-1.286,3.97
			c-0.981,1.073-1.214,2.754-1.914,3.034c-0.701,0.28-3.735,0.189-3.735,0.189L106.829,181.632z"/>
		<path fill="none" stroke="#272A3F" stroke-width="1.228" stroke-linejoin="round" d="M172.45,245.361
			c0.008-0.17,0.021-0.344,0.029-0.518c0,0,0.178,0.041,0.506,0.105"/>
		<path fill="none" stroke="#272A3F" stroke-width="1.228" stroke-linejoin="round" stroke-dasharray="0.992,0.992" d="
			M173.987,245.142c4.548,0.855,18.29,3.053,25.956,0.107"/>
		<path fill="none" stroke="#272A3F" stroke-width="1.228" stroke-linejoin="round" d="M200.425,245.058
			c0.156-0.068,0.314-0.141,0.472-0.213c0.146,0.072,0.286,0.17,0.419,0.293"/>
		<path fill="none" stroke="#272A3F" stroke-width="1.228" stroke-linejoin="round" stroke-dasharray="0.995,0.995" d="
			M201.938,245.953c3.104,5.488,1.364,27.238-13.083,28.141c-15.529,0.969-17.296-11.889-16.434-28.209"/>
		<polygon fill-rule="evenodd" clip-rule="evenodd" fill="#FFFFFF" points="181.392,258.175 187.204,258.175 183.792,264.113 
			183.066,263.431 185.243,259.662 185.297,259.556 185.322,259.455 185.309,259.337 185.272,259.273 185.222,259.22 
			185.106,259.162 184.957,259.134 181.392,259.134 		"/>
		<path fill-rule="evenodd" clip-rule="evenodd" fill="#FFFFFF" d="M187.751,252.701c0.75,0,1.36,0.615,1.36,1.369
			c0,0.752-0.61,1.369-1.36,1.369s-1.36-0.617-1.36-1.369C186.391,253.316,187.001,252.701,187.751,252.701"/>
		<polygon fill-rule="evenodd" clip-rule="evenodd" fill="#FFFFFF" points="187.718,259.175 184.518,264.619 185.367,265.041 
			187.465,261.5 187.531,261.417 187.622,261.373 187.739,261.349 187.871,261.373 187.95,261.425 188.012,261.5 190.127,265.041 
			190.997,264.587 		"/>
		<polygon fill-rule="evenodd" clip-rule="evenodd" fill="#FFFFFF" points="188.206,258.169 194.09,258.169 194.09,259.111 
			190.495,259.111 190.384,259.146 190.28,259.197 190.193,259.289 190.155,259.4 190.155,259.501 190.185,259.607 192.402,263.421 
			191.705,264.083 		"/>
		<path fill-rule="evenodd" clip-rule="evenodd" fill="#FFFFFF" d="M182.793,257.117v0.008c-0.004,0.021-0.004,0.037-0.004,0.049
			c0,0.07,0.042,0.125,0.12,0.156c0.083,0.033,0.208,0.053,0.378,0.053c0.123,0,0.228-0.014,0.298-0.043
			c0.074-0.027,0.107-0.066,0.107-0.117c0-0.074-0.141-0.135-0.432-0.182c-0.032-0.006-0.058-0.008-0.074-0.012
			c-0.016-0.004-0.045-0.008-0.078-0.012c-0.461-0.076-0.755-0.156-0.883-0.244c-0.063-0.043-0.112-0.094-0.146-0.152
			c-0.029-0.057-0.05-0.123-0.05-0.195c0-0.18,0.107-0.314,0.318-0.41c0.208-0.092,0.519-0.139,0.921-0.139s0.697,0.043,0.892,0.131
			c0.19,0.088,0.286,0.223,0.286,0.402v0.023h-0.759v-0.008c0-0.064-0.037-0.111-0.112-0.145c-0.078-0.033-0.187-0.049-0.336-0.049
			c-0.116,0-0.203,0.012-0.27,0.037c-0.058,0.021-0.091,0.055-0.091,0.098c0,0.074,0.166,0.139,0.497,0.193
			c0.063,0.01,0.112,0.016,0.146,0.021c0.236,0.041,0.406,0.072,0.506,0.102s0.187,0.063,0.257,0.102
			c0.083,0.043,0.146,0.098,0.187,0.166c0.046,0.07,0.067,0.141,0.067,0.223c0,0.186-0.116,0.324-0.345,0.424
			c-0.228,0.102-0.556,0.15-0.987,0.15c-0.423,0-0.733-0.047-0.924-0.145c-0.19-0.094-0.286-0.246-0.286-0.459v-0.027H182.793z
			 M184.87,257.716v-1.814h2.16v0.393h-1.348v0.287h1.247v0.387h-1.247v0.352h1.396v0.396H184.87z M187.419,257.716v-1.814h1.028
			l1.099,1.217v-1.217h0.775v1.814h-1.062l-1.061-1.221v1.221H187.419z M192.419,256.992l-0.386-0.656l-0.41,0.656H192.419z
			 M191.184,257.716h-0.813l1.256-1.814h0.899l1.198,1.814h-0.903l-0.182-0.328h-1.257L191.184,257.716z"/>
		<path fill-rule="evenodd" clip-rule="evenodd" d="M218.548,267.214l34.068-5.721l1.65,8.141l-38.657,4.51
			c0,0,0.655-1.326,1.521-3.471C217.532,269.675,218.205,268.681,218.548,267.214"/>
		<path fill="#808285" d="M254.403,239.804c-0.514-0.859-8.544,1.637-7.748,3.834c0.792,2.193,6.359,15.51,7.748,27.035
			c1.394,11.521,0,13.311,3.578,12.518c3.577-0.797,6.728-1.789,6.728-1.789s-0.277-8.209-2.354-18.541
			C260.828,255.261,258.279,246.259,254.403,239.804"/>
		<path fill="#FFFFFF" d="M249.586,245.437c0,0,4.991,12.002,6.069,20.076c1.074,8.074,1.787,16.221,1.787,16.221
			s-0.286,0.572,1.215,0c1.5-0.57,5.978-1.713,5.978-1.713s-1.261-13.244-2.662-18.982c-1.574-8.547-5.269-17.055-6.317-18.975
			c-1.053-1.922-6.5,2.303-6.5,2.303S249.093,245.007,249.586,245.437"/>
		<path fill="#414042" d="M251.668,246.46l0.626,1.756c0,0,3.759-1.73,4.602-1.598l-0.858-1.912L251.668,246.46z"/>
		<path fill="#414042" d="M253.151,250.478l0.506,1.676c0,0,2.106-0.662,2.807-0.838l-0.809-1.656L253.151,250.478z"/>
		<path fill="#414042" d="M254.806,255l0.846,2.576c0,0,5.141-1.02,5.065-1.406c-0.041-0.195-0.899-2.727-0.899-2.727L254.806,255z"
			/>
		<polygon fill="#414042" points="258.064,270.132 258.416,272.548 263.743,271.992 263.437,269.634 		"/>
		<path fill="#414042" d="M259.075,276.603l0.274,2.42l5.186-0.82l-0.34-2.375C264.195,275.828,259.075,276.798,259.075,276.603"/>
		<path fill="#373B5B" d="M244.711,251.384c0,0,3.449-1.301,5,0.506l-0.788-2.23C248.923,249.66,245.972,248.617,244.711,251.384"/>
		<path fill="#373B5B" d="M222.379,273.355c0,0-1.837,4.406-0.614,5.668c0,0,2.334-5.869,3.558-6.012L222.379,273.355z"/>
		<path fill="#373B5B" d="M233.41,264.72c0,0,3.45-4.279,1.123-5.545c0,0,3.184,2.697,3.209,4.814L233.41,264.72z"/>
	</g>
</g>
</svg>
