<?xml version="1.0" encoding="utf-8"?>
<!-- Generator: Adobe Illustrator 16.0.0, SVG Export Plug-In . SVG Version: 6.00 Build 0)  -->
<!DOCTYPE svg PUBLIC "-//W3C//DTD SVG 1.1//EN" "http://www.w3.org/Graphics/SVG/1.1/DTD/svg11.dtd">
<svg version="1.1" id="Capa_1" xmlns="http://www.w3.org/2000/svg" xmlns:xlink="http://www.w3.org/1999/xlink" x="0px" y="0px"
	 width="202.644px" height="64.667px" viewBox="0 0 202.644 64.667" enable-background="new 0 0 202.644 64.667"
	 xml:space="preserve">
<g>
	<path fill="#FFCC73" stroke="#E8A646" stroke-width="3" stroke-miterlimit="10" d="M201.144,52.048
		c0,6.142-5.175,11.119-11.557,11.119H13.057C6.675,63.167,1.5,58.189,1.5,52.048V12.619C1.5,6.479,6.675,1.5,13.057,1.5h176.53
		c6.382,0,11.557,4.979,11.557,11.119V52.048z"/>
	<path fill="#F6931A" d="M73.746,1.5H13.057C6.675,1.5,1.5,6.479,1.5,12.619v39.429c0,6.142,5.175,11.119,11.557,11.119h60.689V1.5z
		"/>
	<g opacity="0.9">
		<path fill="#002447" d="M84.802,15.562h6.583v1.818h-4.501v3.35h4.196v1.818h-4.196v5.149h-2.082V15.562z"/>
		<path fill="#002447" d="M100.688,23.232c0,3.223-2.133,4.663-4.23,4.663c-2.336,0-4.13-1.711-4.13-4.52
			c0-2.881,1.777-4.646,4.265-4.646C99.047,18.73,100.688,20.567,100.688,23.232z M94.478,23.322c0,1.692,0.778,2.971,2.048,2.971
			c1.185,0,2.014-1.242,2.014-3.007c0-1.368-0.575-2.935-1.997-2.935C95.07,20.352,94.478,21.863,94.478,23.322z"/>
		<path fill="#002447" d="M102.394,21.756c0-1.188-0.018-2.035-0.068-2.827h1.811l0.068,1.675h0.067
			c0.406-1.243,1.371-1.873,2.251-1.873c0.203,0,0.321,0.019,0.49,0.054v2.089c-0.169-0.036-0.355-0.072-0.609-0.072
			c-0.998,0-1.675,0.685-1.861,1.675c-0.033,0.198-0.067,0.433-0.067,0.685v4.537h-2.081V21.756z"/>
		<path fill="#002447" d="M116.099,23.232c0,3.223-2.133,4.663-4.23,4.663c-2.336,0-4.13-1.711-4.13-4.52
			c0-2.881,1.777-4.646,4.265-4.646C114.457,18.73,116.099,20.567,116.099,23.232z M109.888,23.322c0,1.692,0.778,2.971,2.048,2.971
			c1.185,0,2.014-1.242,2.014-3.007c0-1.368-0.575-2.935-1.997-2.935C110.48,20.352,109.888,21.863,109.888,23.322z"/>
		<path fill="#002447" d="M128.902,14.913V25.23c0,0.9,0.034,1.873,0.067,2.467h-1.861l-0.084-1.387h-0.034
			c-0.491,0.973-1.489,1.585-2.69,1.585c-1.963,0-3.521-1.782-3.521-4.483c-0.017-2.935,1.71-4.682,3.689-4.682
			c1.134,0,1.946,0.504,2.318,1.152h0.034v-4.97H128.902z M126.821,22.584c0-0.181-0.018-0.396-0.051-0.576
			c-0.187-0.864-0.847-1.566-1.794-1.566c-1.337,0-2.082,1.26-2.082,2.898c0,1.603,0.745,2.773,2.065,2.773
			c0.846,0,1.59-0.612,1.793-1.567c0.051-0.197,0.068-0.414,0.068-0.647V22.584z"/>
		<path fill="#002447" d="M132.604,23.935c0.051,1.584,1.219,2.269,2.538,2.269c0.965,0,1.659-0.145,2.285-0.396l0.305,1.53
			c-0.711,0.307-1.692,0.54-2.877,0.54c-2.674,0-4.248-1.746-4.248-4.429c0-2.431,1.388-4.718,4.028-4.718
			c2.673,0,3.553,2.341,3.553,4.268c0,0.414-0.033,0.738-0.067,0.937H132.604z M136.226,22.386c0.018-0.811-0.321-2.143-1.709-2.143
			c-1.286,0-1.827,1.242-1.912,2.143H136.226z"/>
		<path fill="#002447" d="M150.96,14.913V25.23c0,0.9,0.034,1.873,0.067,2.467h-1.861l-0.084-1.387h-0.034
			c-0.491,0.973-1.489,1.585-2.69,1.585c-1.963,0-3.521-1.782-3.521-4.483c-0.017-2.935,1.71-4.682,3.689-4.682
			c1.134,0,1.946,0.504,2.318,1.152h0.034v-4.97H150.96z M148.879,22.584c0-0.181-0.018-0.396-0.051-0.576
			c-0.187-0.864-0.847-1.566-1.794-1.566c-1.337,0-2.081,1.26-2.081,2.898c0,1.603,0.744,2.773,2.064,2.773
			c0.846,0,1.59-0.612,1.793-1.567c0.051-0.197,0.068-0.414,0.068-0.647V22.584z"/>
		<path fill="#002447" d="M160.567,25.068c0,1.045,0.033,1.908,0.067,2.629h-1.827l-0.102-1.332h-0.034
			c-0.355,0.63-1.168,1.53-2.64,1.53c-1.506,0-2.877-0.954-2.877-3.817v-5.149h2.081V23.7c0,1.458,0.44,2.395,1.54,2.395
			c0.829,0,1.371-0.63,1.591-1.188c0.067-0.198,0.118-0.432,0.118-0.684v-5.294h2.082V25.068z"/>
		<path fill="#002447" d="M170.412,14.913V25.23c0,0.9,0.034,1.873,0.067,2.467h-1.861l-0.084-1.387H168.5
			c-0.491,0.973-1.489,1.585-2.69,1.585c-1.963,0-3.521-1.782-3.521-4.483c-0.017-2.935,1.71-4.682,3.689-4.682
			c1.134,0,1.946,0.504,2.318,1.152h0.034v-4.97H170.412z M168.331,22.584c0-0.181-0.018-0.396-0.051-0.576
			c-0.187-0.864-0.847-1.566-1.794-1.566c-1.337,0-2.082,1.26-2.082,2.898c0,1.603,0.745,2.773,2.065,2.773
			c0.846,0,1.59-0.612,1.793-1.567c0.051-0.197,0.068-0.414,0.068-0.647V22.584z"/>
		<path fill="#002447" d="M177.278,27.697l-0.136-0.973h-0.051c-0.508,0.685-1.371,1.171-2.437,1.171
			c-1.658,0-2.589-1.278-2.589-2.611c0-2.214,1.844-3.331,4.89-3.313v-0.145c0-0.576-0.22-1.53-1.675-1.53
			c-0.813,0-1.658,0.271-2.217,0.648l-0.406-1.44c0.609-0.396,1.675-0.774,2.979-0.774c2.64,0,3.401,1.782,3.401,3.691v3.169
			c0,0.792,0.033,1.566,0.118,2.106H177.278z M177.007,23.412c-1.472-0.036-2.876,0.306-2.876,1.639c0,0.864,0.524,1.26,1.184,1.26
			c0.83,0,1.438-0.576,1.625-1.206c0.051-0.162,0.067-0.342,0.067-0.486V23.412z"/>
		<path fill="#002447" d="M181.133,25.663c0.474,0.306,1.37,0.63,2.115,0.63c0.913,0,1.319-0.396,1.319-0.973
			c0-0.594-0.338-0.9-1.354-1.278c-1.607-0.594-2.284-1.53-2.268-2.557c0-1.549,1.201-2.755,3.113-2.755
			c0.914,0,1.71,0.252,2.184,0.522l-0.406,1.566c-0.355-0.216-1.016-0.504-1.743-0.504c-0.744,0-1.15,0.378-1.15,0.918
			c0,0.558,0.389,0.828,1.438,1.225c1.489,0.576,2.183,1.386,2.199,2.683c0,1.584-1.167,2.736-3.351,2.736
			c-0.998,0-1.895-0.252-2.504-0.611L181.133,25.663z"/>
		<path fill="#002447" d="M86.189,42.904c0.051,1.584,1.219,2.269,2.538,2.269c0.965,0,1.659-0.145,2.285-0.396l0.305,1.53
			c-0.711,0.307-1.692,0.54-2.877,0.54c-2.674,0-4.248-1.746-4.248-4.429c0-2.431,1.388-4.718,4.028-4.718
			c2.673,0,3.553,2.341,3.553,4.268c0,0.414-0.033,0.738-0.067,0.937H86.189z M89.811,41.355c0.018-0.811-0.321-2.143-1.709-2.143
			c-1.286,0-1.827,1.242-1.912,2.143H89.811z"/>
		<path fill="#002447" d="M99.164,35.449c0,0.667-0.457,1.188-1.185,1.188c-0.694,0-1.151-0.521-1.151-1.188
			c0-0.684,0.475-1.206,1.168-1.206C98.707,34.243,99.146,34.766,99.164,35.449z M96.947,46.667v-8.769h2.098v8.769H96.947z"/>
		<path fill="#002447" d="M101.277,40.509c0-1.008-0.018-1.854-0.068-2.61h1.828l0.102,1.314h0.051
			c0.355-0.685,1.252-1.513,2.623-1.513c1.438,0,2.927,0.99,2.927,3.764v5.203h-2.081v-4.951c0-1.261-0.44-2.215-1.574-2.215
			c-0.829,0-1.404,0.63-1.624,1.296c-0.067,0.198-0.085,0.469-0.085,0.721v5.149h-2.098V40.509z"/>
		<path fill="#002447" d="M116.47,45.461h-0.034c-0.491,0.846-1.354,1.404-2.556,1.404c-1.844,0-3.452-1.711-3.452-4.447
			c0-3.205,1.93-4.718,3.689-4.718c1.15,0,1.963,0.522,2.403,1.351l0.033,0.018l0.051-1.17h2.014
			c-0.033,0.792-0.067,1.62-0.067,2.539v9.795h-2.081V45.461z M116.47,41.518c0-0.18-0.018-0.378-0.051-0.54
			c-0.187-0.828-0.847-1.53-1.777-1.53c-1.337,0-2.099,1.206-2.099,2.862c0,1.603,0.729,2.809,2.048,2.809
			c0.847,0,1.54-0.576,1.777-1.458c0.067-0.216,0.102-0.468,0.102-0.685V41.518z"/>
		<path fill="#002447" d="M128.158,44.038c0,1.044,0.033,1.909,0.067,2.629h-1.827l-0.102-1.332h-0.034
			c-0.355,0.63-1.168,1.53-2.64,1.53c-1.506,0-2.877-0.954-2.877-3.817v-5.149h2.081v4.771c0,1.458,0.44,2.395,1.54,2.395
			c0.829,0,1.371-0.63,1.591-1.188c0.067-0.198,0.118-0.432,0.118-0.684v-5.294h2.082V44.038z"/>
		<path fill="#002447" d="M132.622,35.449c0,0.667-0.457,1.188-1.185,1.188c-0.694,0-1.151-0.521-1.151-1.188
			c0-0.684,0.475-1.206,1.168-1.206C132.165,34.243,132.604,34.766,132.622,35.449z M130.405,46.667v-8.769h2.098v8.769H130.405z"/>
		<path fill="#002447" d="M136.207,42.904c0.051,1.584,1.219,2.269,2.538,2.269c0.965,0,1.659-0.145,2.285-0.396l0.305,1.53
			c-0.711,0.307-1.692,0.54-2.877,0.54c-2.674,0-4.248-1.746-4.248-4.429c0-2.431,1.388-4.718,4.028-4.718
			c2.673,0,3.553,2.341,3.553,4.268c0,0.414-0.033,0.738-0.067,0.937H136.207z M139.828,41.355c0.018-0.811-0.321-2.143-1.709-2.143
			c-1.286,0-1.827,1.242-1.912,2.143H139.828z"/>
		<path fill="#002447" d="M145.849,35.396v2.503h1.979v1.656h-1.979v3.871c0,1.063,0.271,1.621,1.066,1.621
			c0.354,0,0.626-0.055,0.812-0.108l0.034,1.692c-0.305,0.126-0.846,0.216-1.506,0.216c-0.762,0-1.404-0.27-1.794-0.72
			c-0.44-0.504-0.643-1.297-0.643-2.449v-4.123h-1.185v-1.656h1.185v-1.98L145.849,35.396z"/>
		<path fill="#002447" d="M156.778,44.038c0,1.044,0.033,1.909,0.067,2.629h-1.827l-0.102-1.332h-0.034
			c-0.355,0.63-1.168,1.53-2.64,1.53c-1.506,0-2.877-0.954-2.877-3.817v-5.149h2.081v4.771c0,1.458,0.44,2.395,1.54,2.395
			c0.829,0,1.371-0.63,1.591-1.188c0.067-0.198,0.118-0.432,0.118-0.684v-5.294h2.082V44.038z"/>
		<path fill="#002447" d="M166.623,33.883V44.2c0,0.9,0.034,1.873,0.067,2.467h-1.861l-0.084-1.387h-0.034
			c-0.491,0.973-1.489,1.585-2.69,1.585c-1.963,0-3.521-1.783-3.521-4.483c-0.017-2.935,1.71-4.682,3.689-4.682
			c1.134,0,1.946,0.504,2.318,1.152h0.034v-4.97H166.623z M164.542,41.554c0-0.181-0.018-0.396-0.051-0.576
			c-0.187-0.864-0.847-1.566-1.794-1.566c-1.337,0-2.082,1.26-2.082,2.898c0,1.603,0.745,2.772,2.065,2.772
			c0.846,0,1.59-0.611,1.793-1.566c0.051-0.197,0.068-0.414,0.068-0.647V41.554z"/>
		<path fill="#002447" d="M170.324,42.904c0.051,1.584,1.219,2.269,2.538,2.269c0.965,0,1.659-0.145,2.285-0.396l0.305,1.53
			c-0.711,0.307-1.692,0.54-2.877,0.54c-2.674,0-4.248-1.746-4.248-4.429c0-2.431,1.388-4.718,4.028-4.718
			c2.673,0,3.553,2.341,3.553,4.268c0,0.414-0.033,0.738-0.067,0.937H170.324z M173.945,41.355c0.018-0.811-0.321-2.143-1.709-2.143
			c-1.286,0-1.827,1.242-1.912,2.143H173.945z"/>
		<path fill="#002447" d="M177.479,44.633c0.474,0.306,1.37,0.63,2.115,0.63c0.913,0,1.319-0.396,1.319-0.973
			c0-0.594-0.338-0.9-1.354-1.278c-1.607-0.594-2.284-1.53-2.268-2.557c0-1.549,1.201-2.755,3.113-2.755
			c0.914,0,1.71,0.252,2.184,0.522l-0.406,1.566c-0.355-0.216-1.016-0.504-1.743-0.504c-0.744,0-1.15,0.378-1.15,0.918
			c0,0.559,0.389,0.828,1.438,1.225c1.489,0.576,2.183,1.386,2.199,2.683c0,1.584-1.167,2.736-3.351,2.736
			c-0.998,0-1.895-0.252-2.504-0.612L177.479,44.633z"/>
	</g>
	<g opacity="0.7">
		<path fill="#EAEAEA" d="M30.375,45.422c-0.614-1.203-3.365-1.919-6.088-1.936c-2.721,0.023-5.506,0.74-6.158,1.937
			c-0.646,1.175,2.089,2.803,6.091,2.817C28.222,48.231,30.984,46.603,30.375,45.422z M24.279,47.172
			c-2.913-0.005-4.979-1.062-4.603-1.89c0.377-0.842,2.468-1.337,4.648-1.351c2.183,0.009,4.25,0.504,4.602,1.348
			C29.276,46.112,27.193,47.169,24.279,47.172z"/>
		<polygon fill="#EAEAEA" points="27.906,47.162 30.324,48.074 28.818,49.278 26.971,47.707 		"/>
		<path fill="#EAEAEA" d="M57.118,45.423c-0.653-1.196-3.438-1.913-6.159-1.937c-2.723,0.017-5.474,0.732-6.088,1.936
			c-0.608,1.181,2.154,2.81,6.156,2.818C55.028,48.226,57.763,46.598,57.118,45.423z M50.967,47.172
			c-2.914-0.003-4.996-1.06-4.646-1.893c0.352-0.844,2.418-1.339,4.602-1.348c2.18,0.014,4.271,0.509,4.648,1.351
			C55.945,46.11,53.881,47.167,50.967,47.172z"/>
		<polygon fill="#EAEAEA" points="47.34,47.162 44.922,48.074 46.429,49.278 48.275,47.707 		"/>
		<path fill="#EAEAEA" d="M49.556,50.856c-1.197-2.506-6.553-3.998-11.853-4.033c-5.3,0.048-10.724,1.544-11.993,4.036
			c-1.259,2.448,4.067,5.841,11.86,5.871C45.361,56.713,50.743,53.318,49.556,50.856z M37.686,54.505
			c-5.674-0.011-9.693-2.212-8.963-3.939c0.734-1.752,4.807-2.787,9.055-2.813c4.246,0.019,8.273,1.05,8.958,2.809
			C47.414,52.297,43.36,54.499,37.686,54.505z"/>
		<g>
			<g>
				<g>
					<path fill="#002447" d="M33.625,38.913l0.404,12.912h3.404c0.131-4.38-0.004-12.912-0.004-12.912S35.029,38.869,33.625,38.913z
						"/>
				</g>
				<g>
					<path fill="#002447" d="M37.757,38.913l0.406,12.912h3.403c0.131-4.38-0.003-12.912-0.003-12.912S39.161,38.869,37.757,38.913z
						"/>
				</g>
			</g>
		</g>
		<ellipse fill="#002447" cx="37.624" cy="22.837" rx="2.5" ry="3.089"/>
		<g>
			<g>
				<polygon fill="#002447" points="37.625,34.6 37.618,34.579 37.623,34.604 				"/>
				<path fill="#002447" d="M42.68,28.116c-0.07-0.812-0.66-1.254-1.486-1.379c-0.022-0.004-1.063-0.139-1.471-0.17l-0.009,0.035
					l1.071,0.906l-1.279,0.643l0.592,1.016l-2.471,5.456l0.005,0.026l-0.009-0.019l-0.009,0.019l0.005-0.026l-2.472-5.456
					l0.593-1.016l-1.279-0.643l1.07-0.906l-0.009-0.035c-0.407,0.032-1.333,0.141-1.385,0.17c-0.001,0-0.002,0-0.002,0
					c-0.785,0.113-1.419,0.566-1.487,1.379l-0.921,11.651c0.531,0.045,1.063,0.079,1.596,0.106c0.001,0.004,0.001,0.007,0.002,0.011
					c0.052,0,0.104,0,0.155,0c0.585,0.029,1.17,0.048,1.755,0.058l0.002-0.058c1.619,0,3.236,0,4.854,0l0.001,0.058
					c0.586-0.01,1.171-0.028,1.755-0.058c0.025,0,0.051,0,0.074,0c0-0.001,0.001-0.003,0.001-0.005
					c0.561-0.029,1.119-0.065,1.679-0.112L42.68,28.116z"/>
			</g>
		</g>
		<g>
			<g>
				<polygon fill="#002447" points="38.131,26.493 38.44,27.614 37.625,28.308 36.808,27.614 37.118,26.493 				"/>
				<polygon fill="#002447" points="38.203,27.757 38.563,34.592 37.625,35.284 36.686,34.592 37.045,27.757 				"/>
			</g>
		</g>
		<g>
			<g>
				<g>
					<path fill="#002447" d="M24.35,37.578l0.258,8.202h2.162c0.084-2.782-0.001-8.202-0.001-8.202S25.242,37.55,24.35,37.578z"/>
				</g>
				<g>
					<path fill="#002447" d="M21.723,37.578l0.259,8.202h2.162c0.083-2.782-0.002-8.202-0.002-8.202S22.615,37.55,21.723,37.578z"/>
				</g>
			</g>
		</g>
		<ellipse fill="#002447" cx="24.264" cy="27.368" rx="1.588" ry="1.962"/>
		<g>
			<g>
				<polygon fill="#002447" points="24.266,34.833 24.264,34.838 24.264,34.839 				"/>
				<path fill="#002447" d="M29.81,33.05l-0.003-0.003l-0.01-0.011l-2.66-2.872c-0.2-0.213-0.461-0.324-0.715-0.337
					c-0.017-0.004-0.566-0.069-0.824-0.09l-0.005,0.021l0.68,0.575l-0.813,0.41l0.377,0.645l-1.568,3.464l0.003,0.018l-0.007-0.013
					l-0.005,0.013l0.003-0.018l-1.569-3.464l0.376-0.645l-0.813-0.41l0.68-0.574l-0.005-0.023c-0.258,0.021-0.798,0.083-0.809,0.086
					c-0.355,0.028-0.696,0.283-0.846,0.681l-1.378,3.721c0.342,2.711,0.98,2.852,1.456,4.402c0.334-0.138,0.666-0.281,0.994-0.43
					c1.55,0,3.098,0,4.646,0c0.001-0.016,0.007-0.031,0.007-0.048c-0.005-0.371-0.017-0.741-0.023-1.112
					c0.396,0.219,0.794,0.431,1.197,0.633l0.887-1.745l0.442-0.874l0.221-0.437l0.111-0.218l0.055-0.109l0.027-0.054l0.014-0.027
					l0.004-0.007l0.001-0.001C29.879,33.686,30.065,35.338,29.81,33.05z M27.685,34.063l-0.49,0.848l-0.253,0.437
					c-0.021-0.9-0.051-1.801-0.084-2.701l0.97,1.171L27.685,34.063z"/>
			</g>
		</g>
		<g>
			<g>
				<polygon fill="#002447" points="23.944,29.593 23.743,30.316 24.264,30.766 24.781,30.316 24.583,29.593 				"/>
				<polygon fill="#002447" points="23.896,30.41 23.669,34.827 24.264,35.273 24.86,34.827 24.632,30.41 				"/>
			</g>
		</g>
		<g>
			<g>
				<g>
					<path fill="#002447" d="M50.936,37.78l0.258,8.201h2.162c0.083-2.781-0.002-8.201-0.002-8.201S51.828,37.752,50.936,37.78z"/>
				</g>
				<g>
					<path fill="#002447" d="M48.31,37.78l0.259,8.201h2.162c0.082-2.781-0.002-8.201-0.002-8.201S49.202,37.752,48.31,37.78z"/>
				</g>
			</g>
		</g>
		<ellipse fill="#002447" cx="50.85" cy="27.569" rx="1.588" ry="1.961"/>
		<g>
			<g>
				<polygon fill="#002447" points="50.851,35.036 50.851,35.041 50.851,35.041 				"/>
				<path fill="#002447" d="M54.652,34.68l-0.736-3.801c-0.088-0.438-0.384-0.673-0.803-0.802c-0.047-0.036-0.67-0.117-0.929-0.137
					l-0.007,0.021l0.681,0.575l-0.813,0.408l0.377,0.645l-1.569,3.465l0.004,0.019l-0.006-0.013l-0.005,0.013l0.002-0.019
					l-1.568-3.465l0.375-0.645l-0.813-0.408l0.68-0.575l-0.006-0.022c-0.26,0.02-0.799,0.081-0.809,0.084
					c-0.412,0.077-0.695,0.285-0.846,0.682l-1.379,3.721c0.342,2.712,0.981,2.852,1.457,4.403c0.334-0.139,0.666-0.282,0.995-0.431
					c1.172,0,2.345,0,3.517,0c-0.007,0.083-0.014,0.169-0.018,0.25c0.74,0.063,1.483,0.103,2.228,0.114
					C54.648,37.378,54.82,36.393,54.652,34.68z"/>
			</g>
		</g>
		<g>
			<g>
				<polygon fill="#002447" points="50.529,29.924 50.33,30.631 50.851,31.07 51.368,30.631 51.171,29.924 				"/>
				<polygon fill="#002447" points="50.483,30.723 50.254,35.039 50.851,35.476 51.446,35.039 51.217,30.723 				"/>
			</g>
		</g>
		<g>
			<path fill="#002447" d="M23.093,19.115l-0.032-0.446c-0.08-0.891,0.21-1.834,0.967-2.813c0.612-0.771,1.017-1.372,1.017-2.041
				c0-0.721-0.42-1.2-1.322-1.217c-0.564,0-1.209,0.188-1.612,0.514l-0.483-1.51c0.581-0.395,1.516-0.703,2.531-0.703
				c1.998,0,2.917,1.235,2.917,2.607c0,1.234-0.709,2.093-1.402,2.934c-0.628,0.789-0.887,1.492-0.854,2.315l0.017,0.359H23.093z
				 M22.69,21.5c0-0.789,0.515-1.338,1.225-1.338c0.725,0,1.209,0.549,1.226,1.338c0,0.754-0.484,1.338-1.226,1.338
				C23.189,22.838,22.69,22.254,22.69,21.5z"/>
		</g>
		<g>
			<path fill="#002447" d="M37.306,14.004l-0.032-0.446c-0.08-0.892,0.21-1.835,0.967-2.813c0.612-0.772,1.016-1.372,1.016-2.041
				c0-0.721-0.419-1.201-1.321-1.218c-0.565,0-1.21,0.188-1.612,0.515l-0.484-1.51c0.581-0.395,1.516-0.703,2.531-0.703
				c1.999,0,2.918,1.235,2.918,2.607c0,1.234-0.709,2.092-1.403,2.933c-0.628,0.789-0.886,1.492-0.854,2.315l0.016,0.36H37.306z
				 M36.902,16.388c0-0.788,0.516-1.337,1.226-1.337c0.725,0,1.208,0.549,1.225,1.337c0,0.755-0.483,1.338-1.225,1.338
				C37.402,17.726,36.902,17.143,36.902,16.388z"/>
		</g>
		<g>
			<path fill="#002447" d="M50.188,19.973l-0.032-0.447c-0.08-0.891,0.21-1.834,0.967-2.812c0.612-0.772,1.016-1.372,1.016-2.041
				c0-0.721-0.419-1.201-1.321-1.218c-0.564,0-1.209,0.188-1.612,0.515l-0.483-1.51c0.58-0.395,1.515-0.704,2.531-0.704
				c1.998,0,2.917,1.235,2.917,2.608c0,1.234-0.709,2.092-1.402,2.933c-0.629,0.789-0.887,1.492-0.854,2.315l0.016,0.36H50.188z
				 M49.785,22.356c0-0.789,0.516-1.338,1.226-1.338c0.725,0,1.208,0.549,1.226,1.338c0,0.755-0.484,1.338-1.226,1.338
				C50.285,23.694,49.785,23.111,49.785,22.356z"/>
		</g>
	</g>
</g>
</svg>
