<?xml version="1.0" encoding="utf-8"?>
<!-- Generator: Adobe Illustrator 16.0.0, SVG Export Plug-In . SVG Version: 6.00 Build 0)  -->
<!DOCTYPE svg PUBLIC "-//W3C//DTD SVG 1.1//EN" "http://www.w3.org/Graphics/SVG/1.1/DTD/svg11.dtd">
<svg version="1.1" id="Capa_1" xmlns="http://www.w3.org/2000/svg" xmlns:xlink="http://www.w3.org/1999/xlink" x="0px" y="0px"
	 width="202.644px" height="64.667px" viewBox="0 0 202.644 64.667" enable-background="new 0 0 202.644 64.667"
	 xml:space="preserve">
<g>
	<path fill="#FFCC73" stroke="#E8A646" stroke-width="3" stroke-miterlimit="10" d="M201.144,52.048
		c0,6.142-5.175,11.119-11.557,11.119H13.057C6.675,63.167,1.5,58.189,1.5,52.048V12.619C1.5,6.479,6.675,1.5,13.057,1.5h176.53
		c6.382,0,11.557,4.979,11.557,11.119V52.048z"/>
	<path fill="#F6931A" d="M73.746,1.5H13.057C6.675,1.5,1.5,6.479,1.5,12.619v39.429c0,6.142,5.175,11.119,11.557,11.119h60.689V1.5z
		"/>
	<g opacity="0.9">
		<path fill="#002447" d="M87.408,28.334l-3.689-12.136h2.268l1.557,5.51c0.44,1.53,0.813,2.953,1.117,4.43h0.034
			c0.305-1.44,0.711-2.917,1.167-4.394l1.659-5.546h2.217l-3.943,12.136H87.408z"/>
		<path fill="#002447" d="M96.729,17.116c0,0.667-0.457,1.188-1.185,1.188c-0.694,0-1.151-0.521-1.151-1.188
			c0-0.684,0.475-1.206,1.168-1.206C96.271,15.91,96.711,16.433,96.729,17.116z M94.512,28.334v-8.769h2.098v8.769H94.512z"/>
		<path fill="#002447" d="M106.439,15.55v10.317c0,0.9,0.034,1.873,0.067,2.467h-1.861l-0.084-1.387h-0.034
			c-0.491,0.973-1.489,1.585-2.69,1.585c-1.963,0-3.521-1.782-3.521-4.483c-0.017-2.935,1.71-4.682,3.689-4.682
			c1.134,0,1.946,0.504,2.318,1.152h0.034v-4.97H106.439z M104.358,23.221c0-0.181-0.018-0.396-0.051-0.576
			c-0.187-0.864-0.847-1.566-1.794-1.566c-1.337,0-2.082,1.26-2.082,2.898c0,1.603,0.745,2.773,2.065,2.773
			c0.846,0,1.59-0.612,1.793-1.567c0.051-0.197,0.068-0.414,0.068-0.647V23.221z"/>
		<path fill="#002447" d="M110.142,24.571c0.051,1.584,1.219,2.269,2.538,2.269c0.965,0,1.659-0.145,2.285-0.396l0.305,1.53
			c-0.711,0.307-1.692,0.54-2.877,0.54c-2.674,0-4.248-1.746-4.248-4.429c0-2.431,1.388-4.718,4.028-4.718
			c2.673,0,3.553,2.341,3.553,4.268c0,0.414-0.033,0.738-0.067,0.937H110.142z M113.763,23.022c0.018-0.811-0.321-2.143-1.709-2.143
			c-1.286,0-1.827,1.242-1.912,2.143H113.763z"/>
		<path fill="#002447" d="M125.232,23.869c0,3.223-2.133,4.663-4.23,4.663c-2.336,0-4.13-1.711-4.13-4.52
			c0-2.881,1.777-4.646,4.265-4.646C123.591,19.367,125.232,21.204,125.232,23.869z M119.021,23.959
			c0,1.692,0.778,2.971,2.048,2.971c1.185,0,2.014-1.242,2.014-3.007c0-1.368-0.575-2.935-1.997-2.935
			C119.614,20.988,119.021,22.5,119.021,23.959z"/>
		<path fill="#002447" d="M90.775,46.033c-0.439,0.217-1.303,0.45-2.335,0.45c-2.572,0-4.248-1.746-4.248-4.465
			c0-2.629,1.692-4.682,4.586-4.682c0.762,0,1.54,0.181,2.014,0.414l-0.372,1.656c-0.338-0.161-0.829-0.342-1.573-0.342
			c-1.591,0-2.538,1.242-2.521,2.845c0,1.801,1.1,2.827,2.521,2.827c0.728,0,1.235-0.162,1.642-0.342L90.775,46.033z"/>
		<path fill="#002447" d="M99.995,41.838c0,3.224-2.133,4.664-4.23,4.664c-2.336,0-4.13-1.711-4.13-4.52
			c0-2.881,1.777-4.646,4.265-4.646C98.354,37.337,99.995,39.174,99.995,41.838z M93.784,41.929c0,1.692,0.778,2.971,2.048,2.971
			c1.185,0,2.014-1.242,2.014-3.007c0-1.368-0.575-2.936-1.997-2.936C94.377,38.957,93.784,40.47,93.784,41.929z"/>
		<path fill="#002447" d="M101.7,40.146c0-1.008-0.018-1.854-0.068-2.61h1.828l0.102,1.314h0.051
			c0.355-0.685,1.252-1.513,2.623-1.513c1.438,0,2.927,0.99,2.927,3.764v5.203h-2.081v-4.951c0-1.261-0.44-2.215-1.574-2.215
			c-0.829,0-1.404,0.63-1.624,1.296c-0.067,0.198-0.085,0.469-0.085,0.721v5.149H101.7V40.146z"/>
		<path fill="#002447" d="M111.612,46.304v-7.112h-1.116v-1.656h1.116v-0.378c0-1.135,0.288-2.269,0.999-2.989
			c0.608-0.612,1.438-0.846,2.148-0.846c0.559,0,0.999,0.09,1.337,0.216l-0.152,1.71c-0.22-0.09-0.508-0.162-0.88-0.162
			c-1.032,0-1.388,0.919-1.388,1.999v0.45h1.811v1.656h-1.793v7.112H111.612z"/>
		<path fill="#002447" d="M118.058,42.541c0.051,1.584,1.219,2.269,2.538,2.269c0.965,0,1.659-0.145,2.285-0.396l0.305,1.53
			c-0.711,0.307-1.692,0.54-2.877,0.54c-2.674,0-4.248-1.746-4.248-4.429c0-2.431,1.388-4.718,4.028-4.718
			c2.673,0,3.553,2.341,3.553,4.268c0,0.414-0.033,0.738-0.067,0.937H118.058z M121.679,40.992c0.018-0.811-0.321-2.143-1.709-2.143
			c-1.286,0-1.827,1.242-1.912,2.143H121.679z"/>
		<path fill="#002447" d="M125.314,40.362c0-1.188-0.018-2.035-0.068-2.827h1.811l0.068,1.675h0.067
			c0.406-1.243,1.371-1.873,2.251-1.873c0.203,0,0.321,0.019,0.49,0.054v2.089c-0.169-0.036-0.355-0.072-0.609-0.072
			c-0.998,0-1.675,0.685-1.861,1.675c-0.033,0.198-0.067,0.433-0.067,0.685v4.537h-2.081V40.362z"/>
		<path fill="#002447" d="M132.655,42.541c0.051,1.584,1.219,2.269,2.538,2.269c0.965,0,1.659-0.145,2.285-0.396l0.305,1.53
			c-0.711,0.307-1.692,0.54-2.877,0.54c-2.674,0-4.248-1.746-4.248-4.429c0-2.431,1.388-4.718,4.028-4.718
			c2.673,0,3.553,2.341,3.553,4.268c0,0.414-0.033,0.738-0.067,0.937H132.655z M136.276,40.992c0.018-0.811-0.321-2.143-1.709-2.143
			c-1.286,0-1.827,1.242-1.912,2.143H136.276z"/>
		<path fill="#002447" d="M139.912,40.146c0-1.008-0.018-1.854-0.068-2.61h1.828l0.102,1.314h0.051
			c0.355-0.685,1.252-1.513,2.623-1.513c1.438,0,2.927,0.99,2.927,3.764v5.203h-2.081v-4.951c0-1.261-0.44-2.215-1.574-2.215
			c-0.829,0-1.404,0.63-1.624,1.296c-0.067,0.198-0.085,0.469-0.085,0.721v5.149h-2.098V40.146z"/>
		<path fill="#002447" d="M155.645,46.033c-0.439,0.217-1.303,0.45-2.335,0.45c-2.572,0-4.248-1.746-4.248-4.465
			c0-2.629,1.692-4.682,4.586-4.682c0.762,0,1.54,0.181,2.014,0.414l-0.372,1.656c-0.338-0.161-0.829-0.342-1.573-0.342
			c-1.591,0-2.538,1.242-2.521,2.845c0,1.801,1.1,2.827,2.521,2.827c0.728,0,1.235-0.162,1.642-0.342L155.645,46.033z"/>
		<path fill="#002447" d="M159.398,35.086c0,0.667-0.457,1.188-1.185,1.188c-0.694,0-1.151-0.521-1.151-1.188
			c0-0.684,0.475-1.206,1.168-1.206C158.941,33.88,159.381,34.402,159.398,35.086z M157.182,46.304v-8.769h2.098v8.769H157.182z"/>
		<path fill="#002447" d="M166.148,46.304l-0.136-0.973h-0.051c-0.508,0.685-1.371,1.171-2.437,1.171
			c-1.658,0-2.59-1.278-2.59-2.611c0-2.214,1.845-3.331,4.891-3.313v-0.145c0-0.576-0.22-1.53-1.675-1.53
			c-0.813,0-1.658,0.271-2.217,0.648l-0.406-1.44c0.609-0.396,1.675-0.774,2.979-0.774c2.64,0,3.401,1.782,3.401,3.691v3.169
			c0,0.792,0.033,1.566,0.118,2.106H166.148z M165.877,42.019c-1.472-0.036-2.876,0.306-2.876,1.639c0,0.864,0.524,1.26,1.185,1.26
			c0.829,0,1.438-0.576,1.624-1.206c0.051-0.162,0.067-0.342,0.067-0.486V42.019z"/>
	</g>
	<g opacity="0.7">
		<path fill-rule="evenodd" clip-rule="evenodd" fill="#002447" d="M17.26,50.112c1.329-1.61,2.591-3.139,3.854-4.668
			c2.366-2.868,4.732-5.738,7.102-8.605c0.22-0.267,0.505-0.495,0.669-0.792c0.377-0.683,0.945-0.761,1.656-0.758
			c5.679,0.024,11.356,0.009,17.035,0.023c0.211,0.001,0.49,0.129,0.625,0.291c1.758,2.102,3.494,4.22,5.239,6.332
			c2.159,2.61,4.322,5.219,6.482,7.829c0.077,0.093,0.147,0.192,0.267,0.348C45.864,50.112,31.612,50.112,17.26,50.112z"/>
		<path fill-rule="evenodd" clip-rule="evenodd" fill="#002447" d="M37.854,16.076c0.088-0.423,0.034-0.625-0.346-0.808
			c-1.188-0.574-1.641-1.892-1.116-3.035c0.53-1.155,1.829-1.661,3.024-1.144c0.861,0.374,1.305,1.087,1.355,2.003
			c0.054,0.975-0.41,1.719-1.271,2.146c-0.391,0.194-0.443,0.414-0.335,0.838c0.204,0,0.419,0,0.634,0c3.675,0,7.349-0.001,11.023,0
			c0.68,0,0.683,0.003,0.683,0.689c0.001,4.699,0.001,9.4,0.001,14.1c0,0.69-0.002,0.691-0.676,0.691
			c-8.074,0.001-16.148,0.001-24.222,0.001c-0.66,0-0.666-0.007-0.667-0.659c0-4.73,0-9.46-0.001-14.189
			c0-0.593,0.04-0.634,0.651-0.634c3.563-0.001,7.127,0,10.691,0C37.47,16.076,37.655,16.076,37.854,16.076z M27.579,29.838
			c7.316,0,14.564,0,21.842,0c0-4.225,0-8.41,0-12.638c-7.287,0-14.547,0-21.842,0C27.579,21.427,27.579,25.611,27.579,29.838z
			 M39.575,13.206c0.003-0.582-0.488-1.076-1.076-1.083c-0.595-0.008-1.099,0.47-1.109,1.047c-0.011,0.625,0.467,1.104,1.096,1.103
			C39.083,14.271,39.573,13.79,39.575,13.206z"/>
		<path fill-rule="evenodd" clip-rule="evenodd" fill="#002447" d="M68.108,50.137c-0.625,0-1.205-0.001-1.785,0
			c-1.324,0.003-2.65,0.018-3.975-0.003c-0.203-0.002-0.468-0.107-0.598-0.258c-1.319-1.526-2.608-3.079-3.925-4.609
			c-0.279-0.324-0.358-0.646-0.228-1.038c0.538-1.618,1.578-2.697,3.281-3.063c0.078-0.018,0.155-0.029,0.232-0.046
			c0.014-0.004,0.025-0.019,0.054-0.039c-0.765-1.288-0.685-2.653-0.383-4.055c0.073-0.335-0.118-0.764,0.267-0.975
			c0.46-0.251,0.945-0.492,1.45-0.614c0.481-0.118,0.999-0.105,1.502-0.099c0.582,0.008,0.943,0.329,1.354,0.771
			c0.651,0.701,0.554,1.467,0.544,2.246c-0.015,1.029-0.107,2.059-0.807,2.901c-0.177,0.213-0.401,0.386-0.613,0.585
			c2,0.995,2.832,2.793,3.274,4.829c0.183,0.843,0.249,1.711,0.351,2.571C68.136,49.518,68.108,49.802,68.108,50.137z"/>
		<path fill-rule="evenodd" clip-rule="evenodd" fill="#002447" d="M9.609,50.092c-0.203-2.479-0.005-4.866,1.667-6.869
			c0.463-0.556,1.082-0.981,1.648-1.482c-0.67-0.411-1.086-1.137-1.196-2.002c-0.104-0.825-0.176-1.663-0.149-2.492
			c0.031-0.999,0.911-1.852,1.913-1.914c0.967-0.061,1.931,0,2.766,0.576c0.18,0.123,0.379,0.342,0.406,0.538
			c0.104,0.759,0.163,1.525,0.197,2.291c0.037,0.829-0.053,1.64-0.585,2.314c0.475,0.159,0.938,0.264,1.351,0.466
			c1.222,0.598,1.948,1.619,2.295,2.907c0.056,0.2-0.024,0.514-0.16,0.677c-1.318,1.587-2.657,3.157-4.005,4.72
			c-0.128,0.149-0.348,0.311-0.525,0.312c-1.828,0.018-3.657,0.002-5.486-0.005C9.702,50.128,9.659,50.106,9.609,50.092z"/>
		<path fill-rule="evenodd" clip-rule="evenodd" fill="#002447" d="M23.552,40.618c-0.455-1.415-1.295-2.905-3.396-3.632
			c0.543-1.422,0.254-2.878,0.097-4.32c-0.032-0.302-0.29-0.615-0.52-0.849c-0.188-0.192-0.478-0.3-0.741-0.398
			c-0.821-0.314-0.825-0.306-0.827-1.185c0-0.236,0.002-0.474,0.015-0.709c0.063-1.181,0.902-2.053,2.084-2.021
			c0.758,0.02,1.529,0.163,2.262,0.369c0.621,0.176,0.712,0.491,0.74,1.142c0.03,0.652,0.189,1.3,0.209,1.951
			c0.029,1.061-0.072,1.351-0.562,2.28c0.067,0.03,0.13,0.075,0.199,0.087c1.748,0.279,2.754,1.387,3.335,2.975
			c0.151,0.414,0.118,0.752-0.203,1.115C25.338,38.445,24.479,39.51,23.552,40.618z"/>
		<path fill-rule="evenodd" clip-rule="evenodd" fill="#002447" d="M57.323,36.988c-1.751,0.595-2.849,1.797-3.382,3.62
			c-0.299-0.337-0.561-0.621-0.81-0.916c-0.66-0.781-1.303-1.578-1.979-2.346c-0.217-0.246-0.246-0.479-0.193-0.773
			c0.265-1.519,1.919-3.178,3.36-3.233c0.071-0.003,0.141-0.048,0.221-0.077c-0.692-1.303-0.63-2.647-0.357-4.01
			c0.01-0.046,0.033-0.09,0.036-0.136c0.058-0.934,0.252-1.219,1.146-1.409c0.61-0.131,1.244-0.201,1.868-0.211
			c0.627-0.009,1.057,0.281,1.523,0.801c0.724,0.805,0.527,1.649,0.566,2.516c0.014,0.307-0.132,0.418-0.436,0.482
			c-0.73,0.157-1.407,0.458-1.653,1.241c-0.123,0.395-0.115,0.831-0.164,1.249C56.942,34.872,56.925,35.949,57.323,36.988z"/>
		<path fill-rule="evenodd" clip-rule="evenodd" fill="#002447" d="M60.386,40.774c-1.737,0.561-2.733,1.811-3.33,3.51
			c-0.877-1.047-1.731-2.033-2.533-3.062c-0.133-0.171-0.104-0.552-0.023-0.794c0.534-1.617,1.592-2.685,3.307-3.02
			c0.072-0.015,0.143-0.047,0.223-0.073c-0.689-1.29-0.635-2.623-0.369-3.975c0.013-0.061,0.043-0.12,0.045-0.182
			c0.037-0.842,0.196-1.153,0.994-1.337c0.758-0.175,1.552-0.235,2.331-0.25c0.521-0.01,0.826,0.403,1.2,0.771
			c0.655,0.647,0.56,1.379,0.603,2.13c0.019,0.31-0.117,0.406-0.422,0.487c-0.54,0.142-1.083,0.332-1.563,0.611
			c-0.249,0.145-0.485,0.51-0.517,0.796c-0.107,1.013-0.151,2.034-0.162,3.054C60.166,39.873,60.305,40.306,60.386,40.774z"/>
		<path fill-rule="evenodd" clip-rule="evenodd" fill="#002447" d="M19.408,37.296c0.457,0.152,0.892,0.244,1.277,0.435
			c1.26,0.622,2.061,1.63,2.345,3.015c0.033,0.16-0.007,0.39-0.106,0.512c-0.811,1.002-1.643,1.986-2.507,3.021
			c-0.592-1.713-1.624-2.937-3.368-3.521c0.513-1.432,0.228-2.883,0.091-4.33c-0.049-0.515-0.38-0.872-0.837-1.063
			c-0.417-0.175-0.873-0.252-1.298-0.412c-0.133-0.051-0.299-0.218-0.313-0.346c-0.038-0.373-0.031-0.757,0.004-1.132
			c0.097-1.055,0.968-1.914,2.019-1.898c0.7,0.008,1.412,0.109,2.092,0.279c0.74,0.184,0.94,0.554,0.985,1.309
			c0.02,0.326,0.165,0.646,0.175,0.971C20,35.228,20.136,36.346,19.408,37.296z"/>
		<path fill-rule="evenodd" clip-rule="evenodd" fill="#FFFFFF" d="M27.579,29.838c0-4.227,0-8.411,0-12.638
			c7.295,0,14.555,0,21.842,0c0,4.228,0,8.413,0,12.638C42.144,29.838,34.896,29.838,27.579,29.838z M40.106,23.018
			c0.353-0.935,0.385-1.906,0.311-2.886c-0.015-0.184-0.051-0.391-0.15-0.537c-0.495-0.729-1.761-1.153-2.568-0.767
			c-0.418,0.199-0.904,0.584-1.033,0.989c-0.321,1.009-0.227,2.068,0.259,3.033c0.554,1.103,1.692,1.286,2.633,0.474
			c0.056-0.048,0.138-0.063,0.206-0.093c-0.231,0.256-0.481,0.498-0.686,0.775c-0.068,0.096-0.019,0.279-0.023,0.422
			c0.156-0.015,0.387,0.031,0.455-0.054c0.24-0.297,0.404-0.654,0.638-0.957c0.259-0.337,0.519-0.703,0.86-0.938
			c0.402-0.278,0.594-1.252,0.255-1.628c-0.132-0.146-0.241-0.354-0.266-0.545c-0.161-1.319-1.19-2.283-2.474-2.285
			c-1.295-0.002-2.313,0.933-2.473,2.268c-0.018,0.139-0.008,0.351-0.088,0.4c-0.544,0.333-0.345,0.81-0.295,1.27
			c0.048,0.455,0.325,0.555,0.757,0.522c-0.014-0.157-0.025-0.294-0.037-0.431c-0.046-0.533-0.134-1.066-0.128-1.6
			c0.01-0.926,0.668-1.792,1.518-2.082c0.854-0.293,1.827-0.054,2.378,0.585C41.035,19.976,41.012,22.008,40.106,23.018z
			 M36.849,24.55c-0.703,0.251-1.355,0.476-1.998,0.721c-0.131,0.05-0.305,0.168-0.329,0.28c-0.234,1.133-0.442,2.271-0.659,3.421
			c3.135,0,6.205,0,9.305,0c-0.199-1.081-0.379-2.118-0.59-3.149c-0.039-0.188-0.163-0.444-0.316-0.508
			c-0.674-0.284-1.373-0.51-2.081-0.762c-0.306,1.016-0.604,2.001-0.9,2.987c-0.157-0.896-0.701-1.736-0.248-2.714
			c-0.366,0-0.693,0-1.05,0c0.494,0.965-0.081,1.796-0.124,2.674c-0.042,0.003-0.084,0.006-0.125,0.009
			C37.441,26.534,37.15,25.561,36.849,24.55z"/>
		<path fill-rule="evenodd" clip-rule="evenodd" fill="#FFFFFF" d="M39.575,13.206c-0.002,0.584-0.492,1.064-1.09,1.066
			c-0.629,0.002-1.106-0.478-1.096-1.103c0.011-0.577,0.515-1.055,1.109-1.047C39.087,12.13,39.578,12.624,39.575,13.206z"/>
		<path fill-rule="evenodd" clip-rule="evenodd" fill="#002447" d="M36.849,24.55c0.302,1.011,0.593,1.984,0.884,2.959
			c0.041-0.003,0.083-0.006,0.125-0.009c0.043-0.878,0.618-1.709,0.124-2.674c0.356,0,0.684,0,1.05,0
			c-0.453,0.978,0.091,1.817,0.248,2.714c0.297-0.986,0.595-1.972,0.9-2.987c0.708,0.252,1.407,0.478,2.081,0.762
			c0.153,0.063,0.277,0.319,0.316,0.508c0.211,1.031,0.391,2.068,0.59,3.149c-3.1,0-6.17,0-9.305,0
			c0.217-1.149,0.425-2.288,0.659-3.421c0.024-0.112,0.198-0.23,0.329-0.28C35.493,25.025,36.146,24.801,36.849,24.55z"/>
		<path fill-rule="evenodd" clip-rule="evenodd" fill="#002447" d="M39.763,23.231c-0.068,0.03-0.15,0.045-0.206,0.093
			c-0.94,0.813-2.079,0.629-2.633-0.474c-0.485-0.965-0.58-2.024-0.259-3.033c0.129-0.405,0.615-0.79,1.033-0.989
			c0.808-0.387,2.073,0.038,2.568,0.767c0.1,0.146,0.136,0.354,0.15,0.537c0.074,0.979,0.042,1.951-0.311,2.886
			C39.992,23.089,39.878,23.161,39.763,23.231z"/>
		<path fill-rule="evenodd" clip-rule="evenodd" fill="#002447" d="M39.763,23.231c0.115-0.07,0.229-0.143,0.344-0.214
			c0.905-1.01,0.929-3.042,0.048-4.063c-0.551-0.639-1.524-0.878-2.378-0.585c-0.85,0.29-1.508,1.156-1.518,2.082
			c-0.006,0.533,0.082,1.066,0.128,1.6c0.012,0.137,0.023,0.273,0.037,0.431c-0.432,0.032-0.709-0.067-0.757-0.522
			c-0.05-0.46-0.249-0.937,0.295-1.27c0.08-0.05,0.07-0.262,0.088-0.4c0.16-1.335,1.178-2.27,2.473-2.268
			c1.283,0.002,2.313,0.966,2.474,2.285c0.024,0.191,0.134,0.399,0.266,0.545c0.339,0.376,0.147,1.35-0.255,1.628
			c-0.342,0.235-0.602,0.602-0.86,0.938c-0.233,0.303-0.397,0.66-0.638,0.957c-0.068,0.085-0.299,0.039-0.455,0.054
			c0.005-0.143-0.045-0.326,0.023-0.422C39.281,23.729,39.531,23.487,39.763,23.231z"/>
	</g>
</g>
</svg>
