<?xml version="1.0" encoding="utf-8"?>
<!-- Generator: Adobe Illustrator 16.0.0, SVG Export Plug-In . SVG Version: 6.00 Build 0)  -->
<!DOCTYPE svg PUBLIC "-//W3C//DTD SVG 1.1//EN" "http://www.w3.org/Graphics/SVG/1.1/DTD/svg11.dtd">
<svg version="1.1" id="Capa_1" xmlns="http://www.w3.org/2000/svg" xmlns:xlink="http://www.w3.org/1999/xlink" x="0px" y="0px"
	 width="202.644px" height="64.667px" viewBox="0 0 202.644 64.667" enable-background="new 0 0 202.644 64.667"
	 xml:space="preserve">
<g>
	<path fill="#FFCC73" stroke="#E8A646" stroke-width="3" stroke-miterlimit="10" d="M201.144,52.048
		c0,6.142-5.175,11.119-11.557,11.119H13.057C6.675,63.167,1.5,58.189,1.5,52.048V12.619C1.5,6.479,6.675,1.5,13.057,1.5h176.53
		c6.382,0,11.557,4.979,11.557,11.119V52.048z"/>
	<path fill="#F6931A" d="M73.746,1.5H13.057C6.675,1.5,1.5,6.479,1.5,12.619v39.429c0,6.142,5.175,11.119,11.557,11.119h60.689V1.5z
		"/>
	<g opacity="0.9">
		<path fill="#002447" d="M84.802,25.562h6.583v1.818h-4.501v3.35h4.196v1.818h-4.196v5.149h-2.082V25.562z"/>
		<path fill="#002447" d="M100.688,33.232c0,3.223-2.133,4.663-4.23,4.663c-2.336,0-4.13-1.711-4.13-4.52
			c0-2.881,1.777-4.646,4.265-4.646C99.047,28.73,100.688,30.567,100.688,33.232z M94.478,33.322c0,1.692,0.778,2.971,2.048,2.971
			c1.185,0,2.014-1.242,2.014-3.007c0-1.368-0.575-2.935-1.997-2.935C95.07,30.352,94.478,31.863,94.478,33.322z"/>
		<path fill="#002447" d="M102.394,31.756c0-1.188-0.018-2.035-0.068-2.827h1.811l0.068,1.675h0.067
			c0.406-1.243,1.371-1.873,2.251-1.873c0.203,0,0.321,0.019,0.49,0.054v2.089c-0.169-0.036-0.355-0.072-0.609-0.072
			c-0.998,0-1.675,0.685-1.861,1.675c-0.033,0.198-0.067,0.433-0.067,0.685v4.537h-2.081V31.756z"/>
		<path fill="#002447" d="M116.099,33.232c0,3.223-2.133,4.663-4.23,4.663c-2.336,0-4.13-1.711-4.13-4.52
			c0-2.881,1.777-4.646,4.265-4.646C114.457,28.73,116.099,30.567,116.099,33.232z M109.888,33.322c0,1.692,0.778,2.971,2.048,2.971
			c1.185,0,2.014-1.242,2.014-3.007c0-1.368-0.575-2.935-1.997-2.935C110.48,30.352,109.888,31.863,109.888,33.322z"/>
		<path fill="#002447" d="M121.203,35.663c0.474,0.306,1.37,0.63,2.115,0.63c0.913,0,1.319-0.396,1.319-0.973
			c0-0.594-0.338-0.9-1.354-1.278c-1.607-0.594-2.284-1.53-2.268-2.557c0-1.549,1.201-2.755,3.113-2.755
			c0.914,0,1.71,0.252,2.184,0.522l-0.406,1.566c-0.355-0.216-1.016-0.504-1.743-0.504c-0.744,0-1.15,0.378-1.15,0.918
			c0,0.558,0.389,0.828,1.438,1.225c1.489,0.576,2.183,1.386,2.199,2.683c0,1.584-1.167,2.736-3.351,2.736
			c-0.998,0-1.895-0.252-2.504-0.611L121.203,35.663z"/>
		<path fill="#002447" d="M136.193,33.232c0,3.223-2.133,4.663-4.23,4.663c-2.336,0-4.13-1.711-4.13-4.52
			c0-2.881,1.777-4.646,4.265-4.646C134.552,28.73,136.193,30.567,136.193,33.232z M129.982,33.322c0,1.692,0.778,2.971,2.048,2.971
			c1.185,0,2.014-1.242,2.014-3.007c0-1.368-0.575-2.935-1.997-2.935C130.575,30.352,129.982,31.863,129.982,33.322z"/>
		<path fill="#002447" d="M143.956,37.427c-0.439,0.217-1.303,0.45-2.335,0.45c-2.572,0-4.248-1.746-4.248-4.465
			c0-2.629,1.692-4.682,4.586-4.682c0.762,0,1.54,0.18,2.014,0.414l-0.372,1.656c-0.338-0.162-0.829-0.342-1.573-0.342
			c-1.591,0-2.539,1.242-2.521,2.845c0,1.801,1.1,2.827,2.521,2.827c0.728,0,1.235-0.162,1.642-0.342L143.956,37.427z"/>
		<path fill="#002447" d="M147.71,26.479c0,0.667-0.457,1.188-1.185,1.188c-0.694,0-1.151-0.521-1.151-1.188
			c0-0.684,0.475-1.206,1.168-1.206C147.253,25.273,147.692,25.796,147.71,26.479z M145.493,37.697v-8.769h2.098v8.769H145.493z"/>
		<path fill="#002447" d="M154.46,37.697l-0.136-0.973h-0.051c-0.508,0.685-1.371,1.171-2.437,1.171
			c-1.658,0-2.589-1.278-2.589-2.611c0-2.214,1.844-3.331,4.89-3.313v-0.145c0-0.576-0.22-1.53-1.675-1.53
			c-0.813,0-1.658,0.271-2.217,0.648l-0.406-1.44c0.609-0.396,1.675-0.774,2.979-0.774c2.64,0,3.401,1.782,3.401,3.691v3.169
			c0,0.792,0.033,1.566,0.118,2.106H154.46z M154.188,33.412c-1.472-0.036-2.876,0.306-2.876,1.639c0,0.864,0.524,1.26,1.184,1.26
			c0.83,0,1.438-0.576,1.625-1.206c0.051-0.162,0.067-0.342,0.067-0.486V33.412z"/>
		<path fill="#002447" d="M158.417,24.913h2.098v12.784h-2.098V24.913z"/>
	</g>
	<g opacity="0.7">
		<path fill="#EAEAEA" d="M30.721,38.927c-0.789-1.546-4.324-2.466-7.822-2.487c-3.496,0.03-7.074,0.952-7.912,2.489
			c-0.83,1.509,2.684,3.6,7.825,3.619C27.953,42.537,31.504,40.444,30.721,38.927z M22.889,41.176
			c-3.743-0.007-6.396-1.364-5.914-2.429c0.484-1.081,3.172-1.718,5.974-1.735c2.804,0.011,5.46,0.647,5.911,1.731
			C29.309,39.813,26.633,41.172,22.889,41.176z"/>
		<polygon fill="#EAEAEA" points="27.549,41.162 30.656,42.335 28.72,43.882 26.348,41.863 		"/>
		<path fill="#EAEAEA" d="M65.083,38.929c-0.839-1.537-4.417-2.459-7.913-2.489c-3.498,0.021-7.033,0.941-7.822,2.487
			c-0.782,1.518,2.768,3.61,7.91,3.621C62.398,42.528,65.912,40.438,65.083,38.929z M57.18,41.176
			c-3.744-0.004-6.419-1.362-5.971-2.433c0.452-1.084,3.107-1.721,5.912-1.731c2.801,0.018,5.489,0.654,5.974,1.735
			C63.577,39.812,60.924,41.169,57.18,41.176z"/>
		<polygon fill="#EAEAEA" points="52.52,41.162 49.413,42.335 51.349,43.882 53.722,41.863 		"/>
		<path fill="#EAEAEA" d="M55.367,45.91c-1.539-3.221-8.421-5.138-15.231-5.184c-6.81,0.062-13.777,1.984-15.409,5.188
			c-1.617,3.146,5.227,7.504,15.239,7.543C49.978,53.435,56.892,49.072,55.367,45.91z M40.114,50.598
			c-7.29-0.015-12.456-2.842-11.517-5.062c0.943-2.252,6.177-3.581,11.634-3.616c5.457,0.024,10.631,1.35,11.511,3.61
			C52.615,47.76,47.406,50.59,40.114,50.598z"/>
		<g>
			<g>
				<g>
					<path fill="#002447" d="M34.896,30.563l0.521,16.591h4.375c0.167-5.628-0.006-16.591-0.006-16.591S36.7,30.507,34.896,30.563z"
						/>
				</g>
				<g>
					<path fill="#002447" d="M40.206,30.563l0.521,16.591h4.374c0.167-5.628-0.005-16.591-0.005-16.591S42.011,30.507,40.206,30.563
						z"/>
				</g>
			</g>
		</g>
		<ellipse fill="#002447" cx="40.034" cy="9.906" rx="3.212" ry="3.97"/>
		<g>
			<g>
				<polygon fill="#002447" points="40.035,25.021 40.027,24.994 40.033,25.025 				"/>
				<path fill="#002447" d="M46.531,16.69c-0.09-1.043-0.849-1.612-1.91-1.772c-0.028-0.005-1.365-0.178-1.889-0.218l-0.012,0.045
					l1.377,1.164l-1.646,0.826l0.761,1.305l-3.175,7.011l0.007,0.035l-0.012-0.024l-0.011,0.024l0.007-0.035l-3.177-7.011
					l0.763-1.305l-1.645-0.826l1.376-1.164l-0.012-0.044c-0.522,0.04-1.712,0.18-1.779,0.217c-0.001,0-0.003,0-0.003,0
					c-1.009,0.146-1.822,0.729-1.91,1.772l-1.184,14.971c0.683,0.058,1.365,0.102,2.05,0.138c0.001,0.004,0.001,0.008,0.002,0.013
					c0.067,0,0.134,0,0.2,0c0.752,0.038,1.504,0.063,2.256,0.074l0.002-0.074c2.079,0,4.158,0,6.237,0l0.001,0.074
					c0.753-0.012,1.505-0.036,2.256-0.074c0.032,0,0.064,0,0.096,0c0-0.002,0.001-0.004,0.001-0.006
					c0.72-0.037,1.438-0.084,2.156-0.145L46.531,16.69z"/>
			</g>
		</g>
		<g>
			<g>
				<polygon fill="#002447" points="40.686,14.605 41.084,16.045 40.035,16.936 38.986,16.045 39.386,14.605 				"/>
				<polygon fill="#002447" points="40.779,16.229 41.24,25.012 40.035,25.9 38.83,25.012 39.291,16.229 				"/>
			</g>
		</g>
		<g>
			<g>
				<g>
					<path fill="#002447" d="M22.979,28.848l0.331,10.539h2.778c0.107-3.575-0.002-10.539-0.002-10.539S24.125,28.812,22.979,28.848
						z"/>
				</g>
				<g>
					<path fill="#002447" d="M19.604,28.848l0.332,10.539h2.777c0.107-3.575-0.002-10.539-0.002-10.539S20.75,28.812,19.604,28.848z
						"/>
				</g>
			</g>
		</g>
		<ellipse fill="#002447" cx="22.869" cy="15.729" rx="2.041" ry="2.521"/>
		<g>
			<g>
				<polygon fill="#002447" points="22.871,25.321 22.869,25.327 22.869,25.328 				"/>
				<path fill="#002447" d="M29.994,23.029l-0.004-0.003l-0.013-0.015l-3.417-3.689c-0.258-0.274-0.593-0.418-0.92-0.433
					c-0.021-0.007-0.727-0.091-1.059-0.116l-0.007,0.027l0.874,0.74l-1.045,0.525l0.484,0.828l-2.016,4.451l0.004,0.023
					l-0.008-0.017l-0.007,0.017l0.004-0.023l-2.017-4.451l0.482-0.828l-1.045-0.525l0.874-0.739l-0.008-0.029
					c-0.331,0.025-1.024,0.105-1.038,0.109c-0.457,0.037-0.895,0.364-1.087,0.875l-1.771,4.781c0.439,3.483,1.26,3.663,1.871,5.656
					c0.43-0.177,0.855-0.361,1.278-0.553c1.99,0,3.979,0,5.97,0c0.002-0.021,0.009-0.039,0.009-0.061
					c-0.006-0.477-0.021-0.953-0.03-1.43c0.508,0.281,1.02,0.554,1.539,0.813l1.139-2.242l0.567-1.122l0.284-0.561l0.143-0.28
					l0.07-0.141l0.036-0.069l0.018-0.035l0.005-0.009l0.001-0.002C30.084,23.846,30.322,25.97,29.994,23.029z M27.264,24.333
					l-0.629,1.088l-0.325,0.561c-0.028-1.156-0.065-2.313-0.108-3.471l1.246,1.505L27.264,24.333z"/>
			</g>
		</g>
		<g>
			<g>
				<polygon fill="#002447" points="22.457,18.588 22.2,19.518 22.869,20.095 23.534,19.518 23.279,18.588 				"/>
				<polygon fill="#002447" points="22.396,19.637 22.104,25.313 22.869,25.887 23.635,25.313 23.341,19.637 				"/>
			</g>
		</g>
		<g>
			<g>
				<g>
					<path fill="#002447" d="M57.14,29.107l0.331,10.538h2.778c0.106-3.574-0.003-10.538-0.003-10.538S58.286,29.071,57.14,29.107z"
						/>
				</g>
				<g>
					<path fill="#002447" d="M53.766,29.107l0.331,10.538h2.778c0.106-3.574-0.003-10.538-0.003-10.538S54.912,29.071,53.766,29.107
						z"/>
				</g>
			</g>
		</g>
		<ellipse fill="#002447" cx="57.029" cy="15.988" rx="2.041" ry="2.52"/>
		<g>
			<g>
				<polygon fill="#002447" points="57.031,25.581 57.03,25.587 57.03,25.588 				"/>
				<path fill="#002447" d="M61.916,25.124l-0.947-4.884c-0.113-0.563-0.493-0.865-1.031-1.03c-0.061-0.046-0.861-0.151-1.193-0.177
					l-0.008,0.027l0.874,0.74l-1.045,0.525l0.484,0.828l-2.017,4.451l0.004,0.023l-0.007-0.017l-0.007,0.017l0.004-0.023
					l-2.018-4.451l0.484-0.828l-1.046-0.525l0.874-0.738l-0.008-0.03c-0.332,0.025-1.025,0.105-1.039,0.109
					c-0.528,0.099-0.894,0.365-1.086,0.875l-1.771,4.781c0.439,3.484,1.261,3.663,1.871,5.657c0.43-0.177,0.855-0.362,1.279-0.553
					c1.506,0,3.012,0,4.518,0c-0.008,0.106-0.017,0.217-0.022,0.32c0.952,0.082,1.907,0.132,2.863,0.147
					C61.909,28.591,62.131,27.324,61.916,25.124z"/>
			</g>
		</g>
		<g>
			<g>
				<polygon fill="#002447" points="56.617,19.014 56.361,19.922 57.03,20.486 57.695,19.922 57.441,19.014 				"/>
				<polygon fill="#002447" points="56.559,20.039 56.264,25.585 57.03,26.146 57.795,25.585 57.502,20.039 				"/>
			</g>
		</g>
	</g>
</g>
</svg>
