<?xml version="1.0" encoding="utf-8"?>
<!-- Generator: Adobe Illustrator 16.0.0, SVG Export Plug-In . SVG Version: 6.00 Build 0)  -->
<!DOCTYPE svg PUBLIC "-//W3C//DTD SVG 1.1//EN" "http://www.w3.org/Graphics/SVG/1.1/DTD/svg11.dtd">
<svg version="1.1" id="Capa_1" xmlns="http://www.w3.org/2000/svg" xmlns:xlink="http://www.w3.org/1999/xlink" x="0px" y="0px"
	 width="202.644px" height="64.667px" viewBox="0 0 202.644 64.667" enable-background="new 0 0 202.644 64.667"
	 xml:space="preserve">
<g>
	<path fill="#FFCC73" stroke="#E8A646" stroke-width="3" stroke-miterlimit="10" d="M201.144,52.048
		c0,6.142-5.175,11.119-11.557,11.119H13.057C6.675,63.167,1.5,58.189,1.5,52.048V12.619C1.5,6.479,6.675,1.5,13.057,1.5h176.53
		c6.382,0,11.557,4.979,11.557,11.119V52.048z"/>
	<path fill="#F6931A" d="M73.746,1.5H13.057C6.675,1.5,1.5,6.479,1.5,12.619v39.429c0,6.142,5.175,11.119,11.557,11.119h60.689V1.5z
		"/>
	<g opacity="0.9">
		<path fill="#002447" d="M84.63,17.198h5.639v1.818h-3.855v3.35h3.595v1.818h-3.595v5.149H84.63V17.198z"/>
		<path fill="#002447" d="M98.242,24.868c0,3.224-1.826,4.664-3.624,4.664c-2,0-3.536-1.711-3.536-4.52
			c0-2.881,1.521-4.646,3.652-4.646C96.836,20.367,98.242,22.204,98.242,24.868z M92.923,24.959c0,1.692,0.667,2.971,1.754,2.971
			c1.015,0,1.725-1.242,1.725-3.007c0-1.368-0.493-2.936-1.71-2.936C93.43,21.987,92.923,23.5,92.923,24.959z"/>
		<path fill="#002447" d="M99.708,23.393c0-1.188-0.015-2.035-0.059-2.827h1.552l0.058,1.675h0.058
			c0.349-1.243,1.175-1.873,1.929-1.873c0.174,0,0.275,0.019,0.42,0.054v2.089c-0.145-0.036-0.305-0.072-0.521-0.072
			c-0.855,0-1.436,0.685-1.595,1.675c-0.029,0.198-0.059,0.433-0.059,0.685v4.537h-1.782V23.393z"/>
		<path fill="#002447" d="M111.45,24.868c0,3.224-1.826,4.664-3.624,4.664c-2,0-3.536-1.711-3.536-4.52
			c0-2.881,1.521-4.646,3.652-4.646C110.045,20.367,111.45,22.204,111.45,24.868z M106.131,24.959c0,1.692,0.666,2.971,1.754,2.971
			c1.015,0,1.725-1.242,1.725-3.007c0-1.368-0.492-2.936-1.71-2.936C106.638,21.987,106.131,23.5,106.131,24.959z"/>
		<path fill="#002447" d="M122.427,16.55v10.317c0,0.9,0.028,1.873,0.058,2.467h-1.595l-0.072-1.387h-0.029
			c-0.42,0.973-1.275,1.585-2.305,1.585c-1.682,0-3.015-1.783-3.015-4.483c-0.015-2.935,1.464-4.682,3.159-4.682
			c0.972,0,1.667,0.504,1.986,1.152h0.029v-4.97H122.427z M120.644,24.221c0-0.181-0.015-0.396-0.044-0.576
			c-0.159-0.864-0.725-1.566-1.536-1.566c-1.146,0-1.783,1.26-1.783,2.898c0,1.603,0.638,2.772,1.769,2.772
			c0.725,0,1.362-0.611,1.536-1.566c0.044-0.197,0.059-0.414,0.059-0.647V24.221z"/>
		<path fill="#002447" d="M125.602,25.571c0.044,1.584,1.044,2.269,2.175,2.269c0.826,0,1.42-0.145,1.957-0.396l0.261,1.53
			c-0.609,0.307-1.45,0.54-2.465,0.54c-2.29,0-3.638-1.746-3.638-4.429c0-2.431,1.188-4.718,3.449-4.718
			c2.291,0,3.045,2.341,3.045,4.268c0,0.414-0.029,0.738-0.059,0.937H125.602z M128.704,24.022c0.015-0.811-0.275-2.143-1.465-2.143
			c-1.102,0-1.565,1.242-1.638,2.143H128.704z"/>
		<path fill="#002447" d="M141.332,16.55v10.317c0,0.9,0.028,1.873,0.058,2.467h-1.595l-0.072-1.387h-0.029
			c-0.42,0.973-1.275,1.585-2.305,1.585c-1.682,0-3.015-1.783-3.015-4.483c-0.015-2.935,1.464-4.682,3.159-4.682
			c0.972,0,1.668,0.504,1.986,1.152h0.029v-4.97H141.332z M139.549,24.221c0-0.181-0.015-0.396-0.044-0.576
			c-0.159-0.864-0.725-1.566-1.536-1.566c-1.146,0-1.783,1.26-1.783,2.898c0,1.603,0.638,2.772,1.769,2.772
			c0.725,0,1.362-0.611,1.536-1.566c0.044-0.197,0.059-0.414,0.059-0.647V24.221z"/>
		<path fill="#002447" d="M145.146,18.116c0,0.667-0.392,1.188-1.015,1.188c-0.594,0-0.985-0.521-0.985-1.188
			c0-0.684,0.405-1.206,1-1.206C144.754,16.91,145.131,17.433,145.146,18.116z M143.247,29.334v-8.769h1.797v8.769H143.247z"/>
		<path fill="#002447" d="M146.871,27.3c0.405,0.306,1.174,0.63,1.812,0.63c0.783,0,1.131-0.396,1.131-0.973
			c0-0.594-0.29-0.9-1.16-1.278c-1.377-0.594-1.956-1.53-1.942-2.557c0-1.549,1.029-2.755,2.668-2.755
			c0.782,0,1.464,0.252,1.869,0.522l-0.348,1.566c-0.305-0.216-0.869-0.504-1.493-0.504c-0.638,0-0.985,0.378-0.985,0.918
			c0,0.559,0.333,0.828,1.232,1.225c1.275,0.576,1.869,1.386,1.884,2.683c0,1.584-1,2.736-2.87,2.736
			c-0.855,0-1.623-0.252-2.146-0.612L146.871,27.3z"/>
		<path fill="#002447" d="M158.193,29.063c-0.377,0.217-1.116,0.45-2.001,0.45c-2.203,0-3.638-1.746-3.638-4.465
			c0-2.629,1.449-4.682,3.928-4.682c0.652,0,1.319,0.181,1.726,0.414l-0.319,1.656c-0.29-0.161-0.71-0.342-1.348-0.342
			c-1.363,0-2.175,1.242-2.16,2.845c0,1.801,0.942,2.827,2.16,2.827c0.623,0,1.058-0.162,1.405-0.342L158.193,29.063z"/>
		<path fill="#002447" d="M165.834,26.705c0,1.044,0.028,1.909,0.058,2.629h-1.565l-0.087-1.332h-0.029
			c-0.305,0.63-1,1.53-2.262,1.53c-1.29,0-2.464-0.954-2.464-3.817v-5.149h1.783v4.771c0,1.458,0.377,2.395,1.319,2.395
			c0.71,0,1.174-0.63,1.362-1.188c0.058-0.198,0.102-0.432,0.102-0.684v-5.294h1.783V26.705z"/>
		<path fill="#002447" d="M167.677,27.3c0.405,0.306,1.174,0.63,1.812,0.63c0.783,0,1.131-0.396,1.131-0.973
			c0-0.594-0.29-0.9-1.16-1.278c-1.377-0.594-1.957-1.53-1.942-2.557c0-1.549,1.029-2.755,2.668-2.755
			c0.782,0,1.464,0.252,1.869,0.522l-0.348,1.566c-0.305-0.216-0.869-0.504-1.493-0.504c-0.638,0-0.985,0.378-0.985,0.918
			c0,0.559,0.333,0.828,1.232,1.225c1.275,0.576,1.869,1.386,1.884,2.683c0,1.584-1,2.736-2.87,2.736
			c-0.855,0-1.623-0.252-2.146-0.612L167.677,27.3z"/>
		<path fill="#002447" d="M175.708,18.116c0,0.667-0.392,1.188-1.015,1.188c-0.594,0-0.985-0.521-0.985-1.188
			c0-0.684,0.405-1.206,1-1.206C175.316,16.91,175.693,17.433,175.708,18.116z M173.81,29.334v-8.769h1.797v8.769H173.81z"/>
		<path fill="#002447" d="M184.231,24.868c0,3.224-1.826,4.664-3.624,4.664c-2,0-3.536-1.711-3.536-4.52
			c0-2.881,1.521-4.646,3.652-4.646C182.826,20.367,184.231,22.204,184.231,24.868z M178.912,24.959
			c0,1.692,0.666,2.971,1.754,2.971c1.015,0,1.725-1.242,1.725-3.007c0-1.368-0.492-2.936-1.71-2.936
			C179.419,21.987,178.912,23.5,178.912,24.959z M182.782,16.767l-1.783,2.664h-1.232l1.262-2.664H182.782z"/>
		<path fill="#002447" d="M185.698,23.176c0-1.008-0.015-1.854-0.059-2.61h1.565l0.088,1.314h0.043
			c0.305-0.685,1.072-1.513,2.247-1.513c1.232,0,2.508,0.99,2.508,3.764v5.203h-1.783v-4.951c0-1.261-0.377-2.215-1.348-2.215
			c-0.711,0-1.204,0.63-1.392,1.296c-0.059,0.198-0.073,0.469-0.073,0.721v5.149h-1.797V23.176z"/>
		<path fill="#002447" d="M91.269,42.868c0,3.224-1.826,4.664-3.624,4.664c-2,0-3.536-1.711-3.536-4.52
			c0-2.881,1.521-4.646,3.652-4.646C89.863,38.367,91.269,40.204,91.269,42.868z M85.949,42.959c0,1.692,0.666,2.971,1.754,2.971
			c1.015,0,1.725-1.242,1.725-3.007c0-1.368-0.492-2.936-1.71-2.936C86.456,39.987,85.949,41.5,85.949,42.959z"/>
		<path fill="#002447" d="M95.938,47.334v-7.112h-0.956v-1.656h0.956v-0.378c0-1.135,0.247-2.269,0.855-2.989
			c0.522-0.612,1.232-0.846,1.841-0.846c0.479,0,0.855,0.09,1.146,0.216l-0.131,1.71c-0.188-0.09-0.435-0.162-0.753-0.162
			c-0.885,0-1.189,0.919-1.189,1.999v0.45h1.552v1.656h-1.537v7.112H95.938z"/>
		<path fill="#002447" d="M106.912,42.868c0,3.224-1.826,4.664-3.624,4.664c-2,0-3.536-1.711-3.536-4.52
			c0-2.881,1.521-4.646,3.652-4.646C105.506,38.367,106.912,40.204,106.912,42.868z M101.593,42.959
			c0,1.692,0.667,2.971,1.754,2.971c1.015,0,1.725-1.242,1.725-3.007c0-1.368-0.493-2.936-1.71-2.936
			C102.1,39.987,101.593,41.5,101.593,42.959z"/>
		<path fill="#002447" d="M108.379,41.393c0-1.188-0.015-2.035-0.059-2.827h1.552l0.058,1.675h0.058
			c0.349-1.243,1.175-1.873,1.929-1.873c0.174,0,0.275,0.019,0.42,0.054v2.089c-0.145-0.036-0.305-0.072-0.521-0.072
			c-0.855,0-1.436,0.685-1.595,1.675c-0.029,0.198-0.059,0.433-0.059,0.685v4.537h-1.782V41.393z"/>
		<path fill="#002447" d="M120.12,42.868c0,3.224-1.826,4.664-3.624,4.664c-2,0-3.536-1.711-3.536-4.52
			c0-2.881,1.521-4.646,3.652-4.646C118.715,38.367,120.12,40.204,120.12,42.868z M114.801,42.959c0,1.692,0.666,2.971,1.754,2.971
			c1.015,0,1.725-1.242,1.725-3.007c0-1.368-0.492-2.936-1.71-2.936C115.308,39.987,114.801,41.5,114.801,42.959z"/>
		<path fill="#002447" d="M126.632,36.063v2.503h1.695v1.656h-1.695v3.871c0,1.063,0.231,1.621,0.913,1.621
			c0.305,0,0.536-0.055,0.695-0.108l0.029,1.692c-0.261,0.126-0.725,0.216-1.29,0.216c-0.652,0-1.203-0.27-1.537-0.72
			c-0.376-0.504-0.551-1.297-0.551-2.449v-4.123h-1.015v-1.656h1.015v-1.98L126.632,36.063z"/>
		<path fill="#002447" d="M130.851,43.571c0.044,1.584,1.044,2.269,2.175,2.269c0.826,0,1.42-0.145,1.957-0.396l0.261,1.53
			c-0.609,0.307-1.45,0.54-2.465,0.54c-2.29,0-3.638-1.746-3.638-4.429c0-2.431,1.188-4.718,3.449-4.718
			c2.291,0,3.045,2.341,3.045,4.268c0,0.414-0.029,0.738-0.059,0.937H130.851z M133.953,42.022c0.014-0.811-0.275-2.143-1.465-2.143
			c-1.102,0-1.565,1.242-1.638,2.143H133.953z"/>
		<path fill="#002447" d="M137.07,41.176c0-1.008-0.015-1.854-0.059-2.61h1.537l0.072,1.296h0.043
			c0.349-0.684,0.986-1.494,2.175-1.494c0.928,0,1.652,0.648,1.957,1.62h0.029c0.246-0.485,0.536-0.846,0.869-1.098
			c0.392-0.342,0.841-0.522,1.421-0.522c1.174,0,2.363,0.99,2.363,3.799v5.168h-1.74V42.49c0-1.458-0.405-2.322-1.261-2.322
			c-0.609,0-1.059,0.54-1.247,1.17c-0.043,0.217-0.087,0.486-0.087,0.738v5.258h-1.739v-5.077c0-1.225-0.392-2.089-1.218-2.089
			c-0.667,0-1.116,0.648-1.275,1.261c-0.072,0.216-0.102,0.468-0.102,0.72v5.186h-1.739V41.176z"/>
		<path fill="#002447" d="M153.337,47.334l-0.116-0.973h-0.043c-0.436,0.685-1.175,1.171-2.088,1.171
			c-1.421,0-2.218-1.278-2.218-2.611c0-2.214,1.58-3.331,4.189-3.313v-0.145c0-0.576-0.188-1.53-1.436-1.53
			c-0.695,0-1.42,0.271-1.898,0.648l-0.348-1.44c0.521-0.396,1.435-0.774,2.551-0.774c2.262,0,2.914,1.782,2.914,3.691v3.169
			c0,0.792,0.028,1.566,0.102,2.106H153.337z M153.104,43.049c-1.261-0.036-2.464,0.306-2.464,1.639c0,0.864,0.449,1.26,1.015,1.26
			c0.71,0,1.232-0.576,1.392-1.206c0.044-0.162,0.058-0.342,0.058-0.486V43.049z M154.207,34.767l-1.783,2.664h-1.232l1.261-2.664
			H154.207z"/>
		<path fill="#002447" d="M158.688,36.063v2.503h1.695v1.656h-1.695v3.871c0,1.063,0.231,1.621,0.913,1.621
			c0.305,0,0.536-0.055,0.695-0.108l0.029,1.692c-0.261,0.126-0.725,0.216-1.29,0.216c-0.652,0-1.203-0.27-1.537-0.72
			c-0.376-0.504-0.551-1.297-0.551-2.449v-4.123h-1.015v-1.656h1.015v-1.98L158.688,36.063z"/>
		<path fill="#002447" d="M163.631,36.116c0,0.667-0.392,1.188-1.015,1.188c-0.594,0-0.985-0.521-0.985-1.188
			c0-0.684,0.405-1.206,1-1.206C163.239,34.91,163.616,35.433,163.631,36.116z M161.732,47.334v-8.769h1.797v8.769H161.732z"/>
		<path fill="#002447" d="M170.634,47.063c-0.377,0.217-1.116,0.45-2.001,0.45c-2.203,0-3.638-1.746-3.638-4.465
			c0-2.629,1.449-4.682,3.928-4.682c0.652,0,1.319,0.181,1.726,0.414l-0.319,1.656c-0.29-0.161-0.71-0.342-1.348-0.342
			c-1.363,0-2.175,1.242-2.16,2.845c0,1.801,0.942,2.827,2.16,2.827c0.623,0,1.058-0.162,1.405-0.342L170.634,47.063z"/>
		<path fill="#002447" d="M178.534,42.868c0,3.224-1.826,4.664-3.624,4.664c-2,0-3.536-1.711-3.536-4.52
			c0-2.881,1.521-4.646,3.652-4.646C177.129,38.367,178.534,40.204,178.534,42.868z M173.215,42.959
			c0,1.692,0.666,2.971,1.754,2.971c1.015,0,1.725-1.242,1.725-3.007c0-1.368-0.492-2.936-1.71-2.936
			C173.722,39.987,173.215,41.5,173.215,42.959z"/>
	</g>
	<g opacity="0.7">
		<g>
			<g>
				<ellipse fill="#002447" cx="48.367" cy="30.023" rx="2.123" ry="2.624"/>
				<path fill="#002447" d="M52.436,34.463c-0.07-0.648-0.582-1.124-1.17-1.145c-0.025-0.009-0.049-0.026-0.074-0.031
					c-0.349-0.042-0.694-0.067-1.04-0.095l-0.007,0.03l0.909,0.77l-1.088,0.546l0.503,0.862l-1.384,3.058l-0.224-4.316l0.201-0.173
					l-0.267-0.968h-0.858l-0.264,0.968l0.199,0.173l-0.225,4.319L46.264,35.4l0.504-0.862l-1.088-0.546l0.91-0.77l-0.008-0.03
					c-0.345,0.027-0.689,0.053-1.038,0.095c-0.013,0-0.022,0.011-0.035,0.015c-0.493,0.021-0.957,0.352-1.134,0.874
					c-0.88,3.247-2.127,5.819-3.804,8.881c0.882,0.46,1.782,0.889,2.694,1.285c0.517-1.057,1.033-2.205,1.513-3.398
					c-0.026,1.168-0.059,2.333-0.073,3.5c0,0.022,0.008,0.041,0.009,0.065c0.094,0,0.188,0,0.281,0l0.317,10.142h2.893
					c0.088-2.96,0.033-8.145,0.009-10.142c0.097,0,0.195,0,0.292,0l0.32,10.142h2.891c0.088-2.954,0.035-8.123,0.009-10.131
					c0.076-0.005,0.152-0.006,0.229-0.011c0.021,0,0.043,0,0.063,0c0-0.005,0.001-0.005,0.001-0.008
					c0.476-0.035,0.95-0.076,1.424-0.128L52.436,34.463z"/>
			</g>
			<g>
				<ellipse fill="#002447" cx="25.834" cy="30.023" rx="2.123" ry="2.624"/>
				<path fill="#002447" d="M33.708,32.129v-0.003v-0.011l-0.001-0.041l-0.002-0.081L33.7,31.829l-0.01-0.327l-0.017-0.655
					l-0.035-1.307l-0.068-2.617c-0.995,0.018-1.99,0.071-2.98,0.161l0.215,2.609l0.106,1.305l0.031,0.381l-3.555,1.657l1.13,0.956
					l-1.087,0.546l0.504,0.862l-1.386,3.058l-0.222-4.316l0.2-0.173l-0.267-0.968h-0.858l-0.264,0.968l0.199,0.173l-0.223,4.319
					L23.729,35.4l0.503-0.862l-1.086-0.546l0.91-0.77l-0.011-0.037c-0.344,0.025-0.688,0.06-1.035,0.102
					c-0.022,0.003-0.041,0.02-0.062,0.026c-0.341,0.016-0.69,0.165-0.959,0.45l-3.559,3.841l-0.013,0.016l-0.004,0.004
					c-0.342,3.061-0.095,0.851-0.17,1.533l0.001,0.002l0.005,0.01l0.018,0.037l0.037,0.071l0.074,0.146l0.148,0.293l0.296,0.582
					l0.592,1.167l1.184,2.335c0.541-0.27,1.075-0.554,1.604-0.846c-0.008,0.497-0.024,0.993-0.03,1.488
					c0,0.022,0.006,0.041,0.007,0.065c0.094,0,0.188,0,0.28,0l0.319,10.142h2.893c0.088-2.96,0.034-8.145,0.009-10.142
					c0.098,0,0.194,0,0.293,0l0.318,10.142h2.892c0.088-2.96,0.034-8.145,0.008-10.142c0.1,0,0.196,0,0.294,0
					c0.002-0.024,0.01-0.042,0.01-0.065c-0.04-3.177-0.137-6.353-0.274-9.528l3.653-1.465l0.021-0.006l0.004-0.005
					C34.518,30.822,33.346,32.714,33.708,32.129z M22.249,40.697l-0.337-0.585l-0.656-1.131l-0.191-0.33l1.297-1.567
					C22.318,38.289,22.279,39.494,22.249,40.697z"/>
			</g>
			<g>
				<path fill="#002447" d="M33.223,20.125l-0.15-0.039h-0.119c-0.163,0-0.492,0-2.221,0.913l0.59-1.663l-0.52-0.354
					c-1.612-1.094-2.499-2.564-2.499-4.132c0-3.156,3.581-5.721,7.983-5.721c2.396,0,4.543,0.764,6.006,1.963
					c0.365-0.034,0.732-0.055,1.109-0.055c0.384,0,0.761,0.022,1.135,0.056c-1.682-2.146-4.745-3.592-8.25-3.592
					c-5.299,0-9.611,3.296-9.611,7.349c0,1.912,0.976,3.744,2.701,5.104l-1.637,4.604l1.91-1.098
					c1.246-0.716,2.776-1.531,3.291-1.723c0.715,0.203,1.455,0.333,2.212,0.401c-0.433-0.553-0.773-1.151-1.005-1.786
					C33.834,20.289,33.524,20.215,33.223,20.125z"/>
				<path fill="#EAEAEA" d="M52.2,18.383c0-3.604-3.937-6.529-8.798-6.529c-4.859,0-8.802,2.925-8.802,6.529
					c0,3.609,3.942,6.532,8.802,6.532c1.168,0,2.282-0.17,3.301-0.475c0.34-0.105,3.741,1.851,3.741,1.851l-1.102-3.099
					C51.094,21.999,52.2,20.289,52.2,18.383z M48.125,20.489h-9.078v-0.852h9.078V20.489z M48.125,18.786h-9.078v-0.852h9.078
					V18.786z M48.125,17.085h-9.078v-0.852h9.078V17.085z"/>
			</g>
		</g>
	</g>
</g>
</svg>
