<?xml version="1.0" encoding="utf-8"?>
<!-- Generator: Adobe Illustrator 16.0.0, SVG Export Plug-In . SVG Version: 6.00 Build 0)  -->
<!DOCTYPE svg PUBLIC "-//W3C//DTD SVG 1.1//EN" "http://www.w3.org/Graphics/SVG/1.1/DTD/svg11.dtd">
<svg version="1.1" id="Capa_1" xmlns="http://www.w3.org/2000/svg" xmlns:xlink="http://www.w3.org/1999/xlink" x="0px" y="0px"
	 width="316.032px" height="169.691px" viewBox="0 0 316.032 169.691" enable-background="new 0 0 316.032 169.691"
	 xml:space="preserve">
<path fill="#0C488D" d="M58.028,34.387c0-0.014,0-0.062,0-0.078c0-0.033-0.003-0.069-0.006-0.105L54.678,6.917
	C54.6,6.271,54.049,5.783,53.4,5.783H26.607c-0.651,0-1.2,0.486-1.278,1.132l-3.343,27.287c-0.005,0.035-0.005,0.053-0.005,0.088
	l-0.007,0.079c-0.002,0.027-0.003,0.055-0.003,0.079v10.737c0,0.71,0.579,1.288,1.289,1.288h33.488c0.71,0,1.288-0.578,1.288-1.288
	L58.028,34.387z M55.46,43.896H24.548v-8.203H55.46V43.896L55.46,43.896z"/>
<rect x="41.608" y="37.736" fill="#FFCC73" width="4.091" height="4.093"/>
<rect x="49.336" y="37.736" fill="#FFCC73" width="4.092" height="4.093"/>
<path fill="#0C488D" d="M98.09,46.137h23.036c1.247,0,2.257-1.015,2.257-2.259V9.098c0-1.245-1.01-2.258-2.257-2.258H98.09
	c-1.247,0-2.259,1.013-2.259,2.258v34.78C95.831,45.124,96.843,46.137,98.09,46.137L98.09,46.137z M119.496,43.362
	c-0.751,0-1.358-0.604-1.358-1.354s0.606-1.354,1.358-1.354c0.749,0,1.354,0.604,1.354,1.354
	C120.85,42.759,120.244,43.362,119.496,43.362L119.496,43.362z M119.496,9.912c0.749,0,1.354,0.604,1.354,1.354
	c0,0.751-0.605,1.354-1.354,1.354c-0.751,0-1.358-0.604-1.358-1.354C118.138,10.518,118.744,9.912,119.496,9.912L119.496,9.912z
	 M109.606,10.923c5.853,0,10.603,4.746,10.603,10.604c0,5.854-4.749,10.6-10.603,10.6c-0.92,0-1.815-0.117-2.669-0.339l1.993-3.38
	c0.591-1.001-0.545-2.141-1.545-1.543l-4.621,2.723c-0.009,0.006-0.013,0.013-0.018,0.017c-2.287-1.942-3.736-4.841-3.736-8.075
	C99.006,15.671,103.753,10.923,109.606,10.923L109.606,10.923z M99.99,9.912c0.75,0,1.354,0.604,1.354,1.354
	c0,0.751-0.604,1.354-1.354,1.354c-0.749,0-1.355-0.604-1.355-1.354C98.635,10.518,99.241,9.912,99.99,9.912L99.99,9.912z
	 M99.99,40.653c0.75,0,1.354,0.604,1.354,1.354c0,0.749-0.604,1.354-1.354,1.354c-0.749,0-1.355-0.604-1.355-1.354
	C98.635,41.263,99.241,40.653,99.99,40.653L99.99,40.653z"/>
<path fill="#FFCC73" d="M112.438,21.526c0,1.563-1.266,2.831-2.832,2.831c-1.563,0-2.83-1.271-2.83-2.831
	c0-1.565,1.267-2.833,2.83-2.833C111.17,18.693,112.438,19.961,112.438,21.526L112.438,21.526z"/>
<polygon fill="#0C488D" points="146.555,31.324 151.371,41.055 153.5,40.526 155.51,48.566 188.395,40.351 183.313,20.007 
	150.663,28.163 151.167,30.172 "/>
<polyline fill="#FFCC73" points="184.821,22.018 186.799,29.944 191.532,28.763 195.153,30.937 198.29,30.153 195.024,17.085 
	192.068,17.82 190.401,20.593 185.286,21.871 "/>
<path fill="#FFCC73" d="M160.797,16.647c-1.191-4.771-6.022-7.669-10.792-6.477c-4.769,1.189-7.672,6.02-6.479,10.789
	c1.193,4.771,6.023,7.671,10.793,6.478C159.088,26.247,161.991,21.418,160.797,16.647z M153.553,24.371
	c-3.074,0.767-6.188-1.103-6.957-4.178c-0.764-3.074,1.103-6.187,4.178-6.953c3.074-0.768,6.189,1.101,6.954,4.177
	C158.496,20.488,156.628,23.601,153.553,24.371z"/>
<path fill="#0C488D" d="M182.723,8.592c-1.518-6.073-7.674-9.771-13.746-8.251c-6.079,1.515-9.771,7.67-8.257,13.747
	c1.518,6.077,7.675,9.771,13.747,8.253C180.547,20.824,184.243,14.669,182.723,8.592z M173.717,19.332
	c-4.053,1.016-8.161-1.453-9.172-5.506c-1.015-4.055,1.451-8.162,5.504-9.175c4.057-1.014,8.164,1.455,9.178,5.509
	C180.239,14.214,177.774,18.321,173.717,19.332z"/>
<g>
	<path fill="#0C488D" d="M211.795,23.655c9.066-0.131,17.658-2.674,23.271-10.185c0.309-0.409,0.824-0.085,1.385,2.128
		c0.563,2.213,1.217,7.99,1.324,10.418c0.063,1.513,0.098,2.508,0.114,3.045c0.021,0.532,0.046,1.527,0.077,3.041
		c0.049,2.432-0.24,8.247-0.661,10.497c-0.425,2.249-0.916,2.612-1.243,2.229c-6.08-7.06-14.809-8.938-23.865-8.372L211.795,23.655z
		"/>
	<path fill="#0C488D" d="M240.936,26.842c-0.049-1.6-1.209-2.88-2.627-2.977c0.074,0.831,0.131,1.565,0.152,2.127
		c0.063,1.511,0.099,2.506,0.115,3.044c0.02,0.534,0.047,1.527,0.074,3.042c0.014,0.562,0.01,1.301-0.02,2.135
		c1.41-0.207,2.484-1.571,2.438-3.172L240.936,26.842z"/>
</g>
<polygon fill="#FFCC73" points="244.106,23.244 256.633,11.706 245.213,24.621 "/>
<polygon fill="#FFCC73" points="246.17,26.8 261.235,26.587 246.34,28.946 "/>
<polygon fill="#FFCC73" points="246.062,32.86 260.112,42.024 245.254,34.471 "/>
<g>
	<path fill="#FFCC73" d="M263.229,112.466h-1.084v26.878h1.084c0.922,0,1.672-0.745,1.672-1.665v-23.545
		C264.901,113.213,264.151,112.466,263.229,112.466z"/>
	<path fill="#FFCC73" d="M293.51,112.466h-1.246c-0.924,0-1.674,0.747-1.674,1.668v23.545c0,0.918,0.75,1.664,1.672,1.664h1.248
		V112.466L293.51,112.466z"/>
	<path fill="#0C488D" d="M305.249,116.292c-0.115-15.074-12.4-27.306-27.5-27.306c-15.104,0-27.392,12.229-27.506,27.306
		c-3.014,2.133-4.988,5.638-4.988,9.616c0,6.364,5.054,11.521,11.357,11.77c0,0.921,0.743,1.666,1.668,1.666h3.176v-26.878h-3.176
		c-0.925,0-1.668,0.747-1.668,1.668c-0.621,0.026-1.222,0.131-1.816,0.248c1.074-11.721,10.953-20.938,22.953-20.938
		c11.998,0,21.873,9.219,22.945,20.938c-0.594-0.117-1.189-0.222-1.814-0.248c0-0.921-0.746-1.668-1.67-1.668h-3.008v26.877h3.012
		c0.92,0,1.666-0.746,1.666-1.664c1.259-0.054,2.469-0.304,3.6-0.714l2.332-1.163c3.262-2.1,5.428-5.731,5.428-9.894
		C310.237,121.929,308.264,118.425,305.249,116.292z"/>
</g>
<path fill="#0C488D" d="M60.359,101.077H20.443c-1.698,0-3.502,1.063-3.502,2.762v28.19c0,1.693,1.804,3.979,3.502,3.979h15.313
	c0,0,0.638,5.245-5.007,5.245v1.304h18.51v-1.304c-5.648,0-4.221-5.245-4.221-5.245h15.32c1.695,0,2.707-2.282,2.707-3.979v-28.19
	C63.066,102.139,62.054,101.077,60.359,101.077z M40.41,134.249c-1.2,0-2.172-0.97-2.172-2.16c0-1.192,0.973-2.161,2.172-2.161
	c1.201,0,2.176,0.969,2.176,2.161C42.583,133.28,41.611,134.249,40.41,134.249z M59.929,127.586H19.767v-23.703H59.93
	L59.929,127.586L59.929,127.586z"/>
<path fill="#0C488D" d="M305.364,22.573c0-9.923-8.047-17.971-17.971-17.971s-17.969,8.046-17.969,17.971
	c0,8.034,5.273,14.831,12.545,17.135c-0.316,1.966-1.568,4.813-6.227,4.813v1.65h23.299v-1.65c-4.867,0-5.561-3.112-5.51-5.076
	C300.428,36.933,305.364,30.338,305.364,22.573z M287.393,9.978c1.002,0,1.813,0.812,1.813,1.813s-0.811,1.813-1.813,1.813
	c-1,0-1.813-0.812-1.813-1.813S286.391,9.978,287.393,9.978z M287.393,29.615c-3.553,0-6.436-2.88-6.436-6.436
	c0-3.558,2.881-6.438,6.436-6.438s6.436,2.88,6.436,6.438C293.829,26.735,290.948,29.615,287.393,29.615z"/>
<rect x="93.822" y="94.841" fill="#0C488D" width="13.191" height="13.19"/>
<rect x="107.011" y="109.057" fill="#FFCC73" width="13.191" height="13.189"/>
<rect x="121.339" y="109.057" fill="#0C488D" width="13.191" height="13.189"/>
<rect x="135.225" y="109.057" fill="#FFCC73" width="13.191" height="13.189"/>
<rect x="107.011" y="123.184" fill="#0C488D" width="13.191" height="13.19"/>
<rect x="121.339" y="123.184" fill="#FFCC73" width="13.191" height="13.19"/>
<rect x="135.225" y="123.184" fill="#0C488D" width="13.191" height="13.19"/>
<rect x="201.696" y="124.542" fill="#FFCC73" width="3.868" height="8.188"/>
<path fill="#0C488D" d="M211.311,139.179c-1.324-2.925-4.26-4.961-7.68-4.961s-6.355,2.039-7.682,4.961H211.311z"/>
<path fill="#0C488D" d="M206.917,118.56v-1.288h5.14c0-0.032,0.012-0.063,0.012-0.1v-1.793h-5.147v-1.287h5.147v-1.894h-5.147
	v-1.288h5.147v-1.894h-5.147v-1.29h5.147v-1.891h-5.147v-1.292h5.147v-1.894h-5.147v-1.286h5.147v-1.894h-5.147v-1.289h5.147v-1.894
	h-5.147V95h5.147v-1.793c0-0.034-0.012-0.065-0.012-0.099h-5.14v-1.29h4.914c-0.593-1.881-2.33-3.254-4.404-3.254h-7.59
	c-2.074,0-3.813,1.373-4.403,3.254h4.914v1.29h-5.14c0,0.031-0.012,0.063-0.012,0.099V95h5.149v1.291h-5.149v1.894h5.149v1.289
	h-5.149v1.894h5.149v1.286h-5.149v1.894h5.149v1.292h-5.149v1.891h5.149v1.29h-5.149v1.894h5.149v1.288h-5.149v1.895h5.149v1.286
	h-5.149v1.795c0,0.035,0.012,0.063,0.012,0.1h5.14v1.286h-4.914c0.591,1.882,2.329,3.257,4.403,3.257h7.59
	c2.074,0,3.814-1.375,4.404-3.257h-4.914V118.56z"/>
<path fill="#FFCC73" d="M208.784,125.701h-10.305c-3.838,0-6.957-3.119-6.957-6.955V105.86c0-0.64,0.516-1.155,1.158-1.155
	c0.638,0,1.154,0.518,1.154,1.155v12.887c0,2.559,2.084,4.641,4.641,4.641h10.307c2.559,0,4.643-2.082,4.643-4.641V105.86
	c0-0.64,0.519-1.155,1.154-1.155c0.645,0,1.158,0.518,1.158,1.155v12.887C215.741,122.582,212.62,125.701,208.784,125.701z"/>
<circle fill="#FFCC73" cx="287.394" cy="11.529" r="3.228"/>
<circle fill="#FFCC73" cx="40.505" cy="132.143" r="2.254"/>
<circle fill="#FFCC73" cx="12.484" cy="63.672" r="2.506"/>
<circle fill="#FFCC73" cx="67.132" cy="63.672" r="2.506"/>
<circle fill="#FFCC73" cx="146.921" cy="63.672" r="2.506"/>
<circle fill="#FFCC73" cx="206.426" cy="63.672" r="2.506"/>
<circle fill="#FFCC73" cx="263.997" cy="63.672" r="2.506"/>
<circle fill="#FFCC73" cx="2.506" cy="155.459" r="2.506"/>
<circle fill="#FFCC73" cx="87.316" cy="155.459" r="2.506"/>
<circle fill="#FFCC73" cx="164.969" cy="155.459" r="2.506"/>
<circle fill="#FFCC73" cx="248.676" cy="155.459" r="2.506"/>
<g>
	<g>
		<path fill="#191919" d="M20.649,55.642h-0.028l-1.681,0.783l-0.098-1.273l2.325-1.077h1.358l-1.723,9.104h-1.583L20.649,55.642z"
			/>
		<path fill="#191919" d="M34.26,62.758c-0.645,0.225-1.723,0.519-2.886,0.519c-1.303,0-2.367-0.363-3.109-1.105
			c-0.743-0.714-1.079-1.751-1.079-2.829c0-1.681,0.672-3.264,1.891-4.313c1.037-0.883,2.452-1.387,4.034-1.387
			c1.191,0,2.045,0.252,2.381,0.436l-0.504,1.372c-0.448-0.225-1.149-0.393-2.003-0.393c-1.008,0-1.933,0.321-2.633,0.924
			c-0.854,0.729-1.387,1.946-1.387,3.235c0,1.694,0.924,2.676,2.689,2.676c0.504,0,0.924-0.099,1.205-0.21l0.448-2.367H31.64
			l0.266-1.315h3.25L34.26,62.758z"/>
		<path fill="#191919" d="M37.714,53.891c0.63-0.141,1.415-0.225,2.27-0.225c0.98,0,1.695,0.168,2.269,0.574
			c0.546,0.336,0.911,0.896,0.911,1.609c0,1.189-0.925,2.003-1.961,2.282v0.042c0.883,0.268,1.513,0.995,1.513,2.073
			c0,0.995-0.533,1.736-1.219,2.213c-0.785,0.562-1.905,0.771-3.334,0.771c-0.953,0-1.737-0.057-2.185-0.141L37.714,53.891z
			 M37.785,61.903c0.266,0.027,0.56,0.042,0.868,0.042c1.219,0,2.339-0.489,2.339-1.751c0-1.009-0.854-1.387-1.849-1.387h-0.771
			L37.785,61.903z M38.625,57.603h0.756c1.219,0,2.101-0.574,2.101-1.541c0-0.771-0.602-1.105-1.499-1.105
			c-0.378,0-0.701,0.027-0.869,0.069L38.625,57.603z"/>
		<path fill="#191919" d="M53.859,53.232l-1.429,7.521c-0.154,0.784-0.266,1.682-0.308,2.423h-1.499l0.14-1.219h-0.028
			c-0.617,0.938-1.457,1.373-2.339,1.373c-1.219,0-2.073-0.995-2.073-2.535c0-2.396,1.751-4.595,4.258-4.595
			c0.35,0,0.756,0.069,1.051,0.195l0.602-3.166L53.859,53.232L53.859,53.232z M51.394,57.729c-0.196-0.141-0.532-0.267-0.938-0.267
			c-1.401,0-2.438,1.556-2.438,3.081c0,0.827,0.322,1.472,1.093,1.472c0.729,0,1.597-0.799,1.877-2.214L51.394,57.729z"/>
		<path fill="#191919" d="M59.164,62.785c-0.672,0.351-1.583,0.531-2.409,0.531c-1.891,0-2.801-1.147-2.801-2.814
			c0-2.06,1.513-4.3,3.866-4.3c1.345,0,2.199,0.783,2.199,1.919c0,1.751-1.835,2.313-4.468,2.255
			c-0.028,0.238,0.028,0.7,0.182,0.967c0.266,0.463,0.756,0.7,1.401,0.7c0.77,0,1.387-0.195,1.877-0.447L59.164,62.785z
			 M57.609,57.421c-1.022,0-1.695,0.91-1.891,1.736c1.681,0.027,2.76-0.211,2.76-1.022C58.478,57.687,58.127,57.421,57.609,57.421z"
			/>
		<path fill="#191919" d="M26.836,65.69c0.602-0.141,1.485-0.225,2.325-0.225c0.911,0,1.779,0.183,2.367,0.616
			c0.532,0.363,0.896,0.938,0.896,1.709c0,1.388-0.98,2.339-2.185,2.703l-0.014,0.042c0.616,0.237,0.883,0.896,0.967,1.793
			c0.112,1.177,0.182,2.271,0.336,2.646h-1.681c-0.07-0.226-0.168-1.121-0.252-2.255c-0.07-1.205-0.504-1.641-1.373-1.641h-0.798
			l-0.743,3.896H25.07L26.836,65.69z M27.663,69.837h0.925c1.274,0,2.129-0.783,2.129-1.808c0-0.868-0.686-1.261-1.611-1.261
			c-0.406,0-0.672,0.026-0.868,0.084L27.663,69.837z"/>
		<path fill="#191919" d="M35.25,72.288l-1.289,2.688h-1.737l4.734-9.44h2.045l1.191,9.44h-1.709l-0.266-2.688H35.25z
			 M38.122,71.027l-0.266-2.354c-0.042-0.504-0.098-1.231-0.14-1.793h-0.028c-0.252,0.562-0.504,1.232-0.771,1.793l-1.148,2.354
			H38.122z"/>
		<path fill="#191919" d="M49.197,74.978l0.63-4.439c0.14-0.968,0.336-2.297,0.574-3.46H50.36c-0.49,1.105-1.05,2.324-1.569,3.319
			l-2.325,4.469h-1.261l-0.49-4.398c-0.112-1.05-0.196-2.269-0.252-3.39h-0.028c-0.252,1.079-0.533,2.508-0.771,3.46l-1.079,4.439
			h-1.513l2.396-9.44h2.157l0.504,4.413c0.07,0.84,0.168,1.819,0.182,2.717h0.056c0.336-0.896,0.785-1.892,1.191-2.703l2.283-4.427
			h2.185l-1.247,9.44H49.197z"/>
	</g>
</g>
<g>
	<g>
		<path fill="#191919" d="M79.038,53.877c0.771-0.142,1.611-0.21,2.493-0.21c1.513,0,2.704,0.393,3.46,1.134
			c0.645,0.59,1.079,1.473,1.079,2.774c0,1.777-0.729,3.402-1.919,4.384c-1.093,0.896-2.479,1.273-4.413,1.273
			c-0.995,0-1.919-0.068-2.451-0.141L79.038,53.877z M79.164,61.847c0.322,0.042,0.672,0.057,1.037,0.057
			c1.274,0,2.297-0.405,2.983-1.162c0.743-0.784,1.121-1.905,1.121-3.139c0-1.567-0.826-2.619-2.801-2.619
			c-0.378,0-0.785,0.028-1.051,0.084L79.164,61.847z"/>
		<path fill="#191919" d="M86.597,63.178l1.289-6.821h1.639l-1.302,6.821H86.597z M88.151,54.507c0-0.588,0.448-0.993,0.98-0.993
			c0.504,0,0.869,0.363,0.869,0.882c-0.014,0.604-0.462,0.98-1.009,0.98C88.488,55.376,88.137,55.012,88.151,54.507z"/>
		<path fill="#191919" d="M90.25,61.651c0.35,0.195,1.022,0.462,1.639,0.462c0.659-0.014,1.051-0.393,1.051-0.841
			c0-0.435-0.224-0.7-0.896-1.051c-0.785-0.406-1.345-0.994-1.345-1.778c0-1.316,1.148-2.24,2.759-2.24
			c0.715,0,1.303,0.168,1.611,0.351l-0.42,1.177c-0.252-0.141-0.714-0.309-1.275-0.309c-0.616,0-1.037,0.336-1.037,0.799
			c0,0.379,0.309,0.646,0.883,0.938c0.742,0.405,1.415,0.967,1.415,1.835c0,1.499-1.261,2.324-2.899,2.324
			c-0.798,0-1.541-0.225-1.905-0.489L90.25,61.651z"/>
		<path fill="#191919" d="M100.515,62.939c-0.392,0.195-1.093,0.378-1.961,0.378c-1.709,0-2.76-1.092-2.76-2.717
			c0-2.383,1.807-4.397,4.342-4.397c0.603,0,1.135,0.153,1.387,0.266l-0.42,1.275c-0.252-0.112-0.574-0.211-1.022-0.211
			c-1.583,0-2.578,1.457-2.578,2.871c0,1.021,0.588,1.598,1.499,1.598c0.63,0,1.106-0.168,1.457-0.321L100.515,62.939z"/>
		<path fill="#191919" d="M108.426,59.031c0,2.312-1.625,4.301-3.95,4.301c-1.723,0-2.788-1.189-2.788-2.814
			c0-2.313,1.611-4.313,3.936-4.313C107.459,56.202,108.426,57.519,108.426,59.031z M103.369,60.475
			c0,0.938,0.504,1.597,1.331,1.597c1.219,0,2.031-1.681,2.031-3.039c0-0.7-0.309-1.568-1.303-1.568
			C104.126,57.463,103.369,59.199,103.369,60.475z"/>
		<path fill="#191919" d="M119.347,53.232l-1.429,7.521c-0.154,0.784-0.266,1.682-0.308,2.423h-1.499l0.14-1.219h-0.028
			c-0.616,0.938-1.457,1.373-2.339,1.373c-1.219,0-2.073-0.995-2.073-2.535c0-2.396,1.751-4.595,4.258-4.595
			c0.35,0,0.756,0.069,1.05,0.195l0.603-3.166L119.347,53.232L119.347,53.232z M116.881,57.729
			c-0.196-0.141-0.532-0.267-0.938-0.267c-1.401,0-2.438,1.556-2.438,3.081c0,0.827,0.322,1.472,1.093,1.472
			c0.728,0,1.597-0.799,1.877-2.214L116.881,57.729z"/>
		<path fill="#191919" d="M126.36,56.356l-0.896,4.706c-0.154,0.813-0.252,1.526-0.336,2.114h-1.443l0.14-1.189h-0.028
			c-0.658,0.883-1.513,1.346-2.367,1.346c-0.995,0-1.779-0.532-1.779-1.935c0-0.363,0.042-0.756,0.14-1.219l0.729-3.823h1.625
			l-0.7,3.727c-0.07,0.336-0.112,0.673-0.112,0.938c0,0.562,0.224,0.967,0.869,0.967c0.756,0,1.639-0.896,1.905-2.313l0.63-3.318
			L126.36,56.356L126.36,56.356z"/>
		<path fill="#191919" d="M126.93,63.178l0.798-4.202c0.182-0.968,0.266-2.003,0.35-2.619h1.415
			c-0.042,0.462-0.084,0.938-0.154,1.441h0.042c0.462-0.925,1.205-1.597,2.143-1.597c0.112,0,0.238,0.014,0.35,0.026l-0.322,1.599
			c-0.084-0.016-0.196-0.028-0.309-0.028c-1.163,0-1.905,1.178-2.171,2.635l-0.519,2.745H126.93z"/>
		<path fill="#191919" d="M138.638,59.031c0,2.312-1.625,4.301-3.95,4.301c-1.723,0-2.788-1.189-2.788-2.814
			c0-2.313,1.611-4.313,3.936-4.313C137.671,56.202,138.638,57.519,138.638,59.031z M133.581,60.475
			c0,0.938,0.504,1.597,1.331,1.597c1.219,0,2.031-1.681,2.031-3.039c0-0.7-0.308-1.568-1.302-1.568
			C134.337,57.463,133.581,59.199,133.581,60.475z"/>
		<path fill="#191919" d="M99.354,67.861c0,1.021-0.687,1.779-1.695,2.257v0.042c0.869,0.476,1.289,1.273,1.289,2.072
			c0,1.903-1.779,2.898-3.46,2.898c-1.835,0-2.9-0.979-2.9-2.313s0.939-2.213,2.031-2.646V70.13
			c-0.658-0.489-0.938-1.093-0.938-1.736c0-1.598,1.471-2.676,3.152-2.676C98.262,65.719,99.354,66.503,99.354,67.861z
			 M97.239,72.385c0-0.798-0.504-1.287-1.373-1.597c-0.784,0.21-1.583,0.841-1.583,1.835c0,0.7,0.476,1.303,1.358,1.303
			C96.511,73.927,97.239,73.324,97.239,72.385z M95.25,68.282c0,0.645,0.448,1.077,1.177,1.329c0.714-0.237,1.358-0.813,1.358-1.567
			c0-0.573-0.336-1.121-1.134-1.121C95.853,66.923,95.25,67.567,95.25,68.282z"/>
		<path fill="#191919" d="M106.732,68.716c0,2.914-1.401,6.416-4.118,6.416c-1.793,0-2.479-1.415-2.479-3.208
			c0-2.94,1.513-6.205,4.146-6.205C106.13,65.719,106.732,67.203,106.732,68.716z M101.746,71.979c0,0.813,0.154,1.851,1.079,1.851
			c1.527,0,2.283-3.586,2.283-5.058c0-0.673-0.098-1.751-1.022-1.751C102.642,67.021,101.746,70.257,101.746,71.979z"/>
		<path fill="#191919" d="M117.148,74.558c-0.645,0.225-1.723,0.519-2.886,0.519c-1.303,0-2.367-0.364-3.109-1.105
			c-0.743-0.715-1.079-1.751-1.079-2.829c0-1.682,0.672-3.265,1.891-4.313c1.036-0.884,2.451-1.388,4.034-1.388
			c1.19,0,2.045,0.252,2.381,0.436l-0.504,1.372c-0.448-0.225-1.149-0.393-2.003-0.393c-1.008,0-1.933,0.321-2.633,0.924
			c-0.854,0.729-1.387,1.947-1.387,3.236c0,1.693,0.924,2.675,2.689,2.675c0.504,0,0.924-0.099,1.205-0.21l0.448-2.367h-1.667
			l0.266-1.315h3.25L117.148,74.558z"/>
		<path fill="#191919" d="M120.603,65.69c0.63-0.141,1.415-0.225,2.269-0.225c0.981,0,1.695,0.168,2.27,0.574
			c0.546,0.336,0.911,0.896,0.911,1.609c0,1.189-0.925,2.003-1.961,2.283v0.042c0.883,0.268,1.513,0.994,1.513,2.072
			c0,0.995-0.533,1.737-1.219,2.213c-0.785,0.562-1.905,0.771-3.334,0.771c-0.953,0-1.737-0.057-2.185-0.141L120.603,65.69z
			 M120.673,73.703c0.266,0.026,0.56,0.042,0.868,0.042c1.219,0,2.339-0.49,2.339-1.751c0-1.01-0.854-1.388-1.849-1.388h-0.771
			L120.673,73.703z M121.514,69.402h0.756c1.219,0,2.101-0.573,2.101-1.541c0-0.771-0.603-1.105-1.499-1.105
			c-0.378,0-0.7,0.028-0.868,0.07L121.514,69.402z"/>
	</g>
</g>
<g>
	<g>
		<path fill="#191919" d="M157.824,55.165h-2.62l0.28-1.43h6.878l-0.279,1.43h-2.633l-1.514,8.014h-1.639L157.824,55.165z"/>
		<path fill="#191919" d="M164.993,63.178c0.014-0.406,0.07-0.952,0.127-1.541h-0.043c-0.672,1.261-1.568,1.694-2.438,1.694
			c-1.219,0-2.018-0.953-2.018-2.325c0-2.324,1.625-4.805,4.805-4.805c0.742,0,1.541,0.14,2.06,0.308l-0.7,3.56
			c-0.195,1.021-0.309,2.298-0.279,3.109H164.993z M165.665,57.532c-0.168-0.042-0.377-0.069-0.672-0.069
			c-1.513,0-2.676,1.694-2.676,3.25c0,0.714,0.266,1.303,0.98,1.303c0.757,0,1.682-0.952,2.004-2.688L165.665,57.532z"/>
		<path fill="#191919" d="M168.112,63.178l0.799-4.202c0.182-0.968,0.266-2.003,0.352-2.619h1.414
			c-0.043,0.462-0.086,0.938-0.153,1.441h0.042c0.463-0.925,1.205-1.597,2.145-1.597c0.111,0,0.236,0.014,0.351,0.027l-0.321,1.598
			c-0.084-0.016-0.197-0.028-0.309-0.028c-1.163,0-1.905,1.178-2.172,2.635l-0.52,2.745H168.112z"/>
		<path fill="#191919" d="M176.038,56.356l-1.262,6.683c-0.225,1.147-0.49,1.892-0.924,2.366c-0.42,0.477-1.064,0.7-1.723,0.7
			c-0.295,0-0.604-0.027-0.883-0.1l0.194-1.246c0.126,0.028,0.28,0.042,0.49,0.042c0.521,0,0.938-0.294,1.177-1.597l1.305-6.851
			L176.038,56.356L176.038,56.356z M174.594,54.507c0-0.588,0.449-0.993,0.98-0.993c0.518,0,0.867,0.363,0.867,0.882
			c0,0.604-0.447,0.98-1.009,0.98C174.945,55.376,174.594,55.012,174.594,54.507z"/>
		<path fill="#191919" d="M181.875,62.785c-0.672,0.351-1.582,0.531-2.408,0.531c-1.893,0-2.803-1.147-2.803-2.814
			c0-2.06,1.514-4.3,3.865-4.3c1.346,0,2.199,0.783,2.199,1.919c0,1.751-1.836,2.313-4.469,2.255
			c-0.027,0.238,0.025,0.7,0.182,0.967c0.268,0.463,0.758,0.7,1.4,0.7c0.771,0,1.387-0.195,1.877-0.447L181.875,62.785z
			 M180.321,57.421c-1.021,0-1.693,0.91-1.891,1.736c1.682,0.027,2.76-0.211,2.76-1.022C181.19,57.687,180.84,57.421,180.321,57.421
			z"/>
		<path fill="#191919" d="M186.719,54.479l-0.35,1.877h1.541l-0.252,1.262h-1.527l-0.547,2.759
			c-0.059,0.322-0.111,0.673-0.111,0.967c0,0.364,0.168,0.604,0.602,0.604c0.195,0,0.393,0,0.563-0.027l-0.154,1.273
			c-0.236,0.084-0.672,0.142-1.063,0.142c-1.121,0-1.625-0.616-1.625-1.4c0-0.393,0.043-0.771,0.154-1.273l0.588-3.039h-0.926
			l0.238-1.262h0.924l0.281-1.472L186.719,54.479z"/>
		<path fill="#191919" d="M192.375,63.178c0.014-0.406,0.068-0.952,0.127-1.541h-0.043c-0.672,1.261-1.568,1.694-2.438,1.694
			c-1.22,0-2.017-0.953-2.017-2.325c0-2.324,1.625-4.805,4.806-4.805c0.741,0,1.539,0.14,2.06,0.308l-0.701,3.56
			c-0.194,1.021-0.31,2.298-0.278,3.109H192.375z M193.047,57.532c-0.168-0.042-0.377-0.069-0.672-0.069
			c-1.514,0-2.676,1.694-2.676,3.25c0,0.714,0.268,1.303,0.979,1.303c0.758,0,1.682-0.952,2.004-2.688L193.047,57.532z"/>
		<path fill="#191919" d="M162.233,68.156l0.434,3.39c0.084,0.813,0.168,1.33,0.196,1.778h0.042
			c0.168-0.435,0.364-0.925,0.743-1.736l1.694-3.432h1.808l-3.796,6.82h-1.639l-1.164-6.82H162.233z"/>
		<path fill="#191919" d="M166.963,74.978l1.289-6.82h1.639l-1.303,6.82H166.963z M168.518,66.307c0-0.589,0.449-0.994,0.98-0.994
			c0.504,0,0.869,0.363,0.869,0.882c-0.016,0.604-0.465,0.98-1.011,0.98C168.855,67.176,168.504,66.812,168.518,66.307z"/>
		<path fill="#191919" d="M178.112,65.032l-1.428,7.521c-0.154,0.784-0.268,1.682-0.309,2.424h-1.5l0.141-1.22h-0.027
			c-0.617,0.938-1.457,1.373-2.34,1.373c-1.219,0-2.072-0.995-2.072-2.535c0-2.396,1.75-4.595,4.258-4.595
			c0.352,0,0.756,0.069,1.053,0.195l0.602-3.165L178.112,65.032L178.112,65.032z M175.647,69.528
			c-0.195-0.14-0.531-0.266-0.938-0.266c-1.401,0-2.438,1.555-2.438,3.08c0,0.827,0.321,1.472,1.093,1.472
			c0.729,0,1.598-0.798,1.877-2.213L175.647,69.528z"/>
		<path fill="#191919" d="M183.417,74.585c-0.672,0.352-1.582,0.532-2.408,0.532c-1.893,0-2.803-1.148-2.803-2.815
			c0-2.059,1.516-4.3,3.867-4.3c1.344,0,2.199,0.784,2.199,1.919c0,1.751-1.836,2.313-4.469,2.255
			c-0.028,0.238,0.027,0.7,0.182,0.968c0.266,0.462,0.756,0.699,1.4,0.699c0.771,0,1.387-0.195,1.877-0.447L183.417,74.585z
			 M181.862,69.221c-1.023,0-1.695,0.909-1.891,1.735c1.68,0.027,2.76-0.21,2.76-1.021
			C182.731,69.486,182.379,69.221,181.862,69.221z"/>
		<path fill="#191919" d="M191.719,70.831c0,2.313-1.625,4.301-3.951,4.301c-1.723,0-2.787-1.189-2.787-2.814
			c0-2.313,1.611-4.313,3.938-4.313C190.752,68.002,191.719,69.318,191.719,70.831z M186.663,72.274c0,0.938,0.504,1.598,1.33,1.598
			c1.219,0,2.031-1.682,2.031-3.04c0-0.7-0.309-1.567-1.303-1.567C187.418,69.263,186.663,70.999,186.663,72.274z"/>
	</g>
</g>
<g>
	<g>
		<path fill="#191919" d="M216.327,55.165h-2.619l0.28-1.43h6.878l-0.279,1.43h-2.635l-1.513,8.014h-1.64L216.327,55.165z"/>
		<path fill="#191919" d="M223.497,63.178c0.014-0.406,0.069-0.952,0.125-1.541h-0.041c-0.672,1.261-1.567,1.694-2.438,1.694
			c-1.219,0-2.018-0.953-2.018-2.325c0-2.324,1.625-4.805,4.805-4.805c0.742,0,1.541,0.14,2.059,0.308l-0.699,3.56
			c-0.197,1.021-0.309,2.298-0.281,3.109H223.497z M224.168,57.532c-0.168-0.042-0.379-0.069-0.672-0.069
			c-1.516,0-2.678,1.694-2.678,3.249c0,0.715,0.268,1.304,0.979,1.304c0.758,0,1.683-0.952,2.004-2.688L224.168,57.532z"/>
		<path fill="#191919" d="M226.616,63.178l0.799-4.202c0.184-0.968,0.268-2.003,0.352-2.619h1.414
			c-0.041,0.462-0.084,0.938-0.154,1.441h0.043c0.463-0.925,1.204-1.597,2.145-1.597c0.111,0,0.238,0.014,0.35,0.026l-0.32,1.599
			c-0.086-0.016-0.197-0.028-0.309-0.028c-1.164,0-1.906,1.178-2.172,2.635l-0.518,2.745H226.616z"/>
		<path fill="#191919" d="M234.542,56.356l-1.262,6.683c-0.225,1.147-0.49,1.892-0.924,2.366c-0.421,0.477-1.064,0.7-1.723,0.7
			c-0.295,0-0.604-0.027-0.883-0.1l0.193-1.246c0.129,0.028,0.281,0.042,0.49,0.042c0.52,0,0.938-0.294,1.178-1.597l1.305-6.851
			L234.542,56.356L234.542,56.356z M233.098,54.507c0-0.588,0.447-0.993,0.98-0.993c0.518,0,0.866,0.363,0.866,0.882
			c0,0.604-0.446,0.98-1.009,0.98C233.448,55.376,233.098,55.012,233.098,54.507z"/>
		<path fill="#191919" d="M240.379,62.785c-0.672,0.351-1.582,0.531-2.408,0.531c-1.893,0-2.803-1.147-2.803-2.814
			c0-2.06,1.514-4.3,3.867-4.3c1.344,0,2.197,0.783,2.197,1.919c0,1.751-1.836,2.313-4.469,2.255
			c-0.027,0.238,0.025,0.7,0.184,0.967c0.266,0.463,0.756,0.7,1.399,0.7c0.771,0,1.387-0.195,1.877-0.447L240.379,62.785z
			 M238.825,57.421c-1.021,0-1.693,0.91-1.891,1.736c1.682,0.027,2.76-0.211,2.76-1.022
			C239.694,57.687,239.344,57.421,238.825,57.421z"/>
		<path fill="#191919" d="M245.223,54.479l-0.352,1.877h1.541l-0.252,1.262h-1.527l-0.545,2.759
			c-0.057,0.322-0.112,0.673-0.112,0.967c0,0.364,0.168,0.604,0.603,0.604c0.195,0,0.395,0,0.563-0.027l-0.154,1.273
			c-0.236,0.084-0.673,0.142-1.063,0.142c-1.121,0-1.625-0.616-1.625-1.4c0-0.393,0.041-0.771,0.154-1.273l0.588-3.039h-0.926
			l0.237-1.262h0.925l0.279-1.471L245.223,54.479z"/>
		<path fill="#191919" d="M250.879,63.178c0.014-0.406,0.07-0.952,0.125-1.541h-0.041c-0.672,1.261-1.568,1.694-2.438,1.694
			c-1.219,0-2.019-0.953-2.019-2.325c0-2.324,1.625-4.805,4.806-4.805c0.742,0,1.541,0.14,2.06,0.308l-0.699,3.56
			c-0.195,1.021-0.31,2.298-0.279,3.109H250.879z M251.551,57.532c-0.168-0.042-0.379-0.069-0.672-0.069
			c-1.514,0-2.676,1.694-2.676,3.249c0,0.715,0.266,1.304,0.979,1.304c0.757,0,1.684-0.952,2.004-2.688L251.551,57.532z"/>
		<path fill="#191919" d="M215.176,73.451c0.352,0.194,1.023,0.462,1.64,0.462c0.659-0.015,1.052-0.394,1.052-0.842
			c0-0.434-0.225-0.699-0.896-1.051c-0.784-0.404-1.347-0.994-1.347-1.777c0-1.316,1.148-2.241,2.76-2.241
			c0.717,0,1.305,0.168,1.611,0.351l-0.42,1.177c-0.254-0.14-0.715-0.308-1.275-0.308c-0.615,0-1.035,0.336-1.035,0.798
			c0,0.379,0.311,0.646,0.883,0.938c0.742,0.405,1.414,0.967,1.414,1.835c0,1.499-1.262,2.325-2.896,2.325
			c-0.799,0-1.541-0.225-1.906-0.49L215.176,73.451z"/>
		<path fill="#191919" d="M227.473,70.831c0,2.313-1.625,4.301-3.951,4.301c-1.723,0-2.787-1.189-2.787-2.814
			c0-2.313,1.611-4.313,3.936-4.313C226.506,68.002,227.473,69.318,227.473,70.831z M222.417,72.274c0,0.938,0.504,1.598,1.33,1.598
			c1.219,0,2.031-1.682,2.031-3.04c0-0.7-0.309-1.567-1.303-1.567C223.172,69.263,222.417,70.999,222.417,72.274z"/>
		<path fill="#191919" d="M228.168,74.978l0.883-4.707c0.168-0.813,0.266-1.525,0.35-2.113h1.443l-0.141,1.231h0.027
			c0.629-0.926,1.498-1.388,2.451-1.388c0.966,0,1.734,0.588,1.734,1.877c0,0.309-0.057,0.784-0.125,1.136l-0.758,3.964h-1.625
			l0.729-3.854c0.043-0.252,0.084-0.546,0.084-0.813c0-0.562-0.209-0.98-0.854-0.98c-0.742,0-1.695,0.896-1.99,2.494l-0.588,3.15
			L228.168,74.978L228.168,74.978z"/>
		<path fill="#191919" d="M235.87,74.978l1.289-6.82h1.639l-1.303,6.82H235.87z M237.424,66.307c0-0.589,0.447-0.994,0.979-0.994
			c0.506,0,0.868,0.363,0.868,0.882c-0.017,0.604-0.462,0.98-1.009,0.98C237.76,67.176,237.411,66.812,237.424,66.307z"/>
		<path fill="#191919" d="M247.017,65.032l-1.429,7.521c-0.154,0.784-0.268,1.682-0.311,2.424h-1.496l0.139-1.22h-0.027
			c-0.616,0.938-1.457,1.373-2.339,1.373c-1.22,0-2.073-0.995-2.073-2.535c0-2.396,1.751-4.595,4.258-4.595
			c0.352,0,0.758,0.069,1.051,0.195l0.604-3.165L247.017,65.032L247.017,65.032z M244.551,69.528
			c-0.195-0.14-0.531-0.266-0.938-0.266c-1.401,0-2.438,1.555-2.438,3.08c0,0.827,0.322,1.472,1.094,1.472
			c0.729,0,1.6-0.798,1.877-2.213L244.551,69.528z"/>
		<path fill="#191919" d="M253.875,70.831c0,2.313-1.625,4.301-3.949,4.301c-1.723,0-2.787-1.189-2.787-2.814
			c0-2.313,1.609-4.313,3.936-4.313C252.911,68.002,253.875,69.318,253.875,70.831z M248.819,72.274
			c0,0.938,0.506,1.598,1.332,1.598c1.219,0,2.031-1.682,2.031-3.04c0-0.7-0.309-1.567-1.303-1.567
			C249.577,69.263,248.819,70.999,248.819,72.274z"/>
	</g>
</g>
<g>
	<g>
		<path fill="#191919" d="M11.667,145.677c0.574-0.14,1.429-0.224,2.283-0.224c0.869,0,1.807,0.182,2.409,0.672
			c0.561,0.42,0.869,1.037,0.869,1.877c0,1.121-0.518,2.019-1.205,2.563c-0.756,0.604-1.835,0.896-2.956,0.896
			c-0.336,0-0.63-0.042-0.882-0.069l-0.672,3.571H9.901L11.667,145.677z M12.437,150.048c0.266,0.058,0.504,0.084,0.854,0.084
			c1.387,0,2.297-0.882,2.297-2.003c0-0.994-0.714-1.357-1.639-1.357c-0.406,0-0.714,0.027-0.896,0.084L12.437,150.048z"/>
		<path fill="#191919" d="M21.58,154.965c0.014-0.405,0.07-0.951,0.126-1.541h-0.042c-0.672,1.262-1.569,1.695-2.438,1.695
			c-1.219,0-2.017-0.953-2.017-2.325c0-2.325,1.625-4.805,4.805-4.805c0.743,0,1.541,0.14,2.059,0.308l-0.7,3.56
			c-0.196,1.021-0.308,2.297-0.28,3.108H21.58L21.58,154.965z M22.252,149.319c-0.168-0.042-0.378-0.068-0.672-0.068
			c-1.513,0-2.676,1.693-2.676,3.249c0,0.715,0.267,1.303,0.981,1.303c0.756,0,1.681-0.951,2.003-2.688L22.252,149.319z"/>
		<path fill="#191919" d="M24.699,154.965l0.882-4.706c0.168-0.813,0.266-1.526,0.35-2.114h1.443l-0.14,1.231h0.028
			c0.63-0.925,1.499-1.387,2.451-1.387c0.966,0,1.737,0.588,1.737,1.877c0,0.308-0.056,0.783-0.126,1.135l-0.756,3.964h-1.625
			l0.729-3.854c0.042-0.252,0.084-0.546,0.084-0.813c0-0.561-0.21-0.98-0.854-0.98c-0.742,0-1.695,0.896-1.989,2.494l-0.588,3.15
			L24.699,154.965L24.699,154.965z"/>
		<path fill="#191919" d="M35.887,146.267l-0.35,1.877h1.541l-0.252,1.261h-1.527l-0.546,2.76c-0.056,0.321-0.112,0.673-0.112,0.967
			c0,0.364,0.168,0.604,0.602,0.604c0.196,0,0.393,0,0.561-0.027l-0.154,1.273c-0.238,0.084-0.672,0.142-1.064,0.142
			c-1.121,0-1.625-0.616-1.625-1.4c0-0.393,0.042-0.771,0.154-1.274l0.588-3.038h-0.925l0.238-1.262h0.924l0.28-1.472
			L35.887,146.267z"/>
		<path fill="#191919" d="M41.543,154.965c0.014-0.405,0.07-0.951,0.126-1.541h-0.042c-0.672,1.262-1.569,1.695-2.438,1.695
			c-1.219,0-2.017-0.953-2.017-2.325c0-2.325,1.625-4.805,4.805-4.805c0.742,0,1.541,0.14,2.059,0.308l-0.7,3.56
			c-0.196,1.021-0.308,2.297-0.28,3.108H41.543L41.543,154.965z M42.216,149.319c-0.168-0.042-0.378-0.068-0.672-0.068
			c-1.513,0-2.676,1.693-2.676,3.249c0,0.715,0.266,1.303,0.981,1.303c0.756,0,1.681-0.951,2.003-2.688L42.216,149.319z"/>
		<path fill="#191919" d="M44.621,154.965l1.905-9.944h1.625l-1.891,9.944H44.621z"/>
		<path fill="#191919" d="M48.107,154.965l1.905-9.944h1.625l-1.891,9.944H48.107z"/>
		<path fill="#191919" d="M56.075,154.965c0.014-0.405,0.07-0.951,0.126-1.541h-0.042c-0.672,1.262-1.569,1.695-2.438,1.695
			c-1.219,0-2.017-0.953-2.017-2.325c0-2.325,1.625-4.805,4.805-4.805c0.743,0,1.541,0.14,2.059,0.308l-0.7,3.56
			c-0.196,1.021-0.308,2.297-0.28,3.108H56.075L56.075,154.965z M56.748,149.319c-0.168-0.042-0.378-0.068-0.672-0.068
			c-1.513,0-2.676,1.693-2.676,3.249c0,0.715,0.267,1.303,0.981,1.303c0.756,0,1.681-0.951,2.003-2.688L56.748,149.319z"/>
		<path fill="#191919" d="M69.377,145.02l-1.429,7.521c-0.154,0.784-0.266,1.682-0.308,2.423h-1.499l0.14-1.219h-0.028
			c-0.616,0.938-1.457,1.373-2.339,1.373c-1.219,0-2.073-0.995-2.073-2.535c0-2.396,1.751-4.595,4.258-4.595
			c0.35,0,0.756,0.069,1.05,0.195l0.603-3.166L69.377,145.02L69.377,145.02z M66.912,149.516c-0.196-0.141-0.532-0.267-0.938-0.267
			c-1.401,0-2.438,1.556-2.438,3.081c0,0.827,0.322,1.471,1.093,1.471c0.728,0,1.597-0.798,1.877-2.213L66.912,149.516z"/>
		<path fill="#191919" d="M74.681,154.573c-0.672,0.351-1.583,0.531-2.409,0.531c-1.891,0-2.801-1.147-2.801-2.814
			c0-2.06,1.513-4.3,3.866-4.3c1.345,0,2.199,0.783,2.199,1.919c0,1.751-1.835,2.313-4.468,2.255
			c-0.028,0.237,0.028,0.699,0.182,0.967c0.266,0.462,0.756,0.7,1.401,0.7c0.771,0,1.387-0.196,1.877-0.448L74.681,154.573z
			 M73.126,149.208c-1.022,0-1.695,0.91-1.891,1.735c1.681,0.028,2.76-0.21,2.76-1.021
			C73.995,149.474,73.645,149.208,73.126,149.208z"/>
		<path fill="#191919" d="M10.792,159.229h-0.028l-1.681,0.784l-0.098-1.273l2.325-1.078h1.358l-1.723,9.104H9.364L10.792,159.229z"
			/>
		<path fill="#191919" d="M20.972,159.061h-3.166l-0.561,1.82c0.154-0.027,0.266-0.027,0.42-0.027c0.546,0,1.205,0.126,1.751,0.504
			c0.687,0.421,1.037,1.19,1.037,2.019c0,2.241-1.849,3.544-3.992,3.544c-1.009,0-1.849-0.268-2.185-0.52l0.448-1.303
			c0.35,0.21,1.037,0.447,1.793,0.447c1.134,0,2.241-0.756,2.241-1.877c0-0.883-0.504-1.555-2.228-1.555
			c-0.42,0-0.714,0.027-1.079,0.056l1.289-4.51h4.51L20.972,159.061z"/>
		<path fill="#191919" d="M23.614,169.538l1.331-7.061c0.154-0.813,0.308-1.835,0.392-2.535h1.471l-0.154,1.12h0.028
			c0.588-0.813,1.429-1.273,2.312-1.273c1.471,0,2.157,1.204,2.157,2.535c0,2.381-1.653,4.595-3.978,4.595
			c-0.63,0-1.106-0.142-1.358-0.294h-0.028l-0.546,2.913H23.614L23.614,169.538z M26.051,165.323
			c0.252,0.21,0.616,0.336,1.093,0.336c1.261,0,2.297-1.682,2.297-3.208c0-0.631-0.28-1.331-1.079-1.331
			c-0.827,0-1.723,0.938-2.017,2.536L26.051,165.323z"/>
		<path fill="#191919" d="M38.878,159.943l-0.896,4.706c-0.154,0.813-0.252,1.526-0.336,2.115h-1.443l0.14-1.189h-0.028
			c-0.658,0.882-1.513,1.345-2.367,1.345c-0.995,0-1.779-0.531-1.779-1.935c0-0.363,0.042-0.756,0.14-1.219l0.729-3.823h1.625
			l-0.7,3.727c-0.07,0.336-0.112,0.673-0.112,0.938c0,0.562,0.224,0.968,0.869,0.968c0.756,0,1.639-0.896,1.905-2.313l0.63-3.319
			L38.878,159.943L38.878,159.943z"/>
		<path fill="#191919" d="M39.449,166.765l1.905-9.945h1.625l-1.891,9.945H39.449z"/>
		<path fill="#191919" d="M43.201,167.983c0.406,0.238,1.163,0.406,1.807,0.406c1.064,0,1.877-0.505,2.213-2.088l0.168-0.771h-0.028
			c-0.56,0.813-1.275,1.203-2.143,1.203c-1.359,0-2.129-1.119-2.143-2.408c0-2.271,1.639-4.538,4.468-4.538
			c0.882,0,1.737,0.195,2.367,0.477l-1.037,5.632c-0.252,1.33-0.644,2.396-1.401,3.039c-0.714,0.589-1.681,0.757-2.535,0.757
			c-0.869,0-1.681-0.184-2.129-0.463L43.201,167.983z M48.131,161.231c-0.168-0.084-0.519-0.168-0.896-0.168
			c-1.429,0-2.438,1.541-2.438,3.013c-0.014,0.715,0.28,1.387,1.093,1.387s1.625-0.967,1.863-2.198L48.131,161.231z"/>
		<path fill="#191919" d="M54.977,166.765c0.014-0.406,0.07-0.952,0.126-1.541h-0.042c-0.672,1.261-1.569,1.694-2.438,1.694
			c-1.219,0-2.017-0.953-2.017-2.325c0-2.324,1.625-4.805,4.805-4.805c0.742,0,1.541,0.141,2.059,0.309l-0.7,3.56
			c-0.196,1.021-0.308,2.297-0.28,3.108H54.977z M55.649,161.119c-0.168-0.042-0.378-0.069-0.672-0.069
			c-1.513,0-2.676,1.694-2.676,3.25c0,0.715,0.266,1.303,0.981,1.303c0.756,0,1.681-0.952,2.003-2.688L55.649,161.119z"/>
		<path fill="#191919" d="M65.717,156.819l-1.429,7.521c-0.154,0.784-0.266,1.682-0.308,2.424h-1.499l0.14-1.22h-0.028
			c-0.616,0.938-1.457,1.373-2.339,1.373c-1.219,0-2.073-0.995-2.073-2.535c0-2.396,1.751-4.595,4.258-4.595
			c0.35,0,0.756,0.069,1.05,0.195l0.603-3.166L65.717,156.819L65.717,156.819z M63.251,161.315
			c-0.196-0.141-0.532-0.267-0.938-0.267c-1.401,0-2.438,1.556-2.438,3.081c0,0.827,0.322,1.472,1.093,1.472
			c0.728,0,1.597-0.799,1.877-2.213L63.251,161.315z"/>
		<path fill="#191919" d="M70.153,166.765c0.014-0.406,0.07-0.952,0.126-1.541h-0.042c-0.672,1.261-1.569,1.694-2.438,1.694
			c-1.219,0-2.017-0.953-2.017-2.325c0-2.324,1.625-4.805,4.805-4.805c0.742,0,1.541,0.141,2.059,0.309l-0.7,3.56
			c-0.196,1.021-0.308,2.297-0.28,3.108H70.153z M70.825,161.119c-0.168-0.042-0.378-0.069-0.672-0.069
			c-1.513,0-2.676,1.694-2.676,3.25c0,0.715,0.266,1.303,0.981,1.303c0.756,0,1.681-0.952,2.003-2.688L70.825,161.119z"/>
		<path fill="#191919" d="M73.398,165.238c0.35,0.195,1.022,0.463,1.639,0.463c0.659-0.015,1.051-0.394,1.051-0.842
			c0-0.435-0.224-0.699-0.896-1.051c-0.784-0.405-1.345-0.994-1.345-1.777c0-1.316,1.148-2.241,2.759-2.241
			c0.714,0,1.303,0.168,1.611,0.351l-0.42,1.177c-0.252-0.14-0.714-0.309-1.275-0.309c-0.616,0-1.037,0.337-1.037,0.799
			c0,0.379,0.309,0.646,0.883,0.938c0.742,0.405,1.415,0.967,1.415,1.835c0,1.499-1.261,2.325-2.899,2.325
			c-0.798,0-1.541-0.225-1.905-0.49L73.398,165.238z"/>
	</g>
</g>
<g>
	<g>
		<path fill="#191919" d="M94.767,146.172c0.602-0.14,1.485-0.224,2.325-0.224c0.911,0,1.779,0.182,2.367,0.615
			c0.532,0.363,0.896,0.938,0.896,1.709c0,1.388-0.98,2.339-2.185,2.703l-0.014,0.042c0.616,0.237,0.882,0.896,0.967,1.793
			c0.112,1.177,0.182,2.271,0.336,2.646h-1.681c-0.07-0.225-0.168-1.12-0.252-2.255c-0.07-1.205-0.504-1.641-1.373-1.641h-0.798
			l-0.743,3.896h-1.611L94.767,146.172z M95.593,150.318h0.925c1.274,0,2.129-0.783,2.129-1.809c0-0.867-0.686-1.26-1.611-1.26
			c-0.406,0-0.672,0.026-0.868,0.084L95.593,150.318z"/>
		<path fill="#191919" d="M105.969,155.066c-0.672,0.352-1.583,0.532-2.409,0.532c-1.891,0-2.801-1.147-2.801-2.814
			c0-2.06,1.513-4.301,3.866-4.301c1.345,0,2.199,0.784,2.199,1.919c0,1.751-1.835,2.313-4.468,2.256
			c-0.028,0.237,0.028,0.699,0.182,0.967c0.266,0.462,0.756,0.7,1.401,0.7c0.77,0,1.387-0.196,1.877-0.448L105.969,155.066z
			 M104.414,149.702c-1.022,0-1.695,0.909-1.891,1.735c1.681,0.027,2.76-0.21,2.76-1.021
			C105.283,149.968,104.933,149.702,104.414,149.702z"/>
		<path fill="#191919" d="M107.492,153.933c0.35,0.194,1.022,0.462,1.639,0.462c0.659-0.015,1.051-0.394,1.051-0.841
			c0-0.435-0.224-0.7-0.896-1.052c-0.784-0.405-1.345-0.994-1.345-1.777c0-1.316,1.148-2.241,2.759-2.241
			c0.714,0,1.303,0.168,1.611,0.351l-0.42,1.178c-0.252-0.141-0.714-0.309-1.275-0.309c-0.616,0-1.037,0.336-1.037,0.798
			c0,0.379,0.309,0.646,0.883,0.938c0.742,0.406,1.415,0.968,1.415,1.835c0,1.499-1.261,2.325-2.899,2.325
			c-0.798,0-1.541-0.225-1.905-0.49L107.492,153.933z"/>
		<path fill="#191919" d="M119.788,151.313c0,2.313-1.625,4.302-3.95,4.302c-1.723,0-2.788-1.19-2.788-2.815
			c0-2.313,1.611-4.313,3.936-4.313C118.821,148.483,119.788,149.8,119.788,151.313z M114.73,152.756
			c0,0.938,0.504,1.598,1.331,1.598c1.219,0,2.031-1.682,2.031-3.04c0-0.7-0.309-1.567-1.303-1.567
			C115.487,149.744,114.73,151.48,114.73,152.756z"/>
		<path fill="#191919" d="M120.484,155.459l1.905-9.944h1.625l-1.891,9.944H120.484L120.484,155.459z"/>
		<path fill="#191919" d="M131.029,148.638l-0.896,4.705c-0.154,0.813-0.252,1.527-0.336,2.115h-1.443l0.14-1.189h-0.028
			c-0.658,0.882-1.513,1.346-2.367,1.346c-0.995,0-1.779-0.532-1.779-1.935c0-0.364,0.042-0.757,0.14-1.22l0.729-3.822h1.625
			l-0.7,3.727c-0.07,0.336-0.112,0.673-0.112,0.938c0,0.561,0.224,0.967,0.869,0.967c0.756,0,1.639-0.896,1.905-2.313l0.63-3.318
			L131.029,148.638L131.029,148.638z"/>
		<path fill="#191919" d="M136.474,155.221c-0.392,0.195-1.093,0.378-1.961,0.378c-1.709,0-2.76-1.093-2.76-2.718
			c0-2.382,1.807-4.397,4.342-4.397c0.603,0,1.135,0.154,1.387,0.267l-0.42,1.274c-0.252-0.111-0.574-0.211-1.022-0.211
			c-1.583,0-2.578,1.457-2.578,2.872c0,1.021,0.588,1.598,1.499,1.598c0.63,0,1.106-0.168,1.457-0.322L136.474,155.221z"/>
		<path fill="#191919" d="M137.62,155.459l1.289-6.82h1.639l-1.303,6.82H137.62z M139.174,146.788c0-0.588,0.448-0.994,0.98-0.994
			c0.504,0,0.869,0.364,0.869,0.882c-0.014,0.604-0.462,0.981-1.009,0.981C139.511,147.657,139.16,147.293,139.174,146.788z"/>
		<path fill="#191919" d="M148.011,151.313c0,2.313-1.625,4.302-3.95,4.302c-1.723,0-2.788-1.19-2.788-2.815
			c0-2.313,1.611-4.313,3.936-4.313C147.044,148.483,148.011,149.8,148.011,151.313z M142.954,152.756
			c0,0.938,0.504,1.598,1.331,1.598c1.219,0,2.031-1.682,2.031-3.04c0-0.7-0.309-1.567-1.303-1.567
			C143.711,149.744,142.954,151.48,142.954,152.756z M147.633,145.737l-1.849,2.073h-1.232l1.359-2.073H147.633z"/>
		<path fill="#191919" d="M148.708,155.459l0.882-4.706c0.168-0.813,0.266-1.526,0.35-2.114h1.443l-0.14,1.231h0.028
			c0.63-0.926,1.499-1.388,2.451-1.388c0.966,0,1.737,0.588,1.737,1.877c0,0.309-0.056,0.784-0.126,1.136l-0.756,3.964h-1.625
			l0.729-3.854c0.042-0.252,0.084-0.546,0.084-0.813c0-0.562-0.21-0.98-0.854-0.98c-0.742,0-1.695,0.896-1.989,2.494l-0.588,3.15
			L148.708,155.459L148.708,155.459z"/>
		<path fill="#191919" d="M98.352,159.723h-0.028l-1.681,0.783l-0.098-1.273l2.325-1.078h1.358l-1.723,9.104h-1.583L98.352,159.723z
			"/>
		<path fill="#191919" d="M108.812,160.997c0,2.914-1.401,6.416-4.118,6.416c-1.793,0-2.479-1.415-2.479-3.208
			c0-2.94,1.513-6.205,4.146-6.205C108.209,158,108.812,159.484,108.812,160.997z M103.825,164.26c0,0.813,0.154,1.851,1.079,1.851
			c1.527,0,2.283-3.586,2.283-5.057c0-0.674-0.098-1.752-1.022-1.752C104.721,159.302,103.825,162.538,103.825,164.26z"/>
		<path fill="#191919" d="M108.877,167.259l0.196-1.063l1.695-1.345c2.102-1.737,3.376-2.956,3.376-4.244
			c0-0.646-0.406-1.232-1.317-1.232c-0.812,0-1.457,0.295-1.905,0.604l-0.364-1.178c0.687-0.462,1.695-0.798,2.647-0.798
			c1.779,0,2.633,1.105,2.633,2.367c0,1.891-1.625,3.36-3.474,4.847l-0.84,0.631v0.027h3.516l-0.266,1.387L108.877,167.259
			L108.877,167.259z"/>
		<path fill="#191919" d="M119.771,167.259l0.448-2.339h-3.894l0.21-1.093l4.566-5.674h1.933l-1.037,5.49h1.135l-0.238,1.274h-1.135
			l-0.448,2.339L119.771,167.259L119.771,167.259z M120.458,163.645l0.504-2.451c0.112-0.531,0.266-1.105,0.392-1.625h-0.056
			c-0.393,0.59-0.701,1.094-1.121,1.653l-1.961,2.396l-0.014,0.026L120.458,163.645L120.458,163.645z"/>
		<path fill="#191919" d="M128.549,160.438l0.532,1.231c0.196,0.49,0.322,0.84,0.435,1.12h0.042
			c0.252-0.364,0.434-0.645,0.742-1.063l0.98-1.288h1.877l-2.885,3.318l1.597,3.502h-1.779l-0.546-1.288
			c-0.21-0.505-0.322-0.813-0.462-1.232h-0.042c-0.196,0.322-0.392,0.658-0.687,1.105l-1.078,1.415h-1.877l2.97-3.516l-1.597-3.307
			L128.549,160.438L128.549,160.438z"/>
		<path fill="#191919" d="M140.227,158.154l-0.21,1.105c-1.695,2.661-3.404,5.322-5.127,7.998h-1.807
			c1.709-2.563,3.404-5.127,5.085-7.676l-0.014-0.027h-4.048l0.266-1.4H140.227L140.227,158.154z"/>
		<path fill="#191919" d="M146.541,159.372c-0.224,0-0.476,0-0.798,0.043c-1.639,0.225-2.857,1.273-3.39,2.675l0.028,0.016
			c0.518-0.562,1.261-0.911,2.031-0.911c1.387,0.016,2.269,1.063,2.269,2.521c0,1.877-1.443,3.698-3.502,3.698
			c-1.905,0-2.83-1.346-2.83-3.097c0-2.103,1.051-3.949,2.27-4.944c0.966-0.784,2.185-1.231,3.404-1.33
			c0.336-0.027,0.56-0.027,0.756-0.016L146.541,159.372z M145,163.869c0-0.926-0.49-1.43-1.275-1.43
			c-0.616,0-1.219,0.406-1.583,1.021c-0.084,0.141-0.14,0.309-0.154,0.448c-0.028,0.195-0.042,0.392-0.042,0.604
			c0,0.924,0.462,1.623,1.303,1.623C144.328,166.138,145,164.92,145,163.869z"/>
		<path fill="#191919" d="M154.199,160.143c0,1.021-0.687,1.778-1.695,2.256v0.042c0.869,0.477,1.289,1.273,1.289,2.073
			c0,1.903-1.779,2.898-3.46,2.898c-1.835,0-2.9-0.979-2.9-2.313s0.939-2.213,2.031-2.646v-0.042
			c-0.658-0.49-0.938-1.094-0.938-1.737c0-1.597,1.471-2.675,3.152-2.675C153.106,158,154.199,158.784,154.199,160.143z
			 M152.084,164.667c0-0.798-0.504-1.288-1.373-1.598c-0.784,0.211-1.583,0.842-1.583,1.836c0,0.699,0.476,1.303,1.358,1.303
			C151.355,166.208,152.084,165.605,152.084,164.667z M150.095,160.563c0,0.646,0.448,1.078,1.177,1.33
			c0.714-0.238,1.358-0.813,1.358-1.567c0-0.574-0.336-1.121-1.134-1.121S150.095,159.849,150.095,160.563z"/>
	</g>
</g>
<g>
	<g>
		<path fill="#191919" d="M182.062,159.366l0.63-4.44c0.141-0.967,0.337-2.297,0.574-3.46h-0.041
			c-0.49,1.105-1.051,2.325-1.568,3.32l-2.326,4.468h-1.261l-0.489-4.397c-0.113-1.05-0.197-2.27-0.252-3.391h-0.029
			c-0.252,1.079-0.53,2.509-0.77,3.46l-1.078,4.44h-1.514l2.395-9.441h2.158l0.504,4.413c0.07,0.841,0.168,1.82,0.184,2.718h0.057
			c0.336-0.896,0.784-1.892,1.189-2.703l2.283-4.428h2.186l-1.246,9.441H182.062z"/>
		<path fill="#191919" d="M185.389,159.366l1.289-6.821h1.639l-1.303,6.821H185.389z M186.944,150.695
			c0-0.588,0.449-0.993,0.98-0.993c0.505,0,0.869,0.363,0.869,0.882c-0.016,0.604-0.463,0.98-1.01,0.98
			C187.282,151.564,186.93,151.2,186.944,150.695z"/>
		<path fill="#191919" d="M193.75,159.128c-0.395,0.196-1.094,0.378-1.961,0.378c-1.709,0-2.762-1.092-2.762-2.717
			c0-2.382,1.809-4.397,4.344-4.397c0.603,0,1.135,0.153,1.387,0.267l-0.42,1.274c-0.252-0.112-0.574-0.211-1.022-0.211
			c-1.583,0-2.577,1.457-2.577,2.871c0,1.022,0.588,1.598,1.498,1.598c0.631,0,1.107-0.168,1.457-0.321L193.75,159.128z"/>
		<path fill="#191919" d="M194.895,159.366l0.799-4.202c0.182-0.967,0.266-2.003,0.35-2.619h1.416
			c-0.043,0.462-0.084,0.938-0.152,1.441h0.041c0.463-0.925,1.203-1.597,2.145-1.597c0.111,0,0.237,0.014,0.352,0.027l-0.322,1.598
			c-0.084-0.016-0.195-0.028-0.309-0.028c-1.162,0-1.904,1.178-2.172,2.635l-0.52,2.745H194.895L194.895,159.366z"/>
		<path fill="#191919" d="M206.603,155.22c0,2.313-1.625,4.301-3.95,4.301c-1.723,0-2.787-1.189-2.787-2.814
			c0-2.313,1.61-4.313,3.936-4.313C205.635,152.391,206.603,153.707,206.603,155.22z M201.545,156.663
			c0,0.938,0.504,1.597,1.332,1.597c1.219,0,2.031-1.681,2.031-3.039c0-0.7-0.311-1.568-1.305-1.568
			C202.303,153.651,201.545,155.388,201.545,156.663z M206.225,149.645l-1.85,2.072h-1.232l1.359-2.072H206.225z"/>
		<path fill="#191919" d="M207.495,159.366l1.051-5.562h-0.881l0.236-1.262h0.883l0.07-0.352c0.154-0.867,0.49-1.736,1.135-2.297
			c0.504-0.436,1.162-0.631,1.793-0.631c0.477,0,0.826,0.084,1.008,0.184l-0.307,1.287c-0.17-0.068-0.393-0.11-0.66-0.11
			c-0.77,0-1.203,0.714-1.357,1.598l-0.057,0.321h1.414l-0.236,1.262h-1.416l-1.051,5.562H207.495L207.495,159.366z"/>
		<path fill="#191919" d="M218.516,155.22c0,2.313-1.625,4.301-3.949,4.301c-1.723,0-2.787-1.189-2.787-2.814
			c0-2.313,1.611-4.313,3.936-4.313C217.551,152.391,218.516,153.707,218.516,155.22z M213.459,156.663
			c0,0.938,0.506,1.597,1.332,1.597c1.219,0,2.031-1.681,2.031-3.039c0-0.7-0.311-1.568-1.305-1.568
			C214.217,153.651,213.459,155.388,213.459,156.663z"/>
		<path fill="#191919" d="M219.213,159.366l0.883-4.707c0.168-0.813,0.266-1.526,0.35-2.114h1.443l-0.141,1.231h0.025
			c0.631-0.925,1.5-1.387,2.451-1.387c0.967,0,1.736,0.588,1.736,1.877c0,0.309-0.057,0.783-0.127,1.135l-0.756,3.965h-1.625
			l0.729-3.854c0.041-0.253,0.084-0.547,0.084-0.813c0-0.562-0.211-0.981-0.854-0.981c-0.742,0-1.695,0.896-1.988,2.494
			l-0.588,3.151L219.213,159.366L219.213,159.366z"/>
		<path fill="#191919" d="M233.819,155.22c0,2.313-1.625,4.301-3.951,4.301c-1.723,0-2.787-1.189-2.787-2.814
			c0-2.313,1.611-4.313,3.938-4.313C232.852,152.391,233.819,153.707,233.819,155.22z M228.762,156.663
			c0,0.938,0.504,1.597,1.33,1.597c1.219,0,2.031-1.681,2.031-3.039c0-0.7-0.311-1.568-1.305-1.568
			C229.518,153.651,228.762,155.388,228.762,156.663z"/>
	</g>
</g>
<g>
	<g>
		<path fill="#191919" d="M257.575,156.677l-1.287,2.689h-1.738l4.734-9.441h2.047l1.189,9.441h-1.709l-0.266-2.689H257.575z
			 M260.447,155.416l-0.267-2.354c-0.041-0.504-0.098-1.231-0.141-1.793h-0.027c-0.252,0.562-0.504,1.232-0.77,1.793l-1.148,2.354
			H260.447z"/>
		<path fill="#191919" d="M270.555,152.545l-0.896,4.706c-0.152,0.813-0.252,1.526-0.336,2.115h-1.441l0.141-1.19h-0.025
			c-0.658,0.883-1.516,1.346-2.367,1.346c-0.996,0-1.779-0.531-1.779-1.935c0-0.363,0.042-0.756,0.141-1.219l0.729-3.823h1.625
			l-0.7,3.727c-0.07,0.336-0.111,0.673-0.111,0.938c0,0.562,0.225,0.967,0.867,0.967c0.758,0,1.641-0.896,1.906-2.312l0.63-3.319
			H270.555z"/>
		<path fill="#191919" d="M278.788,149.421l-1.428,7.521c-0.154,0.784-0.268,1.682-0.309,2.424h-1.5l0.141-1.22h-0.027
			c-0.617,0.938-1.457,1.373-2.34,1.373c-1.219,0-2.072-0.995-2.072-2.535c0-2.396,1.75-4.595,4.26-4.595
			c0.35,0,0.756,0.069,1.051,0.195l0.604-3.166L278.788,149.421L278.788,149.421z M276.323,153.917
			c-0.195-0.141-0.531-0.267-0.938-0.267c-1.401,0-2.438,1.556-2.438,3.081c0,0.827,0.32,1.472,1.092,1.472
			c0.729,0,1.598-0.799,1.877-2.213L276.323,153.917z"/>
		<path fill="#191919" d="M278.743,159.366l1.289-6.821h1.639l-1.303,6.821H278.743z M283.293,149.645l-1.85,2.072h-1.219
			l1.345-2.072H283.293z"/>
		<path fill="#191919" d="M282.424,159.366l1.051-5.562h-0.883l0.238-1.262h0.883l0.068-0.352c0.153-0.867,0.489-1.736,1.135-2.297
			c0.504-0.436,1.164-0.631,1.793-0.631c0.477,0,0.826,0.084,1.01,0.184l-0.309,1.287c-0.168-0.068-0.395-0.11-0.658-0.11
			c-0.771,0-1.205,0.714-1.359,1.598l-0.057,0.321h1.416l-0.238,1.262H285.1l-1.051,5.562H282.424L282.424,159.366z"/>
		<path fill="#191919" d="M293.446,155.22c0,2.313-1.625,4.301-3.949,4.301c-1.725,0-2.789-1.189-2.789-2.814
			c0-2.313,1.611-4.313,3.938-4.313C292.479,152.391,293.446,153.707,293.446,155.22z M288.389,156.663
			c0,0.938,0.504,1.597,1.33,1.597c1.219,0,2.031-1.681,2.031-3.039c0-0.7-0.31-1.568-1.305-1.568
			C289.145,153.651,288.389,155.388,288.389,156.663z"/>
		<path fill="#191919" d="M294.142,159.366l0.883-4.707c0.168-0.813,0.267-1.526,0.351-2.114h1.442l-0.142,1.231h0.029
			c0.629-0.925,1.498-1.387,2.45-1.387c0.968,0,1.736,0.588,1.736,1.877c0,0.309-0.058,0.783-0.127,1.135l-0.757,3.965h-1.625
			l0.729-3.854c0.042-0.253,0.084-0.547,0.084-0.813c0-0.562-0.21-0.981-0.854-0.981c-0.741,0-1.694,0.896-1.988,2.494l-0.588,3.151
			L294.142,159.366L294.142,159.366z"/>
		<path fill="#191919" d="M308.747,155.22c0,2.313-1.625,4.301-3.949,4.301c-1.723,0-2.786-1.189-2.786-2.814
			c0-2.313,1.61-4.313,3.938-4.313C307.782,152.391,308.747,153.707,308.747,155.22z M303.69,156.663
			c0,0.938,0.505,1.597,1.331,1.597c1.22,0,2.03-1.681,2.03-3.039c0-0.7-0.309-1.568-1.303-1.568
			C304.447,153.651,303.69,155.388,303.69,156.663z"/>
		<path fill="#191919" d="M309.612,157.84c0.352,0.195,1.021,0.462,1.639,0.462c0.658-0.014,1.051-0.393,1.051-0.841
			c0-0.435-0.223-0.7-0.895-1.051c-0.785-0.405-1.346-0.994-1.346-1.778c0-1.315,1.148-2.24,2.76-2.24
			c0.715,0,1.303,0.168,1.61,0.351l-0.421,1.177c-0.252-0.141-0.715-0.309-1.273-0.309c-0.615,0-1.037,0.336-1.037,0.799
			c0,0.379,0.309,0.646,0.883,0.938c0.742,0.405,1.416,0.967,1.416,1.835c0,1.499-1.262,2.324-2.899,2.324
			c-0.8,0-1.54-0.224-1.904-0.489L309.612,157.84z"/>
	</g>
</g>
<g>
	<g>
		<path fill="#191919" d="M276.706,62.897c-0.504,0.226-1.356,0.42-2.465,0.42c-2.451,0-4.02-1.513-4.02-3.964
			c0-1.961,0.84-3.628,2.213-4.649c0.98-0.742,2.156-1.12,3.516-1.12c1.037,0,1.793,0.252,2.059,0.435l-0.475,1.315
			c-0.31-0.168-0.953-0.336-1.779-0.336c-0.896,0-1.766,0.31-2.408,0.869c-0.826,0.729-1.359,1.919-1.359,3.291
			c0,1.583,0.813,2.772,2.678,2.772c0.687,0,1.387-0.126,1.891-0.364L276.706,62.897z"/>
		<path fill="#191919" d="M282.151,63.178c0.014-0.406,0.07-0.952,0.126-1.541h-0.042c-0.672,1.261-1.568,1.694-2.438,1.694
			c-1.219,0-2.02-0.953-2.02-2.325c0-2.324,1.625-4.805,4.807-4.805c0.742,0,1.541,0.14,2.06,0.308l-0.7,3.56
			c-0.195,1.021-0.309,2.298-0.279,3.109H282.151z M282.823,57.532c-0.168-0.042-0.378-0.069-0.672-0.069
			c-1.514,0-2.676,1.694-2.676,3.249c0,0.715,0.266,1.304,0.98,1.304c0.756,0,1.682-0.952,2.004-2.688L282.823,57.532z
			 M284.616,53.456l-1.834,2.072h-1.232l1.346-2.072H284.616z"/>
		<path fill="#191919" d="M285.27,63.178l0.869-4.706c0.154-0.813,0.266-1.527,0.336-2.115h1.414l-0.141,1.189h0.016
			c0.645-0.911,1.484-1.345,2.367-1.345c1.063,0,1.555,0.672,1.609,1.399c0.604-0.938,1.473-1.388,2.408-1.399
			c0.938,0,1.667,0.604,1.667,1.819c0,0.295-0.058,0.799-0.11,1.163l-0.758,3.991h-1.582l0.715-3.81
			c0.043-0.28,0.098-0.59,0.098-0.869c0-0.574-0.237-0.967-0.84-0.967c-0.742,0-1.568,0.938-1.834,2.382l-0.617,3.264h-1.568
			l0.729-3.865c0.058-0.279,0.084-0.546,0.084-0.798c0-0.52-0.152-0.98-0.813-0.98c-0.757,0-1.625,1.022-1.877,2.409l-0.589,3.234
			L285.27,63.178L285.27,63.178z"/>
		<path fill="#191919" d="M301.247,63.178c0.016-0.406,0.07-0.952,0.127-1.541h-0.043c-0.672,1.261-1.566,1.694-2.438,1.694
			c-1.219,0-2.018-0.953-2.018-2.325c0-2.324,1.625-4.805,4.805-4.805c0.742,0,1.541,0.14,2.061,0.308l-0.701,3.56
			c-0.194,1.021-0.309,2.298-0.278,3.109H301.247z M301.918,57.532c-0.168-0.042-0.379-0.069-0.672-0.069
			c-1.516,0-2.678,1.694-2.678,3.249c0,0.715,0.268,1.304,0.979,1.304c0.759,0,1.684-0.952,2.006-2.688L301.918,57.532z"/>
		<path fill="#191919" d="M304.366,63.178l0.799-4.202c0.184-0.968,0.268-2.003,0.352-2.619h1.416
			c-0.043,0.462-0.085,0.938-0.154,1.441h0.041c0.465-0.925,1.205-1.597,2.145-1.597c0.113,0,0.238,0.014,0.352,0.026l-0.322,1.599
			c-0.084-0.016-0.195-0.028-0.309-0.028c-1.162,0-1.904,1.178-2.171,2.635l-0.519,2.745H304.366z"/>
		<path fill="#191919" d="M313.54,63.178c0.015-0.406,0.068-0.952,0.125-1.541h-0.041c-0.674,1.261-1.568,1.694-2.438,1.694
			c-1.221,0-2.018-0.953-2.018-2.325c0-2.324,1.625-4.805,4.806-4.805c0.741,0,1.541,0.14,2.06,0.308l-0.699,3.56
			c-0.197,1.021-0.31,2.298-0.281,3.109H313.54z M314.211,57.532c-0.168-0.042-0.379-0.069-0.674-0.069
			c-1.514,0-2.677,1.694-2.677,3.249c0,0.715,0.269,1.304,0.979,1.304c0.758,0,1.682-0.952,2.004-2.688L314.211,57.532z"/>
		<path fill="#191919" d="M284.473,68.156l0.126,3.318c0.028,0.799,0.015,1.345-0.028,2.019h0.028
			c0.21-0.604,0.491-1.233,0.799-1.92l1.653-3.417h1.357l0.279,3.333c0.057,0.771,0.084,1.4,0.068,2.004h0.027
			c0.211-0.659,0.42-1.275,0.7-2.004l1.472-3.333h1.652l-3.348,6.82h-1.527l-0.309-2.971c-0.055-0.672-0.069-1.288-0.069-2.017
			h-0.028c-0.336,0.825-0.504,1.345-0.813,1.945L285,74.974h-1.525l-0.631-6.821h1.627v0.003H284.473z"/>
		<path fill="#191919" d="M297.663,74.585c-0.672,0.352-1.582,0.532-2.408,0.532c-1.892,0-2.801-1.148-2.801-2.815
			c0-2.059,1.512-4.3,3.865-4.3c1.344,0,2.199,0.784,2.199,1.919c0,1.751-1.836,2.313-4.469,2.255
			c-0.027,0.238,0.027,0.7,0.182,0.968c0.268,0.462,0.757,0.699,1.4,0.699c0.771,0,1.388-0.195,1.877-0.447L297.663,74.585z
			 M296.108,69.221c-1.021,0-1.693,0.909-1.891,1.735c1.682,0.027,2.76-0.21,2.76-1.021
			C296.977,69.486,296.627,69.221,296.108,69.221z"/>
		<path fill="#191919" d="M302.506,65.032l-0.855,4.132h0.028c0.546-0.742,1.358-1.162,2.241-1.162c1.457,0,2.059,1.189,2.059,2.409
			c0,2.156-1.484,4.721-4.396,4.721c-1.43,0-2.285-0.604-2.271-1.835c0-0.394,0.056-0.799,0.126-1.177l1.43-7.088H302.506z
			 M301.063,72.204c-0.042,0.237-0.084,0.489-0.07,0.813c0,0.562,0.322,0.867,0.91,0.867c1.43,0,2.368-1.835,2.368-3.164
			c0-0.758-0.321-1.389-1.079-1.389c-0.84,0-1.709,0.869-1.988,2.241L301.063,72.204z"/>
	</g>
</g>
</svg>
