<?xml version="1.0" encoding="utf-8"?>
<!-- Generator: Adobe Illustrator 16.0.0, SVG Export Plug-In . SVG Version: 6.00 Build 0)  -->
<!DOCTYPE svg PUBLIC "-//W3C//DTD SVG 1.1//EN" "http://www.w3.org/Graphics/SVG/1.1/DTD/svg11.dtd">
<svg version="1.1" id="Capa_1" xmlns="http://www.w3.org/2000/svg" xmlns:xlink="http://www.w3.org/1999/xlink" x="0px" y="0px"
	 width="150.75px" height="144.142px" viewBox="4.847 71.491 150.75 144.142" enable-background="new 4.847 71.491 150.75 144.142"
	 xml:space="preserve">
<circle fill="#76C5ED" cx="75.902" cy="143.31" r="58.185"/>
<g id="Capa_4" display="none">
</g>
<g id="Capa_1_1_">
</g>
<g id="Capa_7" display="none">
</g>
<g id="Capa_3">
</g>
<g id="Capa_5">
</g>
<g id="Capa_6">
</g>
<g id="Capa_2">
</g>
<g>
	
		<image overflow="visible" opacity="0.5" width="70" height="70" xlink:href="FEEFEC3C.png"  transform="matrix(1 0 0 1 89.5969 142.198)">
	</image>
	<g>
		<g>
			<g>
				<g>
					<path fill="#0684BA" d="M95.811,156.711l42.895,42.895l7.916-7.916l-42.896-42.893L95.811,156.711z M103.286,156.277
						c-0.492,0.492-1.292,0.492-1.785-0.002c-0.492-0.492-0.492-1.293,0-1.785c0.493-0.494,1.293-0.494,1.785,0
						C103.781,154.982,103.781,155.783,103.286,156.277z"/>
					<path fill="#03628A" d="M99.767,152.756l1.734,1.734c0.493-0.494,1.293-0.494,1.785,0c0.494,0.492,0.494,1.293,0,1.787
						l39.372,39.373l3.961-3.959l-42.894-42.895L99.767,152.756z"/>
					<g>
						<g>
							
								<rect x="108.043" y="153.789" transform="matrix(-0.7071 -0.7071 0.7071 -0.7071 75.0578 341.1969)" fill="#FFFFFF" width="0.301" height="2.529"/>
							
								<rect x="111.615" y="157.363" transform="matrix(-0.7039 -0.7103 0.7103 -0.7039 77.7681 349.6743)" fill="#FFFFFF" width="0.305" height="2.529"/>
							
								<rect x="115.19" y="160.937" transform="matrix(-0.7087 -0.7055 0.7055 -0.7087 82.6531 358.5301)" fill="#FFFFFF" width="0.305" height="2.53"/>
							
								<rect x="118.766" y="164.512" transform="matrix(-0.7071 -0.7071 0.7071 -0.7071 85.7831 367.0867)" fill="#FFFFFF" width="0.304" height="2.529"/>
							
								<rect x="122.339" y="168.084" transform="matrix(-0.7087 -0.7055 0.7055 -0.7087 89.8251 375.7863)" fill="#FFFFFF" width="0.305" height="2.53"/>
							
								<rect x="125.914" y="171.66" transform="matrix(-0.7071 -0.7071 0.7071 -0.7071 92.9307 384.3442)" fill="#FFFFFF" width="0.304" height="2.53"/>
							
								<rect x="129.487" y="175.235" transform="matrix(-0.7071 -0.7071 0.7071 -0.7071 96.5041 392.9728)" fill="#FFFFFF" width="0.304" height="2.529"/>
							
								<rect x="133.063" y="178.807" transform="matrix(-0.7071 -0.7071 0.7071 -0.7071 100.0822 401.5995)" fill="#FFFFFF" width="0.304" height="2.53"/>
							
								<rect x="136.636" y="182.383" transform="matrix(-0.7071 -0.7071 0.7071 -0.7071 103.6559 410.2321)" fill="#FFFFFF" width="0.307" height="2.529"/>
							
								<rect x="140.212" y="185.956" transform="matrix(-0.7087 -0.7055 0.7055 -0.7087 107.7593 418.9338)" fill="#FFFFFF" width="0.302" height="2.53"/>
							
								<rect x="143.786" y="189.533" transform="matrix(-0.7071 -0.7071 0.7071 -0.7071 110.8028 427.4912)" fill="#FFFFFF" width="0.304" height="2.53"/>
						</g>
					</g>
					<g>
						<g>
							
								<rect x="142.476" y="187.93" transform="matrix(-0.7071 -0.7071 0.7071 -0.7071 110.1029 422.7306)" fill="#FFFFFF" width="0.251" height="1.265"/>
							
								<rect x="138.902" y="184.357" transform="matrix(-0.7032 -0.711 0.711 -0.7032 105.2617 413.9179)" fill="#FFFFFF" width="0.25" height="1.262"/>
							
								<rect x="135.321" y="180.781" transform="matrix(-0.709 -0.7052 0.7052 -0.709 103.5575 405.5565)" fill="#FFFFFF" width="0.252" height="1.265"/>
							
								<rect x="131.746" y="177.206" transform="matrix(-0.7032 -0.711 0.711 -0.7032 98.1739 396.6568)" fill="#FFFFFF" width="0.253" height="1.264"/>
							
								<rect x="128.171" y="173.631" transform="matrix(-0.711 -0.7032 0.7032 -0.711 96.9644 388.3808)" fill="#FFFFFF" width="0.253" height="1.264"/>
							
								<rect x="124.599" y="170.059" transform="matrix(-0.7052 -0.709 0.709 -0.7052 91.6542 379.4911)" fill="#FFFFFF" width="0.253" height="1.262"/>
							
								<rect x="121.025" y="166.484" transform="matrix(-0.7071 -0.7071 0.7071 -0.7071 88.6506 370.9503)" fill="#FFFFFF" width="0.254" height="1.262"/>
							
								<rect x="117.451" y="162.909" transform="matrix(-0.7032 -0.711 0.711 -0.7032 83.977 362.138)" fill="#FFFFFF" width="0.25" height="1.264"/>
							
								<rect x="113.875" y="159.334" transform="matrix(-0.711 -0.7032 0.7032 -0.711 82.5587 353.8661)" fill="#FFFFFF" width="0.253" height="1.264"/>
							
								<rect x="110.303" y="155.761" transform="matrix(-0.7071 -0.7071 0.7071 -0.7071 77.9264 345.0648)" fill="#FFFFFF" width="0.251" height="1.264"/>
						</g>
					</g>
				</g>
				<g>
					<polygon fill="#FFFFFF" points="99.642,188.117 95.811,199.605 107.3,195.777 					"/>
					
						<rect x="115.813" y="149.075" transform="matrix(-0.7072 -0.7071 0.7071 -0.7072 83.7941 383.082)" fill="#5D6D7E" width="10.831" height="50.226"/>
					
						<rect x="117.002" y="146.204" transform="matrix(-0.7069 -0.7073 0.7073 -0.7069 80.8557 376.1359)" fill="#34495E" width="2.709" height="50.225"/>
					
						<rect x="122.746" y="151.947" transform="matrix(-0.7073 -0.7069 0.7069 -0.7073 86.7055 390.0222)" fill="#34495E" width="2.708" height="50.226"/>
					<polygon fill="#E1EFFA" points="99.642,188.117 101.557,190.033 95.811,199.605 					"/>
					<polygon fill="#E1EFFA" points="107.3,195.777 105.385,193.861 95.811,199.605 					"/>
					<polygon fill="#5D6D7E" points="97.31,195.107 95.811,199.605 100.311,198.107 					"/>
					<g>
						<g>
							<polygon fill="#34495E" points="97.31,195.107 95.811,199.605 98.062,195.857 							"/>
							<polygon fill="#34495E" points="99.562,197.357 95.811,199.605 100.311,198.107 							"/>
						</g>
					</g>
					
						<rect x="134.206" y="154.89" transform="matrix(-0.7071 -0.7071 0.7071 -0.7071 128.1881 364.6827)" fill="#FFFFFF" width="10.833" height="1.806"/>
					
						<rect x="135.399" y="152.017" transform="matrix(-0.7075 -0.7067 0.7067 -0.7075 125.4254 357.7548)" fill="#E1EFFA" width="2.708" height="1.806"/>
					
						<rect x="141.14" y="157.761" transform="matrix(-0.7071 -0.7071 0.7071 -0.7071 131.061 371.6168)" fill="#E1EFFA" width="2.71" height="1.807"/>
					<path fill="#0684BA" d="M141.796,149.537c-0.457-0.457-1.091-0.74-1.788-0.74c-0.698,0-1.331,0.283-1.788,0.74l-1.787,1.787
						l7.66,7.66l1.786-1.787c0.458-0.457,0.742-1.088,0.74-1.787c0-0.699-0.282-1.33-0.739-1.787L141.796,149.537z"/>
					<path fill="#5C7F89" d="M138.093,151.199c-0.213-0.213-0.211-0.559,0-0.768l0.51-0.512c0.375-0.375,0.873-0.58,1.403-0.58
						c0.532,0,1.029,0.205,1.404,0.58l0.767,0.766c0.213,0.213,0.213,0.557,0,0.768c-0.211,0.211-0.553,0.213-0.767,0l-0.766-0.766
						c-0.172-0.172-0.396-0.264-0.64-0.264c-0.239,0-0.469,0.092-0.639,0.264l-0.51,0.51
						C138.648,151.408,138.304,151.408,138.093,151.199z"/>
				</g>
			</g>
		</g>
	</g>
</g>
<g>
	
		<image overflow="visible" opacity="0.5" width="70" height="64" xlink:href="FEEFEC3D.png"  transform="matrix(1 0 0 1 7.5969 149.198)">
	</image>
	<g>
		<g>
			<g>
				<g>
					<polygon fill="#FFFFFF" stroke="#432918" stroke-miterlimit="10" points="14.384,165.525 14.384,190.128 44.217,190.128 
						53.295,199.209 53.295,190.128 64.391,190.128 64.391,156.342 23.569,156.342 					"/>
					<polygon fill="#E1EFFA" points="14.384,174.711 23.569,165.525 18.977,160.93 14.384,165.525 					"/>
					<polygon fill="#FF8E31" points="23.569,165.525 14.384,165.525 23.569,156.342 					"/>
				</g>
				<g>
					<path fill="#5D6D7E" d="M39.676,186.013H25.398c-0.11,0-0.202-0.089-0.202-0.2s0.092-0.203,0.202-0.203h14.278
						c0.111,0,0.201,0.092,0.201,0.203S39.787,186.013,39.676,186.013z"/>
					<g>
						<g>
							<path fill="#5D6D7E" d="M32.05,183.823l2.938-5.119l-2.495-2.496l-5.12,2.936c0.034,2.227-0.604,4.464-1.919,6.375
								c-0.018,0.006-0.035,0.014-0.046,0.023c-0.029,0.027-0.029,0.077,0,0.105c0.028,0.027,0.075,0.027,0.104,0.001l4.283-4.48
								c-0.043-0.13-0.012-0.279,0.09-0.378c0.146-0.148,0.377-0.146,0.521,0c0.143,0.14,0.143,0.378,0.002,0.521
								c-0.102,0.107-0.252,0.136-0.379,0.091l-4.484,4.281c-0.025,0.027-0.028,0.075,0.001,0.11c0.031,0.026,0.08,0.026,0.107,0
								c0.017-0.015,0.019-0.035,0.025-0.052C27.588,184.425,29.82,183.787,32.05,183.823z"/>
							<path fill="#34495E" d="M25.682,185.741c-0.008,0.014-0.01,0.037-0.022,0.049c-0.03,0.029-0.082,0.029-0.11,0
								c-0.032-0.032-0.026-0.08-0.001-0.107l4.484-4.281c0.127,0.045,0.275,0.014,0.379-0.092c0.141-0.142,0.141-0.38-0.002-0.52
								l3.338-3.334l1.237,1.244l-2.935,5.123C29.827,183.788,27.588,184.425,25.682,185.741z"/>
						</g>
						<g>
							<path fill="#F15540" d="M50.91,160.284L50.91,160.284L50.91,160.284z"/>
							<path fill="#FF8E31" d="M51.844,162.541c0-0.882-0.355-1.678-0.934-2.257c-0.578-0.575-1.375-0.934-2.256-0.934
								s-1.68,0.357-2.256,0.934L34.985,171.7l4.51,4.508l11.449-11.445C51.522,164.184,51.844,163.421,51.844,162.541z"/>
							<g>
								<g>
									<path fill="#CC885A" d="M39.395,168.657c-0.15-0.152-0.15-0.397,0-0.547l5.16-5.16c0.15-0.151,0.395-0.151,0.547,0
										c0.15,0.151,0.15,0.396,0,0.548l-5.16,5.159C39.791,168.805,39.545,168.805,39.395,168.657z"/>
									<path fill="#CC885A" d="M47.432,160.805c-0.031-0.03-0.057-0.067-0.076-0.108c-0.09-0.191-0.008-0.424,0.186-0.517
										c0.354-0.166,0.729-0.25,1.115-0.25c0.695,0,1.354,0.271,1.846,0.764c0.148,0.149,0.148,0.396,0,0.547
										c-0.15,0.15-0.396,0.15-0.549,0.002c-0.348-0.35-0.809-0.541-1.297-0.541c-0.271,0-0.537,0.062-0.785,0.179
										C47.719,160.954,47.545,160.918,47.432,160.805z"/>
								</g>
							</g>
						</g>
						<polygon fill="#FF9D4D" points="35.145,178.854 32.345,176.055 35.381,172.094 39.104,175.817 						"/>
						
							<rect x="44.776" y="162.844" transform="matrix(-0.7073 -0.707 0.707 -0.7073 -33.508 312.5872)" fill="#34495E" width="6.379" height="0.775"/>
						<polygon fill="#F28124" points="38.639,176.172 39.104,175.817 35.381,172.094 35.026,172.557 						"/>
						<path fill="#5D6D7E" d="M45.989,160.694l-0.135-0.135c-0.219-0.221-0.512-0.34-0.822-0.34
							c-0.311,0.004-0.604,0.124-0.82,0.346l-4.445,4.486c-0.15,0.147-0.15,0.395,0.002,0.546l0,0
							c0.152,0.15,0.396,0.149,0.547-0.003l4.445-4.485c0.072-0.074,0.17-0.115,0.273-0.115s0.201,0.039,0.275,0.114l0.133,0.135
							L45.989,160.694z"/>
					</g>
				</g>
			</g>
		</g>
	</g>
</g>
<g>
	
		<image overflow="visible" opacity="0.5" width="74" height="91" xlink:href="FEEFEC3B.png"  transform="matrix(1 0 0 1 43.5969 68.198)">
	</image>
	<g>
		<g>
			<g>
				<g>
					<polygon fill="#0684BA" points="64.391,146.758 64.391,120.793 90.361,120.793 					"/>
					<polygon fill="#03628A" points="90.361,146.758 90.361,120.793 64.391,120.793 					"/>
				</g>
				<polygon fill="#042B38" points="77.377,78.422 83.168,74.575 86.895,80.447 93.752,79.285 94.766,86.165 101.503,87.895 
					99.632,94.594 105.081,98.912 100.65,104.271 103.872,110.432 97.643,113.523 98.078,120.467 91.13,120.754 88.705,127.273 
					82.241,124.714 77.377,129.684 72.51,124.714 66.046,127.273 63.622,120.754 56.674,120.467 57.109,113.523 50.881,110.432 
					54.103,104.271 49.671,98.912 55.12,94.593 53.25,87.895 59.986,86.165 61.002,79.285 67.859,80.447 71.582,74.575 				"/>
				<polygon fill="#FF8E31" points="73.485,120.135 68.312,122.181 66.374,116.969 60.818,116.735 61.166,111.182 56.183,108.711 
					58.762,103.782 55.213,99.495 59.574,96.04 58.076,90.681 63.467,89.299 64.279,83.796 69.763,84.724 72.742,80.026 
					77.377,83.105 82.01,80.026 84.99,84.724 90.475,83.796 91.286,89.299 96.676,90.681 95.177,96.04 99.539,99.495 
					95.991,103.782 98.57,108.711 93.586,111.182 93.937,116.735 88.379,116.969 86.441,122.181 81.268,120.135 77.377,124.109 				
					"/>
				<g>
					<path fill="#FFFFFF" d="M75.849,96.834h-0.048l-2.858,1.441l-0.504-2.233l3.794-1.873h2.475v15.608h-2.858V96.834z"/>
				</g>
			</g>
		</g>
	</g>
</g>
</svg>
