<?xml version="1.0" encoding="utf-8"?>
<!-- Generator: Adobe Illustrator 16.0.0, SVG Export Plug-In . SVG Version: 6.00 Build 0)  -->
<!DOCTYPE svg PUBLIC "-//W3C//DTD SVG 1.1//EN" "http://www.w3.org/Graphics/SVG/1.1/DTD/svg11.dtd">
<svg version="1.1" id="Capa_1" xmlns="http://www.w3.org/2000/svg" xmlns:xlink="http://www.w3.org/1999/xlink" x="0px" y="0px"
	 width="146.568px" height="129.423px" viewBox="4.209 73.693 146.568 129.423"
	 enable-background="new 4.209 73.693 146.568 129.423" xml:space="preserve">
<g id="Capa_4" display="none">
</g>
<g id="Capa_1_1_">
</g>
<g id="Capa_7" display="none">
</g>
<g id="Capa_3">
</g>
<g id="Capa_5">
</g>
<g id="Capa_6">
</g>
<g id="Capa_2">
</g>
<g>
	<g>
		<g>
			<path fill="#0684BA" d="M99.967,160.221l42.895,42.895l7.916-7.916l-42.896-42.893L99.967,160.221z M107.443,159.788
				c-0.492,0.492-1.292,0.492-1.785-0.002c-0.492-0.492-0.492-1.293,0-1.785c0.493-0.494,1.293-0.494,1.785,0
				C107.937,158.493,107.937,159.294,107.443,159.788z"/>
			<path fill="#03628A" d="M103.923,156.266l1.734,1.734c0.493-0.494,1.293-0.494,1.785,0c0.494,0.492,0.494,1.293,0,1.787
				l39.372,39.373l3.961-3.959l-42.894-42.895L103.923,156.266z"/>
			<g>
				<g>
					
						<rect x="112.199" y="157.299" transform="matrix(-0.7071 -0.7071 0.7071 -0.7071 79.6705 350.129)" fill="#FFFFFF" width="0.301" height="2.529"/>
					
						<rect x="115.771" y="160.874" transform="matrix(-0.7039 -0.7103 0.7103 -0.7039 82.3562 358.6084)" fill="#FFFFFF" width="0.305" height="2.529"/>
					
						<rect x="119.347" y="164.448" transform="matrix(-0.7087 -0.7055 0.7055 -0.7087 87.278 367.4612)" fill="#FFFFFF" width="0.305" height="2.53"/>
					
						<rect x="122.922" y="168.023" transform="matrix(-0.7071 -0.7071 0.7071 -0.7071 90.3958 376.0189)" fill="#FFFFFF" width="0.304" height="2.529"/>
					
						<rect x="126.495" y="171.595" transform="matrix(-0.7087 -0.7055 0.7055 -0.7087 94.4501 384.7173)" fill="#FFFFFF" width="0.305" height="2.53"/>
					
						<rect x="130.07" y="175.171" transform="matrix(-0.7071 -0.7071 0.7071 -0.7071 97.5434 393.2764)" fill="#FFFFFF" width="0.304" height="2.53"/>
					
						<rect x="133.644" y="178.746" transform="matrix(-0.7071 -0.7071 0.7071 -0.7071 101.1168 401.905)" fill="#FFFFFF" width="0.304" height="2.529"/>
					
						<rect x="137.219" y="182.318" transform="matrix(-0.7071 -0.7071 0.7071 -0.7071 104.6949 410.5316)" fill="#FFFFFF" width="0.304" height="2.53"/>
					
						<rect x="140.793" y="185.894" transform="matrix(-0.7071 -0.7071 0.7071 -0.7071 108.2686 419.1642)" fill="#FFFFFF" width="0.307" height="2.529"/>
					
						<rect x="144.368" y="189.467" transform="matrix(-0.7087 -0.7055 0.7055 -0.7087 112.3844 427.8649)" fill="#FFFFFF" width="0.302" height="2.53"/>
					
						<rect x="147.942" y="193.043" transform="matrix(-0.7071 -0.7071 0.7071 -0.7071 115.4155 436.4234)" fill="#FFFFFF" width="0.304" height="2.53"/>
				</g>
			</g>
			<g>
				<g>
					
						<rect x="146.632" y="191.44" transform="matrix(-0.7071 -0.7071 0.7071 -0.7071 114.7156 431.6627)" fill="#FFFFFF" width="0.251" height="1.265"/>
					
						<rect x="143.058" y="187.868" transform="matrix(-0.7032 -0.711 0.711 -0.7032 109.8444 422.8525)" fill="#FFFFFF" width="0.25" height="1.262"/>
					
						<rect x="139.477" y="184.292" transform="matrix(-0.709 -0.7052 0.7052 -0.709 108.1851 414.4873)" fill="#FFFFFF" width="0.252" height="1.265"/>
					
						<rect x="135.903" y="180.717" transform="matrix(-0.7032 -0.711 0.711 -0.7032 102.757 405.5913)" fill="#FFFFFF" width="0.253" height="1.264"/>
					
						<rect x="132.327" y="177.142" transform="matrix(-0.711 -0.7032 0.7032 -0.711 101.6067 397.3104)" fill="#FFFFFF" width="0.253" height="1.264"/>
					
						<rect x="128.755" y="173.57" transform="matrix(-0.7052 -0.709 0.709 -0.7052 96.2521 388.4245)" fill="#FFFFFF" width="0.253" height="1.262"/>
					
						<rect x="125.181" y="169.995" transform="matrix(-0.7071 -0.7071 0.7071 -0.7071 93.2633 379.8824)" fill="#FFFFFF" width="0.254" height="1.262"/>
					
						<rect x="121.608" y="166.42" transform="matrix(-0.7032 -0.711 0.711 -0.7032 88.5597 371.0726)" fill="#FFFFFF" width="0.25" height="1.264"/>
					
						<rect x="118.032" y="162.845" transform="matrix(-0.711 -0.7032 0.7032 -0.711 87.201 362.7956)" fill="#FFFFFF" width="0.253" height="1.264"/>
					
						<rect x="114.459" y="159.272" transform="matrix(-0.7071 -0.7071 0.7071 -0.7071 82.5391 353.9969)" fill="#FFFFFF" width="0.251" height="1.264"/>
				</g>
			</g>
		</g>
		<g>
			<polygon fill="#FFFFFF" points="103.798,191.628 99.967,203.116 111.456,199.288 			"/>
			
				<rect x="119.969" y="152.586" transform="matrix(-0.7072 -0.7071 0.7071 -0.7072 88.4071 392.0141)" fill="#5D6D7E" width="10.831" height="50.226"/>
			
				<rect x="121.158" y="149.714" transform="matrix(-0.7069 -0.7073 0.7073 -0.7069 85.467 385.0681)" fill="#34495E" width="2.709" height="50.225"/>
			
				<rect x="126.902" y="155.458" transform="matrix(-0.7073 -0.7069 0.7069 -0.7073 91.3196 398.9542)" fill="#34495E" width="2.708" height="50.226"/>
			<polygon fill="#E1EFFA" points="103.798,191.628 105.713,193.544 99.967,203.116 			"/>
			<polygon fill="#E1EFFA" points="111.456,199.288 109.541,197.372 99.967,203.116 			"/>
			<polygon fill="#5D6D7E" points="101.466,198.618 99.967,203.116 104.467,201.618 			"/>
			<g>
				<g>
					<polygon fill="#34495E" points="101.466,198.618 99.967,203.116 102.218,199.368 					"/>
					<polygon fill="#34495E" points="103.718,200.868 99.967,203.116 104.467,201.618 					"/>
				</g>
			</g>
			
				<rect x="138.362" y="158.4" transform="matrix(-0.7071 -0.7071 0.7071 -0.7071 132.8008 373.6148)" fill="#FFFFFF" width="10.833" height="1.806"/>
			
				<rect x="139.555" y="155.528" transform="matrix(-0.7075 -0.7067 0.7067 -0.7075 130.0408 366.6867)" fill="#E1EFFA" width="2.708" height="1.806"/>
			
				<rect x="145.296" y="161.272" transform="matrix(-0.7071 -0.7071 0.7071 -0.7071 135.6737 380.549)" fill="#E1EFFA" width="2.71" height="1.807"/>
			<path fill="#0684BA" d="M145.952,153.048c-0.457-0.457-1.091-0.74-1.788-0.74c-0.698,0-1.331,0.283-1.788,0.74l-1.787,1.787
				l7.66,7.66l1.786-1.787c0.458-0.457,0.742-1.088,0.74-1.787c0-0.699-0.282-1.33-0.739-1.787L145.952,153.048z"/>
			<path fill="#5C7F89" d="M142.249,154.71c-0.213-0.213-0.211-0.559,0-0.768l0.51-0.512c0.375-0.375,0.873-0.58,1.403-0.58
				c0.532,0,1.029,0.205,1.404,0.58l0.767,0.766c0.213,0.213,0.213,0.557,0,0.768c-0.211,0.211-0.553,0.213-0.767,0l-0.766-0.766
				c-0.172-0.172-0.396-0.264-0.64-0.264c-0.239,0-0.469,0.092-0.639,0.264l-0.51,0.51
				C142.804,154.919,142.46,154.919,142.249,154.71z"/>
		</g>
	</g>
</g>
<g>
	<g>
		<g>
			<polygon fill="#FFFFFF" stroke="#432918" stroke-miterlimit="10" points="4.709,162.225 4.709,186.828 34.543,186.828 
				43.621,195.909 43.621,186.828 54.717,186.828 54.717,153.042 13.895,153.042 			"/>
			<polygon fill="#E1EFFA" points="4.709,171.411 13.895,162.225 9.303,157.631 4.709,162.225 			"/>
			<polygon fill="#FF8E31" points="13.895,162.225 4.709,162.225 13.895,153.042 			"/>
		</g>
		<g>
			<path fill="#5D6D7E" d="M30.002,182.714H15.724c-0.11,0-0.202-0.089-0.202-0.2s0.092-0.203,0.202-0.203h14.278
				c0.11,0,0.201,0.092,0.201,0.203S30.113,182.714,30.002,182.714z"/>
			<g>
				<g>
					<path fill="#5D6D7E" d="M22.375,180.523l2.939-5.119l-2.495-2.496l-5.12,2.936c0.034,2.227-0.604,4.464-1.919,6.375
						c-0.018,0.006-0.035,0.014-0.046,0.023c-0.029,0.027-0.029,0.077,0,0.105c0.028,0.027,0.075,0.027,0.104,0.001l4.282-4.48
						c-0.042-0.13-0.012-0.279,0.091-0.378c0.146-0.148,0.377-0.146,0.521,0c0.144,0.14,0.144,0.378,0.003,0.521
						c-0.102,0.107-0.252,0.136-0.38,0.091l-4.483,4.281c-0.025,0.027-0.028,0.075,0.001,0.11c0.031,0.026,0.08,0.026,0.107,0
						c0.017-0.015,0.019-0.035,0.025-0.052C17.913,181.125,20.146,180.487,22.375,180.523z"/>
					<path fill="#34495E" d="M16.008,182.441c-0.008,0.014-0.01,0.037-0.022,0.049c-0.03,0.029-0.082,0.029-0.11,0
						c-0.032-0.032-0.026-0.08-0.001-0.107l4.483-4.281c0.128,0.045,0.275,0.014,0.379-0.092c0.142-0.142,0.142-0.38-0.002-0.52
						l3.339-3.334l1.237,1.244l-2.936,5.123C20.154,180.488,17.913,181.125,16.008,182.441z"/>
				</g>
				<g>
					<path fill="#F15540" d="M41.236,156.984L41.236,156.984L41.236,156.984z"/>
					<path fill="#FF8E31" d="M42.17,159.241c0-0.882-0.356-1.678-0.935-2.257c-0.577-0.575-1.375-0.934-2.255-0.934
						c-0.882,0-1.68,0.357-2.257,0.934L25.311,168.4l4.51,4.508l11.449-11.445C41.847,160.885,42.17,160.121,42.17,159.241z"/>
					<g>
						<g>
							<path fill="#CC885A" d="M29.72,165.357c-0.149-0.152-0.149-0.397,0-0.547l5.161-5.16c0.15-0.151,0.395-0.151,0.546,0
								s0.151,0.396,0,0.548l-5.159,5.159C30.116,165.506,29.871,165.506,29.72,165.357z"/>
							<path fill="#CC885A" d="M37.758,157.506c-0.031-0.03-0.057-0.067-0.076-0.108c-0.09-0.191-0.009-0.424,0.185-0.517
								c0.354-0.166,0.729-0.25,1.115-0.25c0.696,0,1.354,0.271,1.846,0.764c0.149,0.149,0.149,0.396,0,0.547
								c-0.15,0.15-0.396,0.15-0.548,0.002c-0.348-0.35-0.809-0.541-1.298-0.541c-0.271,0-0.536,0.062-0.785,0.179
								C38.045,157.654,37.871,157.618,37.758,157.506z"/>
						</g>
					</g>
				</g>
				<polygon fill="#FF9D4D" points="25.47,175.554 22.67,172.756 25.707,168.795 29.43,172.517 				"/>
				
					<rect x="35.101" y="159.544" transform="matrix(-0.7073 -0.707 0.707 -0.7073 -47.6918 300.1143)" fill="#34495E" width="6.379" height="0.775"/>
				<polygon fill="#F28124" points="28.964,172.872 29.43,172.517 25.707,168.795 25.352,169.258 				"/>
				<path fill="#5D6D7E" d="M36.314,157.394l-0.134-0.135c-0.219-0.221-0.512-0.34-0.823-0.34c-0.311,0.004-0.603,0.124-0.819,0.346
					l-4.445,4.486c-0.15,0.147-0.15,0.395,0.002,0.546l0,0c0.152,0.15,0.396,0.149,0.546-0.003l4.446-4.485
					c0.072-0.074,0.17-0.115,0.272-0.115c0.104,0,0.201,0.039,0.275,0.114l0.133,0.135L36.314,157.394z"/>
			</g>
		</g>
	</g>
</g>
<g>
	<g>
		<g>
			<polygon fill="#0684BA" points="66.756,132.728 66.756,111.492 87.995,111.492 			"/>
			<polygon fill="#03628A" points="87.995,132.728 87.995,111.492 66.756,111.492 			"/>
		</g>
		<polygon fill="#042B38" points="77.377,76.839 82.114,73.693 85.161,78.495 90.77,77.545 91.599,83.172 97.109,84.587 
			95.578,90.065 100.035,93.597 96.41,97.98 99.046,103.019 93.951,105.547 94.308,111.225 88.625,111.461 86.642,116.793 
			81.356,114.699 77.377,118.764 73.397,114.699 68.11,116.793 66.127,111.461 60.445,111.225 60.8,105.547 55.707,103.019 
			58.342,97.98 54.717,93.597 59.174,90.064 57.645,84.587 63.154,83.172 63.985,77.545 69.592,78.495 72.638,73.693 		"/>
		<polygon fill="#FF8E31" points="74.194,110.954 69.963,112.628 68.378,108.365 63.833,108.174 64.118,103.633 60.043,101.611 
			62.153,97.58 59.25,94.074 62.817,91.248 61.592,86.865 66,85.735 66.664,81.234 71.15,81.993 73.586,78.151 77.377,80.669 
			81.166,78.151 83.604,81.993 88.089,81.234 88.753,85.735 93.16,86.865 91.935,91.248 95.502,94.074 92.601,97.58 94.709,101.611 
			90.634,103.633 90.92,108.174 86.375,108.365 84.789,112.628 80.559,110.954 77.377,114.205 		"/>
		<g>
			<path fill="#FFFFFF" d="M76.127,91.898h-0.039l-2.338,1.178l-0.412-1.826l3.103-1.532h2.024v12.765h-2.338V91.898z"/>
		</g>
	</g>
</g>
</svg>
