<?xml version="1.0" encoding="utf-8"?>
<!-- Generator: Adobe Illustrator 16.0.0, SVG Export Plug-In . SVG Version: 6.00 Build 0)  -->
<!DOCTYPE svg PUBLIC "-//W3C//DTD SVG 1.1//EN" "http://www.w3.org/Graphics/SVG/1.1/DTD/svg11.dtd" [
	<!ENTITY ns_extend "http://ns.adobe.com/Extensibility/1.0/">
	<!ENTITY ns_ai "http://ns.adobe.com/AdobeIllustrator/10.0/">
	<!ENTITY ns_graphs "http://ns.adobe.com/Graphs/1.0/">
	<!ENTITY ns_vars "http://ns.adobe.com/Variables/1.0/">
	<!ENTITY ns_imrep "http://ns.adobe.com/ImageReplacement/1.0/">
	<!ENTITY ns_sfw "http://ns.adobe.com/SaveForWeb/1.0/">
	<!ENTITY ns_custom "http://ns.adobe.com/GenericCustomNamespace/1.0/">
	<!ENTITY ns_adobe_xpath "http://ns.adobe.com/XPath/1.0/">
]>
<svg version="1.1" xmlns:x="&ns_extend;" xmlns:i="&ns_ai;" xmlns:graph="&ns_graphs;"
	 xmlns="http://www.w3.org/2000/svg" xmlns:xlink="http://www.w3.org/1999/xlink" x="0px" y="0px" width="58.194px"
	 height="199.396px" viewBox="0 0 58.194 199.396" enable-background="new 0 0 58.194 199.396" xml:space="preserve">
<metadata>
	<sfw  xmlns="&ns_sfw;">
		<slices></slices>
		<sliceSourceBounds  height="983.997" width="2816.138" y="-441.772" x="-391" bottomLeftOrigin="true"></sliceSourceBounds>
	</sfw>
</metadata>
<g id="Capa_4" display="none">
</g>
<g id="Capa_1">
</g>
<g id="Capa_7" display="none">
</g>
<g id="Capa_3">
</g>
<g id="Capa_5">
</g>
<g id="Capa_6">
</g>
<g id="Capa_2">
</g>
<g id="Capa_8">
	<g>
		<g>
			<g>
				<g>
					<path fill="#0684BA" d="M3.888,12.867l42.894,42.894l7.916-7.916L11.803,4.952L3.888,12.867z M11.364,12.432
						c-0.493,0.493-1.292,0.493-1.786-0.001c-0.492-0.492-0.492-1.293,0-1.786c0.494-0.493,1.293-0.493,1.786,0
						C11.858,11.137,11.858,11.938,11.364,12.432z"/>
					<path fill="#03628A" d="M7.844,8.912l1.734,1.733c0.494-0.493,1.293-0.493,1.786,0c0.494,0.493,0.494,1.294,0,1.788
						l39.372,39.373l3.961-3.959L11.803,4.952L7.844,8.912z"/>
					<g>
						<g>
							
								<rect x="16.119" y="9.944" transform="matrix(0.7071 0.7071 -0.7071 0.7071 12.6913 -8.2216)" fill="#FFFFFF" width="0.302" height="2.53"/>
							
								<rect x="19.692" y="13.519" transform="matrix(0.7047 0.7095 -0.7095 0.7047 16.3493 -9.7139)" fill="#FFFFFF" width="0.305" height="2.529"/>
							
								<rect x="23.267" y="17.093" transform="matrix(0.7079 0.7063 -0.7063 0.7079 19.8071 -11.1794)" fill="#FFFFFF" width="0.305" height="2.53"/>
							
								<rect x="26.843" y="20.668" transform="matrix(0.7071 0.7071 -0.7071 0.7071 23.4154 -12.6641)" fill="#FFFFFF" width="0.304" height="2.529"/>
							
								<rect x="30.415" y="24.241" transform="matrix(0.7071 0.7071 -0.7071 0.7071 26.9888 -14.1441)" fill="#FFFFFF" width="0.305" height="2.53"/>
							
								<rect x="33.991" y="27.816" transform="matrix(0.7071 0.7071 -0.7071 0.7071 30.5637 -15.6247)" fill="#FFFFFF" width="0.304" height="2.53"/>
							
								<rect x="37.565" y="31.391" transform="matrix(0.7071 0.7071 -0.7071 0.7071 34.1379 -17.1052)" fill="#FFFFFF" width="0.304" height="2.53"/>
							
								<rect x="41.14" y="34.964" transform="matrix(0.7071 0.7071 -0.7071 0.7071 37.7121 -18.5865)" fill="#FFFFFF" width="0.304" height="2.53"/>
							
								<rect x="44.713" y="38.539" transform="matrix(0.7095 0.7047 -0.7047 0.7095 41.0842 -20.0542)" fill="#FFFFFF" width="0.306" height="2.53"/>
							
								<rect x="48.289" y="42.113" transform="matrix(0.7071 0.7071 -0.7071 0.7071 44.8607 -21.547)" fill="#FFFFFF" width="0.302" height="2.53"/>
							
								<rect x="51.864" y="45.689" transform="matrix(0.7079 0.7063 -0.7063 0.7079 48.3571 -23.0243)" fill="#FFFFFF" width="0.303" height="2.53"/>
						</g>
					</g>
					<g>
						<g>
							
								<rect x="50.549" y="44.086" transform="matrix(0.7052 0.709 -0.709 0.7052 46.6477 -22.7461)" fill="#FFFFFF" width="0.252" height="1.264"/>
							
								<rect x="46.976" y="40.513" transform="matrix(0.7042 0.71 -0.71 0.7042 43.1478 -21.2712)" fill="#FFFFFF" width="0.25" height="1.263"/>
							
								<rect x="43.401" y="36.937" transform="matrix(0.7061 0.7081 -0.7081 0.7061 39.3931 -19.7796)" fill="#FFFFFF" width="0.252" height="1.265"/>
							
								<rect x="39.826" y="33.363" transform="matrix(0.7061 0.7081 -0.7081 0.7061 35.8118 -18.2992)" fill="#FFFFFF" width="0.252" height="1.264"/>
							
								<rect x="36.25" y="29.788" transform="matrix(0.709 0.7052 -0.7052 0.709 32.0364 -16.8008)" fill="#FFFFFF" width="0.253" height="1.264"/>
							
								<rect x="32.676" y="26.215" transform="matrix(0.7071 0.7071 -0.7071 0.7071 28.591 -15.3319)" fill="#FFFFFF" width="0.253" height="1.263"/>
							
								<rect x="29.103" y="22.64" transform="matrix(0.709 0.7052 -0.7052 0.709 24.9158 -13.8406)" fill="#FFFFFF" width="0.253" height="1.263"/>
							
								<rect x="25.528" y="19.065" transform="matrix(0.7032 0.711 -0.711 0.7032 21.6188 -12.3933)" fill="#FFFFFF" width="0.25" height="1.263"/>
							
								<rect x="21.953" y="15.491" transform="matrix(0.709 0.7052 -0.7052 0.709 17.7946 -10.8789)" fill="#FFFFFF" width="0.253" height="1.264"/>
							
								<rect x="18.38" y="11.918" transform="matrix(0.7071 0.7071 -0.7071 0.7071 14.2941 -9.4099)" fill="#FFFFFF" width="0.251" height="1.263"/>
						</g>
					</g>
				</g>
				<g>
					<polygon fill="#FFFFFF" points="7.719,44.273 3.888,55.761 15.377,51.932 					"/>
					
						<rect x="23.889" y="5.231" transform="matrix(0.7071 0.7071 -0.7071 0.7071 30.0409 -11.834)" fill="#5D6D7E" width="10.831" height="50.226"/>
					
						<rect x="25.079" y="2.359" transform="matrix(0.707 0.7072 -0.7072 0.707 27.1729 -10.6445)" fill="#34495E" width="2.709" height="50.226"/>
					
						<rect x="30.823" y="8.103" transform="matrix(0.7071 0.7071 -0.7071 0.7071 32.9118 -13.0236)" fill="#34495E" width="2.708" height="50.226"/>
					<polygon fill="#E1EFFA" points="7.719,44.273 9.634,46.188 3.888,55.761 					"/>
					<polygon fill="#E1EFFA" points="15.377,51.932 13.462,50.017 3.888,55.761 					"/>
					<polygon fill="#5D6D7E" points="5.387,51.262 3.888,55.761 8.388,54.263 					"/>
					<g>
						<g>
							<polygon fill="#34495E" points="5.387,51.262 3.888,55.761 6.139,52.012 							"/>
							<polygon fill="#34495E" points="7.639,53.513 3.888,55.761 8.388,54.263 							"/>
						</g>
					</g>
					
						<rect x="42.285" y="11.045" transform="matrix(0.7071 0.7071 -0.7071 0.7071 22.4185 -30.2295)" fill="#FFFFFF" width="10.833" height="1.806"/>
					
						<rect x="43.475" y="8.173" transform="matrix(0.7073 0.7069 -0.7069 0.7073 19.5379 -29.0343)" fill="#E1EFFA" width="2.709" height="1.806"/>
					
						<rect x="49.218" y="13.917" transform="matrix(0.707 0.7072 -0.7072 0.707 25.298 -31.4231)" fill="#E1EFFA" width="2.71" height="1.807"/>
					<path fill="#0684BA" d="M49.873,5.693c-0.457-0.457-1.091-0.74-1.788-0.74c-0.698,0-1.331,0.283-1.788,0.74L44.51,7.48
						l7.66,7.66l1.786-1.787c0.458-0.458,0.742-1.089,0.741-1.788c0-0.698-0.283-1.329-0.74-1.786L49.873,5.693z"/>
					<path fill="#5C7F89" d="M46.17,7.354c-0.213-0.212-0.211-0.557,0-0.766l0.51-0.512c0.375-0.375,0.873-0.581,1.403-0.581
						c0.532,0,1.03,0.205,1.405,0.581l0.766,0.766c0.213,0.212,0.213,0.555,0,0.767c-0.211,0.21-0.553,0.212-0.766,0l-0.766-0.765
						c-0.172-0.172-0.396-0.265-0.64-0.265c-0.239,0-0.468,0.093-0.638,0.264l-0.51,0.51C46.725,7.563,46.381,7.564,46.17,7.354z"/>
				</g>
			</g>
		</g>
		<g>
			<g>
				<g>
					<polygon fill="#FFFFFF" stroke="#432918" stroke-miterlimit="10" points="4.709,162.225 4.709,186.828 34.543,186.828 
						43.621,195.909 43.621,186.828 54.717,186.828 54.717,153.042 13.895,153.042 					"/>
					<polygon fill="#E1EFFA" points="4.709,171.411 13.895,162.225 9.303,157.631 4.709,162.225 					"/>
					<polygon fill="#FF8E31" points="13.895,162.225 4.709,162.225 13.895,153.042 					"/>
				</g>
				<g>
					<path fill="#5D6D7E" d="M30.002,182.714H15.724c-0.11,0-0.202-0.089-0.202-0.201c0-0.111,0.092-0.203,0.202-0.203h14.278
						c0.111,0,0.201,0.092,0.201,0.203C30.203,182.625,30.113,182.714,30.002,182.714z"/>
					<g>
						<g>
							<path fill="#5D6D7E" d="M22.375,180.523l2.94-5.119l-2.495-2.496l-5.121,2.936c0.035,2.226-0.604,4.463-1.918,6.375
								c-0.018,0.005-0.036,0.013-0.046,0.023c-0.03,0.027-0.03,0.077,0,0.105c0.028,0.028,0.075,0.028,0.104,0.001l4.282-4.48
								c-0.042-0.13-0.011-0.279,0.091-0.378c0.146-0.148,0.377-0.146,0.521,0c0.143,0.14,0.143,0.378,0.003,0.521
								c-0.102,0.107-0.252,0.135-0.38,0.09l-4.484,4.282c-0.025,0.027-0.028,0.075,0.001,0.11c0.032,0.026,0.08,0.026,0.108,0
								c0.016-0.015,0.018-0.035,0.025-0.052C17.913,181.125,20.146,180.487,22.375,180.523z"/>
							<path fill="#34495E" d="M16.008,182.441c-0.008,0.014-0.01,0.037-0.022,0.049c-0.031,0.029-0.082,0.029-0.111,0
								c-0.032-0.032-0.026-0.08-0.001-0.107l4.484-4.282c0.128,0.045,0.275,0.014,0.379-0.091c0.141-0.142,0.141-0.38-0.002-0.52
								l3.338-3.334l1.238,1.244l-2.936,5.123C20.154,180.488,17.913,181.125,16.008,182.441z"/>
						</g>
						<g>
							<polygon fill="#F15540" points="41.236,156.984 41.236,156.984 41.236,156.984 							"/>
							<path fill="#FF8E31" d="M42.17,159.241c0-0.882-0.356-1.678-0.934-2.257c-0.578-0.575-1.375-0.933-2.255-0.933
								c-0.882,0-1.68,0.357-2.257,0.933L25.311,168.4l4.51,4.508l11.449-11.445C41.847,160.885,42.17,160.121,42.17,159.241z"/>
							<g>
								<g>
									<path fill="#CC885A" d="M29.72,165.357c-0.149-0.152-0.149-0.397,0-0.547l5.161-5.16c0.15-0.151,0.395-0.151,0.546,0
										c0.151,0.152,0.151,0.396,0,0.548l-5.159,5.159C30.116,165.506,29.871,165.506,29.72,165.357z"/>
									<path fill="#CC885A" d="M37.758,157.506c-0.031-0.031-0.057-0.068-0.076-0.109c-0.09-0.191-0.009-0.424,0.184-0.516
										c0.354-0.166,0.729-0.25,1.116-0.25c0.696,0,1.353,0.27,1.845,0.763c0.15,0.15,0.15,0.396,0,0.547
										s-0.396,0.151-0.547,0.002c-0.348-0.349-0.809-0.541-1.298-0.541c-0.272,0-0.536,0.062-0.785,0.179
										C38.045,157.654,37.871,157.618,37.758,157.506z"/>
								</g>
							</g>
						</g>
						<polygon fill="#FF9D4D" points="25.47,175.554 22.67,172.756 25.707,168.795 29.43,172.517 						"/>
						
							<rect x="35.107" y="159.536" transform="matrix(0.7073 0.707 -0.707 0.7073 124.2694 19.7419)" fill="#34495E" width="6.379" height="0.775"/>
						<polygon fill="#F28124" points="28.964,172.872 29.43,172.517 25.707,168.795 25.352,169.258 						"/>
						<path fill="#5D6D7E" d="M36.314,157.394l-0.134-0.134c-0.219-0.221-0.512-0.34-0.823-0.34
							c-0.311,0.004-0.603,0.124-0.82,0.345l-4.445,4.487c-0.15,0.147-0.15,0.394,0.002,0.546l0,0
							c0.152,0.15,0.396,0.149,0.546-0.003l4.446-4.486c0.072-0.074,0.17-0.115,0.273-0.115s0.201,0.039,0.275,0.114l0.133,0.135
							L36.314,157.394z"/>
					</g>
				</g>
			</g>
		</g>
		<g>
			<g>
				<g>
					<polygon fill="#0684BA" points="19.477,132.728 19.477,111.492 40.716,111.492 					"/>
					<polygon fill="#03628A" points="40.716,132.728 40.716,111.492 19.477,111.492 					"/>
				</g>
				<polygon fill="#042B38" points="30.098,76.839 34.834,73.693 37.882,78.495 43.49,77.545 44.32,83.172 49.829,84.587 
					48.299,90.065 52.756,93.597 49.131,97.98 51.767,103.019 46.672,105.547 47.029,111.225 41.346,111.461 39.363,116.793 
					34.076,114.699 30.098,118.764 26.117,114.699 20.83,116.793 18.848,111.461 13.165,111.225 13.521,105.547 8.428,103.019 
					11.063,97.98 7.438,93.597 11.895,90.064 10.365,84.587 15.874,83.172 16.705,77.545 22.313,78.495 25.359,73.693 				"/>
				<polygon fill="#FF8E31" points="26.914,110.954 22.684,112.628 21.099,108.365 16.554,108.174 16.839,103.633 12.764,101.611 
					14.873,97.58 11.971,94.074 15.537,91.248 14.313,86.865 18.721,85.735 19.385,81.234 23.87,81.993 26.307,78.151 
					30.098,80.669 33.887,78.151 36.324,81.993 40.81,81.234 41.474,85.735 45.881,86.865 44.656,91.248 48.223,94.074 
					45.322,97.58 47.43,101.611 43.355,103.633 43.641,108.174 39.096,108.365 37.51,112.628 33.28,110.954 30.098,114.205 				"/>
				<g>
					<polygon fill="#FFFFFF" points="24.698,98.501 20.503,92.831 19.92,92.831 19.92,99.525 20.492,99.525 20.492,93.773 
						24.708,99.525 25.271,99.525 25.271,92.831 24.698,92.831 					"/>
					<polygon fill="#FFFFFF" points="26.936,99.525 31.182,99.525 31.182,99.004 27.507,99.004 27.507,96.353 31.111,96.353 
						31.111,95.833 27.507,95.833 27.507,93.353 31.182,93.353 31.182,92.831 26.936,92.831 					"/>
					<polygon fill="#FFFFFF" points="39.631,92.831 38.016,98.721 36.379,92.831 35.857,92.831 34.212,98.721 32.596,92.831 
						31.953,92.831 33.871,99.525 34.514,99.525 36.119,93.773 37.725,99.525 38.367,99.525 40.273,92.831 					"/>
				</g>
			</g>
		</g>
	</g>
</g>
</svg>
