<?xml version="1.0" encoding="utf-8"?>
<!-- Generator: Adobe Illustrator 16.0.0, SVG Export Plug-In . SVG Version: 6.00 Build 0)  -->
<!DOCTYPE svg PUBLIC "-//W3C//DTD SVG 1.1//EN" "http://www.w3.org/Graphics/SVG/1.1/DTD/svg11.dtd">
<svg version="1.1" id="Capa_1" xmlns="http://www.w3.org/2000/svg" xmlns:xlink="http://www.w3.org/1999/xlink" x="0px" y="0px"
	 width="595.279px" height="370.713px" viewBox="0 235.589 595.279 370.713" enable-background="new 0 235.589 595.279 370.713"
	 xml:space="preserve">
<g id="XMLID_188_">
	<g id="XMLID_430_">
		
			<circle id="XMLID_186_" fill="none" stroke="#89CCE0" stroke-width="4.6606" stroke-miterlimit="10" cx="189.787" cy="474.203" r="32.607"/>
		<path id="XMLID_185_" fill="none" stroke="#F3A11E" stroke-width="7.7676" stroke-miterlimit="10" d="M166.712,497.279
			c-12.708-12.709-12.708-33.275,0-45.984s33.275-12.709,45.983,0"/>
		<path id="XMLID_184_" fill="none" stroke="#EE7449" stroke-width="4.0392" stroke-miterlimit="10" d="M212.696,497.279
			c-12.708,12.707-33.275,12.707-45.983,0c-12.708-12.709-12.708-33.275,0-45.984"/>
		<path id="XMLID_183_" fill="none" stroke="#FFFFFF" stroke-width="9.6318" stroke-miterlimit="10" d="M212.696,497.279
			c-12.708,12.707-33.275,12.707-45.983,0"/>
	</g>
	<g id="men_2">
		<g id="XMLID_427_">
			<circle id="XMLID_182_" fill="#FFCC73" cx="42.64" cy="278.228" r="42.639"/>
			<path id="XMLID_181_" fill="#E8B156" d="M85.279,278.229c0-23.577-19.062-42.64-42.639-42.64v85.279
				C66.217,320.868,85.279,301.806,85.279,278.229z"/>
		</g>
		<g id="XMLID_405_">
			<g id="XMLID_406_">
				<g>
					<defs>
						<circle id="SVGID_1_" cx="42.64" cy="278.228" r="42.639"/>
					</defs>
					<clipPath id="SVGID_2_">
						<use xlink:href="#SVGID_1_"  overflow="visible"/>
					</clipPath>
					<g id="XMLID_407_" clip-path="url(#SVGID_2_)">
						<rect id="XMLID_179_" x="36.452" y="289.097" fill="#D8A68A" width="12.541" height="13.711"/>
						<path id="XMLID_178_" fill="#BECED6" d="M34.948,297.124c0,0-11.872,1.672-13.711,3.511
							c-1.506,1.672-4.683,16.889-5.352,20.233c20.902,0,26.755,0,26.755,0v-23.075L34.948,297.124z"/>
						<path id="XMLID_177_" fill="#A5BBC6" d="M50.498,297.124c0,0,11.872,1.672,13.712,3.511
							c1.505,1.672,4.682,16.889,5.518,20.233c-20.901,0-26.754,0-26.754,0v-23.075L50.498,297.124z"/>
						<polygon id="XMLID_176_" fill="#0BA698" points="41.803,300.133 40.298,316.353 42.64,320.868 44.981,316.353 43.476,300.133 
													"/>
						<path id="XMLID_175_" fill="#0BA698" d="M44.813,299.966l-2.173,2.174l-2.174-2.174l2.174-2.173L44.813,299.966z"/>
						<g id="XMLID_418_">
							<path id="XMLID_174_" fill="#E8BEA6" d="M42.64,249.802c6.02,0,15.718,3.512,15.718,19.564c0,9.364-3.01,15.383-4.348,17.056
								c-1.171,1.505-8.026,4.849-11.37,4.849C42.64,275.051,42.64,249.802,42.64,249.802z"/>
							<path id="XMLID_173_" fill="#E8BEA6" d="M61.367,273.212c0.334-2.508-1.003-4.849-2.676-5.184
								c-1.839-0.167-3.511,1.672-3.679,4.18c-0.334,2.508,1.004,4.849,2.676,5.184S61.032,275.887,61.367,273.212z"/>
						</g>
						<g id="XMLID_415_">
							<path id="XMLID_172_" fill="#F0D6BB" d="M42.64,249.802c-6.021,0-15.719,3.512-15.719,19.564
								c0,9.364,3.01,15.383,4.348,17.056c1.171,1.505,8.026,4.849,11.371,4.849C42.64,275.051,42.64,249.802,42.64,249.802z"/>
							<path id="XMLID_171_" fill="#F0D6BB" d="M23.911,273.212c-0.334-2.508,1.004-4.849,2.676-5.184
								c1.839-0.167,3.512,1.672,3.679,4.18c0.334,2.508-1.004,4.849-2.676,5.184S24.246,275.887,23.911,273.212z"/>
						</g>
						<polygon id="XMLID_170_" fill="#FFFFFF" points="42.64,297.792 36.285,295.284 34.781,296.789 37.957,303.812 						"/>
						<polygon id="XMLID_169_" fill="#FFFFFF" points="42.64,297.792 48.993,295.284 50.498,296.789 47.489,303.812 						"/>
						<rect id="XMLID_168_" x="28.928" y="314.012" fill="#8096A1" width="7.859" height="1.672"/>
						<rect id="XMLID_167_" x="48.491" y="314.012" fill="#8096A1" width="7.859" height="1.672"/>
						<path id="XMLID_166_" fill="#8A613E" d="M29.095,273.546h1.004c0,0-0.669-4.18,1.337-5.518c0-2.174,0-2.675,0-2.675
							s-0.669-0.167-0.669-3.344c0-3.177,3.847-5.518,12.04-5.518c0-4.515,0-9.866,0-9.866s-16.053,1.672-16.053,13.377
							c0,4.849,0,8.026,0,8.026s1.171-0.167,2.007,0.501C29.43,269.366,29.095,273.546,29.095,273.546z"/>
						<path id="XMLID_165_" fill="#8A613E" d="M56.017,273.546h-1.004c0,0,0.669-4.18-1.337-5.518c0-2.174,0-2.675,0-2.675
							s0.668-0.167,0.668-3.344c0-3.177-3.846-5.518-12.039-5.518c0-4.515,0-9.866,0-9.866s16.053,1.672,16.053,13.377
							c0,4.849,0,8.026,0,8.026s-1.171-0.167-2.007,0.501C55.682,269.366,56.017,273.546,56.017,273.546z"/>
						<path id="XMLID_164_" fill="#FFFFFF" d="M42.64,284.415c2.842,0,5.184-1.003,5.184-2.006h-10.2
							C37.623,283.579,39.797,284.415,42.64,284.415z"/>
					</g>
				</g>
			</g>
		</g>
	</g>
	<g id="men_4">
		<g id="XMLID_402_">
			<circle id="XMLID_163_" fill="#76C5ED" cx="132.935" cy="278.228" r="42.639"/>
			<path id="XMLID_162_" fill="#4DAACE" d="M175.574,278.229c0-23.577-19.063-42.64-42.64-42.64v85.279
				C156.512,320.868,175.574,301.806,175.574,278.229z"/>
		</g>
		<g id="XMLID_378_">
			<g id="XMLID_379_">
				<g>
					<defs>
						<circle id="SVGID_3_" cx="132.935" cy="278.228" r="42.639"/>
					</defs>
					<clipPath id="SVGID_4_">
						<use xlink:href="#SVGID_3_"  overflow="visible"/>
					</clipPath>
					<g id="XMLID_380_" clip-path="url(#SVGID_4_)">
						<path id="XMLID_160_" fill="#2D404E" d="M140.794,297.124c0,0,11.872,1.672,13.711,3.511
							c1.505,1.672,4.683,16.889,5.519,20.233c-20.902,0-26.755,0-26.755,0v-23.075L140.794,297.124z"/>
						<rect id="XMLID_159_" x="126.748" y="289.097" fill="#D8A68A" width="12.541" height="13.711"/>
						<g id="XMLID_396_">
							<path id="XMLID_158_" fill="#E8BEA6" d="M132.935,249.802c6.02,0,15.718,3.512,15.718,19.564
								c0,9.364-3.01,15.383-4.348,17.056c-1.17,1.505-8.026,4.849-11.37,4.849C132.935,275.051,132.935,249.802,132.935,249.802z"
								/>
							<path id="XMLID_157_" fill="#E8BEA6" d="M151.662,273.212c0.335-2.508-1.003-4.849-2.675-5.184
								c-1.84-0.167-3.512,1.672-3.679,4.18c-0.335,2.508,1.003,4.849,2.675,5.184C149.656,277.727,151.328,275.887,151.662,273.212
								z"/>
						</g>
						<g id="XMLID_393_">
							<path id="XMLID_156_" fill="#F0D6BB" d="M132.935,249.802c-6.02,0-15.718,3.512-15.718,19.564
								c0,9.364,3.01,15.383,4.348,17.056c1.17,1.505,8.025,4.849,11.37,4.849C132.935,275.051,132.935,249.802,132.935,249.802z"/>
							<path id="XMLID_155_" fill="#F0D6BB" d="M114.207,273.212c-0.335-2.508,1.003-4.849,2.675-5.184
								c1.84-0.167,3.512,1.672,3.679,4.18c0.335,2.508-1.003,4.849-2.675,5.184C116.213,277.727,114.541,275.887,114.207,273.212z"
								/>
						</g>
						<path id="XMLID_154_" fill="#E5E5E6" d="M124.741,253.146c0,0-5.351,6.354-3.345,12.207c0.335,7.023-0.334,9.364-2.675,11.203
							c0.501-6.688-0.168-9.029-2.676-8.193C115.377,263.012,117.551,248.799,124.741,253.146z"/>
						<path id="XMLID_153_" fill="#E5E5E6" d="M141.128,253.146c0,0,5.351,6.354,3.345,12.207
							c-0.335,7.023,0.334,9.364,2.675,11.203c-0.501-6.688,0.167-9.029,2.676-8.193
							C150.492,263.012,148.319,248.799,141.128,253.146z"/>
						<path id="XMLID_152_" fill="#344650" d="M125.243,297.124c0,0-11.873,1.672-13.712,3.511
							c-1.505,1.672-4.682,16.889-5.519,20.233c20.902,0,26.755,0,26.755,0v-23.075L125.243,297.124z"/>
						<polyline id="XMLID_151_" fill="#B6C5CE" points="140.794,296.789 132.935,297.792 125.075,296.789 132.935,320.868 						"/>
						<polygon id="XMLID_150_" fill="#B73D41" points="132.099,300.133 130.594,316.353 132.935,320.868 135.276,316.353 
							133.771,300.133 						"/>
						<path id="XMLID_149_" fill="#222B30" d="M127.249,307.323l-6.354-9.364c1.672-0.669,3.511-1.17,5.518-1.337l6.521,24.246
							l-9.029-13.042L127.249,307.323z"/>
						<path id="XMLID_148_" fill="#222B30" d="M138.62,307.323l6.354-9.364c-1.672-0.669-3.511-1.17-5.518-1.337l-6.521,24.246
							l9.029-13.042L138.62,307.323z"/>
						<path id="XMLID_147_" fill="#B73D41" d="M135.109,299.966l-2.174,2.174l-2.174-2.174l2.174-2.173L135.109,299.966z"/>
						<polygon id="XMLID_146_" fill="#FFFFFF" points="132.935,297.792 126.58,295.284 125.075,296.789 128.253,303.812 						"/>
						<polygon id="XMLID_145_" fill="#FFFFFF" points="132.935,297.792 139.289,295.284 140.794,296.789 137.784,303.812 						"/>
						<polygon id="XMLID_144_" fill="#5C3116" points="133.102,281.405 133.102,282.91 128.42,283.914 127.416,283.914 						"/>
						<polygon id="XMLID_143_" fill="#5C3116" points="132.935,281.405 132.935,282.91 137.616,283.914 138.62,283.914 						"/>
					</g>
				</g>
			</g>
		</g>
	</g>
	<g id="XMLID_320_">
		<path id="XMLID_142_" fill="none" stroke="#1D1E1C" stroke-width="0.1775" stroke-miterlimit="10" d="M126.748,412.835"/>
		<path id="XMLID_141_" fill="#BBBBBA" d="M129.089,409.993H68.558c0,0,0,2.843,5.853,2.843h54.679h50.164
			c5.853,0,5.853-2.843,5.853-2.843H129.089z"/>
		<path id="XMLID_140_" fill="#DFDEDF" d="M171.896,408.32v-60.029c0-1.672-1.338-3.01-3.01-3.01H84.61
			c-1.672,0-3.01,1.338-3.01,3.01v60.029H171.896z"/>
		<path id="XMLID_139_" fill="#141414" d="M171.06,408.32v-59.193c0-1.672-1.338-3.01-3.01-3.01H85.447
			c-1.673,0-3.01,1.337-3.01,3.01v59.193H171.06z"/>
		<rect id="XMLID_138_" x="86.951" y="351.133" fill="#28ADE3" width="79.594" height="52.338"/>
		<path id="XMLID_137_" fill="#DFDEDF" d="M185.106,409.993c0,0.501-0.335,0.836-0.836,0.836H69.227
			c-0.335,0-0.837-0.334-0.837-0.836v-2.341c0-0.501,0.335-0.836,0.837-0.836H184.27c0.334,0,0.836,0.334,0.836,0.836V409.993
			L185.106,409.993z"/>
		<path id="XMLID_136_" fill="#BBBBBA" d="M126.748,406.983h-8.862c0,0,0.167,1.337,1.505,1.337c1.337,0,7.357,0,7.357,0
			s6.02,0,7.357,0c1.337,0,1.505-1.337,1.505-1.337H126.748z"/>
		<path id="XMLID_135_" fill="#504F58" d="M162.531,359.996c0,0.334-0.167,0.502-0.502,0.502h-2.842
			c-0.335,0-0.502-0.167-0.502-0.502v-2.675c0-0.334,0.167-0.501,0.502-0.501h2.842c0.335,0,0.502,0.167,0.502,0.501V359.996z"/>
		<path id="XMLID_134_" fill="#FCCE58" d="M162.198,363.507h-1.84v-0.167c0-0.167-0.167-0.167-0.167-0.167h-1.338
			c-0.167,0-0.167,0.167-0.167,0.167v0.502v0.501v1.505c0,0.167,0.167,0.167,0.167,0.167h3.345c0.167,0,0.167-0.167,0.167-0.167
			v-2.006C162.531,363.674,162.365,363.507,162.198,363.507z"/>
		<path id="XMLID_133_" fill="#FCCE58" d="M162.198,368.523h-1.84v-0.167c0-0.167-0.167-0.167-0.167-0.167h-1.338
			c-0.167,0-0.167,0.167-0.167,0.167v0.501v0.502v1.505c0,0.167,0.167,0.167,0.167,0.167h3.345c0.167,0,0.167-0.167,0.167-0.167
			v-2.007C162.531,368.523,162.365,368.523,162.198,368.523z"/>
		<path id="XMLID_132_" fill="#FCCE58" d="M162.198,373.039h-1.84v-0.167c0-0.167-0.167-0.167-0.167-0.167h-1.338
			c-0.167,0-0.167,0.167-0.167,0.167v0.502v0.501v1.505c0,0.167,0.167,0.167,0.167,0.167h3.345c0.167,0,0.167-0.167,0.167-0.167
			v-2.006C162.531,373.206,162.365,373.039,162.198,373.039z"/>
		<path id="XMLID_131_" fill="#FCCE58" d="M162.198,377.72h-1.84v-0.167c0-0.167-0.167-0.167-0.167-0.167h-1.338
			c-0.167,0-0.167,0.167-0.167,0.167v0.501v0.502v1.505c0,0.167,0.167,0.167,0.167,0.167h3.345c0.167,0,0.167-0.167,0.167-0.167
			v-2.007C162.531,377.72,162.365,377.72,162.198,377.72z"/>
		<path id="XMLID_130_" fill="#FCCE58" d="M162.198,382.235h-1.84v-0.167c0-0.167-0.167-0.167-0.167-0.167h-1.338
			c-0.167,0-0.167,0.167-0.167,0.167v0.501v0.502v1.505c0,0.167,0.167,0.167,0.167,0.167h3.345c0.167,0,0.167-0.167,0.167-0.167
			v-2.006C162.531,382.402,162.365,382.235,162.198,382.235z"/>
		<g id="XMLID_342_">
			<g id="XMLID_343_">
				<g id="XMLID_344_">
					<g id="XMLID_355_">
						<path id="XMLID_128_" fill="#D9D9DA" d="M146.981,397.284c0,0.167-0.167,0.334-0.334,0.334H92.804
							c-0.168,0-0.335-0.167-0.335-0.334v-32.606c0-0.167,0.167-0.334,0.335-0.334h53.843c0.167,0,0.334,0.167,0.334,0.334V397.284
							L146.981,397.284z"/>
						<rect id="XMLID_127_" x="94.476" y="369.025" fill="#737374" width="51.167" height="26.921"/>
						<rect id="XMLID_126_" x="92.469" y="368.691" fill="#A4A4A4" width="54.512" height="0.334"/>
						<g id="XMLID_356_">
							<ellipse id="XMLID_125_" fill="#E5335A" cx="94.476" cy="366.183" rx="0.836" ry="0.836"/>
							<ellipse id="XMLID_124_" fill="#F9BB29" cx="97.151" cy="366.183" rx="0.836" ry="0.836"/>
							<ellipse id="XMLID_123_" fill="#4AAA48" cx="99.993" cy="366.183" rx="0.836" ry="0.836"/>
						</g>
					</g>
					<g id="XMLID_348_">
						<rect id="XMLID_122_" x="102.502" y="374.71" fill="#EFEEEE" width="32.773" height="21.236"/>
						<g id="XMLID_349_">
							<path id="XMLID_121_" fill="#A4A4A4" d="M131.932,379.393c0,0.334-0.335,0.669-0.669,0.669h-24.915
								c-0.335,0-0.669-0.334-0.669-0.669l0,0c0-0.334,0.334-0.669,0.669-0.669h24.915
								C131.597,378.891,131.932,379.058,131.932,379.393L131.932,379.393z"/>
							<path id="XMLID_120_" fill="#A4A4A4" d="M131.932,383.573c0,0.334-0.335,0.669-0.669,0.669h-24.915
								c-0.335,0-0.669-0.334-0.669-0.669l0,0c0-0.334,0.334-0.669,0.669-0.669h24.915
								C131.597,382.904,131.932,383.238,131.932,383.573L131.932,383.573z"/>
							<path id="XMLID_119_" fill="#A4A4A4" d="M131.932,387.753c0,0.334-0.335,0.668-0.669,0.668h-24.915
								c-0.335,0-0.669-0.334-0.669-0.668l0,0c0-0.334,0.334-0.669,0.669-0.669h24.915
								C131.597,387.084,131.932,387.419,131.932,387.753L131.932,387.753z"/>
							<path id="XMLID_118_" fill="#A4A4A4" d="M131.932,391.934c0,0.334-0.335,0.669-0.669,0.669h-24.915
								c-0.335,0-0.669-0.334-0.669-0.669l0,0c0-0.334,0.334-0.669,0.669-0.669h24.915
								C131.597,391.265,131.932,391.599,131.932,391.934L131.932,391.934z"/>
						</g>
					</g>
					
						<line id="XMLID_117_" opacity="0.2" fill="none" stroke="#141414" stroke-width="0.5324" stroke-linecap="round" stroke-linejoin="round" stroke-miterlimit="10" enable-background="new    " x1="103.338" y1="366.183" x2="108.02" y2="366.183"/>
					
						<line id="XMLID_116_" opacity="0.2" fill="none" stroke="#141414" stroke-width="0.5324" stroke-linecap="round" stroke-linejoin="round" stroke-miterlimit="10" enable-background="new    " x1="111.698" y1="366.183" x2="116.381" y2="366.183"/>
					
						<line id="XMLID_115_" opacity="0.2" fill="none" stroke="#141414" stroke-width="0.5324" stroke-linecap="round" stroke-linejoin="round" stroke-miterlimit="10" enable-background="new    " x1="120.06" y1="366.183" x2="124.741" y2="366.183"/>
				</g>
			</g>
		</g>
		<g id="XMLID_322_">
			<g id="XMLID_323_">
				<g id="XMLID_324_">
					<path id="XMLID_113_" fill="#D9D9DA" d="M152.666,385.078c0,0.167-0.168,0.334-0.335,0.334h-25.918
						c-0.167,0-0.334-0.167-0.334-0.334v-26.921c0-0.167,0.167-0.334,0.334-0.334h25.918c0.167,0,0.335,0.167,0.335,0.334V385.078
						L152.666,385.078z"/>
					<g id="XMLID_336_">
						<path id="XMLID_112_" fill="#CDCDCD" d="M136.279,382.737c0,0.501-0.501,1.003-1.003,1.003h-4.348
							c-0.501,0-1.003-0.502-1.003-1.003v-0.669c0-0.501,0.334-1.003,1.003-1.003h4.348c0.502,0,1.003,0.502,1.003,1.003V382.737z"
							/>
						<path id="XMLID_111_" fill="#348DCC" d="M147.817,382.737c0,0.501-0.334,1.003-1.003,1.003h-4.348
							c-0.502,0-1.003-0.502-1.003-1.003v-0.669c0-0.501,0.334-1.003,1.003-1.003h4.348c0.501,0,1.003,0.502,1.003,1.003V382.737z"
							/>
					</g>
					<rect id="XMLID_110_" x="126.079" y="362.169" fill="#A4A4A4" width="26.754" height="0.334"/>
					<g id="XMLID_331_">
						<ellipse id="XMLID_109_" fill="#E5335A" cx="128.085" cy="359.661" rx="0.836" ry="0.836"/>
						<ellipse id="XMLID_108_" fill="#F9BB29" cx="130.761" cy="359.661" rx="0.836" ry="0.836"/>
						<ellipse id="XMLID_107_" fill="#4AAA48" cx="133.437" cy="359.661" rx="0.836" ry="0.836"/>
					</g>
					<rect id="XMLID_106_" x="128.587" y="364.009" fill="#EFEEEE" width="22.239" height="15.049"/>
					<g id="XMLID_325_">
						<path id="XMLID_105_" fill="#A4A4A4" d="M148.486,367.186c0,0.167-0.167,0.501-0.334,0.501h-17.057
							c-0.167,0-0.334-0.167-0.334-0.501l0,0c0-0.167,0.167-0.502,0.334-0.502h17.057
							C148.319,366.684,148.486,366.852,148.486,367.186L148.486,367.186z"/>
						<path id="XMLID_104_" fill="#A4A4A4" d="M148.486,370.028c0,0.167-0.167,0.502-0.334,0.502h-17.057
							c-0.167,0-0.334-0.167-0.334-0.502l0,0c0-0.167,0.167-0.501,0.334-0.501h17.057
							C148.319,369.527,148.486,369.694,148.486,370.028L148.486,370.028z"/>
						<path id="XMLID_103_" fill="#A4A4A4" d="M148.486,372.871c0,0.167-0.167,0.502-0.334,0.502h-17.057
							c-0.167,0-0.334-0.167-0.334-0.502l0,0c0-0.167,0.167-0.501,0.334-0.501h17.057
							C148.319,372.37,148.486,372.537,148.486,372.871L148.486,372.871z"/>
						<path id="XMLID_102_" fill="#A4A4A4" d="M148.486,375.714c0,0.167-0.167,0.501-0.334,0.501h-17.057
							c-0.167,0-0.334-0.167-0.334-0.501l0,0c0-0.167,0.167-0.501,0.334-0.501h17.057
							C148.319,375.212,148.486,375.379,148.486,375.714L148.486,375.714z"/>
					</g>
				</g>
			</g>
		</g>
		
			<linearGradient id="XMLID_26_" gradientUnits="userSpaceOnUse" x1="89.7185" y1="661.1372" x2="89.7185" y2="624.7378" gradientTransform="matrix(1.6721 0 0 1.6721 -0.1141 -698.605)">
			<stop  offset="0" style="stop-color:#FFFFFF;stop-opacity:0"/>
			<stop  offset="0.1281" style="stop-color:#FFFFFF;stop-opacity:0.1281"/>
			<stop  offset="1" style="stop-color:#FFFFFF"/>
		</linearGradient>
		<path id="XMLID_101_" opacity="0.24" fill="url(#XMLID_26_)" enable-background="new    " d="M171.06,349.127
			c0-1.672-1.338-3.01-3.01-3.01h-22.407l-16.889,60.866h42.138C171.06,406.815,171.06,349.127,171.06,349.127z"/>
	</g>
	<g id="XMLID_295_">
		<path id="XMLID_100_" fill="#1C1D1A" d="M193.633,259.333h10.535v3.679h-6.856v3.512h7.023v3.511h-7.023v5.184h7.023v3.678H193.8
			v-19.564H193.633z"/>
		<path id="XMLID_99_" fill="#1C1D1A" d="M207.01,258.832h3.679v19.898h-3.679V258.832z"/>
		<path id="XMLID_315_" fill="#1C1D1A" d="M222.896,258.497c0.669,0,1.17,0.167,1.672,0.669s0.669,1.003,0.669,1.672
			c0,0.669-0.167,1.171-0.669,1.672s-1.003,0.669-1.672,0.669s-1.171-0.167-1.672-0.669c-0.502-0.501-0.669-1.003-0.669-1.672
			c0-0.668,0.167-1.17,0.669-1.672C221.725,258.665,222.227,258.497,222.896,258.497z M221.056,264.35h3.679v14.38h-3.679V264.35z"
			/>
		<path id="XMLID_96_" fill="#1C1D1A" d="M227.912,264.35h3.679v1.505c0.836-0.669,1.505-1.17,2.174-1.505s1.337-0.334,2.006-0.334
			c1.505,0,2.676,0.501,3.679,1.505c0.836,0.836,1.338,2.174,1.338,3.679v9.531h-3.512v-6.354c0-1.672,0-2.843-0.167-3.344
			c-0.167-0.502-0.502-1.003-0.836-1.338s-0.836-0.501-1.338-0.501c-0.669,0-1.338,0.167-1.839,0.669
			c-0.502,0.501-0.836,1.17-1.004,2.006c-0.167,0.501-0.167,1.338-0.167,2.843v5.852h-3.679L227.912,264.35L227.912,264.35z"/>
		<path id="XMLID_95_" fill="#1C1D1A" d="M252.994,266.356l-2.174,2.174c-0.836-0.836-1.672-1.337-2.509-1.337
			c-0.334,0-0.669,0.167-1.003,0.334c-0.167,0.167-0.334,0.334-0.334,0.668c0,0.167,0,0.334,0.167,0.502
			c0.167,0.167,0.501,0.334,1.003,0.669l1.338,0.668c1.338,0.669,2.341,1.338,2.843,2.174c0.502,0.669,0.836,1.505,0.836,2.508
			c0,1.338-0.502,2.341-1.338,3.177c-1.003,0.836-2.174,1.337-3.846,1.337c-2.174,0-3.846-0.836-5.017-2.508l2.174-2.341
			c0.502,0.501,0.836,0.836,1.505,1.17c0.502,0.334,1.003,0.502,1.505,0.502s0.836-0.167,1.171-0.334
			c0.334-0.167,0.501-0.501,0.501-0.836c0-0.501-0.501-1.17-1.505-1.672l-1.17-0.669c-2.341-1.17-3.512-2.675-3.512-4.348
			c0-1.17,0.502-2.174,1.338-2.842c0.836-0.836,2.007-1.17,3.344-1.17c1.004,0,1.84,0.167,2.676,0.668
			C251.656,265.019,252.325,265.52,252.994,266.356z"/>
		<path id="XMLID_94_" fill="#1C1D1A" d="M256.505,258.999h3.679v5.351h2.174v3.177h-2.174v11.203h-3.679v-11.203h-1.839v-3.177
			h1.839V258.999z"/>
		<path id="XMLID_93_" fill="#1C1D1A" d="M263.362,264.35h3.177v1.839c0.335-0.669,0.836-1.338,1.338-1.672
			c0.502-0.334,1.17-0.501,1.839-0.501c0.502,0,1.004,0.167,1.505,0.334l-1.17,3.177c-0.502-0.167-0.836-0.334-1.004-0.334
			c-0.501,0-1.003,0.334-1.337,1.003c-0.335,0.669-0.502,2.007-0.502,4.013v0.669v5.853h-3.512v-14.38H263.362z"/>
		<path id="XMLID_92_" fill="#1C1D1A" d="M272.893,264.35h3.679v6.856c0,1.337,0.167,2.341,0.334,2.842
			c0.167,0.502,0.502,1.003,0.836,1.171c0.335,0.334,0.836,0.501,1.505,0.501s1.171-0.167,1.505-0.501
			c0.502-0.335,0.669-0.669,1.004-1.338c0.167-0.334,0.167-1.338,0.167-2.675v-7.023h3.679v6.02c0,2.508-0.167,4.18-0.669,5.184
			c-0.502,1.17-1.171,2.006-2.174,2.675s-2.174,0.836-3.679,0.836s-2.843-0.334-3.846-1.003c-1.004-0.669-1.672-1.672-2.007-3.01
			c-0.334-0.836-0.502-2.508-0.502-4.682L272.893,264.35L272.893,264.35z"/>
		<path id="XMLID_91_" fill="#1C1D1A" d="M303.157,267.192l-3.01,1.672c-0.501-0.669-1.17-1.003-1.672-1.17
			c-0.501-0.167-1.17-0.334-2.006-0.334c-1.338,0-2.509,0.334-3.345,1.17c-0.836,0.836-1.17,1.839-1.17,3.177
			c0,1.17,0.334,2.174,1.17,3.01s1.84,1.17,3.177,1.17c1.673,0,2.843-0.501,3.846-1.672l2.843,2.006
			c-1.505,2.007-3.679,3.01-6.521,3.01c-2.509,0-4.515-0.669-6.021-2.174c-1.505-1.505-2.173-3.177-2.173-5.184
			c0-1.337,0.334-2.675,1.003-3.846s1.672-2.174,2.843-2.843c1.17-0.669,2.675-1.003,4.18-1.003s2.676,0.334,3.846,0.836
			C301.486,265.353,302.49,266.189,303.157,267.192z"/>
		<path id="XMLID_90_" fill="#1C1D1A" d="M306.836,258.999h3.679v5.351h2.174v3.177h-2.174v11.203h-3.679v-11.203h-1.839v-3.177
			h1.839V258.999z"/>
		<path id="XMLID_305_" fill="#1C1D1A" d="M321.384,264.015c1.338,0,2.676,0.334,3.846,1.003c1.171,0.669,2.174,1.672,2.843,2.843
			c0.669,1.17,1.004,2.341,1.004,3.846c0,1.338-0.335,2.675-1.004,3.846c-0.669,1.171-1.672,2.174-2.675,2.843
			c-1.171,0.669-2.509,1.003-3.847,1.003c-2.006,0-3.846-0.669-5.351-2.174s-2.174-3.177-2.174-5.351s0.836-4.18,2.509-5.685
			C317.705,264.684,319.377,264.015,321.384,264.015z M321.384,267.359c-1.17,0-2.007,0.334-2.843,1.17
			c-0.669,0.836-1.17,1.839-1.17,3.01c0,1.17,0.334,2.341,1.17,3.01c0.669,0.836,1.673,1.17,2.843,1.17
			c1.171,0,2.007-0.334,2.843-1.17c0.669-0.836,1.171-1.839,1.171-3.01c0-1.171-0.335-2.174-1.171-3.01
			C323.391,267.694,322.555,267.359,321.384,267.359z"/>
		<path id="XMLID_87_" fill="#1C1D1A" d="M331.082,264.35h3.178v1.839c0.334-0.669,0.836-1.338,1.337-1.672
			c0.502-0.334,1.171-0.501,1.84-0.501c0.502,0,1.003,0.167,1.505,0.334l-1.171,3.177c-0.501-0.167-0.836-0.334-1.003-0.334
			c-0.502,0-1.003,0.334-1.338,1.003c-0.334,0.669-0.501,2.007-0.501,4.013v0.669v5.853h-3.847V264.35L331.082,264.35z"/>
		<path id="XMLID_86_" fill="#1C1D1A" d="M348.64,269.868h6.688v3.344h-6.688V269.868z"/>
		<path id="XMLID_85_" fill="#1C1D1A" d="M358.004,259.333h10.701v3.679h-3.511v15.718h-3.679v-15.718h-3.512V259.333
			L358.004,259.333z"/>
		<path id="XMLID_84_" fill="#1C1D1A" d="M370.879,264.35h3.679v6.856c0,1.337,0.167,2.341,0.335,2.842
			c0.167,0.502,0.501,1.003,0.836,1.171c0.334,0.334,0.836,0.501,1.505,0.501s1.17-0.167,1.505-0.501
			c0.502-0.335,0.669-0.669,1.003-1.338c0.168-0.334,0.168-1.338,0.168-2.675v-7.023h3.679v6.02c0,2.508-0.168,4.18-0.669,5.184
			c-0.502,1.17-1.171,2.006-2.174,2.675c-1.004,0.669-2.174,0.836-3.679,0.836s-2.843-0.334-3.847-1.003
			c-1.003-0.669-1.672-1.672-2.006-3.01c-0.335-0.836-0.502-2.508-0.502-4.682L370.879,264.35L370.879,264.35z"/>
		<path id="XMLID_83_" fill="#1C1D1A" d="M387.601,258.999h3.679v5.351h2.174v3.177h-2.174v11.203h-3.679v-11.203h-1.84v-3.177h1.84
			V258.999z"/>
		<path id="XMLID_297_" fill="#1C1D1A" d="M401.981,264.015c1.338,0,2.676,0.334,3.847,1.003c1.17,0.669,2.174,1.672,2.843,2.843
			c0.668,1.17,1.003,2.341,1.003,3.846c0,1.338-0.335,2.675-1.003,3.846c-0.669,1.171-1.673,2.174-2.676,2.843
			c-1.171,0.669-2.509,1.003-3.846,1.003c-2.007,0-3.847-0.669-5.352-2.174s-2.174-3.177-2.174-5.351s0.837-4.18,2.509-5.685
			C398.47,264.684,400.142,264.015,401.981,264.015z M401.981,267.359c-1.17,0-2.006,0.334-2.842,1.17
			c-0.669,0.836-1.171,1.839-1.171,3.01c0,1.17,0.334,2.341,1.171,3.01c0.668,0.836,1.672,1.17,2.842,1.17
			c1.171,0,2.007-0.334,2.843-1.17c0.669-0.836,1.171-1.839,1.171-3.01c0-1.171-0.335-2.174-1.171-3.01
			C404.155,267.694,403.152,267.359,401.981,267.359z"/>
		<path id="XMLID_80_" fill="#1C1D1A" d="M411.68,264.35h3.177v1.839c0.334-0.669,0.836-1.338,1.338-1.672
			c0.501-0.334,1.17-0.501,1.839-0.501c0.502,0,1.004,0.167,1.505,0.334l-1.17,3.177c-0.502-0.167-0.836-0.334-1.004-0.334
			c-0.501,0-1.003,0.334-1.338,1.003c-0.334,0.669-0.501,2.007-0.501,4.013v0.669v5.853h-3.512L411.68,264.35L411.68,264.35z"/>
	</g>
	<g id="XMLID_291_">
		<path id="XMLID_79_" fill="#1C1D1A" d="M171.06,465.173h10.701v3.678h-3.512v15.719h-3.679v-15.719h-3.511
			C171.06,468.685,171.06,465.173,171.06,465.173z"/>
		<path id="XMLID_78_" fill="#1C1D1A" d="M184.102,465.173h3.679v19.396h-3.679V465.173z"/>
		<path id="XMLID_77_" fill="#1C1D1A" d="M209.853,468.517l-2.508,2.508c-1.84-1.838-3.679-2.842-6.02-2.842
			c-1.84,0-3.345,0.668-4.683,1.84c-1.337,1.338-1.839,2.842-1.839,4.682c0,1.338,0.334,2.508,0.836,3.512
			c0.502,1.002,1.338,1.838,2.341,2.34s2.174,0.836,3.512,0.836c1.003,0,2.007-0.166,3.01-0.668c0.836-0.334,1.839-1.17,3.01-2.174
			l2.508,2.676c-1.505,1.338-2.842,2.34-4.013,2.842c-1.338,0.502-2.676,0.836-4.348,0.836c-3.01,0-5.518-1.002-7.357-2.842
			c-2.007-1.84-2.843-4.348-2.843-7.357c0-2.006,0.502-3.68,1.338-5.184c0.836-1.506,2.174-2.676,3.846-3.68
			c1.673-0.836,3.345-1.338,5.352-1.338c1.672,0,3.177,0.336,4.682,1.004C207.345,466.343,208.683,467.347,209.853,468.517z"/>
	</g>
	<g id="XMLID_275_">
		<path id="XMLID_76_" fill="#1C1D1A" d="M195.974,357.32h10.535v3.679h-7.023v3.512h7.023v3.511h-7.023v5.184h7.023v3.679h-10.535
			V357.32z"/>
		<path id="XMLID_75_" fill="#1C1D1A" d="M209.184,356.819h3.679v19.898h-3.679V356.819z"/>
		<path id="XMLID_286_" fill="#1C1D1A" d="M238.113,370.697h-11.538c0.167,1.003,0.669,1.839,1.338,2.508s1.672,0.836,2.843,0.836
			c1.337,0,2.508-0.501,3.511-1.337l3.01,1.505c-0.836,1.003-1.672,1.839-2.675,2.341c-1.004,0.502-2.341,0.836-3.846,0.836
			c-2.342,0-4.014-0.668-5.519-2.173c-1.338-1.505-2.174-3.177-2.174-5.351s0.669-4.013,2.174-5.518
			c1.338-1.505,3.177-2.174,5.351-2.174c2.341,0,4.181,0.669,5.519,2.174s2.174,3.344,2.174,5.685L238.113,370.697z
			 M234.434,367.855c-0.168-0.836-0.669-1.505-1.338-2.007s-1.505-0.669-2.509-0.669c-1.003,0-1.839,0.334-2.675,0.836
			c-0.502,0.334-0.836,1.003-1.338,1.839H234.434L234.434,367.855z"/>
		<path id="XMLID_72_" fill="#1C1D1A" d="M240.954,362.337h3.679v1.505c0.837-0.669,1.505-1.17,2.174-1.505s1.338-0.334,2.007-0.334
			c1.505,0,2.676,0.501,3.679,1.505c0.836,0.836,1.338,2.174,1.338,3.679v9.531h-3.512v-6.354c0-1.672,0-2.842-0.167-3.344
			c-0.167-0.501-0.502-1.003-0.836-1.337c-0.335-0.334-0.836-0.502-1.338-0.502c-0.669,0-1.338,0.167-1.84,0.669
			c-0.501,0.501-0.836,1.17-1.003,2.007c-0.167,0.501-0.167,1.337-0.167,2.842v5.853h-3.679L240.954,362.337L240.954,362.337z"/>
		<path id="XMLID_71_" fill="#1C1D1A" d="M257.676,357.153h3.679v5.351h2.174v3.177h-2.174v11.203h-3.679v-11.203h-1.839v-3.177
			h1.839V357.153z"/>
		<path id="XMLID_281_" fill="#1C1D1A" d="M272.224,362.002c1.338,0,2.675,0.334,3.846,1.003c1.171,0.669,2.174,1.672,2.843,2.843
			s1.003,2.341,1.003,3.846c0,1.337-0.334,2.675-1.003,3.846s-1.672,2.174-2.676,2.843c-1.17,0.669-2.508,1.003-3.846,1.003
			c-2.007,0-3.846-0.668-5.351-2.173c-1.505-1.505-2.174-3.177-2.174-5.351s0.836-4.18,2.508-5.685
			C268.545,362.671,270.217,362.002,272.224,362.002z M272.224,365.347c-1.171,0-2.007,0.334-2.843,1.17
			c-0.669,0.836-1.171,1.839-1.171,3.01s0.335,2.341,1.171,3.01c0.669,0.836,1.672,1.17,2.843,1.17c1.17,0,2.006-0.334,2.843-1.17
			c0.836-0.836,1.17-1.839,1.17-3.01s-0.334-2.174-1.17-3.01C274.23,365.848,273.394,365.347,272.224,365.347z"/>
		<path id="XMLID_68_" fill="#1C1D1A" d="M281.922,362.337h3.01v1.839c0.334-0.669,0.836-1.338,1.338-1.672s1.17-0.501,1.839-0.501
			c0.502,0,1.004,0.167,1.505,0.334l-1.17,3.177c-0.502-0.167-0.836-0.334-1.004-0.334c-0.501,0-1.003,0.334-1.337,1.003
			c-0.335,0.669-0.502,2.007-0.502,4.013v0.669v5.853h-3.512v-14.38H281.922z"/>
		<path id="XMLID_67_" fill="#1C1D1A" d="M291.453,362.337h3.679v1.505c0.836-0.669,1.505-1.17,2.174-1.505s1.337-0.334,2.006-0.334
			c1.505,0,2.676,0.501,3.679,1.505c0.836,0.836,1.338,2.174,1.338,3.679v9.531h-3.512v-6.354c0-1.672,0-2.842-0.167-3.344
			c-0.167-0.501-0.502-1.003-0.836-1.337c-0.335-0.334-0.836-0.502-1.338-0.502c-0.669,0-1.337,0.167-1.839,0.669
			s-0.836,1.17-1.171,2.007c-0.167,0.501-0.167,1.337-0.167,2.842v5.853h-3.679L291.453,362.337L291.453,362.337z"/>
		<path id="XMLID_276_" fill="#1C1D1A" d="M314.362,362.002c1.338,0,2.675,0.334,3.846,1.003c1.17,0.669,2.174,1.672,2.843,2.843
			s1.003,2.341,1.003,3.846c0,1.337-0.334,2.675-1.003,3.846s-1.673,2.174-2.676,2.843c-1.171,0.669-2.508,1.003-3.846,1.003
			c-2.007,0-3.846-0.668-5.351-2.173c-1.505-1.505-2.174-3.177-2.174-5.351s0.836-4.18,2.508-5.685
			C310.85,362.671,312.522,362.002,314.362,362.002z M314.529,365.347c-1.171,0-2.007,0.334-2.843,1.17
			c-0.669,0.836-1.171,1.839-1.171,3.01s0.335,2.341,1.171,3.01c0.669,0.836,1.672,1.17,2.843,1.17s2.007-0.334,2.843-1.17
			c0.669-0.836,1.17-1.839,1.17-3.01s-0.334-2.174-1.17-3.01C316.535,365.848,315.531,365.347,314.529,365.347z"/>
	</g>
	<g id="XMLID_266_">
		<path id="XMLID_64_" fill="#1C1D1A" d="M257.676,454.806h3.679v15.885h5.351v3.512h-9.029V454.806z"/>
		<path id="XMLID_271_" fill="#1C1D1A" d="M279.748,459.822h3.679v14.381h-3.679v-1.506c-0.669,0.67-1.338,1.172-2.174,1.506
			c-0.669,0.334-1.505,0.502-2.341,0.502c-1.84,0-3.512-0.67-4.85-2.174c-1.338-1.506-2.006-3.178-2.006-5.352
			s0.668-4.012,2.006-5.518c1.338-1.338,2.843-2.174,4.85-2.174c0.836,0,1.672,0.168,2.508,0.502s1.505,0.836,2.174,1.504v-1.672
			H279.748z M275.903,462.832c-1.171,0-2.007,0.336-2.843,1.172c-0.669,0.836-1.171,1.838-1.171,3.01c0,1.17,0.335,2.34,1.171,3.01
			c0.669,0.836,1.672,1.17,2.843,1.17c1.17,0,2.006-0.334,2.843-1.17c0.836-0.836,1.17-1.84,1.17-3.178
			c0-1.17-0.334-2.342-1.17-3.01C277.908,463.167,277.073,462.832,275.903,462.832z"/>
		<path id="XMLID_61_" fill="#1C1D1A" d="M295.801,461.83l-2.174,2.174c-0.836-0.836-1.672-1.338-2.509-1.338
			c-0.334,0-0.669,0.166-1.003,0.334c-0.167,0.168-0.334,0.334-0.334,0.668c0,0.168,0,0.336,0.167,0.502
			c0.167,0.168,0.501,0.334,1.003,0.67l1.338,0.668c1.338,0.67,2.341,1.338,2.843,2.174c0.502,0.67,0.836,1.506,0.836,2.508
			c0,1.338-0.502,2.342-1.338,3.178c-1.003,0.836-2.174,1.338-3.846,1.338c-2.174,0-3.846-0.836-5.017-2.508l2.174-2.342
			c0.502,0.502,0.836,0.836,1.505,1.17c0.502,0.336,1.003,0.502,1.505,0.502s0.836-0.166,1.171-0.334
			c0.334-0.168,0.501-0.502,0.501-0.836c0-0.502-0.501-1.17-1.505-1.672l-1.17-0.67c-2.341-1.17-3.512-2.676-3.512-4.348
			c0-1.17,0.502-2.174,1.338-2.842c0.836-0.836,2.007-1.17,3.344-1.17c1.004,0,1.84,0.166,2.676,0.668
			C294.63,460.492,295.299,460.994,295.801,461.83z"/>
		<path id="XMLID_60_" fill="#1C1D1A" d="M304.997,454.806h10.701v3.678h-3.511v15.719h-3.679v-15.719h-3.512V454.806
			L304.997,454.806z"/>
		<path id="XMLID_59_" fill="#1C1D1A" d="M318.04,454.806h3.679v19.396h-3.679V454.806z"/>
		<path id="XMLID_58_" fill="#1C1D1A" d="M343.791,458.15l-2.509,2.508c-1.839-1.838-3.679-2.842-6.02-2.842
			c-1.839,0-3.345,0.668-4.682,1.84c-1.338,1.338-1.84,2.842-1.84,4.682c0,1.338,0.335,2.508,0.836,3.512
			c0.502,1.002,1.338,1.838,2.341,2.34c1.004,0.502,2.174,0.836,3.512,0.836c1.004,0,2.007-0.166,3.01-0.668
			c0.836-0.334,1.84-1.17,3.01-2.174l2.509,2.676c-1.505,1.338-2.843,2.34-4.014,2.842c-1.337,0.502-2.675,0.836-4.348,0.836
			c-3.01,0-5.518-1.002-7.356-2.842c-2.007-1.84-2.843-4.348-2.843-7.357c0-2.008,0.501-3.68,1.337-5.184
			c0.837-1.506,2.174-2.676,3.847-3.68c1.672-0.836,3.344-1.338,5.351-1.338c1.672,0,3.177,0.336,4.682,1.004
			C341.449,455.976,342.62,456.98,343.791,458.15z"/>
	</g>
	<g id="XMLID_220_">
		<path id="XMLID_57_" fill="#1C1D1A" d="M430.741,547.777h10.535v3.678h-7.023v3.512h7.023v3.512h-7.023v5.184h7.023v3.68h-10.535
			V547.777z"/>
		<path id="XMLID_56_" fill="#1C1D1A" d="M443.951,547.275h3.679v19.898h-3.679V547.275z"/>
		<path id="XMLID_55_" fill="#1C1D1A" d="M459.001,547.609h3.679v5.352h2.174v3.178h-2.174v11.203h-3.679v-11.203h-1.84v-3.178h1.84
			V547.609z"/>
		<path id="XMLID_54_" fill="#1C1D1A" d="M465.69,552.96h3.01v1.84c0.334-0.67,0.836-1.338,1.338-1.672
			c0.501-0.336,1.17-0.502,1.839-0.502c0.502,0,1.004,0.166,1.505,0.334l-1.17,3.178c-0.502-0.168-0.837-0.336-1.004-0.336
			c-0.501,0-1.003,0.336-1.338,1.004c-0.334,0.668-0.501,2.006-0.501,4.014v0.668v5.854h-3.512V552.96H465.69z"/>
		<path id="XMLID_259_" fill="#1C1D1A" d="M485.922,552.96h3.679v14.381h-3.679v-1.506c-0.669,0.67-1.338,1.17-2.174,1.506
			c-0.836,0.334-1.505,0.5-2.341,0.5c-1.839,0-3.512-0.668-4.849-2.172c-1.338-1.506-2.007-3.178-2.007-5.352
			s0.669-4.014,2.007-5.518c1.337-1.338,2.842-2.174,4.849-2.174c0.836,0,1.672,0.166,2.509,0.502
			c0.836,0.334,1.505,0.836,2.174,1.504v-1.672H485.922z M482.076,555.802c-1.171,0-2.007,0.336-2.843,1.172
			c-0.669,0.836-1.17,1.838-1.17,3.01c0,1.17,0.334,2.34,1.17,3.01c0.669,0.836,1.672,1.17,2.843,1.17s2.007-0.334,2.843-1.17
			s1.171-1.84,1.171-3.178c0-1.17-0.335-2.342-1.171-3.01C484.25,556.304,483.247,555.802,482.076,555.802z"/>
		<path id="XMLID_256_" fill="#1C1D1A" d="M496.791,547.275v7.189c0.669-0.668,1.338-1.17,2.174-1.504s1.505-0.502,2.508-0.502
			c1.84,0,3.512,0.668,4.85,2.174c1.338,1.338,2.007,3.178,2.007,5.518c0,2.174-0.669,4.014-2.007,5.352s-3.01,2.174-4.85,2.174
			c-0.836,0-1.672-0.168-2.341-0.502s-1.505-0.836-2.174-1.504v1.504h-3.512v-19.898H496.791L496.791,547.275z M500.47,555.802
			c-1.171,0-2.007,0.336-2.843,1.172c-0.669,0.836-1.171,1.838-1.171,3.01c0,1.338,0.335,2.34,1.171,3.176
			c0.669,0.836,1.672,1.172,2.843,1.172s2.007-0.336,2.843-1.172c0.669-0.836,1.17-1.838,1.17-3.01c0-1.17-0.334-2.174-1.17-3.01
			C502.644,556.304,501.641,555.802,500.47,555.802z"/>
		<path id="XMLID_253_" fill="#1C1D1A" d="M521.706,552.96h3.679v14.381h-3.679v-1.506c-0.669,0.67-1.338,1.17-2.174,1.506
			c-0.669,0.334-1.505,0.5-2.341,0.5c-1.84,0-3.512-0.668-4.85-2.172c-1.338-1.506-2.007-3.178-2.007-5.352s0.669-4.014,2.007-5.518
			c1.338-1.338,2.843-2.174,4.85-2.174c0.836,0,1.672,0.166,2.508,0.502c0.836,0.334,1.505,0.836,2.174,1.504v-1.672H521.706z
			 M517.861,555.802c-1.171,0-2.007,0.336-2.843,1.172s-1.171,1.838-1.171,3.01c0,1.17,0.335,2.34,1.171,3.01
			c0.669,0.836,1.672,1.17,2.843,1.17c1.17,0,2.006-0.334,2.842-1.17c0.837-0.836,1.171-1.84,1.171-3.178
			c0-1.17-0.334-2.342-1.171-3.01C519.866,556.304,519.031,555.802,517.861,555.802z"/>
		<path id="XMLID_250_" fill="#1C1D1A" d="M528.729,552.96h3.679v14.881c0,1.338-0.167,2.342-0.334,3.012
			c-0.335,0.668-0.669,1.17-1.338,1.504c-0.502,0.334-1.338,0.502-2.174,0.502c-0.669,0-1.672-0.168-2.675-0.502v-2.842
			c0.501,0.334,1.003,0.334,1.504,0.334c0.502,0,0.837-0.168,1.004-0.334c0.167-0.336,0.334-0.836,0.334-1.506V552.96
			L528.729,552.96z M530.569,546.941c0.669,0,1.17,0.166,1.672,0.668s0.669,1.004,0.669,1.672c0,0.67-0.167,1.172-0.669,1.674
			c-0.502,0.5-1.003,0.668-1.672,0.668s-1.171-0.168-1.672-0.668c-0.502-0.502-0.669-1.004-0.669-1.674
			c0-0.668,0.167-1.17,0.669-1.672C529.398,547.275,529.9,546.941,530.569,546.941z"/>
		<path id="XMLID_247_" fill="#1C1D1A" d="M542.608,552.458c1.338,0,2.676,0.334,3.846,1.004c1.171,0.668,2.174,1.672,2.843,2.842
			s1.003,2.342,1.003,3.846c0,1.338-0.334,2.676-1.003,3.846c-0.669,1.172-1.672,2.174-2.675,2.844
			c-1.171,0.668-2.509,1.002-3.847,1.002c-2.006,0-3.846-0.668-5.351-2.172c-1.505-1.506-2.174-3.178-2.174-5.352
			s0.836-4.18,2.508-5.686C539.096,553.126,540.769,552.458,542.608,552.458z M542.775,555.97c-1.17,0-2.006,0.334-2.843,1.17
			c-0.668,0.836-1.17,1.84-1.17,3.01c0,1.172,0.334,2.342,1.17,3.01c0.669,0.836,1.673,1.172,2.843,1.172
			c1.171,0,2.007-0.336,2.843-1.172c0.669-0.836,1.171-1.838,1.171-3.01c0-1.17-0.335-2.174-1.171-3.01
			S543.946,555.97,542.775,555.97z"/>
		<path id="XMLID_43_" fill="#1C1D1A" d="M444.453,588.242l-3.01,1.672c-0.502-0.668-1.171-1.002-1.672-1.17
			c-0.502-0.166-1.171-0.334-2.007-0.334c-1.338,0-2.508,0.334-3.345,1.17c-0.836,0.836-1.17,1.84-1.17,3.178
			c0,1.17,0.334,2.174,1.17,3.01c0.837,0.836,1.84,1.17,3.178,1.17c1.672,0,2.843-0.502,3.846-1.672l2.843,2.006
			c-1.505,2.008-3.679,3.01-6.521,3.01c-2.508,0-4.515-0.668-6.02-2.174c-1.505-1.504-2.174-3.176-2.174-5.184
			c0-1.336,0.334-2.674,1.003-3.846c0.669-1.17,1.672-2.174,2.843-2.842c1.171-0.67,2.676-1.004,4.181-1.004
			s2.675,0.334,3.846,0.836C442.781,586.404,443.617,587.24,444.453,588.242z"/>
		<path id="XMLID_243_" fill="#1C1D1A" d="M454.487,585.066c1.337,0,2.675,0.334,3.846,1.002c1.17,0.67,2.174,1.672,2.843,2.844
			c0.669,1.17,1.003,2.34,1.003,3.846c0,1.338-0.334,2.676-1.003,3.846s-1.673,2.174-2.676,2.842
			c-1.171,0.67-2.508,1.004-3.846,1.004c-2.007,0-3.846-0.668-5.351-2.174c-1.505-1.504-2.174-3.178-2.174-5.352
			c0-2.172,0.836-4.18,2.508-5.684C450.808,585.734,452.48,585.066,454.487,585.066z M454.487,588.41
			c-1.171,0-2.007,0.334-2.843,1.17s-1.171,1.84-1.171,3.01c0,1.172,0.335,2.342,1.171,3.01c0.669,0.836,1.672,1.172,2.843,1.172
			c1.17,0,2.006-0.336,2.842-1.172c0.669-0.836,1.171-1.838,1.171-3.01c0-1.17-0.334-2.174-1.171-3.01
			C456.492,588.744,455.656,588.41,454.487,588.41z"/>
		<path id="XMLID_40_" fill="#1C1D1A" d="M464.686,579.882h3.679v19.898h-3.679V579.882z"/>
		<path id="XMLID_239_" fill="#1C1D1A" d="M482.076,585.4h3.679v14.381h-3.679v-1.506c-0.669,0.67-1.338,1.17-2.174,1.506
			c-0.669,0.334-1.505,0.5-2.341,0.5c-1.84,0-3.512-0.668-4.85-2.174c-1.337-1.504-2.006-3.176-2.006-5.35s0.669-4.014,2.006-5.518
			c1.338-1.506,2.843-2.174,4.85-2.174c0.836,0,1.672,0.166,2.508,0.5c0.836,0.336,1.505,0.838,2.174,1.506L482.076,585.4
			L482.076,585.4z M478.398,588.41c-1.171,0-2.007,0.334-2.843,1.17s-1.17,1.84-1.17,3.01c0,1.172,0.334,2.342,1.17,3.01
			c0.669,0.836,1.672,1.172,2.843,1.172s2.007-0.336,2.843-1.172s1.171-1.838,1.171-3.176c0-1.172-0.335-2.342-1.171-3.01
			C480.405,588.744,479.401,588.41,478.398,588.41z"/>
		<path id="XMLID_236_" fill="#1C1D1A" d="M492.946,579.882v7.189c0.669-0.668,1.338-1.17,2.174-1.506
			c0.836-0.334,1.505-0.5,2.508-0.5c1.84,0,3.512,0.668,4.85,2.174c1.337,1.338,2.006,3.176,2.006,5.518
			c0,2.174-0.669,4.014-2.006,5.35c-1.338,1.506-3.01,2.174-4.85,2.174c-0.836,0-1.672-0.166-2.341-0.5
			c-0.669-0.336-1.505-0.836-2.174-1.506v1.506h-3.512v-19.898H492.946L492.946,579.882z M496.791,588.41
			c-1.171,0-2.007,0.334-2.843,1.17s-1.171,1.84-1.171,3.01c0,1.338,0.335,2.342,1.171,3.178c0.669,0.836,1.672,1.17,2.843,1.17
			s2.007-0.334,2.843-1.17s1.17-1.84,1.17-3.01s-0.334-2.174-1.17-3.01C498.798,588.744,497.794,588.41,496.791,588.41z"/>
		<path id="XMLID_233_" fill="#1C1D1A" d="M514.014,585.066c1.338,0,2.676,0.334,3.846,1.002c1.171,0.67,2.174,1.672,2.843,2.844
			c0.669,1.17,1.004,2.34,1.004,3.846c0,1.338-0.335,2.676-1.004,3.846s-1.672,2.174-2.675,2.842
			c-1.171,0.67-2.509,1.004-3.846,1.004c-2.007,0-3.847-0.668-5.352-2.174c-1.505-1.504-2.174-3.178-2.174-5.352
			c0-2.172,0.836-4.18,2.509-5.684C510.503,585.734,512.175,585.066,514.014,585.066z M514.014,588.41
			c-1.17,0-2.006,0.334-2.843,1.17c-0.668,0.836-1.17,1.84-1.17,3.01c0,1.172,0.334,2.342,1.17,3.01
			c0.669,0.836,1.673,1.172,2.843,1.172c1.171,0,2.007-0.336,2.843-1.172c0.669-0.836,1.171-1.838,1.171-3.01
			c0-1.17-0.335-2.174-1.171-3.01C516.188,588.744,515.185,588.41,514.014,588.41z"/>
		<path id="XMLID_33_" fill="#1C1D1A" d="M523.713,585.4h3.177v1.84c0.334-0.67,0.836-1.338,1.338-1.674
			c0.501-0.334,1.17-0.5,1.839-0.5c0.502,0,1.003,0.166,1.505,0.334l-1.171,3.178c-0.501-0.168-0.836-0.336-1.003-0.336
			c-0.501,0-1.003,0.336-1.338,1.004c-0.334,0.668-0.501,2.006-0.501,4.014v0.668v5.854h-3.512L523.713,585.4L523.713,585.4z"/>
		<path id="XMLID_229_" fill="#1C1D1A" d="M543.779,585.4h3.679v14.381h-3.679v-1.506c-0.669,0.67-1.338,1.17-2.174,1.506
			c-0.669,0.334-1.505,0.5-2.341,0.5c-1.84,0-3.512-0.668-4.85-2.174c-1.338-1.504-2.007-3.176-2.007-5.35s0.669-4.014,2.007-5.518
			c1.338-1.338,2.843-2.174,4.85-2.174c0.836,0,1.672,0.166,2.508,0.5c0.836,0.336,1.505,0.838,2.174,1.506L543.779,585.4
			L543.779,585.4z M540.1,588.41c-1.171,0-2.007,0.334-2.843,1.17c-0.669,0.836-1.171,1.84-1.171,3.01
			c0,1.172,0.335,2.342,1.171,3.01c0.669,0.836,1.672,1.172,2.843,1.172c1.17,0,2.006-0.336,2.843-1.172
			c0.668-0.836,1.17-1.838,1.17-3.176c0-1.172-0.334-2.342-1.17-3.01C542.106,588.744,541.27,588.41,540.1,588.41z"/>
		<path id="XMLID_30_" fill="#1C1D1A" d="M551.637,580.048h3.679v5.352h2.174v3.178h-2.341v11.203h-3.679v-11.203h-1.839V585.4
			h1.839v-5.352H551.637z"/>
		<path id="XMLID_225_" fill="#1C1D1A" d="M560.667,579.546c0.668,0,1.17,0.168,1.672,0.67c0.501,0.502,0.669,1.004,0.669,1.672
			s-0.168,1.17-0.669,1.672c-0.502,0.502-1.004,0.67-1.672,0.67c-0.669,0-1.171-0.168-1.673-0.67
			c-0.501-0.502-0.669-1.004-0.669-1.672s0.168-1.17,0.669-1.672C559.496,579.714,559.998,579.546,560.667,579.546z M558.827,585.4
			h3.679v14.381h-3.679V585.4z"/>
		<path id="XMLID_27_" fill="#1C1D1A" d="M564.178,585.4h3.679l3.679,8.527l3.679-8.527h3.679l-6.187,14.381h-2.341L564.178,585.4z"
			/>
		<path id="XMLID_221_" fill="#1C1D1A" d="M587.588,585.066c1.338,0,2.676,0.334,3.846,1.002c1.171,0.67,2.174,1.672,2.843,2.844
			c0.669,1.17,1.003,2.34,1.003,3.846c0,1.338-0.334,2.676-1.003,3.846s-1.672,2.174-2.675,2.842
			c-1.171,0.67-2.509,1.004-3.847,1.004c-2.006,0-3.846-0.668-5.351-2.174c-1.505-1.504-2.174-3.178-2.174-5.352
			c0-2.172,0.836-4.18,2.508-5.684C584.076,585.734,585.749,585.066,587.588,585.066z M587.755,588.41
			c-1.17,0-2.006,0.334-2.843,1.17c-0.668,0.836-1.17,1.84-1.17,3.01c0,1.172,0.334,2.342,1.17,3.01
			c0.669,0.836,1.673,1.172,2.843,1.172c1.171,0,2.007-0.336,2.843-1.172c0.669-0.836,1.171-1.838,1.171-3.01
			c0-1.17-0.335-2.174-1.171-3.01S588.926,588.41,587.755,588.41z"/>
	</g>
	<g id="XMLID_192_">
		<g id="XMLID_211_">
			<g id="XMLID_212_">
				<path id="XMLID_24_" fill="#36333A" d="M404.323,579.714c-3.01-10.535-8.026-14.045-17.893-14.045
					c-10.199,0-14.715,3.01-17.892,14.045c-3.01,10.199-7.859,19.898,17.892,19.898C413.017,599.781,407.164,589.58,404.323,579.714
					z"/>
				<path id="XMLID_23_" fill="#FFFFFF" d="M387.434,596.101l8.36-26.086h-2.843l1.505-3.176c-2.174-0.836-4.849-1.17-8.026-1.17
					c-2.675,0-5.016,0.166-7.189,0.836l1.17,3.01l-3.344,0.668L387.434,596.101z"/>
				<path id="XMLID_22_" fill="#F6D1AF" d="M398.135,550.787c0,7.691-5.184,15.049-11.705,15.049
					c-6.354,0-11.705-7.357-11.705-15.049s5.185-12.709,11.705-12.709C392.951,537.912,398.135,543.095,398.135,550.787z"/>
				<path id="XMLID_21_" fill="#C93838" d="M384.758,567.341h3.512c0.836,0,1.672,0.668,1.672,1.338l-0.836,1.838
					c0,0.67-0.669,1.338-1.672,1.338h-2.007c-0.836,0-1.672-0.668-1.672-1.338l-0.836-1.838
					C383.086,567.841,383.755,567.341,384.758,567.341z"/>
				<polygon id="XMLID_20_" fill="#C93838" points="390.444,586.236 388.437,573.361 384.424,573.361 383.086,585.4 
					387.434,596.101 				"/>
				<path id="XMLID_19_" fill="#E8C6AA" d="M386.598,537.912v27.758c6.354,0,11.537-7.357,11.537-15.051
					C398.135,543.095,392.951,537.912,386.598,537.912z"/>
				<path id="XMLID_18_" fill="#36333A" d="M386.43,537.912c-6.354,0-11.705,5.016-11.705,12.707c0,0.336,0,0.67,0,1.172
					c1.84,1.002,3.847,1.504,6.021,1.504c4.18,0,7.858-2.006,10.032-5.016c1.84,1.504,4.348,2.508,7.19,2.508l0,0v-0.168
					C398.135,543.095,392.951,537.912,386.43,537.912z"/>
			</g>
		</g>
		<g id="XMLID_202_">
			<g id="XMLID_203_">
				<path id="XMLID_17_" fill="#36333A" d="M276.404,579.714c-3.01-10.535-8.025-14.045-17.892-14.045
					c-10.2,0-14.715,3.01-17.892,14.045c-3.01,10.199-7.859,19.898,17.892,19.898C285.099,599.781,279.246,589.58,276.404,579.714z"
					/>
				<path id="XMLID_16_" fill="#FFFFFF" d="M259.516,596.101l8.36-26.086h-2.843l1.505-3.176c-2.174-0.836-4.85-1.17-8.026-1.17
					c-2.843,0-5.017,0.166-7.19,0.836l1.171,3.01l-3.345,0.668L259.516,596.101z"/>
				<path id="XMLID_15_" fill="#F6D1AF" d="M270.217,550.787c0,7.691-5.184,15.049-11.705,15.049s-11.705-7.357-11.705-15.049
					s5.184-12.709,11.705-12.709S270.217,543.095,270.217,550.787z"/>
				<path id="XMLID_14_" fill="#C93838" d="M256.84,567.341h3.512c0.836,0,1.672,0.668,1.672,1.338l-0.836,1.838
					c0,0.67-0.669,1.338-1.672,1.338h-2.007c-0.836,0-1.672-0.668-1.672-1.338L255,568.679
					C255.168,567.841,255.837,567.341,256.84,567.341z"/>
				<polygon id="XMLID_13_" fill="#C93838" points="262.693,586.236 260.519,573.361 256.505,573.361 255.168,585.4 
					259.516,596.101 				"/>
				<path id="XMLID_12_" fill="#E8C6AA" d="M258.679,537.912v27.758c6.354,0,11.538-7.357,11.538-15.051
					C270.217,543.095,265.033,537.912,258.679,537.912z"/>
				<path id="XMLID_11_" fill="#36333A" d="M258.512,537.912c-6.354,0-11.705,5.016-11.705,12.707c0,0.336,0,0.67,0,1.172
					c1.84,1.002,3.847,1.504,6.021,1.504c4.18,0,7.858-2.006,10.032-5.016c1.84,1.504,4.348,2.508,7.19,2.508l0,0v-0.168
					C270.217,543.095,265.033,537.912,258.512,537.912z"/>
			</g>
		</g>
		<g id="XMLID_193_">
			<g id="XMLID_194_">
				<path id="XMLID_10_" fill="#36333A" d="M348.807,580.048c-4.013-13.879-10.534-18.393-23.577-18.393
					c-13.377,0-19.396,4.012-23.577,18.393c-4.013,13.377-10.366,26.254,23.577,26.254
					C360.345,606.302,352.654,593.091,348.807,580.048z"/>
				<path id="XMLID_9_" fill="#FFFFFF" d="M326.568,601.619l10.869-34.277h-3.679l2.007-4.348c-3.01-1.004-6.354-1.506-10.535-1.506
					c-3.679,0-6.688,0.334-9.363,1.004l1.672,4.014l-4.515,0.836L326.568,601.619z"/>
				<path id="XMLID_8_" fill="#F6D1AF" d="M340.614,541.757c0,10.033-6.855,19.73-15.384,19.73c-8.527,0-15.383-9.697-15.383-19.73
					s6.855-16.723,15.383-16.723C333.758,525.035,340.614,531.724,340.614,541.757z"/>
				<path id="XMLID_7_" fill="#C93838" d="M322.889,563.662h4.683c1.17,0,2.174,0.836,2.174,1.84l-1.004,2.508
					c0,1.004-1.003,1.84-2.174,1.84h-2.508c-1.171,0-2.174-0.836-2.174-1.84l-1.003-2.508
					C320.883,564.332,321.719,563.662,322.889,563.662z"/>
				<polygon id="XMLID_6_" fill="#C93838" points="330.581,588.578 327.906,571.521 322.722,571.521 320.883,587.406 
					326.568,601.619 				"/>
				<path id="XMLID_5_" fill="#E8C6AA" d="M325.398,525.035v36.621c8.36-0.168,15.216-9.699,15.216-19.732
					C340.614,531.724,333.925,525.035,325.398,525.035z"/>
				<path id="XMLID_4_" fill="#36333A" d="M325.398,525.035c-8.528,0-15.384,6.689-15.384,16.723c0,0.502,0,1.002,0,1.504
					c2.341,1.338,5.017,2.008,8.026,2.008c5.518,0,10.367-2.676,13.042-6.521c2.509,2.174,5.853,3.344,9.364,3.344l0,0
					c0-0.168,0-0.168,0-0.334C340.614,531.724,333.758,525.035,325.398,525.035z"/>
			</g>
		</g>
	</g>
	<path id="XMLID_3_" fill="#6B422D" d="M63.039,375.714l-13.042-10.702v5.853H35.115c-2.675,0-4.849-2.174-4.849-4.849v-17.056
		l-4.85,3.177l-4.849-3.177v17.056c0,8.026,6.521,14.715,14.715,14.715h14.882v5.852L63.039,375.714z"/>
	<path id="XMLID_2_" fill="#6B422D" d="M135.276,468.517l-13.043-10.701v5.852h-14.882c-2.675,0-4.849-2.174-4.849-4.848v-17.057
		l-4.85,3.178l-4.849-3.178v17.057c0,8.025,6.521,14.715,14.714,14.715h14.883v5.852L135.276,468.517z"/>
	<path id="XMLID_1_" fill="#6B422D" d="M227.577,564.832l-13.042-10.701v5.854h-14.883c-2.675,0-4.849-2.174-4.849-4.85v-17.057
		l-4.85,3.178l-4.849-3.178v16.889c0,8.027,6.521,14.715,14.715,14.715h14.882v5.854L227.577,564.832z"/>
</g>
</svg>
