<?xml version="1.0" encoding="utf-8"?>
<!-- Generator: Adobe Illustrator 16.0.0, SVG Export Plug-In . SVG Version: 6.00 Build 0)  -->
<!DOCTYPE svg PUBLIC "-//W3C//DTD SVG 1.1//EN" "http://www.w3.org/Graphics/SVG/1.1/DTD/svg11.dtd">
<svg version="1.1" id="Capa_1" xmlns="http://www.w3.org/2000/svg" xmlns:xlink="http://www.w3.org/1999/xlink" x="0px" y="0px"
	 width="233.197px" height="210.38px" viewBox="0 0 233.197 210.38" enable-background="new 0 0 233.197 210.38"
	 xml:space="preserve">
<g id="Analysis_System">
	<g id="Background_20_">
		<circle id="Background_2_19_" fill="#76C5ED" cx="116.088" cy="103.948" r="94.091"/>
	</g>
	<g id="Analysis_System_2_">
		<g id="Book_1_">
			<g id="Book">
				<rect x="82.702" y="7.074" fill="#354666" width="76.825" height="49.404"/>
				<rect x="85.673" y="8.939" fill="#F4F4F4" width="71.308" height="45.841"/>
				<rect x="89.493" y="8.939" opacity="0.1" width="67.487" height="45.841"/>
				<rect x="125.451" y="11.318" fill="#FFCC73" width="27.261" height="1.793"/>
				<rect x="125.451" y="15.421" fill="#FFCC73" width="27.261" height="1.793"/>
				<rect x="124.602" y="20.279" fill="#FFCC73" width="27.262" height="1.793"/>
				<rect x="124.602" y="23.911" fill="#FFCC73" width="27.262" height="1.793"/>
				<rect x="124.602" y="27.873" fill="#FFCC73" width="27.262" height="1.793"/>
				<rect x="124.602" y="34.098" fill="#FFCC73" width="27.262" height="1.793"/>
				<polygon fill="#F2F2F2" points="144.081,61.123 121.114,54.78 121.326,8.897 144.081,0 				"/>
				<rect x="154.41" y="8.939" opacity="0.3" width="2.57" height="45.841"/>
				<rect x="91.635" y="11.318" fill="#E74C3C" width="27.261" height="1.793"/>
				<rect x="91.635" y="18.157" fill="#E74C3C" width="27.261" height="1.793"/>
				<rect x="91.635" y="21.176" fill="#E74C3C" width="27.261" height="1.792"/>
				<rect x="91.635" y="28.769" fill="#E74C3C" width="27.261" height="1.793"/>
				<rect x="91.635" y="31.859" fill="#0E8FFF" width="27.261" height="1.793"/>
				<rect x="91.635" y="34.995" fill="#0E8FFF" width="27.261" height="1.791"/>
				<rect x="91.635" y="40.938" fill="#FFCC73" width="27.261" height="1.791"/>
				<rect x="91.635" y="44.898" fill="#FFCC73" width="27.261" height="1.793"/>
			</g>
			<g id="Pen_1_">
				<g id="Pen_2_">
					<g>
						<path fill="#3F3F3F" d="M98.215,48.729c0.145,0.854-0.279,1.698-0.949,1.885l0,0c-0.668,0.185-1.329-0.357-1.475-1.213
							l-5.244-30.831c-0.146-0.855,0.279-1.699,0.948-1.885l0,0c0.669-0.187,1.329,0.355,1.475,1.212L98.215,48.729z"/>
						<path opacity="0.2" d="M91.777,16.649l5.668,33.323l0.66-0.183c0.127-0.315,0.173-0.688,0.109-1.062L92.97,17.896
							C92.845,17.162,92.342,16.66,91.777,16.649z"/>
						<path fill="#757575" d="M95.365,27.453c0.063,0.362-0.119,0.721-0.402,0.8l0,0c-0.283,0.078-0.564-0.15-0.626-0.515
							l-1.381-8.118c-0.062-0.362,0.118-0.721,0.401-0.8l0,0c0.285-0.079,0.564,0.152,0.627,0.514L95.365,27.453z"/>
						<path opacity="0.3" fill="#757575" d="M90.547,18.569L95.791,49.4c0.119,0.708,0.594,1.2,1.132,1.244l0,0l-5.751-33.807
							C90.697,17.162,90.426,17.861,90.547,18.569z"/>
					</g>
					<g>
						<path fill="#1ABC9C" d="M99.404,53.983c0,0.875-0.557,1.584-1.241,1.584l0,0c-0.685,0-1.24-0.709-1.24-1.584V22.433
							c0-0.876,0.556-1.586,1.24-1.586l0,0c0.685,0,1.241,0.71,1.241,1.586V53.983z"/>
						<path opacity="0.2" d="M98.445,20.89v34.617c0,0,0.299,0,0.674-0.515c0.186-0.254,0.285-0.626,0.285-1.009V22.433
							C99.404,21.681,98.994,21.053,98.445,20.89z"/>
						<path fill="#34495E" d="M100.154,32.421c0,0.371-0.234,0.673-0.525,0.673l0,0c-0.291,0-0.526-0.302-0.526-0.673v-8.309
							c0-0.371,0.235-0.671,0.526-0.671l0,0c0.291,0,0.525,0.3,0.525,0.671V32.421z"/>
						<path opacity="0.1" fill="#FFFFFF" d="M96.923,22.433v31.551c0,0.724,0.381,1.334,0.899,1.523l0,0V20.909
							C97.304,21.098,96.923,21.708,96.923,22.433z"/>
					</g>
					<g>
						<path fill="#E74C3C" d="M106.566,47.893c-0.105,0.864-0.739,1.456-1.416,1.321l0,0c-0.677-0.135-1.14-0.945-1.034-1.81
							l3.806-31.175c0.105-0.864,0.739-1.457,1.416-1.322l0,0c0.677,0.135,1.14,0.946,1.034,1.811L106.566,47.893z"/>
						<path opacity="0.2" d="M109.611,15.006l-4.172,34.222c0,0,0.341,0,0.726-0.395c0.22-0.226,0.355-0.563,0.401-0.94
							l3.806-31.175C110.463,15.977,110.134,15.275,109.611,15.006z"/>
						<path fill="#232700" d="M109.91,26.735c-0.045,0.367-0.314,0.618-0.602,0.561l0,0c-0.286-0.058-0.483-0.4-0.438-0.768
							l1.003-8.209c0.045-0.367,0.313-0.618,0.6-0.561l0,0c0.287,0.058,0.484,0.4,0.439,0.768L109.91,26.735z"/>
						<path opacity="0.1" fill="#757575" d="M107.922,16.229l-3.806,31.175c-0.087,0.715,0.216,1.392,0.706,1.681l0,0l4.172-34.183
							C108.458,14.986,108.009,15.514,107.922,16.229z"/>
					</g>
				</g>
			</g>
		</g>
		<g id="Correction_3_">
			<g id="Laptop_2_">
				<g>
					<rect x="163.027" y="100.26" fill-rule="evenodd" clip-rule="evenodd" fill="#003333" width="52.281" height="2.428"/>
					<path fill-rule="evenodd" clip-rule="evenodd" fill="#344F84" d="M228.025,70.718h-78.637c-3.604,0-4.717,2.264-4.021,4.937
						c0-0.032,0.004-0.063,0.006-0.097c-0.007,0.181,0.008,0.365,0.057,0.552l5.691,21.482c0.86,3.263,1.632,3.363,5.875,3.358
						l65.749-0.007c3.414,0,5.079,0.007,5.755-3.269l4.433-21.565c0.017-0.082,0.024-0.163,0.03-0.245
						c0,0.002,0.001,0.004,0.002,0.006l0.214-1.827C233.482,71.42,230.029,70.718,228.025,70.718z M145.408,75.272
						c-0.012,0.051-0.021,0.102-0.025,0.153C145.389,75.374,145.396,75.323,145.408,75.272z M145.578,74.772
						c-0.012,0.024-0.027,0.05-0.037,0.074C145.551,74.822,145.566,74.797,145.578,74.772z M145.48,75.005
						c-0.014,0.042-0.029,0.083-0.042,0.126C145.451,75.088,145.467,75.047,145.48,75.005z M148.691,72.901
						c0.118-0.01,0.237-0.016,0.355-0.016C148.929,72.886,148.81,72.892,148.691,72.901z M146.504,73.716
						c0.008-0.007,0.016-0.013,0.024-0.019C146.521,73.703,146.512,73.709,146.504,73.716z M146.762,73.543
						c0.018-0.011,0.033-0.021,0.051-0.031C146.795,73.522,146.779,73.532,146.762,73.543z M147.044,73.384
						c0.025-0.014,0.05-0.026,0.075-0.038C147.094,73.357,147.068,73.371,147.044,73.384z M147.346,73.242
						c0.033-0.015,0.066-0.027,0.1-0.041C147.412,73.215,147.379,73.228,147.346,73.242z M147.664,73.12
						c0.043-0.014,0.086-0.026,0.129-0.04C147.75,73.094,147.707,73.106,147.664,73.12z M147.996,73.022
						c0.055-0.014,0.107-0.024,0.162-0.035C148.104,72.998,148.051,73.009,147.996,73.022z M148.34,72.949
						c0.068-0.013,0.139-0.02,0.208-0.029C148.479,72.93,148.408,72.937,148.34,72.949z"/>
					<path opacity="0.5" fill-rule="evenodd" clip-rule="evenodd" d="M149.389,70.718h78.637c2.004,0,5.457,0.702,5.153,3.325
						l-0.214,1.827c-0.291-1.36-1.986-2.984-3.648-2.984h-80.27c-1.809,0-3.699,1.253-3.68,2.769
						C144.672,72.981,145.784,70.718,149.389,70.718L149.389,70.718z"/>
					<polygon opacity="0.8" fill-rule="evenodd" clip-rule="evenodd" fill="#FFFFFF" points="149.369,74.403 229.422,74.314 
						225.104,99.337 154.391,99.356 					"/>
					<path fill-rule="evenodd" clip-rule="evenodd" fill="#C6C6C6" d="M153.303,101.684h72.193c1.195,0,2.176,0.979,2.176,2.174
						v39.809c0,1.195-0.98,2.176-2.176,2.176h-72.193c-1.195,0-2.176-0.98-2.176-2.176v-39.809
						C151.127,102.662,152.107,101.684,153.303,101.684L153.303,101.684z"/>
					<path opacity="0.2" d="M227.672,103.857c0-1.195-0.98-2.174-2.176-2.174h-6.079l-46.018,44.158h52.097
						c1.195,0,2.176-0.98,2.176-2.176V103.857z"/>
					<rect x="179.172" y="132.375" fill-rule="evenodd" clip-rule="evenodd" fill="#223666" width="20.449" height="10.704"/>
					<rect x="154.923" y="105.412" opacity="0.3" fill-rule="evenodd" clip-rule="evenodd" width="68.952" height="25.064"/>
				</g>
				<g id="Keyboard_5_">
					<path fill-rule="evenodd" clip-rule="evenodd" fill="#333333" d="M156.416,106.895h3.201c0.188,0,0.339,0.202,0.339,0.446
						v3.445c0,0.244-0.15,0.446-0.339,0.446h-3.201c-0.189,0-0.347-0.202-0.347-0.446v-3.445
						C156.069,107.097,156.227,106.895,156.416,106.895L156.416,106.895z"/>
					<path fill-rule="evenodd" clip-rule="evenodd" fill="#333333" d="M161.609,106.895h3.2c0.189,0,0.347,0.202,0.347,0.446v3.445
						c0,0.244-0.157,0.446-0.347,0.446h-3.2c-0.189,0-0.346-0.202-0.346-0.446v-3.445
						C161.264,107.097,161.42,106.895,161.609,106.895L161.609,106.895z"/>
					<path fill-rule="evenodd" clip-rule="evenodd" fill="#333333" d="M166.809,106.895h3.193c0.189,0,0.348,0.202,0.348,0.446
						v3.445c0,0.244-0.158,0.446-0.348,0.446h-3.193c-0.189,0-0.347-0.202-0.347-0.446v-3.445
						C166.462,107.097,166.619,106.895,166.809,106.895L166.809,106.895z"/>
					<path fill-rule="evenodd" clip-rule="evenodd" fill="#333333" d="M172.002,106.895h3.193c0.196,0,0.346,0.202,0.346,0.446
						v3.445c0,0.244-0.149,0.446-0.346,0.446h-3.193c-0.189,0-0.347-0.202-0.347-0.446v-3.445
						C171.655,107.097,171.813,106.895,172.002,106.895L172.002,106.895z"/>
					<path fill-rule="evenodd" clip-rule="evenodd" fill="#333333" d="M177.194,106.895h3.201c0.189,0,0.347,0.202,0.347,0.446
						v3.445c0,0.244-0.157,0.446-0.347,0.446h-3.201c-0.189,0-0.346-0.202-0.346-0.446v-3.445
						C176.849,107.097,177.005,106.895,177.194,106.895L177.194,106.895z"/>
					<path fill-rule="evenodd" clip-rule="evenodd" fill="#333333" d="M182.394,106.895h3.194c0.189,0,0.347,0.202,0.347,0.446
						v3.445c0,0.244-0.157,0.446-0.347,0.446h-3.194c-0.188,0-0.346-0.202-0.346-0.446v-3.445
						C182.048,107.097,182.205,106.895,182.394,106.895L182.394,106.895z"/>
					<path fill-rule="evenodd" clip-rule="evenodd" fill="#333333" d="M187.588,106.895h3.193c0.197,0,0.346,0.202,0.346,0.446
						v3.445c0,0.244-0.148,0.446-0.346,0.446h-3.193c-0.189,0-0.346-0.202-0.346-0.446v-3.445
						C187.242,107.097,187.398,106.895,187.588,106.895L187.588,106.895z"/>
					<path fill-rule="evenodd" clip-rule="evenodd" fill="#333333" d="M192.781,106.895h3.199c0.189,0,0.348,0.202,0.348,0.446
						v3.445c0,0.244-0.158,0.446-0.348,0.446h-3.199c-0.191,0-0.347-0.202-0.347-0.446v-3.445
						C192.435,107.097,192.59,106.895,192.781,106.895L192.781,106.895z"/>
					<path fill-rule="evenodd" clip-rule="evenodd" fill="#333333" d="M197.98,106.895h3.194c0.189,0,0.346,0.202,0.346,0.446v3.445
						c0,0.244-0.156,0.446-0.346,0.446h-3.194c-0.196,0-0.347-0.202-0.347-0.446v-3.445
						C197.634,107.097,197.784,106.895,197.98,106.895L197.98,106.895z"/>
					<path fill-rule="evenodd" clip-rule="evenodd" fill="#333333" d="M203.174,106.895h3.193c0.196,0,0.348,0.202,0.348,0.446
						v3.445c0,0.244-0.151,0.446-0.348,0.446h-3.193c-0.19,0-0.346-0.202-0.346-0.446v-3.445
						C202.828,107.097,202.983,106.895,203.174,106.895L203.174,106.895z"/>
					<path fill-rule="evenodd" clip-rule="evenodd" fill="#333333" d="M208.367,106.895h3.2c0.189,0,0.346,0.202,0.346,0.446v3.445
						c0,0.244-0.156,0.446-0.346,0.446h-3.2c-0.19,0-0.346-0.202-0.346-0.446v-3.445
						C208.021,107.097,208.177,106.895,208.367,106.895L208.367,106.895z"/>
					<path fill-rule="evenodd" clip-rule="evenodd" fill="#333333" d="M164.215,112.914h3.195c0.188,0,0.346,0.202,0.346,0.446
						v3.446c0,0.244-0.157,0.445-0.346,0.445h-3.195c-0.189,0-0.346-0.201-0.346-0.445v-3.446
						C163.869,113.116,164.025,112.914,164.215,112.914L164.215,112.914z"/>
					<path fill-rule="evenodd" clip-rule="evenodd" fill="#333333" d="M169.408,112.914h3.201c0.189,0,0.346,0.202,0.346,0.446
						v3.446c0,0.244-0.156,0.445-0.346,0.445h-3.201c-0.189,0-0.347-0.201-0.347-0.445v-3.446
						C169.062,113.116,169.219,112.914,169.408,112.914L169.408,112.914z"/>
					<path fill-rule="evenodd" clip-rule="evenodd" fill="#333333" d="M174.602,112.914h3.201c0.188,0,0.346,0.202,0.346,0.446
						v3.446c0,0.244-0.157,0.445-0.346,0.445h-3.201c-0.189,0-0.34-0.201-0.34-0.445v-3.446
						C174.262,113.116,174.412,112.914,174.602,112.914L174.602,112.914z"/>
					<path fill-rule="evenodd" clip-rule="evenodd" fill="#333333" d="M179.801,112.914h3.195c0.189,0,0.345,0.202,0.345,0.446
						v3.446c0,0.244-0.155,0.445-0.345,0.445h-3.195c-0.189,0-0.346-0.201-0.346-0.445v-3.446
						C179.455,113.116,179.611,112.914,179.801,112.914L179.801,112.914z"/>
					<path fill-rule="evenodd" clip-rule="evenodd" fill="#333333" d="M184.994,112.914h3.201c0.189,0,0.34,0.202,0.34,0.446v3.446
						c0,0.244-0.15,0.445-0.34,0.445h-3.201c-0.189,0-0.346-0.201-0.346-0.445v-3.446
						C184.648,113.116,184.805,112.914,184.994,112.914L184.994,112.914z"/>
					<path fill-rule="evenodd" clip-rule="evenodd" fill="#333333" d="M190.188,112.914h3.201c0.189,0,0.346,0.202,0.346,0.446
						v3.446c0,0.244-0.156,0.445-0.346,0.445h-3.201c-0.189,0-0.347-0.201-0.347-0.445v-3.446
						C189.841,113.116,189.998,112.914,190.188,112.914L190.188,112.914z"/>
					<path fill-rule="evenodd" clip-rule="evenodd" fill="#333333" d="M195.387,112.914h3.194c0.189,0,0.347,0.202,0.347,0.446
						v3.446c0,0.244-0.157,0.445-0.347,0.445h-3.194c-0.189,0-0.346-0.201-0.346-0.445v-3.446
						C195.041,113.116,195.197,112.914,195.387,112.914L195.387,112.914z"/>
					<path fill-rule="evenodd" clip-rule="evenodd" fill="#333333" d="M200.58,112.914h3.201c0.188,0,0.34,0.202,0.34,0.446v3.446
						c0,0.244-0.151,0.445-0.34,0.445h-3.201c-0.189,0-0.346-0.201-0.346-0.445v-3.446
						C200.234,113.116,200.391,112.914,200.58,112.914L200.58,112.914z"/>
					<path fill-rule="evenodd" clip-rule="evenodd" fill="#333333" d="M205.772,112.914h3.202c0.188,0,0.345,0.202,0.345,0.446
						v3.446c0,0.244-0.156,0.445-0.345,0.445h-3.202c-0.188,0-0.347-0.201-0.347-0.445v-3.446
						C205.426,113.116,205.584,112.914,205.772,112.914L205.772,112.914z"/>
					<path fill-rule="evenodd" clip-rule="evenodd" fill="#333333" d="M210.973,112.914h3.195c0.189,0,0.346,0.202,0.346,0.446
						v3.446c0,0.244-0.156,0.445-0.346,0.445h-3.195c-0.189,0-0.347-0.201-0.347-0.445v-3.446
						C210.626,113.116,210.783,112.914,210.973,112.914L210.973,112.914z"/>
					<path fill-rule="evenodd" clip-rule="evenodd" fill="#333333" d="M213.566,106.895h3.193c0.189,0,0.347,0.202,0.347,0.446
						v3.445c0,0.244-0.157,0.446-0.347,0.446h-3.193c-0.195,0-0.348-0.202-0.348-0.446v-3.445
						C213.219,107.097,213.371,106.895,213.566,106.895L213.566,106.895z"/>
					<path fill-rule="evenodd" clip-rule="evenodd" fill="#333333" d="M218.759,106.895h3.194c0.189,0,0.346,0.202,0.346,0.446
						v3.445c0,0.244-0.156,0.446-0.346,0.446h-3.194c-0.19,0-0.346-0.202-0.346-0.446v-3.445
						C218.413,107.097,218.568,106.895,218.759,106.895L218.759,106.895z"/>
					<path fill-rule="evenodd" clip-rule="evenodd" fill="#333333" d="M216.251,112.914h5.702c0.189,0,0.346,0.202,0.346,0.446
						v3.446c0,0.244-0.156,0.445-0.346,0.445h-5.702c-0.19,0-0.348-0.201-0.348-0.445v-3.446
						C215.903,113.116,216.061,112.914,216.251,112.914L216.251,112.914z"/>
					<path fill-rule="evenodd" clip-rule="evenodd" fill="#333333" d="M156.468,112.914h5.919c0.189,0,0.345,0.202,0.345,0.446
						v3.446c0,0.244-0.155,0.445-0.345,0.445h-5.919c-0.196,0-0.347-0.201-0.347-0.445v-3.446
						C156.121,113.116,156.271,112.914,156.468,112.914L156.468,112.914z"/>
					<path fill-rule="evenodd" clip-rule="evenodd" fill="#333333" d="M156.468,118.935h7.068c0.189,0,0.346,0.201,0.346,0.445
						v3.447c0,0.244-0.156,0.446-0.346,0.446h-7.068c-0.196,0-0.347-0.202-0.347-0.446v-3.447
						C156.121,119.136,156.271,118.935,156.468,118.935L156.468,118.935z"/>
					<path fill-rule="evenodd" clip-rule="evenodd" fill="#333333" d="M156.468,124.955h3.188c0.189,0,0.346,0.201,0.346,0.445
						v3.448c0,0.244-0.156,0.445-0.346,0.445h-3.188c-0.196,0-0.347-0.201-0.347-0.445V125.4
						C156.121,125.156,156.271,124.955,156.468,124.955L156.468,124.955z"/>
					<path fill-rule="evenodd" clip-rule="evenodd" fill="#333333" d="M161.654,124.955h3.188c0.189,0,0.348,0.201,0.348,0.445
						v3.448c0,0.244-0.158,0.445-0.348,0.445h-3.188c-0.189,0-0.346-0.201-0.346-0.445V125.4
						C161.309,125.156,161.465,124.955,161.654,124.955L161.654,124.955z"/>
					<path fill-rule="evenodd" clip-rule="evenodd" fill="#333333" d="M166.842,124.955h3.187c0.196,0,0.347,0.201,0.347,0.445
						v3.448c0,0.244-0.15,0.445-0.347,0.445h-3.187c-0.189,0-0.347-0.201-0.347-0.445V125.4
						C166.495,125.156,166.652,124.955,166.842,124.955L166.842,124.955z"/>
					<path fill-rule="evenodd" clip-rule="evenodd" fill="#333333" d="M172.027,124.955h33.217c0.195,0,0.346,0.201,0.346,0.445
						v3.448c0,0.244-0.15,0.445-0.346,0.445h-33.217c-0.189,0-0.346-0.201-0.346-0.445V125.4
						C171.682,125.156,171.838,124.955,172.027,124.955L172.027,124.955z"/>
					<path fill-rule="evenodd" clip-rule="evenodd" fill="#333333" d="M165.456,118.993h3.194c0.189,0,0.347,0.202,0.347,0.445
						v3.447c0,0.244-0.157,0.446-0.347,0.446h-3.194c-0.189,0-0.347-0.202-0.347-0.446v-3.447
						C165.109,119.195,165.267,118.993,165.456,118.993L165.456,118.993z"/>
					<path fill-rule="evenodd" clip-rule="evenodd" fill="#333333" d="M170.65,118.993h3.199c0.189,0,0.348,0.202,0.348,0.445v3.447
						c0,0.244-0.158,0.446-0.348,0.446h-3.199c-0.189,0-0.348-0.202-0.348-0.446v-3.447
						C170.303,119.195,170.461,118.993,170.65,118.993L170.65,118.993z"/>
					<path fill-rule="evenodd" clip-rule="evenodd" fill="#333333" d="M175.843,118.993h3.2c0.189,0,0.347,0.202,0.347,0.445v3.447
						c0,0.244-0.157,0.446-0.347,0.446h-3.2c-0.19,0-0.34-0.202-0.34-0.446v-3.447C175.503,119.195,175.652,118.993,175.843,118.993
						L175.843,118.993z"/>
					<path fill-rule="evenodd" clip-rule="evenodd" fill="#333333" d="M181.042,118.993h3.194c0.189,0,0.346,0.202,0.346,0.445
						v3.447c0,0.244-0.156,0.446-0.346,0.446h-3.194c-0.189,0-0.347-0.202-0.347-0.446v-3.447
						C180.695,119.195,180.853,118.993,181.042,118.993L181.042,118.993z"/>
					<path fill-rule="evenodd" clip-rule="evenodd" fill="#333333" d="M186.234,118.993h3.201c0.189,0,0.34,0.202,0.34,0.445v3.447
						c0,0.244-0.15,0.446-0.34,0.446h-3.201c-0.188,0-0.346-0.202-0.346-0.446v-3.447
						C185.889,119.195,186.047,118.993,186.234,118.993L186.234,118.993z"/>
					<path fill-rule="evenodd" clip-rule="evenodd" fill="#333333" d="M191.429,118.993h3.2c0.189,0,0.347,0.202,0.347,0.445v3.447
						c0,0.244-0.157,0.446-0.347,0.446h-3.2c-0.19,0-0.347-0.202-0.347-0.446v-3.447
						C191.082,119.195,191.238,118.993,191.429,118.993L191.429,118.993z"/>
					<path fill-rule="evenodd" clip-rule="evenodd" fill="#333333" d="M196.628,118.993h3.194c0.189,0,0.346,0.202,0.346,0.445
						v3.447c0,0.244-0.156,0.446-0.346,0.446h-3.194c-0.19,0-0.347-0.202-0.347-0.446v-3.447
						C196.281,119.195,196.438,118.993,196.628,118.993L196.628,118.993z"/>
					<path fill-rule="evenodd" clip-rule="evenodd" fill="#333333" d="M201.82,118.993h3.201c0.189,0,0.34,0.202,0.34,0.445v3.447
						c0,0.244-0.15,0.446-0.34,0.446h-3.201c-0.188,0-0.346-0.202-0.346-0.446v-3.447
						C201.475,119.195,201.632,118.993,201.82,118.993L201.82,118.993z"/>
					<path fill-rule="evenodd" clip-rule="evenodd" fill="#333333" d="M207.014,118.993h5.951c0.189,0,0.347,0.202,0.347,0.445
						v3.447c0,0.244-0.157,0.446-0.347,0.446h-5.951c-0.189,0-0.346-0.202-0.346-0.446v-3.447
						C206.668,119.195,206.824,118.993,207.014,118.993L207.014,118.993z"/>
					<path fill-rule="evenodd" clip-rule="evenodd" fill="#333333" d="M214.846,118.935h7.074c0.189,0,0.348,0.201,0.348,0.445
						v3.447c0,0.244-0.158,0.446-0.348,0.446h-7.074c-0.189,0-0.346-0.202-0.346-0.446v-3.447
						C214.5,119.136,214.656,118.935,214.846,118.935L214.846,118.935z"/>
					<path fill-rule="evenodd" clip-rule="evenodd" fill="#333333" d="M215.48,124.955h2.665c0.065,0,0.124,0.068,0.124,0.151v1.193
						c0,0.084-0.059,0.151-0.124,0.151h-2.665c-0.065,0-0.117-0.067-0.117-0.151v-1.193
						C215.363,125.023,215.415,124.955,215.48,124.955L215.48,124.955z"/>
					<path fill-rule="evenodd" clip-rule="evenodd" fill="#333333" d="M215.48,127.553h2.665c0.065,0,0.124,0.068,0.124,0.152v1.185
						c0,0.084-0.059,0.152-0.124,0.152h-2.665c-0.065,0-0.117-0.068-0.117-0.152v-1.185
						C215.363,127.621,215.415,127.553,215.48,127.553L215.48,127.553z"/>
					<path fill-rule="evenodd" clip-rule="evenodd" fill="#333333" d="M211.527,127.553h2.666c0.064,0,0.124,0.068,0.124,0.152
						v1.185c0,0.084-0.06,0.152-0.124,0.152h-2.666c-0.064,0-0.117-0.068-0.117-0.152v-1.185
						C211.41,127.621,211.463,127.553,211.527,127.553L211.527,127.553z"/>
					<path fill-rule="evenodd" clip-rule="evenodd" fill="#333333" d="M219.426,127.553h2.664c0.066,0,0.118,0.068,0.118,0.152
						v1.185c0,0.084-0.052,0.152-0.118,0.152h-2.664c-0.066,0-0.125-0.068-0.125-0.152v-1.185
						C219.301,127.621,219.359,127.553,219.426,127.553L219.426,127.553z"/>
					<path fill-rule="evenodd" clip-rule="evenodd" fill="#333333" d="M206.89,124.955h3.201c0.189,0,0.347,0.201,0.347,0.445v3.448
						c0,0.244-0.157,0.445-0.347,0.445h-3.201c-0.189,0-0.345-0.201-0.345-0.445V125.4
						C206.545,125.156,206.7,124.955,206.89,124.955L206.89,124.955z"/>
				</g>
			</g>
			<g id="Lens_2_">
				<path fill="#F94B68" d="M208.047,58.576c1.436-0.989,3.398-0.627,4.389,0.807l0,0c0.988,1.435,0.627,3.398-0.807,4.388
					l-14.197,9.788c-1.434,0.989-3.397,0.629-4.387-0.806l0,0c-0.988-1.434-0.627-3.397,0.807-4.387L208.047,58.576z"/>
				<path opacity="0.2" d="M207.242,59.714c1.217-0.839,2.883-0.533,3.722,0.683l0,0c0.839,1.216,0.532,2.884-0.684,3.722
					l-12.042,8.305c-1.217,0.839-2.884,0.533-3.722-0.685l0,0c-0.839-1.216-0.533-2.883,0.684-3.721L207.242,59.714z"/>
				<path opacity="0.1" d="M192.601,70.134c-0.235,0.864-0.104,1.823,0.444,2.619c0.479,0.694,1.186,1.134,1.951,1.294
					c0.221-0.626,0.004-1.607-0.613-2.502C193.866,70.797,193.194,70.289,192.601,70.134z"/>
				<path fill="#24C637" d="M170.337,70.828c-6.582,4.537-8.238,13.554-3.698,20.135c4.537,6.583,13.553,8.239,20.135,3.7
					c6.098-4.204,7.963-12.249,4.598-18.644l3.092-2.131c0,0,0.576-2.661-1.952-3.18l-3.279,2.262
					C184.428,67.713,176.364,66.672,170.337,70.828z M187.877,76.318c3.549,5.147,2.254,12.198-2.894,15.748
					s-12.2,2.255-15.749-2.894c-3.55-5.148-2.254-12.198,2.893-15.748C177.275,69.874,184.326,71.17,187.877,76.318z"/>
				<path opacity="0.2" d="M167.288,83.862c0.181,1.847,0.817,3.674,1.946,5.311c3.367,4.883,9.884,6.296,14.938,3.399
					C173.686,95.039,169.075,88.087,167.288,83.862z"/>
			</g>
			<g id="Active_11_">
				<g id="Active1">
					<path fill-rule="evenodd" clip-rule="evenodd" fill="#F05161" d="M185.807,90.541c0.437,0.158,0.838,0.393,1.188,0.685
						l1.647-0.679l1.107,1.917l-1.379,1.145c0.039,0.229,0.061,0.463,0.061,0.702c0,0.211-0.016,0.419-0.049,0.62l1.436,1.107
						l-1.107,1.917l-1.654-0.613c-0.344,0.3-0.74,0.542-1.173,0.71l-0.233,1.75h-2.215l-0.294-1.723
						c-0.437-0.156-0.837-0.391-1.188-0.684l-1.647,0.679l-1.106-1.918l1.379-1.145c-0.04-0.227-0.061-0.462-0.061-0.701
						c0-0.213,0.016-0.42,0.048-0.623l-1.436-1.104l1.107-1.918l1.655,0.613c0.344-0.3,0.74-0.542,1.173-0.708l0.232-1.751h2.216
						L185.807,90.541z"/>
					<path opacity="0.5" fill-rule="evenodd" clip-rule="evenodd" d="M184.473,97.189c1.588,0,2.881-1.293,2.881-2.879
						c0-1.587-1.293-2.88-2.881-2.88c-1.584,0-2.879,1.293-2.879,2.88C181.594,95.896,182.889,97.189,184.473,97.189L184.473,97.189
						z"/>
					<path opacity="0.5" fill-rule="evenodd" clip-rule="evenodd" fill="#FFFFFF" d="M184.475,96.22c1.052,0,1.91-0.859,1.91-1.909
						c0-1.053-0.858-1.909-1.91-1.909s-1.91,0.856-1.91,1.909C182.564,95.36,183.423,96.22,184.475,96.22L184.475,96.22z"/>
				</g>
				<g id="Active">
					<path fill-rule="evenodd" clip-rule="evenodd" fill="#F39C12" d="M189.783,74.161c0.688,0.024,1.358,0.171,1.986,0.425
						l2.016-1.707l2.434,2.202l-1.426,2.241c0.16,0.303,0.297,0.624,0.405,0.961c0.096,0.3,0.167,0.601,0.214,0.899l2.527,0.906
						l-0.689,3.209l-2.613-0.112c-0.349,0.58-0.798,1.101-1.331,1.532l0.466,2.576l-3.124,1.006l-1.196-2.296
						c-0.688-0.023-1.359-0.169-1.987-0.424l-2.016,1.705l-2.435-2.2l1.427-2.242c-0.159-0.303-0.296-0.624-0.405-0.961
						c-0.096-0.3-0.167-0.6-0.215-0.899l-2.527-0.907l0.69-3.208l2.613,0.113c0.349-0.581,0.798-1.102,1.331-1.533l-0.467-2.575
						l3.125-1.007L189.783,74.161z"/>
					<path opacity="0.5" fill-rule="evenodd" clip-rule="evenodd" d="M189.615,84.725c2.559,0,4.645-2.086,4.645-4.643
						s-2.086-4.641-4.645-4.641c-2.557,0-4.642,2.084-4.642,4.641S187.059,84.725,189.615,84.725L189.615,84.725z"/>
					<path opacity="0.5" fill-rule="evenodd" clip-rule="evenodd" fill="#FFFFFF" d="M190.484,82.775
						c1.484-0.478,2.305-2.078,1.826-3.561c-0.478-1.484-2.078-2.303-3.562-1.825c-1.483,0.479-2.304,2.077-1.825,3.561
						C187.4,82.434,189.001,83.253,190.484,82.775L190.484,82.775z"/>
				</g>
			</g>
			<g id="Active_9_">
				<g id="Active1_5_">
					<path fill-rule="evenodd" clip-rule="evenodd" fill="#EA844B" d="M176.795,87.172c0.178-0.075,0.366-0.118,0.556-0.128
						l0.31-0.673l0.881,0.271l-0.098,0.739c0.078,0.059,0.149,0.123,0.218,0.197c0.06,0.064,0.114,0.132,0.161,0.202l0.75-0.068
						l0.206,0.897l-0.679,0.281c-0.02,0.188-0.072,0.374-0.156,0.548l0.424,0.599l-0.675,0.628l-0.576-0.442
						c-0.178,0.075-0.366,0.119-0.556,0.128l-0.311,0.674l-0.88-0.271l0.097-0.739c-0.076-0.058-0.15-0.124-0.217-0.197
						c-0.061-0.064-0.114-0.133-0.162-0.203l-0.75,0.069l-0.205-0.896l0.678-0.282c0.02-0.189,0.072-0.374,0.157-0.548l-0.425-0.599
						l0.676-0.627L176.795,87.172z"/>
					<path opacity="0.5" fill-rule="evenodd" clip-rule="evenodd" d="M178.27,89.574c0.483-0.448,0.512-1.209,0.063-1.692
						c-0.447-0.483-1.208-0.511-1.691-0.062c-0.482,0.448-0.512,1.209-0.063,1.692C177.026,89.996,177.787,90.023,178.27,89.574
						L178.27,89.574z"/>
					<path opacity="0.5" fill-rule="evenodd" clip-rule="evenodd" fill="#FFFFFF" d="M177.996,89.278
						c0.32-0.297,0.338-0.801,0.041-1.121s-0.801-0.34-1.122-0.042c-0.32,0.298-0.339,0.802-0.042,1.122
						C177.171,89.558,177.675,89.577,177.996,89.278L177.996,89.278z"/>
				</g>
				<g id="Active_10_">
					<path fill-rule="evenodd" clip-rule="evenodd" fill="#1ABC9C" d="M173.371,81.054c0.217-0.187,0.463-0.331,0.727-0.432
						l0.131-1.091l1.365-0.017l0.199,1.086c0.135,0.047,0.267,0.106,0.396,0.18c0.113,0.063,0.22,0.135,0.318,0.212l1.027-0.439
						l0.697,1.174l-0.828,0.704c0.059,0.276,0.068,0.563,0.027,0.845l0.871,0.652l-0.666,1.19l-1.016-0.36
						c-0.215,0.187-0.462,0.333-0.725,0.434l-0.132,1.09l-1.365,0.018l-0.199-1.086c-0.134-0.047-0.267-0.107-0.396-0.18
						c-0.114-0.063-0.221-0.135-0.32-0.213l-1.026,0.438l-0.698-1.172l0.829-0.706c-0.058-0.275-0.068-0.561-0.028-0.843
						l-0.871-0.653l0.668-1.19L173.371,81.054z"/>
					<path opacity="0.5" fill-rule="evenodd" clip-rule="evenodd" d="M176.31,84.321c0.78-0.724,0.825-1.95,0.102-2.729
						c-0.724-0.779-1.949-0.824-2.728-0.101c-0.779,0.724-0.826,1.948-0.103,2.729C174.305,84.999,175.531,85.045,176.31,84.321
						L176.31,84.321z"/>
					<path opacity="0.5" fill-rule="evenodd" clip-rule="evenodd" fill="#FFFFFF" d="M176.023,83.481
						c0.316-0.565,0.113-1.285-0.451-1.602c-0.565-0.317-1.285-0.114-1.602,0.451c-0.317,0.565-0.115,1.285,0.451,1.602
						C174.986,84.249,175.706,84.047,176.023,83.481L176.023,83.481z"/>
				</g>
			</g>
		</g>
		<g id="Blooming">
			<path fill="#A5A5A5" d="M55.803,138.82c-4.244-3.748-2.314-12.494-2.314-12.494h-6.324h-6.326c0,0,1.931,8.746-2.313,12.494
				c-4.245,3.748-9.203,3.748-9.203,3.748v2.107h17.843h17.842v-2.107C65.006,142.568,60.048,142.568,55.803,138.82z"/>
			<rect x="29.321" y="142.568" opacity="0.3" fill="#FFFFFF" width="35.685" height="2.107"/>
			<path fill="#CCCCCC" d="M94.326,120.704c0,3.105-2.518,5.622-5.621,5.622H5.622c-3.104,0-5.622-2.517-5.622-5.622V74.79
				c0-3.104,2.518-5.621,5.622-5.621h83.083c3.104,0,5.621,2.517,5.621,5.621V120.704z"/>
			<path fill="#223666" d="M0,74.79v45.914c0,1.091,0.315,2.106,0.854,2.967h92.62c0.538-0.86,0.853-1.876,0.853-2.967V74.79
				c0-1.455-0.557-2.777-1.465-3.775H1.465C0.558,72.013,0,73.335,0,74.79z"/>
			<rect x="4.061" y="72.917" fill="#E2E2E2" width="86.207" height="48.803"/>
			<g>
				<rect x="8.287" y="78.85" fill="#353F49" width="35.58" height="41.173"/>
				<g>
					<rect x="10.349" y="83.106" fill="#ABE0E5" width="2.312" height="0.654"/>
					<rect x="10.349" y="87.628" fill="#ABE0E5" width="2.312" height="0.655"/>
					<rect x="13.259" y="83.106" fill="#656A73" width="2.636" height="0.654"/>
					<rect x="13.259" y="87.628" fill="#656A73" width="8.347" height="0.655"/>
					<rect x="16.197" y="83.106" fill="#ABE0E5" width="2.119" height="0.654"/>
					<rect x="12.66" y="84.825" fill="#ABE0E5" width="3.678" height="0.655"/>
					<rect x="12.66" y="92.785" fill="#ABE0E5" width="3.678" height="0.654"/>
					<rect x="12.66" y="103.083" fill="#ABE0E5" width="3.678" height="0.653"/>
					<rect x="12.66" y="94.505" fill="#ABE0E5" width="1.516" height="0.654"/>
					<rect x="17.206" y="92.785" fill="#ABE0E5" width="9.612" height="0.654"/>
					<rect x="16.592" y="97.942" fill="#ABE0E5" width="3.346" height="0.654"/>
					<rect x="16.693" y="101.378" fill="#ABE0E5" width="3.346" height="0.655"/>
					<rect x="16.693" y="115.11" fill="#ABE0E5" width="3.346" height="0.655"/>
					<rect x="20.813" y="97.942" fill="#CCCBCA" width="5.432" height="0.654"/>
					<rect x="20.813" y="101.378" fill="#CCCBCA" width="2.358" height="0.655"/>
					<rect x="19.387" y="104.801" fill="#CCCBCA" width="2.773" height="0.654"/>
					<rect x="19.387" y="111.674" fill="#CCCBCA" width="5.323" height="0.654"/>
					<rect x="21.121" y="115.11" fill="#CCCBCA" width="1.962" height="0.655"/>
					<rect x="34.616" y="108.236" fill="#F68360" width="2.773" height="0.655"/>
					<rect x="27.316" y="97.942" fill="#656A73" width="2.995" height="0.654"/>
					<rect x="30.881" y="97.942" fill="#F68360" width="1.412" height="0.654"/>
					<rect x="27.908" y="92.785" fill="#656A73" width="6.912" height="0.654"/>
					<rect x="36.226" y="92.785" fill="#656A73" width="4.232" height="0.654"/>
					<rect x="12.66" y="89.349" fill="#656A73" width="5.488" height="0.654"/>
					<rect x="12.66" y="91.067" fill="#656A73" width="7.781" height="0.654"/>
					<rect x="14.739" y="94.505" fill="#656A73" width="8.919" height="0.654"/>
					<rect x="14.739" y="106.52" fill="#656A73" width="8.919" height="0.654"/>
					<rect x="17.565" y="108.236" fill="#656A73" width="5.37" height="0.655"/>
					<rect x="17.565" y="113.394" fill="#656A73" width="2.58" height="0.654"/>
					<rect x="23.083" y="113.394" fill="#656A73" width="5.426" height="0.654"/>
					<rect x="24.71" y="115.11" fill="#656A73" width="3.799" height="0.655"/>
					<rect x="25.586" y="108.236" fill="#656A73" width="8.496" height="0.655"/>
					<rect x="25.586" y="111.674" fill="#656A73" width="8.496" height="0.654"/>
					<rect x="14.739" y="96.224" fill="#ABE0E5" width="1.229" height="0.654"/>
					<rect x="14.739" y="99.66" fill="#ABE0E5" width="3.151" height="0.654"/>
					<rect x="14.739" y="104.801" fill="#ABE0E5" width="3.151" height="0.654"/>
					<rect x="14.739" y="108.236" fill="#ABE0E5" width="2.116" height="0.655"/>
					<rect x="14.739" y="111.674" fill="#ABE0E5" width="3.627" height="0.654"/>
					<rect x="14.739" y="113.394" fill="#ABE0E5" width="1.954" height="0.654"/>
					<rect x="20.813" y="113.394" fill="#ABE0E5" width="1.665" height="0.654"/>
					<rect x="23.529" y="108.236" fill="#ABE0E5" width="1.424" height="0.655"/>
					<rect x="16.592" y="96.224" fill="#656A73" width="1.946" height="0.654"/>
					<rect x="16.592" y="109.956" fill="#656A73" width="5.568" height="0.654"/>
					<rect x="22.967" y="109.956" fill="#656A73" width="4.423" height="0.654"/>
					<rect x="27.622" y="109.956" fill="#656A73" width="9.768" height="0.654"/>
					<rect x="18.858" y="96.224" fill="#CCCBCA" width="1.583" height="0.654"/>
					<rect x="20.813" y="96.224" fill="#656A73" width="5.432" height="0.654"/>
					<rect x="24.156" y="94.505" fill="#CCCBCA" width="1.595" height="0.654"/>
					<rect x="27.316" y="94.505" fill="#F68360" width="2.995" height="0.654"/>
					<rect x="21.272" y="91.067" fill="#656A73" width="7.782" height="0.654"/>
					<rect x="37.261" y="91.067" fill="#F68360" width="2.421" height="0.654"/>
					<rect x="29.59" y="91.067" fill="#F68360" width="4.861" height="0.654"/>
					<rect x="34.82" y="91.067" fill="#CCCBCA" width="1.59" height="0.654"/>
					<rect x="40.218" y="91.067" fill="#CCCBCA" width="1.589" height="0.654"/>
					<rect x="19.942" y="89.349" fill="#656A73" width="8.428" height="0.654"/>
					<rect x="18.538" y="89.349" fill="#ABE0E5" width="1.017" height="0.654"/>
					<rect x="16.818" y="84.825" fill="#656A73" width="1.498" height="0.655"/>
					<rect x="18.63" y="84.825" fill="#CCCBCA" width="1.202" height="0.655"/>
				</g>
				<rect x="8.287" y="75.551" fill="#A3D8D9" width="35.58" height="3.299"/>
			</g>
			<g>
				<rect x="47.271" y="78.85" fill="#F2F2F2" width="35.581" height="41.173"/>
				<rect x="49.89" y="86.837" fill="#FFFFFF" width="30.344" height="30.566"/>
				<rect x="47.271" y="75.551" fill="#A3D8D9" width="35.581" height="3.299"/>
				<g>
					<g>
						<rect x="49.89" y="82.025" fill="#FF9978" width="9.11" height="1.636"/>
						<rect x="60.506" y="82.025" fill="#474F59" width="9.111" height="1.636"/>
						<rect x="71.121" y="82.025" fill="#474F59" width="9.112" height="1.636"/>
					</g>
					<rect x="51.733" y="89.675" fill="#FF9978" width="7.267" height="1.637"/>
					<rect x="51.733" y="94.153" fill="#D9D8D7" width="7.267" height="7.268"/>
					<rect x="60.506" y="94.153" fill="#FF9978" width="7.267" height="7.268"/>
					<rect x="60.506" y="94.153" fill="#91D3D9" width="7.267" height="7.268"/>
					<rect x="61.16" y="94.808" fill="#C4EDF1" width="5.957" height="5.958"/>
					<g>
						<rect x="51.733" y="103.163" fill="#474F59" width="7.267" height="1.638"/>
						<path fill="#D9D8D7" d="M51.733,110.282v1.638h16.039v-1.638H51.733z M67.444,111.593H52.061v-0.982h15.384V111.593z"/>
						<rect x="74.755" y="113.925" fill="#C4EDF1" width="3.633" height="1.636"/>
						<rect x="51.733" y="113.925" fill="#FF9978" width="7.267" height="1.636"/>
						<rect x="51.733" y="106.848" fill="#D9D8D7" width="3" height="1.635"/>
						<rect x="56.001" y="106.848" fill="#D9D8D7" width="2.999" height="1.635"/>
						<path fill="#D9D8D7" d="M60.506,103.163v1.638h7.267v-1.638H60.506z M67.444,104.474h-6.611v-0.982h6.611V104.474z"/>
						<rect x="74.755" y="103.163" fill="#D9D8D7" width="3.633" height="1.638"/>
					</g>
					<rect x="60.506" y="89.675" fill="#D9D8D7" width="17.882" height="1.637"/>
					<g>
						<rect x="69.276" y="94.153" fill="#474F59" width="9.111" height="0.654"/>
						<rect x="69.276" y="95.667" fill="#D9D8D7" width="9.111" height="0.655"/>
						<rect x="69.276" y="97.182" fill="#D9D8D7" width="4.557" height="0.653"/>
					</g>
				</g>
			</g>
		</g>
		<g id="Man_1_">
			<polygon fill="#F6B98A" points="98.958,137.138 100.241,125.794 128.104,120.1 127.617,128.919 128.784,136.296 124.756,140.084 
				115.916,143.352 103.408,140.467 			"/>
			<path fill="#FFCC73" d="M95.229,136.296l4.341-4.57c0,0,4.318,10.663,14.902,10.022c10.583-0.642,13.663-9.553,13.663-9.553
				l5.579,4.101l0.402,10.344c0,0-21.407,5.53-24.775,4.729c-3.367-0.801-15.236-6.414-15.236-6.414L95.229,136.296z"/>
			<path fill="#0C488D" d="M133.715,136.296c-3.849,10.103-19.242,11.064-19.242,11.064s-15.395-0.962-19.243-11.064
				c0,0-35.599,8.659-38.485,42.815c0,0,14.432,28.384,57.729,31.269c43.296-2.885,57.728-31.269,57.728-31.269
				C169.314,144.955,133.715,136.296,133.715,136.296z"/>
			<path fill="#5E3B28" d="M140.69,75.922c-3.127-11.305-26.218-14.912-26.218-14.912s-23.092,3.607-26.219,14.912
				c-3.127,11.306-0.721,24.294,2.646,34.397c3.367,10.102,10.102,22.609,23.572,27.421c13.469-4.812,20.205-17.319,23.572-27.421
				C141.412,100.216,143.817,87.228,140.69,75.922z"/>
			<path opacity="0.2" d="M118.439,61.822c6.572,9.612,19.786,36.258-0.934,74.646c11.465-5.486,17.435-16.838,20.539-26.149
				c3.367-10.104,5.772-23.092,2.646-34.397C138.381,67.572,125.183,63.423,118.439,61.822z"/>
			<path opacity="0.2" d="M172.2,179.111c-2.35-27.804-26.374-38.712-35.229-41.808c8.628,11.13,26.088,36.775,21.667,57.116
				C168.343,186.694,172.2,179.111,172.2,179.111z"/>
		</g>
	</g>
</g>
</svg>
