<?xml version="1.0" encoding="utf-8"?>
<!-- Generator: Adobe Illustrator 16.0.0, SVG Export Plug-In . SVG Version: 6.00 Build 0)  -->
<!DOCTYPE svg PUBLIC "-//W3C//DTD SVG 1.1//EN" "http://www.w3.org/Graphics/SVG/1.1/DTD/svg11.dtd">
<svg version="1.1" id="Capa_1" xmlns="http://www.w3.org/2000/svg" xmlns:xlink="http://www.w3.org/1999/xlink" x="0px" y="0px"
	 width="24.936px" height="24.149px" viewBox="0 0 24.936 24.149" enable-background="new 0 0 24.936 24.149" xml:space="preserve">
<path fill="#FFFFFF" d="M21.602,11.742l-8.459-6.979c-0.391-0.323-0.957-0.323-1.349,0l-8.459,6.979
	c-0.245,0.201-0.386,0.501-0.386,0.816v10.531c0,0.584,0.475,1.06,1.059,1.06h16.92c0.584,0,1.06-0.476,1.06-1.06V12.558
	C21.988,12.243,21.846,11.943,21.602,11.742 M13.588,22.03h-2.24v-5.866h2.24V22.03z M19.869,22.03h-4.161v-6.925
	c0-0.586-0.475-1.059-1.06-1.059h-4.359c-0.585,0-1.059,0.473-1.059,1.059v6.925H5.068v-8.972l7.401-6.104l7.4,6.104V22.03z"/>
<path fill="#FFFFFF" d="M24.54,9.617c-2.359-1.891-4.585-3.698-7.001-5.687c-0.722-0.649-1.479-1.263-2.215-1.857
	c-0.718-0.582-1.461-1.183-2.147-1.801c-0.403-0.362-1.014-0.362-1.417,0c-0.686,0.618-1.429,1.219-2.147,1.801
	C8.879,2.667,8.12,3.28,7.398,3.93c-2.416,1.989-4.641,3.796-7,5.687c-0.457,0.366-0.531,1.033-0.165,1.489
	c0.365,0.457,1.033,0.531,1.489,0.165C4.095,9.37,6.333,7.551,8.763,5.55c0.012-0.01,0.024-0.02,0.036-0.03
	c0.685-0.618,1.428-1.219,2.147-1.801c0.503-0.407,1.016-0.823,1.523-1.254c0.505,0.431,1.02,0.847,1.523,1.254
	c0.718,0.582,1.461,1.183,2.147,1.801c0.012,0.01,0.022,0.02,0.035,0.03c2.431,2.001,4.666,3.819,7.041,5.72
	c0.195,0.156,0.43,0.233,0.662,0.233c0.309,0,0.617-0.136,0.826-0.398C25.07,10.649,24.996,9.982,24.54,9.617"/>
</svg>
