<?xml version="1.0" encoding="utf-8"?>
<!-- Generator: Adobe Illustrator 16.0.0, SVG Export Plug-In . SVG Version: 6.00 Build 0)  -->
<!DOCTYPE svg PUBLIC "-//W3C//DTD SVG 1.1//EN" "http://www.w3.org/Graphics/SVG/1.1/DTD/svg11.dtd">
<svg version="1.1" id="Capa_1" xmlns="http://www.w3.org/2000/svg" xmlns:xlink="http://www.w3.org/1999/xlink" x="0px" y="0px"
	 width="233.61px" height="125.645px" viewBox="0 0 233.61 125.645" enable-background="new 0 0 233.61 125.645"
	 xml:space="preserve">
<g>
	<path fill-rule="evenodd" clip-rule="evenodd" fill="#FFFFFF" d="M116.805,0.54C73.391,0.54,33.137,14.049,0,37.086v88.558h233.61
		v-88.56C200.475,14.049,160.221,0.54,116.805,0.54"/>
	<path fill-rule="evenodd" clip-rule="evenodd" d="M115.969,31.258c4.531,0,8.225,3.719,8.225,8.275s-3.693,8.271-8.225,8.271
		s-8.228-3.715-8.228-8.271S111.438,31.258,115.969,31.258"/>
	<path fill-rule="evenodd" clip-rule="evenodd" d="M86.008,57.961v0.031l-0.039,0.305c0,0.426,0.241,0.742,0.727,0.953
		c0.488,0.207,1.242,0.311,2.261,0.311c0.776,0,1.383-0.088,1.824-0.256c0.442-0.172,0.663-0.404,0.663-0.705
		c0-0.453-0.875-0.814-2.615-1.1c-0.203-0.033-0.355-0.057-0.454-0.072c-0.112-0.021-0.276-0.049-0.489-0.082
		c-2.765-0.453-4.545-0.943-5.33-1.473c-0.383-0.26-0.676-0.562-0.873-0.914c-0.19-0.354-0.289-0.752-0.289-1.189
		c0-1.082,0.635-1.904,1.905-2.471c1.271-0.564,3.13-0.848,5.578-0.848c2.419,0,4.211,0.264,5.376,0.793
		C95.416,51.778,96,52.594,96,53.694v0.127h-4.581V53.77c0-0.381-0.228-0.664-0.692-0.857c-0.465-0.195-1.145-0.295-2.039-0.295
		c-0.693,0-1.23,0.068-1.603,0.207c-0.379,0.139-0.567,0.34-0.567,0.594c0,0.459,0.998,0.846,2.996,1.17
		c0.383,0.057,0.687,0.105,0.904,0.139c1.424,0.238,2.438,0.443,3.039,0.613c0.604,0.17,1.123,0.373,1.562,0.605
		c0.484,0.266,0.867,0.605,1.129,1.012c0.265,0.408,0.397,0.852,0.397,1.34c0,1.113-0.694,1.969-2.077,2.57
		c-1.384,0.602-3.379,0.9-5.977,0.9c-2.569,0-4.43-0.289-5.58-0.863c-1.15-0.58-1.719-1.504-1.719-2.781v-0.162H86.008z
		 M98.557,61.584V50.618h13.058v2.363h-8.155v1.748H111v2.334h-7.541v2.127h8.465v2.395H98.557z M113.971,61.584V50.618h6.205
		l6.641,7.357v-7.357h4.711v10.967h-6.436l-6.426-7.385v7.385H113.971z M144.195,57.211l-2.348-3.986l-2.479,3.986H144.195z
		 M136.725,61.584h-4.916l7.59-10.967h5.439l7.24,10.967h-5.46l-1.104-1.98h-7.607L136.725,61.584z"/>
	<path fill-rule="evenodd" clip-rule="evenodd" d="M92.037,100.248l-4.381-4.115L100.99,72.99c0.727-1.262-0.183-2.84-1.64-2.84
		H77.522v-5.789h35.134L92.037,100.248z"/>
	<path fill-rule="evenodd" clip-rule="evenodd" d="M139.519,100.248l4.38-4.115L130.564,72.99c-0.727-1.262,0.184-2.84,1.641-2.84
		h21.828v-5.789h-35.134L139.519,100.248z"/>
	<path fill-rule="evenodd" clip-rule="evenodd" d="M115.73,70.48l0.047-0.082l19.797,32.725l-5.256,2.734l-12.758-21.365
		c-0.751-1.258-2.574-1.26-3.322,0c-4.252,7.168-12.674,21.365-12.674,21.365l-5.146-2.545
		C96.419,103.312,114.673,72.279,115.73,70.48"/>
	<g>
		<path fill="#002549" d="M118.899,0.135C72.314-1.962,10.358,20.959,1.139,24.485C0.541,24.711,0.131,25.231,0,25.838v11.83
			c0-0.617,0.303-1.199,0.812-1.549C33.793,13.426,73.744,0.135,116.805,0.135c0.851,0,1.697,0.014,2.543,0.023
			C119.197,0.151,119.053,0.141,118.899,0.135"/>
		<path fill="#002549" d="M114.419,0.135c46.585-2.098,108.541,20.824,117.761,24.35c0.598,0.227,1.008,0.746,1.139,1.354v11.83
			c0-0.617-0.303-1.199-0.812-1.549c-32.98-22.693-72.932-35.984-115.992-35.984c-0.851,0-1.697,0.014-2.543,0.023
			C114.121,0.151,114.266,0.141,114.419,0.135"/>
	</g>
</g>
</svg>
