<?xml version="1.0" encoding="utf-8"?>
<!-- Generator: Adobe Illustrator 16.0.0, SVG Export Plug-In . SVG Version: 6.00 Build 0)  -->
<!DOCTYPE svg PUBLIC "-//W3C//DTD SVG 1.1//EN" "http://www.w3.org/Graphics/SVG/1.1/DTD/svg11.dtd">
<svg version="1.1" id="Capa_1" xmlns="http://www.w3.org/2000/svg" xmlns:xlink="http://www.w3.org/1999/xlink" x="0px" y="0px"
	 width="154.914px" height="74.254px" viewBox="0 0 154.914 74.254" enable-background="new 0 0 154.914 74.254"
	 xml:space="preserve">
<g>
	<g opacity="0.5">
		<g>
			<g>
				<g>
					<defs>
						<rect id="SVGID_1_" width="154.914" height="74.254"/>
					</defs>
					<clipPath id="SVGID_2_">
						<use xlink:href="#SVGID_1_"  overflow="visible"/>
					</clipPath>
					<g clip-path="url(#SVGID_2_)">
						<rect fill="#FFFFFF" width="154.914" height="74.254"/>
					</g>
				</g>
			</g>
		</g>
	</g>
	<g>
		<rect width="154.914" height="48.154"/>
	</g>
	<g enable-background="new    ">
		<path d="M18.748,65.331v-7.874h2.379l1.429,5.371l1.413-5.371h2.385v7.874h-1.477v-6.198l-1.563,6.198h-1.531l-1.558-6.198v6.198
			H18.748z"/>
		<path d="M35.033,65.331h-1.729l-0.688-1.789h-3.147l-0.65,1.789h-1.687l3.067-7.874h1.681L35.033,65.331z M32.106,62.216
			l-1.085-2.922l-1.063,2.922H32.106z"/>
	</g>
	<g enable-background="new    ">
		<path d="M35.876,65.331v-7.874h2.551c0.967,0,1.597,0.039,1.891,0.118c0.451,0.118,0.829,0.375,1.133,0.771
			s0.457,0.907,0.457,1.534c0,0.482-0.088,0.89-0.263,1.219s-0.398,0.588-0.668,0.776c-0.271,0.188-0.545,0.313-0.825,0.373
			c-0.379,0.075-0.929,0.112-1.649,0.112h-1.037v2.971H35.876z M37.466,58.789v2.234h0.87c0.626,0,1.045-0.041,1.257-0.124
			c0.211-0.082,0.377-0.211,0.497-0.387c0.12-0.175,0.18-0.379,0.18-0.611c0-0.287-0.084-0.523-0.252-0.709
			c-0.168-0.187-0.381-0.303-0.639-0.35c-0.19-0.036-0.571-0.054-1.144-0.054H37.466z"/>
	</g>
	<g enable-background="new    ">
		<path d="M49.5,65.331h-1.729l-0.688-1.789h-3.147l-0.65,1.789h-1.687l3.067-7.874h1.681L49.5,65.331z M46.573,62.216l-1.085-2.922
			l-1.063,2.922H46.573z"/>
	</g>
	<g enable-background="new    ">
		<path d="M52.987,57.457h2.906c0.655,0,1.155,0.05,1.499,0.15c0.462,0.136,0.857,0.378,1.187,0.726
			c0.33,0.347,0.58,0.772,0.752,1.275s0.258,1.123,0.258,1.861c0,0.647-0.081,1.206-0.242,1.676
			c-0.197,0.572-0.478,1.036-0.843,1.391c-0.276,0.269-0.648,0.479-1.117,0.629c-0.351,0.11-0.82,0.166-1.407,0.166h-2.992V57.457z
			 M54.577,58.789v5.216h1.187c0.444,0,0.765-0.025,0.961-0.076c0.258-0.064,0.472-0.173,0.642-0.327
			c0.17-0.154,0.309-0.407,0.417-0.76s0.161-0.834,0.161-1.442s-0.054-1.076-0.161-1.402c-0.107-0.325-0.258-0.58-0.451-0.762
			c-0.193-0.184-0.438-0.307-0.736-0.371c-0.222-0.05-0.657-0.075-1.305-0.075H54.577z"/>
		<path d="M60.937,65.331v-7.874h5.838v1.332h-4.249v1.745h3.953v1.327h-3.953v2.144h4.399v1.326H60.937z"/>
		<path d="M76.368,62.437l1.542,0.488c-0.236,0.859-0.629,1.498-1.179,1.915c-0.55,0.417-1.247,0.626-2.092,0.626
			c-1.045,0-1.905-0.357-2.578-1.072c-0.673-0.714-1.01-1.69-1.01-2.93c0-1.311,0.338-2.328,1.015-3.054
			c0.677-0.725,1.566-1.087,2.669-1.087c0.963,0,1.746,0.284,2.347,0.854c0.358,0.337,0.626,0.82,0.806,1.45l-1.574,0.376
			c-0.093-0.408-0.288-0.73-0.583-0.967c-0.296-0.236-0.655-0.354-1.077-0.354c-0.583,0-1.057,0.21-1.421,0.628
			c-0.363,0.42-0.545,1.098-0.545,2.036c0,0.995,0.179,1.704,0.537,2.127s0.824,0.634,1.396,0.634c0.422,0,0.786-0.135,1.09-0.402
			C76.017,63.435,76.235,63.013,76.368,62.437z"/>
		<path d="M78.951,61.442c0-0.802,0.12-1.476,0.359-2.02c0.18-0.401,0.424-0.761,0.734-1.08c0.309-0.318,0.648-0.555,1.018-0.709
			c0.49-0.207,1.056-0.311,1.697-0.311c1.16,0,2.088,0.359,2.785,1.079c0.695,0.72,1.044,1.721,1.044,3.003
			c0,1.271-0.346,2.266-1.036,2.983c-0.691,0.718-1.615,1.077-2.771,1.077c-1.172,0-2.103-0.357-2.793-1.072
			C79.297,63.68,78.951,62.695,78.951,61.442z M80.59,61.389c0,0.892,0.205,1.567,0.617,2.027s0.935,0.69,1.568,0.69
			s1.154-0.229,1.561-0.685c0.406-0.457,0.609-1.142,0.609-2.055c0-0.902-0.197-1.575-0.594-2.02
			c-0.396-0.444-0.921-0.666-1.576-0.666s-1.184,0.225-1.584,0.674C80.79,59.805,80.59,60.482,80.59,61.389z"/>
		<path d="M87.846,65.331v-7.874h1.547l3.223,5.259v-5.259h1.477v7.874h-1.595l-3.175-5.135v5.135H87.846z"/>
		<path d="M97.546,65.331v-6.542h-2.337v-1.332h6.258v1.332h-2.331v6.542H97.546z"/>
		<path d="M102.492,65.331v-7.874h5.839v1.332h-4.249v1.745h3.953v1.327h-3.953v2.144h4.399v1.326H102.492z"/>
		<path d="M109.846,65.331v-7.874h1.547l3.223,5.259v-5.259h1.477v7.874h-1.595l-3.175-5.135v5.135H109.846z"/>
		<path d="M117.725,65.331v-7.874h1.59v7.874H117.725z"/>
		<path d="M120.824,57.457h2.906c0.654,0,1.154,0.05,1.498,0.15c0.462,0.136,0.857,0.378,1.188,0.726
			c0.329,0.347,0.58,0.772,0.752,1.275s0.258,1.123,0.258,1.861c0,0.647-0.081,1.206-0.242,1.676
			c-0.197,0.572-0.479,1.036-0.844,1.391c-0.275,0.269-0.647,0.479-1.117,0.629c-0.351,0.11-0.819,0.166-1.406,0.166h-2.992V57.457z
			 M122.414,58.789v5.216h1.188c0.443,0,0.764-0.025,0.961-0.076c0.258-0.064,0.472-0.173,0.642-0.327
			c0.171-0.154,0.31-0.407,0.417-0.76s0.16-0.834,0.16-1.442s-0.053-1.076-0.16-1.402c-0.107-0.325-0.258-0.58-0.451-0.762
			c-0.193-0.184-0.439-0.307-0.736-0.371c-0.223-0.05-0.657-0.075-1.305-0.075H122.414z"/>
		<path d="M128.451,61.442c0-0.802,0.12-1.476,0.359-2.02c0.18-0.401,0.424-0.761,0.734-1.08c0.309-0.318,0.648-0.555,1.018-0.709
			c0.49-0.207,1.056-0.311,1.697-0.311c1.16,0,2.088,0.359,2.785,1.079c0.695,0.72,1.044,1.721,1.044,3.003
			c0,1.271-0.346,2.266-1.036,2.983c-0.691,0.718-1.615,1.077-2.771,1.077c-1.172,0-2.103-0.357-2.793-1.072
			C128.797,63.68,128.451,62.695,128.451,61.442z M130.09,61.389c0,0.892,0.205,1.567,0.617,2.027s0.935,0.69,1.568,0.69
			s1.154-0.229,1.561-0.685c0.406-0.457,0.609-1.142,0.609-2.055c0-0.902-0.197-1.575-0.594-2.02
			c-0.396-0.444-0.921-0.666-1.576-0.666s-1.184,0.225-1.584,0.674C130.29,59.805,130.09,60.482,130.09,61.389z"/>
	</g>
	<g>
		<path fill="#FFFFFF" d="M73.677,7.621v10.152c0,0.622,0.503,1.125,1.125,1.125h3.95v3.055H63.66c-0.621,0-1.125,0.503-1.125,1.125
			v4.015h-3.95c-0.622,0-1.125,0.503-1.125,1.125v10.153c0,0.621,0.503,1.125,1.125,1.125h10.152c0.621,0,1.124-0.504,1.124-1.125
			V28.218c0-0.622-0.503-1.125-1.124-1.125h-3.961v-2.899h13.966v2.899h-3.95c-0.622,0-1.125,0.503-1.125,1.125v10.153
			c0,0.621,0.503,1.125,1.125,1.125h10.151c0.623,0,1.125-0.504,1.125-1.125V28.218c0-0.622-0.502-1.125-1.125-1.125h-3.951v-2.899
			H94.96v2.899h-3.951c-0.62,0-1.125,0.503-1.125,1.125v10.153c0,0.621,0.505,1.125,1.125,1.125h10.151
			c0.622,0,1.125-0.504,1.125-1.125V28.218c0-0.622-0.503-1.125-1.125-1.125h-3.95v-4.015c0-0.622-0.503-1.125-1.125-1.125H80.992
			v-3.055h3.951c0.623,0,1.125-0.503,1.125-1.125V7.621c0-0.623-0.502-1.125-1.125-1.125H74.792
			C74.18,6.496,73.677,6.998,73.677,7.621 M67.613,37.236h-7.902v-7.911h7.902V37.236z M83.82,37.236h-7.912v-7.911h7.912V37.236z
			 M100.027,37.236h-7.903v-7.911h7.912v7.911H100.027z M75.917,8.737h7.911v7.911h-7.911V8.737z"/>
	</g>
</g>
</svg>
