<?xml version="1.0" encoding="utf-8"?>
<!-- Generator: Adobe Illustrator 16.0.0, SVG Export Plug-In . SVG Version: 6.00 Build 0)  -->
<!DOCTYPE svg PUBLIC "-//W3C//DTD SVG 1.1//EN" "http://www.w3.org/Graphics/SVG/1.1/DTD/svg11.dtd">
<svg version="1.1" id="Capa_1" xmlns="http://www.w3.org/2000/svg" xmlns:xlink="http://www.w3.org/1999/xlink" x="0px" y="0px"
	 width="233.32px" height="44.603px" viewBox="0 0 233.32 44.603" enable-background="new 0 0 233.32 44.603" xml:space="preserve">
<g opacity="0.5">
	<rect x="39.055" fill="#FFFFFF" width="181.751" height="1"/>
</g>
<g opacity="0.5">
	<rect x="39.055" y="43.603" fill="#FFFFFF" width="181.751" height="1"/>
</g>
<g>
	<path fill="#FFFFFF" d="M47.852,15.24V5.936h6.729v1.098h-5.497v2.852h5.148v1.092h-5.148v3.166h5.713v1.1h-6.945V15.24z"/>
	<path fill="#FFFFFF" d="M58.224,15.24L55.66,8.5h1.206l1.447,4.037c0.157,0.436,0.3,0.889,0.432,1.357
		c0.102-0.354,0.243-0.783,0.425-1.281L60.667,8.5h1.174l-2.552,6.74H58.224z"/>
	<path fill="#FFFFFF" d="M62.858,7.25V5.936H64V7.25H62.858z M62.858,15.24V8.5H64v6.74H62.858z"/>
	<path fill="#FFFFFF" d="M70.113,15.24v-0.85c-0.427,0.668-1.056,1.002-1.885,1.002c-0.538,0-1.031-0.148-1.482-0.443
		c-0.45-0.297-0.8-0.711-1.047-1.24c-0.248-0.531-0.372-1.143-0.372-1.832c0-0.674,0.112-1.283,0.336-1.83
		c0.224-0.549,0.561-0.969,1.009-1.262c0.449-0.291,0.95-0.438,1.504-0.438c0.406,0,0.768,0.086,1.085,0.256
		c0.317,0.172,0.576,0.396,0.774,0.67V5.936h1.136v9.305H70.113L70.113,15.24z M66.5,11.877c0,0.863,0.182,1.51,0.546,1.936
		c0.364,0.428,0.793,0.643,1.289,0.643c0.5,0,0.923-0.203,1.273-0.611c0.349-0.408,0.523-1.031,0.523-1.869
		c0-0.924-0.178-1.6-0.533-2.031s-0.793-0.648-1.314-0.648c-0.508,0-0.932,0.209-1.273,0.623C66.672,10.33,66.5,10.984,66.5,11.877z
		"/>
	<path fill="#FFFFFF" d="M77.583,13.07l1.181,0.146c-0.186,0.688-0.531,1.225-1.035,1.604c-0.504,0.381-1.147,0.572-1.93,0.572
		c-0.986,0-1.768-0.305-2.345-0.912c-0.578-0.605-0.867-1.459-0.867-2.555c0-1.133,0.292-2.016,0.876-2.641
		c0.584-0.627,1.341-0.939,2.272-0.939c0.901,0,1.638,0.307,2.209,0.92c0.571,0.615,0.857,1.479,0.857,2.59
		c0,0.068-0.002,0.17-0.006,0.305h-5.027c0.042,0.742,0.252,1.311,0.628,1.701c0.376,0.396,0.846,0.592,1.409,0.592
		c0.419,0,0.776-0.109,1.073-0.33C77.176,13.902,77.411,13.553,77.583,13.07z M73.833,11.223h3.764
		c-0.051-0.566-0.195-0.992-0.432-1.275c-0.364-0.439-0.836-0.66-1.416-0.66c-0.525,0-0.966,0.178-1.324,0.527
		C74.069,10.166,73.871,10.635,73.833,11.223z"/>
	<path fill="#FFFFFF" d="M80.2,15.24V8.5h1.028v0.959c0.495-0.74,1.21-1.111,2.146-1.111c0.406,0,0.78,0.074,1.12,0.219
		c0.341,0.146,0.596,0.338,0.765,0.574c0.169,0.238,0.288,0.52,0.355,0.846c0.042,0.211,0.063,0.582,0.063,1.109v4.146h-1.143
		v-4.102c0-0.465-0.044-0.813-0.133-1.043c-0.089-0.232-0.247-0.416-0.473-0.553c-0.227-0.139-0.492-0.207-0.797-0.207
		c-0.487,0-0.907,0.154-1.26,0.463c-0.354,0.311-0.53,0.896-0.53,1.76v3.682H80.2V15.24z"/>
	<path fill="#FFFFFF" d="M91.828,12.771l1.124,0.146c-0.123,0.773-0.437,1.381-0.943,1.818c-0.505,0.438-1.126,0.656-1.863,0.656
		c-0.922,0-1.664-0.301-2.225-0.904s-0.841-1.467-0.841-2.592c0-0.729,0.121-1.365,0.362-1.912c0.241-0.545,0.608-0.955,1.101-1.229
		c0.493-0.271,1.03-0.408,1.609-0.408c0.732,0,1.331,0.186,1.796,0.555c0.465,0.371,0.764,0.896,0.895,1.578l-1.111,0.172
		c-0.106-0.453-0.293-0.795-0.562-1.021c-0.269-0.23-0.593-0.344-0.974-0.344c-0.576,0-1.043,0.205-1.403,0.619
		c-0.36,0.412-0.54,1.064-0.54,1.957c0,0.906,0.173,1.564,0.521,1.975c0.347,0.412,0.8,0.615,1.358,0.615
		c0.449,0,0.823-0.137,1.124-0.412C91.557,13.768,91.748,13.344,91.828,12.771z"/>
	<path fill="#FFFFFF" d="M93.936,7.25V5.936h1.143V7.25H93.936z M93.936,15.24V8.5h1.143v6.74H93.936z"/>
	<path fill="#FFFFFF" d="M101.217,14.41c-0.423,0.359-0.831,0.613-1.222,0.762c-0.391,0.146-0.811,0.223-1.26,0.223
		c-0.741,0-1.31-0.182-1.708-0.543s-0.597-0.824-0.597-1.387c0-0.33,0.075-0.633,0.225-0.904c0.15-0.273,0.347-0.492,0.591-0.658
		c0.243-0.164,0.517-0.289,0.822-0.375c0.224-0.059,0.563-0.115,1.016-0.17c0.922-0.111,1.602-0.242,2.038-0.395
		c0.004-0.156,0.006-0.256,0.006-0.299c0-0.465-0.108-0.793-0.324-0.982c-0.292-0.258-0.726-0.389-1.301-0.389
		c-0.538,0-0.934,0.096-1.19,0.283c-0.256,0.188-0.446,0.521-0.568,1l-1.117-0.152c0.102-0.479,0.269-0.865,0.501-1.158
		c0.232-0.295,0.569-0.521,1.009-0.68s0.95-0.238,1.53-0.238c0.576,0,1.043,0.068,1.403,0.203c0.36,0.137,0.624,0.307,0.793,0.512
		s0.288,0.465,0.355,0.777c0.038,0.193,0.057,0.545,0.057,1.053v1.523c0,1.063,0.024,1.734,0.073,2.016
		c0.048,0.281,0.145,0.553,0.289,0.811h-1.193C101.326,15.004,101.25,14.727,101.217,14.41z M101.121,11.857
		c-0.415,0.17-1.037,0.314-1.866,0.434c-0.47,0.066-0.802,0.145-0.997,0.229c-0.195,0.084-0.345,0.209-0.451,0.371
		c-0.106,0.164-0.159,0.344-0.159,0.543c0,0.305,0.115,0.559,0.346,0.762c0.23,0.203,0.568,0.305,1.012,0.305
		c0.44,0,0.832-0.096,1.174-0.287c0.342-0.193,0.595-0.457,0.755-0.791c0.123-0.26,0.184-0.641,0.184-1.143v-0.422H101.121z"/>
	<path fill="#FFFFFF" d="M103.591,13.229l1.13-0.178c0.063,0.453,0.24,0.801,0.53,1.041c0.29,0.242,0.695,0.361,1.216,0.361
		c0.525,0,0.914-0.105,1.168-0.318c0.254-0.215,0.381-0.465,0.381-0.754c0-0.258-0.112-0.461-0.336-0.609
		c-0.157-0.102-0.546-0.229-1.168-0.387c-0.838-0.211-1.418-0.395-1.743-0.549c-0.323-0.154-0.569-0.367-0.736-0.643
		c-0.167-0.271-0.25-0.574-0.25-0.902c0-0.303,0.069-0.58,0.207-0.836c0.137-0.256,0.325-0.469,0.562-0.639
		c0.178-0.131,0.42-0.242,0.727-0.332c0.307-0.092,0.636-0.137,0.987-0.137c0.529,0,0.993,0.076,1.394,0.229
		c0.399,0.152,0.695,0.357,0.885,0.619c0.19,0.26,0.322,0.607,0.394,1.043l-1.117,0.152c-0.051-0.346-0.198-0.617-0.441-0.813
		c-0.244-0.193-0.587-0.293-1.032-0.293c-0.525,0-0.899,0.088-1.124,0.262c-0.224,0.174-0.336,0.377-0.336,0.607
		c0,0.148,0.046,0.283,0.14,0.4c0.093,0.123,0.239,0.225,0.438,0.305c0.114,0.043,0.451,0.141,1.009,0.293
		c0.808,0.215,1.372,0.393,1.692,0.529c0.319,0.139,0.57,0.338,0.752,0.6c0.182,0.264,0.273,0.588,0.273,0.979
		c0,0.381-0.111,0.74-0.333,1.076c-0.222,0.336-0.542,0.598-0.961,0.779c-0.419,0.186-0.893,0.277-1.422,0.277
		c-0.876,0-1.543-0.182-2.002-0.547C104.011,14.484,103.718,13.943,103.591,13.229z"/>
	<path fill="#FFFFFF" d="M118.533,15.24v-0.85c-0.427,0.668-1.057,1.002-1.885,1.002c-0.538,0-1.031-0.148-1.482-0.443
		c-0.45-0.297-0.8-0.711-1.047-1.24c-0.248-0.531-0.372-1.143-0.372-1.832c0-0.674,0.112-1.283,0.336-1.83
		c0.224-0.549,0.561-0.969,1.009-1.262c0.449-0.291,0.95-0.438,1.504-0.438c0.406,0,0.768,0.086,1.085,0.256
		c0.316,0.172,0.576,0.396,0.773,0.67V5.936h1.137v9.305H118.533L118.533,15.24z M114.921,11.877c0,0.863,0.182,1.51,0.546,1.936
		c0.364,0.428,0.793,0.643,1.289,0.643c0.5,0,0.923-0.203,1.273-0.611c0.349-0.408,0.523-1.031,0.523-1.869
		c0-0.924-0.179-1.6-0.533-2.031c-0.355-0.432-0.793-0.648-1.314-0.648c-0.508,0-0.932,0.209-1.273,0.623
		C115.092,10.33,114.921,10.984,114.921,11.877z"/>
	<path fill="#FFFFFF" d="M126.003,13.07l1.182,0.146c-0.187,0.688-0.531,1.225-1.035,1.604c-0.504,0.381-1.147,0.572-1.93,0.572
		c-0.986,0-1.769-0.305-2.346-0.912c-0.578-0.605-0.867-1.459-0.867-2.555c0-1.133,0.293-2.016,0.877-2.641
		c0.584-0.627,1.34-0.939,2.271-0.939c0.9,0,1.638,0.307,2.209,0.92c0.57,0.615,0.857,1.479,0.857,2.59
		c0,0.068-0.002,0.17-0.006,0.305h-5.027c0.042,0.742,0.252,1.311,0.628,1.701c0.376,0.396,0.846,0.592,1.409,0.592
		c0.418,0,0.775-0.109,1.072-0.33S125.831,13.553,126.003,13.07z M122.252,11.223h3.765c-0.051-0.566-0.195-0.992-0.433-1.275
		c-0.364-0.439-0.836-0.66-1.416-0.66c-0.524,0-0.966,0.178-1.323,0.527C122.489,10.166,122.291,10.635,122.252,11.223z"/>
	<path fill="#FFFFFF" d="M132.231,17.824V8.5h1.04v0.877c0.246-0.344,0.522-0.602,0.832-0.771c0.31-0.172,0.685-0.258,1.123-0.258
		c0.576,0,1.084,0.148,1.523,0.445c0.439,0.295,0.771,0.713,0.996,1.254c0.225,0.539,0.337,1.131,0.337,1.773
		c0,0.689-0.124,1.311-0.372,1.861c-0.246,0.553-0.605,0.977-1.078,1.27c-0.473,0.295-0.969,0.441-1.488,0.441
		c-0.381,0-0.723-0.08-1.024-0.24c-0.302-0.162-0.551-0.365-0.746-0.609v3.281H132.231z M133.265,11.908
		c0,0.867,0.177,1.51,0.526,1.924c0.351,0.414,0.776,0.621,1.276,0.621c0.508,0,0.941-0.215,1.305-0.645
		c0.361-0.43,0.542-1.094,0.542-1.996c0-0.859-0.177-1.502-0.53-1.93c-0.353-0.428-0.774-0.643-1.266-0.643
		c-0.486,0-0.918,0.229-1.293,0.684C133.454,10.381,133.265,11.041,133.265,11.908z"/>
	<path fill="#FFFFFF" d="M139.448,15.24V8.5h1.028v1.021c0.263-0.479,0.505-0.793,0.728-0.945c0.224-0.152,0.468-0.229,0.731-0.229
		c0.387,0,0.777,0.123,1.176,0.367l-0.395,1.061c-0.279-0.164-0.559-0.248-0.838-0.248c-0.25,0-0.475,0.076-0.673,0.227
		s-0.341,0.357-0.425,0.625c-0.127,0.406-0.191,0.852-0.191,1.334v3.527H139.448z"/>
	<path fill="#FFFFFF" d="M143.365,11.871c0-1.248,0.348-2.174,1.041-2.773c0.579-0.5,1.286-0.75,2.12-0.75
		c0.927,0,1.684,0.305,2.272,0.912c0.588,0.605,0.881,1.445,0.881,2.516c0,0.867-0.129,1.551-0.391,2.047
		c-0.26,0.498-0.639,0.885-1.135,1.158c-0.498,0.275-1.041,0.414-1.629,0.414c-0.943,0-1.707-0.303-2.289-0.908
		C143.656,13.881,143.365,13.01,143.365,11.871z M144.54,11.871c0,0.863,0.188,1.51,0.563,1.938c0.377,0.43,0.852,0.645,1.423,0.645
		c0.565,0,1.039-0.215,1.416-0.646c0.376-0.432,0.563-1.09,0.563-1.975c0-0.832-0.188-1.465-0.568-1.895
		c-0.379-0.43-0.85-0.645-1.411-0.645c-0.571,0-1.045,0.213-1.423,0.641C144.726,10.361,144.54,11.008,144.54,11.871z"/>
	<path fill="#FFFFFF" d="M155.392,15.24v-0.85c-0.426,0.668-1.055,1.002-1.885,1.002c-0.537,0-1.031-0.148-1.481-0.443
		c-0.451-0.297-0.8-0.711-1.048-1.24c-0.247-0.531-0.37-1.143-0.37-1.832c0-0.674,0.11-1.283,0.336-1.83
		c0.225-0.549,0.562-0.969,1.01-1.262c0.448-0.291,0.949-0.438,1.504-0.438c0.406,0,0.769,0.086,1.086,0.256
		c0.316,0.172,0.575,0.396,0.773,0.67V5.936h1.137v9.305H155.392L155.392,15.24z M151.782,11.877c0,0.863,0.183,1.51,0.546,1.936
		c0.364,0.428,0.794,0.643,1.288,0.643c0.5,0,0.924-0.203,1.272-0.611c0.35-0.408,0.523-1.031,0.523-1.869
		c0-0.924-0.178-1.6-0.533-2.031c-0.354-0.432-0.793-0.648-1.313-0.648c-0.509,0-0.933,0.209-1.271,0.623
		C151.952,10.33,151.782,10.984,151.782,11.877z"/>
	<path fill="#FFFFFF" d="M162.668,15.24v-0.988c-0.524,0.762-1.237,1.143-2.14,1.143c-0.396,0-0.77-0.076-1.114-0.229
		s-0.601-0.346-0.769-0.574c-0.168-0.23-0.284-0.516-0.353-0.85c-0.046-0.225-0.069-0.58-0.069-1.064V8.5h1.144v3.738
		c0,0.598,0.022,0.998,0.069,1.207c0.07,0.299,0.224,0.535,0.457,0.707c0.232,0.172,0.521,0.258,0.863,0.258
		c0.342,0,0.664-0.088,0.965-0.264c0.3-0.176,0.513-0.416,0.638-0.719s0.188-0.74,0.188-1.316V8.5h1.143v6.74H162.668z"/>
	<path fill="#FFFFFF" d="M169.88,12.771l1.122,0.146c-0.122,0.773-0.438,1.381-0.942,1.818c-0.506,0.438-1.127,0.656-1.862,0.656
		c-0.923,0-1.664-0.301-2.226-0.904s-0.84-1.467-0.84-2.592c0-0.729,0.119-1.365,0.36-1.912c0.241-0.545,0.608-0.955,1.103-1.229
		c0.492-0.271,1.028-0.408,1.608-0.408c0.731,0,1.33,0.186,1.796,0.555c0.467,0.371,0.764,0.896,0.896,1.578l-1.111,0.172
		c-0.105-0.453-0.293-0.795-0.563-1.021c-0.269-0.23-0.594-0.344-0.975-0.344c-0.574,0-1.043,0.205-1.402,0.619
		c-0.359,0.412-0.539,1.064-0.539,1.957c0,0.906,0.174,1.564,0.521,1.975c0.347,0.412,0.8,0.615,1.358,0.615
		c0.449,0,0.822-0.137,1.123-0.412C169.608,13.768,169.798,13.344,169.88,12.771z"/>
	<path fill="#FFFFFF" d="M174.474,14.219l0.164,1.01c-0.32,0.068-0.608,0.104-0.862,0.104c-0.414,0-0.736-0.066-0.966-0.197
		c-0.229-0.131-0.389-0.303-0.481-0.518s-0.139-0.664-0.139-1.35V9.389h-0.839V8.5h0.839V6.83l1.136-0.686V8.5h1.148v0.889h-1.148
		v3.939c0,0.326,0.021,0.537,0.061,0.631c0.041,0.092,0.105,0.166,0.196,0.223c0.093,0.055,0.222,0.082,0.392,0.082
		C174.099,14.264,174.267,14.25,174.474,14.219z"/>
	<path fill="#FFFFFF" d="M175.167,11.871c0-1.248,0.349-2.174,1.041-2.773c0.58-0.5,1.287-0.75,2.12-0.75
		c0.928,0,1.686,0.305,2.271,0.912c0.588,0.605,0.884,1.445,0.884,2.516c0,0.867-0.132,1.551-0.392,2.047
		c-0.26,0.498-0.639,0.885-1.137,1.158c-0.497,0.275-1.039,0.414-1.628,0.414c-0.944,0-1.706-0.303-2.288-0.908
		C175.458,13.881,175.167,13.01,175.167,11.871z M176.341,11.871c0,0.863,0.188,1.51,0.564,1.938
		c0.376,0.43,0.852,0.645,1.422,0.645c0.566,0,1.039-0.215,1.415-0.646c0.377-0.432,0.565-1.09,0.565-1.975
		c0-0.832-0.189-1.465-0.567-1.895c-0.379-0.43-0.851-0.645-1.413-0.645c-0.57,0-1.046,0.213-1.422,0.641
		S176.341,11.008,176.341,11.871z"/>
	<path fill="#FFFFFF" d="M183.12,15.24v-1.301h1.302v1.301c0,0.48-0.084,0.865-0.254,1.158c-0.169,0.295-0.438,0.521-0.806,0.684
		l-0.318-0.488c0.242-0.105,0.421-0.262,0.533-0.467c0.115-0.205,0.179-0.5,0.19-0.887H183.12z"/>
	<path fill="#FFFFFF" d="M194.418,15.24v-0.85c-0.427,0.668-1.055,1.002-1.885,1.002c-0.537,0-1.031-0.148-1.481-0.443
		c-0.451-0.297-0.799-0.711-1.047-1.24c-0.248-0.531-0.371-1.143-0.371-1.832c0-0.674,0.11-1.283,0.336-1.83
		c0.225-0.549,0.561-0.969,1.01-1.262c0.447-0.291,0.949-0.438,1.504-0.438c0.406,0,0.768,0.086,1.086,0.256
		c0.316,0.172,0.574,0.396,0.773,0.67V5.936h1.137v9.305H194.418L194.418,15.24z M190.806,11.877c0,0.863,0.183,1.51,0.547,1.936
		c0.363,0.428,0.794,0.643,1.287,0.643c0.5,0,0.925-0.203,1.273-0.611c0.35-0.408,0.523-1.031,0.523-1.869
		c0-0.924-0.178-1.6-0.533-2.031s-0.793-0.648-1.314-0.648c-0.508,0-0.932,0.209-1.271,0.623
		C190.976,10.33,190.806,10.984,190.806,11.877z"/>
	<path fill="#FFFFFF" d="M201.89,13.07l1.181,0.146c-0.187,0.688-0.531,1.225-1.035,1.604c-0.503,0.381-1.146,0.572-1.93,0.572
		c-0.985,0-1.769-0.305-2.347-0.912c-0.576-0.605-0.865-1.459-0.865-2.555c0-1.133,0.291-2.016,0.875-2.641
		c0.584-0.627,1.343-0.939,2.273-0.939c0.9,0,1.637,0.307,2.209,0.92c0.57,0.615,0.856,1.479,0.856,2.59
		c0,0.068-0.002,0.17-0.007,0.305h-5.027c0.043,0.742,0.252,1.311,0.629,1.701c0.377,0.396,0.846,0.592,1.409,0.592
		c0.419,0,0.776-0.109,1.073-0.33C201.482,13.904,201.718,13.553,201.89,13.07z M198.138,11.223h3.765
		c-0.052-0.566-0.195-0.992-0.433-1.275c-0.362-0.439-0.836-0.66-1.416-0.66c-0.523,0-0.965,0.178-1.321,0.527
		C198.375,10.166,198.177,10.635,198.138,11.223z"/>
	<path fill="#FFFFFF" d="M52.054,30.841V29.99c-0.427,0.67-1.056,1.004-1.885,1.004c-0.538,0-1.032-0.148-1.482-0.443
		c-0.451-0.297-0.8-0.711-1.048-1.242c-0.247-0.531-0.371-1.141-0.371-1.83c0-0.674,0.112-1.283,0.336-1.832
		c0.224-0.547,0.561-0.969,1.009-1.26c0.449-0.293,0.95-0.438,1.504-0.438c0.406,0,0.768,0.086,1.085,0.258s0.576,0.395,0.774,0.67
		v-3.34h1.136v9.307h-1.058V30.841z M48.442,27.478c0,0.863,0.182,1.508,0.546,1.938c0.364,0.426,0.793,0.641,1.289,0.641
		c0.5,0,0.924-0.205,1.272-0.613c0.35-0.408,0.524-1.031,0.524-1.869c0-0.922-0.178-1.6-0.533-2.031s-0.793-0.646-1.314-0.646
		c-0.508,0-0.932,0.207-1.272,0.621C48.613,25.931,48.442,26.585,48.442,27.478z"/>
	<path fill="#FFFFFF" d="M59.525,28.671l1.181,0.145c-0.186,0.691-0.531,1.227-1.035,1.607c-0.504,0.379-1.147,0.57-1.93,0.57
		c-0.986,0-1.768-0.305-2.346-0.91c-0.577-0.607-0.866-1.459-0.866-2.557c0-1.133,0.292-2.014,0.876-2.641
		c0.584-0.625,1.341-0.939,2.272-0.939c0.901,0,1.638,0.309,2.209,0.922s0.857,1.477,0.857,2.59c0,0.066-0.002,0.17-0.006,0.305
		h-5.027c0.042,0.74,0.252,1.307,0.628,1.701c0.376,0.393,0.846,0.59,1.409,0.59c0.419,0,0.776-0.109,1.073-0.33
		C59.117,29.505,59.352,29.152,59.525,28.671z M55.774,26.824h3.764c-0.051-0.566-0.195-0.992-0.432-1.275
		c-0.364-0.441-0.836-0.66-1.416-0.66c-0.525,0-0.966,0.176-1.323,0.525C56.01,25.765,55.812,26.234,55.774,26.824z"/>
	<path fill="#FFFFFF" d="M61.683,28.83l1.13-0.178c0.063,0.451,0.24,0.799,0.53,1.041c0.29,0.24,0.695,0.361,1.216,0.361
		c0.525,0,0.914-0.107,1.168-0.32c0.254-0.215,0.381-0.465,0.381-0.752c0-0.26-0.112-0.463-0.336-0.609
		c-0.157-0.102-0.546-0.23-1.168-0.389c-0.838-0.211-1.418-0.395-1.743-0.549c-0.323-0.154-0.569-0.367-0.736-0.641
		s-0.25-0.574-0.25-0.904c0-0.301,0.069-0.58,0.207-0.836c0.137-0.256,0.325-0.469,0.562-0.637c0.178-0.133,0.42-0.242,0.727-0.334
		s0.636-0.137,0.987-0.137c0.529,0,0.993,0.076,1.394,0.229c0.399,0.152,0.695,0.357,0.885,0.619c0.19,0.26,0.322,0.607,0.394,1.045
		l-1.117,0.15c-0.051-0.346-0.198-0.617-0.441-0.813c-0.244-0.193-0.587-0.291-1.032-0.291c-0.525,0-0.899,0.086-1.124,0.26
		c-0.224,0.174-0.336,0.377-0.336,0.609c0,0.146,0.046,0.281,0.14,0.398c0.093,0.123,0.239,0.227,0.438,0.307
		c0.114,0.041,0.451,0.139,1.009,0.291c0.808,0.217,1.372,0.393,1.692,0.529c0.319,0.139,0.57,0.338,0.752,0.602
		c0.182,0.262,0.273,0.588,0.273,0.977c0,0.381-0.111,0.74-0.333,1.076s-0.542,0.598-0.961,0.781s-0.893,0.275-1.422,0.275
		c-0.876,0-1.543-0.182-2.002-0.547C62.103,30.083,61.81,29.544,61.683,28.83z"/>
	<path fill="#FFFFFF" d="M73.255,28.671l1.181,0.145c-0.186,0.691-0.531,1.227-1.035,1.607c-0.504,0.379-1.147,0.57-1.93,0.57
		c-0.986,0-1.768-0.305-2.345-0.91c-0.578-0.607-0.867-1.459-0.867-2.557c0-1.133,0.292-2.014,0.876-2.641
		c0.584-0.625,1.341-0.939,2.272-0.939c0.901,0,1.638,0.309,2.209,0.922s0.857,1.477,0.857,2.59c0,0.066-0.002,0.17-0.006,0.305
		H69.44c0.042,0.74,0.252,1.307,0.628,1.701c0.376,0.393,0.846,0.59,1.409,0.59c0.419,0,0.776-0.109,1.073-0.33
		C72.847,29.505,73.082,29.152,73.255,28.671z M69.504,26.824h3.764c-0.051-0.566-0.195-0.992-0.432-1.275
		c-0.364-0.441-0.836-0.66-1.416-0.66c-0.525,0-0.966,0.176-1.324,0.525C69.74,25.765,69.542,26.234,69.504,26.824z"/>
	<path fill="#FFFFFF" d="M75.87,30.841v-6.74h1.022v0.945c0.211-0.33,0.493-0.596,0.844-0.797s0.751-0.303,1.2-0.303
		c0.5,0,0.909,0.105,1.228,0.313c0.32,0.207,0.545,0.498,0.676,0.869c0.533-0.787,1.227-1.182,2.082-1.182
		c0.668,0,1.183,0.188,1.542,0.557c0.359,0.371,0.54,0.939,0.54,1.711v4.627h-1.136v-4.246c0-0.457-0.037-0.785-0.111-0.986
		c-0.074-0.201-0.208-0.363-0.403-0.484c-0.195-0.123-0.423-0.186-0.686-0.186c-0.474,0-0.868,0.156-1.181,0.473
		s-0.47,0.82-0.47,1.516v3.916h-1.143v-4.381c0-0.508-0.093-0.889-0.279-1.143s-0.491-0.381-0.914-0.381
		c-0.322,0-0.619,0.084-0.892,0.254c-0.272,0.168-0.471,0.416-0.593,0.742c-0.123,0.326-0.184,0.795-0.184,1.408v3.498H75.87z"/>
	<path fill="#FFFFFF" d="M86.7,33.425v-9.324h1.041v0.875c0.246-0.342,0.522-0.6,0.832-0.77c0.309-0.172,0.684-0.258,1.124-0.258
		c0.576,0,1.083,0.148,1.523,0.443c0.44,0.297,0.772,0.715,0.997,1.254c0.224,0.539,0.336,1.131,0.336,1.773
		c0,0.689-0.124,1.313-0.371,1.863c-0.248,0.553-0.607,0.977-1.079,1.27c-0.472,0.295-0.968,0.441-1.489,0.441
		c-0.381,0-0.723-0.08-1.025-0.24c-0.303-0.162-0.551-0.365-0.746-0.609v3.281H86.7L86.7,33.425z M87.734,27.509
		c0,0.867,0.176,1.508,0.527,1.924c0.351,0.414,0.776,0.621,1.276,0.621c0.508,0,0.943-0.215,1.304-0.645
		c0.362-0.43,0.543-1.096,0.543-1.996c0-0.859-0.177-1.502-0.53-1.93s-0.775-0.641-1.266-0.641c-0.487,0-0.917,0.227-1.292,0.682
		S87.734,26.642,87.734,27.509z"/>
	<path fill="#FFFFFF" d="M98.543,28.671l1.181,0.145c-0.186,0.691-0.531,1.227-1.035,1.607c-0.504,0.379-1.147,0.57-1.93,0.57
		c-0.986,0-1.768-0.305-2.345-0.91c-0.578-0.607-0.867-1.459-0.867-2.557c0-1.133,0.292-2.014,0.876-2.641
		c0.584-0.625,1.341-0.939,2.272-0.939c0.901,0,1.638,0.309,2.209,0.922c0.571,0.613,0.857,1.477,0.857,2.59
		c0,0.066-0.002,0.17-0.006,0.305h-5.027c0.042,0.74,0.252,1.307,0.628,1.701c0.376,0.393,0.846,0.59,1.409,0.59
		c0.419,0,0.776-0.109,1.073-0.33C98.136,29.505,98.371,29.152,98.543,28.671z M94.792,26.824h3.764
		c-0.051-0.566-0.195-0.992-0.432-1.275c-0.364-0.441-0.836-0.66-1.416-0.66c-0.525,0-0.966,0.176-1.324,0.525
		C95.029,25.765,94.831,26.234,94.792,26.824z"/>
	<path fill="#FFFFFF" d="M101.159,30.841v-6.74h1.028v0.957c0.495-0.74,1.21-1.109,2.146-1.109c0.406,0,0.78,0.072,1.12,0.219
		c0.341,0.146,0.596,0.338,0.765,0.574s0.288,0.52,0.355,0.846c0.042,0.211,0.063,0.582,0.063,1.109v4.146h-1.143v-4.102
		c0-0.467-0.044-0.813-0.133-1.045c-0.089-0.23-0.247-0.414-0.473-0.553c-0.227-0.137-0.492-0.205-0.797-0.205
		c-0.487,0-0.907,0.154-1.26,0.463c-0.354,0.311-0.53,0.896-0.53,1.758v3.684h-1.141V30.841z M101.966,23.103
		c-0.004-0.438,0.116-0.791,0.362-1.053c0.241-0.264,0.55-0.395,0.927-0.395c0.262,0,0.62,0.115,1.073,0.344
		c0.25,0.127,0.449,0.189,0.597,0.189c0.135,0,0.239-0.037,0.311-0.111c0.072-0.072,0.123-0.221,0.152-0.439h0.825
		c-0.013,0.48-0.134,0.844-0.365,1.084c-0.23,0.242-0.523,0.363-0.879,0.363c-0.267,0-0.618-0.119-1.054-0.355
		c-0.284-0.152-0.491-0.229-0.622-0.229c-0.144,0-0.26,0.051-0.349,0.15c-0.093,0.104-0.138,0.252-0.133,0.451H101.966
		L101.966,23.103z"/>
	<path fill="#FFFFFF" d="M107.964,27.47c0-1.248,0.347-2.172,1.041-2.773c0.58-0.498,1.287-0.748,2.12-0.748
		c0.927,0,1.684,0.305,2.272,0.91c0.588,0.607,0.882,1.447,0.882,2.518c0,0.867-0.13,1.551-0.39,2.047
		c-0.261,0.498-0.639,0.885-1.137,1.16c-0.497,0.273-1.04,0.41-1.628,0.41c-0.944,0-1.707-0.303-2.288-0.906
		C108.255,29.482,107.964,28.609,107.964,27.47z M109.138,27.47c0,0.863,0.188,1.51,0.565,1.939s0.851,0.645,1.422,0.645
		c0.567,0,1.039-0.215,1.416-0.646s0.565-1.09,0.565-1.975c0-0.834-0.189-1.465-0.568-1.896c-0.378-0.43-0.849-0.643-1.412-0.643
		c-0.571,0-1.045,0.213-1.422,0.641S109.138,26.607,109.138,27.47z"/>
	<path fill="#FFFFFF" d="M119.179,33.437l-0.127-1.072c0.25,0.068,0.469,0.104,0.654,0.104c0.254,0,0.457-0.043,0.609-0.127
		c0.152-0.086,0.277-0.203,0.375-0.355c0.072-0.113,0.188-0.396,0.349-0.852c0.021-0.063,0.056-0.156,0.103-0.279l-2.559-6.754
		h1.231l1.403,3.904c0.182,0.496,0.344,1.016,0.488,1.563c0.131-0.525,0.288-1.037,0.471-1.537l1.44-3.93h1.144l-2.564,6.855
		c-0.275,0.74-0.489,1.252-0.641,1.529c-0.203,0.377-0.437,0.652-0.698,0.828c-0.263,0.176-0.576,0.264-0.939,0.264
		C119.697,33.578,119.451,33.531,119.179,33.437z"/>
	<path fill="#FFFFFF" d="M133.716,30.841V29.99c-0.427,0.67-1.056,1.004-1.886,1.004c-0.537,0-1.03-0.148-1.481-0.443
		c-0.45-0.297-0.801-0.711-1.047-1.242c-0.248-0.531-0.373-1.141-0.373-1.83c0-0.674,0.112-1.283,0.336-1.832
		c0.225-0.547,0.562-0.969,1.01-1.26c0.449-0.293,0.949-0.438,1.504-0.438c0.406,0,0.77,0.086,1.086,0.258s0.576,0.395,0.773,0.67
		v-3.34h1.137v9.307h-1.059V30.841z M130.105,27.478c0,0.863,0.182,1.508,0.546,1.938c0.364,0.426,0.793,0.641,1.289,0.641
		c0.499,0,0.923-0.205,1.272-0.613c0.348-0.408,0.522-1.031,0.522-1.869c0-0.922-0.179-1.6-0.533-2.031s-0.793-0.646-1.313-0.646
		c-0.508,0-0.933,0.207-1.272,0.621C130.275,25.931,130.105,26.585,130.105,27.478z"/>
	<path fill="#FFFFFF" d="M141.187,28.671l1.181,0.145c-0.187,0.691-0.53,1.227-1.034,1.607c-0.503,0.379-1.146,0.57-1.93,0.57
		c-0.985,0-1.77-0.305-2.346-0.91c-0.577-0.607-0.866-1.459-0.866-2.557c0-1.133,0.292-2.014,0.876-2.641
		c0.584-0.625,1.341-0.939,2.271-0.939c0.901,0,1.639,0.309,2.209,0.922c0.571,0.613,0.857,1.477,0.857,2.59
		c0,0.066-0.002,0.17-0.007,0.305h-5.027c0.042,0.74,0.252,1.307,0.628,1.701c0.377,0.393,0.848,0.59,1.41,0.59
		c0.418,0,0.775-0.109,1.072-0.33C140.779,29.505,141.013,29.152,141.187,28.671z M137.435,26.824h3.765
		c-0.051-0.566-0.194-0.992-0.433-1.275c-0.362-0.441-0.836-0.66-1.414-0.66c-0.524,0-0.967,0.176-1.323,0.525
		C137.673,25.765,137.474,26.234,137.435,26.824z"/>
	<path fill="#FFFFFF" d="M151.812,28.373l1.125,0.146c-0.122,0.773-0.438,1.381-0.942,1.818c-0.506,0.438-1.127,0.656-1.862,0.656
		c-0.923,0-1.664-0.303-2.226-0.904c-0.562-0.604-0.842-1.469-0.842-2.594c0-0.729,0.12-1.363,0.362-1.91
		c0.24-0.545,0.607-0.955,1.101-1.229c0.493-0.271,1.03-0.41,1.608-0.41c0.732,0,1.332,0.188,1.797,0.557
		c0.466,0.371,0.765,0.896,0.896,1.576l-1.11,0.172c-0.105-0.451-0.293-0.793-0.562-1.021c-0.271-0.229-0.595-0.342-0.976-0.342
		c-0.575,0-1.043,0.205-1.401,0.619c-0.36,0.412-0.54,1.064-0.54,1.957c0,0.904,0.173,1.563,0.521,1.975
		c0.348,0.41,0.799,0.615,1.357,0.615c0.448,0,0.823-0.137,1.124-0.412C151.542,29.367,151.733,28.943,151.812,28.373z"/>
	<path fill="#FFFFFF" d="M153.489,27.47c0-1.248,0.349-2.172,1.041-2.773c0.58-0.498,1.287-0.748,2.121-0.748
		c0.926,0,1.684,0.305,2.271,0.91c0.59,0.607,0.883,1.447,0.883,2.518c0,0.867-0.131,1.551-0.391,2.047
		c-0.26,0.498-0.639,0.885-1.137,1.16c-0.496,0.273-1.039,0.41-1.627,0.41c-0.944,0-1.707-0.303-2.289-0.906
		C153.78,29.482,153.489,28.609,153.489,27.47z M154.664,27.47c0,0.863,0.188,1.51,0.564,1.939s0.851,0.645,1.423,0.645
		c0.565,0,1.039-0.215,1.415-0.646s0.564-1.09,0.564-1.975c0-0.834-0.188-1.465-0.568-1.896c-0.379-0.43-0.85-0.643-1.411-0.643
		c-0.572,0-1.046,0.213-1.423,0.641S154.664,26.607,154.664,27.47z"/>
	<path fill="#FFFFFF" d="M161.144,30.841v-6.74h1.027v0.957c0.496-0.74,1.211-1.109,2.146-1.109c0.406,0,0.779,0.072,1.119,0.219
		c0.342,0.146,0.596,0.338,0.766,0.574s0.287,0.52,0.355,0.846c0.043,0.211,0.063,0.582,0.063,1.109v4.146h-1.143v-4.102
		c0-0.467-0.045-0.813-0.135-1.045c-0.088-0.229-0.246-0.414-0.473-0.553c-0.227-0.137-0.492-0.205-0.797-0.205
		c-0.486,0-0.906,0.154-1.26,0.463c-0.354,0.311-0.529,0.896-0.529,1.758v3.684h-1.141V30.841z"/>
	<path fill="#FFFFFF" d="M167.95,27.47c0-1.248,0.347-2.172,1.041-2.773c0.579-0.498,1.286-0.748,2.119-0.748
		c0.928,0,1.685,0.305,2.272,0.91c0.588,0.607,0.883,1.447,0.883,2.518c0,0.867-0.131,1.551-0.391,2.047
		c-0.262,0.498-0.64,0.885-1.137,1.16c-0.498,0.273-1.04,0.41-1.629,0.41c-0.943,0-1.706-0.303-2.287-0.906
		C168.241,29.482,167.95,28.609,167.95,27.47z M169.124,27.47c0,0.863,0.188,1.51,0.563,1.939c0.378,0.43,0.853,0.645,1.423,0.645
		c0.567,0,1.039-0.215,1.416-0.646s0.563-1.09,0.563-1.975c0-0.834-0.188-1.465-0.568-1.896c-0.377-0.43-0.848-0.643-1.411-0.643
		c-0.57,0-1.045,0.213-1.423,0.641C169.312,25.962,169.124,26.607,169.124,27.47z"/>
	<path fill="#FFFFFF" d="M180.003,28.373l1.124,0.146c-0.122,0.773-0.438,1.381-0.942,1.818c-0.506,0.438-1.127,0.656-1.863,0.656
		c-0.922,0-1.664-0.303-2.225-0.904c-0.562-0.604-0.842-1.469-0.842-2.594c0-0.729,0.12-1.363,0.362-1.91
		c0.24-0.545,0.606-0.955,1.103-1.229c0.491-0.271,1.028-0.41,1.607-0.41c0.73,0,1.331,0.188,1.796,0.557
		c0.466,0.371,0.765,0.896,0.896,1.576l-1.109,0.172c-0.105-0.451-0.293-0.793-0.563-1.021s-0.595-0.342-0.976-0.342
		c-0.575,0-1.043,0.205-1.401,0.619c-0.359,0.412-0.539,1.064-0.539,1.957c0,0.904,0.172,1.563,0.52,1.975
		c0.348,0.41,0.801,0.615,1.359,0.615c0.447,0,0.822-0.137,1.123-0.412C179.733,29.367,179.923,28.943,180.003,28.373z"/>
	<path fill="#FFFFFF" d="M182.111,22.849v-1.313h1.143v1.313H182.111z M182.111,30.841v-6.74h1.143v6.74H182.111z"/>
	<path fill="#FFFFFF" d="M184.993,30.841v-6.74h1.021v0.945c0.213-0.33,0.494-0.596,0.846-0.797
		c0.351-0.201,0.751-0.303,1.199-0.303c0.5,0,0.908,0.105,1.229,0.313c0.318,0.207,0.544,0.498,0.677,0.869
		c0.532-0.787,1.227-1.182,2.082-1.182c0.668,0,1.182,0.188,1.541,0.557c0.36,0.371,0.54,0.939,0.54,1.711v4.627h-1.137v-4.246
		c0-0.457-0.037-0.785-0.11-0.986c-0.074-0.201-0.209-0.363-0.402-0.484c-0.195-0.123-0.424-0.186-0.687-0.186
		c-0.475,0-0.868,0.156-1.182,0.473c-0.313,0.314-0.47,0.82-0.47,1.516v3.916h-1.143v-4.381c0-0.508-0.094-0.889-0.279-1.143
		c-0.187-0.254-0.49-0.381-0.914-0.381c-0.321,0-0.619,0.084-0.893,0.254c-0.273,0.168-0.471,0.416-0.594,0.742
		c-0.122,0.326-0.184,0.795-0.184,1.408v3.498H184.993z"/>
	<path fill="#FFFFFF" d="M195.829,22.849v-1.313h1.144v1.313H195.829z M195.829,30.841v-6.74h1.144v6.74H195.829z"/>
	<path fill="#FFFFFF" d="M203.325,28.671l1.181,0.145c-0.187,0.691-0.531,1.227-1.033,1.607c-0.504,0.381-1.147,0.57-1.931,0.57
		c-0.985,0-1.768-0.305-2.346-0.91c-0.578-0.607-0.867-1.459-0.867-2.557c0-1.133,0.293-2.014,0.877-2.641
		c0.584-0.625,1.341-0.939,2.271-0.939c0.902,0,1.64,0.309,2.209,0.922c0.572,0.613,0.857,1.477,0.857,2.59
		c0,0.066-0.002,0.17-0.006,0.305h-5.027c0.043,0.74,0.252,1.307,0.629,1.701c0.375,0.393,0.847,0.59,1.408,0.59
		c0.42,0,0.776-0.109,1.072-0.33C202.917,29.505,203.151,29.152,203.325,28.671z M199.573,26.824h3.765
		c-0.051-0.566-0.193-0.992-0.432-1.275c-0.364-0.441-0.836-0.66-1.415-0.66c-0.524,0-0.967,0.176-1.324,0.525
		C199.808,25.765,199.612,26.234,199.573,26.824z"/>
	<path fill="#FFFFFF" d="M205.94,30.841v-6.74h1.028v0.957c0.494-0.74,1.209-1.109,2.146-1.109c0.405,0,0.778,0.072,1.121,0.219
		c0.34,0.146,0.595,0.338,0.764,0.574c0.17,0.236,0.288,0.52,0.354,0.846c0.043,0.211,0.064,0.582,0.064,1.109v4.146h-1.143v-4.102
		c0-0.467-0.045-0.813-0.135-1.045c-0.088-0.23-0.246-0.414-0.474-0.553c-0.226-0.137-0.491-0.205-0.796-0.205
		c-0.486,0-0.906,0.154-1.261,0.463c-0.353,0.311-0.529,0.896-0.529,1.758v3.684h-1.141V30.841z"/>
	<path fill="#FFFFFF" d="M215.665,29.82l0.165,1.008c-0.32,0.068-0.609,0.104-0.863,0.104c-0.414,0-0.735-0.066-0.965-0.197
		c-0.229-0.131-0.39-0.303-0.482-0.518c-0.092-0.213-0.139-0.664-0.139-1.35v-3.879h-0.839v-0.889h0.839v-1.668l1.137-0.688v2.355
		h1.147v0.889h-1.147v3.941c0,0.326,0.02,0.535,0.061,0.629c0.039,0.092,0.105,0.166,0.195,0.221
		c0.092,0.057,0.222,0.084,0.391,0.084C215.29,29.863,215.458,29.849,215.665,29.82z"/>
	<path fill="#FFFFFF" d="M216.356,27.47c0-1.248,0.348-2.172,1.04-2.773c0.58-0.498,1.287-0.748,2.121-0.748
		c0.927,0,1.685,0.305,2.271,0.91c0.589,0.607,0.883,1.447,0.883,2.518c0,0.867-0.131,1.551-0.391,2.047
		c-0.26,0.498-0.639,0.885-1.137,1.16c-0.496,0.273-1.039,0.41-1.627,0.41c-0.944,0-1.707-0.303-2.289-0.906
		C216.646,29.482,216.356,28.609,216.356,27.47z M217.531,27.47c0,0.863,0.188,1.51,0.564,1.939s0.851,0.645,1.422,0.645
		c0.566,0,1.039-0.215,1.416-0.646c0.375-0.432,0.564-1.09,0.564-1.975c0-0.834-0.189-1.465-0.568-1.896
		c-0.379-0.43-0.85-0.643-1.412-0.643c-0.571,0-1.045,0.213-1.422,0.641C217.72,25.962,217.531,26.607,217.531,27.47z"/>
	<g>
		<path fill="#FFFFFF" d="M30.785,23.066c-2.712,0-4.918-2.207-4.918-4.917c0-2.713,2.207-4.918,4.918-4.918
			s4.918,2.205,4.918,4.918C35.703,20.859,33.497,23.066,30.785,23.066z M30.785,14.23c-2.161,0-3.918,1.758-3.918,3.918
			c0,2.16,1.758,3.917,3.918,3.917s3.918-1.758,3.918-3.917C34.703,15.988,32.946,14.23,30.785,14.23z"/>
	</g>
</g>
</svg>
