<?xml version="1.0" encoding="utf-8"?>
<!-- Generator: Adobe Illustrator 16.0.0, SVG Export Plug-In . SVG Version: 6.00 Build 0)  -->
<!DOCTYPE svg PUBLIC "-//W3C//DTD SVG 1.1//EN" "http://www.w3.org/Graphics/SVG/1.1/DTD/svg11.dtd">
<svg version="1.1" id="Capa_1" xmlns="http://www.w3.org/2000/svg" xmlns:xlink="http://www.w3.org/1999/xlink" x="0px" y="0px"
	 width="233.319px" height="36.36px" viewBox="0 0 233.319 36.36" enable-background="new 0 0 233.319 36.36" xml:space="preserve">
<g opacity="0.5">
	<rect x="39.171" y="35.36" fill="#FFFFFF" width="181.751" height="1"/>
</g>
<g opacity="0.5">
	<rect x="39.171" fill="#FFFFFF" width="181.751" height="1"/>
</g>
<path fill="#FFFFFF" d="M51.006,11.847l1.231,0.311c-0.258,1.011-0.723,1.783-1.394,2.314c-0.67,0.531-1.49,0.796-2.459,0.796
	c-1.003,0-1.819-0.204-2.447-0.613c-0.629-0.408-1.107-1-1.435-1.774s-0.492-1.606-0.492-2.495c0-0.969,0.185-1.814,0.556-2.536
	c0.37-0.721,0.897-1.27,1.58-1.644c0.685-0.374,1.437-0.561,2.258-0.561c0.931,0,1.714,0.237,2.349,0.711
	c0.635,0.474,1.077,1.141,1.327,2l-1.212,0.286c-0.216-0.677-0.529-1.17-0.939-1.479C49.52,6.854,49.002,6.7,48.38,6.7
	c-0.715,0-1.313,0.171-1.793,0.514c-0.48,0.343-0.818,0.803-1.013,1.381c-0.195,0.577-0.292,1.173-0.292,1.787
	c0,0.792,0.115,1.482,0.346,2.073c0.231,0.59,0.589,1.031,1.076,1.323c0.487,0.292,1.014,0.438,1.581,0.438
	c0.69,0,1.274-0.199,1.752-0.597S50.837,12.629,51.006,11.847z"/>
<path fill="#FFFFFF" d="M53.185,11.739c0-1.249,0.347-2.173,1.041-2.774c0.58-0.5,1.287-0.749,2.12-0.749
	c0.927,0,1.684,0.304,2.272,0.911c0.588,0.607,0.882,1.446,0.882,2.517c0,0.868-0.13,1.55-0.39,2.047
	c-0.261,0.498-0.639,0.884-1.137,1.159c-0.497,0.275-1.04,0.413-1.628,0.413c-0.944,0-1.707-0.303-2.288-0.908
	C53.476,13.749,53.185,12.877,53.185,11.739z M54.358,11.739c0,0.863,0.188,1.51,0.565,1.939c0.376,0.43,0.851,0.645,1.422,0.645
	c0.567,0,1.039-0.216,1.416-0.646c0.377-0.431,0.565-1.09,0.565-1.974c0-0.833-0.189-1.465-0.568-1.895
	c-0.378-0.429-0.849-0.644-1.412-0.644c-0.571,0-1.045,0.214-1.422,0.641C54.547,10.231,54.358,10.875,54.358,11.739z"/>
<path fill="#FFFFFF" d="M60.839,15.109V8.368h1.022v0.946c0.211-0.33,0.493-0.596,0.844-0.796c0.351-0.201,0.751-0.302,1.2-0.302
	c0.5,0,0.909,0.104,1.229,0.311c0.319,0.208,0.544,0.497,0.676,0.87c0.533-0.787,1.227-1.181,2.082-1.181
	c0.668,0,1.183,0.185,1.542,0.556c0.36,0.37,0.54,0.94,0.54,1.71v4.627h-1.136v-4.246c0-0.457-0.037-0.786-0.111-0.987
	c-0.074-0.201-0.208-0.363-0.403-0.486c-0.195-0.123-0.423-0.184-0.686-0.184c-0.474,0-0.868,0.158-1.181,0.473
	c-0.313,0.315-0.47,0.82-0.47,1.514v3.917h-1.143v-4.38c0-0.508-0.093-0.889-0.279-1.143s-0.491-0.381-0.914-0.381
	c-0.322,0-0.619,0.084-0.892,0.254c-0.273,0.169-0.471,0.417-0.594,0.743c-0.123,0.326-0.184,0.795-0.184,1.409v3.498L60.839,15.109
	L60.839,15.109z"/>
<path fill="#FFFFFF" d="M71.668,17.693V8.368h1.041v0.876c0.246-0.343,0.522-0.6,0.832-0.771c0.309-0.171,0.684-0.257,1.124-0.257
	c0.576,0,1.083,0.148,1.523,0.444c0.44,0.296,0.772,0.714,0.997,1.254c0.224,0.539,0.336,1.131,0.336,1.774
	c0,0.69-0.124,1.311-0.372,1.863c-0.247,0.553-0.607,0.976-1.079,1.27c-0.472,0.294-0.968,0.441-1.488,0.441
	c-0.381,0-0.723-0.081-1.025-0.241c-0.302-0.161-0.551-0.364-0.746-0.609v3.282L71.668,17.693L71.668,17.693z M72.704,11.777
	c0,0.868,0.176,1.509,0.527,1.923c0.351,0.414,0.776,0.622,1.276,0.622c0.508,0,0.942-0.215,1.305-0.645
	c0.361-0.429,0.542-1.095,0.542-1.996c0-0.859-0.177-1.502-0.53-1.93c-0.354-0.427-0.776-0.641-1.267-0.641
	c-0.487,0-0.917,0.228-1.292,0.682C72.891,10.248,72.704,10.909,72.704,11.777z"/>
<path fill="#FFFFFF" d="M78.474,11.739c0-1.249,0.347-2.173,1.041-2.774c0.58-0.5,1.287-0.749,2.12-0.749
	c0.927,0,1.684,0.304,2.272,0.911s0.882,1.446,0.882,2.517c0,0.868-0.13,1.55-0.39,2.047c-0.261,0.498-0.639,0.884-1.137,1.159
	c-0.497,0.275-1.04,0.413-1.628,0.413c-0.944,0-1.707-0.303-2.288-0.908C78.765,13.749,78.474,12.877,78.474,11.739z M79.647,11.739
	c0,0.863,0.188,1.51,0.565,1.939c0.376,0.43,0.851,0.645,1.422,0.645c0.567,0,1.039-0.216,1.416-0.646
	c0.377-0.431,0.565-1.09,0.565-1.974c0-0.833-0.189-1.465-0.568-1.895c-0.378-0.429-0.849-0.644-1.412-0.644
	c-0.571,0-1.045,0.214-1.422,0.641C79.836,10.231,79.647,10.875,79.647,11.739z"/>
<path fill="#FFFFFF" d="M86.115,15.109V8.368h1.028V9.39c0.262-0.478,0.504-0.793,0.727-0.946c0.222-0.152,0.466-0.229,0.733-0.229
	c0.385,0,0.776,0.123,1.174,0.368l-0.394,1.06c-0.279-0.165-0.559-0.248-0.838-0.248c-0.25,0-0.474,0.075-0.673,0.226
	c-0.199,0.15-0.341,0.358-0.425,0.625c-0.127,0.406-0.19,0.851-0.19,1.333v3.529L86.115,15.109L86.115,15.109z"/>
<path fill="#FFFFFF" d="M92.952,14.087l0.165,1.009c-0.322,0.068-0.609,0.102-0.863,0.102c-0.415,0-0.736-0.065-0.965-0.197
	s-0.389-0.304-0.482-0.517c-0.093-0.214-0.14-0.664-0.14-1.349V9.257H89.83V8.368h0.838V6.699l1.136-0.686v2.355h1.149v0.889h-1.149
	v3.942c0,0.326,0.02,0.535,0.06,0.628c0.041,0.093,0.106,0.167,0.197,0.222c0.091,0.055,0.221,0.083,0.39,0.083
	C92.577,14.132,92.744,14.117,92.952,14.087z"/>
<path fill="#FFFFFF" d="M98.468,14.278c-0.423,0.36-0.831,0.614-1.222,0.762c-0.392,0.148-0.812,0.222-1.26,0.222
	c-0.741,0-1.31-0.181-1.708-0.543c-0.398-0.361-0.597-0.824-0.597-1.387c0-0.33,0.075-0.632,0.226-0.904
	c0.15-0.273,0.347-0.492,0.59-0.657c0.244-0.165,0.518-0.29,0.822-0.375c0.224-0.059,0.563-0.116,1.016-0.171
	c0.922-0.11,1.602-0.241,2.038-0.394c0.004-0.157,0.006-0.256,0.006-0.298c0-0.465-0.108-0.793-0.324-0.984
	c-0.292-0.258-0.726-0.387-1.301-0.387c-0.538,0-0.934,0.094-1.19,0.283c-0.256,0.188-0.445,0.521-0.568,1l-1.117-0.152
	c0.102-0.478,0.269-0.864,0.501-1.159c0.233-0.294,0.569-0.521,1.009-0.679c0.44-0.159,0.95-0.238,1.53-0.238
	c0.576,0,1.043,0.068,1.403,0.203c0.36,0.135,0.624,0.306,0.793,0.511c0.169,0.206,0.288,0.465,0.355,0.778
	c0.038,0.195,0.057,0.546,0.057,1.054v1.522c0,1.062,0.024,1.734,0.073,2.015c0.049,0.282,0.145,0.551,0.289,0.81h-1.193
	C98.579,14.873,98.502,14.595,98.468,14.278z M98.374,11.726c-0.415,0.169-1.037,0.313-1.866,0.432
	c-0.47,0.068-0.802,0.144-0.997,0.229c-0.195,0.085-0.345,0.208-0.451,0.372c-0.106,0.163-0.159,0.344-0.159,0.542
	c0,0.305,0.115,0.559,0.346,0.762s0.568,0.305,1.013,0.305c0.44,0,0.832-0.096,1.174-0.289c0.343-0.193,0.595-0.456,0.755-0.791
	c0.123-0.259,0.185-0.64,0.185-1.143V11.726z"/>
<path fill="#FFFFFF" d="M101.299,15.109V8.368h1.022v0.946c0.211-0.33,0.493-0.596,0.844-0.796c0.351-0.201,0.751-0.302,1.2-0.302
	c0.5,0,0.909,0.104,1.229,0.311c0.319,0.208,0.544,0.497,0.676,0.87c0.533-0.787,1.227-1.181,2.082-1.181
	c0.668,0,1.183,0.185,1.542,0.556c0.36,0.37,0.54,0.94,0.54,1.71v4.627h-1.136v-4.246c0-0.457-0.037-0.786-0.111-0.987
	c-0.075-0.201-0.209-0.363-0.404-0.486c-0.195-0.123-0.423-0.184-0.686-0.184c-0.474,0-0.868,0.158-1.181,0.473
	c-0.313,0.315-0.47,0.82-0.47,1.514v3.917h-1.143v-4.38c0-0.508-0.093-0.889-0.279-1.143s-0.491-0.381-0.914-0.381
	c-0.322,0-0.619,0.084-0.892,0.254c-0.273,0.169-0.471,0.417-0.594,0.743c-0.123,0.326-0.184,0.795-0.184,1.409v3.498
	L101.299,15.109L101.299,15.109z"/>
<path fill="#FFFFFF" d="M112.134,7.118V5.804h1.143v1.314H112.134z M112.134,15.109V8.368h1.143v6.741H112.134z"/>
<path fill="#FFFFFF" d="M119.631,12.938l1.181,0.146c-0.186,0.69-0.531,1.225-1.035,1.606s-1.147,0.571-1.93,0.571
	c-0.986,0-1.768-0.304-2.345-0.911c-0.578-0.607-0.867-1.458-0.867-2.555c0-1.134,0.292-2.014,0.876-2.641s1.341-0.939,2.272-0.939
	c0.901,0,1.638,0.307,2.209,0.92c0.571,0.613,0.857,1.477,0.857,2.59c0,0.068-0.002,0.169-0.006,0.305h-5.027
	c0.042,0.741,0.252,1.308,0.628,1.701s0.846,0.59,1.409,0.59c0.419,0,0.776-0.11,1.073-0.33
	C119.224,13.771,119.458,13.421,119.631,12.938z M115.879,11.091h3.764c-0.051-0.567-0.195-0.992-0.432-1.276
	c-0.364-0.44-0.836-0.66-1.416-0.66c-0.525,0-0.966,0.176-1.324,0.527C116.115,10.033,115.918,10.503,115.879,11.091z"/>
<path fill="#FFFFFF" d="M122.247,15.109V8.368h1.028v0.958c0.495-0.741,1.21-1.111,2.146-1.111c0.405,0,0.779,0.073,1.121,0.219
	c0.34,0.146,0.594,0.338,0.765,0.575c0.17,0.237,0.288,0.519,0.354,0.844c0.043,0.211,0.063,0.582,0.063,1.111v4.145h-1.144v-4.1
	c0-0.465-0.043-0.813-0.133-1.044c-0.089-0.231-0.247-0.415-0.473-0.553c-0.227-0.137-0.492-0.206-0.797-0.206
	c-0.486,0-0.906,0.154-1.26,0.463c-0.353,0.309-0.529,0.895-0.529,1.758v3.682H122.247z"/>
<path fill="#FFFFFF" d="M131.972,14.087l0.164,1.009c-0.321,0.068-0.608,0.102-0.862,0.102c-0.414,0-0.735-0.065-0.965-0.197
	s-0.39-0.304-0.482-0.517c-0.094-0.214-0.14-0.664-0.14-1.349V9.257h-0.838V8.368h0.838V6.699l1.136-0.686v2.355h1.149v0.889h-1.149
	v3.942c0,0.326,0.021,0.535,0.062,0.628c0.041,0.093,0.104,0.167,0.197,0.222c0.09,0.055,0.221,0.083,0.391,0.083
	C131.598,14.132,131.763,14.117,131.972,14.087z"/>
<path fill="#FFFFFF" d="M132.663,11.739c0-1.249,0.348-2.173,1.041-2.774c0.579-0.5,1.286-0.749,2.119-0.749
	c0.928,0,1.686,0.304,2.273,0.911s0.882,1.446,0.882,2.517c0,0.868-0.13,1.55-0.39,2.047c-0.263,0.498-0.641,0.884-1.138,1.159
	s-1.04,0.413-1.629,0.413c-0.942,0-1.706-0.303-2.287-0.908C132.954,13.749,132.663,12.877,132.663,11.739z M133.837,11.739
	c0,0.863,0.188,1.51,0.564,1.939c0.377,0.43,0.852,0.645,1.422,0.645c0.567,0,1.039-0.216,1.416-0.646
	c0.377-0.431,0.564-1.09,0.564-1.974c0-0.833-0.189-1.465-0.568-1.895c-0.378-0.429-0.85-0.644-1.412-0.644
	c-0.57,0-1.045,0.214-1.422,0.641C134.025,10.23,133.837,10.875,133.837,11.739z"/>
<path fill="#FFFFFF" d="M143.88,17.707l-0.127-1.074c0.248,0.068,0.467,0.103,0.652,0.103c0.254,0,0.457-0.042,0.609-0.127
	s0.277-0.203,0.375-0.354c0.072-0.114,0.188-0.398,0.35-0.852c0.021-0.063,0.055-0.157,0.102-0.279l-2.559-6.754h1.23l1.404,3.904
	c0.182,0.495,0.344,1.016,0.487,1.562c0.131-0.525,0.287-1.037,0.47-1.536l1.44-3.929h1.144l-2.564,6.855
	c-0.274,0.741-0.488,1.25-0.641,1.53c-0.203,0.375-0.437,0.652-0.699,0.828c-0.262,0.176-0.574,0.264-0.938,0.264
	C144.396,17.845,144.15,17.798,143.88,17.707z"/>
<path fill="#FFFFFF" d="M158.441,12.64l1.123,0.146c-0.122,0.774-0.437,1.381-0.942,1.818c-0.505,0.438-1.125,0.657-1.861,0.657
	c-0.924,0-1.664-0.302-2.227-0.904c-0.561-0.604-0.841-1.468-0.841-2.593c0-0.728,0.121-1.365,0.36-1.911
	c0.242-0.546,0.609-0.955,1.103-1.229c0.493-0.272,1.029-0.409,1.609-0.409c0.731,0,1.331,0.185,1.797,0.556
	c0.465,0.37,0.764,0.896,0.896,1.577l-1.111,0.171c-0.105-0.453-0.293-0.793-0.563-1.022c-0.269-0.229-0.593-0.343-0.974-0.343
	c-0.576,0-1.043,0.206-1.403,0.619c-0.359,0.412-0.54,1.065-0.54,1.958c0,0.906,0.175,1.563,0.521,1.974
	c0.348,0.411,0.8,0.616,1.357,0.616c0.449,0,0.824-0.138,1.124-0.413C158.169,13.633,158.36,13.211,158.441,12.64z"/>
<path fill="#FFFFFF" d="M160.116,11.739c0-1.249,0.348-2.173,1.041-2.774c0.58-0.5,1.287-0.749,2.12-0.749
	c0.927,0,1.685,0.304,2.272,0.911s0.883,1.446,0.883,2.517c0,0.868-0.131,1.55-0.391,2.047c-0.262,0.498-0.64,0.884-1.138,1.159
	c-0.497,0.275-1.039,0.413-1.628,0.413c-0.943,0-1.706-0.303-2.288-0.908S160.116,12.877,160.116,11.739z M161.29,11.739
	c0,0.863,0.189,1.51,0.565,1.939c0.376,0.43,0.851,0.645,1.422,0.645c0.567,0,1.039-0.216,1.415-0.646
	c0.377-0.432,0.564-1.09,0.564-1.974c0-0.833-0.188-1.465-0.567-1.895c-0.378-0.429-0.849-0.644-1.412-0.644
	c-0.571,0-1.046,0.214-1.422,0.641C161.479,10.231,161.29,10.875,161.29,11.739z"/>
<path fill="#FFFFFF" d="M167.772,15.109V8.368h1.027v0.958c0.496-0.741,1.211-1.111,2.146-1.111c0.406,0,0.78,0.073,1.12,0.219
	c0.341,0.146,0.597,0.338,0.767,0.575c0.168,0.237,0.286,0.519,0.354,0.844c0.042,0.211,0.063,0.582,0.063,1.111v4.145h-1.144v-4.1
	c0-0.465-0.044-0.813-0.133-1.044s-0.246-0.415-0.474-0.553c-0.227-0.137-0.492-0.206-0.797-0.206c-0.486,0-0.906,0.154-1.26,0.463
	s-0.529,0.895-0.529,1.758v3.682H167.772z"/>
<path fill="#FFFFFF" d="M176.874,15.109l-2.563-6.741h1.206l1.447,4.037c0.156,0.436,0.3,0.889,0.432,1.358
	c0.102-0.355,0.243-0.783,0.425-1.282l1.498-4.113h1.175l-2.552,6.741H176.874z"/>
<path fill="#FFFFFF" d="M181.509,7.118V5.804h1.143v1.314H181.509z M181.509,15.109V8.368h1.143v6.741H181.509z"/>
<path fill="#FFFFFF" d="M186.263,15.109l-2.563-6.741h1.205l1.447,4.037c0.157,0.436,0.301,0.889,0.432,1.358
	c0.103-0.355,0.244-0.783,0.427-1.282l1.498-4.113h1.174l-2.551,6.741H186.263z"/>
<path fill="#FFFFFF" d="M195.505,12.938l1.181,0.146c-0.187,0.69-0.531,1.225-1.034,1.606s-1.146,0.571-1.93,0.571
	c-0.985,0-1.77-0.304-2.346-0.911c-0.578-0.607-0.867-1.458-0.867-2.555c0-1.134,0.293-2.014,0.877-2.641s1.341-0.939,2.271-0.939
	c0.901,0,1.639,0.307,2.209,0.92c0.571,0.613,0.857,1.477,0.857,2.59c0,0.068-0.002,0.169-0.008,0.305h-5.026
	c0.042,0.741,0.252,1.308,0.628,1.701c0.377,0.394,0.848,0.59,1.41,0.59c0.418,0,0.775-0.11,1.072-0.33
	C195.097,13.771,195.331,13.421,195.505,12.938z M191.753,11.091h3.765c-0.052-0.567-0.194-0.992-0.433-1.276
	c-0.363-0.44-0.836-0.66-1.414-0.66c-0.524,0-0.967,0.176-1.323,0.527C191.99,10.033,191.792,10.503,191.753,11.091z"/>
<path fill="#FFFFFF" d="M198.12,15.109V8.368h1.027v0.958c0.496-0.741,1.211-1.111,2.146-1.111c0.405,0,0.778,0.073,1.119,0.219
	c0.342,0.146,0.596,0.338,0.766,0.575c0.17,0.237,0.287,0.519,0.354,0.844c0.043,0.211,0.063,0.582,0.063,1.111v4.145h-1.144v-4.1
	c0-0.465-0.044-0.813-0.134-1.044c-0.088-0.231-0.246-0.415-0.473-0.553c-0.228-0.137-0.492-0.206-0.797-0.206
	c-0.486,0-0.906,0.154-1.26,0.463c-0.354,0.309-0.529,0.895-0.529,1.758v3.682H198.12z"/>
<path fill="#FFFFFF" d="M209.749,12.64l1.123,0.146c-0.123,0.774-0.438,1.381-0.943,1.818c-0.504,0.438-1.125,0.657-1.861,0.657
	c-0.923,0-1.664-0.302-2.227-0.904c-0.561-0.604-0.84-1.468-0.84-2.593c0-0.728,0.121-1.365,0.361-1.911
	c0.241-0.546,0.607-0.955,1.102-1.229c0.492-0.272,1.029-0.409,1.609-0.409c0.73,0,1.33,0.185,1.797,0.556
	c0.465,0.37,0.764,0.896,0.896,1.577l-1.111,0.171c-0.104-0.453-0.293-0.793-0.563-1.022c-0.268-0.229-0.592-0.343-0.974-0.343
	c-0.575,0-1.043,0.206-1.403,0.619c-0.358,0.412-0.539,1.065-0.539,1.958c0,0.906,0.175,1.563,0.521,1.974
	c0.348,0.411,0.801,0.616,1.357,0.616c0.449,0,0.824-0.138,1.123-0.413C209.479,13.635,209.669,13.211,209.749,12.64z"/>
<path fill="#FFFFFF" d="M211.857,7.118V5.804h1.144v1.314H211.857z M211.857,15.109V8.368h1.144v6.741H211.857z"/>
<path fill="#FFFFFF" d="M219.138,14.278c-0.424,0.36-0.831,0.614-1.223,0.762s-0.812,0.222-1.26,0.222
	c-0.74,0-1.311-0.181-1.708-0.543c-0.397-0.361-0.597-0.824-0.597-1.387c0-0.33,0.074-0.632,0.226-0.904
	c0.149-0.273,0.347-0.492,0.591-0.657c0.242-0.165,0.518-0.29,0.821-0.375c0.224-0.059,0.563-0.116,1.017-0.171
	c0.922-0.11,1.602-0.241,2.037-0.394c0.004-0.157,0.006-0.256,0.006-0.298c0-0.465-0.106-0.793-0.323-0.984
	c-0.291-0.258-0.726-0.387-1.302-0.387c-0.537,0-0.934,0.094-1.189,0.283c-0.256,0.188-0.445,0.521-0.566,1l-1.117-0.152
	c0.102-0.478,0.268-0.864,0.5-1.159c0.233-0.294,0.57-0.521,1.01-0.679c0.439-0.159,0.951-0.238,1.529-0.238
	c0.576,0,1.043,0.068,1.403,0.203c0.359,0.135,0.623,0.306,0.793,0.511c0.171,0.206,0.287,0.465,0.355,0.778
	c0.038,0.195,0.057,0.546,0.057,1.054v1.522c0,1.062,0.025,1.734,0.073,2.015c0.049,0.282,0.146,0.551,0.289,0.81h-1.193
	C219.247,14.873,219.171,14.595,219.138,14.278z M219.042,11.726c-0.414,0.169-1.037,0.313-1.867,0.432
	c-0.469,0.068-0.801,0.144-0.996,0.229c-0.194,0.085-0.344,0.208-0.45,0.372c-0.104,0.163-0.158,0.344-0.158,0.542
	c0,0.305,0.115,0.559,0.347,0.762c0.23,0.203,0.567,0.305,1.012,0.305c0.44,0,0.832-0.096,1.176-0.289
	c0.342-0.193,0.594-0.456,0.755-0.791c0.122-0.258,0.185-0.639,0.185-1.143v-0.419H219.042z"/>
<path fill="#FFFFFF" d="M48.836,28.539l1.181,0.146c-0.186,0.689-0.531,1.225-1.035,1.605s-1.147,0.571-1.93,0.571
	c-0.986,0-1.768-0.304-2.345-0.911c-0.578-0.606-0.867-1.457-0.867-2.555c0-1.134,0.292-2.014,0.876-2.641s1.341-0.939,2.272-0.939
	c0.901,0,1.638,0.307,2.209,0.92c0.571,0.613,0.857,1.477,0.857,2.59c0,0.068-0.002,0.17-0.006,0.305h-5.027
	c0.042,0.742,0.252,1.309,0.628,1.701c0.376,0.394,0.846,0.59,1.409,0.59c0.419,0,0.776-0.109,1.073-0.329
	S48.663,29.021,48.836,28.539z M45.084,26.691h3.764c-0.051-0.566-0.195-0.992-0.432-1.275c-0.364-0.44-0.836-0.66-1.416-0.66
	c-0.525,0-0.966,0.176-1.324,0.527C45.32,25.632,45.123,26.103,45.084,26.691z"/>
<path fill="#FFFFFF" d="M51.451,30.708v-6.74h1.028v0.958c0.495-0.741,1.21-1.111,2.146-1.111c0.406,0,0.78,0.073,1.121,0.22
	c0.34,0.146,0.595,0.338,0.765,0.574c0.17,0.237,0.288,0.52,0.355,0.844c0.042,0.211,0.063,0.582,0.063,1.111v4.145h-1.143v-4.101
	c0-0.465-0.044-0.813-0.133-1.044s-0.247-0.415-0.473-0.553c-0.226-0.137-0.492-0.206-0.796-0.206c-0.487,0-0.907,0.153-1.26,0.463
	s-0.53,0.896-0.53,1.758v3.683H51.451L51.451,30.708z"/>
<path fill="#FFFFFF" d="M66.907,28.539l1.181,0.146c-0.186,0.689-0.531,1.225-1.035,1.605c-0.504,0.381-1.147,0.571-1.93,0.571
	c-0.986,0-1.768-0.304-2.345-0.911c-0.578-0.606-0.867-1.457-0.867-2.555c0-1.134,0.292-2.014,0.876-2.641s1.341-0.939,2.272-0.939
	c0.901,0,1.638,0.307,2.209,0.92c0.571,0.613,0.857,1.477,0.857,2.59c0,0.068-0.002,0.17-0.006,0.305h-5.027
	c0.042,0.742,0.252,1.309,0.628,1.701c0.376,0.394,0.846,0.59,1.409,0.59c0.419,0,0.776-0.109,1.073-0.329
	C66.5,29.373,66.734,29.021,66.907,28.539z M63.156,26.691h3.764c-0.051-0.566-0.195-0.992-0.432-1.275
	c-0.364-0.44-0.836-0.66-1.416-0.66c-0.525,0-0.966,0.176-1.324,0.527C63.393,25.632,63.194,26.103,63.156,26.691z"/>
<path fill="#FFFFFF" d="M69.498,30.708v-9.306h1.143v9.306H69.498z"/>
<path fill="#FFFFFF" d="M80.421,28.24l1.124,0.146c-0.123,0.773-0.437,1.381-0.943,1.818c-0.505,0.438-1.126,0.656-1.863,0.656
	c-0.922,0-1.664-0.302-2.225-0.904c-0.561-0.604-0.841-1.468-0.841-2.593c0-0.728,0.121-1.364,0.362-1.911
	c0.241-0.545,0.608-0.955,1.101-1.229c0.493-0.271,1.03-0.409,1.609-0.409c0.732,0,1.331,0.185,1.796,0.556
	c0.465,0.371,0.764,0.896,0.895,1.577l-1.111,0.171c-0.106-0.453-0.293-0.793-0.562-1.021c-0.269-0.229-0.593-0.344-0.974-0.344
	c-0.576,0-1.043,0.207-1.403,0.619c-0.36,0.412-0.54,1.065-0.54,1.959c0,0.905,0.173,1.563,0.521,1.974
	c0.348,0.411,0.8,0.616,1.358,0.616c0.449,0,0.823-0.139,1.124-0.414C80.15,29.233,80.341,28.812,80.421,28.24z"/>
<path fill="#FFFFFF" d="M82.529,22.718v-1.314h1.143v1.314H82.529z M82.529,30.708v-6.74h1.143v6.74H82.529z"/>
<path fill="#FFFFFF" d="M86.464,30.708h-1.06v-9.306h1.143v3.32c0.482-0.604,1.098-0.908,1.847-0.908
	c0.415,0,0.807,0.083,1.177,0.251c0.371,0.167,0.675,0.402,0.914,0.704c0.239,0.303,0.427,0.668,0.562,1.095
	c0.135,0.428,0.203,0.885,0.203,1.371c0,1.155-0.286,2.049-0.857,2.68c-0.571,0.631-1.257,0.945-2.057,0.945
	c-0.795,0-1.42-0.332-1.873-0.997L86.464,30.708L86.464,30.708z M86.452,27.289c0,0.808,0.11,1.392,0.33,1.752
	c0.36,0.588,0.846,0.881,1.46,0.881c0.5,0,0.931-0.217,1.295-0.649c0.364-0.435,0.546-1.081,0.546-1.938
	c0-0.881-0.174-1.53-0.524-1.949c-0.349-0.42-0.771-0.629-1.266-0.629c-0.5,0-0.931,0.218-1.295,0.65
	C86.634,25.839,86.452,26.467,86.452,27.289z"/>
<path fill="#FFFFFF" d="M97.255,28.539l1.181,0.146c-0.186,0.689-0.531,1.225-1.035,1.605s-1.147,0.571-1.93,0.571
	c-0.986,0-1.768-0.304-2.345-0.911c-0.578-0.606-0.867-1.457-0.867-2.555c0-1.134,0.292-2.014,0.876-2.641s1.341-0.939,2.272-0.939
	c0.901,0,1.638,0.307,2.209,0.92c0.571,0.613,0.857,1.477,0.857,2.59c0,0.068-0.002,0.17-0.006,0.305H93.44
	c0.042,0.742,0.252,1.309,0.628,1.701c0.376,0.394,0.846,0.59,1.409,0.59c0.419,0,0.776-0.109,1.073-0.329
	C96.848,29.373,97.083,29.021,97.255,28.539z M93.504,26.691h3.764c-0.051-0.566-0.195-0.992-0.432-1.275
	c-0.364-0.44-0.836-0.66-1.416-0.66c-0.525,0-0.966,0.176-1.324,0.527C93.74,25.632,93.542,26.103,93.504,26.691z"/>
<path fill="#FFFFFF" d="M99.858,30.708v-6.74h1.028v1.021c0.262-0.478,0.504-0.793,0.727-0.945c0.222-0.152,0.466-0.229,0.733-0.229
	c0.385,0,0.776,0.123,1.174,0.368l-0.394,1.061c-0.279-0.166-0.559-0.248-0.838-0.248c-0.25,0-0.474,0.074-0.673,0.226
	c-0.199,0.149-0.341,0.358-0.425,0.625c-0.127,0.405-0.19,0.851-0.19,1.333v3.529H99.858L99.858,30.708z"/>
<path fill="#FFFFFF" d="M108.815,28.539l1.181,0.146c-0.186,0.689-0.531,1.225-1.035,1.605s-1.147,0.571-1.93,0.571
	c-0.986,0-1.768-0.304-2.345-0.911c-0.578-0.606-0.867-1.457-0.867-2.555c0-1.134,0.292-2.014,0.876-2.641s1.341-0.939,2.272-0.939
	c0.901,0,1.638,0.307,2.209,0.92c0.571,0.613,0.857,1.477,0.857,2.59c0,0.068-0.002,0.17-0.006,0.305H105
	c0.042,0.742,0.252,1.309,0.628,1.701c0.376,0.394,0.846,0.59,1.409,0.59c0.419,0,0.776-0.109,1.073-0.329
	S108.642,29.021,108.815,28.539z M105.063,26.691h3.764c-0.051-0.566-0.195-0.992-0.432-1.275c-0.364-0.44-0.836-0.66-1.416-0.66
	c-0.525,0-0.966,0.176-1.324,0.527C105.299,25.632,105.102,26.103,105.063,26.691z"/>
<path fill="#FFFFFF" d="M110.974,28.697l1.13-0.178c0.063,0.453,0.24,0.8,0.53,1.041s0.695,0.361,1.216,0.361
	c0.525,0,0.914-0.106,1.168-0.319c0.254-0.214,0.381-0.465,0.381-0.752c0-0.258-0.112-0.461-0.336-0.608
	c-0.157-0.103-0.546-0.23-1.168-0.388c-0.838-0.211-1.418-0.396-1.743-0.549c-0.323-0.155-0.569-0.368-0.736-0.642
	c-0.167-0.272-0.25-0.574-0.25-0.904c0-0.301,0.069-0.579,0.207-0.836c0.137-0.256,0.325-0.467,0.562-0.637
	c0.178-0.132,0.42-0.242,0.727-0.334c0.307-0.091,0.636-0.137,0.987-0.137c0.529,0,0.993,0.076,1.394,0.229
	c0.399,0.152,0.695,0.358,0.885,0.619c0.19,0.26,0.322,0.608,0.394,1.045l-1.117,0.151c-0.051-0.347-0.198-0.618-0.441-0.813
	c-0.244-0.194-0.587-0.291-1.032-0.291c-0.525,0-0.899,0.087-1.124,0.26s-0.336,0.376-0.336,0.609c0,0.147,0.046,0.28,0.14,0.399
	c0.093,0.123,0.239,0.224,0.438,0.306c0.114,0.041,0.451,0.14,1.009,0.291c0.808,0.217,1.372,0.394,1.692,0.53
	c0.319,0.138,0.57,0.337,0.752,0.601c0.182,0.263,0.273,0.588,0.273,0.978c0,0.381-0.111,0.739-0.333,1.076
	c-0.222,0.336-0.542,0.597-0.961,0.78c-0.419,0.185-0.893,0.275-1.422,0.275c-0.876,0-1.543-0.182-2.002-0.546
	C111.394,29.953,111.101,29.414,110.974,28.697z"/>
<path fill="#FFFFFF" d="M117.93,33.292v-9.324h1.041v0.876c0.246-0.343,0.522-0.601,0.832-0.771
	c0.309-0.171,0.684-0.257,1.124-0.257c0.576,0,1.083,0.148,1.523,0.444c0.44,0.296,0.772,0.714,0.997,1.254
	c0.224,0.539,0.336,1.131,0.336,1.774c0,0.689-0.124,1.311-0.372,1.862c-0.246,0.554-0.607,0.976-1.079,1.271
	c-0.472,0.293-0.968,0.44-1.488,0.44c-0.381,0-0.723-0.081-1.025-0.241c-0.302-0.16-0.551-0.363-0.746-0.608v3.282h-1.143V33.292z
	 M118.964,27.376c0,0.869,0.176,1.51,0.527,1.924c0.351,0.414,0.776,0.621,1.276,0.621c0.508,0,0.942-0.215,1.305-0.645
	c0.361-0.429,0.542-1.095,0.542-1.996c0-0.859-0.177-1.502-0.53-1.93c-0.354-0.428-0.776-0.641-1.267-0.641
	c-0.487,0-0.917,0.228-1.292,0.682C119.152,25.848,118.964,26.509,118.964,27.376z"/>
<path fill="#FFFFFF" d="M129.56,29.878c-0.424,0.359-0.831,0.613-1.223,0.762s-0.812,0.222-1.26,0.222
	c-0.74,0-1.31-0.181-1.708-0.543c-0.397-0.36-0.597-0.823-0.597-1.387c0-0.33,0.074-0.632,0.227-0.904
	c0.149-0.272,0.346-0.491,0.59-0.657c0.244-0.164,0.518-0.289,0.821-0.375c0.224-0.059,0.563-0.115,1.017-0.17
	c0.922-0.111,1.602-0.242,2.037-0.395c0.004-0.157,0.006-0.256,0.006-0.299c0-0.465-0.106-0.793-0.323-0.983
	c-0.292-0.258-0.726-0.387-1.302-0.387c-0.537,0-0.934,0.094-1.189,0.282s-0.445,0.521-0.568,1l-1.117-0.151
	c0.103-0.478,0.27-0.864,0.502-1.159c0.232-0.294,0.568-0.521,1.009-0.679c0.44-0.159,0.95-0.238,1.53-0.238
	c0.576,0,1.043,0.068,1.402,0.203s0.623,0.306,0.793,0.511c0.17,0.206,0.287,0.465,0.355,0.778c0.038,0.194,0.057,0.546,0.057,1.054
	v1.523c0,1.062,0.025,1.734,0.073,2.015c0.049,0.282,0.146,0.552,0.289,0.81h-1.192C129.669,30.473,129.593,30.195,129.56,29.878z
	 M129.464,27.326c-0.414,0.17-1.037,0.313-1.866,0.432c-0.47,0.068-0.802,0.145-0.997,0.229s-0.346,0.208-0.451,0.372
	c-0.105,0.163-0.159,0.344-0.159,0.542c0,0.306,0.115,0.56,0.347,0.763c0.23,0.203,0.567,0.305,1.013,0.305
	c0.44,0,0.832-0.096,1.174-0.289c0.343-0.193,0.594-0.456,0.755-0.791c0.122-0.258,0.186-0.639,0.186-1.143V27.326L129.464,27.326z"
	/>
<path fill="#FFFFFF" d="M136.788,28.24l1.125,0.146c-0.123,0.773-0.438,1.381-0.943,1.818s-1.127,0.656-1.862,0.656
	c-0.922,0-1.664-0.302-2.226-0.904c-0.561-0.604-0.842-1.468-0.842-2.593c0-0.728,0.121-1.364,0.362-1.911
	c0.241-0.545,0.608-0.955,1.101-1.229c0.494-0.271,1.03-0.409,1.609-0.409c0.732,0,1.332,0.185,1.797,0.556s0.764,0.896,0.895,1.577
	l-1.109,0.171c-0.105-0.453-0.293-0.793-0.563-1.021s-0.594-0.344-0.975-0.344c-0.576,0-1.043,0.207-1.402,0.619
	s-0.539,1.065-0.539,1.959c0,0.905,0.172,1.563,0.521,1.974s0.8,0.616,1.358,0.616c0.447,0,0.822-0.139,1.123-0.414
	C136.519,29.235,136.708,28.812,136.788,28.24z"/>
<path fill="#FFFFFF" d="M138.896,22.718v-1.314h1.144v1.314H138.896z M138.896,30.708v-6.74h1.144v6.74H138.896z"/>
<path fill="#FFFFFF" d="M141.354,27.339c0-1.25,0.348-2.174,1.041-2.774c0.58-0.5,1.287-0.749,2.12-0.749
	c0.927,0,1.685,0.305,2.271,0.911c0.588,0.606,0.883,1.446,0.883,2.517c0,0.868-0.131,1.551-0.391,2.047
	c-0.261,0.498-0.639,0.885-1.137,1.16c-0.497,0.274-1.039,0.412-1.628,0.412c-0.944,0-1.706-0.303-2.288-0.908
	C141.644,29.35,141.354,28.477,141.354,27.339z M142.526,27.339c0,0.863,0.189,1.51,0.564,1.938
	c0.377,0.431,0.852,0.646,1.422,0.646c0.568,0,1.039-0.217,1.416-0.647c0.377-0.432,0.564-1.09,0.564-1.974
	c0-0.833-0.189-1.465-0.568-1.895c-0.377-0.43-0.849-0.645-1.412-0.645c-0.57,0-1.045,0.214-1.422,0.641
	C142.716,25.832,142.526,26.476,142.526,27.339z"/>
<g>
	<path fill="#FFFFFF" d="M30.901,23.41c-2.711,0-4.918-2.207-4.918-4.918c0-2.713,2.207-4.919,4.918-4.919s4.918,2.206,4.918,4.919
		C35.819,21.203,33.613,23.41,30.901,23.41z M30.901,14.573c-2.16,0-3.918,1.759-3.918,3.919s1.758,3.918,3.918,3.918
		s3.918-1.759,3.918-3.918C34.819,16.332,33.063,14.573,30.901,14.573z"/>
</g>
</svg>
