<?xml version="1.0" encoding="utf-8"?>
<!-- Generator: Adobe Illustrator 16.0.0, SVG Export Plug-In . SVG Version: 6.00 Build 0)  -->
<!DOCTYPE svg PUBLIC "-//W3C//DTD SVG 1.1//EN" "http://www.w3.org/Graphics/SVG/1.1/DTD/svg11.dtd">
<svg version="1.1" id="Capa_1" xmlns="http://www.w3.org/2000/svg" xmlns:xlink="http://www.w3.org/1999/xlink" x="0px" y="0px"
	 width="233.32px" height="38.179px" viewBox="0 0 233.32 38.179" enable-background="new 0 0 233.32 38.179" xml:space="preserve">
<g opacity="0.5">
	<rect x="39.171" fill="#FFFFFF" width="181.751" height="1"/>
</g>
<g opacity="0.5">
	<rect x="39.171" y="37.179" fill="#FFFFFF" width="181.751" height="1"/>
</g>
<g>
	<path fill="#FFFFFF" d="M44.386,14.377V5.071h4.126c0.83,0,1.46,0.082,1.892,0.25c0.432,0.168,0.776,0.463,1.035,0.885
		c0.258,0.425,0.387,0.893,0.387,1.404c0,0.66-0.214,1.217-0.641,1.668c-0.427,0.453-1.087,0.742-1.98,0.863
		c0.326,0.157,0.573,0.313,0.743,0.465c0.36,0.33,0.7,0.742,1.022,1.236l1.619,2.533h-1.549L49.81,12.44
		c-0.36-0.56-0.656-0.986-0.889-1.283s-0.441-0.504-0.625-0.621c-0.184-0.119-0.371-0.201-0.562-0.248
		c-0.14-0.029-0.368-0.045-0.686-0.045h-1.428v4.133L44.386,14.377L44.386,14.377z M45.617,9.178h2.647
		c0.563,0,1.003-0.058,1.32-0.174s0.559-0.304,0.724-0.56s0.248-0.533,0.248-0.834c0-0.44-0.16-0.803-0.479-1.086
		c-0.32-0.283-0.824-0.426-1.514-0.426h-2.945L45.617,9.178L45.617,9.178z"/>
	<path fill="#FFFFFF" d="M58.225,12.206l1.181,0.146c-0.186,0.689-0.531,1.225-1.035,1.605c-0.504,0.38-1.147,0.57-1.93,0.57
		c-0.986,0-1.768-0.304-2.345-0.91c-0.578-0.607-0.867-1.459-0.867-2.555c0-1.135,0.292-2.016,0.876-2.642s1.341-0.938,2.272-0.938
		c0.901,0,1.638,0.307,2.209,0.92s0.857,1.478,0.857,2.59c0,0.068-0.002,0.17-0.006,0.306h-5.027
		c0.042,0.739,0.252,1.308,0.628,1.701c0.376,0.393,0.846,0.59,1.409,0.59c0.419,0,0.776-0.11,1.073-0.33
		S58.05,12.688,58.225,12.206z M54.473,10.36h3.764c-0.051-0.567-0.195-0.994-0.432-1.276c-0.364-0.44-0.836-0.66-1.416-0.66
		c-0.525,0-0.966,0.176-1.324,0.526C54.708,9.301,54.51,9.771,54.473,10.36z"/>
	<path fill="#FFFFFF" d="M65.136,16.961v-3.302c-0.178,0.25-0.426,0.457-0.746,0.621c-0.319,0.166-0.659,0.248-1.019,0.248
		c-0.8,0-1.488-0.318-2.066-0.959c-0.577-0.639-0.866-1.515-0.866-2.627c0-0.678,0.117-1.285,0.353-1.822
		c0.234-0.536,0.575-0.943,1.021-1.221c0.447-0.277,0.937-0.416,1.47-0.416c0.833,0,1.49,0.352,1.968,1.053v-0.9h1.028v9.325H65.136
		z M61.613,10.987c0,0.867,0.182,1.52,0.546,1.953c0.364,0.432,0.8,0.649,1.308,0.649c0.487,0,0.906-0.206,1.257-0.619
		c0.351-0.412,0.527-1.04,0.527-1.882c0-0.896-0.185-1.572-0.556-2.023c-0.37-0.453-0.805-0.681-1.304-0.681
		c-0.495,0-0.915,0.211-1.26,0.632C61.787,9.438,61.613,10.095,61.613,10.987z"/>
	<path fill="#FFFFFF" d="M72.487,14.377v-0.99c-0.525,0.763-1.238,1.144-2.139,1.144c-0.398,0-0.769-0.076-1.114-0.229
		c-0.345-0.151-0.601-0.345-0.768-0.573c-0.167-0.23-0.285-0.515-0.353-0.849c-0.046-0.226-0.07-0.58-0.07-1.065V7.636h1.143v3.739
		c0,0.596,0.023,0.997,0.07,1.204c0.072,0.302,0.224,0.537,0.457,0.709s0.521,0.257,0.863,0.257c0.342,0,0.665-0.087,0.965-0.263
		c0.3-0.176,0.513-0.416,0.638-0.719s0.188-0.74,0.188-1.316V7.636h1.143v6.741H72.487z"/>
	<path fill="#FFFFFF" d="M79.915,12.206l1.181,0.146c-0.186,0.689-0.531,1.225-1.035,1.605c-0.504,0.38-1.147,0.57-1.93,0.57
		c-0.986,0-1.768-0.304-2.345-0.91c-0.578-0.607-0.867-1.459-0.867-2.555c0-1.135,0.292-2.016,0.876-2.642s1.341-0.938,2.272-0.938
		c0.901,0,1.638,0.307,2.209,0.92s0.857,1.478,0.857,2.59c0,0.068-0.002,0.17-0.006,0.306H76.1c0.042,0.739,0.252,1.308,0.628,1.701
		c0.376,0.393,0.846,0.59,1.409,0.59c0.419,0,0.776-0.11,1.073-0.33S79.74,12.688,79.915,12.206z M76.163,10.36h3.764
		c-0.051-0.567-0.195-0.994-0.432-1.276c-0.364-0.44-0.836-0.66-1.416-0.66c-0.525,0-0.966,0.176-1.324,0.526
		C76.398,9.301,76.2,9.771,76.163,10.36z"/>
	<path fill="#FFFFFF" d="M82.517,14.377V7.636h1.028v1.021c0.262-0.479,0.504-0.793,0.727-0.945
		c0.222-0.152,0.466-0.229,0.733-0.229c0.385,0,0.776,0.123,1.174,0.367l-0.394,1.061c-0.279-0.166-0.559-0.248-0.838-0.248
		c-0.25,0-0.474,0.076-0.673,0.227c-0.199,0.151-0.341,0.357-0.425,0.625c-0.127,0.406-0.19,0.852-0.19,1.333v3.529H82.517z"/>
	<path fill="#FFFFFF" d="M86.864,6.385V5.071h1.143v1.313H86.864z M86.864,14.377V7.636h1.143v6.741H86.864z"/>
	<path fill="#FFFFFF" d="M89.747,14.377V7.636h1.022v0.945c0.211-0.329,0.493-0.596,0.844-0.797c0.351-0.2,0.751-0.301,1.2-0.301
		c0.5,0,0.909,0.104,1.229,0.312c0.319,0.207,0.544,0.497,0.676,0.868c0.533-0.786,1.227-1.18,2.082-1.18
		c0.668,0,1.183,0.186,1.542,0.555c0.359,0.371,0.54,0.941,0.54,1.712v4.627h-1.136v-4.246c0-0.457-0.037-0.786-0.111-0.987
		c-0.074-0.201-0.208-0.363-0.403-0.484c-0.195-0.123-0.423-0.186-0.686-0.186c-0.474,0-0.868,0.157-1.181,0.473
		c-0.313,0.316-0.47,0.82-0.47,1.516v3.916h-1.143V9.997c0-0.508-0.093-0.889-0.279-1.143c-0.186-0.254-0.491-0.381-0.914-0.381
		c-0.322,0-0.619,0.085-0.892,0.254c-0.273,0.17-0.471,0.418-0.594,0.743s-0.184,0.795-0.184,1.408v3.498H89.747z"/>
	<path fill="#FFFFFF" d="M100.583,6.385V5.071h1.143v1.313H100.583z M100.583,14.377V7.636h1.143v6.741H100.583z"/>
	<path fill="#FFFFFF" d="M108.079,12.206l1.181,0.146c-0.186,0.689-0.531,1.225-1.035,1.605c-0.504,0.38-1.147,0.57-1.93,0.57
		c-0.986,0-1.768-0.304-2.345-0.91c-0.578-0.607-0.867-1.459-0.867-2.555c0-1.135,0.292-2.016,0.876-2.642s1.341-0.938,2.272-0.938
		c0.901,0,1.638,0.307,2.209,0.92c0.571,0.613,0.857,1.478,0.857,2.59c0,0.068-0.002,0.17-0.006,0.306h-5.027
		c0.042,0.739,0.252,1.308,0.628,1.701c0.376,0.393,0.846,0.59,1.409,0.59c0.419,0,0.776-0.11,1.073-0.33
		C107.67,13.04,107.905,12.688,108.079,12.206z M104.327,10.36h3.764c-0.051-0.567-0.195-0.994-0.432-1.276
		c-0.364-0.44-0.836-0.66-1.416-0.66c-0.525,0-0.966,0.176-1.324,0.526C104.563,9.301,104.365,9.771,104.327,10.36z"/>
	<path fill="#FFFFFF" d="M110.693,14.377V7.636h1.028v0.958c0.495-0.739,1.21-1.11,2.146-1.11c0.406,0,0.78,0.073,1.121,0.219
		c0.34,0.146,0.595,0.339,0.765,0.576c0.169,0.235,0.288,0.518,0.355,0.844c0.042,0.212,0.063,0.582,0.063,1.111v4.145h-1.143
		v-4.102c0-0.465-0.044-0.813-0.133-1.043c-0.089-0.231-0.247-0.416-0.473-0.554s-0.492-0.206-0.796-0.206
		c-0.487,0-0.907,0.154-1.26,0.465c-0.353,0.309-0.53,0.895-0.53,1.758v3.682L110.693,14.377L110.693,14.377z"/>
	<path fill="#FFFFFF" d="M120.418,13.356l0.165,1.008c-0.322,0.067-0.609,0.103-0.863,0.103c-0.415,0-0.736-0.065-0.965-0.196
		c-0.229-0.132-0.389-0.304-0.482-0.518c-0.093-0.215-0.14-0.664-0.14-1.35V8.524h-0.838V7.636h0.838V5.967l1.136-0.687v2.354h1.149
		v0.89h-1.149v3.941c0,0.325,0.02,0.535,0.06,0.628c0.041,0.093,0.106,0.167,0.197,0.222c0.091,0.057,0.221,0.084,0.39,0.084
		C120.044,13.399,120.211,13.385,120.418,13.356z"/>
	<path fill="#FFFFFF" d="M121.11,11.006c0-1.248,0.347-2.173,1.041-2.772c0.58-0.5,1.288-0.75,2.12-0.75
		c0.928,0,1.685,0.305,2.272,0.912c0.588,0.606,0.882,1.445,0.882,2.516c0,0.867-0.13,1.551-0.391,2.048
		c-0.26,0.497-0.639,0.884-1.137,1.159c-0.496,0.273-1.039,0.412-1.627,0.412c-0.945,0-1.708-0.304-2.289-0.908
		C121.401,13.017,121.11,12.146,121.11,11.006z M122.284,11.006c0,0.862,0.188,1.51,0.565,1.938c0.377,0.43,0.852,0.646,1.422,0.646
		c0.567,0,1.039-0.216,1.416-0.647c0.377-0.431,0.565-1.09,0.565-1.974c0-0.834-0.188-1.466-0.567-1.896
		c-0.379-0.431-0.85-0.645-1.412-0.645c-0.572,0-1.045,0.213-1.422,0.641C122.474,9.497,122.284,10.143,122.284,11.006z"/>
	<path fill="#FFFFFF" d="M128.308,12.364l1.131-0.178c0.063,0.452,0.239,0.799,0.528,1.041c0.29,0.24,0.695,0.361,1.216,0.361
		c0.524,0,0.914-0.105,1.168-0.32c0.254-0.214,0.381-0.465,0.381-0.752c0-0.259-0.111-0.462-0.336-0.609
		c-0.156-0.102-0.545-0.23-1.168-0.387c-0.838-0.213-1.418-0.396-1.742-0.55c-0.323-0.153-0.569-0.368-0.736-0.642
		c-0.167-0.272-0.25-0.574-0.25-0.904c0-0.301,0.068-0.579,0.207-0.835c0.137-0.256,0.324-0.47,0.563-0.638
		c0.178-0.131,0.42-0.242,0.727-0.334c0.307-0.09,0.637-0.137,0.986-0.137c0.528,0,0.994,0.076,1.395,0.229
		c0.398,0.151,0.695,0.358,0.885,0.618c0.191,0.261,0.322,0.609,0.395,1.045l-1.116,0.152c-0.052-0.348-0.198-0.619-0.44-0.813
		c-0.244-0.194-0.589-0.292-1.031-0.292c-0.525,0-0.9,0.087-1.125,0.261c-0.224,0.173-0.336,0.376-0.336,0.608
		c0,0.148,0.047,0.281,0.141,0.4c0.093,0.123,0.238,0.225,0.438,0.305c0.114,0.041,0.451,0.14,1.01,0.291
		c0.809,0.217,1.371,0.394,1.691,0.531c0.319,0.137,0.57,0.336,0.752,0.6c0.182,0.263,0.273,0.588,0.273,0.979
		c0,0.381-0.111,0.738-0.334,1.075c-0.223,0.336-0.543,0.597-0.961,0.78c-0.42,0.186-0.895,0.275-1.422,0.275
		c-0.877,0-1.545-0.182-2.004-0.545C128.728,13.618,128.435,13.079,128.308,12.364z"/>
	<path fill="#FFFFFF" d="M138.877,16.961V7.636h1.041v0.876c0.245-0.343,0.522-0.601,0.831-0.771
		c0.311-0.172,0.684-0.258,1.124-0.258c0.575,0,1.083,0.148,1.522,0.444c0.44,0.296,0.772,0.714,0.998,1.254
		c0.223,0.539,0.336,1.132,0.336,1.772c0,0.691-0.123,1.313-0.371,1.863c-0.248,0.553-0.607,0.977-1.08,1.271
		c-0.471,0.294-0.967,0.44-1.488,0.44c-0.381,0-0.723-0.08-1.025-0.24c-0.302-0.161-0.551-0.364-0.744-0.609v3.282H138.877z
		 M139.912,11.045c0,0.866,0.176,1.508,0.527,1.923c0.351,0.415,0.775,0.622,1.274,0.622c0.508,0,0.942-0.215,1.306-0.646
		c0.361-0.43,0.543-1.095,0.543-1.996c0-0.858-0.178-1.502-0.529-1.93c-0.354-0.428-0.776-0.641-1.268-0.641
		c-0.486,0-0.916,0.227-1.291,0.682S139.912,10.177,139.912,11.045z"/>
	<path fill="#FFFFFF" d="M150.506,13.545c-0.423,0.36-0.831,0.614-1.222,0.762c-0.393,0.147-0.813,0.224-1.26,0.224
		c-0.742,0-1.312-0.182-1.709-0.543c-0.396-0.361-0.597-0.824-0.597-1.388c0-0.329,0.075-0.632,0.226-0.903
		c0.149-0.273,0.348-0.492,0.59-0.658c0.244-0.164,0.519-0.289,0.822-0.373c0.225-0.061,0.563-0.117,1.017-0.172
		c0.923-0.11,1.603-0.241,2.038-0.395c0.004-0.156,0.006-0.256,0.006-0.298c0-0.466-0.107-0.794-0.324-0.983
		c-0.291-0.259-0.725-0.388-1.301-0.388c-0.537,0-0.934,0.095-1.189,0.282c-0.257,0.188-0.445,0.521-0.568,0.999l-1.116-0.152
		c0.103-0.478,0.269-0.864,0.501-1.157c0.232-0.295,0.568-0.521,1.009-0.68s0.951-0.238,1.53-0.238c0.574,0,1.043,0.067,1.402,0.203
		c0.359,0.137,0.623,0.307,0.793,0.512s0.287,0.465,0.355,0.776c0.038,0.195,0.057,0.548,0.057,1.056v1.522
		c0,1.062,0.025,1.733,0.074,2.015s0.145,0.553,0.288,0.811h-1.192C150.617,14.14,150.541,13.862,150.506,13.545z M150.412,10.993
		c-0.415,0.17-1.037,0.313-1.867,0.433c-0.469,0.067-0.801,0.144-0.996,0.229c-0.195,0.084-0.345,0.207-0.451,0.371
		c-0.105,0.162-0.158,0.344-0.158,0.543c0,0.305,0.115,0.559,0.346,0.762c0.232,0.203,0.568,0.305,1.014,0.305
		c0.439,0,0.831-0.098,1.176-0.289c0.342-0.191,0.594-0.456,0.754-0.791c0.123-0.258,0.186-0.639,0.186-1.143v-0.42H150.412z"/>
	<path fill="#FFFFFF" d="M153.324,14.377V7.636h1.029v1.021c0.262-0.479,0.504-0.793,0.727-0.945s0.467-0.229,0.732-0.229
		c0.387,0,0.776,0.123,1.176,0.367l-0.396,1.061c-0.278-0.166-0.56-0.248-0.838-0.248c-0.249,0-0.474,0.076-0.672,0.227
		c-0.199,0.15-0.343,0.357-0.427,0.625c-0.127,0.406-0.189,0.852-0.189,1.333v3.529H153.324z"/>
	<path fill="#FFFFFF" d="M162.066,13.545c-0.424,0.36-0.83,0.614-1.223,0.762c-0.391,0.147-0.811,0.224-1.26,0.224
		c-0.74,0-1.311-0.182-1.707-0.543c-0.398-0.361-0.598-0.824-0.598-1.388c0-0.329,0.076-0.632,0.227-0.903
		c0.148-0.273,0.346-0.492,0.59-0.658c0.243-0.164,0.518-0.289,0.822-0.373c0.225-0.061,0.563-0.117,1.016-0.172
		c0.922-0.11,1.602-0.241,2.037-0.395c0.004-0.156,0.006-0.256,0.006-0.298c0-0.466-0.107-0.794-0.322-0.983
		c-0.293-0.259-0.727-0.388-1.303-0.388c-0.537,0-0.934,0.095-1.188,0.282s-0.445,0.521-0.568,0.999l-1.116-0.152
		c0.102-0.478,0.269-0.864,0.502-1.157c0.231-0.295,0.567-0.521,1.008-0.68s0.951-0.238,1.531-0.238
		c0.574,0,1.043,0.067,1.401,0.203c0.358,0.137,0.624,0.307,0.793,0.512c0.17,0.205,0.288,0.465,0.354,0.776
		c0.039,0.195,0.059,0.548,0.059,1.056v1.522c0,1.062,0.023,1.733,0.072,2.015c0.05,0.282,0.146,0.553,0.289,0.811h-1.192
		C162.175,14.14,162.099,13.862,162.066,13.545z M161.97,10.993c-0.414,0.17-1.037,0.313-1.865,0.433
		c-0.471,0.067-0.803,0.144-0.998,0.229c-0.193,0.084-0.344,0.207-0.449,0.371c-0.106,0.162-0.159,0.344-0.159,0.543
		c0,0.305,0.114,0.559,0.346,0.762s0.568,0.305,1.015,0.305c0.438,0,0.83-0.098,1.174-0.289c0.343-0.191,0.595-0.456,0.756-0.791
		c0.121-0.258,0.184-0.639,0.184-1.143v-0.42H161.97z"/>
	<path fill="#FFFFFF" d="M173.123,12.206l1.182,0.146c-0.188,0.689-0.531,1.225-1.035,1.605c-0.504,0.38-1.146,0.57-1.93,0.57
		c-0.986,0-1.768-0.304-2.346-0.91c-0.578-0.607-0.866-1.459-0.866-2.555c0-1.135,0.292-2.016,0.876-2.642s1.342-0.938,2.271-0.938
		c0.901,0,1.639,0.307,2.209,0.92c0.572,0.613,0.856,1.478,0.856,2.59c0,0.068-0.002,0.17-0.006,0.306h-5.026
		c0.043,0.739,0.252,1.308,0.629,1.701c0.375,0.393,0.846,0.59,1.407,0.59c0.421,0,0.777-0.11,1.073-0.33
		S172.949,12.688,173.123,12.206z M169.372,10.36h3.765c-0.051-0.567-0.195-0.994-0.432-1.276c-0.364-0.44-0.836-0.66-1.416-0.66
		c-0.525,0-0.967,0.176-1.324,0.526S169.41,9.771,169.372,10.36z"/>
	<path fill="#FFFFFF" d="M175.712,14.377V5.071h1.143v9.306H175.712z"/>
	<path fill="#FFFFFF" d="M182.238,14.377V7.636h1.029v0.958c0.493-0.739,1.209-1.11,2.145-1.11c0.406,0,0.779,0.073,1.121,0.219
		c0.34,0.146,0.596,0.339,0.765,0.576c0.169,0.235,0.288,0.518,0.354,0.844c0.043,0.212,0.063,0.582,0.063,1.111v4.145h-1.144
		v-4.102c0-0.465-0.045-0.813-0.133-1.043c-0.09-0.23-0.246-0.416-0.474-0.554c-0.226-0.138-0.491-0.206-0.796-0.206
		c-0.486,0-0.907,0.154-1.262,0.465c-0.352,0.309-0.529,0.895-0.529,1.758v3.682L182.238,14.377L182.238,14.377z"/>
	<path fill="#FFFFFF" d="M189.042,11.006c0-1.248,0.348-2.173,1.041-2.772c0.58-0.5,1.287-0.75,2.121-0.75
		c0.926,0,1.684,0.305,2.271,0.912c0.588,0.606,0.883,1.445,0.883,2.516c0,0.867-0.131,1.551-0.392,2.048
		c-0.26,0.497-0.64,0.884-1.137,1.159c-0.496,0.273-1.039,0.412-1.627,0.412c-0.944,0-1.707-0.304-2.289-0.908
		C189.333,13.017,189.042,12.146,189.042,11.006z M190.217,11.006c0,0.862,0.188,1.51,0.565,1.938
		c0.375,0.431,0.85,0.646,1.422,0.646c0.566,0,1.039-0.216,1.414-0.647c0.377-0.431,0.566-1.09,0.566-1.974
		c0-0.834-0.189-1.466-0.568-1.896c-0.379-0.431-0.85-0.645-1.412-0.645c-0.572,0-1.047,0.213-1.422,0.641
		C190.406,9.497,190.217,10.143,190.217,11.006z"/>
	<path fill="#FFFFFF" d="M196.685,14.377V7.636h1.029v1.021c0.262-0.479,0.504-0.793,0.727-0.945s0.467-0.229,0.732-0.229
		c0.387,0,0.777,0.123,1.176,0.367l-0.395,1.061c-0.279-0.166-0.559-0.248-0.838-0.248c-0.25,0-0.475,0.076-0.674,0.227
		c-0.197,0.151-0.34,0.357-0.424,0.625c-0.127,0.406-0.191,0.852-0.191,1.333v3.529H196.685z"/>
	<path fill="#FFFFFF" d="M201.027,14.377V7.636h1.021v0.945c0.212-0.329,0.493-0.596,0.846-0.797c0.35-0.2,0.75-0.301,1.198-0.301
		c0.5,0,0.908,0.104,1.229,0.312c0.318,0.207,0.545,0.497,0.676,0.868c0.533-0.786,1.227-1.18,2.082-1.18
		c0.668,0,1.183,0.186,1.543,0.555c0.359,0.371,0.539,0.941,0.539,1.712v4.627h-1.137v-4.246c0-0.457-0.037-0.786-0.11-0.987
		c-0.074-0.201-0.208-0.363-0.403-0.484c-0.195-0.123-0.424-0.186-0.686-0.186c-0.475,0-0.867,0.157-1.182,0.473
		c-0.313,0.316-0.47,0.82-0.47,1.516v3.916h-1.144V9.997c0-0.508-0.094-0.889-0.278-1.143s-0.49-0.381-0.914-0.381
		c-0.321,0-0.619,0.085-0.892,0.254c-0.273,0.17-0.473,0.418-0.594,0.743c-0.123,0.325-0.186,0.795-0.186,1.408v3.498H201.027z"/>
	<path fill="#FFFFFF" d="M216.255,13.545c-0.424,0.36-0.83,0.614-1.223,0.762c-0.391,0.147-0.812,0.224-1.26,0.224
		c-0.74,0-1.31-0.182-1.707-0.543c-0.398-0.361-0.598-0.824-0.598-1.388c0-0.329,0.075-0.632,0.227-0.903
		c0.149-0.273,0.347-0.492,0.59-0.658c0.244-0.164,0.518-0.289,0.822-0.373c0.225-0.061,0.563-0.117,1.016-0.172
		c0.922-0.11,1.602-0.241,2.037-0.395c0.005-0.156,0.007-0.256,0.007-0.298c0-0.466-0.108-0.794-0.323-0.983
		c-0.293-0.259-0.727-0.388-1.302-0.388c-0.538,0-0.935,0.095-1.19,0.282c-0.255,0.188-0.445,0.521-0.568,0.999l-1.116-0.152
		c0.103-0.478,0.271-0.864,0.502-1.157c0.231-0.295,0.569-0.521,1.01-0.68c0.438-0.158,0.949-0.238,1.529-0.238
		c0.575,0,1.043,0.067,1.401,0.203c0.36,0.137,0.625,0.307,0.795,0.512c0.168,0.205,0.287,0.465,0.354,0.776
		c0.038,0.195,0.058,0.548,0.058,1.056v1.522c0,1.062,0.023,1.733,0.072,2.015c0.049,0.282,0.145,0.553,0.289,0.811h-1.193
		C216.365,14.14,216.289,13.862,216.255,13.545z M216.16,10.993c-0.414,0.17-1.036,0.313-1.865,0.433
		c-0.471,0.067-0.803,0.144-0.997,0.229c-0.194,0.084-0.345,0.207-0.45,0.371c-0.105,0.162-0.158,0.344-0.158,0.543
		c0,0.305,0.114,0.559,0.346,0.762c0.23,0.203,0.568,0.305,1.013,0.305c0.438,0,0.832-0.098,1.174-0.289
		c0.345-0.191,0.597-0.456,0.757-0.791c0.123-0.258,0.184-0.639,0.184-1.143v-0.42H216.16z"/>
	<path fill="#FFFFFF" d="M219.062,14.377V5.071h1.143v9.306H219.062z"/>
	<path fill="#FFFFFF" d="M48.594,29.978v-0.852c-0.427,0.67-1.056,1.004-1.885,1.004c-0.538,0-1.032-0.148-1.482-0.443
		c-0.451-0.297-0.8-0.711-1.048-1.242c-0.247-0.531-0.371-1.143-0.371-1.83c0-0.674,0.112-1.283,0.336-1.832
		c0.224-0.547,0.561-0.969,1.009-1.26c0.449-0.293,0.95-0.438,1.504-0.438c0.406,0,0.768,0.086,1.085,0.256
		c0.317,0.172,0.576,0.396,0.774,0.67v-3.338h1.136v9.307h-1.058V29.978z M44.983,26.612c0,0.863,0.182,1.51,0.546,1.938
		c0.364,0.428,0.793,0.641,1.289,0.641c0.5,0,0.924-0.203,1.272-0.611c0.35-0.408,0.524-1.033,0.524-1.871
		c0-0.922-0.178-1.6-0.533-2.031c-0.355-0.43-0.793-0.645-1.314-0.645c-0.508,0-0.932,0.207-1.272,0.621
		C45.153,25.067,44.983,25.72,44.983,26.612z"/>
	<path fill="#FFFFFF" d="M56.066,27.806l1.181,0.146c-0.186,0.689-0.531,1.227-1.035,1.605c-0.504,0.381-1.147,0.572-1.93,0.572
		c-0.986,0-1.768-0.305-2.345-0.912c-0.578-0.605-0.867-1.459-0.867-2.555c0-1.133,0.292-2.014,0.876-2.641
		c0.584-0.625,1.341-0.939,2.272-0.939c0.901,0,1.638,0.307,2.209,0.922c0.571,0.613,0.857,1.477,0.857,2.59
		c0,0.066-0.002,0.168-0.006,0.305h-5.027c0.042,0.74,0.252,1.307,0.628,1.701c0.376,0.393,0.846,0.59,1.409,0.59
		c0.419,0,0.776-0.109,1.073-0.33S55.893,28.288,56.066,27.806z M52.314,25.96h3.764c-0.051-0.568-0.195-0.994-0.432-1.277
		c-0.364-0.439-0.836-0.658-1.416-0.658c-0.525,0-0.966,0.176-1.324,0.525C52.55,24.901,52.353,25.37,52.314,25.96z"/>
	<path fill="#FFFFFF" d="M58.225,27.966l1.13-0.178c0.063,0.451,0.24,0.799,0.53,1.041c0.29,0.24,0.695,0.361,1.216,0.361
		c0.525,0,0.914-0.107,1.168-0.32c0.254-0.215,0.381-0.465,0.381-0.752c0-0.26-0.112-0.463-0.336-0.609
		c-0.157-0.102-0.546-0.23-1.168-0.389c-0.838-0.211-1.418-0.395-1.743-0.549c-0.323-0.154-0.569-0.367-0.736-0.643
		c-0.167-0.271-0.25-0.572-0.25-0.902c0-0.303,0.069-0.58,0.207-0.836c0.137-0.256,0.325-0.469,0.562-0.639
		c0.178-0.131,0.42-0.24,0.727-0.332c0.307-0.092,0.636-0.137,0.987-0.137c0.529,0,0.993,0.076,1.394,0.229
		c0.399,0.152,0.695,0.357,0.885,0.619c0.19,0.26,0.322,0.607,0.394,1.043l-1.117,0.152c-0.051-0.346-0.198-0.617-0.441-0.813
		c-0.244-0.193-0.587-0.291-1.032-0.291c-0.525,0-0.899,0.086-1.124,0.26c-0.224,0.174-0.336,0.377-0.336,0.609
		c0,0.146,0.046,0.281,0.14,0.398c0.093,0.123,0.239,0.225,0.438,0.305c0.114,0.043,0.451,0.141,1.009,0.293
		c0.808,0.217,1.372,0.393,1.692,0.529c0.319,0.139,0.57,0.338,0.752,0.6c0.182,0.264,0.273,0.59,0.273,0.979
		c0,0.381-0.111,0.74-0.333,1.076c-0.222,0.336-0.542,0.598-0.961,0.779c-0.419,0.186-0.893,0.277-1.422,0.277
		c-0.876,0-1.543-0.182-2.002-0.547C58.645,29.22,58.352,28.681,58.225,27.966z"/>
	<path fill="#FFFFFF" d="M69.581,29.146c-0.423,0.359-0.831,0.613-1.222,0.762c-0.392,0.148-0.812,0.223-1.26,0.223
		c-0.741,0-1.31-0.18-1.708-0.543c-0.398-0.359-0.597-0.824-0.597-1.387c0-0.33,0.075-0.631,0.226-0.904
		c0.15-0.271,0.347-0.492,0.59-0.656c0.244-0.166,0.518-0.291,0.822-0.375c0.224-0.059,0.563-0.115,1.016-0.172
		c0.922-0.109,1.602-0.24,2.038-0.393c0.004-0.156,0.006-0.256,0.006-0.299c0-0.465-0.108-0.793-0.324-0.984
		c-0.292-0.258-0.726-0.387-1.301-0.387c-0.538,0-0.934,0.094-1.19,0.283c-0.256,0.188-0.445,0.52-0.568,0.998l-1.117-0.152
		c0.102-0.479,0.269-0.863,0.501-1.158c0.232-0.293,0.569-0.52,1.009-0.678c0.44-0.16,0.95-0.238,1.53-0.238
		c0.576,0,1.043,0.066,1.403,0.203c0.36,0.135,0.624,0.305,0.793,0.51s0.288,0.465,0.355,0.777c0.038,0.195,0.057,0.547,0.057,1.055
		v1.523c0,1.063,0.024,1.732,0.073,2.016c0.049,0.281,0.145,0.551,0.289,0.811h-1.193C69.69,29.739,69.613,29.464,69.581,29.146z
		 M69.484,26.595c-0.415,0.168-1.037,0.313-1.866,0.432c-0.47,0.066-0.802,0.145-0.997,0.229c-0.195,0.084-0.345,0.209-0.451,0.371
		c-0.106,0.164-0.159,0.344-0.159,0.543c0,0.305,0.115,0.561,0.346,0.762c0.231,0.203,0.568,0.307,1.013,0.307
		c0.44,0,0.832-0.098,1.174-0.289c0.342-0.193,0.595-0.457,0.755-0.791c0.123-0.258,0.184-0.641,0.184-1.145L69.484,26.595
		L69.484,26.595z"/>
	<path fill="#FFFFFF" d="M72.398,29.978v-6.74h1.028v1.021c0.262-0.479,0.504-0.795,0.727-0.945c0.222-0.152,0.466-0.23,0.733-0.23
		c0.385,0,0.776,0.123,1.174,0.369l-0.394,1.061c-0.279-0.166-0.559-0.248-0.838-0.248c-0.25,0-0.474,0.074-0.673,0.227
		c-0.199,0.15-0.341,0.357-0.425,0.625c-0.127,0.406-0.19,0.85-0.19,1.332v3.529H72.398z"/>
	<path fill="#FFFFFF" d="M76.728,29.978v-6.74h1.028v1.021c0.262-0.479,0.504-0.795,0.727-0.945c0.222-0.152,0.466-0.23,0.733-0.23
		c0.385,0,0.776,0.123,1.174,0.369l-0.394,1.061c-0.279-0.166-0.559-0.248-0.838-0.248c-0.25,0-0.474,0.074-0.673,0.227
		c-0.199,0.15-0.341,0.357-0.425,0.625c-0.127,0.406-0.19,0.85-0.19,1.332v3.529H76.728z"/>
	<path fill="#FFFFFF" d="M80.645,26.606c0-1.248,0.347-2.174,1.041-2.773c0.58-0.498,1.287-0.748,2.12-0.748
		c0.927,0,1.684,0.303,2.272,0.91c0.588,0.607,0.882,1.447,0.882,2.518c0,0.867-0.13,1.551-0.39,2.047
		c-0.261,0.496-0.639,0.885-1.137,1.158c-0.497,0.275-1.04,0.412-1.628,0.412c-0.944,0-1.707-0.303-2.288-0.908
		S80.645,27.745,80.645,26.606z M81.818,26.606c0,0.863,0.188,1.51,0.565,1.939c0.377,0.428,0.851,0.645,1.422,0.645
		c0.567,0,1.039-0.217,1.416-0.646c0.377-0.432,0.565-1.09,0.565-1.975c0-0.834-0.189-1.465-0.568-1.896
		c-0.378-0.43-0.849-0.643-1.412-0.643c-0.571,0-1.045,0.213-1.422,0.641S81.818,25.743,81.818,26.606z"/>
	<path fill="#FFFFFF" d="M88.274,29.978v-9.307h1.143v9.307H88.274z"/>
	<path fill="#FFFFFF" d="M91.163,29.978v-9.307h1.143v9.307H91.163z"/>
	<path fill="#FFFFFF" d="M93.65,26.606c0-1.248,0.347-2.174,1.041-2.773c0.58-0.498,1.287-0.748,2.12-0.748
		c0.927,0,1.684,0.303,2.272,0.91s0.882,1.447,0.882,2.518c0,0.867-0.13,1.551-0.39,2.047c-0.261,0.496-0.639,0.885-1.137,1.158
		c-0.497,0.275-1.04,0.412-1.628,0.412c-0.944,0-1.707-0.303-2.288-0.908S93.65,27.745,93.65,26.606z M94.824,26.606
		c0,0.863,0.188,1.51,0.565,1.939c0.377,0.428,0.851,0.645,1.422,0.645c0.567,0,1.039-0.217,1.416-0.646
		c0.377-0.432,0.565-1.09,0.565-1.975c0-0.834-0.189-1.465-0.568-1.896c-0.378-0.43-0.849-0.643-1.412-0.643
		c-0.571,0-1.045,0.213-1.422,0.641C95.013,25.099,94.824,25.743,94.824,26.606z"/>
	<path fill="#FFFFFF" d="M109.292,29.978v-0.852c-0.427,0.67-1.056,1.004-1.885,1.004c-0.538,0-1.032-0.148-1.482-0.443
		c-0.451-0.297-0.8-0.711-1.048-1.242c-0.247-0.531-0.371-1.143-0.371-1.83c0-0.674,0.112-1.283,0.336-1.832
		c0.224-0.547,0.561-0.969,1.009-1.26c0.449-0.293,0.95-0.438,1.504-0.438c0.406,0,0.768,0.086,1.085,0.256
		c0.317,0.172,0.576,0.396,0.774,0.67v-3.338h1.136v9.307h-1.058V29.978z M105.679,26.612c0,0.863,0.182,1.51,0.546,1.938
		c0.364,0.428,0.793,0.641,1.289,0.641c0.5,0,0.924-0.203,1.272-0.611c0.35-0.408,0.524-1.033,0.524-1.871
		c0-0.922-0.178-1.6-0.533-2.031c-0.355-0.43-0.793-0.645-1.314-0.645c-0.508,0-0.932,0.207-1.272,0.621
		C105.85,25.067,105.679,25.72,105.679,26.612z"/>
	<path fill="#FFFFFF" d="M116.762,27.806l1.181,0.146c-0.186,0.689-0.531,1.227-1.035,1.605c-0.504,0.381-1.147,0.572-1.93,0.572
		c-0.986,0-1.768-0.305-2.345-0.912c-0.578-0.605-0.867-1.459-0.867-2.555c0-1.133,0.292-2.014,0.876-2.641
		c0.584-0.625,1.341-0.939,2.272-0.939c0.901,0,1.638,0.307,2.209,0.922c0.571,0.613,0.857,1.477,0.857,2.59
		c0,0.066-0.002,0.168-0.006,0.305h-5.027c0.042,0.74,0.252,1.307,0.628,1.701c0.376,0.393,0.846,0.59,1.409,0.59
		c0.419,0,0.776-0.109,1.073-0.33C116.354,28.64,116.588,28.288,116.762,27.806z M113.01,25.96h3.764
		c-0.051-0.568-0.195-0.994-0.432-1.277c-0.364-0.439-0.836-0.658-1.416-0.658c-0.525,0-0.966,0.176-1.324,0.525
		C113.247,24.901,113.048,25.37,113.01,25.96z"/>
	<path fill="#FFFFFF" d="M119.353,29.978v-9.307h1.143v9.307H119.353z"/>
	<path fill="#FFFFFF" d="M125.877,32.562v-9.324h1.041v0.875c0.246-0.342,0.522-0.6,0.832-0.771c0.31-0.17,0.685-0.256,1.124-0.256
		c0.574,0,1.083,0.148,1.523,0.443c0.439,0.297,0.771,0.715,0.996,1.254s0.336,1.131,0.336,1.773c0,0.689-0.123,1.313-0.371,1.863
		c-0.248,0.553-0.606,0.977-1.08,1.27c-0.471,0.295-0.967,0.441-1.487,0.441c-0.382,0-0.724-0.08-1.024-0.242
		c-0.303-0.16-0.552-0.363-0.746-0.607v3.281H125.877L125.877,32.562z M126.913,26.646c0,0.867,0.176,1.508,0.526,1.924
		c0.352,0.414,0.776,0.621,1.276,0.621c0.507,0,0.942-0.215,1.304-0.645s0.543-1.096,0.543-1.996c0-0.859-0.177-1.502-0.529-1.93
		c-0.354-0.428-0.775-0.641-1.266-0.641c-0.488,0-0.918,0.227-1.293,0.682S126.913,25.778,126.913,26.646z"/>
	<path fill="#FFFFFF" d="M133.095,29.978v-6.74h1.027v1.021c0.263-0.479,0.505-0.795,0.729-0.945c0.221-0.152,0.465-0.23,0.732-0.23
		c0.385,0,0.775,0.123,1.174,0.369l-0.395,1.061c-0.278-0.166-0.559-0.248-0.838-0.248c-0.248,0-0.474,0.074-0.672,0.227
		c-0.199,0.15-0.342,0.357-0.427,0.625c-0.127,0.406-0.188,0.85-0.188,1.332v3.529H133.095z"/>
	<path fill="#FFFFFF" d="M137.011,26.606c0-1.248,0.348-2.174,1.041-2.773c0.58-0.498,1.287-0.748,2.12-0.748
		c0.927,0,1.685,0.303,2.272,0.91c0.586,0.607,0.883,1.447,0.883,2.518c0,0.867-0.131,1.551-0.391,2.047
		c-0.262,0.496-0.64,0.885-1.138,1.158c-0.497,0.275-1.039,0.412-1.628,0.412c-0.943,0-1.706-0.303-2.288-0.908
		C137.302,28.616,137.011,27.745,137.011,26.606z M138.185,26.606c0,0.863,0.189,1.51,0.565,1.939
		c0.376,0.428,0.851,0.645,1.422,0.645c0.567,0,1.039-0.217,1.415-0.646c0.377-0.432,0.564-1.09,0.564-1.975
		c0-0.834-0.188-1.465-0.567-1.896c-0.378-0.43-0.849-0.643-1.412-0.643c-0.571,0-1.046,0.213-1.422,0.641
		S138.185,25.743,138.185,26.606z"/>
	<path fill="#FFFFFF" d="M144.457,30.536l1.111,0.164c0.047,0.344,0.176,0.594,0.387,0.75c0.283,0.211,0.672,0.316,1.162,0.316
		c0.529,0,0.938-0.105,1.225-0.316c0.288-0.213,0.482-0.508,0.584-0.889c0.061-0.232,0.088-0.723,0.083-1.469
		c-0.499,0.59-1.122,0.883-1.866,0.883c-0.927,0-1.645-0.334-2.152-1.002c-0.506-0.67-0.762-1.471-0.762-2.404
		c0-0.645,0.117-1.238,0.351-1.781c0.233-0.545,0.569-0.965,1.012-1.26c0.442-0.297,0.963-0.445,1.56-0.445
		c0.795,0,1.451,0.322,1.969,0.965v-0.813h1.053v5.828c0,1.049-0.105,1.793-0.32,2.23c-0.213,0.438-0.553,0.783-1.016,1.037
		s-1.033,0.381-1.711,0.381c-0.805,0-1.453-0.182-1.948-0.543C144.679,31.808,144.441,31.263,144.457,30.536z M145.402,26.487
		c0,0.885,0.177,1.529,0.526,1.936c0.353,0.406,0.792,0.609,1.32,0.609c0.524,0,0.965-0.201,1.319-0.605
		c0.355-0.404,0.533-1.039,0.533-1.9c0-0.826-0.183-1.447-0.549-1.867c-0.365-0.418-0.807-0.627-1.322-0.627
		c-0.509,0-0.939,0.205-1.295,0.617C145.581,25.062,145.402,25.673,145.402,26.487z"/>
	<path fill="#FFFFFF" d="M151.884,29.978v-6.74h1.027v1.021c0.263-0.479,0.505-0.795,0.729-0.945c0.221-0.152,0.465-0.23,0.732-0.23
		c0.385,0,0.775,0.123,1.174,0.369l-0.395,1.061c-0.278-0.166-0.559-0.248-0.838-0.248c-0.248,0-0.474,0.074-0.672,0.227
		c-0.199,0.15-0.342,0.357-0.427,0.625c-0.127,0.406-0.188,0.85-0.188,1.332v3.529H151.884z"/>
	<path fill="#FFFFFF" d="M160.625,29.146c-0.424,0.359-0.83,0.613-1.223,0.762c-0.392,0.148-0.812,0.223-1.26,0.223
		c-0.74,0-1.31-0.18-1.707-0.543c-0.398-0.359-0.598-0.824-0.598-1.387c0-0.33,0.075-0.631,0.227-0.904
		c0.149-0.271,0.346-0.492,0.59-0.656c0.244-0.166,0.518-0.291,0.822-0.375c0.225-0.059,0.563-0.115,1.016-0.172
		c0.922-0.109,1.602-0.24,2.037-0.393c0.004-0.156,0.006-0.256,0.006-0.299c0-0.465-0.107-0.793-0.322-0.984
		c-0.293-0.258-0.727-0.387-1.303-0.387c-0.537,0-0.934,0.094-1.189,0.283c-0.255,0.188-0.445,0.52-0.568,0.998l-1.117-0.152
		c0.103-0.479,0.271-0.863,0.503-1.158c0.231-0.293,0.569-0.52,1.01-0.678c0.438-0.16,0.949-0.238,1.528-0.238
		c0.576,0,1.044,0.066,1.402,0.203c0.36,0.135,0.625,0.305,0.795,0.51c0.168,0.205,0.287,0.465,0.354,0.777
		c0.038,0.195,0.058,0.547,0.058,1.055v1.523c0,1.063,0.023,1.732,0.072,2.016c0.049,0.281,0.145,0.551,0.289,0.811h-1.193
		C160.734,29.739,160.658,29.464,160.625,29.146z M160.529,26.595c-0.414,0.168-1.037,0.313-1.865,0.432
		c-0.471,0.066-0.803,0.145-0.997,0.229s-0.345,0.209-0.45,0.371c-0.105,0.164-0.158,0.344-0.158,0.543
		c0,0.305,0.114,0.561,0.346,0.762c0.23,0.203,0.567,0.307,1.013,0.307c0.438,0,0.832-0.098,1.174-0.289
		c0.345-0.193,0.597-0.457,0.756-0.791c0.123-0.258,0.185-0.641,0.185-1.145v-0.418H160.529z"/>
	<path fill="#FFFFFF" d="M163.456,29.978v-6.74h1.022v0.945c0.211-0.33,0.491-0.596,0.844-0.797c0.352-0.201,0.75-0.303,1.199-0.303
		c0.5,0,0.908,0.105,1.229,0.313s0.545,0.496,0.676,0.869c0.533-0.787,1.229-1.182,2.082-1.182c0.669,0,1.184,0.188,1.543,0.557
		s0.539,0.939,0.539,1.711v4.627h-1.136v-4.246c0-0.457-0.037-0.785-0.11-0.986c-0.074-0.201-0.209-0.363-0.404-0.486
		c-0.193-0.123-0.422-0.184-0.686-0.184c-0.475,0-0.867,0.156-1.18,0.473c-0.313,0.314-0.471,0.82-0.471,1.516v3.916h-1.144v-4.381
		c0-0.508-0.093-0.889-0.279-1.143s-0.489-0.381-0.913-0.381c-0.322,0-0.619,0.084-0.892,0.254
		c-0.272,0.168-0.472,0.416-0.595,0.742s-0.185,0.795-0.185,1.408v3.498H163.456z"/>
	<path fill="#FFFFFF" d="M178.683,29.146c-0.423,0.359-0.83,0.613-1.221,0.762c-0.393,0.148-0.813,0.223-1.262,0.223
		c-0.74,0-1.309-0.18-1.707-0.543c-0.397-0.359-0.596-0.824-0.596-1.387c0-0.33,0.074-0.631,0.225-0.904
		c0.15-0.271,0.348-0.492,0.59-0.656c0.244-0.166,0.518-0.291,0.822-0.375c0.225-0.059,0.563-0.115,1.016-0.172
		c0.924-0.109,1.602-0.24,2.038-0.393c0.005-0.156,0.007-0.256,0.007-0.299c0-0.465-0.107-0.793-0.324-0.984
		c-0.291-0.258-0.726-0.387-1.301-0.387c-0.537,0-0.935,0.094-1.191,0.283c-0.256,0.188-0.444,0.52-0.566,0.998l-1.117-0.152
		c0.102-0.479,0.27-0.863,0.502-1.158c0.232-0.293,0.569-0.52,1.01-0.678c0.438-0.16,0.949-0.238,1.528-0.238
		c0.576,0,1.043,0.066,1.403,0.203c0.359,0.135,0.624,0.305,0.794,0.51c0.169,0.205,0.287,0.465,0.354,0.777
		c0.037,0.195,0.058,0.547,0.058,1.055v1.523c0,1.063,0.024,1.732,0.071,2.016c0.049,0.281,0.146,0.551,0.289,0.811h-1.192
		C178.793,29.739,178.717,29.464,178.683,29.146z M178.588,26.595c-0.415,0.168-1.036,0.313-1.866,0.432
		c-0.47,0.066-0.802,0.145-0.996,0.229c-0.195,0.084-0.346,0.209-0.451,0.371c-0.104,0.164-0.158,0.344-0.158,0.543
		c0,0.305,0.115,0.561,0.347,0.762c0.231,0.203,0.567,0.307,1.013,0.307c0.439,0,0.832-0.098,1.174-0.289
		c0.344-0.193,0.596-0.457,0.756-0.791c0.123-0.258,0.185-0.641,0.185-1.145v-0.418H178.588z"/>
</g>
<g>
	<path fill="#FFFFFF" d="M30.901,23.687c-2.712,0-4.918-2.207-4.918-4.919s2.207-4.918,4.918-4.918s4.918,2.206,4.918,4.918
		S33.613,23.687,30.901,23.687z M30.901,14.85c-2.161,0-3.918,1.759-3.918,3.918s1.758,3.919,3.918,3.919s3.918-1.76,3.918-3.919
		S33.063,14.85,30.901,14.85z"/>
</g>
</svg>
