<?xml version="1.0" encoding="utf-8"?>
<!-- Generator: Adobe Illustrator 16.0.0, SVG Export Plug-In . SVG Version: 6.00 Build 0)  -->
<!DOCTYPE svg PUBLIC "-//W3C//DTD SVG 1.1//EN" "http://www.w3.org/Graphics/SVG/1.1/DTD/svg11.dtd">
<svg version="1.1" id="Capa_1" xmlns="http://www.w3.org/2000/svg" xmlns:xlink="http://www.w3.org/1999/xlink" x="0px" y="0px"
	 width="233.319px" height="30.473px" viewBox="0 0 233.319 30.473" enable-background="new 0 0 233.319 30.473"
	 xml:space="preserve">
<line opacity="0.5" fill="none" stroke="#FFFFFF" stroke-miterlimit="10" x1="0" y1="29.973" x2="233.319" y2="29.973"/>
<line opacity="0.5" fill="none" stroke="#FFFFFF" stroke-miterlimit="10" x1="0" y1="0.5" x2="233.319" y2="0.5"/>
<rect y="2.348" fill="#FFE8C7" width="233.319" height="25.623"/>
<g>
	<path fill="#002549" d="M48.133,18.302l1.111-0.152c0.03,0.711,0.163,1.198,0.4,1.46s0.565,0.394,0.984,0.394
		c0.309,0,0.576-0.071,0.8-0.213s0.379-0.334,0.463-0.577c0.084-0.244,0.127-0.632,0.127-1.165v-6.411h1.231v6.342
		c0,0.778-0.094,1.381-0.283,1.809c-0.188,0.428-0.486,0.754-0.895,0.978c-0.409,0.224-0.888,0.337-1.438,0.337
		c-0.817,0-1.442-0.235-1.875-0.705C48.325,19.927,48.116,19.229,48.133,18.302z"/>
	<path fill="#002549" d="M59.534,20.942v-0.99c-0.525,0.762-1.238,1.143-2.139,1.143c-0.398,0-0.769-0.076-1.114-0.229
		c-0.345-0.152-0.601-0.344-0.768-0.574c-0.167-0.231-0.285-0.513-0.353-0.848c-0.046-0.224-0.07-0.579-0.07-1.066v-4.177h1.143
		v3.738c0,0.598,0.023,0.999,0.07,1.207c0.072,0.3,0.224,0.536,0.457,0.707c0.233,0.172,0.521,0.258,0.863,0.258
		s0.665-0.088,0.965-0.264s0.513-0.415,0.638-0.718c0.125-0.302,0.188-0.741,0.188-1.317v-3.611h1.143v6.741H59.534z"/>
	<path fill="#002549" d="M61.889,18.93l1.13-0.178c0.063,0.453,0.24,0.801,0.53,1.041c0.29,0.242,0.695,0.362,1.216,0.362
		c0.525,0,0.914-0.106,1.168-0.32s0.381-0.465,0.381-0.753c0-0.258-0.112-0.461-0.336-0.609c-0.157-0.102-0.546-0.23-1.168-0.387
		c-0.838-0.211-1.418-0.395-1.743-0.549c-0.323-0.154-0.569-0.368-0.736-0.642c-0.167-0.272-0.25-0.574-0.25-0.904
		c0-0.3,0.069-0.579,0.207-0.835c0.137-0.256,0.325-0.468,0.562-0.638c0.178-0.131,0.42-0.242,0.727-0.333
		c0.307-0.091,0.636-0.137,0.987-0.137c0.529,0,0.993,0.076,1.394,0.229c0.399,0.152,0.695,0.358,0.885,0.619
		c0.19,0.26,0.322,0.608,0.394,1.044l-1.117,0.152c-0.051-0.347-0.198-0.618-0.441-0.813c-0.244-0.195-0.587-0.292-1.032-0.292
		c-0.525,0-0.899,0.087-1.124,0.26s-0.336,0.376-0.336,0.609c0,0.148,0.046,0.281,0.14,0.4c0.093,0.123,0.239,0.225,0.438,0.305
		c0.114,0.043,0.451,0.14,1.009,0.292c0.808,0.216,1.372,0.393,1.692,0.53c0.319,0.137,0.57,0.338,0.752,0.6
		s0.273,0.588,0.273,0.978c0,0.381-0.111,0.739-0.333,1.076c-0.222,0.336-0.542,0.597-0.961,0.78
		c-0.419,0.185-0.893,0.276-1.422,0.276c-0.876,0-1.543-0.183-2.002-0.546C62.309,20.186,62.016,19.646,61.889,18.93z"/>
	<path fill="#002549" d="M71.34,19.92l0.165,1.01c-0.322,0.068-0.609,0.102-0.863,0.102c-0.415,0-0.736-0.065-0.965-0.197
		c-0.229-0.131-0.389-0.303-0.482-0.517s-0.14-0.663-0.14-1.349V15.09h-0.838v-0.889h0.838v-1.669l1.136-0.686v2.355h1.149v0.889
		h-1.149v3.941c0,0.326,0.02,0.535,0.06,0.629c0.041,0.094,0.106,0.167,0.197,0.223c0.091,0.055,0.221,0.082,0.39,0.082
		C70.966,19.965,71.133,19.95,71.34,19.92z"/>
	<path fill="#002549" d="M72.464,12.951v-1.314h1.143v1.314H72.464z M72.464,20.942v-6.741h1.143v6.741H72.464z"/>
	<path fill="#002549" d="M75.619,20.942V15.09h-1.009v-0.889h1.009v-0.717c0-0.453,0.04-0.789,0.121-1.009
		c0.11-0.296,0.304-0.536,0.581-0.721c0.277-0.184,0.666-0.276,1.165-0.276c0.322,0,0.677,0.038,1.066,0.114l-0.171,0.997
		c-0.237-0.042-0.461-0.063-0.673-0.063c-0.347,0-0.592,0.074-0.736,0.222s-0.216,0.425-0.216,0.832v0.622h1.314v0.889h-1.314v5.853
		H75.619z"/>
	<path fill="#002549" d="M78.964,12.951v-1.314h1.143v1.314H78.964z M78.964,20.942v-6.741h1.143v6.741H78.964z"/>
	<path fill="#002549" d="M86.245,18.473l1.124,0.146c-0.123,0.774-0.437,1.381-0.943,1.818c-0.505,0.438-1.126,0.657-1.863,0.657
		c-0.922,0-1.664-0.302-2.225-0.904c-0.561-0.604-0.841-1.468-0.841-2.593c0-0.729,0.121-1.365,0.362-1.911s0.608-0.955,1.101-1.229
		c0.493-0.272,1.03-0.409,1.609-0.409c0.732,0,1.331,0.185,1.796,0.556c0.465,0.37,0.764,0.896,0.895,1.577l-1.111,0.172
		c-0.106-0.453-0.293-0.794-0.562-1.022c-0.269-0.229-0.593-0.343-0.974-0.343c-0.576,0-1.043,0.206-1.403,0.619
		c-0.36,0.412-0.54,1.064-0.54,1.958c0,0.905,0.173,1.563,0.521,1.974c0.347,0.411,0.8,0.616,1.358,0.616
		c0.449,0,0.823-0.138,1.124-0.413C85.974,19.468,86.164,19.045,86.245,18.473z"/>
	<path fill="#002549" d="M92.745,20.111c-0.423,0.359-0.831,0.613-1.222,0.762c-0.392,0.147-0.812,0.222-1.26,0.222
		c-0.741,0-1.31-0.181-1.708-0.543c-0.398-0.361-0.597-0.823-0.597-1.387c0-0.33,0.075-0.632,0.226-0.904
		c0.15-0.273,0.347-0.492,0.59-0.657c0.244-0.165,0.518-0.29,0.822-0.375c0.224-0.059,0.563-0.115,1.016-0.171
		c0.922-0.11,1.602-0.241,2.038-0.394c0.004-0.156,0.006-0.256,0.006-0.299c0-0.465-0.108-0.793-0.324-0.983
		c-0.292-0.258-0.726-0.387-1.301-0.387c-0.538,0-0.934,0.094-1.19,0.283c-0.256,0.188-0.445,0.521-0.568,1l-1.117-0.152
		c0.102-0.479,0.269-0.865,0.501-1.159c0.233-0.294,0.569-0.521,1.009-0.679c0.44-0.159,0.95-0.238,1.53-0.238
		c0.576,0,1.043,0.068,1.403,0.203s0.624,0.306,0.793,0.511c0.169,0.206,0.288,0.465,0.355,0.778
		c0.038,0.195,0.057,0.545,0.057,1.053v1.523c0,1.063,0.024,1.734,0.073,2.016c0.049,0.281,0.145,0.551,0.289,0.81h-1.193
		C92.854,20.705,92.778,20.428,92.745,20.111z M92.649,17.559c-0.415,0.17-1.037,0.313-1.866,0.432
		c-0.47,0.068-0.802,0.145-0.997,0.229c-0.195,0.085-0.345,0.209-0.451,0.372s-0.159,0.344-0.159,0.542
		c0,0.305,0.115,0.559,0.346,0.762c0.231,0.203,0.568,0.305,1.013,0.305c0.44,0,0.832-0.096,1.174-0.288s0.595-0.456,0.755-0.79
		c0.123-0.259,0.184-0.64,0.184-1.143V17.559z"/>
	<path fill="#002549" d="M99.975,18.473l1.124,0.146c-0.123,0.774-0.437,1.381-0.943,1.818c-0.505,0.438-1.126,0.657-1.863,0.657
		c-0.922,0-1.664-0.302-2.225-0.904c-0.561-0.604-0.841-1.468-0.841-2.593c0-0.729,0.121-1.365,0.362-1.911s0.608-0.955,1.101-1.229
		c0.493-0.272,1.03-0.409,1.609-0.409c0.732,0,1.331,0.185,1.796,0.556c0.465,0.37,0.764,0.896,0.895,1.577l-1.111,0.172
		c-0.106-0.453-0.293-0.794-0.562-1.022c-0.269-0.229-0.593-0.343-0.974-0.343c-0.576,0-1.043,0.206-1.403,0.619
		c-0.36,0.412-0.54,1.064-0.54,1.958c0,0.905,0.173,1.563,0.521,1.974c0.347,0.411,0.8,0.616,1.358,0.616
		c0.449,0,0.823-0.138,1.124-0.413C99.704,19.468,99.894,19.045,99.975,18.473z"/>
	<path fill="#002549" d="M102.082,12.951v-1.314h1.143v1.314H102.082z M102.082,20.942v-6.741h1.143v6.741H102.082z"/>
	<path fill="#002549" d="M104.539,17.572c0-1.249,0.347-2.173,1.041-2.774c0.58-0.5,1.287-0.749,2.12-0.749
		c0.927,0,1.684,0.304,2.272,0.911c0.588,0.607,0.882,1.446,0.882,2.517c0,0.867-0.13,1.55-0.39,2.047
		c-0.261,0.498-0.639,0.884-1.137,1.158c-0.497,0.275-1.04,0.413-1.628,0.413c-0.944,0-1.707-0.303-2.288-0.907
		C104.83,19.582,104.539,18.71,104.539,17.572z M105.713,17.572c0,0.863,0.188,1.51,0.565,1.938c0.376,0.43,0.851,0.645,1.422,0.645
		c0.567,0,1.039-0.216,1.416-0.647s0.565-1.09,0.565-1.975c0-0.833-0.189-1.465-0.568-1.895c-0.378-0.429-0.849-0.644-1.412-0.644
		c-0.571,0-1.045,0.214-1.422,0.641C105.901,16.063,105.713,16.709,105.713,17.572z M107.065,13.363l0.844-1.777h1.498l-1.396,1.777
		H107.065z"/>
	<path fill="#002549" d="M112.194,20.942v-6.741h1.028v0.958c0.495-0.741,1.21-1.111,2.146-1.111c0.406,0,0.78,0.073,1.121,0.219
		c0.34,0.146,0.595,0.338,0.765,0.575c0.17,0.237,0.287,0.519,0.355,0.844c0.043,0.211,0.063,0.582,0.063,1.11v4.146h-1.143v-4.101
		c0-0.465-0.044-0.813-0.133-1.044c-0.089-0.231-0.247-0.415-0.473-0.553c-0.226-0.137-0.492-0.206-0.796-0.206
		c-0.487,0-0.907,0.154-1.26,0.463c-0.353,0.309-0.53,0.895-0.53,1.758v3.682H112.194z"/>
	<path fill="#002549" d="M127.409,20.942v-0.851c-0.428,0.668-1.056,1.003-1.885,1.003c-0.538,0-1.032-0.147-1.482-0.444
		c-0.451-0.297-0.8-0.71-1.048-1.241c-0.247-0.53-0.371-1.142-0.371-1.831c0-0.673,0.112-1.283,0.337-1.831
		c0.224-0.548,0.561-0.968,1.009-1.26s0.95-0.438,1.505-0.438c0.406,0,0.768,0.086,1.085,0.257c0.317,0.172,0.575,0.395,0.774,0.67
		v-3.339h1.137v9.306H127.409z M123.798,17.578c0,0.863,0.182,1.509,0.545,1.936c0.364,0.428,0.794,0.642,1.289,0.642
		c0.5,0,0.924-0.204,1.272-0.612c0.35-0.408,0.524-1.031,0.524-1.869c0-0.923-0.178-1.6-0.533-2.032
		c-0.355-0.432-0.794-0.647-1.314-0.647c-0.508,0-0.932,0.208-1.272,0.622S123.798,16.686,123.798,17.578z"/>
	<path fill="#002549" d="M134.88,18.771l1.182,0.146c-0.187,0.689-0.531,1.225-1.035,1.605s-1.146,0.571-1.93,0.571
		c-0.986,0-1.768-0.304-2.346-0.911s-0.866-1.459-0.866-2.555c0-1.135,0.292-2.014,0.876-2.641s1.342-0.939,2.272-0.939
		c0.901,0,1.638,0.307,2.209,0.92s0.856,1.477,0.856,2.589c0,0.068-0.002,0.17-0.006,0.305h-5.027
		c0.043,0.741,0.252,1.309,0.629,1.701c0.376,0.395,0.846,0.591,1.408,0.591c0.42,0,0.777-0.11,1.073-0.33
		S134.707,19.254,134.88,18.771z M131.129,16.924h3.765c-0.051-0.566-0.195-0.992-0.432-1.275c-0.364-0.44-0.836-0.66-1.416-0.66
		c-0.525,0-0.966,0.176-1.324,0.527C131.364,15.866,131.167,16.336,131.129,16.924z"/>
	<path fill="#002549" d="M137.47,20.942v-9.306h1.143v9.306H137.47z"/>
	<path fill="#002549" d="M143.995,23.525v-9.324h1.041v0.876c0.246-0.343,0.523-0.6,0.832-0.771
		c0.309-0.171,0.684-0.257,1.123-0.257c0.576,0,1.084,0.148,1.523,0.444c0.44,0.296,0.773,0.714,0.997,1.254
		c0.224,0.539,0.337,1.131,0.337,1.774c0,0.689-0.124,1.311-0.372,1.862c-0.247,0.553-0.606,0.976-1.079,1.27
		c-0.472,0.294-0.968,0.441-1.488,0.441c-0.381,0-0.723-0.081-1.025-0.241s-0.551-0.363-0.746-0.609v3.281H143.995z M145.03,17.609
		c0,0.868,0.176,1.51,0.527,1.924c0.351,0.414,0.775,0.622,1.275,0.622c0.508,0,0.942-0.215,1.305-0.645
		c0.361-0.429,0.543-1.095,0.543-1.996c0-0.858-0.178-1.503-0.53-1.93c-0.354-0.427-0.776-0.641-1.267-0.641
		c-0.486,0-0.917,0.228-1.292,0.682C145.218,16.081,145.03,16.742,145.03,17.609z"/>
	<path fill="#002549" d="M151.213,20.942v-6.741h1.028v1.022c0.262-0.478,0.504-0.793,0.727-0.946s0.467-0.229,0.733-0.229
		c0.386,0,0.776,0.123,1.175,0.368l-0.395,1.06c-0.279-0.165-0.559-0.248-0.838-0.248c-0.249,0-0.474,0.075-0.672,0.226
		c-0.199,0.15-0.342,0.358-0.426,0.625c-0.127,0.406-0.19,0.851-0.19,1.333v3.529H151.213z"/>
	<path fill="#002549" d="M155.13,17.572c0-1.249,0.347-2.173,1.041-2.774c0.58-0.5,1.287-0.749,2.119-0.749
		c0.928,0,1.686,0.304,2.273,0.911c0.588,0.607,0.883,1.446,0.883,2.517c0,0.867-0.131,1.55-0.391,2.047
		c-0.262,0.498-0.639,0.884-1.137,1.158c-0.498,0.275-1.039,0.413-1.629,0.413c-0.943,0-1.705-0.303-2.287-0.907
		C155.421,19.582,155.13,18.71,155.13,17.572z M156.304,17.572c0,0.863,0.189,1.51,0.564,1.938c0.377,0.43,0.852,0.645,1.422,0.645
		c0.568,0,1.039-0.216,1.416-0.647s0.564-1.09,0.564-1.975c0-0.833-0.189-1.465-0.568-1.895c-0.377-0.429-0.848-0.644-1.412-0.644
		c-0.57,0-1.045,0.214-1.422,0.641C156.493,16.063,156.304,16.709,156.304,17.572z"/>
	<path fill="#002549" d="M162.575,21.501l1.111,0.165c0.047,0.343,0.176,0.592,0.387,0.749c0.283,0.212,0.672,0.317,1.162,0.317
		c0.529,0,0.938-0.105,1.225-0.317s0.482-0.508,0.584-0.889c0.059-0.233,0.088-0.722,0.082-1.466
		c-0.498,0.588-1.121,0.882-1.865,0.882c-0.928,0-1.645-0.335-2.152-1.003s-0.762-1.471-0.762-2.406c0-0.643,0.117-1.236,0.35-1.78
		c0.232-0.543,0.57-0.963,1.012-1.26c0.443-0.296,0.963-0.444,1.559-0.444c0.795,0,1.451,0.322,1.969,0.965v-0.813h1.053v5.827
		c0,1.05-0.107,1.793-0.32,2.231c-0.213,0.438-0.553,0.783-1.016,1.037s-1.033,0.381-1.711,0.381c-0.805,0-1.453-0.181-1.949-0.542
		C162.798,22.773,162.558,22.229,162.575,21.501z M163.521,17.451c0,0.885,0.176,1.529,0.527,1.936s0.791,0.609,1.32,0.609
		c0.525,0,0.965-0.201,1.32-0.605s0.533-1.038,0.533-1.901c0-0.825-0.184-1.447-0.549-1.866s-0.807-0.628-1.324-0.628
		c-0.508,0-0.939,0.207-1.295,0.619C163.698,16.026,163.521,16.639,163.521,17.451z"/>
	<path fill="#002549" d="M170.003,20.942v-6.741h1.027v1.022c0.262-0.478,0.504-0.793,0.727-0.946s0.467-0.229,0.734-0.229
		c0.385,0,0.775,0.123,1.174,0.368l-0.395,1.06c-0.279-0.165-0.559-0.248-0.838-0.248c-0.248,0-0.473,0.075-0.672,0.226
		c-0.199,0.15-0.342,0.358-0.426,0.625c-0.127,0.406-0.189,0.851-0.189,1.333v3.529H170.003z"/>
	<path fill="#002549" d="M178.743,20.111c-0.424,0.359-0.83,0.613-1.223,0.762c-0.391,0.147-0.811,0.222-1.26,0.222
		c-0.74,0-1.309-0.181-1.707-0.543c-0.398-0.361-0.598-0.823-0.598-1.387c0-0.33,0.076-0.632,0.227-0.904
		c0.15-0.273,0.346-0.492,0.59-0.657s0.518-0.29,0.822-0.375c0.225-0.059,0.563-0.115,1.016-0.171
		c0.922-0.11,1.602-0.241,2.037-0.394c0.004-0.156,0.006-0.256,0.006-0.299c0-0.465-0.107-0.793-0.322-0.983
		c-0.293-0.258-0.727-0.387-1.303-0.387c-0.537,0-0.934,0.094-1.189,0.283c-0.256,0.188-0.445,0.521-0.568,1l-1.117-0.152
		c0.102-0.479,0.27-0.865,0.502-1.159c0.232-0.294,0.568-0.521,1.01-0.679c0.439-0.159,0.949-0.238,1.529-0.238
		c0.576,0,1.043,0.068,1.402,0.203s0.625,0.306,0.793,0.511c0.17,0.206,0.289,0.465,0.355,0.778
		c0.039,0.195,0.059,0.545,0.059,1.053v1.523c0,1.063,0.023,1.734,0.072,2.016s0.145,0.551,0.289,0.81h-1.193
		C178.853,20.705,178.776,20.428,178.743,20.111z M178.647,17.559c-0.414,0.17-1.037,0.313-1.865,0.432
		c-0.471,0.068-0.803,0.145-0.998,0.229c-0.193,0.085-0.344,0.209-0.449,0.372c-0.107,0.163-0.16,0.344-0.16,0.542
		c0,0.305,0.115,0.559,0.346,0.762c0.232,0.203,0.568,0.305,1.014,0.305c0.439,0,0.832-0.096,1.174-0.288
		c0.344-0.192,0.596-0.456,0.756-0.79c0.123-0.259,0.184-0.64,0.184-1.143V17.559z"/>
	<path fill="#002549" d="M181.573,20.942v-6.741h1.023v0.946c0.211-0.33,0.492-0.596,0.844-0.796
		c0.352-0.201,0.75-0.302,1.199-0.302c0.5,0,0.908,0.104,1.229,0.311s0.545,0.497,0.676,0.87c0.533-0.787,1.227-1.181,2.082-1.181
		c0.668,0,1.184,0.185,1.543,0.556c0.359,0.37,0.539,0.94,0.539,1.71v4.628h-1.137v-4.247c0-0.457-0.037-0.786-0.109-0.986
		c-0.074-0.201-0.209-0.363-0.404-0.486s-0.424-0.184-0.686-0.184c-0.475,0-0.867,0.158-1.18,0.473
		c-0.314,0.315-0.471,0.82-0.471,1.514v3.917h-1.143v-4.38c0-0.508-0.094-0.889-0.279-1.143s-0.49-0.381-0.914-0.381
		c-0.322,0-0.619,0.084-0.891,0.254c-0.273,0.169-0.473,0.417-0.594,0.742c-0.123,0.326-0.186,0.796-0.186,1.41v3.497H181.573z"/>
	<path fill="#002549" d="M196.802,20.111c-0.424,0.359-0.83,0.613-1.221,0.762c-0.393,0.147-0.813,0.222-1.262,0.222
		c-0.74,0-1.309-0.181-1.707-0.543c-0.398-0.361-0.596-0.823-0.596-1.387c0-0.33,0.074-0.632,0.225-0.904
		c0.15-0.273,0.348-0.492,0.59-0.657c0.244-0.165,0.518-0.29,0.822-0.375c0.225-0.059,0.563-0.115,1.016-0.171
		c0.922-0.11,1.602-0.241,2.037-0.394c0.006-0.156,0.008-0.256,0.008-0.299c0-0.465-0.109-0.793-0.324-0.983
		c-0.293-0.258-0.727-0.387-1.301-0.387c-0.539,0-0.936,0.094-1.191,0.283c-0.256,0.188-0.445,0.521-0.568,1l-1.117-0.152
		c0.102-0.479,0.27-0.865,0.502-1.159c0.232-0.294,0.57-0.521,1.01-0.679c0.439-0.159,0.949-0.238,1.529-0.238
		c0.576,0,1.043,0.068,1.402,0.203c0.361,0.135,0.625,0.306,0.795,0.511c0.168,0.206,0.287,0.465,0.355,0.778
		c0.037,0.195,0.057,0.545,0.057,1.053v1.523c0,1.063,0.023,1.734,0.072,2.016s0.145,0.551,0.289,0.81h-1.193
		C196.911,20.705,196.835,20.428,196.802,20.111z M196.706,17.559c-0.414,0.17-1.035,0.313-1.865,0.432
		c-0.471,0.068-0.803,0.145-0.996,0.229c-0.195,0.085-0.346,0.209-0.451,0.372s-0.158,0.344-0.158,0.542
		c0,0.305,0.115,0.559,0.346,0.762s0.568,0.305,1.012,0.305c0.439,0,0.832-0.096,1.174-0.288c0.344-0.192,0.596-0.456,0.756-0.79
		c0.123-0.259,0.184-0.64,0.184-1.143V17.559z"/>
</g>
<circle fill="#FFFFFF" stroke="#FFCC73" stroke-miterlimit="10" cx="33.321" cy="16.619" r="4.418"/>
</svg>
