<?xml version="1.0" encoding="utf-8"?>
<!-- Generator: Adobe Illustrator 16.0.0, SVG Export Plug-In . SVG Version: 6.00 Build 0)  -->
<!DOCTYPE svg PUBLIC "-//W3C//DTD SVG 1.1//EN" "http://www.w3.org/Graphics/SVG/1.1/DTD/svg11.dtd">
<svg version="1.1" id="Capa_1" xmlns="http://www.w3.org/2000/svg" xmlns:xlink="http://www.w3.org/1999/xlink" x="0px" y="0px"
	 width="233.319px" height="40.169px" viewBox="0 0 233.319 40.169" enable-background="new 0 0 233.319 40.169"
	 xml:space="preserve">
<g opacity="0.5">
	<rect x="39.171" fill="#FFFFFF" width="181.75" height="1"/>
</g>
<g opacity="0.5">
	<rect x="39.171" y="39.169" fill="#FFFFFF" width="181.75" height="1"/>
</g>
<g>
	<path fill="#FFFFFF" d="M44.393,15.746V6.439h6.729v1.098h-5.497v2.851h5.148v1.093h-5.148v3.166h5.713v1.098h-6.945V15.746z"/>
	<path fill="#FFFFFF" d="M52.436,13.734l1.13-0.179c0.063,0.453,0.24,0.8,0.53,1.041s0.695,0.362,1.216,0.362
		c0.525,0,0.914-0.107,1.168-0.32c0.254-0.214,0.381-0.465,0.381-0.752c0-0.258-0.112-0.461-0.336-0.609
		c-0.157-0.102-0.546-0.229-1.168-0.387c-0.838-0.211-1.418-0.395-1.743-0.549c-0.323-0.154-0.569-0.368-0.736-0.643
		c-0.167-0.271-0.25-0.574-0.25-0.903c0-0.3,0.069-0.579,0.207-0.835c0.137-0.256,0.325-0.469,0.562-0.639
		c0.178-0.131,0.42-0.242,0.727-0.332c0.307-0.092,0.636-0.138,0.987-0.138c0.529,0,0.993,0.076,1.394,0.229
		c0.399,0.152,0.695,0.357,0.885,0.619c0.19,0.26,0.322,0.607,0.394,1.043l-1.117,0.152c-0.051-0.347-0.198-0.617-0.441-0.813
		c-0.244-0.195-0.587-0.293-1.032-0.293c-0.525,0-0.899,0.088-1.124,0.261s-0.336,0.376-0.336,0.608c0,0.148,0.046,0.281,0.14,0.4
		c0.093,0.123,0.239,0.225,0.438,0.305c0.114,0.043,0.451,0.141,1.009,0.293c0.808,0.215,1.372,0.393,1.692,0.529
		c0.319,0.137,0.57,0.338,0.752,0.6c0.182,0.264,0.273,0.588,0.273,0.979c0,0.381-0.111,0.739-0.333,1.076
		c-0.222,0.336-0.542,0.598-0.961,0.779c-0.419,0.186-0.893,0.277-1.422,0.277c-0.876,0-1.543-0.183-2.002-0.547
		C52.855,14.988,52.563,14.449,52.436,13.734z"/>
	<path fill="#FFFFFF" d="M59.393,18.33V9.005h1.041v0.876c0.246-0.344,0.522-0.6,0.832-0.771c0.309-0.17,0.684-0.257,1.124-0.257
		c0.576,0,1.083,0.147,1.523,0.444c0.44,0.296,0.772,0.714,0.997,1.254c0.224,0.539,0.336,1.131,0.336,1.773
		c0,0.69-0.124,1.312-0.372,1.863c-0.247,0.553-0.607,0.977-1.079,1.27c-0.472,0.295-0.968,0.441-1.488,0.441
		c-0.381,0-0.723-0.08-1.025-0.24c-0.302-0.162-0.551-0.365-0.746-0.609v3.281H59.393L59.393,18.33z M60.426,12.414
		c0,0.867,0.176,1.509,0.527,1.923c0.351,0.413,0.776,0.622,1.276,0.622c0.508,0,0.942-0.215,1.305-0.645
		c0.361-0.43,0.542-1.096,0.542-1.996c0-0.859-0.177-1.502-0.53-1.931c-0.354-0.427-0.776-0.642-1.267-0.642
		c-0.487,0-0.917,0.229-1.292,0.683C60.614,10.885,60.426,11.546,60.426,12.414z"/>
	<path fill="#FFFFFF" d="M71.021,14.914c-0.423,0.361-0.831,0.615-1.222,0.763c-0.392,0.147-0.812,0.222-1.26,0.222
		c-0.741,0-1.31-0.181-1.708-0.543c-0.398-0.361-0.597-0.824-0.597-1.387c0-0.33,0.075-0.632,0.226-0.904
		c0.15-0.273,0.347-0.492,0.59-0.656c0.244-0.166,0.518-0.291,0.822-0.375c0.224-0.06,0.563-0.117,1.016-0.172
		c0.922-0.109,1.602-0.24,2.038-0.394c0.004-0.157,0.006-0.256,0.006-0.298c0-0.465-0.108-0.793-0.324-0.984
		c-0.292-0.258-0.726-0.387-1.301-0.387c-0.538,0-0.934,0.094-1.19,0.283c-0.256,0.188-0.445,0.521-0.568,1l-1.117-0.152
		c0.102-0.479,0.269-0.863,0.501-1.158c0.233-0.295,0.569-0.521,1.009-0.68c0.44-0.159,0.95-0.238,1.53-0.238
		c0.576,0,1.043,0.068,1.403,0.203s0.624,0.307,0.793,0.512s0.288,0.465,0.355,0.777c0.038,0.195,0.057,0.546,0.057,1.055v1.522
		c0,1.062,0.024,1.733,0.073,2.015c0.049,0.282,0.145,0.551,0.289,0.811H71.25C71.13,15.51,71.054,15.232,71.021,14.914z
		 M70.925,12.363c-0.415,0.168-1.037,0.313-1.866,0.432c-0.47,0.068-0.802,0.145-0.997,0.229c-0.195,0.086-0.345,0.209-0.451,0.373
		c-0.106,0.162-0.159,0.344-0.159,0.541c0,0.305,0.115,0.559,0.346,0.762s0.568,0.306,1.013,0.306c0.44,0,0.832-0.097,1.174-0.289
		c0.343-0.192,0.595-0.456,0.755-0.791c0.123-0.259,0.184-0.64,0.184-1.144L70.925,12.363L70.925,12.363z"/>
	<path fill="#FFFFFF" d="M78.251,13.277l1.124,0.146c-0.123,0.774-0.437,1.381-0.943,1.817c-0.505,0.438-1.126,0.658-1.863,0.658
		c-0.922,0-1.664-0.303-2.225-0.904c-0.561-0.604-0.841-1.469-0.841-2.594c0-0.728,0.121-1.365,0.362-1.91
		c0.241-0.547,0.608-0.955,1.101-1.229c0.493-0.272,1.03-0.409,1.609-0.409c0.732,0,1.331,0.186,1.796,0.557
		c0.465,0.369,0.764,0.896,0.895,1.576l-1.111,0.172c-0.106-0.453-0.293-0.793-0.562-1.022S77,9.791,76.62,9.791
		c-0.576,0-1.043,0.205-1.403,0.619c-0.36,0.412-0.54,1.064-0.54,1.957c0,0.906,0.173,1.563,0.521,1.975
		c0.348,0.411,0.8,0.615,1.358,0.615c0.449,0,0.823-0.137,1.124-0.412C77.98,14.27,78.17,13.848,78.251,13.277z"/>
	<path fill="#FFFFFF" d="M80.358,7.755V6.441h1.143v1.313H80.358z M80.358,15.746V9.005h1.143v6.741H80.358z"/>
	<path fill="#FFFFFF" d="M82.815,12.375c0-1.248,0.347-2.172,1.041-2.773c0.58-0.5,1.287-0.749,2.12-0.749
		c0.927,0,1.684,0.304,2.272,0.911c0.588,0.607,0.882,1.445,0.882,2.518c0,0.867-0.13,1.549-0.39,2.047
		c-0.261,0.498-0.639,0.884-1.137,1.158c-0.497,0.275-1.04,0.414-1.628,0.414c-0.944,0-1.707-0.304-2.288-0.908
		C83.106,14.386,82.815,13.514,82.815,12.375z M83.989,12.375c0,0.863,0.188,1.511,0.565,1.939c0.376,0.43,0.851,0.645,1.422,0.645
		c0.567,0,1.039-0.215,1.416-0.646c0.377-0.431,0.565-1.09,0.565-1.974c0-0.833-0.189-1.466-0.568-1.896
		C87.011,10.015,86.541,9.8,85.978,9.8c-0.571,0-1.045,0.214-1.422,0.642C84.178,10.867,83.989,11.512,83.989,12.375z"/>
	<path fill="#FFFFFF" d="M90.013,13.734l1.13-0.179c0.063,0.453,0.24,0.8,0.53,1.041s0.695,0.362,1.216,0.362
		c0.525,0,0.914-0.107,1.168-0.32c0.254-0.214,0.381-0.465,0.381-0.752c0-0.258-0.112-0.461-0.336-0.609
		c-0.157-0.102-0.546-0.229-1.168-0.387c-0.838-0.211-1.418-0.395-1.743-0.549c-0.323-0.154-0.569-0.368-0.736-0.643
		c-0.167-0.271-0.25-0.574-0.25-0.903c0-0.3,0.069-0.579,0.207-0.835c0.137-0.256,0.325-0.469,0.562-0.639
		c0.178-0.131,0.42-0.242,0.727-0.332c0.307-0.092,0.636-0.138,0.987-0.138c0.529,0,0.993,0.076,1.394,0.229
		c0.399,0.152,0.695,0.357,0.885,0.619c0.19,0.26,0.322,0.607,0.394,1.043l-1.117,0.152c-0.051-0.347-0.198-0.617-0.441-0.813
		c-0.244-0.195-0.587-0.293-1.032-0.293c-0.525,0-0.899,0.088-1.124,0.261s-0.336,0.376-0.336,0.608c0,0.148,0.046,0.281,0.14,0.4
		c0.093,0.123,0.239,0.225,0.438,0.305c0.114,0.043,0.451,0.141,1.009,0.293c0.808,0.215,1.372,0.393,1.692,0.529
		c0.319,0.137,0.57,0.338,0.752,0.6c0.182,0.264,0.273,0.588,0.273,0.979c0,0.381-0.111,0.739-0.333,1.076
		c-0.222,0.336-0.542,0.598-0.961,0.779c-0.419,0.186-0.893,0.277-1.422,0.277c-0.876,0-1.543-0.183-2.002-0.547
		C90.434,14.988,90.141,14.449,90.013,13.734z"/>
	<path fill="#FFFFFF" d="M104.956,15.746v-0.852c-0.427,0.668-1.056,1.004-1.885,1.004c-0.538,0-1.032-0.148-1.482-0.445
		c-0.451-0.295-0.8-0.709-1.048-1.24c-0.247-0.531-0.371-1.141-0.371-1.831c0-0.673,0.112-1.283,0.336-1.831s0.561-0.969,1.009-1.26
		c0.448-0.293,0.95-0.438,1.504-0.438c0.406,0,0.768,0.087,1.085,0.257c0.317,0.172,0.576,0.396,0.774,0.67V6.441h1.136v9.305
		H104.956L104.956,15.746z M101.343,12.382c0,0.862,0.182,1.509,0.546,1.937c0.364,0.426,0.793,0.641,1.289,0.641
		c0.5,0,0.924-0.204,1.272-0.612c0.35-0.409,0.524-1.032,0.524-1.87c0-0.922-0.178-1.6-0.533-2.031
		c-0.355-0.431-0.793-0.646-1.314-0.646c-0.508,0-0.932,0.208-1.272,0.622C101.515,10.834,101.343,11.488,101.343,12.382z"/>
	<path fill="#FFFFFF" d="M112.426,13.574l1.181,0.146c-0.186,0.689-0.531,1.225-1.035,1.605s-1.147,0.572-1.93,0.572
		c-0.986,0-1.768-0.305-2.345-0.912c-0.578-0.606-0.867-1.457-0.867-2.555c0-1.134,0.292-2.014,0.876-2.641s1.341-0.939,2.272-0.939
		c0.901,0,1.638,0.307,2.209,0.92c0.571,0.613,0.857,1.477,0.857,2.59c0,0.068-0.002,0.17-0.006,0.305h-5.027
		c0.042,0.742,0.252,1.309,0.628,1.701c0.376,0.394,0.846,0.59,1.409,0.59c0.419,0,0.776-0.109,1.073-0.329
		C112.019,14.408,112.253,14.058,112.426,13.574z M108.675,11.728h3.764c-0.051-0.567-0.195-0.991-0.432-1.276
		c-0.364-0.439-0.836-0.66-1.416-0.66c-0.525,0-0.966,0.177-1.324,0.527C108.912,10.67,108.713,11.14,108.675,11.728z"/>
	<path fill="#FFFFFF" d="M123.052,13.277l1.124,0.146c-0.123,0.774-0.437,1.381-0.942,1.817c-0.505,0.438-1.126,0.658-1.863,0.658
		c-0.922,0-1.664-0.303-2.225-0.904c-0.561-0.604-0.841-1.469-0.841-2.594c0-0.728,0.121-1.365,0.362-1.91
		c0.241-0.547,0.608-0.955,1.101-1.229c0.493-0.272,1.03-0.409,1.609-0.409c0.732,0,1.331,0.186,1.796,0.557
		c0.464,0.369,0.764,0.896,0.895,1.576l-1.111,0.172c-0.106-0.453-0.293-0.793-0.562-1.022s-0.593-0.343-0.974-0.343
		c-0.576,0-1.043,0.205-1.403,0.619c-0.36,0.412-0.54,1.064-0.54,1.957c0,0.906,0.173,1.563,0.521,1.975
		c0.348,0.411,0.8,0.615,1.358,0.615c0.449,0,0.823-0.137,1.124-0.412C122.781,14.27,122.973,13.848,123.052,13.277z"/>
	<path fill="#FFFFFF" d="M124.729,12.375c0-1.248,0.347-2.172,1.041-2.773c0.58-0.5,1.287-0.749,2.12-0.749
		c0.927,0,1.684,0.304,2.272,0.911c0.588,0.607,0.883,1.445,0.883,2.518c0,0.867-0.131,1.549-0.392,2.047
		c-0.26,0.498-0.639,0.884-1.137,1.158c-0.497,0.275-1.039,0.414-1.627,0.414c-0.944,0-1.707-0.304-2.288-0.908
		C125.02,14.386,124.729,13.514,124.729,12.375z M125.902,12.375c0,0.863,0.188,1.511,0.564,1.939
		c0.377,0.43,0.852,0.645,1.423,0.645c0.567,0,1.038-0.215,1.415-0.646s0.566-1.09,0.566-1.974c0-0.833-0.189-1.466-0.568-1.896
		c-0.379-0.429-0.851-0.644-1.413-0.644c-0.571,0-1.046,0.214-1.423,0.642C126.09,10.867,125.902,11.512,125.902,12.375z"/>
	<path fill="#FFFFFF" d="M132.385,15.746V9.005h1.021v0.946c0.211-0.33,0.493-0.596,0.845-0.797s0.752-0.302,1.199-0.302
		c0.499,0,0.909,0.104,1.229,0.312c0.32,0.207,0.545,0.496,0.677,0.869c0.532-0.787,1.228-1.181,2.082-1.181
		c0.669,0,1.183,0.185,1.542,0.556s0.54,0.94,0.54,1.711v4.627h-1.136v-4.248c0-0.457-0.037-0.785-0.111-0.986
		s-0.209-0.363-0.403-0.486s-0.423-0.184-0.686-0.184c-0.474,0-0.868,0.158-1.181,0.473c-0.313,0.315-0.471,0.82-0.471,1.514v3.918
		h-1.143v-4.381c0-0.508-0.094-0.889-0.279-1.143s-0.491-0.381-0.914-0.381c-0.32,0-0.619,0.084-0.893,0.254
		c-0.272,0.169-0.471,0.417-0.594,0.743c-0.123,0.325-0.184,0.795-0.184,1.409v3.498H132.385z"/>
	<path fill="#FFFFFF" d="M147.631,15.746v-0.99c-0.524,0.762-1.237,1.143-2.14,1.143c-0.397,0-0.771-0.076-1.114-0.229
		c-0.344-0.153-0.601-0.344-0.768-0.574s-0.284-0.514-0.354-0.848c-0.047-0.225-0.069-0.58-0.069-1.066V9.005h1.144v3.739
		c0,0.597,0.022,0.998,0.069,1.205c0.071,0.301,0.226,0.537,0.457,0.709s0.521,0.256,0.862,0.256c0.343,0,0.664-0.088,0.966-0.262
		c0.301-0.177,0.514-0.416,0.638-0.719c0.125-0.302,0.188-0.74,0.188-1.316V9.005h1.144v6.741H147.631z"/>
	<path fill="#FFFFFF" d="M150.442,15.746V9.005h1.028v0.958c0.494-0.741,1.209-1.111,2.146-1.111c0.406,0,0.779,0.073,1.121,0.219
		c0.34,0.146,0.595,0.338,0.765,0.576c0.17,0.236,0.287,0.518,0.354,0.844c0.043,0.211,0.063,0.582,0.063,1.11v4.146h-1.143v-4.102
		c0-0.465-0.045-0.813-0.134-1.044s-0.247-0.415-0.474-0.553s-0.492-0.206-0.797-0.206c-0.486,0-0.906,0.154-1.261,0.463
		c-0.353,0.309-0.528,0.895-0.528,1.758v3.682h-1.142V15.746z"/>
	<path fill="#FFFFFF" d="M157.68,7.755V6.441h1.143v1.313H157.68z M157.68,15.746V9.005h1.143v6.741H157.68z"/>
	<path fill="#FFFFFF" d="M164.961,13.277l1.123,0.146c-0.123,0.774-0.438,1.381-0.943,1.817c-0.506,0.438-1.126,0.658-1.862,0.658
		c-0.923,0-1.664-0.303-2.226-0.904c-0.562-0.604-0.84-1.469-0.84-2.594c0-0.728,0.119-1.365,0.36-1.91
		c0.241-0.547,0.608-0.955,1.103-1.229c0.492-0.272,1.029-0.409,1.608-0.409c0.731,0,1.33,0.186,1.796,0.557
		c0.467,0.369,0.764,0.896,0.896,1.576l-1.111,0.172c-0.105-0.453-0.293-0.793-0.563-1.022c-0.269-0.229-0.594-0.343-0.975-0.343
		c-0.574,0-1.043,0.205-1.402,0.619c-0.359,0.412-0.539,1.064-0.539,1.957c0,0.906,0.174,1.563,0.521,1.975s0.8,0.615,1.358,0.615
		c0.449,0,0.822-0.137,1.123-0.412C164.689,14.271,164.879,13.848,164.961,13.277z"/>
	<path fill="#FFFFFF" d="M171.461,14.914c-0.424,0.361-0.832,0.615-1.224,0.763s-0.812,0.222-1.26,0.222
		c-0.74,0-1.31-0.181-1.707-0.543c-0.397-0.361-0.599-0.824-0.599-1.387c0-0.33,0.076-0.632,0.228-0.904
		c0.149-0.273,0.347-0.492,0.59-0.656c0.243-0.166,0.519-0.291,0.822-0.375c0.224-0.06,0.563-0.117,1.016-0.172
		c0.923-0.109,1.603-0.24,2.037-0.394c0.004-0.157,0.007-0.256,0.007-0.298c0-0.465-0.107-0.793-0.324-0.984
		c-0.291-0.258-0.726-0.387-1.301-0.387c-0.537,0-0.935,0.094-1.189,0.283c-0.256,0.188-0.445,0.521-0.568,1l-1.117-0.152
		c0.103-0.479,0.27-0.863,0.502-1.158s0.568-0.521,1.01-0.68c0.439-0.159,0.949-0.238,1.529-0.238c0.575,0,1.043,0.068,1.402,0.203
		s0.624,0.307,0.793,0.512c0.17,0.205,0.288,0.465,0.355,0.777c0.039,0.195,0.058,0.546,0.058,1.055v1.522
		c0,1.062,0.024,1.733,0.073,2.015c0.049,0.282,0.145,0.551,0.289,0.811h-1.193C171.569,15.51,171.493,15.232,171.461,14.914z
		 M171.364,12.363c-0.414,0.168-1.037,0.313-1.866,0.432c-0.47,0.068-0.802,0.145-0.996,0.229s-0.345,0.209-0.451,0.373
		c-0.105,0.162-0.158,0.344-0.158,0.541c0,0.305,0.115,0.559,0.346,0.762s0.568,0.306,1.014,0.306c0.439,0,0.832-0.097,1.174-0.289
		c0.344-0.192,0.596-0.456,0.757-0.791c0.122-0.259,0.184-0.64,0.184-1.144v-0.418H171.364z"/>
	<path fill="#FFFFFF" d="M178.69,13.277l1.124,0.146c-0.123,0.774-0.438,1.381-0.943,1.817c-0.506,0.438-1.127,0.658-1.863,0.658
		c-0.922,0-1.664-0.303-2.225-0.904c-0.561-0.604-0.841-1.469-0.841-2.594c0-0.728,0.12-1.365,0.362-1.91
		c0.24-0.547,0.606-0.955,1.101-1.229c0.493-0.272,1.03-0.409,1.608-0.409c0.731,0,1.332,0.186,1.797,0.557
		c0.466,0.369,0.764,0.896,0.896,1.576l-1.111,0.172c-0.105-0.453-0.293-0.793-0.563-1.022s-0.594-0.343-0.975-0.343
		c-0.575,0-1.043,0.205-1.402,0.619c-0.359,0.412-0.539,1.064-0.539,1.957c0,0.906,0.174,1.563,0.52,1.975
		c0.349,0.411,0.802,0.615,1.359,0.615c0.448,0,0.822-0.137,1.123-0.412S178.608,13.848,178.69,13.277z"/>
	<path fill="#FFFFFF" d="M180.797,7.755V6.441h1.144v1.313H180.797z M180.797,15.746V9.005h1.144v6.741H180.797z"/>
	<path fill="#FFFFFF" d="M183.254,12.375c0-1.248,0.348-2.172,1.041-2.773c0.58-0.5,1.287-0.749,2.121-0.749
		c0.926,0,1.684,0.304,2.271,0.911c0.589,0.607,0.883,1.445,0.883,2.518c0,0.867-0.131,1.549-0.392,2.047
		c-0.26,0.498-0.639,0.884-1.137,1.158c-0.496,0.275-1.039,0.414-1.627,0.414c-0.943,0-1.707-0.304-2.289-0.908
		C183.543,14.387,183.254,13.514,183.254,12.375z M184.428,12.375c0,0.863,0.188,1.511,0.565,1.939
		c0.376,0.43,0.851,0.645,1.423,0.645c0.565,0,1.039-0.215,1.414-0.646c0.377-0.431,0.565-1.09,0.565-1.974
		c0-0.833-0.188-1.466-0.568-1.896c-0.379-0.429-0.85-0.644-1.411-0.644c-0.572,0-1.047,0.214-1.423,0.642
		C184.616,10.867,184.428,11.512,184.428,12.375z M185.78,8.166l0.845-1.776h1.498l-1.396,1.776H185.78z"/>
	<path fill="#FFFFFF" d="M190.909,15.746V9.005h1.027v0.958c0.496-0.741,1.211-1.111,2.146-1.111c0.406,0,0.779,0.073,1.12,0.219
		c0.341,0.146,0.595,0.338,0.765,0.576c0.17,0.236,0.287,0.518,0.355,0.844c0.043,0.211,0.063,0.582,0.063,1.11v4.146h-1.143v-4.102
		c0-0.465-0.044-0.813-0.134-1.044c-0.088-0.231-0.246-0.415-0.474-0.553c-0.227-0.138-0.491-0.206-0.797-0.206
		c-0.485,0-0.905,0.154-1.26,0.463c-0.354,0.309-0.529,0.895-0.529,1.758v3.682h-1.14V15.746z"/>
	<path fill="#FFFFFF" d="M206.365,13.574l1.182,0.146c-0.187,0.689-0.531,1.225-1.035,1.605s-1.146,0.572-1.93,0.572
		c-0.986,0-1.769-0.305-2.346-0.912c-0.578-0.606-0.865-1.457-0.865-2.555c0-1.134,0.291-2.014,0.875-2.641s1.342-0.939,2.272-0.939
		c0.899,0,1.637,0.307,2.209,0.92c0.569,0.614,0.856,1.477,0.856,2.59c0,0.068-0.002,0.17-0.008,0.305h-5.027
		c0.043,0.742,0.252,1.309,0.629,1.701c0.378,0.394,0.847,0.59,1.41,0.59c0.418,0,0.775-0.109,1.072-0.329
		S206.192,14.058,206.365,13.574z M202.614,11.728h3.765c-0.052-0.567-0.195-0.991-0.433-1.276c-0.362-0.439-0.836-0.66-1.416-0.66
		c-0.524,0-0.965,0.177-1.323,0.527C202.851,10.67,202.651,11.14,202.614,11.728z"/>
	<path fill="#FFFFFF" d="M208.981,15.746V9.005h1.028v0.958c0.494-0.741,1.211-1.111,2.146-1.111c0.406,0,0.78,0.073,1.12,0.219
		c0.341,0.146,0.596,0.338,0.766,0.576c0.17,0.236,0.287,0.518,0.355,0.844c0.042,0.211,0.063,0.582,0.063,1.11v4.146h-1.143v-4.102
		c0-0.465-0.044-0.813-0.133-1.044c-0.09-0.231-0.246-0.415-0.473-0.553c-0.228-0.138-0.492-0.206-0.797-0.206
		c-0.486,0-0.906,0.154-1.261,0.463s-0.53,0.895-0.53,1.758v3.682h-1.142V15.746z"/>
	<path fill="#FFFFFF" d="M48.836,26.176l1.181,0.146c-0.186,0.689-0.531,1.225-1.035,1.605s-1.147,0.57-1.93,0.57
		c-0.986,0-1.768-0.303-2.345-0.91c-0.578-0.607-0.867-1.458-0.867-2.555c0-1.135,0.292-2.015,0.876-2.642s1.341-0.938,2.272-0.938
		c0.901,0,1.638,0.307,2.209,0.92c0.571,0.613,0.857,1.477,0.857,2.59c0,0.068-0.002,0.169-0.006,0.305h-5.027
		c0.042,0.741,0.252,1.309,0.628,1.701s0.846,0.59,1.409,0.59c0.419,0,0.776-0.109,1.073-0.33
		C48.428,27.009,48.663,26.658,48.836,26.176z M45.084,24.328h3.764c-0.051-0.567-0.195-0.992-0.432-1.276
		c-0.364-0.44-0.836-0.66-1.416-0.66c-0.525,0-0.966,0.177-1.324,0.526C45.32,23.27,45.123,23.74,45.084,24.328z"/>
	<path fill="#FFFFFF" d="M51.425,28.346v-9.307h1.143v9.307H51.425z"/>
	<path fill="#FFFFFF" d="M62.351,27.515c-0.423,0.36-0.831,0.614-1.222,0.763c-0.392,0.147-0.812,0.221-1.26,0.221
		c-0.741,0-1.31-0.18-1.708-0.543c-0.398-0.36-0.597-0.823-0.597-1.387c0-0.33,0.075-0.631,0.226-0.904
		c0.15-0.272,0.347-0.491,0.59-0.656c0.244-0.165,0.518-0.29,0.822-0.375c0.224-0.059,0.563-0.116,1.016-0.171
		c0.922-0.11,1.602-0.241,2.038-0.394c0.004-0.158,0.006-0.256,0.006-0.299c0-0.465-0.108-0.793-0.324-0.984
		c-0.292-0.258-0.726-0.387-1.301-0.387c-0.538,0-0.934,0.094-1.19,0.283c-0.256,0.188-0.445,0.521-0.568,1l-1.117-0.152
		c0.102-0.478,0.269-0.863,0.501-1.158c0.233-0.295,0.569-0.521,1.009-0.68s0.95-0.238,1.53-0.238c0.576,0,1.043,0.068,1.403,0.203
		c0.36,0.135,0.624,0.307,0.793,0.512s0.288,0.465,0.355,0.777c0.038,0.195,0.057,0.547,0.057,1.055v1.523
		c0,1.062,0.024,1.733,0.073,2.014c0.049,0.283,0.145,0.552,0.289,0.811h-1.193C62.46,28.109,62.383,27.832,62.351,27.515z
		 M62.254,24.963c-0.415,0.169-1.037,0.313-1.866,0.432c-0.47,0.068-0.802,0.145-0.997,0.229c-0.195,0.086-0.345,0.209-0.451,0.373
		c-0.106,0.162-0.159,0.344-0.159,0.541c0,0.306,0.115,0.56,0.346,0.763s0.568,0.306,1.013,0.306c0.44,0,0.832-0.097,1.174-0.289
		c0.343-0.193,0.595-0.457,0.755-0.791c0.123-0.259,0.184-0.64,0.184-1.144L62.254,24.963L62.254,24.963z"/>
	<path fill="#FFFFFF" d="M65.182,28.346v-6.74h1.022v0.945c0.211-0.33,0.493-0.596,0.844-0.796c0.351-0.201,0.751-0.302,1.2-0.302
		c0.5,0,0.909,0.104,1.229,0.311c0.319,0.208,0.544,0.497,0.676,0.87c0.533-0.787,1.227-1.181,2.082-1.181
		c0.668,0,1.183,0.185,1.542,0.556c0.36,0.37,0.54,0.94,0.54,1.71v4.627H73.18v-4.247c0-0.457-0.037-0.786-0.111-0.987
		c-0.074-0.201-0.208-0.363-0.403-0.486c-0.195-0.122-0.423-0.184-0.686-0.184c-0.474,0-0.868,0.158-1.181,0.473
		c-0.313,0.316-0.47,0.82-0.47,1.515v3.917h-1.143v-4.38c0-0.509-0.093-0.89-0.279-1.144s-0.491-0.381-0.914-0.381
		c-0.322,0-0.619,0.084-0.892,0.254s-0.471,0.418-0.594,0.744c-0.123,0.325-0.184,0.795-0.184,1.408v3.498H65.182z"/>
	<path fill="#FFFFFF" d="M77.064,28.346h-1.06v-9.307h1.143v3.32c0.482-0.604,1.098-0.908,1.847-0.908
		c0.415,0,0.807,0.084,1.177,0.252c0.371,0.166,0.675,0.402,0.914,0.703c0.239,0.303,0.427,0.668,0.562,1.096
		c0.135,0.427,0.203,0.884,0.203,1.371c0,1.154-0.286,2.048-0.857,2.679c-0.571,0.631-1.257,0.946-2.057,0.946
		c-0.795,0-1.42-0.332-1.873-0.998L77.064,28.346L77.064,28.346z M77.051,24.925c0,0.808,0.11,1.392,0.33,1.752
		c0.36,0.588,0.846,0.882,1.46,0.882c0.5,0,0.931-0.217,1.295-0.65c0.364-0.434,0.546-1.08,0.546-1.938
		c0-0.88-0.174-1.53-0.524-1.948c-0.349-0.42-0.771-0.629-1.266-0.629c-0.5,0-0.931,0.217-1.295,0.65
		C77.233,23.477,77.051,24.104,77.051,24.925z"/>
	<path fill="#FFFFFF" d="M83.247,20.355v-1.314h1.143v1.314H83.247z M83.247,28.346v-6.74h1.143v6.74H83.247z"/>
	<path fill="#FFFFFF" d="M90.743,26.176l1.181,0.146c-0.186,0.689-0.531,1.225-1.035,1.605c-0.504,0.381-1.147,0.57-1.93,0.57
		c-0.986,0-1.768-0.303-2.345-0.91c-0.578-0.607-0.867-1.458-0.867-2.555c0-1.135,0.292-2.015,0.876-2.642s1.341-0.938,2.272-0.938
		c0.901,0,1.638,0.307,2.209,0.92c0.571,0.613,0.857,1.477,0.857,2.59c0,0.068-0.002,0.169-0.006,0.305h-5.027
		c0.042,0.741,0.252,1.309,0.628,1.701c0.376,0.393,0.846,0.59,1.409,0.59c0.419,0,0.776-0.109,1.073-0.33
		C90.335,27.009,90.569,26.658,90.743,26.176z M86.991,24.328h3.764c-0.051-0.567-0.195-0.992-0.432-1.276
		c-0.364-0.44-0.836-0.66-1.416-0.66c-0.525,0-0.966,0.177-1.324,0.526C87.228,23.27,87.029,23.74,86.991,24.328z"/>
	<path fill="#FFFFFF" d="M93.358,28.346v-6.74h1.028v0.957c0.495-0.74,1.21-1.111,2.146-1.111c0.406,0,0.78,0.074,1.121,0.22
		c0.34,0.146,0.595,0.338,0.765,0.575c0.17,0.236,0.288,0.519,0.355,0.844c0.042,0.211,0.063,0.582,0.063,1.111v4.145h-1.143v-4.102
		c0-0.465-0.044-0.813-0.133-1.043c-0.089-0.231-0.247-0.416-0.473-0.553c-0.226-0.138-0.492-0.207-0.796-0.207
		c-0.487,0-0.907,0.154-1.26,0.463c-0.353,0.31-0.53,0.896-0.53,1.758v3.683L93.358,28.346L93.358,28.346z"/>
	<path fill="#FFFFFF" d="M103.083,27.324l0.165,1.008c-0.322,0.068-0.609,0.103-0.863,0.103c-0.415,0-0.736-0.065-0.965-0.196
		c-0.229-0.133-0.389-0.305-0.482-0.518c-0.093-0.214-0.14-0.664-0.14-1.35v-3.877H99.96v-0.889h0.838v-1.67l1.136-0.686v2.355
		h1.149v0.889h-1.149v3.941c0,0.326,0.02,0.535,0.06,0.629c0.041,0.092,0.106,0.166,0.197,0.221c0.091,0.056,0.221,0.084,0.39,0.084
		C102.708,27.369,102.875,27.354,103.083,27.324z"/>
	<path fill="#FFFFFF" d="M108.815,26.176l1.181,0.146c-0.186,0.689-0.531,1.225-1.035,1.605s-1.147,0.57-1.93,0.57
		c-0.986,0-1.768-0.303-2.345-0.91c-0.578-0.607-0.867-1.458-0.867-2.555c0-1.135,0.292-2.015,0.876-2.642s1.341-0.938,2.272-0.938
		c0.901,0,1.638,0.307,2.209,0.92c0.571,0.613,0.857,1.477,0.857,2.59c0,0.068-0.002,0.169-0.006,0.305H105
		c0.042,0.741,0.252,1.309,0.628,1.701s0.846,0.59,1.409,0.59c0.419,0,0.776-0.109,1.073-0.33
		C108.407,27.009,108.642,26.658,108.815,26.176z M105.063,24.328h3.764c-0.051-0.567-0.195-0.992-0.432-1.276
		c-0.364-0.44-0.836-0.66-1.416-0.66c-0.525,0-0.966,0.177-1.324,0.526C105.299,23.27,105.102,23.74,105.063,24.328z"/>
	<path fill="#FFFFFF" d="M116.915,28.346l-2.564-6.74h1.206l1.447,4.036c0.157,0.437,0.3,0.89,0.432,1.358
		c0.102-0.355,0.243-0.783,0.425-1.282l1.498-4.112h1.174l-2.552,6.74H116.915z"/>
	<path fill="#FFFFFF" d="M121.548,20.355v-1.314h1.143v1.314H121.548z M121.548,28.346v-6.74h1.143v6.74H121.548z"/>
	<path fill="#FFFFFF" d="M124.418,28.346v-6.74h1.027v1.021c0.262-0.479,0.504-0.793,0.727-0.946
		c0.223-0.151,0.467-0.229,0.733-0.229c0.386,0,0.776,0.123,1.175,0.369l-0.395,1.06c-0.279-0.165-0.559-0.248-0.838-0.248
		c-0.25,0-0.475,0.075-0.674,0.226c-0.198,0.15-0.34,0.358-0.424,0.625c-0.127,0.406-0.19,0.852-0.19,1.334v3.528L124.418,28.346
		L124.418,28.346z"/>
	<path fill="#FFFFFF" d="M131.254,27.324l0.166,1.008c-0.322,0.068-0.609,0.103-0.863,0.103c-0.415,0-0.736-0.065-0.965-0.196
		c-0.229-0.133-0.391-0.305-0.482-0.518c-0.094-0.214-0.141-0.664-0.141-1.35v-3.877h-0.838v-0.889h0.838v-1.67l1.137-0.686v2.355
		h1.148v0.889h-1.148v3.941c0,0.326,0.02,0.535,0.061,0.629c0.041,0.092,0.105,0.166,0.197,0.221
		c0.09,0.056,0.221,0.084,0.391,0.084C130.879,27.369,131.047,27.354,131.254,27.324z"/>
	<path fill="#FFFFFF" d="M136.789,28.346v-0.99c-0.524,0.762-1.238,1.143-2.14,1.143c-0.397,0-0.771-0.075-1.114-0.229
		c-0.344-0.152-0.601-0.344-0.768-0.574s-0.284-0.513-0.354-0.848c-0.047-0.225-0.07-0.58-0.07-1.066v-4.176h1.144v3.738
		c0,0.598,0.022,0.999,0.07,1.206c0.071,0.3,0.225,0.537,0.457,0.708c0.231,0.172,0.521,0.257,0.862,0.257s0.664-0.088,0.965-0.263
		c0.302-0.176,0.515-0.415,0.639-0.719c0.125-0.301,0.188-0.74,0.188-1.316v-3.611h1.144v6.74H136.789z"/>
	<path fill="#FFFFFF" d="M144,27.515c-0.424,0.36-0.83,0.614-1.222,0.763c-0.394,0.147-0.813,0.221-1.261,0.221
		c-0.741,0-1.311-0.18-1.708-0.543c-0.397-0.36-0.597-0.823-0.597-1.387c0-0.33,0.074-0.631,0.226-0.904
		c0.149-0.272,0.348-0.491,0.59-0.656c0.244-0.165,0.519-0.29,0.822-0.375c0.225-0.059,0.563-0.116,1.016-0.171
		c0.923-0.11,1.603-0.241,2.038-0.394c0.005-0.158,0.007-0.256,0.007-0.299c0-0.465-0.108-0.793-0.323-0.984
		c-0.293-0.258-0.727-0.387-1.302-0.387c-0.538,0-0.935,0.094-1.19,0.283c-0.256,0.188-0.445,0.521-0.567,1l-1.117-0.152
		c0.103-0.478,0.269-0.863,0.501-1.158c0.233-0.295,0.57-0.521,1.01-0.68s0.951-0.238,1.529-0.238c0.576,0,1.043,0.068,1.403,0.203
		s0.624,0.307,0.794,0.512c0.169,0.205,0.287,0.465,0.355,0.777c0.037,0.195,0.057,0.547,0.057,1.055v1.523
		c0,1.062,0.023,1.733,0.072,2.014c0.049,0.283,0.146,0.552,0.289,0.811h-1.193C144.109,28.109,144.033,27.832,144,27.515z
		 M143.904,24.963c-0.415,0.169-1.036,0.313-1.865,0.432c-0.471,0.068-0.803,0.145-0.996,0.229
		c-0.195,0.084-0.347,0.209-0.451,0.373c-0.105,0.162-0.158,0.344-0.158,0.541c0,0.306,0.115,0.56,0.346,0.763
		s0.568,0.306,1.012,0.306c0.44,0,0.832-0.097,1.176-0.289c0.343-0.193,0.595-0.457,0.754-0.791c0.123-0.259,0.186-0.64,0.186-1.144
		v-0.419H143.904z"/>
	<path fill="#FFFFFF" d="M146.807,28.346v-9.307h1.143v9.307H146.807z"/>
</g>
<g>
	<path fill="#FFFFFF" d="M30.901,23.179c-2.711,0-4.918-2.206-4.918-4.918s2.207-4.918,4.918-4.918s4.918,2.206,4.918,4.918
		S33.613,23.179,30.901,23.179z M30.901,14.343c-2.16,0-3.918,1.758-3.918,3.918c0,2.161,1.758,3.918,3.918,3.918
		s3.918-1.758,3.918-3.918S33.063,14.343,30.901,14.343z"/>
</g>
</svg>
