<?xml version="1.0" encoding="utf-8"?>
<!-- Generator: Adobe Illustrator 16.0.0, SVG Export Plug-In . SVG Version: 6.00 Build 0)  -->
<!DOCTYPE svg PUBLIC "-//W3C//DTD SVG 1.1//EN" "http://www.w3.org/Graphics/SVG/1.1/DTD/svg11.dtd">
<svg version="1.1" id="Capa_1" xmlns="http://www.w3.org/2000/svg" xmlns:xlink="http://www.w3.org/1999/xlink" x="0px" y="0px"
	 width="233.319px" height="31.003px" viewBox="0 0 233.319 31.003" enable-background="new 0 0 233.319 31.003"
	 xml:space="preserve">
<g opacity="0.5">
	<rect x="39.171" fill="#FFFFFF" width="181.751" height="1"/>
</g>
<g opacity="0.5">
	<rect x="39.171" y="30.003" fill="#FFFFFF" width="181.751" height="1"/>
</g>
<g>
	<path fill="#FFFFFF" d="M44.367,20.55v-9.306h3.206c0.724,0,1.276,0.045,1.657,0.133c0.533,0.123,0.988,0.346,1.365,0.668
		c0.491,0.414,0.858,0.945,1.101,1.589c0.244,0.646,0.365,1.383,0.365,2.213c0,0.707-0.083,1.332-0.248,1.879
		c-0.165,0.545-0.376,0.998-0.635,1.354c-0.258,0.359-0.541,0.641-0.847,0.846c-0.307,0.205-0.677,0.359-1.111,0.467
		c-0.434,0.105-0.932,0.158-1.495,0.158H44.367z M45.599,19.452h1.987c0.614,0,1.095-0.057,1.444-0.172
		c0.35-0.113,0.627-0.273,0.835-0.48c0.292-0.293,0.52-0.686,0.683-1.18c0.163-0.492,0.244-1.09,0.244-1.793
		c0-0.973-0.16-1.721-0.479-2.244c-0.319-0.521-0.708-0.873-1.165-1.048c-0.33-0.127-0.861-0.19-1.593-0.19H45.6L45.599,19.452
		L45.599,19.452z"/>
	<path fill="#FFFFFF" d="M58.225,18.378l1.181,0.146c-0.186,0.691-0.531,1.225-1.035,1.607c-0.504,0.381-1.147,0.57-1.93,0.57
		c-0.986,0-1.768-0.305-2.345-0.912c-0.578-0.605-0.867-1.457-0.867-2.555c0-1.133,0.292-2.014,0.876-2.641s1.341-0.939,2.272-0.939
		c0.901,0,1.638,0.307,2.209,0.92s0.857,1.479,0.857,2.59c0,0.068-0.002,0.17-0.006,0.307h-5.027
		c0.042,0.74,0.252,1.307,0.628,1.701c0.376,0.393,0.846,0.59,1.409,0.59c0.419,0,0.776-0.111,1.073-0.33
		C57.816,19.212,58.05,18.86,58.225,18.378z M54.473,16.532h3.764c-0.051-0.566-0.195-0.992-0.432-1.275
		c-0.364-0.441-0.836-0.66-1.416-0.66c-0.525,0-0.966,0.176-1.324,0.525C54.708,15.474,54.51,15.942,54.473,16.532z"/>
	<path fill="#FFFFFF" d="M61.894,20.55h-1.06v-9.306h1.143v3.32c0.482-0.605,1.098-0.908,1.847-0.908
		c0.415,0,0.807,0.084,1.177,0.252c0.371,0.166,0.675,0.402,0.914,0.703c0.239,0.303,0.427,0.668,0.562,1.096
		c0.135,0.428,0.203,0.885,0.203,1.371c0,1.154-0.286,2.047-0.857,2.68c-0.571,0.631-1.257,0.945-2.057,0.945
		c-0.795,0-1.42-0.332-1.873-0.998L61.894,20.55L61.894,20.55z M61.88,17.128c0,0.809,0.11,1.393,0.33,1.752
		c0.36,0.588,0.846,0.883,1.46,0.883c0.5,0,0.931-0.219,1.295-0.65c0.364-0.434,0.546-1.082,0.546-1.939
		c0-0.881-0.174-1.529-0.524-1.949c-0.349-0.418-0.771-0.627-1.266-0.627c-0.5,0-0.931,0.217-1.295,0.648
		C62.063,15.681,61.88,16.308,61.88,17.128z"/>
	<path fill="#FFFFFF" d="M72.685,18.378l1.181,0.146c-0.186,0.691-0.531,1.225-1.035,1.607c-0.504,0.381-1.147,0.57-1.93,0.57
		c-0.986,0-1.768-0.305-2.345-0.912c-0.578-0.605-0.867-1.457-0.867-2.555c0-1.133,0.292-2.014,0.876-2.641s1.341-0.939,2.272-0.939
		c0.901,0,1.638,0.307,2.209,0.92s0.857,1.479,0.857,2.59c0,0.068-0.002,0.17-0.006,0.307h-5.027
		c0.042,0.74,0.252,1.307,0.628,1.701c0.376,0.393,0.846,0.59,1.409,0.59c0.419,0,0.776-0.111,1.073-0.33
		C72.276,19.212,72.51,18.86,72.685,18.378z M68.933,16.532h3.764c-0.051-0.566-0.195-0.992-0.432-1.275
		c-0.364-0.441-0.836-0.66-1.416-0.66c-0.525,0-0.966,0.176-1.324,0.525C69.168,15.474,68.97,15.942,68.933,16.532z"/>
	<path fill="#FFFFFF" d="M75.287,20.55v-6.74h1.028v1.021c0.262-0.479,0.504-0.793,0.727-0.945c0.222-0.152,0.466-0.23,0.733-0.23
		c0.385,0,0.776,0.123,1.174,0.369l-0.394,1.059c-0.279-0.164-0.559-0.248-0.838-0.248c-0.25,0-0.474,0.076-0.673,0.227
		c-0.199,0.15-0.341,0.357-0.425,0.625c-0.127,0.406-0.19,0.852-0.19,1.334v3.529H75.287L75.287,20.55z"/>
	<path fill="#FFFFFF" d="M84.243,18.378l1.181,0.146c-0.186,0.691-0.531,1.225-1.035,1.607c-0.504,0.381-1.147,0.57-1.93,0.57
		c-0.986,0-1.768-0.305-2.345-0.912c-0.578-0.605-0.867-1.457-0.867-2.555c0-1.133,0.292-2.014,0.876-2.641s1.341-0.939,2.272-0.939
		c0.901,0,1.638,0.307,2.209,0.92c0.571,0.613,0.857,1.479,0.857,2.59c0,0.068-0.002,0.17-0.006,0.307h-5.027
		c0.042,0.74,0.252,1.307,0.628,1.701c0.376,0.393,0.846,0.59,1.409,0.59c0.419,0,0.776-0.111,1.073-0.33
		C83.835,19.212,84.069,18.86,84.243,18.378z M80.491,16.532h3.764c-0.051-0.566-0.195-0.992-0.432-1.275
		c-0.364-0.441-0.836-0.66-1.416-0.66c-0.525,0-0.966,0.176-1.324,0.525C80.728,15.474,80.529,15.942,80.491,16.532z"/>
	<path fill="#FFFFFF" d="M86.401,18.536l1.13-0.178c0.063,0.453,0.24,0.801,0.53,1.041c0.29,0.242,0.695,0.363,1.216,0.363
		c0.525,0,0.914-0.107,1.168-0.32c0.254-0.215,0.381-0.465,0.381-0.752c0-0.258-0.112-0.461-0.336-0.609
		c-0.157-0.102-0.546-0.23-1.168-0.387c-0.838-0.211-1.418-0.395-1.743-0.549c-0.323-0.156-0.569-0.369-0.736-0.643
		c-0.167-0.271-0.25-0.574-0.25-0.904c0-0.299,0.069-0.578,0.207-0.834c0.137-0.256,0.325-0.469,0.562-0.639
		c0.178-0.131,0.42-0.242,0.727-0.334c0.307-0.09,0.636-0.137,0.987-0.137c0.529,0,0.993,0.076,1.394,0.23
		c0.399,0.15,0.695,0.357,0.885,0.617c0.19,0.262,0.322,0.609,0.394,1.045L90.632,15.7c-0.051-0.348-0.198-0.619-0.441-0.813
		c-0.244-0.195-0.587-0.293-1.032-0.293c-0.525,0-0.899,0.088-1.124,0.26c-0.225,0.174-0.336,0.377-0.336,0.609
		c0,0.148,0.046,0.281,0.14,0.4c0.093,0.123,0.239,0.223,0.438,0.305c0.114,0.041,0.451,0.141,1.009,0.291
		c0.808,0.217,1.372,0.395,1.692,0.531c0.319,0.137,0.57,0.336,0.752,0.6s0.273,0.588,0.273,0.979c0,0.381-0.111,0.738-0.333,1.076
		c-0.222,0.336-0.542,0.596-0.961,0.779c-0.419,0.186-0.893,0.275-1.422,0.275c-0.876,0-1.543-0.182-2.002-0.545
		C86.821,19.792,86.528,19.253,86.401,18.536z"/>
	<path fill="#FFFFFF" d="M101.343,20.55v-0.852c-0.427,0.668-1.056,1.004-1.885,1.004c-0.538,0-1.032-0.148-1.482-0.443
		c-0.451-0.297-0.8-0.711-1.048-1.242c-0.247-0.531-0.371-1.141-0.371-1.83c0-0.674,0.112-1.283,0.336-1.832
		c0.224-0.547,0.561-0.967,1.009-1.26c0.448-0.291,0.95-0.438,1.504-0.438c0.406,0,0.768,0.086,1.085,0.256
		c0.317,0.172,0.576,0.396,0.774,0.67v-3.337h1.136v9.306h-1.058V20.55z M97.732,17.185c0,0.863,0.182,1.51,0.546,1.936
		c0.364,0.428,0.793,0.643,1.289,0.643c0.5,0,0.924-0.205,1.272-0.613c0.35-0.408,0.524-1.031,0.524-1.869
		c0-0.922-0.178-1.6-0.533-2.031s-0.793-0.646-1.314-0.646c-0.508,0-0.932,0.207-1.272,0.621
		C97.902,15.64,97.732,16.292,97.732,17.185z"/>
	<path fill="#FFFFFF" d="M108.815,18.378l1.181,0.146c-0.186,0.691-0.531,1.225-1.035,1.607c-0.504,0.381-1.147,0.57-1.93,0.57
		c-0.986,0-1.768-0.305-2.345-0.912c-0.578-0.605-0.867-1.457-0.867-2.555c0-1.133,0.292-2.014,0.876-2.641s1.341-0.939,2.272-0.939
		c0.901,0,1.638,0.307,2.209,0.92c0.571,0.613,0.857,1.479,0.857,2.59c0,0.068-0.002,0.17-0.006,0.307H105
		c0.042,0.74,0.252,1.307,0.628,1.701c0.376,0.393,0.846,0.59,1.409,0.59c0.419,0,0.776-0.111,1.073-0.33
		C108.407,19.212,108.642,18.86,108.815,18.378z M105.063,16.532h3.764c-0.051-0.566-0.195-0.992-0.432-1.275
		c-0.364-0.441-0.836-0.66-1.416-0.66c-0.525,0-0.966,0.176-1.324,0.525C105.299,15.474,105.102,15.942,105.063,16.532z"/>
	<path fill="#FFFFFF" d="M111.404,20.55v-9.306h1.143v9.306H111.404z"/>
	<path fill="#FFFFFF" d="M122.33,19.718c-0.423,0.359-0.831,0.613-1.222,0.762c-0.392,0.148-0.812,0.223-1.26,0.223
		c-0.741,0-1.31-0.182-1.708-0.543c-0.398-0.361-0.597-0.824-0.597-1.387c0-0.33,0.075-0.633,0.226-0.904
		c0.15-0.273,0.347-0.492,0.59-0.658c0.244-0.164,0.518-0.289,0.822-0.375c0.224-0.059,0.563-0.115,1.016-0.17
		c0.922-0.109,1.602-0.24,2.038-0.395c0.004-0.156,0.006-0.256,0.006-0.297c0-0.465-0.108-0.793-0.324-0.984
		c-0.292-0.258-0.726-0.387-1.301-0.387c-0.538,0-0.934,0.094-1.19,0.283c-0.256,0.188-0.445,0.52-0.568,1l-1.117-0.152
		c0.102-0.479,0.269-0.865,0.501-1.16c0.233-0.293,0.569-0.52,1.009-0.678c0.44-0.16,0.95-0.238,1.53-0.238
		c0.576,0,1.043,0.068,1.403,0.203c0.36,0.135,0.624,0.305,0.793,0.51c0.168,0.207,0.287,0.465,0.354,0.779
		c0.038,0.195,0.057,0.545,0.057,1.053v1.523c0,1.063,0.024,1.734,0.073,2.016s0.145,0.551,0.289,0.811h-1.193
		C122.439,20.313,122.362,20.034,122.33,19.718z M122.233,17.165c-0.415,0.17-1.037,0.314-1.866,0.434
		c-0.47,0.066-0.802,0.143-0.997,0.229c-0.195,0.084-0.345,0.207-0.451,0.371s-0.159,0.344-0.159,0.543
		c0,0.305,0.115,0.559,0.346,0.762s0.568,0.305,1.013,0.305c0.44,0,0.832-0.096,1.174-0.289c0.343-0.193,0.595-0.455,0.755-0.791
		c0.123-0.258,0.184-0.639,0.184-1.143L122.233,17.165L122.233,17.165z"/>
	<path fill="#FFFFFF" d="M125.161,23.134v-9.326h1.041v0.877c0.246-0.344,0.521-0.602,0.832-0.771
		c0.309-0.172,0.684-0.258,1.123-0.258c0.576,0,1.084,0.148,1.523,0.445c0.44,0.295,0.773,0.713,0.997,1.254
		c0.224,0.539,0.337,1.131,0.337,1.773c0,0.689-0.123,1.311-0.371,1.863s-0.606,0.977-1.08,1.27
		c-0.472,0.295-0.968,0.441-1.488,0.441c-0.381,0-0.723-0.082-1.024-0.242s-0.551-0.363-0.746-0.607v3.281H125.161L125.161,23.134z
		 M126.194,17.218c0,0.867,0.177,1.508,0.527,1.922c0.352,0.414,0.776,0.623,1.276,0.623c0.508,0,0.942-0.215,1.305-0.646
		c0.361-0.428,0.543-1.094,0.543-1.996c0-0.857-0.178-1.502-0.53-1.93c-0.354-0.426-0.775-0.641-1.267-0.641
		c-0.487,0-0.917,0.229-1.292,0.682C126.382,15.688,126.194,16.349,126.194,17.218z"/>
	<path fill="#FFFFFF" d="M132.377,20.55v-6.74h1.027v1.021c0.263-0.479,0.504-0.793,0.728-0.945c0.224-0.154,0.468-0.23,0.733-0.23
		c0.386,0,0.775,0.123,1.175,0.369l-0.396,1.059c-0.279-0.164-0.559-0.248-0.838-0.248c-0.248,0-0.474,0.076-0.672,0.227
		c-0.199,0.15-0.342,0.357-0.426,0.625c-0.127,0.406-0.189,0.852-0.189,1.334v3.529H132.377L132.377,20.55z"/>
	<path fill="#FFFFFF" d="M141.333,18.378l1.183,0.146c-0.188,0.691-0.531,1.225-1.035,1.607c-0.504,0.381-1.146,0.57-1.931,0.57
		c-0.985,0-1.769-0.305-2.346-0.912c-0.578-0.605-0.866-1.457-0.866-2.555c0-1.133,0.292-2.014,0.876-2.641s1.343-0.939,2.272-0.939
		c0.9,0,1.638,0.307,2.209,0.92c0.57,0.613,0.855,1.479,0.855,2.59c0,0.068-0.002,0.17-0.006,0.307h-5.027
		c0.043,0.74,0.252,1.307,0.629,1.701c0.377,0.393,0.846,0.59,1.408,0.59c0.42,0,0.777-0.111,1.073-0.33
		C140.924,19.212,141.161,18.86,141.333,18.378z M137.583,16.532h3.766c-0.052-0.566-0.195-0.992-0.433-1.275
		c-0.364-0.441-0.836-0.66-1.416-0.66c-0.524,0-0.966,0.176-1.324,0.525C137.817,15.474,137.621,15.942,137.583,16.532z"/>
	<path fill="#FFFFFF" d="M143.948,20.55v-6.74h1.029v0.957c0.494-0.74,1.211-1.111,2.146-1.111c0.405,0,0.78,0.074,1.12,0.219
		c0.341,0.146,0.597,0.338,0.766,0.576c0.169,0.236,0.288,0.52,0.355,0.844c0.041,0.211,0.063,0.582,0.063,1.111v4.145h-1.143
		v-4.102c0-0.465-0.045-0.813-0.133-1.043c-0.09-0.23-0.248-0.416-0.475-0.553s-0.49-0.207-0.796-0.207
		c-0.487,0-0.907,0.154-1.261,0.463s-0.53,0.895-0.53,1.758v3.684H143.948L143.948,20.55z"/>
	<path fill="#FFFFFF" d="M155.552,20.55v-0.852c-0.427,0.668-1.055,1.004-1.885,1.004c-0.537,0-1.031-0.148-1.481-0.443
		c-0.451-0.297-0.8-0.711-1.048-1.242c-0.247-0.531-0.37-1.141-0.37-1.83c0-0.674,0.11-1.283,0.336-1.832
		c0.225-0.547,0.561-0.967,1.01-1.26c0.447-0.291,0.949-0.438,1.504-0.438c0.406,0,0.768,0.086,1.086,0.256
		c0.316,0.172,0.574,0.396,0.773,0.67v-3.337h1.137v9.306h-1.062V20.55z M151.942,17.185c0,0.863,0.182,1.51,0.545,1.936
		c0.365,0.428,0.795,0.643,1.289,0.643c0.5,0,0.924-0.205,1.272-0.613c0.351-0.408,0.522-1.031,0.522-1.869
		c0-0.922-0.178-1.6-0.532-2.031s-0.793-0.646-1.313-0.646c-0.509,0-0.933,0.207-1.271,0.621
		C152.11,15.64,151.942,16.292,151.942,17.185z"/>
	<path fill="#FFFFFF" d="M158.416,12.558v-1.314h1.144v1.314H158.416z M158.416,20.55v-6.74h1.144v6.74H158.416z"/>
	<path fill="#FFFFFF" d="M160.694,20.55v-0.928l4.291-4.926c-0.486,0.025-0.916,0.039-1.289,0.039h-2.748v-0.928h5.511v0.756
		l-3.649,4.277l-0.705,0.781c0.512-0.039,0.991-0.057,1.44-0.057h3.116v0.984H160.694L160.694,20.55z"/>
</g>
<g>
	<path fill="#FFFFFF" d="M30.901,21.837c-2.711,0-4.918-2.207-4.918-4.92c0-2.711,2.207-4.917,4.918-4.917s4.918,2.207,4.918,4.917
		C35.819,19.63,33.613,21.837,30.901,21.837z M30.901,12.999c-2.16,0-3.918,1.76-3.918,3.918c0,2.162,1.758,3.918,3.918,3.918
		s3.918-1.758,3.918-3.918C34.819,14.759,33.063,12.999,30.901,12.999z"/>
</g>
</svg>
