<?xml version="1.0" encoding="utf-8"?>
<!-- Generator: Adobe Illustrator 16.0.0, SVG Export Plug-In . SVG Version: 6.00 Build 0)  -->
<!DOCTYPE svg PUBLIC "-//W3C//DTD SVG 1.1//EN" "http://www.w3.org/Graphics/SVG/1.1/DTD/svg11.dtd">
<svg version="1.1" id="Capa_1" xmlns="http://www.w3.org/2000/svg" xmlns:xlink="http://www.w3.org/1999/xlink" x="0px" y="0px"
	 width="233.318px" height="42.722px" viewBox="0 0 233.318 42.722" enable-background="new 0 0 233.318 42.722"
	 xml:space="preserve">
<line opacity="0.5" fill="none" stroke="#FFFFFF" stroke-miterlimit="10" x1="40.667" y1="0.5" x2="219.1" y2="0.5"/>
<line opacity="0.5" fill="none" stroke="#FFFFFF" stroke-miterlimit="10" x1="40.646" y1="42.222" x2="219.1" y2="42.222"/>
<g opacity="0.8">
	<g>
		<path fill="#FFFFFF" d="M48.762,16.669V7.364h3.51c0.618,0,1.09,0.03,1.416,0.089c0.457,0.076,0.84,0.221,1.149,0.435
			c0.309,0.214,0.558,0.513,0.746,0.898c0.188,0.385,0.283,0.808,0.283,1.27c0,0.792-0.252,1.461-0.755,2.009
			c-0.503,0.548-1.414,0.822-2.729,0.822h-2.387v3.783H48.762z M49.993,11.788h2.406c0.795,0,1.36-0.148,1.695-0.444
			s0.501-0.713,0.501-1.25c0-0.389-0.098-0.723-0.295-1c-0.196-0.277-0.456-0.46-0.777-0.549c-0.208-0.055-0.59-0.083-1.149-0.083
			h-2.38V11.788z"/>
		<path fill="#FFFFFF" d="M56.861,13.299c0-1.249,0.347-2.173,1.041-2.774c0.58-0.5,1.287-0.749,2.12-0.749
			c0.927,0,1.684,0.304,2.272,0.911c0.588,0.607,0.882,1.446,0.882,2.517c0,0.868-0.13,1.55-0.39,2.047
			c-0.261,0.498-0.639,0.884-1.137,1.159c-0.497,0.275-1.04,0.413-1.628,0.413c-0.944,0-1.707-0.303-2.288-0.908
			C57.152,15.309,56.861,14.437,56.861,13.299z M58.036,13.299c0,0.863,0.188,1.51,0.565,1.939c0.376,0.43,0.851,0.645,1.422,0.645
			c0.567,0,1.039-0.216,1.416-0.647s0.565-1.09,0.565-1.974c0-0.833-0.189-1.465-0.568-1.895c-0.378-0.429-0.849-0.644-1.412-0.644
			c-0.571,0-1.045,0.214-1.422,0.641S58.036,12.436,58.036,13.299z"/>
		<path fill="#FFFFFF" d="M65.57,16.669h-1.06V7.364h1.143v3.32c0.482-0.605,1.098-0.908,1.847-0.908
			c0.415,0,0.807,0.083,1.177,0.251c0.371,0.167,0.675,0.402,0.914,0.704c0.239,0.303,0.427,0.668,0.562,1.095
			s0.203,0.884,0.203,1.371c0,1.155-0.286,2.048-0.857,2.679s-1.257,0.946-2.057,0.946c-0.795,0-1.42-0.332-1.873-0.997V16.669z
			 M65.558,13.248c0,0.808,0.11,1.392,0.33,1.752c0.36,0.588,0.846,0.882,1.46,0.882c0.5,0,0.931-0.217,1.295-0.65
			c0.364-0.434,0.546-1.081,0.546-1.939c0-0.88-0.174-1.53-0.524-1.949c-0.349-0.419-0.771-0.628-1.266-0.628
			c-0.5,0-0.931,0.217-1.295,0.65C65.74,11.8,65.558,12.427,65.558,13.248z"/>
		<path fill="#FFFFFF" d="M71.721,16.669V7.364h1.143v9.306H71.721z"/>
		<path fill="#FFFFFF" d="M79.034,15.838c-0.423,0.36-0.831,0.614-1.222,0.762c-0.392,0.148-0.812,0.222-1.26,0.222
			c-0.741,0-1.31-0.181-1.708-0.543c-0.398-0.361-0.597-0.824-0.597-1.387c0-0.33,0.075-0.632,0.226-0.904
			c0.15-0.273,0.347-0.492,0.59-0.657c0.244-0.165,0.518-0.29,0.822-0.375c0.224-0.059,0.563-0.116,1.016-0.171
			c0.922-0.11,1.602-0.241,2.038-0.394c0.004-0.157,0.006-0.256,0.006-0.298c0-0.465-0.108-0.793-0.324-0.984
			c-0.292-0.258-0.726-0.387-1.301-0.387c-0.538,0-0.934,0.094-1.19,0.283c-0.256,0.188-0.445,0.521-0.568,1l-1.117-0.152
			c0.102-0.478,0.269-0.864,0.501-1.159c0.233-0.294,0.569-0.521,1.009-0.679c0.44-0.159,0.95-0.238,1.53-0.238
			c0.576,0,1.043,0.068,1.403,0.203s0.624,0.306,0.793,0.511c0.169,0.206,0.288,0.465,0.355,0.778
			c0.038,0.195,0.057,0.546,0.057,1.054v1.523c0,1.062,0.024,1.734,0.073,2.015c0.049,0.282,0.145,0.551,0.289,0.81h-1.193
			C79.144,16.433,79.067,16.155,79.034,15.838z M78.938,13.286c-0.415,0.169-1.037,0.313-1.866,0.432
			c-0.47,0.068-0.802,0.144-0.997,0.229s-0.345,0.208-0.451,0.372c-0.106,0.163-0.159,0.344-0.159,0.542
			c0,0.305,0.115,0.559,0.346,0.762c0.231,0.203,0.568,0.305,1.013,0.305c0.44,0,0.832-0.096,1.174-0.289
			c0.343-0.193,0.595-0.456,0.755-0.791c0.123-0.258,0.184-0.639,0.184-1.143V13.286z"/>
		<path fill="#FFFFFF" d="M86.264,14.2l1.124,0.146c-0.123,0.774-0.437,1.381-0.943,1.818c-0.505,0.438-1.126,0.657-1.863,0.657
			c-0.922,0-1.664-0.302-2.225-0.904c-0.561-0.604-0.841-1.468-0.841-2.593c0-0.728,0.121-1.365,0.362-1.911
			s0.608-0.955,1.101-1.229c0.493-0.272,1.03-0.409,1.609-0.409c0.732,0,1.331,0.185,1.796,0.556
			c0.465,0.37,0.764,0.896,0.895,1.577l-1.111,0.171c-0.106-0.453-0.293-0.793-0.562-1.022c-0.269-0.229-0.593-0.343-0.974-0.343
			c-0.576,0-1.043,0.206-1.403,0.619c-0.36,0.412-0.54,1.065-0.54,1.958c0,0.906,0.173,1.563,0.521,1.974s0.8,0.616,1.358,0.616
			c0.449,0,0.823-0.138,1.124-0.413S86.183,14.771,86.264,14.2z"/>
		<path fill="#FFFFFF" d="M88.371,8.678V7.364h1.143v1.314H88.371z M88.371,16.669V9.928h1.143v6.741H88.371z"/>
		<path fill="#FFFFFF" d="M90.828,13.299c0-1.249,0.347-2.173,1.041-2.774c0.58-0.5,1.287-0.749,2.12-0.749
			c0.927,0,1.684,0.304,2.272,0.911c0.588,0.607,0.882,1.446,0.882,2.517c0,0.868-0.13,1.55-0.39,2.047
			c-0.261,0.498-0.639,0.884-1.137,1.159c-0.497,0.275-1.04,0.413-1.628,0.413c-0.944,0-1.707-0.303-2.288-0.908
			C91.119,15.309,90.828,14.437,90.828,13.299z M92.002,13.299c0,0.863,0.188,1.51,0.565,1.939c0.376,0.43,0.851,0.645,1.422,0.645
			c0.567,0,1.039-0.216,1.416-0.647s0.565-1.09,0.565-1.974c0-0.833-0.189-1.465-0.568-1.895c-0.378-0.429-0.849-0.644-1.412-0.644
			c-0.571,0-1.045,0.214-1.422,0.641S92.002,12.436,92.002,13.299z M93.354,9.09l0.844-1.777h1.498L94.3,9.09H93.354z"/>
		<path fill="#FFFFFF" d="M98.483,16.669V9.928h1.028v0.958c0.495-0.741,1.21-1.111,2.146-1.111c0.406,0,0.78,0.073,1.121,0.219
			c0.34,0.146,0.595,0.338,0.765,0.575c0.169,0.237,0.288,0.519,0.355,0.844c0.042,0.211,0.063,0.582,0.063,1.111v4.145h-1.143
			v-4.101c0-0.465-0.044-0.813-0.133-1.044c-0.089-0.231-0.247-0.415-0.473-0.553c-0.226-0.137-0.492-0.206-0.796-0.206
			c-0.487,0-0.907,0.154-1.26,0.463c-0.353,0.309-0.53,0.895-0.53,1.758v3.682H98.483z"/>
		<path fill="#FFFFFF" d="M108.899,13.299c0-1.249,0.347-2.173,1.041-2.774c0.579-0.5,1.286-0.749,2.12-0.749
			c0.927,0,1.684,0.304,2.272,0.911c0.589,0.607,0.882,1.446,0.882,2.517c0,0.868-0.13,1.55-0.39,2.047
			c-0.261,0.498-0.64,0.884-1.137,1.159s-1.04,0.413-1.628,0.413c-0.943,0-1.707-0.303-2.288-0.908
			C109.19,15.309,108.899,14.437,108.899,13.299z M110.074,13.299c0,0.863,0.188,1.51,0.564,1.939
			c0.377,0.43,0.851,0.645,1.422,0.645c0.566,0,1.039-0.216,1.416-0.647c0.376-0.432,0.564-1.09,0.564-1.974
			c0-0.833-0.189-1.465-0.568-1.895c-0.379-0.429-0.85-0.644-1.412-0.644c-0.571,0-1.045,0.214-1.422,0.641
			S110.074,12.436,110.074,13.299z"/>
		<path fill="#FFFFFF" d="M117.608,16.669h-1.06V7.364h1.143v3.32c0.482-0.605,1.098-0.908,1.847-0.908
			c0.415,0,0.808,0.083,1.177,0.251c0.371,0.167,0.676,0.402,0.914,0.704c0.24,0.303,0.428,0.668,0.563,1.095
			s0.203,0.884,0.203,1.371c0,1.155-0.285,2.048-0.857,2.679c-0.57,0.63-1.256,0.946-2.057,0.946c-0.795,0-1.42-0.332-1.872-0.997
			V16.669z M117.596,13.248c0,0.808,0.109,1.392,0.33,1.752c0.359,0.588,0.846,0.882,1.46,0.882c0.499,0,0.931-0.217,1.295-0.65
			c0.364-0.434,0.546-1.081,0.546-1.939c0-0.88-0.174-1.53-0.523-1.949s-0.771-0.628-1.267-0.628c-0.499,0-0.931,0.217-1.295,0.65
			C117.777,11.8,117.596,12.427,117.596,13.248z"/>
		<path fill="#FFFFFF" d="M122.331,19.285l0.216-0.971c0.229,0.059,0.408,0.089,0.539,0.089c0.233,0,0.406-0.077,0.521-0.232
			c0.113-0.154,0.171-0.541,0.171-1.158V9.928h1.143v7.109c0,0.83-0.108,1.407-0.323,1.733c-0.275,0.423-0.732,0.635-1.371,0.635
			C122.917,19.405,122.619,19.365,122.331,19.285z M123.778,8.69V7.364h1.143V8.69H123.778z"/>
		<path fill="#FFFFFF" d="M131.287,14.499l1.182,0.146c-0.187,0.69-0.531,1.225-1.035,1.606s-1.146,0.571-1.93,0.571
			c-0.986,0-1.768-0.304-2.346-0.911c-0.578-0.607-0.866-1.458-0.866-2.555c0-1.134,0.292-2.014,0.876-2.641
			s1.342-0.939,2.272-0.939c0.901,0,1.638,0.307,2.209,0.92s0.856,1.477,0.856,2.59c0,0.068-0.002,0.169-0.006,0.305h-5.027
			c0.043,0.741,0.252,1.308,0.629,1.701c0.376,0.394,0.846,0.59,1.408,0.59c0.42,0,0.777-0.11,1.073-0.33
			S131.114,14.981,131.287,14.499z M127.536,12.651h3.765c-0.051-0.567-0.195-0.992-0.432-1.276c-0.364-0.44-0.836-0.66-1.416-0.66
			c-0.525,0-0.966,0.176-1.324,0.527C127.771,11.593,127.574,12.063,127.536,12.651z"/>
		<path fill="#FFFFFF" d="M136.397,15.647l0.165,1.009c-0.322,0.068-0.609,0.102-0.863,0.102c-0.414,0-0.736-0.065-0.965-0.197
			s-0.389-0.304-0.482-0.517c-0.094-0.214-0.14-0.664-0.14-1.349v-3.878h-0.838V9.928h0.838V8.259l1.136-0.686v2.355h1.149v0.889
			h-1.149v3.942c0,0.326,0.021,0.535,0.061,0.628c0.041,0.093,0.105,0.167,0.197,0.222c0.091,0.055,0.221,0.083,0.391,0.083
			C136.023,15.692,136.189,15.677,136.397,15.647z"/>
		<path fill="#FFFFFF" d="M137.521,8.678V7.364h1.143v1.314H137.521z M137.521,16.669V9.928h1.143v6.741H137.521z"/>
		<path fill="#FFFFFF" d="M142.275,16.669l-2.564-6.741h1.206l1.447,4.037c0.157,0.436,0.3,0.889,0.432,1.358
			c0.102-0.355,0.243-0.783,0.425-1.282l1.498-4.113h1.175l-2.552,6.741H142.275z"/>
		<path fill="#FFFFFF" d="M146.478,13.299c0-1.249,0.347-2.173,1.041-2.774c0.579-0.5,1.286-0.749,2.12-0.749
			c0.927,0,1.684,0.304,2.272,0.911c0.589,0.607,0.882,1.446,0.882,2.517c0,0.868-0.13,1.55-0.39,2.047
			c-0.261,0.498-0.64,0.884-1.137,1.159s-1.04,0.413-1.628,0.413c-0.943,0-1.707-0.303-2.288-0.908
			C146.769,15.309,146.478,14.437,146.478,13.299z M147.652,13.299c0,0.863,0.188,1.51,0.564,1.939
			c0.377,0.43,0.851,0.645,1.422,0.645c0.566,0,1.039-0.216,1.416-0.647c0.376-0.432,0.564-1.09,0.564-1.974
			c0-0.833-0.189-1.465-0.568-1.895c-0.379-0.429-0.85-0.644-1.412-0.644c-0.571,0-1.045,0.214-1.422,0.641
			S147.652,12.436,147.652,13.299z"/>
		<path fill="#FFFFFF" d="M157.693,19.266l-0.127-1.073c0.25,0.068,0.469,0.102,0.654,0.102c0.254,0,0.457-0.042,0.609-0.127
			s0.277-0.203,0.375-0.355c0.07-0.114,0.188-0.398,0.348-0.851c0.021-0.063,0.057-0.157,0.102-0.279l-2.557-6.754h1.23l1.402,3.904
			c0.184,0.495,0.346,1.016,0.49,1.562c0.131-0.525,0.287-1.037,0.469-1.536l1.441-3.929h1.143l-2.564,6.855
			c-0.275,0.741-0.488,1.25-0.641,1.53c-0.203,0.376-0.438,0.653-0.699,0.829c-0.262,0.175-0.576,0.263-0.939,0.263
			C158.209,19.405,157.965,19.359,157.693,19.266z"/>
		<path fill="#FFFFFF" d="M167.855,19.253V9.928h1.041v0.876c0.246-0.343,0.523-0.6,0.832-0.771
			c0.309-0.171,0.684-0.257,1.123-0.257c0.576,0,1.084,0.148,1.523,0.444c0.441,0.296,0.773,0.714,0.998,1.254
			c0.223,0.539,0.336,1.131,0.336,1.774c0,0.69-0.123,1.311-0.371,1.863c-0.248,0.553-0.607,0.976-1.08,1.27
			c-0.471,0.294-0.967,0.441-1.488,0.441c-0.381,0-0.723-0.081-1.025-0.241s-0.551-0.364-0.746-0.609v3.282H167.855z
			 M168.891,13.337c0,0.868,0.176,1.509,0.527,1.923s0.775,0.622,1.275,0.622c0.508,0,0.943-0.215,1.305-0.645
			c0.361-0.429,0.543-1.095,0.543-1.996c0-0.859-0.178-1.502-0.529-1.93c-0.354-0.427-0.777-0.641-1.268-0.641
			c-0.486,0-0.916,0.228-1.291,0.682C169.078,11.808,168.891,12.469,168.891,13.337z"/>
		<path fill="#FFFFFF" d="M179.701,14.499l1.18,0.146c-0.186,0.69-0.531,1.225-1.033,1.606c-0.504,0.381-1.148,0.571-1.93,0.571
			c-0.986,0-1.77-0.304-2.346-0.911c-0.578-0.607-0.867-1.458-0.867-2.555c0-1.134,0.293-2.014,0.877-2.641s1.34-0.939,2.271-0.939
			c0.902,0,1.639,0.307,2.209,0.92c0.572,0.614,0.857,1.477,0.857,2.59c0,0.068-0.002,0.169-0.006,0.305h-5.027
			c0.041,0.741,0.252,1.308,0.627,1.701c0.377,0.394,0.848,0.59,1.41,0.59c0.418,0,0.775-0.11,1.072-0.33
			S179.527,14.981,179.701,14.499z M175.949,12.651h3.764c-0.051-0.567-0.193-0.992-0.432-1.276c-0.363-0.44-0.836-0.66-1.414-0.66
			c-0.525,0-0.967,0.176-1.324,0.527S175.988,12.063,175.949,12.651z"/>
		<path fill="#FFFFFF" d="M182.303,16.669V9.928h1.029v1.022c0.262-0.478,0.504-0.793,0.727-0.946s0.467-0.229,0.732-0.229
			c0.387,0,0.777,0.123,1.176,0.368l-0.395,1.06c-0.279-0.165-0.559-0.248-0.838-0.248c-0.25,0-0.475,0.075-0.672,0.226
			c-0.199,0.15-0.342,0.358-0.426,0.625c-0.127,0.406-0.191,0.851-0.191,1.333v3.529H182.303z"/>
		<path fill="#FFFFFF" d="M186.918,16.669v-5.853h-1.01V9.928h1.01V9.211c0-0.453,0.041-0.789,0.121-1.009
			c0.109-0.296,0.303-0.536,0.58-0.721c0.277-0.184,0.666-0.276,1.166-0.276c0.32,0,0.676,0.038,1.066,0.114l-0.172,0.997
			c-0.236-0.042-0.461-0.063-0.674-0.063c-0.346,0-0.592,0.074-0.736,0.222c-0.143,0.148-0.215,0.425-0.215,0.832v0.622h1.314v0.889
			h-1.314v5.853H186.918z"/>
		<path fill="#FFFFFF" d="M190.264,8.678V7.364h1.143v1.314H190.264z M190.264,16.669V9.928h1.143v6.741H190.264z"/>
		<path fill="#FFFFFF" d="M193.119,16.669V7.364h1.143v9.306H193.119z"/>
		<path fill="#FFFFFF" d="M204.02,16.669v-0.851c-0.428,0.668-1.057,1.003-1.887,1.003c-0.537,0-1.031-0.148-1.48-0.444
			c-0.451-0.296-0.801-0.71-1.049-1.241c-0.246-0.531-0.371-1.141-0.371-1.831c0-0.673,0.113-1.283,0.336-1.831
			c0.225-0.548,0.561-0.968,1.01-1.26s0.951-0.438,1.504-0.438c0.406,0,0.77,0.086,1.086,0.257c0.318,0.172,0.576,0.395,0.775,0.67
			V7.364h1.135v9.306H204.02z M200.406,13.305c0,0.863,0.184,1.509,0.547,1.936s0.793,0.641,1.289,0.641
			c0.498,0,0.924-0.204,1.271-0.612c0.35-0.409,0.523-1.032,0.523-1.87c0-0.922-0.178-1.6-0.533-2.031s-0.793-0.647-1.313-0.647
			c-0.508,0-0.934,0.208-1.273,0.622S200.406,12.412,200.406,13.305z"/>
		<path fill="#FFFFFF" d="M211.49,14.499l1.18,0.146c-0.186,0.69-0.531,1.225-1.033,1.606c-0.504,0.381-1.148,0.571-1.93,0.571
			c-0.986,0-1.77-0.304-2.346-0.911c-0.578-0.607-0.867-1.458-0.867-2.555c0-1.134,0.293-2.014,0.877-2.641s1.34-0.939,2.271-0.939
			c0.902,0,1.639,0.307,2.209,0.92c0.572,0.614,0.857,1.477,0.857,2.59c0,0.068-0.002,0.169-0.006,0.305h-5.027
			c0.041,0.741,0.252,1.308,0.627,1.701c0.377,0.394,0.848,0.59,1.41,0.59c0.418,0,0.775-0.11,1.072-0.33
			S211.316,14.981,211.49,14.499z M207.738,12.651h3.764c-0.051-0.567-0.193-0.992-0.432-1.276c-0.363-0.44-0.836-0.66-1.414-0.66
			c-0.525,0-0.967,0.176-1.324,0.527S207.777,12.063,207.738,12.651z"/>
		<path fill="#FFFFFF" d="M53.23,30.099l1.181,0.146c-0.186,0.69-0.531,1.226-1.035,1.606s-1.147,0.57-1.93,0.57
			c-0.986,0-1.768-0.303-2.345-0.91c-0.578-0.607-0.867-1.459-0.867-2.555c0-1.135,0.292-2.015,0.876-2.641s1.341-0.939,2.272-0.939
			c0.901,0,1.638,0.307,2.209,0.92c0.571,0.613,0.857,1.477,0.857,2.59c0,0.068-0.002,0.17-0.006,0.305h-5.027
			c0.042,0.74,0.252,1.308,0.628,1.701s0.846,0.59,1.409,0.59c0.419,0,0.776-0.109,1.073-0.33
			C52.822,30.932,53.057,30.582,53.23,30.099z M49.479,28.251h3.764c-0.051-0.566-0.195-0.992-0.432-1.275
			c-0.364-0.44-0.836-0.661-1.416-0.661c-0.525,0-0.966,0.176-1.324,0.527C49.715,27.193,49.517,27.664,49.479,28.251z"/>
		<path fill="#FFFFFF" d="M55.846,32.269v-6.741h1.028v0.958c0.495-0.741,1.21-1.111,2.146-1.111c0.406,0,0.78,0.073,1.121,0.219
			c0.34,0.146,0.595,0.338,0.765,0.575s0.288,0.519,0.355,0.844c0.042,0.212,0.063,0.582,0.063,1.111v4.145h-1.143v-4.1
			c0-0.466-0.044-0.814-0.133-1.045s-0.247-0.414-0.473-0.553c-0.226-0.137-0.492-0.206-0.796-0.206
			c-0.487,0-0.907,0.154-1.26,0.463c-0.353,0.309-0.53,0.895-0.53,1.758v3.682H55.846z"/>
		<path fill="#FFFFFF" d="M65.57,31.248l0.165,1.01c-0.322,0.067-0.609,0.102-0.863,0.102c-0.415,0-0.736-0.066-0.965-0.197
			s-0.389-0.304-0.482-0.518c-0.093-0.213-0.14-0.663-0.14-1.349v-3.878h-0.838v-0.889h0.838v-1.669l1.136-0.686v2.355h1.149v0.889
			h-1.149v3.942c0,0.326,0.02,0.535,0.06,0.629c0.041,0.093,0.106,0.166,0.197,0.222c0.091,0.056,0.221,0.083,0.39,0.083
			C65.196,31.292,65.363,31.277,65.57,31.248z"/>
		<path fill="#FFFFFF" d="M66.675,32.269v-6.741h1.028v1.022c0.262-0.478,0.504-0.793,0.727-0.946
			c0.222-0.152,0.466-0.229,0.733-0.229c0.385,0,0.776,0.123,1.174,0.368l-0.394,1.06c-0.279-0.165-0.559-0.248-0.838-0.248
			c-0.25,0-0.474,0.076-0.673,0.227c-0.199,0.149-0.341,0.357-0.425,0.625c-0.127,0.406-0.19,0.85-0.19,1.332v3.529H66.675z"/>
		<path fill="#FFFFFF" d="M75.416,31.438c-0.423,0.36-0.831,0.614-1.222,0.762c-0.392,0.147-0.812,0.222-1.26,0.222
			c-0.741,0-1.31-0.18-1.708-0.543c-0.398-0.361-0.597-0.823-0.597-1.387c0-0.33,0.075-0.631,0.226-0.904
			c0.15-0.273,0.347-0.492,0.59-0.656c0.244-0.166,0.518-0.291,0.822-0.375c0.224-0.059,0.563-0.116,1.016-0.172
			c0.922-0.109,1.602-0.24,2.038-0.393c0.004-0.157,0.006-0.256,0.006-0.299c0-0.465-0.108-0.793-0.324-0.984
			c-0.292-0.258-0.726-0.387-1.301-0.387c-0.538,0-0.934,0.094-1.19,0.283c-0.256,0.188-0.445,0.521-0.568,0.999l-1.117-0.152
			c0.102-0.478,0.269-0.864,0.501-1.159c0.233-0.294,0.569-0.521,1.009-0.679c0.44-0.159,0.95-0.238,1.53-0.238
			c0.576,0,1.043,0.068,1.403,0.203s0.624,0.306,0.793,0.511c0.169,0.206,0.288,0.464,0.355,0.778
			c0.038,0.194,0.057,0.546,0.057,1.054v1.523c0,1.063,0.024,1.734,0.073,2.016c0.049,0.281,0.145,0.551,0.289,0.809h-1.193
			C75.525,32.033,75.449,31.755,75.416,31.438z M75.32,28.886c-0.415,0.17-1.037,0.313-1.866,0.432
			c-0.47,0.068-0.802,0.145-0.997,0.229s-0.345,0.209-0.451,0.371c-0.106,0.163-0.159,0.344-0.159,0.543
			c0,0.305,0.115,0.559,0.346,0.762c0.231,0.203,0.568,0.305,1.013,0.305c0.44,0,0.832-0.096,1.174-0.289
			c0.343-0.192,0.595-0.455,0.755-0.79c0.123-0.259,0.184-0.64,0.184-1.143V28.886z"/>
		<path fill="#FFFFFF" d="M82.62,32.269v-0.85c-0.427,0.668-1.056,1.002-1.885,1.002c-0.538,0-1.032-0.147-1.482-0.443
			c-0.451-0.297-0.8-0.711-1.048-1.242c-0.247-0.53-0.371-1.141-0.371-1.83c0-0.674,0.112-1.283,0.336-1.832
			c0.224-0.548,0.561-0.968,1.009-1.26s0.95-0.438,1.504-0.438c0.406,0,0.768,0.086,1.085,0.257c0.317,0.172,0.576,0.395,0.774,0.67
			v-3.339h1.136v9.305H82.62z M79.008,28.906c0,0.863,0.182,1.508,0.546,1.936s0.793,0.641,1.289,0.641
			c0.5,0,0.924-0.203,1.272-0.611c0.35-0.409,0.524-1.032,0.524-1.87c0-0.923-0.178-1.6-0.533-2.031s-0.793-0.647-1.314-0.647
			c-0.508,0-0.932,0.207-1.272,0.622C79.179,27.359,79.008,28.012,79.008,28.906z"/>
		<path fill="#FFFFFF" d="M89.875,31.438c-0.423,0.36-0.831,0.614-1.222,0.762c-0.392,0.147-0.812,0.222-1.26,0.222
			c-0.741,0-1.31-0.18-1.708-0.543c-0.398-0.361-0.597-0.823-0.597-1.387c0-0.33,0.075-0.631,0.226-0.904
			c0.15-0.273,0.347-0.492,0.59-0.656c0.244-0.166,0.518-0.291,0.822-0.375c0.224-0.059,0.563-0.116,1.016-0.172
			c0.922-0.109,1.602-0.24,2.038-0.393c0.004-0.157,0.006-0.256,0.006-0.299c0-0.465-0.108-0.793-0.324-0.984
			c-0.292-0.258-0.726-0.387-1.301-0.387c-0.538,0-0.934,0.094-1.19,0.283c-0.256,0.188-0.445,0.521-0.568,0.999l-1.117-0.152
			c0.102-0.478,0.269-0.864,0.501-1.159c0.233-0.294,0.569-0.521,1.009-0.679c0.44-0.159,0.95-0.238,1.53-0.238
			c0.576,0,1.043,0.068,1.403,0.203s0.624,0.306,0.793,0.511c0.169,0.206,0.288,0.464,0.355,0.778
			c0.038,0.194,0.057,0.546,0.057,1.054v1.523c0,1.063,0.024,1.734,0.073,2.016c0.049,0.281,0.145,0.551,0.289,0.809h-1.193
			C89.985,32.033,89.909,31.755,89.875,31.438z M89.78,28.886c-0.415,0.17-1.037,0.313-1.866,0.432
			c-0.47,0.068-0.802,0.145-0.997,0.229s-0.345,0.209-0.451,0.371c-0.106,0.163-0.159,0.344-0.159,0.543
			c0,0.305,0.115,0.559,0.346,0.762c0.231,0.203,0.568,0.305,1.013,0.305c0.44,0,0.832-0.096,1.174-0.289
			c0.343-0.192,0.595-0.455,0.755-0.79c0.123-0.259,0.184-0.64,0.184-1.143V28.886z"/>
	</g>
</g>
<circle fill="none" stroke="#FFFFFF" stroke-miterlimit="10" cx="33.321" cy="16.638" r="4.418"/>
</svg>
