<?xml version="1.0" encoding="utf-8"?>
<!-- Generator: Adobe Illustrator 16.0.0, SVG Export Plug-In . SVG Version: 6.00 Build 0)  -->
<!DOCTYPE svg PUBLIC "-//W3C//DTD SVG 1.1//EN" "http://www.w3.org/Graphics/SVG/1.1/DTD/svg11.dtd">
<svg version="1.1" id="Capa_1" xmlns="http://www.w3.org/2000/svg" xmlns:xlink="http://www.w3.org/1999/xlink" x="0px" y="0px"
	 width="154.914px" height="74.254px" viewBox="0 0 154.914 74.254" enable-background="new 0 0 154.914 74.254"
	 xml:space="preserve">
<g>
	<g opacity="0.5">
		<g>
			<g>
				<g>
					<defs>
						<rect id="SVGID_1_" x="-0.457" y="-0.186" width="154.917" height="74.254"/>
					</defs>
					<clipPath id="SVGID_2_">
						<use xlink:href="#SVGID_1_"  overflow="visible"/>
					</clipPath>
					<g clip-path="url(#SVGID_2_)">
						<rect x="-0.457" y="-0.186" fill="#FFFFFF" width="154.913" height="74.254"/>
					</g>
				</g>
			</g>
		</g>
	</g>
	<g>
		<rect x="-0.457" y="-0.186" width="155.164" height="48.153"/>
	</g>
	<g enable-background="new    ">
		<path d="M23.24,65.145h-1.729l-0.688-1.789h-3.147l-0.65,1.789h-1.687l3.067-7.874h1.681L23.24,65.145z M20.313,62.029
			l-1.085-2.922l-1.063,2.922H20.313z"/>
		<path d="M29.122,62.25l1.542,0.488c-0.236,0.859-0.629,1.498-1.179,1.915c-0.55,0.417-1.247,0.626-2.092,0.626
			c-1.045,0-1.905-0.357-2.578-1.072c-0.673-0.714-1.01-1.69-1.01-2.93c0-1.311,0.338-2.328,1.015-3.054
			c0.677-0.725,1.566-1.087,2.669-1.087c0.963,0,1.746,0.284,2.347,0.854c0.358,0.337,0.626,0.82,0.806,1.45l-1.574,0.376
			c-0.093-0.408-0.288-0.73-0.583-0.967c-0.296-0.236-0.655-0.354-1.077-0.354c-0.583,0-1.057,0.21-1.421,0.628
			c-0.363,0.42-0.545,1.098-0.545,2.036c0,0.995,0.179,1.704,0.537,2.127s0.824,0.634,1.396,0.634c0.422,0,0.786-0.135,1.09-0.402
			C28.771,63.248,28.989,62.826,29.122,62.25z"/>
		<path d="M33.8,65.145v-6.542h-2.336v-1.332h6.257v1.332H35.39v6.542H33.8z"/>
		<path d="M38.698,65.145v-7.874h1.59v7.874H38.698z"/>
		<path d="M43.812,65.145l-2.814-7.874h1.724l1.993,5.827l1.928-5.827h1.687l-2.82,7.874H43.812z"/>
		<path d="M49.091,65.145v-7.874h1.59v7.874H49.091z"/>
		<path d="M52.19,57.271h2.906c0.655,0,1.155,0.05,1.499,0.15c0.462,0.136,0.857,0.378,1.187,0.726
			c0.33,0.347,0.58,0.772,0.752,1.275s0.258,1.123,0.258,1.861c0,0.647-0.081,1.206-0.242,1.676
			c-0.197,0.572-0.478,1.036-0.843,1.391c-0.276,0.269-0.648,0.479-1.117,0.629c-0.351,0.11-0.82,0.166-1.407,0.166H52.19V57.271z
			 M53.78,58.603v5.216h1.187c0.444,0,0.765-0.025,0.961-0.076c0.258-0.064,0.472-0.173,0.642-0.327
			c0.17-0.154,0.309-0.407,0.417-0.76s0.161-0.834,0.161-1.442s-0.054-1.076-0.161-1.402c-0.107-0.325-0.258-0.58-0.451-0.762
			c-0.193-0.184-0.438-0.307-0.736-0.371c-0.222-0.05-0.657-0.075-1.305-0.075H53.78z"/>
		<path d="M67.24,65.145h-1.729l-0.688-1.789h-3.147l-0.65,1.789h-1.687l3.067-7.874h1.681L67.24,65.145z M64.313,62.029
			l-1.085-2.922l-1.063,2.922H64.313z"/>
		<path d="M68.078,57.271h2.906c0.655,0,1.155,0.05,1.499,0.15c0.462,0.136,0.857,0.378,1.187,0.726
			c0.33,0.347,0.58,0.772,0.752,1.275s0.258,1.123,0.258,1.861c0,0.647-0.081,1.206-0.242,1.676
			c-0.197,0.572-0.478,1.036-0.843,1.391c-0.276,0.269-0.648,0.479-1.117,0.629c-0.351,0.11-0.82,0.166-1.407,0.166h-2.992V57.271z
			 M69.668,58.603v5.216h1.187c0.444,0,0.765-0.025,0.961-0.076c0.258-0.064,0.472-0.173,0.642-0.327
			c0.17-0.154,0.309-0.407,0.417-0.76s0.161-0.834,0.161-1.442s-0.054-1.076-0.161-1.402c-0.107-0.325-0.258-0.58-0.451-0.762
			c-0.193-0.184-0.438-0.307-0.736-0.371c-0.222-0.05-0.657-0.075-1.305-0.075H69.668z"/>
		<path d="M79.078,57.271h2.906c0.654,0,1.154,0.05,1.498,0.15c0.462,0.136,0.857,0.378,1.188,0.726
			c0.329,0.347,0.58,0.772,0.752,1.275s0.258,1.123,0.258,1.861c0,0.647-0.081,1.206-0.242,1.676
			c-0.197,0.572-0.479,1.036-0.844,1.391c-0.275,0.269-0.647,0.479-1.117,0.629c-0.351,0.11-0.819,0.166-1.406,0.166h-2.992V57.271z
			 M80.668,58.603v5.216h1.188c0.443,0,0.764-0.025,0.961-0.076c0.258-0.064,0.472-0.173,0.642-0.327
			c0.171-0.154,0.31-0.407,0.417-0.76s0.16-0.834,0.16-1.442s-0.053-1.076-0.16-1.402c-0.107-0.325-0.258-0.58-0.451-0.762
			c-0.193-0.184-0.439-0.307-0.736-0.371c-0.223-0.05-0.657-0.075-1.305-0.075H80.668z"/>
		<path d="M86.979,65.145v-7.874h1.59v7.874H86.979z"/>
		<path d="M90.078,57.271h2.906c0.654,0,1.154,0.05,1.498,0.15c0.462,0.136,0.857,0.378,1.188,0.726
			c0.329,0.347,0.58,0.772,0.752,1.275s0.258,1.123,0.258,1.861c0,0.647-0.081,1.206-0.242,1.676
			c-0.197,0.572-0.479,1.036-0.844,1.391c-0.275,0.269-0.647,0.479-1.117,0.629c-0.351,0.11-0.819,0.166-1.406,0.166h-2.992V57.271z
			 M91.668,58.603v5.216h1.188c0.443,0,0.764-0.025,0.961-0.076c0.258-0.064,0.472-0.173,0.642-0.327
			c0.171-0.154,0.31-0.407,0.417-0.76s0.16-0.834,0.16-1.442s-0.053-1.076-0.16-1.402c-0.107-0.325-0.258-0.58-0.451-0.762
			c-0.193-0.184-0.439-0.307-0.736-0.371c-0.223-0.05-0.657-0.075-1.305-0.075H91.668z"/>
		<path d="M105.128,65.145h-1.729l-0.688-1.789h-3.147l-0.649,1.789h-1.688l3.067-7.874h1.681L105.128,65.145z M102.201,62.029
			l-1.086-2.922l-1.063,2.922H102.201z M100.203,56.819l0.74-1.606h1.692l-1.478,1.606H100.203z"/>
		<path d="M111.01,62.25l1.541,0.488c-0.236,0.859-0.629,1.498-1.179,1.915s-1.247,0.626-2.093,0.626
			c-1.045,0-1.904-0.357-2.578-1.072c-0.673-0.714-1.01-1.69-1.01-2.93c0-1.311,0.339-2.328,1.016-3.054
			c0.677-0.725,1.566-1.087,2.67-1.087c0.963,0,1.745,0.284,2.347,0.854c0.358,0.337,0.626,0.82,0.806,1.45l-1.574,0.376
			c-0.093-0.408-0.287-0.73-0.582-0.967c-0.296-0.236-0.654-0.354-1.077-0.354c-0.583,0-1.058,0.21-1.421,0.628
			c-0.363,0.42-0.545,1.098-0.545,2.036c0,0.995,0.18,1.704,0.537,2.127s0.824,0.634,1.396,0.634c0.422,0,0.786-0.135,1.09-0.402
			C110.658,63.248,110.877,62.826,111.01,62.25z"/>
		<path d="M115.688,65.145v-6.542h-2.336v-1.332h6.257v1.332h-2.331v6.542H115.688z"/>
		<path d="M120.586,65.145v-7.874h1.59v7.874H120.586z"/>
		<path d="M128.729,62.25l1.541,0.488c-0.236,0.859-0.629,1.498-1.178,1.915c-0.551,0.417-1.248,0.626-2.093,0.626
			c-1.046,0-1.905-0.357-2.578-1.072c-0.673-0.714-1.01-1.69-1.01-2.93c0-1.311,0.339-2.328,1.015-3.054
			c0.678-0.725,1.566-1.087,2.67-1.087c0.963,0,1.746,0.284,2.348,0.854c0.357,0.337,0.626,0.82,0.805,1.45l-1.573,0.376
			c-0.093-0.408-0.288-0.73-0.583-0.967s-0.654-0.354-1.076-0.354c-0.584,0-1.058,0.21-1.422,0.628
			c-0.363,0.42-0.545,1.098-0.545,2.036c0,0.995,0.18,1.704,0.537,2.127c0.358,0.423,0.824,0.634,1.396,0.634
			c0.423,0,0.787-0.135,1.091-0.402C128.377,63.248,128.596,62.826,128.729,62.25z"/>
		<path d="M138.734,65.145h-1.729l-0.688-1.789h-3.148l-0.649,1.789h-1.687l3.066-7.874h1.682L138.734,65.145z M135.808,62.029
			l-1.085-2.922l-1.063,2.922H135.808z"/>
	</g>
	<g>
		<path fill="#FEFEFE" d="M89.637,18.015v16.997c0,2.098-1.753,3.849-4.035,3.849H65.638c-2.279,0-4.026-1.751-4.026-3.849V14.863
			c0-2.275,1.747-4.028,4.026-4.028h16.991L78.6,14.863H65.638v20.149h19.963V22.047L89.637,18.015z M86.654,9.61l-1.396,1.574
			l4.205,4.207l1.4-1.403L86.654,9.61z M89.463,6.808l-1.398,1.398l4.197,4.382l1.409-1.404L89.463,6.808z M71.071,25.197
			l4.199,4.383l12.792-12.787l-4.209-4.205L71.071,25.197z M69.667,30.977h4.03l-4.03-4.028V30.977z"/>
	</g>
</g>
</svg>
