<?xml version="1.0" encoding="utf-8"?>
<!-- Generator: Adobe Illustrator 16.0.0, SVG Export Plug-In . SVG Version: 6.00 Build 0)  -->
<!DOCTYPE svg PUBLIC "-//W3C//DTD SVG 1.1//EN" "http://www.w3.org/Graphics/SVG/1.1/DTD/svg11.dtd">
<svg version="1.1" id="Capa_1" xmlns="http://www.w3.org/2000/svg" xmlns:xlink="http://www.w3.org/1999/xlink" x="0px" y="0px"
	 width="154.914px" height="74.254px" viewBox="0 0 154.914 74.254" enable-background="new 0 0 154.914 74.254"
	 xml:space="preserve">
<g>
	<g opacity="0.5">
		<g>
			<g>
				<g>
					<defs>
						<rect id="SVGID_1_" x="-0.341" y="-0.186" width="154.92" height="74.254"/>
					</defs>
					<clipPath id="SVGID_2_">
						<use xlink:href="#SVGID_1_"  overflow="visible"/>
					</clipPath>
					<g clip-path="url(#SVGID_2_)">
						<rect x="-0.34" y="-0.186" fill="#FFFFFF" width="154.914" height="74.254"/>
					</g>
				</g>
			</g>
		</g>
	</g>
	<g>
		<rect x="-0.34" y="-0.186" width="154.914" height="48.153"/>
	</g>
	<g enable-background="new    ">
		<path d="M52.249,62.25v-1.327h3.427v3.137c-0.333,0.322-0.815,0.606-1.448,0.852c-0.632,0.245-1.272,0.368-1.92,0.368
			c-0.824,0-1.542-0.173-2.154-0.519s-1.072-0.84-1.38-1.482s-0.462-1.342-0.462-2.098c0-0.82,0.172-1.549,0.516-2.187
			c0.344-0.637,0.847-1.126,1.509-1.466c0.505-0.262,1.133-0.392,1.885-0.392c0.978,0,1.741,0.204,2.291,0.614
			c0.549,0.41,0.903,0.977,1.061,1.7l-1.579,0.295c-0.111-0.387-0.319-0.691-0.626-0.915c-0.306-0.224-0.688-0.336-1.146-0.336
			c-0.695,0-1.247,0.22-1.657,0.661c-0.41,0.439-0.615,1.094-0.615,1.96c0,0.935,0.208,1.636,0.623,2.103
			c0.416,0.468,0.959,0.701,1.633,0.701c0.333,0,0.667-0.065,1.001-0.196c0.335-0.131,0.623-0.289,0.862-0.476V62.25H52.249z"/>
		<path d="M57.185,65.145v-7.81h1.59v6.483h3.953v1.326H57.185z"/>
		<path d="M63.539,61.256c0-0.802,0.12-1.476,0.36-2.02c0.179-0.401,0.423-0.761,0.733-1.08c0.31-0.318,0.649-0.555,1.018-0.709
			c0.491-0.207,1.056-0.311,1.697-0.311c1.16,0,2.088,0.359,2.785,1.079c0.696,0.72,1.044,1.721,1.044,3.003
			c0,1.271-0.346,2.266-1.037,2.983s-1.615,1.077-2.771,1.077c-1.171,0-2.102-0.357-2.793-1.072
			C63.885,63.493,63.539,62.509,63.539,61.256z M65.177,61.202c0,0.892,0.206,1.567,0.618,2.027s0.935,0.69,1.568,0.69
			s1.154-0.229,1.56-0.685c0.407-0.457,0.61-1.142,0.61-2.055c0-0.902-0.198-1.575-0.593-2.02c-0.396-0.444-0.921-0.666-1.577-0.666
			s-1.184,0.225-1.584,0.674S65.177,60.296,65.177,61.202z"/>
		<path d="M72.015,62.582l1.547-0.15c0.093,0.52,0.282,0.901,0.566,1.145c0.285,0.243,0.669,0.365,1.152,0.365
			c0.512,0,0.898-0.108,1.157-0.325c0.26-0.217,0.39-0.47,0.39-0.76c0-0.187-0.055-0.345-0.164-0.476
			c-0.109-0.131-0.3-0.244-0.572-0.341c-0.186-0.064-0.61-0.179-1.273-0.344c-0.852-0.211-1.45-0.471-1.794-0.778
			c-0.483-0.434-0.725-0.962-0.725-1.585c0-0.401,0.114-0.776,0.341-1.125c0.227-0.35,0.555-0.615,0.982-0.798
			c0.428-0.183,0.945-0.273,1.55-0.273c0.988,0,1.732,0.216,2.231,0.649c0.5,0.434,0.762,1.012,0.787,1.735l-1.59,0.069
			c-0.068-0.404-0.214-0.695-0.438-0.873c-0.224-0.177-0.56-0.266-1.007-0.266c-0.462,0-0.824,0.095-1.085,0.284
			c-0.168,0.122-0.252,0.285-0.252,0.489c0,0.187,0.079,0.346,0.236,0.478c0.201,0.169,0.688,0.344,1.461,0.527
			c0.773,0.182,1.346,0.371,1.716,0.566c0.371,0.195,0.661,0.462,0.87,0.8c0.21,0.339,0.314,0.757,0.314,1.255
			c0,0.451-0.126,0.873-0.376,1.268c-0.25,0.394-0.605,0.687-1.063,0.878s-1.029,0.287-1.713,0.287c-0.996,0-1.76-0.23-2.293-0.69
			S72.119,63.463,72.015,62.582z"/>
		<path d="M86.855,65.145h-1.73l-0.688-1.789h-3.146l-0.65,1.789h-1.687l3.067-7.874h1.681L86.855,65.145z M83.928,62.029
			l-1.085-2.922l-1.063,2.922H83.928z"/>
		<path d="M87.703,65.145v-7.874h3.347c0.841,0,1.452,0.07,1.835,0.212c0.381,0.142,0.686,0.394,0.915,0.755
			s0.344,0.775,0.344,1.241c0,0.59-0.174,1.078-0.521,1.463c-0.348,0.385-0.867,0.628-1.559,0.729c0.344,0.2,0.628,0.42,0.852,0.66
			c0.225,0.24,0.525,0.666,0.905,1.278l0.962,1.536h-1.902l-1.148-1.713c-0.408-0.613-0.688-0.999-0.838-1.158
			s-0.311-0.269-0.479-0.327c-0.168-0.06-0.436-0.089-0.801-0.089h-0.322v3.287H87.703z M89.293,60.601h1.177
			c0.763,0,1.239-0.032,1.429-0.097s0.338-0.176,0.445-0.333s0.162-0.354,0.162-0.591c0-0.265-0.071-0.479-0.213-0.642
			c-0.141-0.163-0.341-0.267-0.599-0.31c-0.129-0.018-0.516-0.026-1.16-0.026h-1.241V60.601z"/>
		<path d="M95.594,65.145v-7.874h1.59v7.874H95.594z"/>
		<path d="M98.376,61.256c0-0.802,0.12-1.476,0.36-2.02c0.179-0.401,0.423-0.761,0.732-1.08c0.311-0.318,0.649-0.555,1.018-0.709
			c0.491-0.207,1.057-0.311,1.697-0.311c1.16,0,2.089,0.359,2.785,1.079c0.697,0.72,1.045,1.721,1.045,3.003
			c0,1.271-0.346,2.266-1.037,2.983c-0.69,0.718-1.614,1.077-2.771,1.077c-1.17,0-2.102-0.357-2.793-1.072
			C98.722,63.493,98.376,62.509,98.376,61.256z M100.014,61.202c0,0.892,0.207,1.567,0.618,2.027s0.935,0.69,1.568,0.69
			s1.153-0.229,1.56-0.685c0.407-0.457,0.61-1.142,0.61-2.055c0-0.902-0.198-1.575-0.593-2.02c-0.396-0.444-0.922-0.666-1.577-0.666
			s-1.184,0.225-1.585,0.674C100.215,59.618,100.014,60.296,100.014,61.202z"/>
	</g>
	<g>
		<path fill="#FFFFFF" d="M90.396,39.506l-3.418-3.422c0.715-1.13,1.137-2.463,1.137-3.898c0-4.013-3.271-7.285-7.285-7.285
			c-4.014,0-7.284,3.272-7.284,7.285c0,4.02,3.271,7.287,7.284,7.287c1.43,0,2.77-0.422,3.893-1.137l3.422,3.422
			c0.311,0.313,0.722,0.471,1.131,0.471c0.404,0,0.812-0.158,1.123-0.471C91.021,41.133,91.021,40.127,90.396,39.506 M80.829,37.195
			c-2.763,0-5.009-2.247-5.009-5.009c0-2.761,2.247-5.008,5.009-5.008s5.009,2.247,5.009,5.008
			C85.838,34.948,83.592,37.195,80.829,37.195"/>
	</g>
	<g>
		<path fill="#FFFFFF" d="M74.885,26.218h-8.644c-0.293,0-0.525,0.234-0.525,0.527v0.526c0,0.288,0.232,0.521,0.525,0.521h7.409
			C74.001,27.219,74.409,26.693,74.885,26.218"/>
	</g>
	<g>
		<path fill="#FFFFFF" d="M69.898,11.005h6.854c0.858,0,1.563-0.703,1.563-1.563v-0.03c0-0.86-0.703-1.556-1.563-1.556h-0.81
			c-0.433,0-0.777-0.351-0.777-0.784v-0.03c0-1-0.813-1.813-1.818-1.813h-0.042c-1.001,0-1.814,0.813-1.814,1.813v0.03
			c0,0.433-0.351,0.784-0.783,0.784H69.9c-0.86,0-1.556,0.696-1.556,1.556v0.03C68.344,10.302,69.038,11.005,69.898,11.005
			 M73.327,6.277c0.435,0,0.783,0.357,0.783,0.789c0,0.433-0.35,0.79-0.783,0.79c-0.438,0-0.791-0.357-0.791-0.79
			C72.536,6.634,72.89,6.277,73.327,6.277"/>
	</g>
	<g>
		<path fill="#FFFFFF" d="M66.24,30.94c-0.292,0-0.524,0.241-0.524,0.527v0.528c0,0.286,0.232,0.525,0.524,0.525h6.173
			c-0.004-0.11-0.016-0.221-0.016-0.328c0-0.427,0.04-0.842,0.1-1.252H66.24z"/>
	</g>
	<g>
		<path fill="#FFFFFF" d="M80.936,23.071v-0.527c0-0.286-0.233-0.522-0.526-0.522H66.241c-0.292,0-0.524,0.236-0.524,0.522v0.527
			c0,0.292,0.232,0.526,0.524,0.526h14.167C80.7,23.597,80.936,23.363,80.936,23.071"/>
	</g>
	<g>
		<path fill="#FFFFFF" d="M64.142,35.663v-20.99H82.51v9.252c0.94,0.193,1.824,0.55,2.622,1.023V11.484
			c0-1.018-0.825-1.842-1.839-1.842h-3.955c-0.117,1.357-1.225,2.41-2.586,2.41h-6.854c-1.363,0-2.47-1.053-2.587-2.382h-3.954
			c-1.019,0-1.838,0.819-1.838,1.838v24.938c0,1.02,0.825,1.844,1.838,1.844h11.667c-0.779-0.742-1.417-1.631-1.872-2.626
			L64.142,35.663L64.142,35.663z"/>
	</g>
	<g>
		<path fill="#FFFFFF" d="M80.936,17.822c0-0.288-0.233-0.521-0.526-0.521H66.241c-0.292,0-0.524,0.233-0.524,0.521v0.526
			c0,0.293,0.232,0.527,0.524,0.527h14.167c0.293,0,0.527-0.234,0.527-0.527V17.822L80.936,17.822z"/>
	</g>
</g>
</svg>
