<?xml version="1.0" encoding="utf-8"?>
<!-- Generator: Adobe Illustrator 16.0.0, SVG Export Plug-In . SVG Version: 6.00 Build 0)  -->
<!DOCTYPE svg PUBLIC "-//W3C//DTD SVG 1.1//EN" "http://www.w3.org/Graphics/SVG/1.1/DTD/svg11.dtd">
<svg version="1.1" id="Capa_1" xmlns="http://www.w3.org/2000/svg" xmlns:xlink="http://www.w3.org/1999/xlink" x="0px" y="0px"
	 width="233.319px" height="40.17px" viewBox="0 0 233.319 40.17" enable-background="new 0 0 233.319 40.17" xml:space="preserve">
<line opacity="0.5" fill="none" stroke="#FFFFFF" stroke-miterlimit="10" x1="40.646" y1="0.5" x2="219.099" y2="0.5"/>
<line opacity="0.5" fill="none" stroke="#FFFFFF" stroke-miterlimit="10" x1="40.646" y1="39.67" x2="219.099" y2="39.67"/>
<g>
	<path fill="#FFFFFF" d="M48.724,15.747V6.441h1.854l2.203,6.589c0.203,0.614,0.351,1.073,0.444,1.377
		c0.106-0.338,0.271-0.836,0.495-1.492l2.228-6.475h1.657v9.306h-1.187V7.958l-2.704,7.789h-1.111l-2.691-7.922v7.922H48.724z"/>
	<path fill="#FFFFFF" d="M59.02,12.376c0-1.249,0.347-2.173,1.041-2.774c0.58-0.5,1.287-0.749,2.12-0.749
		c0.927,0,1.684,0.304,2.272,0.911c0.588,0.607,0.882,1.446,0.882,2.517c0,0.868-0.13,1.55-0.39,2.047
		c-0.261,0.498-0.639,0.884-1.137,1.159c-0.497,0.275-1.04,0.413-1.628,0.413c-0.944,0-1.707-0.303-2.288-0.908
		C59.311,14.386,59.02,13.514,59.02,12.376z M60.194,12.376c0,0.863,0.188,1.51,0.565,1.939c0.376,0.43,0.851,0.645,1.422,0.645
		c0.567,0,1.039-0.216,1.416-0.647s0.565-1.09,0.565-1.974c0-0.833-0.189-1.465-0.568-1.895c-0.378-0.429-0.849-0.644-1.412-0.644
		c-0.571,0-1.045,0.214-1.422,0.641S60.194,11.513,60.194,12.376z"/>
	<path fill="#FFFFFF" d="M71.048,15.747v-0.851c-0.427,0.668-1.056,1.003-1.885,1.003c-0.538,0-1.032-0.148-1.482-0.444
		c-0.451-0.296-0.8-0.71-1.048-1.241c-0.247-0.531-0.371-1.141-0.371-1.831c0-0.673,0.112-1.283,0.336-1.831
		c0.224-0.548,0.561-0.968,1.009-1.26s0.95-0.438,1.504-0.438c0.406,0,0.768,0.086,1.085,0.257c0.317,0.172,0.576,0.395,0.774,0.67
		V6.441h1.136v9.306H71.048z M67.437,12.382c0,0.863,0.182,1.509,0.546,1.936s0.793,0.641,1.289,0.641
		c0.5,0,0.924-0.204,1.272-0.612c0.35-0.409,0.524-1.032,0.524-1.87c0-0.922-0.178-1.6-0.533-2.031s-0.793-0.647-1.314-0.647
		c-0.508,0-0.932,0.208-1.272,0.622C67.607,10.835,67.437,11.489,67.437,12.382z"/>
	<path fill="#FFFFFF" d="M78.304,14.915c-0.423,0.36-0.831,0.614-1.222,0.762c-0.392,0.148-0.812,0.222-1.26,0.222
		c-0.741,0-1.31-0.181-1.708-0.543c-0.398-0.361-0.597-0.824-0.597-1.387c0-0.33,0.075-0.632,0.226-0.904
		c0.15-0.273,0.347-0.492,0.59-0.657c0.244-0.165,0.518-0.29,0.822-0.375c0.224-0.059,0.563-0.116,1.016-0.171
		c0.922-0.11,1.602-0.241,2.038-0.394c0.004-0.157,0.006-0.256,0.006-0.298c0-0.465-0.108-0.793-0.324-0.984
		c-0.292-0.258-0.726-0.387-1.301-0.387c-0.538,0-0.934,0.094-1.19,0.283c-0.256,0.188-0.445,0.521-0.568,1l-1.117-0.152
		c0.102-0.478,0.269-0.864,0.501-1.159c0.233-0.294,0.569-0.521,1.009-0.679c0.44-0.159,0.95-0.238,1.53-0.238
		c0.576,0,1.043,0.068,1.403,0.203s0.624,0.306,0.793,0.511c0.169,0.206,0.288,0.465,0.355,0.778
		c0.038,0.195,0.057,0.546,0.057,1.054v1.523c0,1.062,0.024,1.734,0.073,2.015c0.049,0.282,0.145,0.551,0.289,0.81h-1.193
		C78.414,15.51,78.337,15.232,78.304,14.915z M78.208,12.363c-0.415,0.169-1.037,0.313-1.866,0.432
		c-0.47,0.068-0.802,0.144-0.997,0.229s-0.345,0.208-0.451,0.372c-0.106,0.163-0.159,0.344-0.159,0.542
		c0,0.305,0.115,0.559,0.346,0.762c0.231,0.203,0.568,0.305,1.013,0.305c0.44,0,0.832-0.096,1.174-0.289
		c0.343-0.193,0.595-0.456,0.755-0.791c0.123-0.258,0.184-0.639,0.184-1.143V12.363z"/>
	<path fill="#FFFFFF" d="M81.109,15.747V6.441h1.143v9.306H81.109z"/>
	<path fill="#FFFFFF" d="M84.029,7.755V6.441h1.143v1.314H84.029z M84.029,15.747V9.005h1.143v6.741H84.029z"/>
	<path fill="#FFFFFF" d="M91.285,15.747v-0.851c-0.427,0.668-1.056,1.003-1.885,1.003c-0.538,0-1.032-0.148-1.482-0.444
		c-0.451-0.296-0.8-0.71-1.048-1.241c-0.247-0.531-0.371-1.141-0.371-1.831c0-0.673,0.112-1.283,0.336-1.831
		c0.224-0.548,0.561-0.968,1.009-1.26s0.95-0.438,1.504-0.438c0.406,0,0.768,0.086,1.085,0.257c0.317,0.172,0.576,0.395,0.774,0.67
		V6.441h1.136v9.306H91.285z M87.673,12.382c0,0.863,0.182,1.509,0.546,1.936s0.793,0.641,1.289,0.641
		c0.5,0,0.924-0.204,1.272-0.612c0.35-0.409,0.524-1.032,0.524-1.87c0-0.922-0.178-1.6-0.533-2.031s-0.793-0.647-1.314-0.647
		c-0.508,0-0.932,0.208-1.272,0.622C87.843,10.835,87.673,11.489,87.673,12.382z"/>
	<path fill="#FFFFFF" d="M98.54,14.915c-0.423,0.36-0.831,0.614-1.222,0.762c-0.392,0.148-0.812,0.222-1.26,0.222
		c-0.741,0-1.31-0.181-1.708-0.543c-0.398-0.361-0.597-0.824-0.597-1.387c0-0.33,0.075-0.632,0.226-0.904
		c0.15-0.273,0.347-0.492,0.59-0.657c0.244-0.165,0.518-0.29,0.822-0.375c0.224-0.059,0.563-0.116,1.016-0.171
		c0.922-0.11,1.602-0.241,2.038-0.394c0.004-0.157,0.006-0.256,0.006-0.298c0-0.465-0.108-0.793-0.324-0.984
		c-0.292-0.258-0.726-0.387-1.301-0.387c-0.538,0-0.934,0.094-1.19,0.283c-0.256,0.188-0.445,0.521-0.568,1l-1.117-0.152
		c0.102-0.478,0.269-0.864,0.501-1.159c0.233-0.294,0.569-0.521,1.009-0.679c0.44-0.159,0.95-0.238,1.53-0.238
		c0.576,0,1.043,0.068,1.403,0.203s0.624,0.306,0.793,0.511c0.169,0.206,0.288,0.465,0.355,0.778
		c0.038,0.195,0.057,0.546,0.057,1.054v1.523c0,1.062,0.024,1.734,0.073,2.015c0.049,0.282,0.145,0.551,0.289,0.81h-1.193
		C98.65,15.51,98.574,15.232,98.54,14.915z M98.445,12.363c-0.415,0.169-1.037,0.313-1.866,0.432
		c-0.47,0.068-0.802,0.144-0.997,0.229s-0.345,0.208-0.451,0.372c-0.106,0.163-0.159,0.344-0.159,0.542
		c0,0.305,0.115,0.559,0.346,0.762c0.231,0.203,0.568,0.305,1.013,0.305c0.44,0,0.832-0.096,1.174-0.289
		c0.343-0.193,0.595-0.456,0.755-0.791c0.123-0.258,0.184-0.639,0.184-1.143V12.363z"/>
	<path fill="#FFFFFF" d="M105.745,15.747v-0.851c-0.428,0.668-1.057,1.003-1.886,1.003c-0.538,0-1.032-0.148-1.482-0.444
		c-0.451-0.296-0.8-0.71-1.048-1.241c-0.247-0.531-0.371-1.141-0.371-1.831c0-0.673,0.112-1.283,0.336-1.831
		c0.224-0.548,0.561-0.968,1.009-1.26s0.95-0.438,1.504-0.438c0.406,0,0.769,0.086,1.085,0.257c0.318,0.172,0.576,0.395,0.775,0.67
		V6.441h1.136v9.306H105.745z M102.133,12.382c0,0.863,0.182,1.509,0.546,1.936s0.793,0.641,1.289,0.641
		c0.5,0,0.924-0.204,1.272-0.612c0.35-0.409,0.524-1.032,0.524-1.87c0-0.922-0.178-1.6-0.533-2.031s-0.794-0.647-1.314-0.647
		c-0.508,0-0.932,0.208-1.272,0.622C102.303,10.835,102.133,11.489,102.133,12.382z"/>
	<path fill="#FFFFFF" d="M112.162,18.343l-0.127-1.073c0.249,0.068,0.468,0.102,0.653,0.102c0.254,0,0.457-0.042,0.609-0.127
		s0.277-0.203,0.375-0.355c0.072-0.114,0.188-0.398,0.35-0.851c0.021-0.063,0.055-0.157,0.102-0.279l-2.559-6.754h1.231l1.403,3.904
		c0.182,0.495,0.344,1.016,0.488,1.562c0.131-0.525,0.287-1.037,0.47-1.536l1.44-3.929h1.143l-2.564,6.855
		c-0.274,0.741-0.488,1.25-0.641,1.53c-0.203,0.376-0.436,0.653-0.698,0.829c-0.263,0.175-0.575,0.263-0.939,0.263
		C112.679,18.482,112.433,18.436,112.162,18.343z"/>
	<path fill="#FFFFFF" d="M126.698,15.747v-0.851c-0.428,0.668-1.056,1.003-1.885,1.003c-0.538,0-1.032-0.148-1.482-0.444
		c-0.451-0.296-0.8-0.71-1.048-1.241c-0.247-0.531-0.371-1.141-0.371-1.831c0-0.673,0.112-1.283,0.337-1.831
		c0.224-0.548,0.561-0.968,1.009-1.26s0.95-0.438,1.505-0.438c0.406,0,0.768,0.086,1.085,0.257c0.317,0.172,0.575,0.395,0.774,0.67
		V6.441h1.137v9.306H126.698z M123.087,12.382c0,0.863,0.182,1.509,0.545,1.936c0.364,0.427,0.794,0.641,1.289,0.641
		c0.5,0,0.924-0.204,1.272-0.612c0.35-0.409,0.524-1.032,0.524-1.87c0-0.922-0.178-1.6-0.533-2.031s-0.794-0.647-1.314-0.647
		c-0.508,0-0.932,0.208-1.272,0.622S123.087,11.489,123.087,12.382z"/>
	<path fill="#FFFFFF" d="M133.973,15.747v-0.99c-0.524,0.762-1.237,1.143-2.14,1.143c-0.397,0-0.769-0.076-1.113-0.229
		c-0.346-0.152-0.602-0.344-0.768-0.574c-0.168-0.231-0.285-0.513-0.354-0.848c-0.046-0.224-0.069-0.58-0.069-1.066V9.005h1.143
		v3.739c0,0.597,0.023,0.999,0.069,1.206c0.072,0.3,0.225,0.537,0.457,0.708c0.233,0.172,0.521,0.257,0.863,0.257
		c0.344,0,0.665-0.088,0.965-0.263c0.301-0.176,0.514-0.415,0.639-0.718c0.125-0.302,0.188-0.741,0.188-1.317V9.005h1.143v6.741
		H133.973z"/>
	<path fill="#FFFFFF" d="M136.772,15.747V9.005h1.027v1.022c0.263-0.478,0.505-0.793,0.728-0.946
		c0.222-0.152,0.466-0.229,0.733-0.229c0.385,0,0.775,0.123,1.174,0.368l-0.394,1.06c-0.279-0.165-0.559-0.248-0.838-0.248
		c-0.249,0-0.474,0.075-0.673,0.226c-0.199,0.15-0.341,0.358-0.426,0.625c-0.127,0.406-0.189,0.851-0.189,1.333v3.529H136.772z"/>
	<path fill="#FFFFFF" d="M145.513,14.915c-0.424,0.36-0.83,0.614-1.222,0.762s-0.812,0.222-1.261,0.222
		c-0.74,0-1.309-0.181-1.707-0.543c-0.398-0.361-0.597-0.824-0.597-1.387c0-0.33,0.075-0.632,0.226-0.904
		c0.15-0.273,0.347-0.492,0.59-0.657c0.244-0.165,0.518-0.29,0.822-0.375c0.225-0.059,0.563-0.116,1.016-0.171
		c0.922-0.11,1.602-0.241,2.037-0.394c0.005-0.157,0.007-0.256,0.007-0.298c0-0.465-0.108-0.793-0.323-0.984
		c-0.293-0.258-0.727-0.387-1.302-0.387c-0.538,0-0.935,0.094-1.19,0.283c-0.256,0.188-0.445,0.521-0.568,1l-1.117-0.152
		c0.102-0.478,0.27-0.864,0.502-1.159c0.232-0.294,0.569-0.521,1.01-0.679c0.439-0.159,0.949-0.238,1.529-0.238
		c0.576,0,1.043,0.068,1.402,0.203c0.36,0.135,0.625,0.306,0.794,0.511c0.169,0.206,0.288,0.465,0.355,0.778
		c0.038,0.195,0.058,0.546,0.058,1.054v1.523c0,1.062,0.023,1.734,0.072,2.015c0.049,0.282,0.145,0.551,0.289,0.81h-1.193
		C145.622,15.51,145.546,15.232,145.513,14.915z M145.417,12.363c-0.414,0.169-1.036,0.313-1.865,0.432
		c-0.471,0.068-0.803,0.144-0.997,0.229s-0.345,0.208-0.45,0.372c-0.106,0.163-0.159,0.344-0.159,0.542
		c0,0.305,0.115,0.559,0.346,0.762c0.231,0.203,0.568,0.305,1.013,0.305c0.439,0,0.832-0.096,1.174-0.289
		c0.344-0.193,0.596-0.456,0.756-0.791c0.123-0.258,0.184-0.639,0.184-1.143V12.363z"/>
	<path fill="#FFFFFF" d="M152.743,13.277l1.123,0.146c-0.123,0.774-0.438,1.381-0.943,1.818c-0.505,0.438-1.126,0.657-1.862,0.657
		c-0.923,0-1.664-0.302-2.226-0.904c-0.561-0.604-0.84-1.468-0.84-2.593c0-0.728,0.12-1.365,0.361-1.911s0.608-0.955,1.102-1.229
		c0.492-0.272,1.029-0.409,1.609-0.409c0.731,0,1.33,0.185,1.796,0.556c0.466,0.37,0.764,0.896,0.896,1.577l-1.111,0.171
		c-0.105-0.453-0.293-0.793-0.563-1.022c-0.268-0.229-0.593-0.343-0.974-0.343c-0.575,0-1.043,0.206-1.403,0.619
		c-0.359,0.412-0.539,1.065-0.539,1.958c0,0.906,0.174,1.563,0.521,1.974s0.8,0.616,1.358,0.616c0.449,0,0.823-0.138,1.123-0.413
		C152.472,14.272,152.662,13.849,152.743,13.277z"/>
	<path fill="#FFFFFF" d="M154.851,7.755V6.441h1.143v1.314H154.851z M154.851,15.747V9.005h1.143v6.741H154.851z"/>
	<path fill="#FFFFFF" d="M157.308,12.376c0-1.249,0.346-2.173,1.041-2.774c0.578-0.5,1.285-0.749,2.119-0.749
		c0.928,0,1.684,0.304,2.273,0.911c0.588,0.607,0.881,1.446,0.881,2.517c0,0.868-0.129,1.55-0.389,2.047
		c-0.262,0.498-0.641,0.884-1.137,1.159c-0.498,0.275-1.041,0.413-1.629,0.413c-0.943,0-1.707-0.303-2.287-0.908
		C157.599,14.386,157.308,13.514,157.308,12.376z M158.481,12.376c0,0.863,0.188,1.51,0.564,1.939
		c0.377,0.43,0.852,0.645,1.422,0.645c0.566,0,1.039-0.216,1.416-0.647s0.564-1.09,0.564-1.974c0-0.833-0.189-1.465-0.568-1.895
		c-0.379-0.429-0.85-0.644-1.412-0.644c-0.57,0-1.045,0.214-1.422,0.641S158.481,11.513,158.481,12.376z M159.833,8.167l0.844-1.777
		h1.498l-1.396,1.777H159.833z"/>
	<path fill="#FFFFFF" d="M164.962,15.747V9.005h1.029v0.958c0.494-0.741,1.209-1.111,2.145-1.111c0.406,0,0.779,0.073,1.121,0.219
		c0.34,0.146,0.596,0.338,0.764,0.575c0.17,0.237,0.289,0.519,0.355,0.844c0.043,0.211,0.064,0.582,0.064,1.111v4.145h-1.143v-4.101
		c0-0.465-0.045-0.813-0.133-1.044c-0.09-0.231-0.248-0.415-0.475-0.553c-0.225-0.137-0.49-0.206-0.795-0.206
		c-0.488,0-0.908,0.154-1.262,0.463c-0.352,0.309-0.529,0.895-0.529,1.758v3.682H164.962z"/>
	<path fill="#FFFFFF" d="M180.177,15.747v-0.851c-0.426,0.668-1.055,1.003-1.885,1.003c-0.537,0-1.031-0.148-1.482-0.444
		s-0.799-0.71-1.047-1.241c-0.248-0.531-0.371-1.141-0.371-1.831c0-0.673,0.111-1.283,0.336-1.831
		c0.225-0.548,0.561-0.968,1.01-1.26s0.949-0.438,1.504-0.438c0.406,0,0.768,0.086,1.086,0.257c0.316,0.172,0.576,0.395,0.773,0.67
		V6.441h1.137v9.306H180.177z M176.565,12.382c0,0.863,0.182,1.509,0.547,1.936c0.363,0.427,0.793,0.641,1.287,0.641
		c0.5,0,0.924-0.204,1.273-0.612c0.35-0.409,0.523-1.032,0.523-1.87c0-0.922-0.178-1.6-0.533-2.031s-0.793-0.647-1.314-0.647
		c-0.508,0-0.932,0.208-1.271,0.622C176.735,10.835,176.565,11.489,176.565,12.382z"/>
	<path fill="#FFFFFF" d="M187.649,13.576l1.18,0.146c-0.186,0.69-0.531,1.225-1.035,1.606c-0.502,0.381-1.146,0.571-1.93,0.571
		c-0.984,0-1.768-0.304-2.344-0.911c-0.578-0.607-0.867-1.458-0.867-2.555c0-1.134,0.291-2.014,0.875-2.641s1.342-0.939,2.273-0.939
		c0.9,0,1.637,0.307,2.209,0.92c0.57,0.614,0.857,1.477,0.857,2.59c0,0.068-0.002,0.169-0.008,0.305h-5.027
		c0.043,0.741,0.252,1.308,0.629,1.701s0.846,0.59,1.41,0.59c0.418,0,0.775-0.11,1.072-0.33S187.476,14.058,187.649,13.576z
		 M183.897,11.729h3.764c-0.051-0.567-0.195-0.992-0.432-1.276c-0.363-0.44-0.836-0.66-1.416-0.66c-0.523,0-0.965,0.176-1.322,0.527
		S183.935,11.14,183.897,11.729z"/>
	<path fill="#FFFFFF" d="M190.239,15.747V6.441h1.143v9.306H190.239z"/>
	<path fill="#FFFFFF" d="M48.616,33.931v-9.325h1.041v0.876c0.246-0.343,0.522-0.6,0.832-0.771c0.309-0.171,0.684-0.257,1.124-0.257
		c0.576,0,1.083,0.148,1.523,0.444s0.772,0.714,0.997,1.254c0.224,0.539,0.336,1.131,0.336,1.773c0,0.69-0.124,1.312-0.372,1.863
		c-0.247,0.553-0.607,0.976-1.079,1.27c-0.472,0.295-0.968,0.441-1.488,0.441c-0.381,0-0.723-0.08-1.025-0.241
		c-0.302-0.161-0.551-0.364-0.746-0.609v3.282H48.616z M49.65,28.015c0,0.867,0.176,1.508,0.527,1.923s0.776,0.622,1.276,0.622
		c0.508,0,0.942-0.215,1.305-0.645c0.361-0.43,0.542-1.095,0.542-1.996c0-0.859-0.177-1.502-0.53-1.93
		c-0.354-0.428-0.776-0.641-1.267-0.641c-0.487,0-0.917,0.227-1.292,0.682C49.838,26.485,49.65,27.146,49.65,28.015z"/>
	<path fill="#FFFFFF" d="M55.833,31.347v-6.741h1.028v1.022c0.262-0.479,0.504-0.794,0.727-0.946
		c0.222-0.152,0.466-0.229,0.733-0.229c0.385,0,0.776,0.123,1.174,0.368l-0.394,1.061c-0.279-0.166-0.559-0.248-0.838-0.248
		c-0.25,0-0.474,0.075-0.673,0.226c-0.199,0.149-0.341,0.358-0.425,0.625c-0.127,0.406-0.19,0.851-0.19,1.333v3.529H55.833z"/>
	<path fill="#FFFFFF" d="M59.75,27.976c0-1.248,0.347-2.172,1.041-2.773c0.58-0.5,1.287-0.749,2.12-0.749
		c0.927,0,1.684,0.304,2.272,0.911s0.882,1.445,0.882,2.517c0,0.868-0.13,1.55-0.39,2.047c-0.261,0.497-0.639,0.884-1.137,1.159
		c-0.497,0.274-1.04,0.412-1.628,0.412c-0.944,0-1.707-0.303-2.288-0.908C60.041,29.986,59.75,29.114,59.75,27.976z M60.924,27.976
		c0,0.863,0.188,1.51,0.565,1.939s0.851,0.645,1.422,0.645c0.567,0,1.039-0.216,1.416-0.647s0.565-1.09,0.565-1.974
		c0-0.834-0.189-1.466-0.568-1.896c-0.378-0.429-0.849-0.644-1.412-0.644c-0.571,0-1.045,0.213-1.422,0.641
		S60.924,27.112,60.924,27.976z"/>
	<path fill="#FFFFFF" d="M67.195,31.905l1.111,0.165c0.046,0.343,0.176,0.593,0.387,0.749c0.284,0.211,0.671,0.317,1.162,0.317
		c0.529,0,0.938-0.106,1.225-0.317s0.482-0.508,0.584-0.889c0.059-0.232,0.087-0.722,0.083-1.467
		c-0.5,0.589-1.122,0.883-1.866,0.883c-0.927,0-1.644-0.334-2.152-1.003s-0.762-1.471-0.762-2.405c0-0.644,0.116-1.237,0.349-1.781
		c0.233-0.543,0.57-0.963,1.012-1.26c0.442-0.296,0.962-0.444,1.559-0.444c0.795,0,1.452,0.322,1.968,0.965v-0.813h1.054v5.827
		c0,1.049-0.107,1.793-0.32,2.231c-0.214,0.438-0.553,0.784-1.016,1.038c-0.464,0.254-1.034,0.381-1.711,0.381
		c-0.804,0-1.454-0.182-1.949-0.543C67.417,33.178,67.178,32.634,67.195,31.905z M68.141,27.855c0,0.884,0.176,1.53,0.527,1.937
		s0.792,0.609,1.32,0.609c0.525,0,0.965-0.203,1.32-0.606c0.355-0.404,0.533-1.038,0.533-1.901c0-0.825-0.183-1.447-0.549-1.866
		c-0.366-0.419-0.808-0.628-1.324-0.628c-0.508,0-0.939,0.206-1.295,0.618C68.319,26.431,68.141,27.043,68.141,27.855z"/>
	<path fill="#FFFFFF" d="M74.622,31.347v-6.741h1.028v1.022c0.262-0.479,0.504-0.794,0.727-0.946
		c0.222-0.152,0.466-0.229,0.733-0.229c0.385,0,0.776,0.123,1.174,0.368l-0.394,1.061c-0.279-0.166-0.559-0.248-0.838-0.248
		c-0.25,0-0.474,0.075-0.673,0.226c-0.199,0.149-0.341,0.358-0.425,0.625c-0.127,0.406-0.19,0.851-0.19,1.333v3.529H74.622z"/>
	<path fill="#FFFFFF" d="M83.363,30.515c-0.423,0.36-0.831,0.614-1.222,0.762c-0.392,0.148-0.812,0.223-1.26,0.223
		c-0.741,0-1.31-0.181-1.708-0.543c-0.398-0.361-0.597-0.824-0.597-1.387c0-0.33,0.075-0.632,0.226-0.904
		c0.15-0.273,0.347-0.492,0.59-0.657c0.244-0.165,0.518-0.29,0.822-0.374c0.224-0.06,0.563-0.117,1.016-0.172
		c0.922-0.109,1.602-0.241,2.038-0.394c0.004-0.157,0.006-0.256,0.006-0.298c0-0.466-0.108-0.794-0.324-0.984
		c-0.292-0.258-0.726-0.387-1.301-0.387c-0.538,0-0.934,0.094-1.19,0.282c-0.256,0.188-0.445,0.521-0.568,0.999l-1.117-0.152
		c0.102-0.478,0.269-0.863,0.501-1.158c0.233-0.294,0.569-0.521,1.009-0.679c0.44-0.159,0.95-0.238,1.53-0.238
		c0.576,0,1.043,0.068,1.403,0.203s0.624,0.306,0.793,0.511s0.288,0.465,0.355,0.777c0.038,0.195,0.057,0.547,0.057,1.055v1.523
		c0,1.062,0.024,1.733,0.073,2.015c0.049,0.282,0.145,0.552,0.289,0.81h-1.193C83.473,31.11,83.396,30.833,83.363,30.515z
		 M83.268,27.964c-0.415,0.169-1.037,0.313-1.866,0.432c-0.47,0.067-0.802,0.144-0.997,0.229c-0.195,0.084-0.345,0.208-0.451,0.371
		c-0.106,0.162-0.159,0.344-0.159,0.543c0,0.305,0.115,0.559,0.346,0.762c0.231,0.203,0.568,0.305,1.013,0.305
		c0.44,0,0.832-0.097,1.174-0.289c0.343-0.193,0.595-0.456,0.755-0.791c0.123-0.258,0.184-0.639,0.184-1.143V27.964z"/>
	<path fill="#FFFFFF" d="M86.194,31.347v-6.741h1.022v0.946c0.211-0.331,0.493-0.596,0.844-0.797c0.351-0.201,0.751-0.302,1.2-0.302
		c0.5,0,0.909,0.104,1.229,0.311c0.319,0.208,0.544,0.497,0.676,0.87c0.533-0.787,1.227-1.181,2.082-1.181
		c0.668,0,1.183,0.185,1.542,0.556c0.36,0.37,0.54,0.94,0.54,1.711v4.627h-1.136v-4.246c0-0.457-0.037-0.787-0.111-0.987
		c-0.074-0.201-0.208-0.363-0.403-0.485c-0.195-0.123-0.423-0.185-0.686-0.185c-0.474,0-0.868,0.157-1.181,0.473
		s-0.47,0.82-0.47,1.515v3.916h-1.143v-4.38c0-0.508-0.093-0.889-0.279-1.143s-0.491-0.381-0.914-0.381
		c-0.322,0-0.619,0.085-0.892,0.254c-0.273,0.169-0.471,0.417-0.594,0.743c-0.123,0.325-0.184,0.795-0.184,1.408v3.498H86.194z"/>
	<path fill="#FFFFFF" d="M101.422,30.515c-0.423,0.36-0.831,0.614-1.222,0.762c-0.392,0.148-0.812,0.223-1.26,0.223
		c-0.741,0-1.31-0.181-1.708-0.543c-0.398-0.361-0.597-0.824-0.597-1.387c0-0.33,0.075-0.632,0.226-0.904
		c0.15-0.273,0.347-0.492,0.59-0.657c0.244-0.165,0.518-0.29,0.822-0.374c0.224-0.06,0.563-0.117,1.016-0.172
		c0.922-0.109,1.602-0.241,2.038-0.394c0.004-0.157,0.006-0.256,0.006-0.298c0-0.466-0.108-0.794-0.324-0.984
		c-0.292-0.258-0.726-0.387-1.301-0.387c-0.538,0-0.934,0.094-1.19,0.282c-0.256,0.188-0.445,0.521-0.568,0.999l-1.117-0.152
		c0.102-0.478,0.269-0.863,0.501-1.158c0.233-0.294,0.569-0.521,1.009-0.679c0.44-0.159,0.95-0.238,1.53-0.238
		c0.576,0,1.043,0.068,1.403,0.203s0.624,0.306,0.793,0.511s0.288,0.465,0.355,0.777c0.038,0.195,0.057,0.547,0.057,1.055v1.523
		c0,1.062,0.024,1.733,0.073,2.015c0.049,0.282,0.145,0.552,0.289,0.81h-1.193C101.532,31.11,101.456,30.833,101.422,30.515z
		 M101.327,27.964c-0.415,0.169-1.037,0.313-1.866,0.432c-0.47,0.067-0.802,0.144-0.997,0.229c-0.195,0.084-0.345,0.208-0.451,0.371
		c-0.106,0.162-0.159,0.344-0.159,0.543c0,0.305,0.115,0.559,0.346,0.762c0.231,0.203,0.568,0.305,1.013,0.305
		c0.44,0,0.832-0.097,1.174-0.289c0.343-0.193,0.595-0.456,0.755-0.791c0.123-0.258,0.184-0.639,0.184-1.143V27.964z"/>
</g>
<circle fill="none" stroke="#FFFFFF" stroke-miterlimit="10" cx="33.321" cy="20.261" r="4.418"/>
</svg>
