<?xml version="1.0" encoding="utf-8"?>
<!-- Generator: Adobe Illustrator 16.0.0, SVG Export Plug-In . SVG Version: 6.00 Build 0)  -->
<!DOCTYPE svg PUBLIC "-//W3C//DTD SVG 1.1//EN" "http://www.w3.org/Graphics/SVG/1.1/DTD/svg11.dtd">
<svg version="1.1" id="Capa_1" xmlns="http://www.w3.org/2000/svg" xmlns:xlink="http://www.w3.org/1999/xlink" x="0px" y="0px"
	 width="233.319px" height="44.016px" viewBox="0 0 233.319 44.016" enable-background="new 0 0 233.319 44.016"
	 xml:space="preserve">
<line opacity="0.5" fill="none" stroke="#FFFFFF" stroke-miterlimit="10" x1="40.646" y1="0.5" x2="219.1" y2="0.5"/>
<line opacity="0.5" fill="none" stroke="#FFFFFF" stroke-miterlimit="10" x1="40.646" y1="43.516" x2="219.1" y2="43.516"/>
<g>
	<path fill="#FFFFFF" d="M48.749,17.376V8.071h1.263l4.888,7.306V8.071h1.181v9.306h-1.263l-4.888-7.313v7.313H48.749z"/>
	<path fill="#FFFFFF" d="M58.01,9.384V8.071h1.143v1.313H58.01z M58.01,17.376v-6.741h1.143v6.741H58.01z"/>
	<path fill="#FFFFFF" d="M62.765,17.376L60.2,10.635h1.206l1.447,4.037c0.157,0.436,0.3,0.889,0.432,1.358
		c0.102-0.355,0.243-0.783,0.425-1.282l1.498-4.113h1.174l-2.552,6.741H62.765z"/>
	<path fill="#FFFFFF" d="M72.007,15.206l1.181,0.146c-0.186,0.69-0.531,1.226-1.035,1.606s-1.147,0.571-1.93,0.571
		c-0.986,0-1.768-0.304-2.345-0.911c-0.578-0.607-0.867-1.459-0.867-2.555c0-1.134,0.292-2.015,0.876-2.641s1.341-0.939,2.272-0.939
		c0.901,0,1.638,0.307,2.209,0.921c0.571,0.613,0.857,1.477,0.857,2.59c0,0.067-0.002,0.169-0.006,0.305h-5.027
		c0.042,0.74,0.252,1.307,0.628,1.701c0.376,0.393,0.846,0.59,1.409,0.59c0.419,0,0.776-0.11,1.073-0.33
		S71.833,15.688,72.007,15.206z M68.255,13.359h3.764c-0.051-0.567-0.195-0.993-0.432-1.276c-0.364-0.44-0.836-0.66-1.416-0.66
		c-0.525,0-0.966,0.176-1.324,0.526C68.491,12.3,68.293,12.77,68.255,13.359z"/>
	<path fill="#FFFFFF" d="M74.597,17.376V8.071h1.143v9.306H74.597z"/>
	<path fill="#FFFFFF" d="M85.496,17.376v-0.851c-0.427,0.669-1.056,1.003-1.885,1.003c-0.538,0-1.032-0.148-1.482-0.444
		c-0.451-0.296-0.8-0.71-1.048-1.241c-0.247-0.531-0.371-1.142-0.371-1.831c0-0.673,0.112-1.283,0.336-1.831s0.561-0.969,1.009-1.26
		c0.449-0.293,0.95-0.438,1.504-0.438c0.406,0,0.768,0.086,1.085,0.257c0.317,0.172,0.576,0.395,0.774,0.67V8.071h1.136v9.306
		H85.496z M81.884,14.012c0,0.863,0.182,1.509,0.546,1.937c0.364,0.427,0.793,0.641,1.289,0.641c0.5,0,0.924-0.204,1.272-0.612
		c0.35-0.408,0.524-1.032,0.524-1.87c0-0.922-0.178-1.6-0.533-2.031s-0.793-0.646-1.314-0.646c-0.508,0-0.932,0.207-1.272,0.621
		C82.054,12.465,81.884,13.12,81.884,14.012z"/>
	<path fill="#FFFFFF" d="M92.967,15.206l1.181,0.146c-0.186,0.69-0.531,1.226-1.035,1.606s-1.147,0.571-1.93,0.571
		c-0.986,0-1.768-0.304-2.345-0.911c-0.578-0.607-0.867-1.459-0.867-2.555c0-1.134,0.292-2.015,0.876-2.641s1.341-0.939,2.272-0.939
		c0.901,0,1.638,0.307,2.209,0.921c0.571,0.613,0.857,1.477,0.857,2.59c0,0.067-0.002,0.169-0.006,0.305h-5.027
		c0.042,0.74,0.252,1.307,0.628,1.701c0.376,0.393,0.846,0.59,1.409,0.59c0.419,0,0.776-0.11,1.073-0.33
		S92.793,15.688,92.967,15.206z M89.215,13.359h3.764c-0.051-0.567-0.195-0.993-0.432-1.276c-0.364-0.44-0.836-0.66-1.416-0.66
		c-0.525,0-0.966,0.176-1.324,0.526C89.451,12.3,89.253,12.77,89.215,13.359z"/>
	<path fill="#FFFFFF" d="M99.467,17.376v-5.853h-1.009v-0.889h1.009V9.917c0-0.452,0.04-0.789,0.121-1.009
		c0.11-0.296,0.304-0.536,0.581-0.721c0.277-0.184,0.666-0.276,1.165-0.276c0.322,0,0.677,0.039,1.066,0.115l-0.171,0.996
		c-0.237-0.042-0.461-0.063-0.673-0.063c-0.347,0-0.592,0.074-0.736,0.222c-0.144,0.148-0.216,0.426-0.216,0.832v0.622h1.314v0.889
		h-1.314v5.853H99.467z"/>
	<path fill="#FFFFFF" d="M102.38,14.005c0-1.248,0.347-2.173,1.041-2.773c0.58-0.499,1.287-0.749,2.12-0.749
		c0.928,0,1.685,0.304,2.273,0.911c0.588,0.607,0.882,1.446,0.882,2.517c0,0.867-0.13,1.55-0.39,2.047
		c-0.262,0.497-0.64,0.884-1.137,1.159c-0.498,0.274-1.04,0.412-1.629,0.412c-0.943,0-1.706-0.303-2.288-0.908
		C102.671,16.016,102.38,15.144,102.38,14.005z M103.555,14.005c0,0.863,0.188,1.51,0.565,1.939s0.851,0.645,1.421,0.645
		c0.567,0,1.039-0.216,1.416-0.647s0.564-1.09,0.564-1.974c0-0.834-0.189-1.466-0.568-1.896c-0.378-0.43-0.849-0.644-1.412-0.644
		c-0.57,0-1.045,0.213-1.421,0.641S103.555,13.142,103.555,14.005z"/>
	<path fill="#FFFFFF" d="M110.023,17.376v-6.741h1.027v1.022c0.263-0.479,0.505-0.794,0.728-0.946
		c0.222-0.152,0.466-0.229,0.733-0.229c0.385,0,0.775,0.123,1.174,0.368l-0.394,1.061c-0.279-0.166-0.559-0.248-0.838-0.248
		c-0.249,0-0.474,0.075-0.673,0.226s-0.341,0.358-0.426,0.625c-0.127,0.406-0.189,0.851-0.189,1.333v3.529H110.023z"/>
	<path fill="#FFFFFF" d="M114.365,17.376v-6.741h1.021v0.946c0.211-0.33,0.493-0.596,0.844-0.797c0.352-0.201,0.752-0.302,1.2-0.302
		c0.499,0,0.909,0.104,1.229,0.312c0.319,0.207,0.544,0.497,0.676,0.869c0.533-0.787,1.228-1.181,2.082-1.181
		c0.669,0,1.183,0.186,1.542,0.556c0.36,0.37,0.54,0.94,0.54,1.711v4.627h-1.136V13.13c0-0.457-0.037-0.786-0.111-0.987
		s-0.209-0.363-0.403-0.485c-0.194-0.123-0.423-0.185-0.686-0.185c-0.474,0-0.868,0.157-1.181,0.473s-0.47,0.82-0.47,1.515v3.916
		h-1.143v-4.38c0-0.508-0.093-0.889-0.279-1.143s-0.491-0.381-0.914-0.381c-0.321,0-0.619,0.085-0.892,0.254
		c-0.273,0.169-0.471,0.417-0.594,0.743c-0.123,0.325-0.184,0.795-0.184,1.408v3.498H114.365z"/>
	<path fill="#FFFFFF" d="M129.593,16.544c-0.423,0.36-0.831,0.614-1.222,0.762c-0.392,0.148-0.812,0.223-1.26,0.223
		c-0.741,0-1.311-0.181-1.708-0.543c-0.397-0.361-0.597-0.824-0.597-1.387c0-0.33,0.075-0.632,0.226-0.904
		c0.149-0.273,0.347-0.492,0.59-0.657s0.518-0.29,0.822-0.374c0.224-0.06,0.563-0.117,1.016-0.172
		c0.923-0.11,1.602-0.241,2.038-0.394c0.004-0.156,0.006-0.256,0.006-0.298c0-0.466-0.107-0.794-0.324-0.984
		c-0.291-0.258-0.725-0.387-1.301-0.387c-0.537,0-0.934,0.094-1.19,0.282c-0.256,0.188-0.445,0.521-0.567,0.999l-1.117-0.152
		c0.102-0.478,0.268-0.864,0.501-1.158s0.569-0.521,1.009-0.679c0.44-0.159,0.951-0.238,1.53-0.238c0.575,0,1.043,0.067,1.403,0.203
		c0.359,0.136,0.623,0.306,0.793,0.511s0.287,0.465,0.355,0.777c0.038,0.195,0.057,0.547,0.057,1.055v1.523
		c0,1.062,0.025,1.733,0.073,2.015c0.049,0.281,0.146,0.552,0.289,0.81h-1.193C129.703,17.139,129.627,16.863,129.593,16.544z
		 M129.498,13.994c-0.415,0.169-1.037,0.313-1.867,0.432c-0.469,0.067-0.801,0.144-0.996,0.229
		c-0.195,0.084-0.345,0.208-0.451,0.371c-0.105,0.163-0.158,0.344-0.158,0.543c0,0.305,0.115,0.559,0.346,0.762
		s0.568,0.305,1.013,0.305c0.44,0,0.831-0.097,1.175-0.289c0.342-0.192,0.594-0.456,0.755-0.791
		c0.122-0.258,0.185-0.639,0.185-1.143V13.994z"/>
	<path fill="#FFFFFF" d="M136.822,14.908l1.124,0.146c-0.122,0.774-0.437,1.381-0.942,1.818c-0.506,0.438-1.127,0.657-1.863,0.657
		c-0.922,0-1.664-0.302-2.225-0.904c-0.561-0.604-0.842-1.468-0.842-2.594c0-0.728,0.121-1.364,0.362-1.91s0.608-0.955,1.101-1.229
		c0.494-0.272,1.03-0.409,1.609-0.409c0.732,0,1.332,0.186,1.797,0.556s0.764,0.896,0.895,1.577l-1.11,0.171
		c-0.106-0.452-0.293-0.793-0.562-1.021c-0.27-0.229-0.594-0.343-0.975-0.343c-0.576,0-1.043,0.206-1.402,0.619
		c-0.36,0.412-0.54,1.065-0.54,1.958c0,0.905,0.173,1.563,0.521,1.975c0.348,0.41,0.8,0.615,1.358,0.615
		c0.448,0,0.823-0.138,1.124-0.412C136.552,15.902,136.742,15.478,136.822,14.908z"/>
	<path fill="#FFFFFF" d="M138.93,9.384V8.071h1.143v1.313H138.93z M138.93,17.376v-6.741h1.143v6.741H138.93z"/>
	<path fill="#FFFFFF" d="M141.387,14.005c0-1.248,0.348-2.173,1.041-2.773c0.58-0.499,1.287-0.749,2.12-0.749
		c0.927,0,1.685,0.304,2.272,0.911s0.883,1.446,0.883,2.517c0,0.867-0.131,1.55-0.391,2.047c-0.261,0.497-0.639,0.884-1.137,1.159
		c-0.497,0.274-1.039,0.412-1.628,0.412c-0.944,0-1.706-0.303-2.288-0.908C141.678,16.016,141.387,15.144,141.387,14.005z
		 M142.561,14.005c0,0.863,0.189,1.51,0.565,1.939s0.851,0.645,1.422,0.645c0.567,0,1.039-0.216,1.415-0.647
		c0.377-0.432,0.565-1.09,0.565-1.974c0-0.834-0.189-1.466-0.568-1.896c-0.378-0.43-0.849-0.644-1.412-0.644
		c-0.571,0-1.046,0.213-1.422,0.641S142.561,13.142,142.561,14.005z M143.913,9.797l0.845-1.777h1.498l-1.396,1.777H143.913z"/>
	<path fill="#FFFFFF" d="M149.042,17.376v-6.741h1.028v0.958c0.495-0.74,1.211-1.11,2.146-1.11c0.406,0,0.78,0.073,1.12,0.219
		c0.341,0.146,0.596,0.338,0.766,0.575c0.169,0.236,0.287,0.518,0.355,0.844c0.042,0.212,0.063,0.582,0.063,1.111v4.145h-1.143
		v-4.101c0-0.466-0.044-0.813-0.133-1.044s-0.246-0.415-0.473-0.553s-0.492-0.206-0.797-0.206c-0.486,0-0.906,0.154-1.26,0.464
		c-0.354,0.309-0.53,0.895-0.53,1.758v3.682H149.042z"/>
	<path fill="#FFFFFF" d="M159.832,19.972l-0.127-1.072c0.25,0.067,0.469,0.102,0.654,0.102c0.254,0,0.457-0.042,0.609-0.127
		s0.277-0.203,0.375-0.355c0.072-0.114,0.188-0.397,0.35-0.851c0.02-0.063,0.055-0.156,0.102-0.279l-2.559-6.754h1.23l1.404,3.903
		c0.182,0.496,0.344,1.016,0.488,1.563c0.131-0.525,0.287-1.037,0.469-1.537l1.441-3.929h1.143l-2.564,6.855
		c-0.275,0.74-0.488,1.251-0.641,1.53c-0.203,0.376-0.436,0.652-0.699,0.828c-0.262,0.176-0.574,0.264-0.939,0.264
		C160.35,20.113,160.104,20.066,159.832,19.972z"/>
	<path fill="#FFFFFF" d="M169.996,19.96v-9.325h1.041v0.876c0.244-0.343,0.521-0.6,0.83-0.771c0.311-0.171,0.684-0.257,1.125-0.257
		c0.574,0,1.082,0.148,1.523,0.444c0.439,0.296,0.771,0.714,0.996,1.254c0.225,0.539,0.336,1.131,0.336,1.773
		c0,0.69-0.123,1.312-0.371,1.863c-0.248,0.553-0.607,0.976-1.08,1.27c-0.471,0.294-0.967,0.441-1.488,0.441
		c-0.381,0-0.723-0.08-1.025-0.241c-0.301-0.161-0.551-0.364-0.744-0.609v3.282H169.996z M171.029,14.044
		c0,0.867,0.176,1.508,0.527,1.923s0.777,0.622,1.275,0.622c0.508,0,0.943-0.215,1.305-0.645s0.543-1.095,0.543-1.996
		c0-0.859-0.176-1.502-0.529-1.93s-0.775-0.641-1.268-0.641c-0.486,0-0.916,0.227-1.291,0.682S171.029,13.176,171.029,14.044z"/>
	<path fill="#FFFFFF" d="M181.84,15.206l1.182,0.146c-0.188,0.69-0.531,1.226-1.035,1.606s-1.146,0.571-1.93,0.571
		c-0.986,0-1.768-0.304-2.346-0.911s-0.867-1.459-0.867-2.555c0-1.134,0.293-2.015,0.877-2.641s1.342-0.939,2.271-0.939
		c0.902,0,1.639,0.307,2.209,0.921c0.572,0.613,0.857,1.477,0.857,2.59c0,0.067-0.002,0.169-0.006,0.305h-5.027
		c0.043,0.74,0.252,1.307,0.629,1.701c0.375,0.393,0.846,0.59,1.408,0.59c0.42,0,0.777-0.11,1.072-0.33
		C181.432,16.04,181.666,15.688,181.84,15.206z M178.088,13.359h3.766c-0.051-0.567-0.195-0.993-0.432-1.276
		c-0.365-0.44-0.836-0.66-1.416-0.66c-0.525,0-0.967,0.176-1.324,0.526C178.324,12.3,178.127,12.77,178.088,13.359z"/>
	<path fill="#FFFFFF" d="M184.443,17.376v-6.741h1.027v1.022c0.262-0.479,0.504-0.794,0.727-0.946s0.467-0.229,0.734-0.229
		c0.385,0,0.775,0.123,1.174,0.368l-0.395,1.061c-0.279-0.166-0.559-0.248-0.838-0.248c-0.248,0-0.473,0.075-0.672,0.226
		s-0.342,0.358-0.426,0.625c-0.127,0.406-0.189,0.851-0.189,1.333v3.529H184.443z"/>
	<path fill="#FFFFFF" d="M189.057,17.376v-5.853h-1.008v-0.889h1.008V9.917c0-0.452,0.041-0.789,0.121-1.009
		c0.109-0.296,0.305-0.536,0.58-0.721c0.277-0.184,0.666-0.276,1.166-0.276c0.322,0,0.678,0.039,1.066,0.115l-0.172,0.996
		c-0.236-0.042-0.461-0.063-0.672-0.063c-0.348,0-0.594,0.074-0.736,0.222c-0.145,0.148-0.217,0.426-0.217,0.832v0.622h1.314v0.889
		h-1.314v5.853H189.057z"/>
	<path fill="#FFFFFF" d="M192.402,9.384V8.071h1.143v1.313H192.402z M192.402,17.376v-6.741h1.143v6.741H192.402z"/>
	<path fill="#FFFFFF" d="M195.26,17.376V8.071h1.143v9.306H195.26z"/>
	<path fill="#FFFFFF" d="M48.19,29.606c0-1.248,0.347-2.173,1.041-2.773c0.58-0.499,1.287-0.749,2.12-0.749
		c0.927,0,1.684,0.304,2.272,0.911s0.882,1.446,0.882,2.517c0,0.867-0.13,1.55-0.39,2.047c-0.261,0.497-0.639,0.884-1.137,1.159
		c-0.497,0.274-1.04,0.412-1.628,0.412c-0.944,0-1.707-0.303-2.288-0.908C48.481,31.617,48.19,30.745,48.19,29.606z M49.365,29.606
		c0,0.863,0.188,1.51,0.565,1.939s0.851,0.645,1.422,0.645c0.567,0,1.039-0.216,1.416-0.647s0.565-1.09,0.565-1.974
		c0-0.834-0.189-1.466-0.568-1.896c-0.378-0.43-0.849-0.644-1.412-0.644c-0.571,0-1.045,0.213-1.422,0.641
		S49.365,28.743,49.365,29.606z"/>
	<path fill="#FFFFFF" d="M60.245,30.508l1.124,0.146c-0.123,0.774-0.437,1.381-0.943,1.818c-0.505,0.438-1.126,0.657-1.863,0.657
		c-0.922,0-1.664-0.302-2.225-0.904c-0.561-0.604-0.841-1.468-0.841-2.594c0-0.728,0.121-1.364,0.362-1.91s0.608-0.955,1.101-1.229
		c0.493-0.272,1.03-0.409,1.609-0.409c0.732,0,1.331,0.186,1.796,0.556s0.764,0.896,0.895,1.577l-1.111,0.171
		c-0.106-0.452-0.293-0.793-0.562-1.021c-0.269-0.229-0.593-0.343-0.974-0.343c-0.576,0-1.043,0.206-1.403,0.619
		c-0.36,0.412-0.54,1.065-0.54,1.958c0,0.905,0.173,1.563,0.521,1.975c0.347,0.41,0.8,0.615,1.358,0.615
		c0.449,0,0.823-0.138,1.124-0.412C59.974,31.502,60.164,31.079,60.245,30.508z"/>
	<path fill="#FFFFFF" d="M66.764,32.977v-0.99c-0.525,0.762-1.238,1.143-2.139,1.143c-0.398,0-0.769-0.076-1.114-0.229
		c-0.345-0.152-0.601-0.344-0.768-0.574c-0.167-0.23-0.285-0.514-0.353-0.848c-0.046-0.225-0.07-0.58-0.07-1.066v-4.177h1.143v3.739
		c0,0.596,0.023,0.998,0.07,1.205c0.072,0.301,0.224,0.537,0.457,0.708c0.233,0.172,0.521,0.257,0.863,0.257
		s0.665-0.087,0.965-0.263s0.513-0.415,0.638-0.718c0.125-0.303,0.188-0.741,0.188-1.316v-3.612h1.143v6.741H66.764z"/>
	<path fill="#FFFFFF" d="M69.576,35.561v-9.325h1.041v0.876c0.246-0.343,0.522-0.6,0.832-0.771c0.309-0.171,0.684-0.257,1.124-0.257
		c0.576,0,1.083,0.148,1.523,0.444s0.772,0.714,0.997,1.254c0.224,0.539,0.336,1.131,0.336,1.773c0,0.69-0.124,1.312-0.372,1.863
		c-0.247,0.553-0.607,0.976-1.079,1.27c-0.472,0.294-0.968,0.441-1.488,0.441c-0.381,0-0.723-0.08-1.025-0.241
		c-0.302-0.161-0.551-0.364-0.746-0.609v3.282H69.576z M70.61,29.645c0,0.867,0.176,1.508,0.527,1.923s0.776,0.622,1.276,0.622
		c0.508,0,0.942-0.215,1.305-0.645c0.361-0.43,0.542-1.095,0.542-1.996c0-0.859-0.177-1.502-0.53-1.93
		c-0.354-0.428-0.776-0.641-1.267-0.641c-0.487,0-0.917,0.227-1.292,0.682C70.798,28.116,70.61,28.777,70.61,29.645z"/>
	<path fill="#FFFFFF" d="M81.205,32.145c-0.423,0.36-0.831,0.614-1.222,0.762c-0.392,0.148-0.812,0.223-1.26,0.223
		c-0.741,0-1.31-0.181-1.708-0.543c-0.398-0.361-0.597-0.824-0.597-1.387c0-0.33,0.075-0.632,0.226-0.904
		c0.15-0.273,0.347-0.492,0.59-0.657c0.244-0.165,0.518-0.29,0.822-0.374c0.224-0.06,0.563-0.117,1.016-0.172
		c0.922-0.11,1.602-0.241,2.038-0.394c0.004-0.156,0.006-0.256,0.006-0.298c0-0.466-0.108-0.794-0.324-0.984
		c-0.292-0.258-0.726-0.387-1.301-0.387c-0.538,0-0.934,0.094-1.19,0.282c-0.256,0.188-0.445,0.521-0.568,0.999l-1.117-0.152
		c0.102-0.478,0.269-0.864,0.501-1.158s0.569-0.521,1.009-0.679c0.44-0.159,0.95-0.238,1.53-0.238c0.576,0,1.043,0.067,1.403,0.203
		s0.624,0.306,0.793,0.511s0.288,0.465,0.355,0.777c0.038,0.195,0.057,0.547,0.057,1.055v1.523c0,1.062,0.024,1.733,0.073,2.015
		c0.049,0.281,0.145,0.552,0.289,0.81h-1.193C81.314,32.74,81.238,32.463,81.205,32.145z M81.109,29.594
		c-0.415,0.169-1.037,0.313-1.866,0.432c-0.47,0.067-0.802,0.144-0.997,0.229c-0.195,0.084-0.345,0.208-0.451,0.371
		s-0.159,0.344-0.159,0.543c0,0.305,0.115,0.559,0.346,0.762c0.231,0.203,0.568,0.305,1.013,0.305c0.44,0,0.832-0.097,1.174-0.289
		s0.595-0.456,0.755-0.791c0.123-0.258,0.184-0.639,0.184-1.143V29.594z"/>
	<path fill="#FFFFFF" d="M88.435,30.508l1.124,0.146c-0.123,0.774-0.437,1.381-0.943,1.818c-0.505,0.438-1.126,0.657-1.863,0.657
		c-0.922,0-1.664-0.302-2.225-0.904c-0.561-0.604-0.841-1.468-0.841-2.594c0-0.728,0.121-1.364,0.362-1.91s0.608-0.955,1.101-1.229
		c0.493-0.272,1.03-0.409,1.609-0.409c0.732,0,1.331,0.186,1.796,0.556s0.764,0.896,0.895,1.577l-1.111,0.171
		c-0.106-0.452-0.293-0.793-0.562-1.021c-0.269-0.229-0.593-0.343-0.974-0.343c-0.576,0-1.043,0.206-1.403,0.619
		c-0.36,0.412-0.54,1.065-0.54,1.958c0,0.905,0.173,1.563,0.521,1.975c0.347,0.41,0.8,0.615,1.358,0.615
		c0.449,0,0.823-0.138,1.124-0.412C88.164,31.502,88.354,31.079,88.435,30.508z"/>
	<path fill="#FFFFFF" d="M90.542,24.985v-1.313h1.143v1.313H90.542z M90.542,32.977v-6.741h1.143v6.741H90.542z"/>
	<path fill="#FFFFFF" d="M92.999,29.606c0-1.248,0.347-2.173,1.041-2.773c0.58-0.499,1.287-0.749,2.12-0.749
		c0.927,0,1.684,0.304,2.272,0.911s0.882,1.446,0.882,2.517c0,0.867-0.13,1.55-0.39,2.047c-0.261,0.497-0.639,0.884-1.137,1.159
		c-0.497,0.274-1.04,0.412-1.628,0.412c-0.944,0-1.707-0.303-2.288-0.908C93.29,31.617,92.999,30.745,92.999,29.606z M94.173,29.606
		c0,0.863,0.188,1.51,0.565,1.939s0.851,0.645,1.422,0.645c0.567,0,1.039-0.216,1.416-0.647s0.565-1.09,0.565-1.974
		c0-0.834-0.189-1.466-0.568-1.896c-0.378-0.43-0.849-0.644-1.412-0.644c-0.571,0-1.045,0.213-1.422,0.641
		S94.173,28.743,94.173,29.606z"/>
	<path fill="#FFFFFF" d="M100.654,32.977v-6.741h1.028v0.958c0.495-0.74,1.21-1.11,2.146-1.11c0.406,0,0.78,0.073,1.121,0.219
		c0.341,0.146,0.595,0.338,0.765,0.575c0.17,0.236,0.287,0.518,0.355,0.844c0.043,0.212,0.063,0.582,0.063,1.111v4.145h-1.143
		v-4.101c0-0.466-0.044-0.813-0.134-1.044c-0.088-0.23-0.246-0.415-0.473-0.553c-0.226-0.138-0.492-0.206-0.796-0.206
		c-0.487,0-0.907,0.154-1.26,0.464c-0.353,0.309-0.53,0.895-0.53,1.758v3.682H100.654z"/>
	<path fill="#FFFFFF" d="M112.283,32.145c-0.424,0.36-0.831,0.614-1.223,0.762c-0.391,0.148-0.811,0.223-1.26,0.223
		c-0.74,0-1.31-0.181-1.707-0.543c-0.398-0.361-0.598-0.824-0.598-1.387c0-0.33,0.076-0.632,0.227-0.904
		c0.149-0.273,0.346-0.492,0.59-0.657c0.243-0.165,0.518-0.29,0.822-0.374c0.224-0.06,0.563-0.117,1.016-0.172
		c0.922-0.11,1.602-0.241,2.037-0.394c0.004-0.156,0.006-0.256,0.006-0.298c0-0.466-0.107-0.794-0.323-0.984
		c-0.292-0.258-0.726-0.387-1.302-0.387c-0.537,0-0.934,0.094-1.189,0.282s-0.445,0.521-0.568,0.999l-1.117-0.152
		c0.102-0.478,0.269-0.864,0.502-1.158c0.232-0.294,0.568-0.521,1.009-0.679c0.44-0.159,0.95-0.238,1.53-0.238
		c0.575,0,1.043,0.067,1.402,0.203s0.624,0.306,0.793,0.511c0.17,0.205,0.288,0.465,0.355,0.777
		c0.039,0.195,0.058,0.547,0.058,1.055v1.523c0,1.062,0.024,1.733,0.073,2.015s0.145,0.552,0.289,0.81h-1.193
		C112.393,32.74,112.316,32.463,112.283,32.145z M112.188,29.594c-0.414,0.169-1.037,0.313-1.866,0.432
		c-0.47,0.067-0.802,0.144-0.997,0.229c-0.194,0.084-0.344,0.208-0.45,0.371s-0.159,0.344-0.159,0.543
		c0,0.305,0.115,0.559,0.346,0.762c0.231,0.203,0.568,0.305,1.014,0.305c0.439,0,0.831-0.097,1.174-0.289s0.595-0.456,0.756-0.791
		c0.122-0.258,0.184-0.639,0.184-1.143V29.594z"/>
	<path fill="#FFFFFF" d="M115.088,32.977v-9.306h1.143v9.306H115.088z"/>
	<path fill="#FFFFFF" d="M125.987,32.977v-0.851c-0.427,0.669-1.056,1.003-1.886,1.003c-0.537,0-1.031-0.148-1.481-0.444
		c-0.451-0.296-0.8-0.71-1.048-1.241c-0.247-0.531-0.371-1.142-0.371-1.831c0-0.673,0.112-1.283,0.336-1.831
		c0.225-0.548,0.561-0.969,1.01-1.26c0.449-0.293,0.95-0.438,1.504-0.438c0.406,0,0.769,0.086,1.086,0.257
		c0.317,0.172,0.576,0.395,0.774,0.67v-3.339h1.136v9.306H125.987z M122.375,29.613c0,0.863,0.183,1.509,0.547,1.937
		c0.363,0.427,0.793,0.641,1.288,0.641c0.499,0,0.924-0.204,1.272-0.612c0.35-0.408,0.523-1.032,0.523-1.87
		c0-0.922-0.178-1.6-0.533-2.031s-0.793-0.646-1.313-0.646c-0.508,0-0.933,0.207-1.272,0.621
		C122.546,28.066,122.375,28.72,122.375,29.613z"/>
	<path fill="#FFFFFF" d="M133.459,30.806l1.18,0.146c-0.186,0.69-0.531,1.226-1.034,1.606s-1.147,0.571-1.93,0.571
		c-0.985,0-1.769-0.304-2.345-0.911c-0.578-0.607-0.867-1.459-0.867-2.555c0-1.134,0.292-2.015,0.876-2.641s1.341-0.939,2.272-0.939
		c0.901,0,1.638,0.307,2.209,0.921c0.571,0.613,0.857,1.477,0.857,2.59c0,0.067-0.002,0.169-0.007,0.305h-5.027
		c0.042,0.74,0.252,1.307,0.628,1.701c0.377,0.393,0.847,0.59,1.41,0.59c0.418,0,0.775-0.11,1.072-0.33
		S133.285,31.289,133.459,30.806z M129.707,28.959h3.764c-0.051-0.567-0.194-0.993-0.432-1.276c-0.363-0.44-0.836-0.66-1.415-0.66
		c-0.524,0-0.966,0.176-1.323,0.526C129.943,27.901,129.745,28.371,129.707,28.959z"/>
	<path fill="#FFFFFF" d="M136.049,32.977v-9.306h1.143v9.306H136.049z"/>
	<path fill="#FFFFFF" d="M146.973,32.145c-0.424,0.36-0.83,0.614-1.222,0.762c-0.392,0.148-0.812,0.223-1.261,0.223
		c-0.74,0-1.309-0.181-1.707-0.543c-0.398-0.361-0.597-0.824-0.597-1.387c0-0.33,0.075-0.632,0.226-0.904
		c0.15-0.273,0.347-0.492,0.59-0.657c0.244-0.165,0.518-0.29,0.822-0.374c0.225-0.06,0.563-0.117,1.016-0.172
		c0.922-0.11,1.602-0.241,2.037-0.394c0.005-0.156,0.007-0.256,0.007-0.298c0-0.466-0.108-0.794-0.323-0.984
		c-0.293-0.258-0.727-0.387-1.302-0.387c-0.538,0-0.935,0.094-1.19,0.282s-0.445,0.521-0.568,0.999l-1.117-0.152
		c0.102-0.478,0.27-0.864,0.502-1.158s0.569-0.521,1.01-0.679c0.439-0.159,0.949-0.238,1.529-0.238c0.576,0,1.043,0.067,1.402,0.203
		c0.36,0.136,0.625,0.306,0.794,0.511s0.288,0.465,0.355,0.777c0.038,0.195,0.058,0.547,0.058,1.055v1.523
		c0,1.062,0.023,1.733,0.072,2.015s0.145,0.552,0.289,0.81h-1.193C147.082,32.74,147.006,32.463,146.973,32.145z M146.877,29.594
		c-0.414,0.169-1.036,0.313-1.865,0.432c-0.471,0.067-0.803,0.144-0.997,0.229c-0.194,0.084-0.345,0.208-0.45,0.371
		c-0.106,0.163-0.159,0.344-0.159,0.543c0,0.305,0.115,0.559,0.346,0.762c0.231,0.203,0.568,0.305,1.013,0.305
		c0.439,0,0.832-0.097,1.174-0.289c0.344-0.192,0.596-0.456,0.756-0.791c0.123-0.258,0.184-0.639,0.184-1.143V29.594z"/>
	<path fill="#FFFFFF" d="M149.804,35.561v-9.325h1.041v0.876c0.245-0.343,0.522-0.6,0.831-0.771c0.31-0.171,0.684-0.257,1.124-0.257
		c0.575,0,1.083,0.148,1.523,0.444s0.772,0.714,0.997,1.254c0.224,0.539,0.336,1.131,0.336,1.773c0,0.69-0.123,1.312-0.371,1.863
		c-0.248,0.553-0.607,0.976-1.08,1.27c-0.471,0.294-0.967,0.441-1.488,0.441c-0.381,0-0.723-0.08-1.025-0.241
		c-0.302-0.161-0.551-0.364-0.745-0.609v3.282H149.804z M150.838,29.645c0,0.867,0.176,1.508,0.527,1.923s0.776,0.622,1.275,0.622
		c0.508,0,0.943-0.215,1.305-0.645s0.543-1.095,0.543-1.996c0-0.859-0.177-1.502-0.529-1.93c-0.354-0.428-0.776-0.641-1.268-0.641
		c-0.486,0-0.916,0.227-1.291,0.682S150.838,28.777,150.838,29.645z"/>
	<path fill="#FFFFFF" d="M157.021,32.977v-6.741h1.027v1.022c0.262-0.479,0.504-0.794,0.727-0.946s0.467-0.229,0.734-0.229
		c0.385,0,0.775,0.123,1.174,0.368l-0.395,1.061c-0.279-0.166-0.559-0.248-0.838-0.248c-0.248,0-0.473,0.075-0.672,0.226
		s-0.342,0.358-0.426,0.625c-0.127,0.406-0.189,0.851-0.189,1.333v3.529H157.021z"/>
	<path fill="#FFFFFF" d="M165.977,30.806l1.182,0.146c-0.186,0.69-0.531,1.226-1.035,1.606s-1.146,0.571-1.93,0.571
		c-0.986,0-1.768-0.304-2.346-0.911s-0.865-1.459-0.865-2.555c0-1.134,0.291-2.015,0.875-2.641s1.342-0.939,2.273-0.939
		c0.9,0,1.637,0.307,2.209,0.921c0.57,0.613,0.855,1.477,0.855,2.59c0,0.067-0.002,0.169-0.006,0.305h-5.027
		c0.043,0.74,0.252,1.307,0.629,1.701c0.377,0.393,0.846,0.59,1.408,0.59c0.42,0,0.777-0.11,1.074-0.33
		C165.568,31.64,165.805,31.289,165.977,30.806z M162.227,28.959h3.764c-0.051-0.567-0.195-0.993-0.432-1.276
		c-0.363-0.44-0.836-0.66-1.416-0.66c-0.525,0-0.965,0.176-1.324,0.526C162.461,27.901,162.264,28.371,162.227,28.959z"/>
	<path fill="#FFFFFF" d="M168.592,32.977v-6.741h1.029v0.958c0.494-0.74,1.211-1.11,2.145-1.11c0.406,0,0.781,0.073,1.121,0.219
		c0.34,0.146,0.596,0.338,0.766,0.575c0.168,0.236,0.287,0.518,0.355,0.844c0.041,0.212,0.063,0.582,0.063,1.111v4.145h-1.143
		v-4.101c0-0.466-0.045-0.813-0.133-1.044c-0.09-0.23-0.246-0.415-0.473-0.553s-0.492-0.206-0.797-0.206
		c-0.486,0-0.906,0.154-1.26,0.464c-0.354,0.309-0.531,0.895-0.531,1.758v3.682H168.592z"/>
	<path fill="#FFFFFF" d="M180.195,32.977v-0.851c-0.426,0.669-1.055,1.003-1.885,1.003c-0.537,0-1.031-0.148-1.482-0.444
		s-0.799-0.71-1.047-1.241s-0.371-1.142-0.371-1.831c0-0.673,0.111-1.283,0.336-1.831s0.561-0.969,1.01-1.26
		c0.449-0.293,0.949-0.438,1.504-0.438c0.406,0,0.768,0.086,1.086,0.257c0.316,0.172,0.576,0.395,0.773,0.67v-3.339h1.137v9.306
		H180.195z M176.584,29.613c0,0.863,0.182,1.509,0.547,1.937c0.363,0.427,0.793,0.641,1.287,0.641c0.5,0,0.924-0.204,1.273-0.612
		s0.523-1.032,0.523-1.87c0-0.922-0.178-1.6-0.533-2.031s-0.793-0.646-1.314-0.646c-0.508,0-0.932,0.207-1.271,0.621
		C176.754,28.066,176.584,28.72,176.584,29.613z"/>
	<path fill="#FFFFFF" d="M183.059,24.985v-1.313h1.143v1.313H183.059z M183.059,32.977v-6.741h1.143v6.741H183.059z"/>
	<path fill="#FFFFFF" d="M185.338,32.977V32.05l4.291-4.926c-0.486,0.025-0.916,0.038-1.289,0.038h-2.748v-0.927h5.51v0.755
		l-3.65,4.279l-0.705,0.78c0.514-0.038,0.992-0.058,1.441-0.058h3.117v0.984H185.338z"/>
</g>
<circle fill="none" stroke="#FFFFFF" stroke-miterlimit="10" cx="33.321" cy="19.767" r="4.418"/>
</svg>
