<?xml version="1.0" encoding="utf-8"?>
<!-- Generator: Adobe Illustrator 16.0.0, SVG Export Plug-In . SVG Version: 6.00 Build 0)  -->
<!DOCTYPE svg PUBLIC "-//W3C//DTD SVG 1.1//EN" "http://www.w3.org/Graphics/SVG/1.1/DTD/svg11.dtd">
<svg version="1.1" id="Capa_1" xmlns="http://www.w3.org/2000/svg" xmlns:xlink="http://www.w3.org/1999/xlink" x="0px" y="0px"
	 width="154.914px" height="74.254px" viewBox="0 0 154.914 74.254" enable-background="new 0 0 154.914 74.254"
	 xml:space="preserve">
<g>
	<g opacity="0.5">
		<g>
			<g>
				<g>
					<defs>
						<rect id="SVGID_1_" x="-0.187" y="-0.298" width="154.914" height="74.253"/>
					</defs>
					<clipPath id="SVGID_2_">
						<use xlink:href="#SVGID_1_"  overflow="visible"/>
					</clipPath>
					<g clip-path="url(#SVGID_2_)">
						<rect x="-0.187" y="-0.298" fill="#FFFFFF" width="154.914" height="74.253"/>
					</g>
				</g>
			</g>
		</g>
	</g>
	<g>
		<rect x="-0.187" y="-0.298" width="154.914" height="48.153"/>
	</g>
	<g enable-background="new    ">
		<path d="M38.35,57.159h3.147c0.623,0,1.088,0.026,1.394,0.078c0.307,0.052,0.58,0.16,0.822,0.325
			c0.241,0.164,0.443,0.384,0.604,0.657c0.161,0.274,0.242,0.581,0.242,0.921c0,0.369-0.1,0.708-0.298,1.016
			c-0.199,0.308-0.468,0.539-0.809,0.693c0.48,0.139,0.849,0.377,1.106,0.714s0.387,0.732,0.387,1.187
			c0,0.358-0.083,0.707-0.25,1.045c-0.166,0.339-0.394,0.609-0.682,0.812c-0.289,0.202-0.644,0.326-1.066,0.373
			c-0.265,0.028-0.904,0.047-1.917,0.054h-2.68V57.159z M39.94,58.47v1.821h1.042c0.62,0,1.004-0.01,1.155-0.027
			c0.272-0.032,0.486-0.126,0.642-0.282c0.155-0.155,0.233-0.36,0.233-0.614c0-0.244-0.067-0.441-0.201-0.594
			c-0.135-0.152-0.334-0.244-0.599-0.277c-0.158-0.018-0.61-0.026-1.359-0.026H39.94z M39.94,61.602v2.105h1.472
			c0.573,0,0.937-0.017,1.09-0.049c0.236-0.043,0.429-0.147,0.578-0.314c0.148-0.166,0.223-0.389,0.223-0.668
			c0-0.236-0.057-0.438-0.172-0.602c-0.115-0.165-0.28-0.285-0.497-0.36c-0.216-0.075-0.687-0.112-1.41-0.112H39.94z"/>
		<path d="M46.24,65.033v-7.874h1.59v7.874H46.24z"/>
		<path d="M49.35,57.159h3.147c0.623,0,1.088,0.026,1.394,0.078c0.307,0.052,0.58,0.16,0.822,0.325
			c0.241,0.164,0.443,0.384,0.604,0.657c0.161,0.274,0.242,0.581,0.242,0.921c0,0.369-0.1,0.708-0.298,1.016
			c-0.199,0.308-0.468,0.539-0.809,0.693c0.48,0.139,0.849,0.377,1.106,0.714s0.387,0.732,0.387,1.187
			c0,0.358-0.083,0.707-0.25,1.045c-0.166,0.339-0.394,0.609-0.682,0.812c-0.289,0.202-0.644,0.326-1.066,0.373
			c-0.265,0.028-0.904,0.047-1.917,0.054h-2.68V57.159z M50.94,58.47v1.821h1.042c0.62,0,1.004-0.01,1.155-0.027
			c0.272-0.032,0.486-0.126,0.642-0.282c0.155-0.155,0.233-0.36,0.233-0.614c0-0.244-0.067-0.441-0.201-0.594
			c-0.135-0.152-0.334-0.244-0.599-0.277c-0.158-0.018-0.61-0.026-1.359-0.026H50.94z M50.94,61.602v2.105h1.472
			c0.573,0,0.937-0.017,1.09-0.049c0.236-0.043,0.429-0.147,0.578-0.314c0.148-0.166,0.223-0.389,0.223-0.668
			c0-0.236-0.057-0.438-0.172-0.602c-0.115-0.165-0.28-0.285-0.497-0.36c-0.216-0.075-0.687-0.112-1.41-0.112H50.94z"/>
		<path d="M57.332,65.033v-7.81h1.59v6.483h3.953v1.326H57.332z"/>
		<path d="M63.959,65.033v-7.874h1.59v7.874H63.959z"/>
		<path d="M66.742,61.145c0-0.802,0.12-1.476,0.36-2.02c0.179-0.401,0.423-0.761,0.733-1.08c0.31-0.318,0.649-0.555,1.018-0.709
			c0.491-0.207,1.056-0.311,1.697-0.311c1.16,0,2.088,0.359,2.785,1.079c0.696,0.72,1.044,1.721,1.044,3.003
			c0,1.271-0.346,2.266-1.037,2.983s-1.615,1.077-2.771,1.077c-1.171,0-2.102-0.357-2.793-1.072
			C67.087,63.382,66.742,62.397,66.742,61.145z M68.38,61.091c0,0.892,0.206,1.567,0.618,2.027s0.935,0.69,1.568,0.69
			s1.154-0.229,1.56-0.685c0.407-0.457,0.61-1.142,0.61-2.055c0-0.902-0.198-1.575-0.593-2.02c-0.396-0.444-0.921-0.666-1.577-0.666
			s-1.184,0.225-1.584,0.674S68.38,60.185,68.38,61.091z"/>
		<path d="M79.283,62.139v-1.327h3.427v3.137c-0.333,0.322-0.815,0.606-1.448,0.852c-0.631,0.245-1.271,0.368-1.92,0.368
			c-0.823,0-1.541-0.173-2.153-0.519s-1.072-0.84-1.38-1.482s-0.462-1.342-0.462-2.098c0-0.82,0.172-1.549,0.516-2.187
			c0.344-0.637,0.847-1.126,1.509-1.466c0.505-0.262,1.133-0.392,1.885-0.392c0.979,0,1.742,0.204,2.291,0.614
			c0.55,0.41,0.903,0.977,1.061,1.7l-1.578,0.295c-0.111-0.387-0.32-0.691-0.627-0.915c-0.305-0.224-0.688-0.336-1.146-0.336
			c-0.694,0-1.246,0.22-1.657,0.661c-0.41,0.439-0.615,1.094-0.615,1.96c0,0.935,0.208,1.636,0.623,2.103
			c0.416,0.468,0.959,0.701,1.633,0.701c0.333,0,0.667-0.065,1.002-0.196c0.334-0.131,0.622-0.289,0.861-0.476v-0.998H79.283z"/>
		<path d="M84.182,65.033v-7.874h3.346c0.842,0,1.453,0.07,1.835,0.212c0.381,0.142,0.687,0.394,0.915,0.755
			c0.229,0.361,0.344,0.775,0.344,1.241c0,0.59-0.174,1.078-0.521,1.463s-0.866,0.628-1.558,0.729c0.344,0.2,0.627,0.42,0.852,0.66
			c0.224,0.24,0.525,0.666,0.904,1.278l0.962,1.536h-1.901L88.21,63.32c-0.408-0.613-0.688-0.999-0.838-1.158
			s-0.31-0.269-0.478-0.327c-0.169-0.06-0.436-0.089-0.801-0.089h-0.322v3.287H84.182z M85.771,60.489h1.176
			c0.764,0,1.239-0.032,1.43-0.097c0.189-0.064,0.338-0.176,0.445-0.333s0.161-0.354,0.161-0.591c0-0.265-0.071-0.479-0.212-0.642
			c-0.142-0.163-0.342-0.267-0.6-0.31c-0.129-0.018-0.516-0.026-1.16-0.026h-1.24V60.489z"/>
		<path d="M99.221,65.033h-1.729l-0.688-1.789h-3.147l-0.65,1.789H91.32l3.066-7.874h1.682L99.221,65.033z M96.293,61.918
			l-1.084-2.922l-1.064,2.922H96.293z"/>
		<path d="M100.074,65.033v-7.874h5.398v1.332h-3.809v1.864h3.287v1.332h-3.287v3.346H100.074z"/>
		<path d="M106.553,56.708l0.74-1.606h1.692l-1.478,1.606H106.553z M106.734,65.033v-7.874h1.59v7.874H106.734z"/>
		<path d="M116.939,65.033h-1.729l-0.688-1.789h-3.148l-0.649,1.789h-1.687l3.066-7.874h1.682L116.939,65.033z M114.013,61.918
			l-1.085-2.922l-1.063,2.922H114.013z"/>
	</g>
	<g>
		<path fill="#FFFFFF" d="M63.396,13.962l7.044,2.37c0.578,0.252,3.331,1.259,8.214,0.048c6.168-1.528,19.521-4.179,19.656-4.207
			l-0.5-2.511c0,0-0.039,0.01-0.088,0.02L84.997,7.887c-1.399-0.195-3.657-0.141-5.05,0.132l-17.015,3.297
			c-2.214-0.112-4.314,1.245-5.02,3.454c-0.409,1.269-0.297,2.626,0.315,3.808c0.315,0.609,0.739,1.129,1.25,1.557
			c-0.769,0.598-1.367,1.42-1.688,2.413c-0.404,1.269-0.292,2.626,0.32,3.813c0.331,0.642,0.793,1.183,1.343,1.615
			c-0.753,0.594-1.348,1.415-1.663,2.393c-0.404,1.275-0.292,2.626,0.32,3.814c0.613,1.187,1.648,2.062,2.919,2.47l12.268,3.92
			c0.673,0.215,1.774,0.264,2.467,0.104l21.532-4.933c0,0-0.132-0.554-0.286-1.245c-0.155-0.685-0.847-1.118-1.532-0.963
			l-19.603,4.491c-0.69,0.158-1.796,0.111-2.467-0.104l-11.601-3.706c-0.618-0.2-1.123-0.628-1.427-1.207
			c-0.296-0.579-0.354-1.24-0.155-1.858c0.414-1.284,1.786-1.985,3.069-1.581c0.005-0.014,7.097,2.252,10.001,3.176
			c0.673,0.214,1.774,0.263,2.467,0.107l21.532-4.932c0,0-0.132-0.559-0.286-1.25c-0.155-0.685-0.842-1.118-1.532-0.958
			l-19.603,4.489c-0.69,0.156-1.796,0.107-2.467-0.107L61.808,26.39c-0.618-0.199-1.123-0.627-1.427-1.206
			c-0.296-0.579-0.354-1.24-0.155-1.858c0.414-1.284,1.786-1.985,3.069-1.581c0-0.005,7.189,2.291,10.117,3.225
			c0.676,0.219,1.78,0.262,2.467,0.107l21.533-4.933c0,0-0.127-0.559-0.287-1.25c-0.156-0.686-0.842-1.118-1.531-0.957
			l-19.603,4.484c-0.691,0.16-1.791,0.112-2.468-0.102l-11.595-3.706c-0.623-0.199-1.131-0.628-1.427-1.207
			c-0.301-0.579-0.354-1.24-0.155-1.858C60.76,14.268,62.132,13.554,63.396,13.962"/>
	</g>
</g>
</svg>
