<?xml version="1.0" encoding="utf-8"?>
<!-- Generator: Adobe Illustrator 16.0.0, SVG Export Plug-In . SVG Version: 6.00 Build 0)  -->
<!DOCTYPE svg PUBLIC "-//W3C//DTD SVG 1.1//EN" "http://www.w3.org/Graphics/SVG/1.1/DTD/svg11.dtd">
<svg version="1.1" id="Capa_1" xmlns="http://www.w3.org/2000/svg" xmlns:xlink="http://www.w3.org/1999/xlink" x="0px" y="0px"
	 width="154.914px" height="74.254px" viewBox="0 0 154.914 74.254" enable-background="new 0 0 154.914 74.254"
	 xml:space="preserve">
<g>
	<g opacity="0.5">
		<g>
			<g>
				<g>
					<defs>
						<rect id="SVGID_1_" x="0.543" y="-0.298" width="154.917" height="74.253"/>
					</defs>
					<clipPath id="SVGID_2_">
						<use xlink:href="#SVGID_1_"  overflow="visible"/>
					</clipPath>
					<g clip-path="url(#SVGID_2_)">
						<rect x="0.543" y="-0.298" fill="#FFFFFF" width="154.913" height="74.253"/>
					</g>
				</g>
			</g>
		</g>
	</g>
	<g>
		<rect x="0.002" y="-0.298" width="155.336" height="48.153"/>
	</g>
	<g enable-background="new    ">
		<path d="M30.675,57.159h2.906c0.655,0,1.155,0.05,1.499,0.15c0.462,0.136,0.857,0.378,1.187,0.726
			c0.33,0.347,0.58,0.772,0.752,1.275s0.258,1.123,0.258,1.861c0,0.647-0.081,1.206-0.242,1.676
			c-0.197,0.572-0.478,1.036-0.843,1.391c-0.276,0.269-0.648,0.479-1.117,0.629c-0.351,0.11-0.82,0.166-1.407,0.166h-2.992V57.159z
			 M32.265,58.491v5.216h1.187c0.444,0,0.765-0.025,0.961-0.076c0.258-0.064,0.472-0.173,0.642-0.327
			c0.17-0.154,0.309-0.407,0.417-0.76s0.161-0.834,0.161-1.442s-0.054-1.076-0.161-1.402c-0.107-0.325-0.258-0.58-0.451-0.762
			c-0.193-0.184-0.438-0.307-0.736-0.371c-0.222-0.05-0.657-0.075-1.305-0.075H32.265z"/>
		<path d="M38.625,65.033v-7.874h5.838v1.332h-4.249v1.745h3.953v1.327h-3.953v2.144h4.399v1.326H38.625z"/>
		<path d="M45.559,62.471l1.547-0.15c0.093,0.52,0.282,0.901,0.566,1.145c0.285,0.243,0.669,0.365,1.152,0.365
			c0.512,0,0.898-0.108,1.157-0.325c0.26-0.217,0.39-0.47,0.39-0.76c0-0.187-0.055-0.345-0.164-0.476
			c-0.109-0.131-0.3-0.244-0.572-0.341c-0.186-0.064-0.61-0.179-1.273-0.344c-0.852-0.211-1.45-0.471-1.794-0.778
			c-0.483-0.434-0.725-0.962-0.725-1.585c0-0.401,0.114-0.776,0.341-1.125c0.227-0.35,0.555-0.615,0.982-0.798
			c0.428-0.183,0.945-0.273,1.55-0.273c0.988,0,1.732,0.216,2.231,0.649c0.5,0.434,0.762,1.012,0.787,1.735l-1.59,0.069
			c-0.068-0.404-0.214-0.695-0.438-0.873c-0.224-0.177-0.56-0.266-1.007-0.266c-0.462,0-0.824,0.095-1.085,0.284
			c-0.168,0.122-0.252,0.285-0.252,0.489c0,0.187,0.079,0.346,0.236,0.478c0.201,0.169,0.688,0.344,1.461,0.527
			c0.773,0.182,1.346,0.371,1.716,0.566c0.371,0.195,0.661,0.462,0.87,0.8c0.21,0.339,0.314,0.757,0.314,1.255
			c0,0.451-0.125,0.873-0.376,1.268c-0.25,0.394-0.605,0.687-1.063,0.878s-1.029,0.287-1.713,0.287c-0.996,0-1.76-0.23-2.293-0.69
			S45.663,63.352,45.559,62.471z"/>
		<path d="M58.336,62.139l1.542,0.488c-0.236,0.859-0.629,1.498-1.179,1.915c-0.55,0.417-1.247,0.626-2.092,0.626
			c-1.045,0-1.905-0.357-2.578-1.072c-0.673-0.714-1.01-1.69-1.01-2.93c0-1.311,0.338-2.328,1.015-3.054
			c0.677-0.725,1.566-1.087,2.669-1.087c0.963,0,1.746,0.284,2.347,0.854c0.358,0.337,0.626,0.82,0.806,1.45l-1.574,0.376
			c-0.093-0.408-0.288-0.73-0.583-0.967c-0.296-0.236-0.655-0.354-1.077-0.354c-0.583,0-1.057,0.21-1.421,0.628
			c-0.363,0.42-0.545,1.098-0.545,2.036c0,0.995,0.179,1.704,0.537,2.127s0.824,0.634,1.396,0.634c0.422,0,0.786-0.135,1.09-0.402
			C57.985,63.137,58.204,62.715,58.336,62.139z"/>
		<path d="M68.343,65.033h-1.729l-0.688-1.789h-3.147l-0.65,1.789h-1.687l3.067-7.874h1.681L68.343,65.033z M65.416,61.918
			l-1.085-2.922l-1.063,2.922H65.416z"/>
		<path d="M69.191,65.033v-7.874h3.346c0.841,0,1.453,0.07,1.834,0.212c0.381,0.142,0.687,0.394,0.916,0.755
			s0.344,0.775,0.344,1.241c0,0.59-0.174,1.078-0.521,1.463s-0.867,0.628-1.558,0.729c0.344,0.2,0.627,0.42,0.852,0.66
			c0.224,0.24,0.525,0.666,0.905,1.278l0.961,1.536h-1.901L73.22,63.32c-0.408-0.613-0.688-0.999-0.838-1.158
			s-0.31-0.269-0.478-0.327c-0.168-0.06-0.435-0.089-0.8-0.089h-0.322v3.287H69.191z M70.781,60.489h1.176
			c0.763,0,1.239-0.032,1.429-0.097s0.338-0.176,0.446-0.333s0.161-0.354,0.161-0.591c0-0.265-0.071-0.479-0.212-0.642
			c-0.142-0.163-0.341-0.267-0.599-0.31c-0.129-0.018-0.516-0.026-1.16-0.026h-1.241V60.489z"/>
		<path d="M80.793,62.139v-1.327h3.427v3.137c-0.333,0.322-0.815,0.606-1.448,0.852c-0.631,0.245-1.271,0.368-1.92,0.368
			c-0.823,0-1.541-0.173-2.153-0.519s-1.072-0.84-1.38-1.482s-0.462-1.342-0.462-2.098c0-0.82,0.172-1.549,0.516-2.187
			c0.344-0.637,0.847-1.126,1.509-1.466c0.505-0.262,1.133-0.392,1.885-0.392c0.979,0,1.742,0.204,2.291,0.614
			c0.55,0.41,0.903,0.977,1.061,1.7l-1.578,0.295c-0.111-0.387-0.32-0.691-0.627-0.915c-0.305-0.224-0.688-0.336-1.146-0.336
			c-0.694,0-1.246,0.22-1.656,0.661c-0.41,0.439-0.615,1.094-0.615,1.96c0,0.935,0.207,1.636,0.623,2.103
			c0.416,0.468,0.959,0.701,1.633,0.701c0.333,0,0.667-0.065,1.002-0.196c0.334-0.131,0.622-0.289,0.861-0.476v-0.998H80.793z"/>
		<path d="M92.787,65.033h-1.73l-0.688-1.789h-3.146l-0.65,1.789h-1.687l3.067-7.874h1.681L92.787,65.033z M89.859,61.918
			l-1.085-2.922l-1.063,2.922H89.859z"/>
		<path d="M93.635,65.033v-7.874h3.347c0.841,0,1.452,0.07,1.835,0.212c0.381,0.142,0.686,0.394,0.915,0.755
			s0.344,0.775,0.344,1.241c0,0.59-0.174,1.078-0.521,1.463c-0.348,0.385-0.867,0.628-1.559,0.729c0.344,0.2,0.628,0.42,0.852,0.66
			c0.225,0.24,0.525,0.666,0.905,1.278l0.962,1.536h-1.902l-1.148-1.713c-0.408-0.613-0.688-0.999-0.838-1.158
			s-0.311-0.269-0.479-0.327c-0.168-0.06-0.436-0.089-0.801-0.089h-0.322v3.287H93.635z M95.225,60.489h1.177
			c0.763,0,1.239-0.032,1.429-0.097s0.338-0.176,0.445-0.333s0.162-0.354,0.162-0.591c0-0.265-0.071-0.479-0.213-0.642
			c-0.141-0.163-0.341-0.267-0.599-0.31c-0.129-0.018-0.516-0.026-1.16-0.026h-1.241V60.489z"/>
		<path d="M104.63,65.033v-7.874h2.552c0.967,0,1.597,0.039,1.891,0.118c0.451,0.118,0.828,0.375,1.133,0.771
			s0.457,0.907,0.457,1.534c0,0.482-0.088,0.89-0.264,1.219s-0.398,0.588-0.668,0.776c-0.271,0.188-0.546,0.313-0.825,0.373
			c-0.38,0.075-0.929,0.112-1.649,0.112h-1.036v2.971H104.63z M106.22,58.491v2.234h0.87c0.627,0,1.045-0.041,1.257-0.124
			c0.212-0.082,0.377-0.211,0.497-0.387c0.119-0.175,0.18-0.379,0.18-0.611c0-0.287-0.084-0.523-0.252-0.709
			c-0.169-0.187-0.382-0.303-0.64-0.35c-0.19-0.036-0.571-0.054-1.144-0.054H106.22z"/>
		<path d="M111.961,57.159h2.906c0.655,0,1.154,0.05,1.498,0.15c0.463,0.136,0.857,0.378,1.188,0.726
			c0.33,0.347,0.58,0.772,0.752,1.275s0.258,1.123,0.258,1.861c0,0.647-0.08,1.206-0.242,1.676
			c-0.196,0.572-0.478,1.036-0.843,1.391c-0.276,0.269-0.647,0.479-1.117,0.629c-0.351,0.11-0.819,0.166-1.407,0.166h-2.992V57.159z
			 M113.551,58.491v5.216h1.188c0.443,0,0.765-0.025,0.961-0.076c0.258-0.064,0.473-0.173,0.643-0.327s0.309-0.407,0.416-0.76
			s0.161-0.834,0.161-1.442s-0.054-1.076-0.161-1.402c-0.107-0.325-0.258-0.58-0.451-0.762c-0.193-0.184-0.438-0.307-0.736-0.371
			c-0.222-0.05-0.656-0.075-1.305-0.075H113.551z"/>
		<path d="M119.922,65.033v-7.874h5.397v1.332h-3.808v1.864h3.287v1.332h-3.287v3.346H119.922z"/>
	</g>
	<g>
		<path fill="#FFFFFF" d="M76.334,14.942h-4.789c-0.737,0-1.337,0.598-1.337,1.337c0,0.738,0.6,1.336,1.337,1.336h4.789
			c0.737,0,1.338-0.598,1.338-1.336C77.672,15.54,77.071,14.942,76.334,14.942"/>
	</g>
	<g>
		<path fill="#FFFFFF" d="M76.334,20.497h-4.789c-0.737,0-1.337,0.598-1.337,1.337c0,0.738,0.6,1.336,1.337,1.336h4.789
			c0.737,0,1.338-0.598,1.338-1.336C77.672,21.095,77.071,20.497,76.334,20.497"/>
	</g>
	<g>
		<path fill="#FFFFFF" d="M81.954,29.856v1.302h0.688c0.834,0,0.834-0.499,0.834-0.663c0-0.158,0-0.639-0.834-0.639H81.954z"/>
	</g>
	<g>
		<path fill="#FFFFFF" d="M92.105,27.396H89.93V13.847c0-0.351-0.139-0.687-0.387-0.934l-5.247-5.247
			c-0.248-0.248-0.584-0.387-0.935-0.387H67.574c-1.432,0-2.596,1.164-2.596,2.594v27.813c0,1.431,1.164,2.594,2.596,2.594h19.763
			c1.431,0,2.595-1.163,2.595-2.594v-2.679h2.176c1.131,0,2.047-0.916,2.047-2.047v-3.516
			C94.152,28.313,93.236,27.396,92.105,27.396 M87.113,37.391H67.798V10.168h13.729v3.883c0,0.94,0.764,1.702,1.703,1.702h3.884
			v11.643h-6.609c-1.131,0-2.048,0.917-2.048,2.048v3.516c0,1.131,0.917,2.047,2.048,2.047h6.609L87.113,37.391L87.113,37.391z
			 M84.32,30.495c0,0.93-0.645,1.508-1.68,1.508h-0.688v0.8c0,0.207-0.167,0.374-0.374,0.374H81.48
			c-0.207,0-0.375-0.167-0.375-0.374v-3.418c0-0.207,0.168-0.374,0.375-0.374h1.16C83.678,29.01,84.32,29.579,84.32,30.495
			 M86.441,33.177h-1.346c-0.207,0-0.375-0.167-0.375-0.374v-3.418c0-0.207,0.168-0.374,0.375-0.374h1.346
			c1.172,0,2.125,0.935,2.125,2.086C88.566,32.244,87.613,33.177,86.441,33.177 M91.803,29.482c0,0.207-0.168,0.374-0.375,0.374
			h-1.519v0.896h1.294c0.207,0,0.374,0.167,0.374,0.374v0.098c0,0.206-0.167,0.374-0.374,0.374h-1.294v1.205
			c0,0.207-0.167,0.374-0.374,0.374h-0.1c-0.205,0-0.373-0.167-0.373-0.374v-3.419c0-0.206,0.168-0.374,0.373-0.374h1.99
			c0.207,0,0.375,0.168,0.375,0.374L91.803,29.482L91.803,29.482z"/>
	</g>
	<g>
		<path fill="#FFFFFF" d="M86.441,29.856h-0.875v2.476h0.875c0.705,0,1.277-0.555,1.277-1.236
			C87.721,30.412,87.146,29.856,86.441,29.856"/>
	</g>
</g>
</svg>
