<?xml version="1.0" encoding="utf-8"?>
<!-- Generator: Adobe Illustrator 16.0.0, SVG Export Plug-In . SVG Version: 6.00 Build 0)  -->
<!DOCTYPE svg PUBLIC "-//W3C//DTD SVG 1.1//EN" "http://www.w3.org/Graphics/SVG/1.1/DTD/svg11.dtd">
<svg version="1.1" id="Capa_1" xmlns="http://www.w3.org/2000/svg" xmlns:xlink="http://www.w3.org/1999/xlink" x="0px" y="0px"
	 width="233.319px" height="32.448px" viewBox="0 0 233.319 32.448" enable-background="new 0 0 233.319 32.448"
	 xml:space="preserve">
<line opacity="0.5" fill="none" stroke="#FFFFFF" stroke-miterlimit="10" x1="0" y1="31.948" x2="233.319" y2="31.948"/>
<line opacity="0.5" fill="none" stroke="#FFFFFF" stroke-miterlimit="10" x1="0" y1="0.5" x2="233.319" y2="0.5"/>
<rect y="2.515" fill="#FFE8C7" width="233.319" height="27.402"/>
<g>
	<path fill="#002549" d="M48.787,18.161V8.855h6.729v1.099h-5.497v2.85h5.148v1.092h-5.148v3.168h5.713v1.098H48.787z"/>
	<path fill="#002549" d="M56.83,16.149l1.13-0.178c0.063,0.452,0.24,0.799,0.529,1.041c0.29,0.24,0.695,0.361,1.216,0.361
		c0.524,0,0.914-0.106,1.168-0.32s0.381-0.465,0.381-0.752c0-0.259-0.112-0.462-0.337-0.609c-0.156-0.102-0.545-0.231-1.168-0.388
		c-0.838-0.212-1.418-0.395-1.742-0.549c-0.323-0.154-0.569-0.368-0.736-0.642c-0.167-0.272-0.25-0.574-0.25-0.904
		c0-0.301,0.069-0.579,0.207-0.835c0.137-0.256,0.325-0.469,0.562-0.638c0.178-0.131,0.42-0.242,0.727-0.333
		s0.637-0.137,0.987-0.137c0.528,0,0.993,0.076,1.394,0.229c0.399,0.152,0.695,0.358,0.885,0.619
		c0.191,0.26,0.322,0.608,0.395,1.044l-1.117,0.152c-0.051-0.347-0.198-0.618-0.441-0.813c-0.244-0.194-0.588-0.292-1.031-0.292
		c-0.525,0-0.9,0.087-1.124,0.261c-0.224,0.173-0.337,0.376-0.337,0.609c0,0.147,0.047,0.281,0.141,0.399
		c0.093,0.123,0.238,0.225,0.438,0.305c0.114,0.042,0.451,0.14,1.01,0.292c0.808,0.216,1.371,0.393,1.691,0.53
		c0.319,0.138,0.57,0.337,0.752,0.6s0.273,0.588,0.273,0.978c0,0.381-0.111,0.739-0.334,1.076c-0.222,0.336-0.543,0.597-0.961,0.78
		c-0.42,0.185-0.894,0.276-1.422,0.276c-0.877,0-1.544-0.182-2.003-0.546C57.25,17.403,56.957,16.864,56.83,16.149z"/>
	<path fill="#002549" d="M66.281,17.139l0.165,1.009c-0.322,0.067-0.609,0.102-0.863,0.102c-0.414,0-0.736-0.065-0.965-0.196
		c-0.229-0.132-0.389-0.304-0.482-0.518s-0.14-0.664-0.14-1.35v-3.878h-0.838v-0.889h0.838V9.75l1.136-0.686v2.354h1.149v0.889
		h-1.149v3.942c0,0.325,0.021,0.535,0.061,0.628c0.041,0.093,0.105,0.167,0.197,0.222c0.091,0.056,0.221,0.083,0.391,0.083
		C65.907,17.183,66.073,17.168,66.281,17.139z"/>
	<path fill="#002549" d="M67.386,18.161v-6.741h1.028v1.022c0.263-0.479,0.505-0.794,0.728-0.946
		c0.221-0.152,0.466-0.229,0.732-0.229c0.385,0,0.776,0.123,1.174,0.368l-0.393,1.061c-0.279-0.166-0.559-0.248-0.838-0.248
		c-0.25,0-0.475,0.075-0.674,0.226c-0.198,0.15-0.34,0.358-0.425,0.625c-0.127,0.406-0.19,0.851-0.19,1.333v3.529H67.386z"/>
	<path fill="#002549" d="M76.126,17.329c-0.423,0.36-0.83,0.614-1.221,0.762c-0.393,0.148-0.813,0.223-1.261,0.223
		c-0.741,0-1.31-0.181-1.708-0.543c-0.397-0.361-0.596-0.824-0.596-1.387c0-0.33,0.074-0.632,0.225-0.904
		c0.15-0.273,0.348-0.492,0.59-0.657c0.244-0.165,0.518-0.29,0.822-0.374c0.225-0.06,0.563-0.117,1.016-0.172
		c0.923-0.11,1.602-0.241,2.038-0.394c0.005-0.156,0.007-0.256,0.007-0.298c0-0.466-0.108-0.794-0.324-0.984
		c-0.292-0.258-0.726-0.387-1.301-0.387c-0.538,0-0.935,0.094-1.191,0.282c-0.256,0.188-0.445,0.521-0.567,0.999l-1.117-0.152
		c0.102-0.478,0.269-0.864,0.501-1.158c0.233-0.294,0.57-0.521,1.01-0.679c0.439-0.159,0.95-0.238,1.529-0.238
		c0.576,0,1.043,0.067,1.403,0.203s0.624,0.306,0.794,0.511c0.169,0.205,0.287,0.465,0.355,0.777
		c0.037,0.195,0.057,0.547,0.057,1.055v1.523c0,1.062,0.024,1.733,0.072,2.015c0.049,0.281,0.146,0.552,0.289,0.81h-1.193
		C76.236,17.923,76.16,17.647,76.126,17.329z M76.031,14.778c-0.415,0.169-1.036,0.313-1.866,0.432
		c-0.47,0.067-0.802,0.144-0.996,0.229c-0.195,0.084-0.346,0.208-0.451,0.371s-0.158,0.344-0.158,0.543
		c0,0.305,0.115,0.559,0.346,0.762s0.568,0.305,1.012,0.305c0.44,0,0.832-0.097,1.175-0.289s0.595-0.456,0.755-0.791
		c0.123-0.258,0.185-0.639,0.185-1.143V14.778z"/>
	<path fill="#002549" d="M81.452,17.139l0.165,1.009c-0.321,0.067-0.609,0.102-0.863,0.102c-0.415,0-0.736-0.065-0.965-0.196
		c-0.229-0.132-0.39-0.304-0.482-0.518s-0.14-0.664-0.14-1.35v-3.878h-0.838v-0.889h0.838V9.75l1.137-0.686v2.354h1.148v0.889
		h-1.148v3.942c0,0.325,0.02,0.535,0.06,0.628s0.106,0.167,0.197,0.222c0.091,0.056,0.221,0.083,0.39,0.083
		C81.077,17.183,81.245,17.168,81.452,17.139z"/>
	<path fill="#002549" d="M87.185,15.99l1.18,0.146c-0.186,0.69-0.531,1.226-1.034,1.606s-1.147,0.571-1.93,0.571
		c-0.985,0-1.769-0.304-2.345-0.911c-0.578-0.607-0.867-1.459-0.867-2.555c0-1.134,0.292-2.015,0.876-2.641s1.341-0.939,2.272-0.939
		c0.901,0,1.638,0.307,2.209,0.921c0.571,0.613,0.857,1.477,0.857,2.59c0,0.067-0.002,0.169-0.007,0.305h-5.027
		c0.042,0.74,0.252,1.307,0.628,1.701c0.377,0.393,0.847,0.59,1.41,0.59c0.418,0,0.775-0.11,1.072-0.33S87.011,16.472,87.185,15.99z
		 M83.433,14.143h3.764c-0.051-0.567-0.194-0.993-0.432-1.276c-0.363-0.44-0.836-0.66-1.415-0.66c-0.524,0-0.966,0.176-1.323,0.526
		C83.669,13.084,83.471,13.554,83.433,14.143z"/>
	<path fill="#002549" d="M89.59,18.719l1.11,0.165c0.047,0.343,0.176,0.593,0.388,0.749c0.284,0.212,0.671,0.317,1.161,0.317
		c0.529,0,0.938-0.105,1.226-0.317s0.482-0.508,0.584-0.889c0.06-0.232,0.087-0.722,0.083-1.467c-0.5,0.589-1.122,0.883-1.867,0.883
		c-0.926,0-1.644-0.334-2.151-1.003s-0.762-1.471-0.762-2.405c0-0.644,0.116-1.237,0.349-1.781c0.233-0.544,0.57-0.964,1.013-1.26
		s0.962-0.444,1.559-0.444c0.796,0,1.452,0.321,1.968,0.965v-0.813h1.054v5.827c0,1.05-0.106,1.793-0.32,2.231
		c-0.214,0.438-0.553,0.784-1.016,1.038c-0.464,0.254-1.034,0.381-1.711,0.381c-0.804,0-1.454-0.182-1.948-0.543
		C89.812,19.992,89.573,19.447,89.59,18.719z M90.536,14.669c0,0.885,0.176,1.53,0.526,1.937s0.792,0.609,1.32,0.609
		c0.524,0,0.965-0.202,1.32-0.606s0.533-1.038,0.533-1.901c0-0.825-0.183-1.447-0.549-1.866s-0.808-0.628-1.323-0.628
		c-0.508,0-0.939,0.206-1.295,0.618C90.714,13.245,90.536,13.857,90.536,14.669z"/>
	<path fill="#002549" d="M97.036,10.168V8.855h1.143v1.313H97.036z M97.036,18.161v-6.741h1.143v6.741H97.036z"/>
	<path fill="#002549" d="M104.316,17.329c-0.423,0.36-0.831,0.614-1.222,0.762c-0.392,0.148-0.812,0.223-1.26,0.223
		c-0.741,0-1.311-0.181-1.708-0.543c-0.397-0.361-0.597-0.824-0.597-1.387c0-0.33,0.075-0.632,0.226-0.904
		c0.149-0.273,0.347-0.492,0.59-0.657s0.518-0.29,0.822-0.374c0.224-0.06,0.563-0.117,1.016-0.172
		c0.923-0.11,1.602-0.241,2.038-0.394c0.004-0.156,0.006-0.256,0.006-0.298c0-0.466-0.107-0.794-0.324-0.984
		c-0.291-0.258-0.725-0.387-1.301-0.387c-0.537,0-0.934,0.094-1.19,0.282c-0.256,0.188-0.445,0.521-0.567,0.999l-1.117-0.152
		c0.102-0.478,0.268-0.864,0.501-1.158s0.569-0.521,1.009-0.679c0.44-0.159,0.951-0.238,1.53-0.238c0.575,0,1.043,0.067,1.403,0.203
		c0.359,0.136,0.623,0.306,0.793,0.511s0.287,0.465,0.355,0.777c0.038,0.195,0.057,0.547,0.057,1.055v1.523
		c0,1.062,0.025,1.733,0.073,2.015c0.049,0.281,0.146,0.552,0.289,0.81h-1.193C104.427,17.923,104.351,17.647,104.316,17.329z
		 M104.222,14.778c-0.415,0.169-1.037,0.313-1.867,0.432c-0.469,0.067-0.801,0.144-0.996,0.229
		c-0.195,0.084-0.345,0.208-0.451,0.371c-0.105,0.163-0.158,0.344-0.158,0.543c0,0.305,0.115,0.559,0.346,0.762
		s0.568,0.305,1.013,0.305c0.44,0,0.831-0.097,1.175-0.289c0.342-0.192,0.594-0.456,0.755-0.791
		c0.122-0.258,0.185-0.639,0.185-1.143V14.778z"/>
	<path fill="#002549" d="M110.759,18.161v-6.741h1.022v0.946c0.212-0.33,0.493-0.596,0.845-0.797
		c0.351-0.201,0.75-0.302,1.199-0.302c0.5,0,0.908,0.104,1.229,0.312c0.319,0.207,0.545,0.497,0.676,0.869
		c0.533-0.787,1.227-1.181,2.082-1.181c0.668,0,1.183,0.186,1.543,0.556c0.359,0.37,0.539,0.94,0.539,1.711v4.627h-1.137v-4.246
		c0-0.457-0.037-0.786-0.11-0.987c-0.074-0.201-0.208-0.363-0.403-0.485c-0.195-0.123-0.424-0.185-0.686-0.185
		c-0.475,0-0.867,0.157-1.181,0.473s-0.47,0.82-0.47,1.515v3.916h-1.143v-4.38c0-0.508-0.094-0.889-0.279-1.143
		s-0.49-0.381-0.914-0.381c-0.322,0-0.619,0.085-0.892,0.254c-0.273,0.169-0.472,0.417-0.594,0.743
		c-0.122,0.325-0.185,0.795-0.185,1.408v3.498H110.759z"/>
	<path fill="#002549" d="M126.203,15.99l1.181,0.146c-0.186,0.69-0.531,1.226-1.035,1.606c-0.503,0.381-1.146,0.571-1.93,0.571
		c-0.985,0-1.768-0.304-2.345-0.911c-0.578-0.607-0.866-1.459-0.866-2.555c0-1.134,0.291-2.015,0.875-2.641s1.342-0.939,2.273-0.939
		c0.9,0,1.637,0.307,2.209,0.921c0.57,0.613,0.856,1.477,0.856,2.59c0,0.067-0.002,0.169-0.007,0.305h-5.027
		c0.043,0.74,0.252,1.307,0.629,1.701c0.377,0.393,0.846,0.59,1.409,0.59c0.419,0,0.776-0.11,1.073-0.33
		C125.795,16.824,126.03,16.472,126.203,15.99z M122.452,14.143h3.764c-0.051-0.567-0.195-0.993-0.432-1.276
		c-0.363-0.44-0.836-0.66-1.416-0.66c-0.524,0-0.965,0.176-1.323,0.526C122.688,13.084,122.489,13.554,122.452,14.143z"/>
	<path fill="#002549" d="M131.313,17.139l0.164,1.009c-0.321,0.067-0.609,0.102-0.863,0.102c-0.414,0-0.736-0.065-0.965-0.196
		c-0.229-0.132-0.389-0.304-0.482-0.518c-0.093-0.214-0.139-0.664-0.139-1.35v-3.878h-0.838v-0.889h0.838V9.75l1.136-0.686v2.354
		h1.149v0.889h-1.149v3.942c0,0.325,0.021,0.535,0.06,0.628c0.041,0.093,0.106,0.167,0.197,0.222
		c0.092,0.056,0.221,0.083,0.391,0.083C130.938,17.183,131.105,17.168,131.313,17.139z"/>
	<path fill="#002549" d="M132.005,14.79c0-1.248,0.348-2.173,1.041-2.773c0.58-0.499,1.287-0.749,2.12-0.749
		c0.927,0,1.685,0.304,2.272,0.911s0.883,1.446,0.883,2.517c0,0.867-0.131,1.55-0.391,2.047c-0.261,0.497-0.639,0.884-1.137,1.159
		c-0.497,0.274-1.039,0.412-1.628,0.412c-0.944,0-1.706-0.303-2.288-0.908C132.296,16.8,132.005,15.928,132.005,14.79z
		 M133.179,14.79c0,0.863,0.189,1.51,0.565,1.939s0.851,0.645,1.422,0.645c0.567,0,1.039-0.216,1.415-0.647
		c0.377-0.432,0.565-1.09,0.565-1.974c0-0.834-0.189-1.466-0.568-1.896c-0.378-0.43-0.849-0.644-1.412-0.644
		c-0.571,0-1.046,0.213-1.422,0.641S133.179,13.926,133.179,14.79z"/>
	<path fill="#002549" d="M144.034,18.161V17.31c-0.428,0.669-1.057,1.003-1.886,1.003c-0.538,0-1.032-0.148-1.481-0.444
		c-0.451-0.296-0.801-0.71-1.049-1.241c-0.246-0.531-0.371-1.142-0.371-1.831c0-0.673,0.113-1.283,0.337-1.831
		s0.561-0.969,1.009-1.26c0.449-0.293,0.951-0.438,1.505-0.438c0.406,0,0.769,0.086,1.085,0.257c0.318,0.172,0.576,0.395,0.775,0.67
		V8.855h1.136v9.306H144.034z M140.422,14.796c0,0.863,0.183,1.509,0.546,1.937c0.363,0.427,0.793,0.641,1.289,0.641
		c0.499,0,0.924-0.204,1.271-0.612c0.35-0.408,0.524-1.032,0.524-1.87c0-0.922-0.178-1.6-0.533-2.031s-0.794-0.646-1.313-0.646
		c-0.508,0-0.933,0.207-1.273,0.621C140.593,13.25,140.422,13.904,140.422,14.796z"/>
	<path fill="#002549" d="M146.465,14.79c0-1.248,0.347-2.173,1.041-2.773c0.579-0.499,1.286-0.749,2.12-0.749
		c0.927,0,1.684,0.304,2.272,0.911s0.882,1.446,0.882,2.517c0,0.867-0.13,1.55-0.39,2.047c-0.261,0.497-0.64,0.884-1.137,1.159
		c-0.497,0.274-1.04,0.412-1.628,0.412c-0.943,0-1.707-0.303-2.288-0.908C146.756,16.8,146.465,15.928,146.465,14.79z M147.64,14.79
		c0,0.863,0.188,1.51,0.564,1.939s0.851,0.645,1.422,0.645c0.566,0,1.039-0.216,1.416-0.647c0.376-0.432,0.564-1.09,0.564-1.974
		c0-0.834-0.189-1.466-0.568-1.896s-0.85-0.644-1.412-0.644c-0.571,0-1.045,0.213-1.422,0.641S147.64,13.926,147.64,14.79z"/>
	<path fill="#002549" d="M154.095,18.161V8.855h1.143v9.306H154.095z"/>
	<path fill="#002549" d="M156.583,14.79c0-1.248,0.348-2.173,1.041-2.773c0.58-0.499,1.287-0.749,2.121-0.749
		c0.926,0,1.684,0.304,2.271,0.911s0.883,1.446,0.883,2.517c0,0.867-0.131,1.55-0.391,2.047s-0.639,0.884-1.137,1.159
		c-0.496,0.274-1.039,0.412-1.627,0.412c-0.945,0-1.707-0.303-2.289-0.908C156.874,16.8,156.583,15.928,156.583,14.79z
		 M157.757,14.79c0,0.863,0.189,1.51,0.566,1.939c0.375,0.43,0.85,0.645,1.422,0.645c0.566,0,1.039-0.216,1.414-0.647
		c0.377-0.432,0.566-1.09,0.566-1.974c0-0.834-0.189-1.466-0.568-1.896s-0.85-0.644-1.412-0.644c-0.572,0-1.047,0.213-1.422,0.641
		C157.946,13.282,157.757,13.926,157.757,14.79z M159.11,10.582l0.844-1.777h1.498l-1.396,1.777H159.11z"/>
	<path fill="#002549" d="M164.028,18.719l1.111,0.165c0.047,0.343,0.176,0.593,0.387,0.749c0.285,0.212,0.672,0.317,1.162,0.317
		c0.529,0,0.938-0.105,1.225-0.317c0.289-0.212,0.482-0.508,0.584-0.889c0.061-0.232,0.088-0.722,0.084-1.467
		c-0.5,0.589-1.123,0.883-1.867,0.883c-0.926,0-1.645-0.334-2.152-1.003s-0.762-1.471-0.762-2.405c0-0.644,0.117-1.237,0.35-1.781
		s0.57-0.964,1.012-1.26c0.443-0.296,0.963-0.444,1.559-0.444c0.797,0,1.453,0.321,1.969,0.965v-0.813h1.053v5.827
		c0,1.05-0.105,1.793-0.32,2.231c-0.213,0.438-0.553,0.784-1.016,1.038s-1.033,0.381-1.711,0.381c-0.803,0-1.453-0.182-1.947-0.543
		C164.251,19.992,164.013,19.447,164.028,18.719z M164.976,14.669c0,0.885,0.176,1.53,0.525,1.937
		c0.352,0.406,0.793,0.609,1.32,0.609c0.525,0,0.965-0.202,1.32-0.606s0.533-1.038,0.533-1.901c0-0.825-0.182-1.447-0.549-1.866
		c-0.365-0.419-0.807-0.628-1.322-0.628c-0.508,0-0.939,0.206-1.295,0.618C165.153,13.245,164.976,13.857,164.976,14.669z"/>
	<path fill="#002549" d="M171.476,10.168V8.855h1.143v1.313H171.476z M171.476,18.161v-6.741h1.143v6.741H171.476z"/>
	<path fill="#002549" d="M178.755,15.692l1.125,0.146c-0.123,0.774-0.438,1.381-0.943,1.818c-0.506,0.438-1.127,0.657-1.863,0.657
		c-0.922,0-1.664-0.302-2.225-0.904c-0.561-0.604-0.842-1.468-0.842-2.594c0-0.728,0.121-1.364,0.363-1.91
		c0.24-0.546,0.607-0.955,1.1-1.229c0.494-0.272,1.031-0.409,1.609-0.409c0.732,0,1.332,0.186,1.797,0.556s0.764,0.896,0.895,1.577
		l-1.109,0.171c-0.107-0.452-0.293-0.793-0.563-1.021s-0.594-0.343-0.975-0.343c-0.576,0-1.043,0.206-1.402,0.619
		c-0.359,0.412-0.539,1.065-0.539,1.958c0,0.905,0.172,1.563,0.52,1.975c0.348,0.41,0.801,0.615,1.359,0.615
		c0.447,0,0.822-0.138,1.123-0.412C178.485,16.686,178.675,16.262,178.755,15.692z"/>
	<path fill="#002549" d="M185.255,17.329c-0.422,0.36-0.83,0.614-1.221,0.762c-0.393,0.148-0.813,0.223-1.26,0.223
		c-0.742,0-1.311-0.181-1.709-0.543c-0.396-0.361-0.596-0.824-0.596-1.387c0-0.33,0.074-0.632,0.225-0.904
		c0.15-0.273,0.348-0.492,0.59-0.657c0.244-0.165,0.518-0.29,0.822-0.374c0.225-0.06,0.564-0.117,1.016-0.172
		c0.924-0.11,1.602-0.241,2.039-0.394c0.004-0.156,0.006-0.256,0.006-0.298c0-0.466-0.107-0.794-0.324-0.984
		c-0.291-0.258-0.725-0.387-1.301-0.387c-0.537,0-0.934,0.094-1.191,0.282c-0.256,0.188-0.445,0.521-0.566,0.999l-1.117-0.152
		c0.102-0.478,0.268-0.864,0.5-1.158c0.234-0.294,0.57-0.521,1.01-0.679c0.439-0.159,0.951-0.238,1.529-0.238
		c0.576,0,1.043,0.067,1.404,0.203c0.359,0.136,0.623,0.306,0.793,0.511s0.287,0.465,0.355,0.777
		c0.037,0.195,0.057,0.547,0.057,1.055v1.523c0,1.062,0.025,1.733,0.072,2.015c0.049,0.281,0.146,0.552,0.289,0.81h-1.193
		C185.366,17.923,185.29,17.647,185.255,17.329z M185.161,14.778c-0.416,0.169-1.037,0.313-1.867,0.432
		c-0.469,0.067-0.801,0.144-0.996,0.229c-0.195,0.084-0.346,0.208-0.451,0.371s-0.158,0.344-0.158,0.543
		c0,0.305,0.115,0.559,0.346,0.762s0.568,0.305,1.012,0.305c0.441,0,0.832-0.097,1.176-0.289c0.342-0.192,0.594-0.456,0.754-0.791
		c0.123-0.258,0.186-0.639,0.186-1.143V14.778z"/>
</g>
<circle fill="#FFFFFF" stroke="#FFCC73" stroke-miterlimit="10" cx="33.321" cy="14.628" r="4.418"/>
</svg>
