<?xml version="1.0" encoding="utf-8"?>
<!-- Generator: Adobe Illustrator 16.0.0, SVG Export Plug-In . SVG Version: 6.00 Build 0)  -->
<!DOCTYPE svg PUBLIC "-//W3C//DTD SVG 1.1//EN" "http://www.w3.org/Graphics/SVG/1.1/DTD/svg11.dtd">
<svg version="1.1" id="Capa_1" xmlns="http://www.w3.org/2000/svg" xmlns:xlink="http://www.w3.org/1999/xlink" x="0px" y="0px"
	 width="233.319px" height="32.813px" viewBox="0 0 233.319 32.813" enable-background="new 0 0 233.319 32.813"
	 xml:space="preserve">
<g opacity="0.5">
	<rect x="39.006" y="31.813" fill="#FFFFFF" width="181.751" height="1"/>
</g>
<g opacity="0.5">
	<rect x="39.006" fill="#FFFFFF" width="181.751" height="1"/>
</g>
<g>
	<path fill="#FFFFFF" d="M47.777,23.625v-9.304h3.51c0.618,0,1.09,0.03,1.416,0.089c0.457,0.076,0.84,0.221,1.149,0.436
		c0.309,0.213,0.558,0.512,0.746,0.897c0.188,0.385,0.283,0.808,0.283,1.271c0,0.792-0.252,1.461-0.755,2.008
		c-0.503,0.549-1.414,0.822-2.729,0.822H49.01v3.783h-1.233V23.625z M49.009,18.744h2.406c0.795,0,1.36-0.146,1.695-0.443
		s0.501-0.713,0.501-1.25c0-0.389-0.098-0.723-0.295-1c-0.196-0.277-0.456-0.459-0.777-0.549c-0.208-0.055-0.59-0.083-1.149-0.083
		h-2.38L49.009,18.744L49.009,18.744z"/>
	<path fill="#FFFFFF" d="M56.291,23.625v-6.741h1.028v1.022c0.262-0.477,0.504-0.792,0.727-0.946
		c0.222-0.152,0.466-0.229,0.733-0.229c0.385,0,0.776,0.123,1.174,0.367l-0.394,1.061c-0.279-0.166-0.559-0.248-0.838-0.248
		c-0.25,0-0.474,0.074-0.673,0.227c-0.199,0.148-0.341,0.357-0.425,0.625c-0.127,0.404-0.19,0.85-0.19,1.332v3.529H56.291
		L56.291,23.625z"/>
	<path fill="#FFFFFF" d="M60.207,20.256c0-1.25,0.347-2.174,1.041-2.773c0.58-0.5,1.287-0.75,2.12-0.75
		c0.927,0,1.684,0.305,2.272,0.913c0.588,0.605,0.882,1.445,0.882,2.516c0,0.869-0.13,1.551-0.39,2.047
		c-0.261,0.498-0.639,0.885-1.137,1.16c-0.497,0.275-1.04,0.412-1.628,0.412c-0.944,0-1.707-0.303-2.288-0.908
		C60.498,22.266,60.207,21.395,60.207,20.256z M61.381,20.256c0,0.863,0.188,1.51,0.565,1.939c0.376,0.43,0.851,0.645,1.422,0.645
		c0.567,0,1.039-0.217,1.416-0.646c0.377-0.432,0.565-1.09,0.565-1.975c0-0.832-0.189-1.465-0.568-1.895
		c-0.378-0.43-0.849-0.645-1.412-0.645c-0.571,0-1.045,0.215-1.422,0.641C61.57,18.748,61.381,19.393,61.381,20.256z"/>
	<path fill="#FFFFFF" d="M67.812,26.223l-0.127-1.072c0.25,0.068,0.468,0.102,0.654,0.102c0.254,0,0.457-0.043,0.609-0.127
		c0.152-0.086,0.277-0.203,0.375-0.355c0.072-0.113,0.188-0.398,0.349-0.852c0.021-0.063,0.055-0.156,0.102-0.277l-2.558-6.754
		h1.231l1.403,3.903c0.182,0.496,0.345,1.018,0.489,1.563c0.131-0.525,0.288-1.037,0.47-1.535l1.441-3.93h1.143l-2.564,6.856
		c-0.275,0.74-0.489,1.25-0.641,1.529c-0.203,0.377-0.436,0.654-0.698,0.83c-0.262,0.174-0.576,0.262-0.939,0.262
		C68.327,26.361,68.083,26.316,67.812,26.223z"/>
	<path fill="#FFFFFF" d="M78.977,21.455l1.181,0.146c-0.186,0.689-0.531,1.225-1.035,1.605c-0.504,0.381-1.147,0.57-1.93,0.57
		c-0.986,0-1.768-0.303-2.346-0.91c-0.577-0.607-0.866-1.459-0.866-2.555c0-1.135,0.292-2.016,0.876-2.643
		c0.584-0.626,1.341-0.938,2.272-0.938c0.901,0,1.638,0.307,2.209,0.92c0.571,0.613,0.857,1.477,0.857,2.59
		c0,0.068-0.002,0.168-0.006,0.305h-5.027c0.042,0.74,0.252,1.309,0.628,1.701s0.846,0.59,1.409,0.59
		c0.419,0,0.776-0.109,1.073-0.33S78.803,21.938,78.977,21.455z M75.226,19.607h3.764c-0.051-0.566-0.195-0.992-0.432-1.275
		c-0.364-0.439-0.836-0.66-1.416-0.66c-0.525,0-0.966,0.176-1.323,0.527S75.263,19.02,75.226,19.607z"/>
	<path fill="#FFFFFF" d="M85.99,21.156l1.124,0.146c-0.123,0.773-0.437,1.381-0.943,1.818c-0.505,0.438-1.126,0.656-1.863,0.656
		c-0.922,0-1.664-0.301-2.225-0.904s-0.841-1.467-0.841-2.592c0-0.729,0.121-1.365,0.362-1.912c0.241-0.545,0.608-0.955,1.101-1.229
		c0.493-0.272,1.03-0.409,1.609-0.409c0.732,0,1.331,0.185,1.796,0.555c0.465,0.371,0.764,0.896,0.895,1.578l-1.111,0.17
		c-0.106-0.453-0.293-0.793-0.562-1.021s-0.593-0.344-0.974-0.344c-0.576,0-1.043,0.207-1.403,0.619
		c-0.36,0.412-0.54,1.066-0.54,1.959c0,0.906,0.173,1.563,0.521,1.975c0.348,0.41,0.8,0.615,1.358,0.615
		c0.449,0,0.823-0.139,1.124-0.412C85.719,22.15,85.91,21.729,85.99,21.156z"/>
	<path fill="#FFFFFF" d="M90.586,22.604l0.165,1.01c-0.322,0.068-0.609,0.102-0.863,0.102c-0.415,0-0.736-0.064-0.965-0.197
		c-0.229-0.131-0.389-0.305-0.482-0.518c-0.093-0.213-0.14-0.664-0.14-1.348v-3.879h-0.838v-0.889h0.838v-1.668l1.136-0.687v2.354
		h1.149v0.889h-1.149v3.943c0,0.324,0.02,0.533,0.06,0.627c0.041,0.094,0.106,0.168,0.197,0.223s0.221,0.082,0.39,0.082
		C90.212,22.648,90.379,22.635,90.586,22.604z"/>
	<path fill="#FFFFFF" d="M91.278,20.256c0-1.25,0.347-2.174,1.041-2.773c0.58-0.5,1.287-0.75,2.12-0.75
		c0.927,0,1.684,0.305,2.272,0.913c0.588,0.605,0.882,1.445,0.882,2.516c0,0.869-0.13,1.551-0.391,2.047
		c-0.26,0.498-0.639,0.885-1.136,1.16c-0.498,0.275-1.04,0.412-1.628,0.412c-0.944,0-1.707-0.303-2.289-0.908
		C91.569,22.266,91.278,21.395,91.278,20.256z M92.452,20.256c0,0.863,0.188,1.51,0.565,1.939c0.376,0.43,0.851,0.645,1.422,0.645
		c0.567,0,1.039-0.217,1.416-0.646c0.377-0.432,0.565-1.09,0.565-1.975c0-0.832-0.189-1.465-0.568-1.895
		c-0.379-0.43-0.85-0.645-1.413-0.645c-0.571,0-1.045,0.215-1.422,0.641C92.641,18.748,92.452,19.393,92.452,20.256z"/>
	<path fill="#FFFFFF" d="M102.818,23.625v-5.852h-1.009v-0.889h1.009v-0.717c0-0.453,0.04-0.789,0.121-1.009
		c0.11-0.296,0.304-0.536,0.581-0.722c0.277-0.184,0.665-0.275,1.164-0.275c0.322,0,0.677,0.038,1.066,0.114l-0.171,0.997
		c-0.237-0.043-0.461-0.063-0.673-0.063c-0.347,0-0.592,0.074-0.736,0.222c-0.144,0.148-0.216,0.426-0.216,0.832v0.623h1.314v0.889
		h-1.314v5.852h-1.136V23.625z"/>
	<path fill="#FFFFFF" d="M105.732,20.256c0-1.25,0.347-2.174,1.041-2.773c0.58-0.5,1.287-0.75,2.12-0.75
		c0.927,0,1.684,0.305,2.272,0.913c0.588,0.605,0.882,1.445,0.882,2.516c0,0.869-0.13,1.551-0.39,2.047
		c-0.261,0.498-0.639,0.885-1.137,1.16c-0.497,0.275-1.04,0.412-1.628,0.412c-0.944,0-1.707-0.303-2.288-0.908
		S105.732,21.395,105.732,20.256z M106.906,20.256c0,0.863,0.188,1.51,0.565,1.939c0.376,0.43,0.851,0.645,1.422,0.645
		c0.567,0,1.039-0.217,1.416-0.646c0.377-0.432,0.565-1.09,0.565-1.975c0-0.832-0.189-1.465-0.568-1.895
		c-0.378-0.43-0.849-0.645-1.412-0.645c-0.571,0-1.045,0.215-1.422,0.641C107.095,18.748,106.906,19.393,106.906,20.256z"/>
	<path fill="#FFFFFF" d="M113.375,23.625v-6.741h1.028v1.022c0.262-0.477,0.505-0.792,0.727-0.946
		c0.223-0.152,0.467-0.229,0.733-0.229c0.385,0,0.776,0.123,1.174,0.367l-0.394,1.061c-0.279-0.166-0.559-0.248-0.838-0.248
		c-0.25,0-0.474,0.074-0.673,0.227c-0.199,0.148-0.341,0.357-0.425,0.625c-0.127,0.404-0.19,0.85-0.19,1.332v3.529H113.375
		L113.375,23.625z"/>
	<path fill="#FFFFFF" d="M117.717,23.625v-6.741h1.021v0.946c0.211-0.33,0.493-0.596,0.844-0.795c0.352-0.201,0.752-0.303,1.2-0.303
		c0.5,0,0.909,0.104,1.228,0.312c0.32,0.208,0.545,0.498,0.677,0.871c0.532-0.787,1.228-1.182,2.082-1.182
		c0.668,0,1.183,0.186,1.542,0.557c0.359,0.369,0.54,0.939,0.54,1.709v4.627h-1.136v-4.246c0-0.457-0.037-0.785-0.111-0.986
		s-0.208-0.363-0.403-0.486c-0.194-0.123-0.423-0.184-0.687-0.184c-0.473,0-0.867,0.158-1.18,0.473
		c-0.313,0.316-0.471,0.82-0.471,1.514v3.918h-1.143v-4.381c0-0.508-0.094-0.889-0.279-1.143s-0.491-0.381-0.914-0.381
		c-0.322,0-0.619,0.084-0.893,0.254c-0.271,0.17-0.471,0.418-0.592,0.744c-0.123,0.324-0.185,0.795-0.185,1.408v3.498h-1.142V23.625
		z"/>
	<path fill="#FFFFFF" d="M132.944,22.795c-0.424,0.359-0.83,0.613-1.224,0.762c-0.391,0.148-0.811,0.223-1.258,0.223
		c-0.742,0-1.311-0.182-1.709-0.543c-0.397-0.361-0.597-0.824-0.597-1.387c0-0.33,0.075-0.633,0.226-0.904
		c0.149-0.273,0.347-0.492,0.59-0.658c0.244-0.164,0.518-0.289,0.822-0.375c0.225-0.059,0.563-0.115,1.017-0.17
		c0.922-0.111,1.603-0.242,2.036-0.395c0.006-0.156,0.008-0.256,0.008-0.297c0-0.467-0.107-0.795-0.323-0.984
		c-0.293-0.258-0.728-0.387-1.302-0.387c-0.538,0-0.934,0.094-1.189,0.281c-0.257,0.189-0.447,0.521-0.568,1l-1.117-0.15
		c0.102-0.479,0.27-0.865,0.501-1.16c0.233-0.293,0.569-0.521,1.009-0.678c0.439-0.16,0.95-0.238,1.53-0.238
		c0.575,0,1.043,0.068,1.401,0.203c0.36,0.135,0.625,0.305,0.795,0.51c0.168,0.207,0.287,0.465,0.354,0.779
		c0.038,0.193,0.058,0.545,0.058,1.053v1.523c0,1.061,0.023,1.732,0.072,2.014c0.049,0.283,0.145,0.551,0.289,0.811h-1.193
		C133.053,23.391,132.978,23.111,132.944,22.795z M132.848,20.242c-0.413,0.17-1.035,0.314-1.864,0.434
		c-0.47,0.066-0.802,0.143-0.997,0.229c-0.195,0.084-0.345,0.207-0.451,0.371c-0.105,0.164-0.158,0.344-0.158,0.543
		c0,0.305,0.114,0.559,0.346,0.762c0.229,0.203,0.568,0.305,1.012,0.305c0.439,0,0.832-0.096,1.174-0.289
		c0.344-0.193,0.596-0.455,0.756-0.791c0.123-0.258,0.184-0.639,0.184-1.143V20.242z"/>
	<path fill="#FFFFFF" d="M138.271,22.604l0.164,1.01c-0.321,0.068-0.609,0.102-0.863,0.102c-0.414,0-0.735-0.064-0.965-0.197
		c-0.229-0.131-0.39-0.305-0.481-0.518c-0.094-0.213-0.14-0.664-0.14-1.348v-3.879h-0.838v-0.889h0.838v-1.668l1.136-0.687v2.354
		h1.149v0.889h-1.149v3.943c0,0.324,0.021,0.533,0.061,0.627c0.041,0.094,0.105,0.168,0.197,0.223s0.221,0.082,0.391,0.082
		C137.896,22.648,138.063,22.635,138.271,22.604z"/>
	<path fill="#FFFFFF" d="M139.394,15.634v-1.313h1.143v1.313H139.394z M139.394,23.625v-6.741h1.143v6.741H139.394z"/>
	<path fill="#FFFFFF" d="M144.147,23.625l-2.563-6.741h1.207l1.446,4.038c0.156,0.436,0.3,0.889,0.433,1.357
		c0.102-0.354,0.241-0.783,0.424-1.281l1.498-4.114h1.176l-2.553,6.741H144.147z"/>
	<path fill="#FFFFFF" d="M148.351,20.256c0-1.25,0.347-2.174,1.041-2.773c0.579-0.5,1.286-0.75,2.118-0.75
		c0.929,0,1.686,0.305,2.273,0.913c0.588,0.605,0.883,1.445,0.883,2.516c0,0.869-0.131,1.551-0.391,2.047
		c-0.262,0.498-0.641,0.885-1.137,1.16c-0.498,0.275-1.041,0.412-1.629,0.412c-0.943,0-1.707-0.303-2.287-0.908
		C148.642,22.266,148.351,21.395,148.351,20.256z M149.524,20.256c0,0.863,0.188,1.51,0.563,1.939
		c0.377,0.43,0.853,0.645,1.422,0.645c0.567,0,1.039-0.217,1.416-0.646c0.377-0.432,0.564-1.09,0.564-1.975
		c0-0.832-0.189-1.465-0.568-1.895c-0.377-0.43-0.849-0.645-1.412-0.645c-0.569,0-1.045,0.215-1.422,0.641
		C149.713,18.746,149.524,19.393,149.524,20.256z"/>
	<g>
		<path fill="#FFFFFF" d="M30.736,24.209c-2.711,0-4.918-2.207-4.918-4.92c0-2.711,2.207-4.917,4.918-4.917s4.918,2.206,4.918,4.917
			C35.654,22.002,33.448,24.209,30.736,24.209z M30.736,15.372c-2.16,0-3.918,1.757-3.918,3.917c0,2.162,1.758,3.918,3.918,3.918
			s3.918-1.758,3.918-3.918S32.897,15.372,30.736,15.372z"/>
	</g>
</g>
</svg>
