<?xml version="1.0" encoding="utf-8"?>
<!-- Generator: Adobe Illustrator 16.0.0, SVG Export Plug-In . SVG Version: 6.00 Build 0)  -->
<!DOCTYPE svg PUBLIC "-//W3C//DTD SVG 1.1//EN" "http://www.w3.org/Graphics/SVG/1.1/DTD/svg11.dtd">
<svg version="1.1" id="Capa_1" xmlns="http://www.w3.org/2000/svg" xmlns:xlink="http://www.w3.org/1999/xlink" x="0px" y="0px"
	 width="233.32px" height="39.907px" viewBox="0 0 233.32 39.907" enable-background="new 0 0 233.32 39.907" xml:space="preserve">
<g opacity="0.5">
	<rect x="39.055" fill="#FFFFFF" width="181.751" height="1"/>
</g>
<g opacity="0.5">
	<rect x="39.055" y="38.907" fill="#FFFFFF" width="181.751" height="1"/>
</g>
<g>
	<path fill="#FFFFFF" d="M54.466,13.752l1.231,0.311c-0.258,1.012-0.723,1.783-1.394,2.314c-0.67,0.532-1.49,0.795-2.459,0.795
		c-1.003,0-1.819-0.203-2.447-0.613c-0.629-0.408-1.107-1-1.435-1.774c-0.328-0.773-0.492-1.605-0.492-2.494
		c0-0.969,0.185-1.814,0.556-2.536c0.37-0.722,0.897-1.271,1.58-1.645c0.684-0.375,1.436-0.562,2.257-0.562
		c0.931,0,1.714,0.236,2.349,0.711c0.635,0.474,1.077,1.141,1.327,2l-1.212,0.285c-0.216-0.676-0.529-1.17-0.939-1.479
		s-0.927-0.463-1.549-0.463c-0.715,0-1.313,0.171-1.793,0.514c-0.48,0.344-0.818,0.803-1.013,1.381s-0.292,1.174-0.292,1.787
		c0,0.793,0.115,1.482,0.346,2.073s0.589,1.031,1.076,1.323c0.487,0.292,1.014,0.438,1.581,0.438c0.69,0,1.274-0.199,1.752-0.597
		S54.297,14.535,54.466,13.752z"/>
	<path fill="#FFFFFF" d="M56.643,13.644c0-1.249,0.347-2.173,1.041-2.774c0.58-0.5,1.287-0.748,2.12-0.748
		c0.927,0,1.684,0.304,2.272,0.91c0.588,0.607,0.882,1.446,0.882,2.518c0,0.867-0.13,1.55-0.391,2.047
		c-0.26,0.498-0.639,0.883-1.136,1.159c-0.498,0.275-1.04,0.414-1.628,0.414c-0.944,0-1.707-0.303-2.289-0.909
		C56.934,15.654,56.643,14.781,56.643,13.644z M57.818,13.644c0,0.863,0.188,1.511,0.565,1.938c0.376,0.431,0.851,0.646,1.422,0.646
		c0.567,0,1.039-0.216,1.416-0.647c0.377-0.431,0.565-1.09,0.565-1.974c0-0.833-0.189-1.465-0.568-1.896
		c-0.379-0.428-0.85-0.644-1.413-0.644c-0.571,0-1.045,0.214-1.422,0.642C58.006,12.136,57.818,12.781,57.818,13.644z"/>
	<path fill="#FFFFFF" d="M64.299,17.014v-6.741h1.022v0.946c0.211-0.33,0.493-0.597,0.844-0.796c0.351-0.201,0.751-0.303,1.2-0.303
		c0.5,0,0.909,0.104,1.229,0.312c0.319,0.208,0.544,0.497,0.676,0.87c0.533-0.787,1.227-1.182,2.082-1.182
		c0.668,0,1.183,0.186,1.542,0.557c0.36,0.37,0.54,0.939,0.54,1.71v4.626h-1.137v-4.247c0-0.457-0.037-0.786-0.111-0.986
		c-0.074-0.201-0.208-0.363-0.403-0.486s-0.423-0.185-0.686-0.185c-0.474,0-0.868,0.158-1.181,0.474
		c-0.313,0.314-0.47,0.82-0.47,1.514v3.917h-1.143v-4.379c0-0.508-0.093-0.889-0.279-1.143c-0.186-0.254-0.491-0.382-0.914-0.382
		c-0.322,0-0.619,0.084-0.892,0.255c-0.273,0.168-0.471,0.416-0.594,0.742s-0.184,0.795-0.184,1.409v3.498H64.299z"/>
	<path fill="#FFFFFF" d="M75.127,19.598v-9.326h1.041v0.876c0.246-0.343,0.522-0.6,0.832-0.771c0.309-0.17,0.684-0.256,1.124-0.256
		c0.576,0,1.083,0.147,1.523,0.443c0.44,0.296,0.772,0.715,0.997,1.254c0.224,0.539,0.336,1.131,0.336,1.774
		c0,0.69-0.124,1.312-0.372,1.862c-0.247,0.554-0.607,0.977-1.079,1.27c-0.472,0.295-0.968,0.441-1.488,0.441
		c-0.381,0-0.723-0.08-1.025-0.24c-0.302-0.162-0.551-0.365-0.746-0.61v3.282H75.127L75.127,19.598z M76.162,13.682
		c0,0.868,0.176,1.509,0.527,1.923c0.351,0.414,0.776,0.622,1.276,0.622c0.508,0,0.942-0.215,1.305-0.645
		c0.361-0.43,0.542-1.096,0.542-1.996c0-0.859-0.177-1.502-0.53-1.93c-0.354-0.428-0.776-0.642-1.267-0.642
		c-0.487,0-0.917,0.228-1.292,0.683C76.35,12.152,76.162,12.813,76.162,13.682z"/>
	<path fill="#FFFFFF" d="M86.972,14.844l1.181,0.146c-0.186,0.689-0.531,1.225-1.035,1.606c-0.504,0.381-1.147,0.57-1.93,0.57
		c-0.986,0-1.768-0.303-2.346-0.911c-0.577-0.607-0.866-1.458-0.866-2.555c0-1.135,0.292-2.015,0.876-2.642s1.341-0.938,2.272-0.938
		c0.901,0,1.638,0.307,2.209,0.92c0.571,0.613,0.857,1.477,0.857,2.59c0,0.068-0.002,0.169-0.006,0.305h-5.027
		c0.042,0.741,0.252,1.309,0.628,1.701s0.846,0.59,1.409,0.59c0.419,0,0.776-0.109,1.073-0.33
		C86.563,15.677,86.799,15.326,86.972,14.844z M83.221,12.996h3.764c-0.051-0.567-0.195-0.992-0.432-1.276
		c-0.364-0.44-0.836-0.66-1.416-0.66c-0.525,0-0.966,0.176-1.323,0.526C83.457,11.938,83.259,12.408,83.221,12.996z"/>
	<path fill="#FFFFFF" d="M92.082,15.992l0.165,1.01c-0.322,0.066-0.609,0.102-0.863,0.102c-0.415,0-0.736-0.064-0.965-0.197
		c-0.229-0.133-0.389-0.305-0.482-0.517c-0.093-0.214-0.14-0.664-0.14-1.349v-3.879h-0.838v-0.889h0.838V8.604l1.136-0.687v2.355
		h1.149v0.889h-1.149v3.942c0,0.326,0.02,0.535,0.06,0.628c0.041,0.094,0.106,0.167,0.197,0.223c0.091,0.055,0.221,0.082,0.39,0.082
		C91.708,16.037,91.875,16.021,92.082,15.992z"/>
	<path fill="#FFFFFF" d="M97.813,14.844l1.181,0.146c-0.186,0.689-0.531,1.225-1.035,1.606c-0.504,0.381-1.147,0.57-1.93,0.57
		c-0.986,0-1.768-0.303-2.346-0.911c-0.577-0.607-0.866-1.458-0.866-2.555c0-1.135,0.292-2.015,0.876-2.642s1.341-0.938,2.272-0.938
		c0.901,0,1.638,0.307,2.209,0.92c0.571,0.613,0.857,1.477,0.857,2.59c0,0.068-0.002,0.169-0.006,0.305h-5.027
		c0.042,0.741,0.252,1.309,0.628,1.701s0.846,0.59,1.409,0.59c0.419,0,0.776-0.109,1.073-0.33
		C97.406,15.677,97.641,15.326,97.813,14.844z M94.063,12.996h3.764c-0.051-0.567-0.195-0.992-0.432-1.276
		c-0.364-0.44-0.836-0.66-1.416-0.66c-0.525,0-0.966,0.176-1.323,0.526C94.299,11.938,94.101,12.408,94.063,12.996z"/>
	<path fill="#FFFFFF" d="M100.43,17.014v-6.741h1.028v0.958c0.495-0.741,1.21-1.11,2.146-1.11c0.406,0,0.78,0.072,1.121,0.219
		c0.34,0.146,0.595,0.338,0.765,0.574c0.17,0.237,0.288,0.52,0.355,0.845c0.042,0.211,0.063,0.582,0.063,1.11v4.145h-1.143v-4.1
		c0-0.465-0.044-0.813-0.133-1.045c-0.089-0.23-0.247-0.414-0.473-0.553c-0.226-0.137-0.492-0.206-0.796-0.206
		c-0.487,0-0.907,0.154-1.26,0.464c-0.353,0.309-0.53,0.895-0.53,1.758v3.682H100.43L100.43,17.014z"/>
	<path fill="#FFFFFF" d="M112.058,14.545l1.124,0.146c-0.123,0.774-0.437,1.382-0.942,1.818c-0.506,0.439-1.127,0.658-1.863,0.658
		c-0.922,0-1.664-0.303-2.225-0.905c-0.561-0.604-0.841-1.469-0.841-2.594c0-0.728,0.121-1.364,0.362-1.91
		c0.241-0.547,0.608-0.955,1.102-1.229c0.493-0.272,1.029-0.41,1.609-0.41c0.732,0,1.331,0.186,1.796,0.557
		c0.465,0.369,0.764,0.896,0.895,1.576l-1.111,0.172c-0.106-0.453-0.293-0.793-0.562-1.022c-0.269-0.229-0.594-0.343-0.975-0.343
		c-0.576,0-1.043,0.206-1.403,0.619c-0.36,0.412-0.54,1.064-0.54,1.958c0,0.905,0.173,1.563,0.521,1.974
		c0.348,0.411,0.8,0.616,1.358,0.616c0.449,0,0.823-0.138,1.124-0.413C111.788,15.537,111.978,15.117,112.058,14.545z"/>
	<path fill="#FFFFFF" d="M114.166,9.022V7.709h1.143v1.313H114.166z M114.166,17.014v-6.741h1.143v6.741H114.166z"/>
	<path fill="#FFFFFF" d="M121.447,16.183c-0.423,0.361-0.831,0.615-1.223,0.761c-0.392,0.148-0.812,0.223-1.26,0.223
		c-0.74,0-1.31-0.182-1.707-0.543c-0.398-0.361-0.598-0.824-0.598-1.387c0-0.33,0.075-0.632,0.226-0.904
		c0.15-0.272,0.347-0.491,0.59-0.656c0.244-0.165,0.518-0.29,0.822-0.375c0.223-0.059,0.563-0.116,1.016-0.171
		c0.922-0.11,1.602-0.241,2.037-0.395c0.004-0.157,0.007-0.256,0.007-0.298c0-0.465-0.108-0.793-0.324-0.984
		c-0.292-0.258-0.726-0.387-1.301-0.387c-0.538,0-0.935,0.094-1.19,0.283c-0.256,0.188-0.445,0.521-0.568,1l-1.116-0.152
		c0.102-0.478,0.269-0.863,0.501-1.158s0.568-0.521,1.009-0.68s0.95-0.238,1.53-0.238c0.576,0,1.043,0.068,1.402,0.203
		c0.36,0.135,0.625,0.307,0.793,0.512c0.17,0.205,0.289,0.465,0.355,0.777c0.038,0.195,0.057,0.547,0.057,1.055v1.522
		c0,1.062,0.024,1.734,0.073,2.015c0.049,0.284,0.146,0.551,0.289,0.811h-1.192C121.556,16.778,121.48,16.5,121.447,16.183z
		 M121.351,13.631c-0.416,0.169-1.037,0.313-1.866,0.432c-0.47,0.068-0.802,0.145-0.997,0.229c-0.195,0.086-0.346,0.209-0.451,0.373
		c-0.105,0.162-0.158,0.344-0.158,0.541c0,0.306,0.114,0.56,0.346,0.763c0.23,0.202,0.567,0.305,1.013,0.305
		c0.44,0,0.832-0.096,1.174-0.289c0.343-0.192,0.595-0.456,0.755-0.791c0.123-0.258,0.184-0.639,0.184-1.143v-0.419H121.351z"/>
	<path fill="#FFFFFF" d="M123.821,15.002l1.13-0.178c0.063,0.452,0.24,0.799,0.53,1.041c0.29,0.24,0.694,0.361,1.215,0.361
		c0.524,0,0.914-0.107,1.168-0.32c0.254-0.214,0.381-0.465,0.381-0.752c0-0.258-0.112-0.461-0.336-0.609
		c-0.157-0.102-0.546-0.229-1.168-0.387c-0.838-0.211-1.419-0.395-1.742-0.549s-0.569-0.367-0.735-0.642
		c-0.168-0.272-0.252-0.574-0.252-0.904c0-0.3,0.069-0.579,0.207-0.835s0.324-0.468,0.562-0.638c0.178-0.132,0.42-0.242,0.728-0.333
		c0.307-0.092,0.635-0.137,0.986-0.137c0.529,0,0.994,0.076,1.393,0.229c0.4,0.152,0.695,0.357,0.887,0.619
		c0.189,0.26,0.322,0.607,0.394,1.044l-1.116,0.151c-0.052-0.347-0.199-0.617-0.441-0.813c-0.243-0.195-0.588-0.292-1.031-0.292
		c-0.525,0-0.898,0.087-1.124,0.261c-0.226,0.172-0.336,0.375-0.336,0.608c0,0.147,0.046,0.28,0.14,0.399
		c0.094,0.123,0.239,0.225,0.438,0.306c0.114,0.042,0.45,0.14,1.009,0.292c0.809,0.216,1.372,0.393,1.691,0.529
		c0.32,0.138,0.57,0.338,0.752,0.601s0.273,0.588,0.273,0.978c0,0.381-0.111,0.739-0.334,1.076c-0.223,0.336-0.543,0.598-0.962,0.78
		c-0.419,0.186-0.893,0.277-1.422,0.277c-0.876,0-1.543-0.184-2.003-0.547C124.241,16.257,123.948,15.718,123.821,15.002z"/>
	<path fill="#FFFFFF" d="M134.339,19.61l-0.127-1.072c0.25,0.068,0.467,0.102,0.653,0.102c0.254,0,0.457-0.041,0.608-0.127
		c0.152-0.084,0.277-0.203,0.375-0.354c0.07-0.115,0.188-0.398,0.349-0.852c0.021-0.063,0.056-0.158,0.103-0.279l-2.559-6.754h1.23
		l1.402,3.904c0.184,0.495,0.346,1.016,0.489,1.563c0.132-0.525,0.288-1.037,0.47-1.537l1.441-3.929h1.143l-2.564,6.855
		c-0.274,0.742-0.488,1.25-0.641,1.531c-0.203,0.375-0.438,0.652-0.699,0.828s-0.576,0.264-0.938,0.264
		C134.853,19.75,134.61,19.704,134.339,19.61z"/>
	<path fill="#FFFFFF" d="M144.489,17.014v-6.741h1.026v1.021c0.264-0.478,0.506-0.793,0.728-0.945
		c0.224-0.152,0.467-0.229,0.733-0.229c0.386,0,0.775,0.123,1.175,0.367l-0.394,1.061c-0.279-0.165-0.56-0.248-0.839-0.248
		c-0.249,0-0.474,0.074-0.673,0.226c-0.199,0.15-0.341,0.358-0.426,0.625c-0.127,0.406-0.189,0.851-0.189,1.333v3.53H144.489
		L144.489,17.014z"/>
	<path fill="#FFFFFF" d="M153.445,14.844l1.181,0.146c-0.186,0.689-0.53,1.225-1.034,1.606c-0.504,0.381-1.146,0.57-1.931,0.57
		c-0.985,0-1.769-0.303-2.346-0.911c-0.576-0.607-0.865-1.458-0.865-2.555c0-1.135,0.291-2.015,0.875-2.642s1.342-0.938,2.272-0.938
		c0.9,0,1.638,0.307,2.209,0.92c0.57,0.613,0.856,1.477,0.856,2.59c0,0.068-0.002,0.169-0.007,0.305h-5.027
		c0.043,0.741,0.252,1.309,0.629,1.701s0.846,0.59,1.409,0.59c0.419,0,0.776-0.109,1.073-0.33
		C153.037,15.677,153.271,15.326,153.445,14.844z M149.694,12.996h3.764c-0.051-0.567-0.194-0.992-0.432-1.276
		c-0.363-0.44-0.836-0.66-1.416-0.66c-0.524,0-0.966,0.176-1.322,0.526C149.929,11.938,149.731,12.408,149.694,12.996z"/>
	<path fill="#FFFFFF" d="M155.603,15.002l1.13-0.178c0.063,0.452,0.239,0.799,0.528,1.041c0.291,0.24,0.695,0.361,1.217,0.361
		c0.524,0,0.914-0.107,1.168-0.32c0.255-0.214,0.382-0.465,0.382-0.752c0-0.258-0.113-0.461-0.337-0.609
		c-0.157-0.102-0.547-0.229-1.168-0.387c-0.838-0.211-1.42-0.395-1.743-0.549c-0.322-0.154-0.567-0.367-0.736-0.642
		c-0.166-0.272-0.25-0.574-0.25-0.904c0-0.3,0.068-0.579,0.207-0.835c0.138-0.256,0.324-0.468,0.562-0.638
		c0.178-0.132,0.42-0.242,0.727-0.333c0.309-0.092,0.637-0.137,0.988-0.137c0.527,0,0.992,0.076,1.393,0.229
		c0.401,0.152,0.695,0.357,0.887,0.619c0.189,0.26,0.32,0.607,0.394,1.044l-1.117,0.151c-0.051-0.347-0.196-0.617-0.44-0.813
		c-0.243-0.195-0.588-0.292-1.031-0.292c-0.525,0-0.898,0.087-1.123,0.261c-0.225,0.172-0.337,0.375-0.337,0.608
		c0,0.147,0.046,0.28,0.14,0.399c0.094,0.123,0.239,0.225,0.438,0.306c0.115,0.042,0.451,0.14,1.011,0.292
		c0.81,0.216,1.372,0.393,1.69,0.529c0.32,0.138,0.57,0.338,0.752,0.601c0.184,0.262,0.273,0.588,0.273,0.978
		c0,0.381-0.111,0.739-0.334,1.076c-0.221,0.336-0.542,0.598-0.961,0.78c-0.419,0.186-0.893,0.277-1.422,0.277
		c-0.876,0-1.543-0.184-2.002-0.547C156.023,16.257,155.73,15.718,155.603,15.002z"/>
	<path fill="#FFFFFF" d="M166.978,17.014v-0.99c-0.524,0.763-1.237,1.144-2.141,1.144c-0.396,0-0.769-0.076-1.113-0.23
		c-0.346-0.15-0.602-0.344-0.768-0.573c-0.168-0.231-0.285-0.514-0.354-0.849c-0.047-0.224-0.069-0.58-0.069-1.065v-4.178h1.144
		v3.739c0,0.597,0.022,0.999,0.068,1.206c0.072,0.3,0.225,0.537,0.457,0.708c0.232,0.172,0.521,0.257,0.863,0.257
		c0.344,0,0.664-0.088,0.965-0.264s0.514-0.414,0.639-0.717s0.188-0.742,0.188-1.317v-3.612H168v6.741H166.978z"/>
	<path fill="#FFFFFF" d="M169.763,17.014V7.709h1.144v9.305H169.763z"/>
	<path fill="#FFFFFF" d="M175.173,15.992l0.166,1.01c-0.322,0.066-0.609,0.102-0.863,0.102c-0.416,0-0.736-0.064-0.965-0.197
		c-0.229-0.133-0.391-0.305-0.482-0.517c-0.094-0.214-0.141-0.664-0.141-1.349v-3.879h-0.838v-0.889h0.838V8.604l1.137-0.687v2.355
		h1.148v0.889h-1.148v3.942c0,0.326,0.02,0.535,0.061,0.628c0.04,0.094,0.105,0.167,0.197,0.223c0.09,0.055,0.221,0.082,0.391,0.082
		C174.798,16.037,174.966,16.021,175.173,15.992z"/>
	<path fill="#FFFFFF" d="M180.689,16.183c-0.424,0.361-0.831,0.615-1.223,0.761c-0.392,0.148-0.812,0.223-1.26,0.223
		c-0.74,0-1.311-0.182-1.708-0.543c-0.397-0.361-0.597-0.824-0.597-1.387c0-0.33,0.074-0.632,0.225-0.904s0.348-0.491,0.592-0.656
		c0.242-0.165,0.518-0.29,0.821-0.375c0.224-0.059,0.563-0.116,1.017-0.171c0.922-0.11,1.602-0.241,2.037-0.395
		c0.004-0.157,0.006-0.256,0.006-0.298c0-0.465-0.106-0.793-0.323-0.984c-0.291-0.258-0.726-0.387-1.302-0.387
		c-0.537,0-0.934,0.094-1.188,0.283c-0.257,0.188-0.446,0.521-0.567,1l-1.117-0.152c0.102-0.478,0.268-0.863,0.5-1.158
		c0.233-0.295,0.57-0.521,1.01-0.68s0.951-0.238,1.529-0.238c0.576,0,1.043,0.068,1.404,0.203c0.358,0.135,0.622,0.307,0.793,0.512
		c0.17,0.205,0.286,0.465,0.354,0.777c0.038,0.195,0.057,0.547,0.057,1.055v1.522c0,1.062,0.025,1.734,0.074,2.015
		c0.048,0.284,0.146,0.551,0.288,0.811h-1.193C180.8,16.778,180.722,16.5,180.689,16.183z M180.595,13.631
		c-0.416,0.169-1.037,0.313-1.867,0.432c-0.469,0.068-0.801,0.145-0.996,0.229c-0.195,0.086-0.346,0.209-0.451,0.373
		c-0.105,0.162-0.158,0.344-0.158,0.541c0,0.306,0.115,0.56,0.346,0.763c0.231,0.202,0.568,0.305,1.014,0.305
		c0.439,0,0.83-0.096,1.175-0.289c0.342-0.192,0.594-0.456,0.755-0.791c0.122-0.258,0.186-0.639,0.186-1.143v-0.419H180.595z"/>
	<path fill="#FFFFFF" d="M187.892,17.014v-0.85c-0.426,0.668-1.055,1.002-1.885,1.002c-0.537,0-1.031-0.148-1.481-0.443
		c-0.451-0.297-0.8-0.71-1.048-1.242c-0.247-0.53-0.37-1.141-0.37-1.831c0-0.673,0.11-1.283,0.336-1.831
		c0.225-0.548,0.562-0.968,1.01-1.26s0.949-0.438,1.504-0.438c0.406,0,0.769,0.086,1.086,0.258c0.316,0.172,0.575,0.395,0.773,0.67
		v-3.34h1.137v9.307h-1.062V17.014z M184.282,13.649c0,0.863,0.183,1.509,0.546,1.937c0.364,0.427,0.794,0.641,1.288,0.641
		c0.5,0,0.924-0.204,1.272-0.611c0.351-0.41,0.523-1.033,0.523-1.871c0-0.922-0.178-1.6-0.533-2.03
		c-0.354-0.431-0.793-0.647-1.313-0.647c-0.509,0-0.933,0.208-1.271,0.622C184.452,12.103,184.282,12.757,184.282,13.649z"/>
	<path fill="#FFFFFF" d="M190.325,13.644c0-1.249,0.349-2.173,1.041-2.774c0.58-0.5,1.287-0.748,2.12-0.748
		c0.927,0,1.686,0.304,2.271,0.91c0.588,0.607,0.883,1.446,0.883,2.518c0,0.867-0.131,1.55-0.391,2.047
		c-0.26,0.498-0.639,0.883-1.137,1.159c-0.497,0.275-1.039,0.414-1.628,0.414c-0.944,0-1.706-0.303-2.288-0.909
		C190.615,15.654,190.325,14.781,190.325,13.644z M191.499,13.644c0,0.863,0.188,1.511,0.565,1.938
		c0.376,0.431,0.851,0.646,1.422,0.646c0.566,0,1.039-0.216,1.415-0.647c0.377-0.432,0.565-1.09,0.565-1.974
		c0-0.833-0.189-1.465-0.567-1.896c-0.38-0.428-0.851-0.644-1.413-0.644c-0.571,0-1.046,0.214-1.422,0.642
		C191.687,12.136,191.499,12.781,191.499,13.644z"/>
	<path fill="#FFFFFF" d="M197.523,15.002l1.13-0.178c0.063,0.452,0.239,0.799,0.528,1.041c0.291,0.24,0.695,0.361,1.218,0.361
		c0.524,0,0.913-0.107,1.168-0.32c0.254-0.214,0.381-0.465,0.381-0.752c0-0.258-0.113-0.461-0.337-0.609
		c-0.157-0.102-0.546-0.229-1.168-0.387c-0.838-0.211-1.419-0.395-1.743-0.549c-0.322-0.154-0.567-0.367-0.735-0.642
		c-0.166-0.272-0.25-0.574-0.25-0.904c0-0.3,0.067-0.579,0.207-0.835c0.137-0.256,0.323-0.468,0.561-0.638
		c0.178-0.132,0.42-0.242,0.727-0.333c0.309-0.092,0.637-0.137,0.988-0.137c0.527,0,0.992,0.076,1.393,0.229
		c0.401,0.152,0.695,0.357,0.887,0.619c0.189,0.26,0.32,0.607,0.394,1.044l-1.116,0.151c-0.052-0.347-0.197-0.617-0.441-0.813
		c-0.243-0.195-0.588-0.292-1.031-0.292c-0.525,0-0.898,0.087-1.123,0.261c-0.225,0.172-0.337,0.375-0.337,0.608
		c0,0.147,0.046,0.28,0.14,0.399c0.094,0.123,0.239,0.225,0.438,0.306c0.114,0.042,0.45,0.14,1.01,0.292
		c0.81,0.216,1.372,0.393,1.69,0.529c0.32,0.138,0.57,0.338,0.752,0.601c0.184,0.262,0.273,0.588,0.273,0.978
		c0,0.381-0.111,0.739-0.334,1.076c-0.221,0.336-0.542,0.598-0.961,0.78c-0.419,0.186-0.893,0.277-1.422,0.277
		c-0.876,0-1.543-0.184-2.002-0.547C197.943,16.257,197.65,15.718,197.523,15.002z"/>
	<path fill="#FFFFFF" d="M212.466,17.014v-0.85c-0.429,0.668-1.057,1.002-1.886,1.002c-0.538,0-1.03-0.148-1.481-0.443
		c-0.451-0.297-0.801-0.71-1.047-1.242c-0.248-0.53-0.373-1.141-0.373-1.831c0-0.673,0.112-1.283,0.338-1.831
		c0.224-0.548,0.561-0.968,1.009-1.26s0.95-0.438,1.505-0.438c0.406,0,0.768,0.086,1.085,0.258s0.575,0.395,0.774,0.67v-3.34h1.137
		v9.307h-1.061V17.014z M208.853,13.649c0,0.863,0.183,1.509,0.546,1.937c0.364,0.427,0.794,0.641,1.288,0.641
		c0.5,0,0.925-0.204,1.273-0.611c0.348-0.41,0.523-1.033,0.523-1.871c0-0.922-0.178-1.6-0.533-2.03s-0.794-0.647-1.314-0.647
		c-0.508,0-0.932,0.208-1.272,0.622C209.024,12.103,208.853,12.757,208.853,13.649z"/>
	<path fill="#FFFFFF" d="M219.935,14.844l1.183,0.146c-0.187,0.689-0.53,1.225-1.035,1.606c-0.504,0.381-1.146,0.57-1.93,0.57
		c-0.986,0-1.769-0.303-2.347-0.911c-0.578-0.607-0.865-1.458-0.865-2.555c0-1.135,0.292-2.015,0.876-2.642s1.342-0.938,2.272-0.938
		c0.9,0,1.637,0.307,2.209,0.92c0.57,0.613,0.855,1.477,0.855,2.59c0,0.068-0.002,0.169-0.006,0.305h-5.027
		c0.043,0.741,0.252,1.309,0.629,1.701c0.376,0.395,0.846,0.59,1.408,0.59c0.42,0,0.777-0.109,1.073-0.33
		C219.527,15.677,219.763,15.326,219.935,14.844z M216.185,12.996h3.765c-0.051-0.567-0.194-0.992-0.433-1.276
		c-0.363-0.44-0.836-0.66-1.416-0.66c-0.524,0-0.965,0.176-1.323,0.526C216.421,11.938,216.222,12.408,216.185,12.996z"/>
	<path fill="#FFFFFF" d="M52.079,31.784c-0.423,0.359-0.831,0.613-1.222,0.762c-0.392,0.146-0.812,0.221-1.26,0.221
		c-0.741,0-1.31-0.18-1.708-0.541s-0.597-0.824-0.597-1.387c0-0.33,0.075-0.631,0.226-0.906c0.15-0.271,0.347-0.492,0.59-0.656
		c0.244-0.166,0.518-0.291,0.822-0.375c0.224-0.059,0.563-0.115,1.016-0.172c0.922-0.109,1.602-0.24,2.038-0.393
		c0.004-0.158,0.006-0.256,0.006-0.299c0-0.465-0.108-0.793-0.324-0.984c-0.292-0.258-0.726-0.387-1.301-0.387
		c-0.538,0-0.934,0.094-1.19,0.283c-0.256,0.188-0.445,0.521-0.568,1l-1.117-0.152c0.102-0.479,0.269-0.865,0.501-1.158
		c0.233-0.295,0.569-0.521,1.009-0.68c0.44-0.158,0.95-0.238,1.53-0.238c0.576,0,1.043,0.068,1.403,0.203s0.624,0.305,0.793,0.51
		s0.288,0.465,0.355,0.777c0.038,0.195,0.057,0.547,0.057,1.055v1.523c0,1.061,0.024,1.732,0.073,2.016
		c0.049,0.281,0.146,0.551,0.289,0.809h-1.193C52.188,32.377,52.113,32.1,52.079,31.784z M51.984,29.231
		c-0.415,0.168-1.037,0.313-1.866,0.432c-0.47,0.068-0.802,0.145-0.997,0.229c-0.195,0.086-0.345,0.209-0.451,0.371
		c-0.106,0.164-0.159,0.344-0.159,0.543c0,0.305,0.115,0.561,0.346,0.762c0.231,0.203,0.568,0.307,1.013,0.307
		c0.44,0,0.832-0.098,1.174-0.289c0.343-0.193,0.595-0.457,0.755-0.791c0.123-0.258,0.184-0.639,0.184-1.143L51.984,29.231
		L51.984,29.231z"/>
	<path fill="#FFFFFF" d="M54.91,35.198v-9.324h1.041v0.875c0.246-0.342,0.522-0.6,0.832-0.771c0.309-0.172,0.684-0.256,1.124-0.256
		c0.576,0,1.083,0.148,1.523,0.443c0.44,0.297,0.772,0.715,0.997,1.254c0.224,0.539,0.336,1.131,0.336,1.773
		c0,0.689-0.124,1.311-0.371,1.863c-0.248,0.551-0.607,0.975-1.079,1.27c-0.472,0.295-0.968,0.441-1.489,0.441
		c-0.381,0-0.723-0.082-1.025-0.242c-0.303-0.16-0.551-0.363-0.746-0.607v3.281H54.91z M55.945,29.282
		c0,0.867,0.176,1.51,0.527,1.924s0.776,0.621,1.276,0.621c0.508,0,0.943-0.215,1.304-0.645c0.362-0.43,0.543-1.094,0.543-1.996
		c0-0.859-0.177-1.502-0.53-1.93c-0.353-0.428-0.775-0.641-1.266-0.641c-0.487,0-0.917,0.227-1.292,0.682
		S55.945,28.415,55.945,29.282z"/>
	<path fill="#FFFFFF" d="M62.127,32.616v-6.742h1.028v1.021c0.262-0.477,0.504-0.793,0.727-0.945
		c0.222-0.152,0.466-0.229,0.733-0.229c0.385,0,0.776,0.123,1.174,0.367l-0.394,1.061c-0.279-0.166-0.559-0.248-0.838-0.248
		c-0.25,0-0.474,0.074-0.673,0.225c-0.199,0.15-0.341,0.359-0.425,0.625c-0.127,0.406-0.19,0.852-0.19,1.334v3.529h-1.142V32.616z"
		/>
	<path fill="#FFFFFF" d="M71.083,30.444l1.181,0.146c-0.186,0.689-0.531,1.225-1.035,1.605c-0.504,0.381-1.147,0.57-1.93,0.57
		c-0.986,0-1.768-0.303-2.345-0.91c-0.578-0.607-0.867-1.459-0.867-2.555c0-1.135,0.292-2.014,0.876-2.641s1.341-0.939,2.272-0.939
		c0.901,0,1.638,0.307,2.209,0.92c0.571,0.613,0.857,1.477,0.857,2.59c0,0.068-0.002,0.168-0.006,0.305h-5.027
		c0.042,0.74,0.252,1.309,0.628,1.701c0.376,0.393,0.846,0.59,1.409,0.59c0.419,0,0.776-0.109,1.073-0.33
		C70.676,31.276,70.911,30.926,71.083,30.444z M67.333,28.596h3.764c-0.051-0.566-0.195-0.992-0.432-1.275
		c-0.364-0.439-0.836-0.66-1.416-0.66c-0.525,0-0.966,0.176-1.324,0.527C67.569,27.538,67.371,28.008,67.333,28.596z"/>
	<path fill="#FFFFFF" d="M73.7,32.616v-6.742h1.028v0.959c0.495-0.742,1.21-1.111,2.146-1.111c0.406,0,0.78,0.072,1.12,0.219
		c0.341,0.146,0.596,0.336,0.765,0.574c0.169,0.236,0.288,0.52,0.355,0.844c0.042,0.211,0.063,0.582,0.063,1.111v4.145h-1.143
		v-4.102c0-0.465-0.044-0.813-0.133-1.043c-0.089-0.23-0.247-0.416-0.473-0.553c-0.227-0.137-0.492-0.207-0.797-0.207
		c-0.487,0-0.907,0.154-1.26,0.463c-0.354,0.309-0.53,0.895-0.53,1.758v3.684H73.7V32.616z"/>
	<path fill="#FFFFFF" d="M85.303,32.616v-0.852c-0.427,0.668-1.056,1.002-1.885,1.002c-0.538,0-1.032-0.146-1.482-0.443
		c-0.451-0.297-0.8-0.709-1.048-1.24c-0.247-0.531-0.371-1.143-0.371-1.832c0-0.674,0.112-1.283,0.336-1.832
		c0.224-0.549,0.561-0.969,1.009-1.26c0.448-0.293,0.95-0.439,1.504-0.439c0.406,0,0.768,0.086,1.085,0.258
		c0.317,0.17,0.576,0.395,0.774,0.668v-3.338h1.136v9.307h-1.058V32.616z M81.691,29.25c0,0.863,0.182,1.508,0.546,1.936
		c0.364,0.428,0.793,0.641,1.289,0.641c0.5,0,0.924-0.203,1.272-0.613c0.35-0.408,0.524-1.031,0.524-1.869
		c0-0.922-0.178-1.6-0.533-2.031c-0.355-0.43-0.793-0.646-1.314-0.646c-0.508,0-0.932,0.209-1.272,0.623
		C81.862,27.704,81.691,28.356,81.691,29.25z"/>
	<path fill="#FFFFFF" d="M88.166,24.624v-1.314h1.143v1.314H88.166z M88.166,32.616v-6.742h1.143v6.742H88.166z"/>
	<path fill="#FFFFFF" d="M90.445,32.616v-0.928l4.291-4.926c-0.487,0.025-0.916,0.037-1.289,0.037h-2.749v-0.926h5.51v0.754
		l-3.65,4.279l-0.705,0.779c0.512-0.037,0.992-0.057,1.441-0.057h3.117v0.984h-5.966V32.616z"/>
	<path fill="#FFFFFF" d="M101.947,31.784c-0.423,0.359-0.831,0.613-1.222,0.762c-0.392,0.146-0.812,0.221-1.26,0.221
		c-0.741,0-1.31-0.18-1.708-0.541s-0.597-0.824-0.597-1.387c0-0.33,0.075-0.631,0.226-0.906c0.15-0.271,0.347-0.492,0.59-0.656
		c0.244-0.166,0.518-0.291,0.822-0.375c0.224-0.059,0.563-0.115,1.016-0.172c0.922-0.109,1.602-0.24,2.038-0.393
		c0.004-0.158,0.006-0.256,0.006-0.299c0-0.465-0.108-0.793-0.324-0.984c-0.292-0.258-0.726-0.387-1.301-0.387
		c-0.538,0-0.934,0.094-1.19,0.283c-0.256,0.188-0.445,0.521-0.568,1l-1.117-0.152c0.102-0.479,0.269-0.865,0.501-1.158
		c0.233-0.295,0.569-0.521,1.009-0.68s0.95-0.238,1.53-0.238c0.576,0,1.043,0.068,1.403,0.203s0.624,0.305,0.793,0.51
		s0.288,0.465,0.355,0.777c0.038,0.195,0.057,0.547,0.057,1.055v1.523c0,1.061,0.024,1.732,0.073,2.016
		c0.049,0.281,0.145,0.551,0.289,0.809h-1.193C102.056,32.377,101.979,32.1,101.947,31.784z M101.851,29.231
		c-0.415,0.168-1.037,0.313-1.866,0.432c-0.47,0.068-0.802,0.145-0.997,0.229c-0.195,0.086-0.345,0.209-0.451,0.371
		c-0.106,0.164-0.159,0.344-0.159,0.543c0,0.305,0.115,0.561,0.346,0.762c0.231,0.203,0.568,0.307,1.013,0.307
		c0.44,0,0.832-0.098,1.174-0.289c0.343-0.193,0.595-0.457,0.755-0.791c0.123-0.258,0.184-0.639,0.184-1.143L101.851,29.231
		L101.851,29.231z"/>
	<path fill="#FFFFFF" d="M103.324,35.229l0.216-0.971c0.229,0.059,0.408,0.09,0.54,0.09c0.233,0,0.406-0.078,0.521-0.23
		c0.114-0.156,0.171-0.541,0.171-1.16v-7.084h1.143v7.109c0,0.83-0.108,1.406-0.324,1.732c-0.276,0.424-0.733,0.635-1.372,0.635
		C103.91,35.35,103.612,35.309,103.324,35.229z M104.771,24.635v-1.326h1.143v1.326H104.771z"/>
	<path fill="#FFFFFF" d="M112.281,30.444l1.181,0.146c-0.186,0.689-0.531,1.225-1.035,1.605s-1.147,0.57-1.93,0.57
		c-0.986,0-1.768-0.303-2.345-0.91c-0.578-0.607-0.867-1.459-0.867-2.555c0-1.135,0.292-2.014,0.876-2.641s1.341-0.939,2.272-0.939
		c0.901,0,1.638,0.307,2.209,0.92c0.571,0.613,0.857,1.477,0.857,2.59c0,0.068-0.002,0.168-0.006,0.305h-5.027
		c0.042,0.74,0.252,1.309,0.628,1.701s0.846,0.59,1.409,0.59c0.419,0,0.776-0.109,1.073-0.33S112.107,30.926,112.281,30.444z
		 M108.529,28.596h3.764c-0.051-0.566-0.195-0.992-0.432-1.275c-0.364-0.439-0.836-0.66-1.416-0.66
		c-0.525,0-0.966,0.176-1.324,0.527C108.765,27.538,108.567,28.008,108.529,28.596z"/>
	<g>
		<path fill="#FFFFFF" d="M30.785,22.741c-2.711,0-4.918-2.207-4.918-4.92c0-2.712,2.207-4.918,4.918-4.918s4.918,2.206,4.918,4.918
			C35.703,20.534,33.497,22.741,30.785,22.741z M30.785,13.902c-2.16,0-3.918,1.758-3.918,3.918c0,2.16,1.758,3.918,3.918,3.918
			s3.918-1.758,3.918-3.918C34.703,15.66,32.946,13.902,30.785,13.902z"/>
	</g>
</g>
</svg>
