<?xml version="1.0" encoding="utf-8"?>
<!-- Generator: Adobe Illustrator 16.0.0, SVG Export Plug-In . SVG Version: 6.00 Build 0)  -->
<!DOCTYPE svg PUBLIC "-//W3C//DTD SVG 1.1//EN" "http://www.w3.org/Graphics/SVG/1.1/DTD/svg11.dtd">
<svg version="1.1" id="Capa_1" xmlns="http://www.w3.org/2000/svg" xmlns:xlink="http://www.w3.org/1999/xlink" x="0px" y="0px"
	 width="233.319px" height="41.17px" viewBox="0 0 233.319 41.17" enable-background="new 0 0 233.319 41.17" xml:space="preserve">
<g opacity="0.5">
	<rect x="39.006" fill="#FFFFFF" width="181.752" height="1"/>
</g>
<g opacity="0.5">
	<rect x="39.006" y="40.171" fill="#FFFFFF" width="181.752" height="1"/>
</g>
<g>
	<path fill="#FFFFFF" d="M54.417,15.646l1.231,0.312c-0.258,1.01-0.723,1.782-1.394,2.313c-0.67,0.53-1.49,0.796-2.459,0.796
		c-1.003,0-1.819-0.204-2.447-0.613c-0.629-0.408-1.107-1-1.435-1.773c-0.328-0.774-0.492-1.606-0.492-2.495
		c0-0.97,0.185-1.814,0.556-2.536c0.37-0.721,0.897-1.27,1.58-1.645c0.684-0.373,1.437-0.561,2.258-0.561
		c0.931,0,1.714,0.236,2.349,0.711c0.635,0.475,1.077,1.141,1.327,2l-1.212,0.286c-0.216-0.677-0.529-1.17-0.939-1.479
		c-0.41-0.309-0.927-0.463-1.549-0.463c-0.715,0-1.313,0.172-1.793,0.514c-0.48,0.344-0.818,0.804-1.013,1.382
		c-0.195,0.577-0.292,1.173-0.292,1.786c0,0.793,0.115,1.482,0.346,2.074c0.231,0.59,0.589,1.03,1.076,1.322
		c0.487,0.292,1.014,0.438,1.581,0.438c0.69,0,1.274-0.198,1.752-0.596C53.926,17.02,54.249,16.428,54.417,15.646z"/>
	<path fill="#FFFFFF" d="M56.594,15.537c0-1.249,0.347-2.173,1.041-2.773c0.58-0.5,1.287-0.75,2.12-0.75
		c0.927,0,1.684,0.305,2.272,0.912c0.588,0.606,0.882,1.445,0.882,2.517c0,0.868-0.13,1.55-0.391,2.047
		c-0.26,0.498-0.639,0.884-1.136,1.159c-0.498,0.275-1.04,0.413-1.628,0.413c-0.944,0-1.707-0.304-2.289-0.908
		C56.885,17.547,56.594,16.676,56.594,15.537z M57.77,15.537c0,0.863,0.188,1.51,0.565,1.939c0.376,0.43,0.851,0.645,1.422,0.645
		c0.567,0,1.039-0.216,1.416-0.646c0.377-0.432,0.565-1.09,0.565-1.975c0-0.832-0.189-1.465-0.568-1.895s-0.85-0.645-1.413-0.645
		c-0.571,0-1.045,0.215-1.422,0.642S57.77,14.674,57.77,15.537z"/>
	<path fill="#FFFFFF" d="M64.25,18.907v-6.741h1.028v0.959c0.495-0.742,1.21-1.111,2.146-1.111c0.406,0,0.78,0.072,1.121,0.219
		c0.34,0.146,0.595,0.338,0.765,0.575c0.17,0.237,0.288,0.519,0.355,0.844c0.042,0.211,0.063,0.582,0.063,1.11v4.146h-1.143v-4.101
		c0-0.465-0.044-0.813-0.133-1.045c-0.089-0.23-0.247-0.414-0.473-0.553c-0.226-0.137-0.492-0.205-0.796-0.205
		c-0.487,0-0.907,0.153-1.26,0.463c-0.353,0.309-0.53,0.895-0.53,1.758v3.682L64.25,18.907L64.25,18.907z"/>
	<path fill="#FFFFFF" d="M71.054,15.537c0-1.249,0.347-2.173,1.041-2.773c0.58-0.5,1.287-0.75,2.12-0.75
		c0.927,0,1.684,0.305,2.272,0.912c0.588,0.606,0.882,1.445,0.882,2.517c0,0.868-0.13,1.55-0.391,2.047
		c-0.26,0.498-0.639,0.884-1.136,1.159c-0.498,0.275-1.04,0.413-1.628,0.413c-0.944,0-1.707-0.304-2.289-0.908
		C71.345,17.547,71.054,16.676,71.054,15.537z M72.229,15.537c0,0.863,0.188,1.51,0.565,1.939c0.376,0.43,0.851,0.645,1.422,0.645
		c0.567,0,1.039-0.216,1.416-0.646c0.377-0.432,0.565-1.09,0.565-1.975c0-0.832-0.189-1.465-0.568-1.895s-0.85-0.645-1.413-0.645
		c-0.571,0-1.045,0.215-1.422,0.642S72.229,14.674,72.229,15.537z"/>
	<path fill="#FFFFFF" d="M83.109,16.438l1.124,0.146c-0.123,0.774-0.437,1.381-0.943,1.818c-0.505,0.438-1.126,0.657-1.863,0.657
		c-0.922,0-1.664-0.302-2.225-0.904c-0.561-0.604-0.841-1.468-0.841-2.593c0-0.729,0.121-1.365,0.362-1.911
		c0.241-0.546,0.608-0.955,1.101-1.229c0.493-0.271,1.03-0.408,1.609-0.408c0.732,0,1.331,0.185,1.796,0.556
		c0.465,0.37,0.764,0.896,0.895,1.577l-1.111,0.171c-0.106-0.453-0.293-0.793-0.562-1.022c-0.269-0.229-0.593-0.343-0.974-0.343
		c-0.576,0-1.043,0.206-1.403,0.619c-0.36,0.412-0.54,1.065-0.54,1.958c0,0.906,0.173,1.563,0.521,1.975
		c0.348,0.41,0.8,0.615,1.358,0.615c0.449,0,0.823-0.138,1.124-0.412C82.838,17.432,83.028,17.01,83.109,16.438z"/>
	<path fill="#FFFFFF" d="M85.216,10.916V9.603h1.143v1.313H85.216z M85.216,18.907v-6.741h1.143v6.741H85.216z"/>
	<path fill="#FFFFFF" d="M88.098,18.907v-6.741h1.022v0.946c0.211-0.33,0.493-0.596,0.844-0.796c0.351-0.201,0.751-0.303,1.2-0.303
		c0.5,0,0.909,0.104,1.228,0.312c0.32,0.208,0.545,0.497,0.676,0.87c0.533-0.787,1.227-1.182,2.082-1.182
		c0.668,0,1.183,0.186,1.542,0.557c0.36,0.37,0.54,0.939,0.54,1.71v4.627h-1.136V14.66c0-0.457-0.037-0.785-0.111-0.986
		s-0.208-0.363-0.403-0.486c-0.195-0.123-0.423-0.184-0.686-0.184c-0.474,0-0.868,0.157-1.181,0.473
		c-0.313,0.314-0.47,0.82-0.47,1.514v3.917h-1.143v-4.38c0-0.508-0.093-0.889-0.279-1.143s-0.491-0.381-0.914-0.381
		c-0.322,0-0.619,0.084-0.892,0.254c-0.272,0.168-0.471,0.416-0.593,0.742s-0.184,0.795-0.184,1.409v3.498H88.098z"/>
	<path fill="#FFFFFF" d="M98.934,10.916V9.603h1.143v1.313H98.934z M98.934,18.907v-6.741h1.143v6.741H98.934z"/>
	<path fill="#FFFFFF" d="M106.43,16.736l1.181,0.146c-0.186,0.689-0.531,1.225-1.035,1.605c-0.504,0.381-1.147,0.571-1.93,0.571
		c-0.986,0-1.768-0.304-2.345-0.911c-0.578-0.607-0.867-1.458-0.867-2.555c0-1.135,0.292-2.015,0.876-2.642s1.341-0.938,2.272-0.938
		c0.901,0,1.638,0.307,2.209,0.92c0.571,0.613,0.857,1.477,0.857,2.59c0,0.068-0.002,0.169-0.006,0.305h-5.027
		c0.042,0.741,0.252,1.309,0.628,1.701s0.846,0.59,1.409,0.59c0.419,0,0.776-0.109,1.073-0.33
		C106.022,17.569,106.256,17.219,106.43,16.736z M102.678,14.889h3.764c-0.051-0.566-0.195-0.991-0.432-1.275
		c-0.364-0.439-0.836-0.66-1.416-0.66c-0.525,0-0.966,0.176-1.324,0.527C102.915,13.832,102.716,14.301,102.678,14.889z"/>
	<path fill="#FFFFFF" d="M109.045,18.907v-6.741h1.028v0.959c0.495-0.742,1.21-1.111,2.146-1.111c0.406,0,0.78,0.072,1.12,0.219
		c0.341,0.146,0.596,0.338,0.765,0.575s0.288,0.519,0.355,0.844c0.042,0.211,0.063,0.582,0.063,1.11v4.146h-1.143v-4.101
		c0-0.465-0.044-0.813-0.133-1.045c-0.089-0.23-0.247-0.414-0.473-0.553c-0.227-0.137-0.492-0.205-0.797-0.205
		c-0.487,0-0.907,0.153-1.26,0.463c-0.354,0.309-0.53,0.895-0.53,1.758v3.682L109.045,18.907L109.045,18.907z"/>
	<path fill="#FFFFFF" d="M118.771,17.885l0.165,1.01c-0.322,0.068-0.609,0.102-0.863,0.102c-0.415,0-0.736-0.064-0.965-0.197
		c-0.229-0.131-0.389-0.304-0.482-0.517c-0.093-0.214-0.14-0.664-0.14-1.349v-3.879h-0.838v-0.889h0.838v-1.668l1.136-0.687v2.354
		h1.149v0.889h-1.149v3.943c0,0.325,0.021,0.534,0.061,0.627c0.041,0.094,0.105,0.168,0.197,0.223
		c0.09,0.055,0.221,0.082,0.39,0.082C118.396,17.93,118.563,17.916,118.771,17.885z"/>
	<path fill="#FFFFFF" d="M119.463,15.537c0-1.249,0.347-2.173,1.041-2.773c0.58-0.5,1.287-0.75,2.119-0.75
		c0.928,0,1.684,0.305,2.272,0.912c0.588,0.606,0.883,1.445,0.883,2.517c0,0.868-0.131,1.55-0.391,2.047
		c-0.26,0.498-0.639,0.884-1.137,1.159s-1.039,0.413-1.627,0.413c-0.945,0-1.707-0.304-2.289-0.908
		C119.754,17.547,119.463,16.676,119.463,15.537z M120.637,15.537c0,0.863,0.188,1.51,0.564,1.939
		c0.376,0.43,0.852,0.645,1.422,0.645c0.567,0,1.04-0.216,1.417-0.646c0.377-0.432,0.564-1.09,0.564-1.975
		c0-0.832-0.188-1.465-0.568-1.895c-0.379-0.43-0.85-0.645-1.413-0.645c-0.57,0-1.045,0.215-1.422,0.642
		S120.637,14.674,120.637,15.537z"/>
	<path fill="#FFFFFF" d="M126.661,16.896l1.131-0.179c0.063,0.453,0.238,0.801,0.529,1.041c0.289,0.242,0.695,0.362,1.215,0.362
		c0.525,0,0.914-0.106,1.168-0.319c0.256-0.215,0.383-0.465,0.383-0.752c0-0.258-0.113-0.461-0.338-0.609
		c-0.156-0.102-0.547-0.23-1.168-0.387c-0.838-0.211-1.418-0.396-1.742-0.549c-0.324-0.155-0.57-0.369-0.736-0.643
		c-0.168-0.271-0.25-0.574-0.25-0.904c0-0.3,0.068-0.578,0.207-0.834c0.137-0.257,0.324-0.469,0.561-0.639
		c0.18-0.131,0.422-0.242,0.729-0.333s0.635-0.138,0.986-0.138c0.529,0,0.992,0.076,1.395,0.229c0.4,0.152,0.695,0.358,0.885,0.619
		s0.32,0.608,0.395,1.044l-1.117,0.152c-0.051-0.348-0.199-0.618-0.441-0.813c-0.244-0.194-0.588-0.292-1.031-0.292
		c-0.525,0-0.9,0.088-1.125,0.26c-0.225,0.174-0.336,0.377-0.336,0.609c0,0.148,0.047,0.281,0.141,0.4
		c0.092,0.123,0.238,0.224,0.438,0.305c0.113,0.042,0.451,0.141,1.01,0.292c0.807,0.216,1.371,0.394,1.689,0.53
		c0.32,0.137,0.57,0.337,0.752,0.6c0.184,0.262,0.273,0.588,0.273,0.979c0,0.381-0.111,0.738-0.334,1.076
		c-0.221,0.336-0.541,0.597-0.961,0.779c-0.418,0.186-0.893,0.276-1.422,0.276c-0.875,0-1.543-0.183-2.002-0.546
		C127.081,18.15,126.788,17.61,126.661,16.896z"/>
	<path fill="#FFFFFF" d="M137.178,21.504l-0.127-1.072c0.25,0.068,0.467,0.102,0.652,0.102c0.256,0,0.457-0.042,0.609-0.127
		s0.277-0.203,0.375-0.355c0.072-0.113,0.189-0.397,0.35-0.851c0.021-0.063,0.055-0.157,0.102-0.278l-2.559-6.754h1.232l1.402,3.903
		c0.182,0.495,0.344,1.017,0.486,1.562c0.133-0.524,0.289-1.037,0.473-1.535l1.439-3.93h1.143l-2.564,6.855
		c-0.273,0.74-0.488,1.25-0.641,1.529c-0.203,0.377-0.438,0.654-0.697,0.83c-0.264,0.175-0.576,0.263-0.939,0.263
		C137.694,21.644,137.45,21.598,137.178,21.504z"/>
	<path fill="#FFFFFF" d="M151.739,16.438l1.125,0.146c-0.123,0.774-0.438,1.381-0.941,1.818c-0.506,0.438-1.127,0.657-1.863,0.657
		c-0.922,0-1.664-0.302-2.225-0.904c-0.563-0.604-0.844-1.468-0.844-2.593c0-0.729,0.121-1.365,0.363-1.911
		c0.24-0.546,0.607-0.955,1.1-1.229c0.494-0.271,1.031-0.408,1.609-0.408c0.732,0,1.332,0.185,1.797,0.556
		c0.465,0.37,0.766,0.896,0.896,1.577l-1.111,0.171c-0.105-0.453-0.293-0.793-0.561-1.022c-0.271-0.229-0.596-0.343-0.977-0.343
		c-0.576,0-1.043,0.206-1.4,0.619c-0.361,0.412-0.541,1.065-0.541,1.958c0,0.906,0.174,1.563,0.521,1.975
		c0.348,0.41,0.799,0.615,1.357,0.615c0.447,0,0.822-0.138,1.125-0.412C151.469,17.434,151.659,17.01,151.739,16.438z"/>
	<path fill="#FFFFFF" d="M153.829,18.907v-6.741h1.027v1.022c0.262-0.478,0.504-0.793,0.729-0.946
		c0.223-0.152,0.467-0.229,0.732-0.229c0.385,0,0.775,0.123,1.174,0.367l-0.395,1.061c-0.279-0.165-0.559-0.248-0.838-0.248
		c-0.248,0-0.475,0.075-0.672,0.227c-0.199,0.149-0.342,0.357-0.426,0.625c-0.127,0.405-0.189,0.851-0.189,1.332v3.529
		L153.829,18.907L153.829,18.907z"/>
	<path fill="#FFFFFF" d="M158.176,10.916V9.603h1.143v1.313H158.176z M158.176,18.907v-6.741h1.143v6.741H158.176z"/>
	<path fill="#FFFFFF" d="M163.553,17.885l0.164,1.01c-0.322,0.068-0.609,0.102-0.863,0.102c-0.414,0-0.736-0.064-0.965-0.197
		c-0.229-0.131-0.389-0.304-0.482-0.517c-0.094-0.214-0.139-0.664-0.139-1.349v-3.879h-0.838v-0.889h0.838v-1.668l1.135-0.687v2.354
		h1.15v0.889h-1.15v3.943c0,0.325,0.021,0.534,0.063,0.627c0.041,0.094,0.104,0.168,0.195,0.223s0.223,0.082,0.393,0.082
		C163.178,17.93,163.344,17.916,163.553,17.885z"/>
	<path fill="#FFFFFF" d="M169.284,16.736l1.184,0.146c-0.188,0.689-0.531,1.225-1.035,1.605s-1.146,0.571-1.93,0.571
		c-0.986,0-1.77-0.304-2.348-0.911s-0.865-1.458-0.865-2.555c0-1.135,0.293-2.015,0.877-2.642s1.342-0.938,2.271-0.938
		c0.9,0,1.637,0.307,2.209,0.92c0.57,0.613,0.855,1.477,0.855,2.59c0,0.068-0.002,0.169-0.006,0.305h-5.027
		c0.043,0.741,0.252,1.309,0.629,1.701c0.377,0.395,0.846,0.59,1.408,0.59c0.42,0,0.777-0.109,1.074-0.33
		C168.875,17.569,169.112,17.219,169.284,16.736z M165.534,14.889h3.766c-0.051-0.566-0.195-0.991-0.434-1.275
		c-0.363-0.439-0.836-0.66-1.416-0.66c-0.523,0-0.965,0.176-1.322,0.527C165.768,13.832,165.571,14.301,165.534,14.889z"/>
	<path fill="#FFFFFF" d="M171.887,18.907v-6.741h1.027v1.022c0.264-0.478,0.506-0.793,0.727-0.946
		c0.223-0.152,0.467-0.229,0.734-0.229c0.385,0,0.775,0.123,1.174,0.367l-0.395,1.061c-0.277-0.165-0.559-0.248-0.838-0.248
		c-0.248,0-0.473,0.075-0.672,0.227c-0.199,0.149-0.342,0.357-0.426,0.625c-0.127,0.405-0.189,0.851-0.189,1.332v3.529
		L171.887,18.907L171.887,18.907z"/>
	<path fill="#FFFFFF" d="M176.235,10.916V9.603h1.145v1.313H176.235z M176.235,18.907v-6.741h1.145v6.741H176.235z"/>
	<path fill="#FFFFFF" d="M178.692,15.537c0-1.249,0.348-2.173,1.041-2.773c0.58-0.5,1.287-0.75,2.119-0.75
		c0.928,0,1.686,0.305,2.273,0.912c0.588,0.606,0.883,1.445,0.883,2.517c0,0.868-0.131,1.55-0.391,2.047
		c-0.262,0.498-0.641,0.884-1.137,1.159c-0.498,0.275-1.041,0.413-1.629,0.413c-0.943,0-1.707-0.304-2.287-0.908
		C178.983,17.547,178.692,16.676,178.692,15.537z M179.866,15.537c0,0.863,0.189,1.51,0.564,1.939
		c0.377,0.43,0.852,0.645,1.422,0.645c0.568,0,1.039-0.216,1.416-0.646c0.377-0.432,0.564-1.09,0.564-1.975
		c0-0.832-0.189-1.465-0.568-1.895c-0.377-0.43-0.848-0.645-1.412-0.645c-0.57,0-1.045,0.215-1.422,0.642
		C180.055,14.028,179.866,14.674,179.866,15.537z"/>
	<path fill="#FFFFFF" d="M185.889,16.896l1.131-0.179c0.064,0.453,0.24,0.801,0.529,1.041c0.291,0.242,0.695,0.362,1.217,0.362
		c0.523,0,0.914-0.106,1.168-0.319c0.254-0.215,0.381-0.465,0.381-0.752c0-0.258-0.113-0.461-0.338-0.609
		c-0.156-0.102-0.545-0.23-1.168-0.387c-0.838-0.211-1.418-0.396-1.742-0.549c-0.324-0.155-0.566-0.369-0.734-0.643
		c-0.168-0.271-0.25-0.574-0.25-0.904c0-0.3,0.066-0.578,0.203-0.834c0.141-0.257,0.326-0.469,0.564-0.639
		c0.178-0.131,0.42-0.242,0.727-0.333s0.637-0.138,0.986-0.138c0.529,0,0.994,0.076,1.395,0.229s0.695,0.358,0.885,0.619
		c0.191,0.261,0.322,0.608,0.395,1.044l-1.117,0.152c-0.051-0.348-0.197-0.618-0.439-0.813c-0.244-0.194-0.588-0.292-1.031-0.292
		c-0.525,0-0.9,0.088-1.125,0.26c-0.223,0.174-0.336,0.377-0.336,0.609c0,0.148,0.047,0.281,0.141,0.4
		c0.094,0.123,0.238,0.224,0.438,0.305c0.115,0.042,0.451,0.141,1.01,0.292c0.809,0.216,1.371,0.394,1.691,0.53
		c0.318,0.137,0.57,0.337,0.752,0.6c0.182,0.264,0.273,0.588,0.273,0.979c0,0.381-0.111,0.738-0.334,1.076
		c-0.223,0.336-0.543,0.597-0.961,0.779c-0.42,0.186-0.895,0.276-1.422,0.276c-0.877,0-1.545-0.183-2.004-0.546
		C186.309,18.15,186.016,17.61,185.889,16.896z"/>
	<path fill="#FFFFFF" d="M200.834,18.907v-0.851c-0.43,0.668-1.059,1.003-1.887,1.003c-0.539,0-1.031-0.148-1.48-0.444
		c-0.451-0.296-0.801-0.71-1.049-1.24c-0.246-0.531-0.371-1.142-0.371-1.832c0-0.673,0.111-1.283,0.336-1.83
		c0.225-0.549,0.561-0.969,1.01-1.261s0.951-0.438,1.504-0.438c0.406,0,0.77,0.087,1.086,0.258c0.318,0.172,0.576,0.395,0.775,0.67
		V9.603h1.135v9.306L200.834,18.907L200.834,18.907z M197.221,15.543c0,0.863,0.182,1.51,0.545,1.937s0.793,0.641,1.289,0.641
		c0.5,0,0.924-0.204,1.271-0.612c0.35-0.408,0.523-1.031,0.523-1.869c0-0.922-0.178-1.601-0.533-2.031
		c-0.354-0.432-0.793-0.646-1.313-0.646c-0.508,0-0.934,0.207-1.273,0.621S197.221,14.65,197.221,15.543z"/>
	<path fill="#FFFFFF" d="M208.303,16.736l1.182,0.146c-0.188,0.689-0.531,1.225-1.035,1.605s-1.146,0.571-1.93,0.571
		c-0.986,0-1.768-0.304-2.346-0.911s-0.867-1.458-0.867-2.555c0-1.135,0.293-2.015,0.877-2.642s1.342-0.938,2.271-0.938
		c0.902,0,1.639,0.307,2.209,0.92c0.572,0.613,0.857,1.477,0.857,2.59c0,0.068-0.002,0.169-0.006,0.305h-5.027
		c0.041,0.741,0.252,1.309,0.627,1.701c0.377,0.393,0.848,0.59,1.41,0.59c0.418,0,0.775-0.109,1.072-0.33
		C207.895,17.57,208.131,17.219,208.303,16.736z M204.551,14.889h3.766c-0.051-0.566-0.193-0.991-0.432-1.275
		c-0.365-0.439-0.836-0.66-1.416-0.66c-0.525,0-0.967,0.176-1.324,0.527S204.59,14.301,204.551,14.889z"/>
	<path fill="#FFFFFF" d="M52.247,32.339l1.181,0.145c-0.186,0.691-0.531,1.227-1.035,1.607c-0.504,0.381-1.147,0.57-1.93,0.57
		c-0.986,0-1.768-0.305-2.345-0.91c-0.578-0.607-0.867-1.459-0.867-2.557c0-1.133,0.292-2.014,0.876-2.641s1.341-0.939,2.272-0.939
		c0.901,0,1.638,0.309,2.209,0.92c0.571,0.613,0.857,1.479,0.857,2.592c0,0.066-0.002,0.168-0.006,0.305h-5.027
		c0.042,0.74,0.252,1.307,0.628,1.701c0.376,0.393,0.846,0.59,1.409,0.59c0.419,0,0.776-0.111,1.073-0.33
		C51.838,33.171,52.073,32.819,52.247,32.339z M48.495,30.489h3.764c-0.051-0.566-0.195-0.99-0.432-1.275
		c-0.364-0.439-0.836-0.66-1.416-0.66c-0.525,0-0.966,0.176-1.324,0.527C48.731,29.433,48.533,29.901,48.495,30.489z"/>
	<path fill="#FFFFFF" d="M56.734,34.509l-2.564-6.742h1.206l1.447,4.037c0.157,0.436,0.3,0.889,0.432,1.357
		c0.102-0.354,0.243-0.781,0.425-1.281l1.498-4.113h1.174L57.8,34.509H56.734z"/>
	<path fill="#FFFFFF" d="M65.76,33.677c-0.423,0.359-0.831,0.615-1.222,0.762c-0.391,0.148-0.811,0.223-1.26,0.223
		c-0.741,0-1.31-0.182-1.708-0.543s-0.597-0.822-0.597-1.387c0-0.33,0.075-0.631,0.225-0.904c0.15-0.271,0.347-0.492,0.591-0.656
		c0.243-0.166,0.517-0.291,0.822-0.375c0.224-0.061,0.563-0.117,1.016-0.172c0.922-0.109,1.602-0.24,2.038-0.395
		c0.004-0.156,0.006-0.256,0.006-0.297c0-0.465-0.108-0.793-0.324-0.984c-0.292-0.258-0.726-0.387-1.301-0.387
		c-0.538,0-0.934,0.094-1.19,0.281s-0.446,0.521-0.568,1l-1.117-0.152c0.102-0.477,0.269-0.863,0.501-1.158
		c0.233-0.293,0.569-0.52,1.009-0.68c0.44-0.158,0.95-0.238,1.53-0.238c0.576,0,1.043,0.068,1.403,0.203
		c0.36,0.135,0.624,0.307,0.793,0.512s0.288,0.465,0.355,0.777c0.038,0.195,0.057,0.545,0.057,1.053v1.523
		c0,1.063,0.024,1.734,0.073,2.016c0.048,0.281,0.145,0.553,0.289,0.811h-1.193C65.87,34.272,65.794,33.993,65.76,33.677z
		 M65.666,31.126c-0.415,0.168-1.037,0.313-1.866,0.432c-0.47,0.068-0.802,0.143-0.997,0.229c-0.195,0.084-0.345,0.207-0.451,0.371
		c-0.106,0.162-0.159,0.344-0.159,0.543c0,0.305,0.115,0.559,0.346,0.762c0.23,0.203,0.568,0.305,1.012,0.305
		c0.44,0,0.832-0.096,1.174-0.289c0.343-0.191,0.595-0.455,0.755-0.789c0.123-0.258,0.184-0.639,0.184-1.143v-0.42H65.666z"/>
	<path fill="#FFFFFF" d="M68.566,34.509v-9.307h1.143v9.307H68.566z"/>
	<path fill="#FFFFFF" d="M75.898,34.509v-0.99c-0.525,0.762-1.238,1.143-2.139,1.143c-0.398,0-0.769-0.076-1.114-0.229
		c-0.345-0.152-0.601-0.344-0.769-0.576c-0.167-0.229-0.284-0.512-0.352-0.846c-0.046-0.225-0.07-0.58-0.07-1.066v-4.178h1.143v3.74
		c0,0.596,0.023,0.998,0.07,1.205c0.072,0.301,0.224,0.537,0.457,0.709c0.233,0.17,0.521,0.256,0.863,0.256s0.665-0.088,0.965-0.264
		c0.3-0.176,0.513-0.414,0.638-0.717s0.187-0.742,0.187-1.316v-3.613h1.143v6.742H75.898z"/>
	<path fill="#FFFFFF" d="M83.109,33.677c-0.423,0.359-0.831,0.615-1.222,0.762c-0.392,0.148-0.812,0.223-1.26,0.223
		c-0.741,0-1.31-0.182-1.708-0.543s-0.597-0.822-0.597-1.387c0-0.33,0.075-0.631,0.226-0.904c0.15-0.271,0.347-0.492,0.59-0.656
		c0.244-0.166,0.518-0.291,0.822-0.375c0.224-0.061,0.563-0.117,1.016-0.172c0.922-0.109,1.602-0.24,2.038-0.395
		c0.004-0.156,0.006-0.256,0.006-0.297c0-0.465-0.108-0.793-0.324-0.984c-0.292-0.258-0.726-0.387-1.301-0.387
		c-0.538,0-0.934,0.094-1.19,0.281c-0.256,0.188-0.445,0.521-0.568,1l-1.117-0.152c0.102-0.477,0.269-0.863,0.501-1.158
		c0.233-0.293,0.569-0.52,1.009-0.68c0.44-0.158,0.95-0.238,1.53-0.238c0.576,0,1.043,0.068,1.403,0.203s0.624,0.307,0.793,0.512
		s0.288,0.465,0.355,0.777c0.038,0.195,0.057,0.545,0.057,1.053v1.523c0,1.063,0.024,1.734,0.073,2.016
		c0.049,0.281,0.145,0.553,0.289,0.811h-1.193C83.218,34.272,83.143,33.993,83.109,33.677z M83.013,31.126
		c-0.415,0.168-1.037,0.313-1.866,0.432c-0.47,0.068-0.802,0.143-0.997,0.229c-0.195,0.084-0.345,0.207-0.451,0.371
		c-0.106,0.162-0.159,0.344-0.159,0.543c0,0.305,0.115,0.559,0.346,0.762s0.568,0.305,1.013,0.305c0.44,0,0.832-0.096,1.174-0.289
		c0.343-0.191,0.595-0.455,0.755-0.789c0.123-0.258,0.184-0.639,0.184-1.143L83.013,31.126L83.013,31.126z"/>
	<path fill="#FFFFFF" d="M90.339,32.038l1.124,0.146c-0.123,0.775-0.437,1.381-0.942,1.82c-0.506,0.438-1.127,0.656-1.863,0.656
		c-0.922,0-1.664-0.301-2.225-0.904c-0.561-0.604-0.841-1.469-0.841-2.594c0-0.729,0.121-1.365,0.362-1.91
		c0.241-0.547,0.608-0.957,1.102-1.229c0.493-0.273,1.029-0.41,1.609-0.41c0.732,0,1.331,0.186,1.796,0.555
		c0.465,0.371,0.764,0.896,0.895,1.578l-1.111,0.172c-0.106-0.453-0.293-0.793-0.562-1.023c-0.269-0.229-0.594-0.342-0.975-0.342
		c-0.576,0-1.043,0.207-1.403,0.619c-0.36,0.412-0.54,1.064-0.54,1.957c0,0.906,0.173,1.563,0.521,1.975
		c0.348,0.41,0.8,0.615,1.358,0.615c0.449,0,0.823-0.137,1.124-0.412C90.069,33.032,90.258,32.61,90.339,32.038z"/>
	<path fill="#FFFFFF" d="M92.446,26.517v-1.314h1.143v1.314H92.446z M92.446,34.509v-6.742h1.143v6.742H92.446z"/>
	<path fill="#FFFFFF" d="M94.902,31.138c0-1.248,0.347-2.172,1.041-2.773c0.58-0.5,1.287-0.75,2.12-0.75
		c0.927,0,1.684,0.305,2.272,0.912s0.882,1.445,0.882,2.518c0,0.867-0.13,1.549-0.39,2.047c-0.261,0.496-0.639,0.883-1.137,1.158
		c-0.497,0.273-1.04,0.412-1.628,0.412c-0.944,0-1.707-0.303-2.288-0.908S94.902,32.276,94.902,31.138z M96.077,31.138
		c0,0.863,0.188,1.51,0.565,1.939c0.376,0.43,0.851,0.645,1.422,0.645c0.567,0,1.039-0.217,1.416-0.648
		c0.377-0.43,0.565-1.09,0.565-1.973c0-0.834-0.189-1.465-0.568-1.896c-0.378-0.43-0.849-0.645-1.412-0.645
		c-0.571,0-1.045,0.215-1.422,0.641C96.267,29.628,96.077,30.274,96.077,31.138z M97.429,26.929l0.844-1.777h1.498l-1.396,1.777
		H97.429z"/>
	<path fill="#FFFFFF" d="M102.559,34.509v-6.742h1.028v0.959c0.495-0.742,1.21-1.111,2.146-1.111c0.406,0,0.78,0.072,1.12,0.219
		c0.341,0.146,0.596,0.338,0.765,0.574s0.288,0.52,0.355,0.844c0.042,0.211,0.063,0.582,0.063,1.111v4.145h-1.143v-4.102
		c0-0.465-0.044-0.813-0.133-1.043c-0.089-0.23-0.247-0.416-0.473-0.553c-0.227-0.137-0.492-0.207-0.797-0.207
		c-0.487,0-0.907,0.154-1.26,0.463c-0.354,0.311-0.53,0.896-0.53,1.758v3.684h-1.141V34.509z"/>
	<g>
		<path fill="#FFFFFF" d="M30.736,25.179c-2.711,0-4.918-2.205-4.918-4.919c0-2.711,2.207-4.918,4.918-4.918
			s4.918,2.207,4.918,4.918C35.654,22.974,33.448,25.179,30.736,25.179z M30.736,16.342c-2.16,0-3.918,1.759-3.918,3.918
			c0,2.163,1.758,3.919,3.918,3.919s3.918-1.758,3.918-3.919C34.654,18.101,32.897,16.342,30.736,16.342z"/>
	</g>
</g>
</svg>
