<?xml version="1.0" encoding="utf-8"?>
<!-- Generator: Adobe Illustrator 16.0.0, SVG Export Plug-In . SVG Version: 6.00 Build 0)  -->
<!DOCTYPE svg PUBLIC "-//W3C//DTD SVG 1.1//EN" "http://www.w3.org/Graphics/SVG/1.1/DTD/svg11.dtd">
<svg version="1.1" id="Capa_1" xmlns="http://www.w3.org/2000/svg" xmlns:xlink="http://www.w3.org/1999/xlink" x="0px" y="0px"
	 width="233.319px" height="30.497px" viewBox="0 0 233.319 30.497" enable-background="new 0 0 233.319 30.497"
	 xml:space="preserve">
<rect y="2.51" fill="#FFE8C7" width="233.319" height="25.463"/>
<g opacity="0.5">
	<rect y="0" fill="#FFFFFF" width="233.319" height="1"/>
</g>
<g opacity="0.5">
	<rect y="29.497" fill="#FFFFFF" width="233.319" height="1"/>
</g>
<g>
	<path fill="#002549" d="M46.805,19.538l3.574-9.307h1.327l3.809,9.307h-1.403l-1.085-2.818h-3.891l-1.022,2.818H46.805z
		 M49.49,15.717h3.155l-0.971-2.578c-0.296-0.783-0.516-1.426-0.66-1.93c-0.119,0.598-0.286,1.189-0.501,1.777L49.49,15.717z"/>
	<path fill="#002549" d="M60.75,17.069l1.124,0.146c-0.123,0.773-0.437,1.381-0.943,1.816c-0.505,0.439-1.126,0.658-1.863,0.658
		c-0.922,0-1.664-0.303-2.225-0.904c-0.561-0.604-0.841-1.469-0.841-2.594c0-0.729,0.121-1.363,0.362-1.91
		c0.241-0.547,0.608-0.955,1.101-1.229c0.493-0.273,1.03-0.41,1.609-0.41c0.732,0,1.331,0.188,1.796,0.557s0.764,0.896,0.895,1.576
		l-1.111,0.172c-0.106-0.451-0.293-0.793-0.562-1.021s-0.593-0.342-0.974-0.342c-0.576,0-1.043,0.205-1.403,0.619
		c-0.36,0.41-0.54,1.064-0.54,1.957c0,0.904,0.173,1.563,0.521,1.975c0.347,0.41,0.8,0.615,1.358,0.615
		c0.449,0,0.823-0.139,1.124-0.412C60.479,18.063,60.67,17.639,60.75,17.069z"/>
	<path fill="#002549" d="M65.346,18.516l0.165,1.01c-0.322,0.066-0.609,0.102-0.863,0.102c-0.415,0-0.736-0.064-0.965-0.195
		c-0.229-0.133-0.389-0.305-0.482-0.518c-0.093-0.215-0.14-0.664-0.14-1.352v-3.877h-0.838v-0.889h0.838v-1.67l1.136-0.686v2.354
		h1.149v0.889h-1.149v3.943c0,0.324,0.02,0.535,0.06,0.627c0.041,0.094,0.106,0.168,0.197,0.223c0.091,0.055,0.221,0.082,0.39,0.082
		C64.971,18.561,65.138,18.545,65.346,18.516z"/>
	<path fill="#002549" d="M66.47,11.545v-1.313h1.143v1.313H66.47z M66.47,19.538v-6.74h1.143v6.74H66.47z"/>
	<path fill="#002549" d="M71.224,19.538l-2.564-6.74h1.206l1.447,4.037c0.157,0.436,0.3,0.889,0.432,1.357
		c0.102-0.355,0.243-0.783,0.425-1.281l1.498-4.113h1.174l-2.552,6.74H71.224z"/>
	<path fill="#002549" d="M75.858,11.545v-1.313H77v1.313H75.858z M75.858,19.538v-6.74H77v6.74H75.858z"/>
	<path fill="#002549" d="M83.113,19.538v-0.852c-0.427,0.67-1.056,1.004-1.885,1.004c-0.538,0-1.031-0.148-1.482-0.443
		c-0.45-0.297-0.8-0.711-1.047-1.242c-0.248-0.531-0.372-1.143-0.372-1.83c0-0.674,0.112-1.283,0.336-1.832
		c0.224-0.547,0.561-0.969,1.009-1.26c0.449-0.293,0.95-0.438,1.504-0.438c0.406,0,0.768,0.086,1.085,0.256
		c0.317,0.172,0.576,0.396,0.774,0.67v-3.338h1.136v9.307h-1.058V19.538z M79.5,16.174c0,0.863,0.182,1.508,0.546,1.936
		c0.364,0.428,0.793,0.643,1.289,0.643c0.5,0,0.923-0.205,1.273-0.613c0.349-0.408,0.523-1.031,0.523-1.869
		c0-0.922-0.178-1.6-0.533-2.031s-0.793-0.646-1.314-0.646c-0.508,0-0.932,0.207-1.273,0.621C79.672,14.627,79.5,15.28,79.5,16.174z
		"/>
	<path fill="#002549" d="M90.368,18.706c-0.423,0.359-0.831,0.613-1.222,0.762c-0.392,0.148-0.812,0.223-1.26,0.223
		c-0.741,0-1.31-0.18-1.708-0.543c-0.398-0.359-0.597-0.824-0.597-1.387c0-0.33,0.075-0.631,0.226-0.904
		c0.15-0.271,0.347-0.492,0.59-0.656c0.244-0.166,0.518-0.291,0.822-0.375c0.224-0.059,0.563-0.115,1.016-0.172
		c0.922-0.109,1.602-0.24,2.038-0.393c0.004-0.156,0.006-0.256,0.006-0.299c0-0.465-0.108-0.793-0.324-0.984
		c-0.292-0.258-0.726-0.387-1.301-0.387c-0.538,0-0.934,0.094-1.19,0.283c-0.256,0.188-0.445,0.52-0.568,0.998l-1.117-0.152
		c0.102-0.479,0.269-0.863,0.501-1.158c0.232-0.293,0.569-0.52,1.009-0.678c0.44-0.16,0.95-0.238,1.53-0.238
		c0.576,0,1.043,0.066,1.403,0.203c0.36,0.135,0.624,0.305,0.793,0.51s0.288,0.465,0.355,0.777c0.038,0.195,0.057,0.547,0.057,1.055
		v1.523c0,1.063,0.024,1.732,0.073,2.016c0.049,0.281,0.145,0.551,0.289,0.811h-1.192C90.478,19.301,90.402,19.024,90.368,18.706z
		 M90.273,16.155c-0.415,0.168-1.037,0.313-1.866,0.432c-0.47,0.066-0.802,0.145-0.997,0.229s-0.345,0.209-0.451,0.371
		C86.853,17.35,86.8,17.53,86.8,17.729c0,0.305,0.115,0.561,0.346,0.762c0.231,0.203,0.568,0.307,1.013,0.307
		c0.44,0,0.832-0.098,1.174-0.289c0.342-0.193,0.595-0.457,0.755-0.791c0.123-0.258,0.184-0.639,0.184-1.145v-0.418H90.273z"/>
	<path fill="#002549" d="M97.573,19.538v-0.852c-0.427,0.67-1.056,1.004-1.885,1.004c-0.538,0-1.031-0.148-1.482-0.443
		c-0.45-0.297-0.8-0.711-1.047-1.242c-0.248-0.531-0.372-1.143-0.372-1.83c0-0.674,0.112-1.283,0.336-1.832
		c0.224-0.547,0.561-0.969,1.009-1.26c0.449-0.293,0.95-0.438,1.504-0.438c0.406,0,0.768,0.086,1.085,0.256
		c0.317,0.172,0.576,0.396,0.774,0.67v-3.338h1.136v9.307h-1.058V19.538z M93.96,16.174c0,0.863,0.182,1.508,0.546,1.936
		c0.364,0.428,0.793,0.643,1.289,0.643c0.5,0,0.923-0.205,1.273-0.613c0.349-0.408,0.523-1.031,0.523-1.869
		c0-0.922-0.178-1.6-0.533-2.031s-0.793-0.646-1.314-0.646c-0.508,0-0.932,0.207-1.273,0.621
		C94.132,14.627,93.96,15.28,93.96,16.174z"/>
	<path fill="#002549" d="M105.043,17.366l1.181,0.146c-0.186,0.691-0.531,1.227-1.035,1.607c-0.504,0.379-1.147,0.57-1.93,0.57
		c-0.986,0-1.768-0.305-2.345-0.912c-0.578-0.605-0.867-1.459-0.867-2.555c0-1.133,0.292-2.014,0.876-2.641
		c0.584-0.625,1.341-0.939,2.272-0.939c0.901,0,1.638,0.307,2.209,0.922c0.571,0.613,0.857,1.477,0.857,2.59
		c0,0.066-0.002,0.168-0.006,0.305h-5.027c0.042,0.74,0.252,1.307,0.628,1.701c0.376,0.393,0.846,0.59,1.409,0.59
		c0.419,0,0.776-0.109,1.073-0.33C104.636,18.2,104.871,17.85,105.043,17.366z M101.292,15.52h3.764
		c-0.051-0.566-0.195-0.992-0.432-1.275c-0.364-0.439-0.836-0.66-1.416-0.66c-0.525,0-0.966,0.176-1.324,0.525
		C101.529,14.461,101.331,14.932,101.292,15.52z"/>
	<path fill="#002549" d="M107.202,17.526l1.13-0.178c0.063,0.451,0.24,0.799,0.53,1.041c0.29,0.24,0.695,0.361,1.215,0.361
		c0.525,0,0.914-0.107,1.168-0.32c0.254-0.215,0.381-0.465,0.381-0.752c0-0.26-0.112-0.463-0.336-0.609
		c-0.157-0.102-0.546-0.23-1.168-0.389c-0.838-0.211-1.419-0.395-1.742-0.549c-0.324-0.154-0.569-0.367-0.736-0.643
		c-0.167-0.271-0.251-0.572-0.251-0.902c0-0.303,0.069-0.58,0.206-0.836c0.138-0.256,0.325-0.469,0.562-0.639
		c0.178-0.131,0.42-0.24,0.727-0.332s0.636-0.137,0.987-0.137c0.529,0,0.994,0.076,1.393,0.229c0.4,0.152,0.695,0.357,0.886,0.619
		c0.19,0.26,0.322,0.607,0.394,1.043l-1.117,0.152c-0.051-0.346-0.198-0.617-0.441-0.813c-0.243-0.193-0.587-0.291-1.031-0.291
		c-0.525,0-0.899,0.086-1.124,0.26c-0.224,0.174-0.336,0.377-0.336,0.609c0,0.146,0.046,0.281,0.14,0.398
		c0.093,0.123,0.239,0.225,0.438,0.305c0.114,0.043,0.451,0.141,1.009,0.293c0.808,0.217,1.372,0.393,1.691,0.529
		c0.32,0.139,0.57,0.338,0.752,0.602c0.182,0.262,0.273,0.588,0.273,0.977c0,0.381-0.111,0.74-0.333,1.076
		c-0.223,0.336-0.543,0.598-0.962,0.781s-0.893,0.275-1.422,0.275c-0.876,0-1.543-0.182-2.003-0.547
		C107.622,18.78,107.329,18.241,107.202,17.526z"/>
	<path fill="#002549" d="M122.144,19.538v-0.852c-0.426,0.67-1.055,1.004-1.885,1.004c-0.537,0-1.031-0.148-1.481-0.443
		c-0.451-0.297-0.8-0.711-1.048-1.242c-0.247-0.531-0.371-1.143-0.371-1.83c0-0.674,0.111-1.283,0.336-1.832
		c0.224-0.547,0.561-0.969,1.009-1.26c0.449-0.293,0.95-0.438,1.504-0.438c0.406,0,0.769,0.086,1.085,0.256
		c0.317,0.172,0.576,0.396,0.774,0.67v-3.338h1.136v9.307h-1.059V19.538z M118.533,16.174c0,0.863,0.182,1.508,0.546,1.936
		s0.793,0.643,1.289,0.643c0.5,0,0.924-0.205,1.272-0.613c0.35-0.408,0.523-1.031,0.523-1.869c0-0.922-0.178-1.6-0.533-2.031
		c-0.354-0.432-0.793-0.646-1.313-0.646c-0.509,0-0.933,0.207-1.272,0.621C118.703,14.627,118.533,15.28,118.533,16.174z"/>
	<path fill="#002549" d="M129.616,17.366l1.18,0.146c-0.186,0.691-0.531,1.227-1.035,1.607c-0.504,0.379-1.146,0.57-1.93,0.57
		c-0.986,0-1.768-0.305-2.346-0.912c-0.576-0.605-0.865-1.459-0.865-2.555c0-1.133,0.291-2.014,0.875-2.641
		c0.584-0.625,1.342-0.939,2.271-0.939c0.902,0,1.639,0.307,2.209,0.922c0.572,0.613,0.857,1.477,0.857,2.59
		c0,0.066-0.002,0.168-0.006,0.305H125.8c0.041,0.74,0.252,1.307,0.627,1.701c0.377,0.393,0.848,0.59,1.41,0.59
		c0.418,0,0.775-0.109,1.072-0.33S129.442,17.85,129.616,17.366z M125.864,15.52h3.764c-0.051-0.566-0.195-0.992-0.432-1.275
		c-0.363-0.439-0.836-0.66-1.416-0.66c-0.525,0-0.965,0.176-1.322,0.525C126.099,14.461,125.903,14.932,125.864,15.52z"/>
	<path fill="#002549" d="M140.241,18.706c-0.422,0.359-0.83,0.613-1.223,0.762c-0.391,0.148-0.811,0.223-1.26,0.223
		c-0.74,0-1.311-0.18-1.707-0.543c-0.396-0.359-0.598-0.824-0.598-1.387c0-0.33,0.076-0.631,0.225-0.904
		c0.15-0.271,0.35-0.492,0.592-0.656c0.242-0.166,0.518-0.291,0.822-0.375c0.225-0.059,0.563-0.115,1.016-0.172
		c0.924-0.109,1.602-0.24,2.037-0.393c0.006-0.156,0.008-0.256,0.008-0.299c0-0.465-0.107-0.793-0.324-0.984
		c-0.291-0.258-0.727-0.387-1.301-0.387c-0.537,0-0.936,0.094-1.189,0.283c-0.258,0.188-0.447,0.52-0.568,0.998l-1.117-0.152
		c0.102-0.479,0.268-0.863,0.502-1.158c0.232-0.293,0.568-0.52,1.008-0.678c0.439-0.16,0.951-0.238,1.531-0.238
		c0.574,0,1.043,0.066,1.402,0.203c0.359,0.135,0.623,0.305,0.793,0.51s0.287,0.465,0.355,0.777
		c0.037,0.195,0.057,0.547,0.057,1.055v1.523c0,1.063,0.025,1.732,0.074,2.016c0.047,0.281,0.145,0.551,0.287,0.811h-1.193
		C140.351,19.301,140.276,19.024,140.241,18.706z M140.146,16.155c-0.414,0.168-1.035,0.313-1.865,0.432
		c-0.471,0.066-0.803,0.145-0.996,0.229c-0.195,0.084-0.346,0.209-0.451,0.371c-0.105,0.164-0.158,0.344-0.158,0.543
		c0,0.305,0.115,0.561,0.346,0.762c0.23,0.203,0.568,0.307,1.014,0.307c0.439,0,0.83-0.098,1.174-0.289
		c0.342-0.193,0.594-0.457,0.756-0.791c0.121-0.258,0.186-0.639,0.186-1.145v-0.418H140.146z"/>
	<path fill="#002549" d="M143.073,22.122v-9.324h1.041v0.875c0.246-0.342,0.521-0.6,0.832-0.771c0.309-0.17,0.684-0.256,1.123-0.256
		c0.574,0,1.084,0.148,1.521,0.443c0.439,0.297,0.773,0.715,0.996,1.254c0.225,0.539,0.338,1.131,0.338,1.773
		c0,0.689-0.125,1.313-0.373,1.863c-0.246,0.553-0.605,0.977-1.078,1.27c-0.473,0.295-0.969,0.441-1.486,0.441
		c-0.381,0-0.725-0.08-1.025-0.242c-0.303-0.16-0.551-0.363-0.746-0.607v3.281H143.073z M144.108,16.206
		c0,0.867,0.176,1.508,0.525,1.924c0.35,0.414,0.775,0.621,1.275,0.621c0.508,0,0.941-0.215,1.305-0.645
		c0.361-0.43,0.543-1.096,0.543-1.996c0-0.859-0.178-1.502-0.531-1.93c-0.352-0.428-0.773-0.641-1.266-0.641
		c-0.486,0-0.918,0.227-1.293,0.682C144.296,14.676,144.108,15.338,144.108,16.206z"/>
	<path fill="#002549" d="M150.29,19.538v-6.74h1.029v1.021c0.262-0.479,0.504-0.795,0.727-0.945c0.223-0.152,0.467-0.23,0.732-0.23
		c0.385,0,0.775,0.123,1.174,0.369l-0.395,1.061c-0.277-0.166-0.559-0.248-0.838-0.248c-0.25,0-0.475,0.074-0.672,0.227
		c-0.199,0.15-0.342,0.357-0.426,0.625c-0.127,0.406-0.191,0.85-0.191,1.332v3.529H150.29z"/>
	<path fill="#002549" d="M159.247,17.366l1.18,0.146c-0.186,0.691-0.531,1.227-1.033,1.607c-0.504,0.381-1.146,0.57-1.93,0.57
		c-0.986,0-1.768-0.305-2.346-0.912c-0.578-0.605-0.867-1.459-0.867-2.555c0-1.133,0.293-2.014,0.877-2.641
		c0.584-0.625,1.34-0.939,2.271-0.939c0.9,0,1.639,0.307,2.209,0.922c0.57,0.613,0.855,1.477,0.855,2.59
		c0,0.066-0.002,0.168-0.006,0.305h-5.027c0.043,0.74,0.252,1.307,0.629,1.701c0.375,0.393,0.848,0.59,1.408,0.59
		c0.42,0,0.777-0.109,1.072-0.33C158.839,18.2,159.073,17.85,159.247,17.366z M155.495,15.52h3.764
		c-0.051-0.566-0.193-0.992-0.432-1.275c-0.363-0.439-0.836-0.66-1.414-0.66c-0.525,0-0.967,0.176-1.324,0.525
		C155.731,14.461,155.534,14.932,155.495,15.52z"/>
	<path fill="#002549" d="M161.862,19.538v-6.74h1.027v0.957c0.494-0.74,1.209-1.109,2.146-1.109c0.406,0,0.779,0.072,1.121,0.219
		c0.34,0.146,0.594,0.338,0.764,0.574s0.287,0.52,0.355,0.844c0.043,0.213,0.063,0.582,0.063,1.111v4.146h-1.143v-4.102
		c0-0.467-0.045-0.813-0.135-1.045c-0.088-0.23-0.246-0.414-0.473-0.553c-0.227-0.137-0.492-0.205-0.797-0.205
		c-0.486,0-0.906,0.154-1.26,0.463s-0.529,0.896-0.529,1.758v3.684h-1.141V19.538z"/>
	<path fill="#002549" d="M173.466,19.538v-0.852c-0.428,0.67-1.057,1.004-1.885,1.004c-0.539,0-1.031-0.148-1.482-0.443
		c-0.451-0.297-0.801-0.711-1.047-1.242c-0.248-0.531-0.373-1.143-0.373-1.83c0-0.674,0.113-1.283,0.338-1.832
		c0.225-0.547,0.561-0.969,1.01-1.26c0.447-0.293,0.949-0.438,1.504-0.438c0.406,0,0.768,0.086,1.086,0.256
		c0.316,0.172,0.574,0.396,0.773,0.67v-3.338h1.137v9.307h-1.061V19.538z M169.853,16.174c0,0.863,0.184,1.508,0.547,1.936
		s0.793,0.643,1.287,0.643c0.5,0,0.926-0.205,1.273-0.613s0.523-1.031,0.523-1.869c0-0.922-0.178-1.6-0.533-2.031
		s-0.793-0.646-1.314-0.646c-0.508,0-0.932,0.207-1.271,0.621S169.853,15.28,169.853,16.174z"/>
	<path fill="#002549" d="M176.329,11.545v-1.313h1.143v1.313H176.329z M176.329,19.538v-6.74h1.143v6.74H176.329z"/>
	<path fill="#002549" d="M178.606,19.538V18.61l4.291-4.926c-0.486,0.025-0.916,0.039-1.287,0.039h-2.75v-0.928h5.51v0.756
		l-3.648,4.279l-0.705,0.779c0.512-0.039,0.992-0.059,1.441-0.059h3.115v0.984h-5.967V19.538z"/>
	<path fill="#002549" d="M190.108,18.706c-0.424,0.359-0.83,0.613-1.223,0.762c-0.391,0.148-0.811,0.223-1.26,0.223
		c-0.74,0-1.311-0.18-1.707-0.543c-0.396-0.359-0.598-0.824-0.598-1.387c0-0.33,0.076-0.631,0.225-0.904
		c0.15-0.271,0.348-0.492,0.592-0.656c0.242-0.166,0.518-0.291,0.822-0.375c0.223-0.059,0.563-0.115,1.016-0.172
		c0.924-0.109,1.602-0.24,2.037-0.393c0.004-0.156,0.006-0.256,0.006-0.299c0-0.465-0.105-0.793-0.322-0.984
		c-0.291-0.258-0.727-0.387-1.303-0.387c-0.535,0-0.934,0.094-1.188,0.283c-0.258,0.188-0.447,0.52-0.568,0.998l-1.117-0.152
		c0.102-0.479,0.268-0.863,0.502-1.158c0.232-0.293,0.568-0.52,1.008-0.678c0.439-0.16,0.951-0.238,1.529-0.238
		c0.576,0,1.043,0.066,1.404,0.203c0.359,0.135,0.623,0.305,0.793,0.51s0.287,0.465,0.355,0.777
		c0.037,0.195,0.057,0.547,0.057,1.055v1.523c0,1.063,0.025,1.732,0.074,2.016c0.047,0.281,0.145,0.551,0.287,0.811h-1.193
		C190.22,19.301,190.142,19.024,190.108,18.706z M190.013,16.155c-0.414,0.168-1.037,0.313-1.867,0.432
		c-0.469,0.066-0.801,0.145-0.994,0.229c-0.195,0.084-0.346,0.209-0.451,0.371c-0.105,0.164-0.158,0.344-0.158,0.543
		c0,0.305,0.115,0.561,0.346,0.762c0.23,0.203,0.568,0.307,1.014,0.307c0.439,0,0.83-0.098,1.174-0.289
		c0.342-0.193,0.594-0.457,0.756-0.791c0.121-0.258,0.184-0.639,0.184-1.145v-0.418H190.013z"/>
	<path fill="#002549" d="M191.487,22.153l0.215-0.971c0.229,0.059,0.408,0.088,0.539,0.088c0.232,0,0.406-0.078,0.521-0.23
		c0.115-0.154,0.172-0.541,0.172-1.158v-7.084h1.143v7.107c0,0.83-0.107,1.408-0.324,1.734c-0.275,0.422-0.732,0.635-1.371,0.635
		C192.073,22.274,191.774,22.233,191.487,22.153z M192.933,11.559v-1.326h1.145v1.326H192.933z"/>
	<path fill="#002549" d="M200.442,17.366l1.182,0.146c-0.188,0.691-0.531,1.227-1.035,1.607s-1.146,0.57-1.93,0.57
		c-0.986,0-1.77-0.305-2.348-0.912c-0.574-0.605-0.863-1.459-0.863-2.555c0-1.133,0.291-2.014,0.875-2.641
		c0.584-0.625,1.342-0.939,2.271-0.939c0.9,0,1.639,0.307,2.209,0.922c0.57,0.613,0.857,1.477,0.857,2.59
		c0,0.066-0.002,0.168-0.008,0.305h-5.027c0.043,0.74,0.252,1.307,0.629,1.701c0.377,0.393,0.846,0.59,1.41,0.59
		c0.418,0,0.775-0.109,1.072-0.33S200.269,17.85,200.442,17.366z M196.692,15.52h3.764c-0.051-0.566-0.195-0.992-0.432-1.275
		c-0.363-0.439-0.838-0.66-1.416-0.66c-0.525,0-0.967,0.176-1.322,0.525C196.927,14.461,196.728,14.932,196.692,15.52z"/>
	<circle fill="#FFFFFF" stroke="#FFCC73" stroke-miterlimit="10" cx="30.784" cy="14.766" r="4.418"/>
</g>
</svg>
