<?xml version="1.0" encoding="utf-8"?>
<!-- Generator: Adobe Illustrator 16.0.0, SVG Export Plug-In . SVG Version: 6.00 Build 0)  -->
<!DOCTYPE svg PUBLIC "-//W3C//DTD SVG 1.1//EN" "http://www.w3.org/Graphics/SVG/1.1/DTD/svg11.dtd">
<svg version="1.1" id="Capa_1" xmlns="http://www.w3.org/2000/svg" xmlns:xlink="http://www.w3.org/1999/xlink" x="0px" y="0px"
	 width="231.548px" height="74.253px" viewBox="0 0 231.548 74.253" enable-background="new 0 0 231.548 74.253"
	 xml:space="preserve">
<g>
	<g opacity="0.5">
		<g>
			<g>
				<g>
					<g>
						<defs>
							<rect id="SVGID_1_" width="231.548" height="74.253"/>
						</defs>
						<clipPath id="SVGID_2_">
							<use xlink:href="#SVGID_1_"  overflow="visible"/>
						</clipPath>
						<g clip-path="url(#SVGID_2_)">
							<rect x="0.001" fill="#FFFFFF" width="231.543" height="74.253"/>
						</g>
					</g>
				</g>
			</g>
		</g>
	</g>
	<g>
		<rect x="0.001" fill="#0C488D" width="231.543" height="48.153"/>
	</g>
	<g enable-background="new    ">
		<path d="M58.054,57.457h2.906c0.654,0,1.154,0.05,1.499,0.149c0.462,0.137,0.856,0.379,1.187,0.727
			c0.33,0.347,0.58,0.771,0.752,1.275c0.172,0.502,0.258,1.123,0.258,1.86c0,0.647-0.08,1.206-0.242,1.677
			c-0.196,0.571-0.478,1.035-0.842,1.391c-0.276,0.269-0.648,0.479-1.117,0.629c-0.352,0.109-0.82,0.166-1.407,0.166h-2.992
			L58.054,57.457L58.054,57.457z M59.644,58.789v5.216h1.188c0.443,0,0.765-0.025,0.961-0.076c0.258-0.064,0.472-0.173,0.642-0.326
			c0.17-0.154,0.31-0.408,0.417-0.761c0.108-0.353,0.161-0.834,0.161-1.442c0-0.607-0.054-1.076-0.161-1.401
			s-0.258-0.58-0.451-0.763c-0.193-0.184-0.438-0.307-0.736-0.371c-0.221-0.049-0.656-0.074-1.305-0.074L59.644,58.789
			L59.644,58.789z"/>
		<path d="M66.004,65.331v-7.874h5.838v1.332h-4.249v1.745h3.953v1.326h-3.953v2.145h4.398v1.326H66.004z"/>
		<path d="M72.938,62.769l1.548-0.15c0.092,0.521,0.281,0.902,0.565,1.146c0.285,0.243,0.669,0.365,1.151,0.365
			c0.513,0,0.898-0.108,1.158-0.325s0.389-0.47,0.389-0.76c0-0.188-0.055-0.346-0.163-0.477c-0.109-0.131-0.3-0.244-0.572-0.34
			c-0.187-0.064-0.61-0.18-1.272-0.345c-0.853-0.211-1.451-0.471-1.795-0.778c-0.482-0.434-0.725-0.961-0.725-1.584
			c0-0.402,0.114-0.777,0.341-1.125c0.228-0.351,0.556-0.615,0.982-0.799c0.428-0.183,0.944-0.273,1.55-0.273
			c0.988,0,1.732,0.217,2.23,0.649c0.5,0.435,0.763,1.013,0.787,1.735l-1.59,0.068c-0.068-0.403-0.214-0.694-0.438-0.873
			c-0.225-0.176-0.561-0.266-1.008-0.266c-0.461,0-0.823,0.096-1.084,0.284c-0.168,0.122-0.252,0.285-0.252,0.489
			c0,0.187,0.078,0.346,0.235,0.478c0.201,0.169,0.688,0.345,1.461,0.527c0.773,0.182,1.347,0.371,1.716,0.565
			c0.371,0.195,0.662,0.463,0.871,0.801c0.209,0.339,0.313,0.757,0.313,1.255c0,0.45-0.125,0.872-0.376,1.268
			c-0.25,0.394-0.605,0.687-1.063,0.878c-0.459,0.191-1.029,0.287-1.714,0.287c-0.995,0-1.76-0.23-2.293-0.689
			C73.36,64.319,73.042,63.649,72.938,62.769z"/>
		<path d="M85.716,62.437l1.542,0.488c-0.235,0.859-0.629,1.498-1.179,1.915c-0.551,0.417-1.248,0.626-2.092,0.626
			c-1.045,0-1.906-0.357-2.578-1.072c-0.674-0.714-1.01-1.689-1.01-2.93c0-1.311,0.338-2.328,1.014-3.055
			c0.678-0.725,1.566-1.086,2.67-1.086c0.963,0,1.746,0.283,2.347,0.854c0.358,0.337,0.626,0.82,0.806,1.45l-1.574,0.376
			c-0.092-0.408-0.287-0.73-0.582-0.967c-0.297-0.236-0.655-0.354-1.077-0.354c-0.583,0-1.058,0.21-1.421,0.628
			c-0.363,0.42-0.545,1.098-0.545,2.036c0,0.995,0.179,1.704,0.537,2.127c0.357,0.423,0.824,0.634,1.396,0.634
			c0.422,0,0.786-0.135,1.09-0.401C85.364,63.435,85.583,63.013,85.716,62.437z"/>
		<path d="M95.722,65.331h-1.729l-0.688-1.789h-3.147l-0.649,1.789h-1.687l3.066-7.874h1.682L95.722,65.331z M92.795,62.216
			l-1.085-2.922l-1.063,2.922H92.795z"/>
		<path d="M96.571,65.331v-7.874h3.346c0.841,0,1.453,0.069,1.834,0.212s0.687,0.395,0.916,0.755
			c0.229,0.36,0.344,0.774,0.344,1.241c0,0.59-0.174,1.078-0.521,1.463c-0.347,0.385-0.867,0.628-1.558,0.729
			c0.345,0.2,0.627,0.42,0.853,0.66c0.224,0.24,0.524,0.666,0.904,1.278l0.961,1.536h-1.9l-1.149-1.713
			c-0.407-0.613-0.688-1-0.838-1.158c-0.149-0.159-0.31-0.27-0.478-0.327c-0.168-0.06-0.436-0.089-0.801-0.089h-0.322v3.287H96.571
			L96.571,65.331z M98.159,60.787h1.177c0.763,0,1.239-0.032,1.429-0.097c0.189-0.065,0.338-0.177,0.446-0.334
			c0.108-0.156,0.161-0.354,0.161-0.591c0-0.265-0.071-0.479-0.213-0.642s-0.34-0.268-0.599-0.311
			c-0.129-0.018-0.516-0.025-1.159-0.025h-1.242V60.787z"/>
		<path d="M108.172,62.437V61.11h3.427v3.137c-0.333,0.322-0.814,0.605-1.447,0.852c-0.633,0.245-1.272,0.368-1.92,0.368
			c-0.824,0-1.543-0.173-2.154-0.519c-0.612-0.346-1.072-0.84-1.381-1.482c-0.308-0.643-0.461-1.342-0.461-2.098
			c0-0.82,0.172-1.549,0.516-2.188c0.344-0.637,0.847-1.126,1.509-1.466c0.505-0.263,1.133-0.392,1.885-0.392
			c0.978,0,1.741,0.203,2.291,0.613s0.903,0.978,1.062,1.7l-1.579,0.295c-0.111-0.387-0.319-0.69-0.626-0.915
			c-0.307-0.224-0.688-0.336-1.146-0.336c-0.695,0-1.246,0.221-1.656,0.661c-0.41,0.438-0.615,1.095-0.615,1.96
			c0,0.936,0.207,1.637,0.623,2.104c0.416,0.468,0.959,0.701,1.633,0.701c0.333,0,0.667-0.065,1.001-0.197
			c0.335-0.131,0.623-0.288,0.862-0.476v-0.997H108.172L108.172,62.437z"/>
		<path d="M120.166,65.331h-1.73l-0.688-1.789H114.6l-0.649,1.789h-1.688l3.066-7.874h1.682L120.166,65.331z M117.24,62.216
			l-1.086-2.922l-1.063,2.922H117.24z"/>
		<path d="M121.015,65.331v-7.874h3.346c0.842,0,1.453,0.069,1.834,0.212s0.688,0.395,0.916,0.755s0.344,0.774,0.344,1.241
			c0,0.59-0.174,1.078-0.521,1.463c-0.346,0.385-0.865,0.628-1.557,0.729c0.344,0.2,0.627,0.42,0.852,0.66s0.525,0.666,0.904,1.278
			l0.961,1.536h-1.898l-1.15-1.713c-0.408-0.613-0.688-1-0.838-1.158c-0.15-0.159-0.311-0.27-0.479-0.327
			c-0.17-0.06-0.436-0.089-0.801-0.089h-0.32v3.287H121.015L121.015,65.331z M122.605,60.787h1.176c0.764,0,1.238-0.032,1.43-0.097
			c0.191-0.065,0.338-0.177,0.445-0.334c0.107-0.156,0.16-0.354,0.16-0.591c0-0.265-0.07-0.479-0.211-0.642
			c-0.143-0.163-0.342-0.268-0.6-0.311c-0.129-0.018-0.516-0.025-1.16-0.025h-1.24V60.787L122.605,60.787z"/>
		<path d="M131.687,61.442c0-0.802,0.119-1.476,0.359-2.02c0.18-0.4,0.424-0.761,0.734-1.08c0.309-0.318,0.646-0.555,1.018-0.709
			c0.49-0.207,1.055-0.311,1.697-0.311c1.16,0,2.088,0.358,2.785,1.078c0.693,0.721,1.043,1.722,1.043,3.004
			c0,1.271-0.346,2.266-1.035,2.982c-0.691,0.719-1.615,1.077-2.771,1.077c-1.172,0-2.104-0.356-2.793-1.071
			C132.033,63.68,131.687,62.694,131.687,61.442z M133.326,61.389c0,0.892,0.205,1.567,0.617,2.027c0.41,0.46,0.934,0.69,1.566,0.69
			s1.154-0.229,1.563-0.686c0.404-0.457,0.607-1.143,0.607-2.055c0-0.902-0.195-1.575-0.594-2.021
			c-0.395-0.444-0.92-0.666-1.576-0.666c-0.654,0-1.184,0.226-1.584,0.675C133.527,59.805,133.326,60.483,133.326,61.389z"/>
		<path d="M140.572,57.457h3.146c0.623,0,1.088,0.026,1.395,0.077c0.307,0.053,0.58,0.16,0.82,0.326
			c0.242,0.164,0.443,0.383,0.605,0.656c0.16,0.274,0.24,0.581,0.24,0.922c0,0.368-0.1,0.707-0.297,1.016
			c-0.199,0.308-0.471,0.539-0.811,0.693c0.48,0.139,0.85,0.377,1.107,0.713c0.256,0.338,0.387,0.732,0.387,1.188
			c0,0.357-0.084,0.707-0.25,1.045c-0.166,0.339-0.395,0.609-0.682,0.813c-0.289,0.203-0.645,0.326-1.066,0.373
			c-0.266,0.027-0.904,0.047-1.918,0.054h-2.68v-7.875H140.572z M142.16,58.769v1.82h1.043c0.619,0,1.004-0.01,1.154-0.027
			c0.271-0.031,0.484-0.125,0.643-0.281c0.154-0.155,0.232-0.36,0.232-0.614c0-0.244-0.066-0.441-0.201-0.595
			c-0.135-0.151-0.334-0.244-0.6-0.276c-0.156-0.019-0.609-0.026-1.357-0.026H142.16L142.16,58.769z M142.16,61.899v2.105h1.473
			c0.572,0,0.938-0.018,1.09-0.049c0.236-0.043,0.43-0.147,0.578-0.314c0.148-0.166,0.223-0.389,0.223-0.668
			c0-0.236-0.057-0.438-0.172-0.602c-0.115-0.165-0.279-0.285-0.498-0.36c-0.215-0.075-0.686-0.112-1.408-0.112H142.16z"/>
		<path d="M151.351,57.457h1.584v4.983c0,0.651-0.057,1.153-0.172,1.504c-0.154,0.459-0.434,0.826-0.838,1.104
			s-0.938,0.417-1.602,0.417c-0.775,0-1.375-0.218-1.793-0.652c-0.42-0.436-0.631-1.074-0.635-1.916l1.498-0.172
			c0.02,0.451,0.084,0.771,0.199,0.957c0.172,0.282,0.434,0.424,0.783,0.424c0.355,0,0.605-0.102,0.752-0.304
			c0.148-0.202,0.221-0.622,0.221-1.259v-5.087H151.351z"/>
		<path d="M154.626,65.331v-7.874h5.838v1.332h-4.248v1.745h3.953v1.326h-3.953v2.145h4.398v1.326H154.626z"/>
	</g>
	<g enable-background="new    ">
		<path d="M163.736,65.331v-6.542H161.4v-1.332h6.256v1.332h-2.33v6.542H163.736z"/>
	</g>
	<g enable-background="new    ">
		<path d="M168.162,61.442c0-0.802,0.121-1.476,0.359-2.02c0.18-0.4,0.424-0.761,0.732-1.08c0.311-0.318,0.648-0.555,1.02-0.709
			c0.488-0.207,1.057-0.311,1.695-0.311c1.16,0,2.088,0.358,2.785,1.078c0.697,0.721,1.045,1.722,1.045,3.004
			c0,1.271-0.346,2.266-1.037,2.982c-0.689,0.717-1.613,1.077-2.77,1.077c-1.172,0-2.104-0.356-2.793-1.071
			C168.507,63.68,168.162,62.694,168.162,61.442z M169.8,61.389c0,0.892,0.205,1.567,0.617,2.027s0.936,0.69,1.568,0.69
			c0.635,0,1.152-0.229,1.561-0.686c0.406-0.457,0.609-1.143,0.609-2.055c0-0.902-0.197-1.575-0.594-2.021
			c-0.396-0.444-0.922-0.666-1.576-0.666s-1.186,0.226-1.584,0.675C170.001,59.803,169.8,60.483,169.8,61.389z"/>
	</g>
	<g>
		<path fill="#FEFEFE" d="M127.947,29.53c-1.168,0-1.943,0.972-1.943,1.945v2.921h-18.297v-2.921c0-0.973-0.977-1.945-1.953-1.945
			c-1.16,0-1.939,0.972-1.939,1.945v4.869c0,1.166,0.779,1.943,1.939,1.943h22.194c0.971,0,1.75-0.777,1.75-1.943v-4.869
			C129.697,30.502,128.916,29.53,127.947,29.53 M116.271,31.67c0.189,0.199,0.771,0.199,1.162,0l6.625-6.808
			c0.188-0.197,0.188-0.392,0.188-0.784c-0.188-0.194-0.381-0.388-0.576-0.388h-3.313V11.43c0-0.973-0.578-1.561-1.363-1.561h-4.286
			c-0.967,0-1.557,0.588-1.557,1.561v12.26h-3.107c-0.389,0-0.588,0.194-0.78,0.388c0,0.392,0,0.587,0.192,0.784L116.271,31.67z"/>
	</g>
</g>
</svg>
