<?xml version="1.0" encoding="utf-8"?>
<!-- Generator: Adobe Illustrator 16.0.0, SVG Export Plug-In . SVG Version: 6.00 Build 0)  -->
<!DOCTYPE svg PUBLIC "-//W3C//DTD SVG 1.1//EN" "http://www.w3.org/Graphics/SVG/1.1/DTD/svg11.dtd">
<svg version="1.1" id="Capa_1" xmlns="http://www.w3.org/2000/svg" xmlns:xlink="http://www.w3.org/1999/xlink" x="0px" y="0px"
	 width="232.702px" height="74.253px" viewBox="0 0 232.702 74.253" enable-background="new 0 0 232.702 74.253"
	 xml:space="preserve">
<g>
	<g opacity="0.5">
		<g>
			<g>
				<g>
					<g>
						<defs>
							<rect id="SVGID_1_" x="0.541" width="232.161" height="74.253"/>
						</defs>
						<clipPath id="SVGID_2_">
							<use xlink:href="#SVGID_1_"  overflow="visible"/>
						</clipPath>
						<g clip-path="url(#SVGID_2_)">
							<rect x="0.541" fill="#FFFFFF" width="232.157" height="74.253"/>
						</g>
					</g>
				</g>
			</g>
		</g>
	</g>
	<g>
		<rect width="232.58" height="48.153"/>
	</g>
	<g enable-background="new    ">
		<path d="M65.194,57.457h2.906c0.655,0,1.155,0.05,1.499,0.149c0.462,0.137,0.857,0.379,1.187,0.727
			c0.33,0.347,0.58,0.771,0.752,1.275c0.172,0.502,0.258,1.123,0.258,1.86c0,0.647-0.081,1.206-0.242,1.677
			c-0.197,0.571-0.478,1.035-0.843,1.391c-0.276,0.269-0.648,0.479-1.117,0.629c-0.351,0.109-0.82,0.166-1.407,0.166h-2.992
			L65.194,57.457L65.194,57.457z M66.785,58.789v5.216h1.187c0.444,0,0.765-0.025,0.961-0.076c0.258-0.064,0.472-0.173,0.642-0.326
			c0.17-0.154,0.309-0.408,0.417-0.761c0.108-0.353,0.161-0.834,0.161-1.442c0-0.607-0.054-1.076-0.161-1.401
			s-0.258-0.58-0.451-0.763c-0.193-0.184-0.438-0.307-0.736-0.371c-0.222-0.049-0.657-0.074-1.305-0.074L66.785,58.789
			L66.785,58.789z"/>
		<path d="M73.145,65.331v-7.874h5.838v1.332h-4.249v1.745h3.953v1.326h-3.953v2.145h4.399v1.326H73.145z"/>
		<path d="M80.079,62.769l1.547-0.15c0.093,0.521,0.282,0.902,0.566,1.146c0.285,0.243,0.669,0.365,1.152,0.365
			c0.512,0,0.898-0.108,1.157-0.325c0.26-0.217,0.39-0.47,0.39-0.76c0-0.188-0.055-0.346-0.164-0.477s-0.3-0.244-0.572-0.34
			c-0.186-0.064-0.61-0.18-1.273-0.345c-0.852-0.211-1.45-0.471-1.794-0.778c-0.483-0.434-0.725-0.961-0.725-1.584
			c0-0.402,0.114-0.777,0.341-1.125c0.227-0.351,0.555-0.615,0.982-0.799c0.428-0.183,0.945-0.273,1.55-0.273
			c0.988,0,1.732,0.217,2.231,0.649c0.5,0.435,0.762,1.013,0.787,1.735l-1.59,0.068c-0.068-0.403-0.214-0.694-0.438-0.873
			c-0.224-0.176-0.56-0.266-1.007-0.266c-0.462,0-0.824,0.096-1.085,0.284c-0.168,0.122-0.252,0.285-0.252,0.489
			c0,0.187,0.079,0.346,0.236,0.478c0.201,0.169,0.688,0.345,1.461,0.527c0.773,0.182,1.346,0.371,1.716,0.565
			c0.371,0.195,0.661,0.463,0.87,0.801c0.21,0.339,0.314,0.757,0.314,1.255c0,0.45-0.125,0.872-0.376,1.268
			c-0.25,0.394-0.605,0.687-1.063,0.878s-1.029,0.287-1.713,0.287c-0.996,0-1.76-0.23-2.293-0.689
			C80.5,64.319,80.183,63.649,80.079,62.769z"/>
		<path d="M92.855,62.437l1.542,0.488c-0.236,0.859-0.629,1.498-1.179,1.915c-0.55,0.417-1.247,0.626-2.092,0.626
			c-1.045,0-1.905-0.357-2.578-1.072c-0.673-0.714-1.01-1.689-1.01-2.93c0-1.311,0.338-2.328,1.015-3.055
			c0.677-0.725,1.566-1.086,2.669-1.086c0.963,0,1.746,0.283,2.347,0.854c0.358,0.337,0.626,0.82,0.806,1.45l-1.574,0.376
			c-0.093-0.408-0.288-0.73-0.583-0.967c-0.296-0.236-0.655-0.354-1.077-0.354c-0.583,0-1.057,0.21-1.421,0.628
			c-0.363,0.42-0.545,1.098-0.545,2.036c0,0.995,0.179,1.704,0.537,2.127s0.824,0.634,1.396,0.634c0.422,0,0.786-0.135,1.09-0.401
			C92.504,63.435,92.724,63.013,92.855,62.437z"/>
		<path d="M102.862,65.331h-1.729l-0.688-1.789h-3.147l-0.65,1.789h-1.687l3.067-7.874h1.681L102.862,65.331z M99.936,62.216
			l-1.085-2.922l-1.063,2.922H99.936z"/>
		<path d="M103.71,65.331v-7.874h3.346c0.841,0,1.453,0.069,1.834,0.212s0.687,0.395,0.916,0.755s0.344,0.774,0.344,1.241
			c0,0.59-0.174,1.078-0.521,1.463c-0.347,0.385-0.867,0.628-1.558,0.729c0.344,0.2,0.627,0.42,0.852,0.66
			c0.224,0.24,0.525,0.666,0.905,1.278l0.961,1.536h-1.901l-1.149-1.713c-0.408-0.613-0.688-1-0.838-1.158
			c-0.15-0.159-0.31-0.27-0.478-0.327c-0.168-0.06-0.435-0.089-0.8-0.089h-0.322v3.287H103.71z M105.3,60.787h1.176
			c0.763,0,1.239-0.032,1.429-0.097c0.19-0.065,0.338-0.177,0.446-0.334c0.108-0.156,0.161-0.354,0.161-0.591
			c0-0.265-0.071-0.479-0.212-0.642c-0.142-0.163-0.341-0.268-0.599-0.311c-0.129-0.018-0.516-0.025-1.16-0.025h-1.241
			C105.301,58.788,105.301,60.787,105.3,60.787z"/>
		<path d="M115.313,62.437V61.11h3.428v3.137c-0.334,0.322-0.816,0.605-1.449,0.852c-0.631,0.245-1.271,0.368-1.92,0.368
			c-0.822,0-1.541-0.173-2.152-0.519c-0.612-0.346-1.072-0.84-1.38-1.482c-0.308-0.643-0.462-1.342-0.462-2.098
			c0-0.82,0.172-1.549,0.516-2.188c0.344-0.637,0.848-1.126,1.509-1.466c0.505-0.263,1.134-0.392,1.886-0.392
			c0.979,0,1.741,0.203,2.292,0.613c0.549,0.41,0.902,0.978,1.061,1.7l-1.578,0.295c-0.111-0.387-0.32-0.69-0.627-0.915
			c-0.305-0.224-0.688-0.336-1.147-0.336c-0.693,0-1.246,0.221-1.656,0.661c-0.409,0.438-0.614,1.095-0.614,1.96
			c0,0.936,0.207,1.637,0.623,2.104c0.416,0.468,0.959,0.701,1.633,0.701c0.333,0,0.667-0.065,1.001-0.197
			c0.334-0.131,0.623-0.288,0.861-0.476v-0.997H115.313L115.313,62.437z"/>
		<path d="M127.307,65.331h-1.73l-0.688-1.789h-3.146l-0.65,1.789h-1.688l3.068-7.874h1.68L127.307,65.331z M124.379,62.216
			l-1.086-2.922l-1.063,2.922H124.379z"/>
		<path d="M128.155,65.331v-7.874h3.348c0.84,0,1.451,0.069,1.834,0.212c0.381,0.143,0.686,0.395,0.916,0.755
			c0.229,0.36,0.344,0.774,0.344,1.241c0,0.59-0.174,1.078-0.521,1.463s-0.867,0.628-1.559,0.729c0.344,0.2,0.627,0.42,0.852,0.66
			s0.525,0.666,0.904,1.278l0.963,1.536h-1.902l-1.148-1.713c-0.408-0.613-0.688-1-0.838-1.158c-0.15-0.159-0.311-0.27-0.479-0.327
			c-0.168-0.06-0.436-0.089-0.801-0.089h-0.322v3.287H128.155L128.155,65.331z M129.745,60.787h1.178
			c0.762,0,1.238-0.032,1.428-0.097c0.191-0.065,0.338-0.177,0.445-0.334c0.107-0.156,0.162-0.354,0.162-0.591
			c0-0.265-0.07-0.479-0.213-0.642c-0.141-0.163-0.342-0.268-0.6-0.311c-0.129-0.018-0.516-0.025-1.16-0.025h-1.24V60.787z"/>
		<path d="M139.149,65.331v-7.874h2.553c0.967,0,1.598,0.039,1.891,0.118c0.451,0.117,0.828,0.375,1.133,0.771
			c0.307,0.396,0.457,0.907,0.457,1.534c0,0.482-0.088,0.891-0.264,1.219c-0.176,0.329-0.398,0.588-0.668,0.776
			c-0.271,0.188-0.545,0.313-0.824,0.373c-0.381,0.075-0.93,0.112-1.65,0.112h-1.035v2.971H139.149z M140.741,58.789v2.233h0.869
			c0.627,0,1.045-0.041,1.258-0.123c0.211-0.082,0.377-0.211,0.496-0.388c0.119-0.175,0.18-0.379,0.18-0.61
			c0-0.287-0.084-0.523-0.252-0.709c-0.168-0.188-0.381-0.304-0.641-0.351c-0.189-0.036-0.57-0.054-1.143-0.054L140.741,58.789
			L140.741,58.789z"/>
		<path d="M146.481,57.457h2.906c0.654,0,1.154,0.05,1.498,0.149c0.463,0.137,0.857,0.379,1.188,0.727
			c0.33,0.347,0.58,0.771,0.752,1.275c0.172,0.502,0.258,1.123,0.258,1.86c0,0.647-0.08,1.206-0.242,1.677
			c-0.195,0.571-0.479,1.035-0.842,1.391c-0.277,0.269-0.648,0.479-1.117,0.629c-0.352,0.109-0.82,0.166-1.408,0.166h-2.992V57.457
			L146.481,57.457z M148.071,58.789v5.216h1.188c0.443,0,0.766-0.025,0.961-0.076c0.258-0.064,0.473-0.173,0.643-0.326
			c0.172-0.154,0.311-0.408,0.416-0.761c0.107-0.353,0.162-0.834,0.162-1.442c0-0.607-0.055-1.076-0.162-1.401
			c-0.105-0.325-0.258-0.58-0.449-0.763c-0.193-0.184-0.439-0.307-0.736-0.371c-0.223-0.049-0.656-0.074-1.305-0.074L148.071,58.789
			L148.071,58.789z"/>
		<path d="M154.442,65.331v-7.874h5.396v1.332h-3.807v1.864h3.285v1.332h-3.285v3.346H154.442z"/>
	</g>
	<g>
		<path fill="#FFFFFF" d="M110.854,15.24h-4.789c-0.737,0-1.337,0.598-1.337,1.337c0,0.738,0.6,1.336,1.337,1.336h4.789
			c0.737,0,1.338-0.598,1.338-1.336C112.191,15.838,111.59,15.24,110.854,15.24"/>
	</g>
	<g>
		<path fill="#FFFFFF" d="M110.854,20.795h-4.789c-0.737,0-1.337,0.598-1.337,1.337c0,0.738,0.6,1.336,1.337,1.336h4.789
			c0.737,0,1.338-0.598,1.338-1.336C112.191,21.393,111.59,20.795,110.854,20.795"/>
	</g>
	<g>
		<path fill="#FFFFFF" d="M116.473,30.154v1.302h0.689c0.834,0,0.834-0.499,0.834-0.663c0-0.158,0-0.639-0.834-0.639H116.473z"/>
	</g>
	<g>
		<path fill="#FFFFFF" d="M126.625,27.694h-2.176V14.145c0-0.351-0.139-0.687-0.387-0.934l-5.248-5.247
			c-0.248-0.248-0.584-0.387-0.934-0.387h-15.788c-1.432,0-2.596,1.164-2.596,2.594v27.813c0,1.432,1.164,2.594,2.596,2.594h19.762
			c1.432,0,2.596-1.162,2.596-2.594v-2.679h2.176c1.131,0,2.047-0.916,2.047-2.047v-3.516
			C128.672,28.611,127.756,27.694,126.625,27.694 M121.633,37.689h-19.316V10.466h13.73v3.883c0,0.94,0.764,1.702,1.703,1.702h3.883
			v11.643h-6.609c-1.131,0-2.048,0.917-2.048,2.048v3.516c0,1.131,0.917,2.047,2.048,2.047h6.609V37.689L121.633,37.689z
			 M118.84,30.793c0,0.93-0.646,1.508-1.68,1.508h-0.689v0.8c0,0.207-0.166,0.374-0.373,0.374H116c-0.207,0-0.375-0.167-0.375-0.374
			v-3.418c0-0.207,0.168-0.374,0.375-0.374h1.161C118.198,29.308,118.84,29.877,118.84,30.793 M120.961,33.475h-1.346
			c-0.207,0-0.375-0.167-0.375-0.374v-3.418c0-0.207,0.168-0.374,0.375-0.374h1.346c1.172,0,2.125,0.935,2.125,2.086
			C123.086,32.542,122.133,33.475,120.961,33.475 M126.323,29.78c0,0.207-0.168,0.374-0.375,0.374h-1.52v0.896h1.295
			c0.207,0,0.373,0.167,0.373,0.374v0.098c0,0.206-0.166,0.374-0.373,0.374h-1.295v1.205c0,0.207-0.166,0.374-0.373,0.374h-0.1
			c-0.205,0-0.373-0.167-0.373-0.374v-3.419c0-0.206,0.168-0.374,0.373-0.374h1.988c0.207,0,0.375,0.168,0.375,0.374L126.323,29.78
			L126.323,29.78z"/>
	</g>
	<g>
		<path fill="#FFFFFF" d="M120.961,30.154h-0.875v2.476h0.875c0.705,0,1.275-0.555,1.275-1.236
			C122.241,30.71,121.667,30.154,120.961,30.154"/>
	</g>
</g>
</svg>
