<?xml version="1.0" encoding="utf-8"?>
<!-- Generator: Adobe Illustrator 16.0.0, SVG Export Plug-In . SVG Version: 6.00 Build 0)  -->
<!DOCTYPE svg PUBLIC "-//W3C//DTD SVG 1.1//EN" "http://www.w3.org/Graphics/SVG/1.1/DTD/svg11.dtd">
<svg version="1.1" id="Capa_1" xmlns="http://www.w3.org/2000/svg" xmlns:xlink="http://www.w3.org/1999/xlink" x="0px" y="0px"
	 width="387.348px" height="523.679px" viewBox="0 0 387.348 523.679" enable-background="new 0 0 387.348 523.679"
	 xml:space="preserve">
<g>
	<defs>
		<rect id="SVGID_1_" width="387.348" height="523.679"/>
	</defs>
	<clipPath id="SVGID_2_">
		<use xlink:href="#SVGID_1_"  overflow="visible"/>
	</clipPath>
	<g clip-path="url(#SVGID_2_)">
		<g>
			
				<path fill="#ECBA97" stroke="#002549" stroke-width="0.979" stroke-linecap="round" stroke-linejoin="round" stroke-miterlimit="10" d="
				M271.968,195.052c-2.75-26.923-6.149-52.491-1.989-79.567l-41.205,34.1c0,0,4.832,18.756-1.42,50.298L271.968,195.052"/>
			
				<path fill="none" stroke="#9F7557" stroke-width="1.545" stroke-linecap="round" stroke-linejoin="round" stroke-miterlimit="10" d="
				M269.979,115.485l-41.205,34.1c0,0,4.832,18.756-1.42,50.298l44.614-4.831C269.218,168.129,265.818,142.561,269.979,115.485z"/>
			<path fill="#767F84" d="M103.556,220.286c-1.477-2.069-10.341,4.735-13.666,10.201c-3.324,5.466-9.603,16.106-5.164,19.356
				c4.443,3.251,9.965-1.773,14.398-11.304C103.558,229.009,105.351,222.799,103.556,220.286"/>
			
				<path fill="none" stroke="#8FA5AA" stroke-width="1.177" stroke-linecap="round" stroke-linejoin="round" stroke-miterlimit="10" d="
				M89.89,230.487c-3.324,5.466-9.603,16.106-5.164,19.356c4.443,3.251,9.965-1.773,14.398-11.304
				c4.434-9.53,6.227-15.74,4.432-18.253C102.079,218.217,93.215,225.021,89.89,230.487z"/>
			<path fill="#0C0C0C" d="M266.747,694.142c0,0,0.476-4.689,1.229-7.039c0.758-2.348,31.479-0.83,32.551,2.285
				c1.07,3.111,5.705,23.049,9.648,27.434c3.948,4.385,5.325,13.535,3.021,17.199c-2.309,3.666-10.883,5.053-25.975,5.199
				c-15.093,0.148-27.354-3.375-27.906-6.492c-0.553-3.119-1.801-9.775,1.256-16.832
				C263.627,708.839,265.74,697.535,266.747,694.142"/>
			<path fill="none" stroke="#1D1D1B" stroke-width="1.329" stroke-miterlimit="10" d="M267.979,687.103
				c0.758-2.348,31.479-0.83,32.551,2.285c1.07,3.111,5.705,23.049,9.648,27.434c3.948,4.385,5.325,13.535,3.021,17.199
				c-2.309,3.666-10.883,5.053-25.975,5.199c-15.093,0.148-27.354-3.375-27.906-6.492c-0.553-3.119-1.801-9.775,1.257-16.832
				c3.054-7.057,5.167-18.361,6.174-21.754C266.747,694.142,267.223,689.453,267.979,687.103z"/>
			<path fill="#282828" d="M266.693,688.496c0,0,0.475-4.686,1.23-7.035c0.758-2.348,31.48-0.828,32.553,2.283
				c1.07,3.113,3.621,24.424,7.566,28.811c3.947,4.387,7.406,12.158,5.101,15.822c-2.308,3.666-10.88,5.051-25.972,5.199
				c-15.093,0.146-27.357-3.375-27.906-6.492c-0.553-3.117-0.863-8.32,2.189-15.377C264.508,704.652,265.684,691.89,266.693,688.496
				"/>
			<path fill="none" stroke="#1D1D1B" stroke-width="1.329" stroke-miterlimit="10" d="M267.924,681.46
				c0.758-2.35,31.48-0.828,32.553,2.283c1.07,3.113,3.621,24.424,7.566,28.811c3.947,4.383,7.406,12.158,5.101,15.822
				c-2.308,3.666-10.88,5.051-25.972,5.199c-15.093,0.145-27.357-3.375-27.906-6.492c-0.553-3.117-0.863-8.32,2.189-15.377
				c3.053-7.055,4.229-19.816,5.236-23.211C266.693,688.496,267.166,683.81,267.924,681.46z"/>
			<path fill="#191919" d="M297.637,680.707c-0.189-5.293-23.883-4.338-24.197,0.238c0.396,3.484,1.354,13.191-1.338,18.057
				c-2.512,4.541-4.248,13.398-2.436,14.344c1.813,0.943,11.422-0.834,16.117-0.52l0.138-0.002
				c4.688-0.404,14.326,1.184,16.123,0.205c1.795-0.982-0.864-9.477-3.181-14.141C296.559,694.238,297.311,684.199,297.637,680.707"
				/>
			<path fill="none" stroke="#1D1D1B" stroke-width="0.982" stroke-miterlimit="10" d="M273.439,680.945
				c0.396,3.484,1.354,13.191-1.338,18.057c-2.512,4.541-4.248,13.398-2.436,14.344c1.813,0.943,11.422-0.834,16.117-0.52
				l0.138-0.002c4.688-0.404,14.326,1.184,16.123,0.205c1.795-0.982-0.864-9.477-3.181-14.141
				c-2.307-4.65-1.555-14.689-1.229-18.182C297.447,675.414,273.754,676.369,273.439,680.945z"/>
			<path fill="#7F8080" d="M299.24,708.562c1.623-0.299-0.059-5.893-1.485-6.262c-8.423-1.486-16.444-1.42-24.776,0.242
				c-1.562,0.475-2.818,6.303-1.367,6.289C280.799,707.521,289.818,707.404,299.24,708.562"/>
			<path fill="none" stroke="#1D1D1B" stroke-width="1.431" stroke-miterlimit="10" d="M297.755,702.3
				c-8.423-1.486-16.444-1.42-24.776,0.242c-1.562,0.475-2.818,6.303-1.367,6.289c9.188-1.313,18.207-1.428,27.631-0.271
				C300.865,708.263,299.184,702.669,297.755,702.3z"/>
			<path fill="#7F8080" d="M297.169,699.603c1.396-0.26,0.117-5.182-1.112-5.512c-7.309-1.334-14.305-1.277-21.531,0.211
				c-1.346,0.424-2.258,5.543-1.012,5.531C281.367,698.693,289.113,698.595,297.169,699.603"/>
			<path fill="none" stroke="#1D1D1B" stroke-width="1.556" stroke-miterlimit="10" d="M296.057,694.091
				c-7.309-1.334-14.305-1.277-21.531,0.211c-1.346,0.424-2.258,5.543-1.012,5.531c7.854-1.141,15.6-1.238,23.655-0.23
				C298.566,699.343,297.286,694.421,296.057,694.091z"/>
			<path fill="#7F8080" d="M295.57,690.392c1.225-0.197,0.221-3.984-0.855-4.24c-6.438-1.037-12.629-0.984-18.999,0.186
				c-1.175,0.332-1.862,4.271-0.776,4.258C281.781,689.718,288.552,689.632,295.57,690.392"/>
			<path fill="none" stroke="#1D1D1B" stroke-width="1.556" stroke-miterlimit="10" d="M294.713,686.152
				c-6.438-1.037-12.629-0.984-18.999,0.186c-1.175,0.332-1.862,4.271-0.776,4.258c6.846-0.877,13.615-0.963,20.633-0.203
				C296.793,690.195,295.789,686.408,294.713,686.152z"/>
			<path fill="#0C0C0C" d="M178.39,680.005c9.113-5.043,39.275-1.855,39.069,2.355c-0.208,4.211,1.4,12.799,1.928,16.262
				c0.531,3.461-7.798,8.297-15.443,11.342c-7.646,3.047-12.045,9.281-23.384,14.344c-11.343,5.063-30.968-1.43-33.224-4.131
				c-2.256-2.703-4.593-14.072-0.654-16.338c3.939-2.268,9.837-6.781,18.222-10.578C173.284,689.464,177.496,680.498,178.39,680.005
				"/>
			<path fill="none" stroke="#1D1D1B" stroke-width="1.329" stroke-miterlimit="10" d="M217.459,682.361
				c-0.208,4.211,1.4,12.799,1.928,16.262c0.531,3.461-7.798,8.297-15.443,11.342c-7.646,3.047-12.045,9.281-23.384,14.344
				c-11.343,5.064-30.968-1.43-33.224-4.131c-2.256-2.703-4.593-14.068-0.654-16.338c3.939-2.268,9.837-6.781,18.222-10.578
				c8.383-3.797,12.595-12.764,13.487-13.256C187.503,674.962,217.665,678.15,217.459,682.361z"/>
			<path fill="#282828" d="M178.345,675.3c9.113-5.043,39.85-1.877,39.646,2.334c-0.207,4.215,0.378,13.369,0.905,16.832
				c0.528,3.461-7.354,7.748-15,10.795c-7.646,3.045-12.043,9.279-23.384,14.344c-11.341,5.063-32.442-0.426-34.699-3.129
				c-2.255-2.701-3.855-14.57,0.083-16.838c3.94-2.268,10.577-7.285,18.958-11.082C173.239,684.761,177.451,675.794,178.345,675.3"
				/>
			<path fill="none" stroke="#1D1D1B" stroke-width="1.329" stroke-miterlimit="10" d="M217.99,677.634
				c-0.207,4.215,0.378,13.369,0.904,16.832c0.529,3.461-7.353,7.748-14.998,10.795c-7.646,3.045-12.044,9.279-23.385,14.344
				c-11.341,5.063-32.442-0.426-34.699-3.129c-2.255-2.701-3.855-14.57,0.083-16.838c3.94-2.268,10.577-7.285,18.958-11.082
				c8.385-3.795,12.599-12.762,13.491-13.256C187.458,670.257,218.195,673.423,217.99,677.634z"/>
			<path fill="#191919" d="M169.395,698.404c-3.215-3.152-12.945-3.059-15.779-3.385c0,0-0.021-0.002-0.199-0.164
				c3.263-2.061,7.119-4.342,11.438-6.299c8.384-3.795,12.598-12.762,13.49-13.256c4.276-2.367,13.313-2.926,21.682-2.416
				c0.136,2.051-0.168,7.773-2.623,12.416c-2.865,5.426-15.194,11.387-18.271,13.627
				C176.059,701.169,172.614,701.558,169.395,698.404"/>
			<path fill="none" stroke="#1D1D1B" stroke-width="1.329" stroke-miterlimit="10" d="M153.615,695.019
				c0,0-0.021-0.002-0.199-0.164c3.263-2.061,7.119-4.342,11.438-6.299c8.384-3.795,12.598-12.762,13.49-13.256
				c4.276-2.367,13.313-2.926,21.683-2.416c0.135,2.051-0.17,7.773-2.625,12.416c-2.864,5.426-15.193,11.387-18.271,13.627
				c-3.074,2.242-6.521,2.631-9.738-0.523C166.18,695.251,156.448,695.345,153.615,695.019z"/>
			<path fill="#7F8080" d="M156.855,692.902c-1.082,0.123-0.419-1.09,1.374-1.926c0.923-0.432,2.443-0.848,3.54-1.045
				c2.565-0.463,15.451,1.029,17.519,4.25c0.576,0.902-3.078,2.859-4.343,2.324C167.583,693.39,161.237,692.408,156.855,692.902"/>
			<path fill="none" stroke="#1D1D1B" stroke-width="1.329" stroke-miterlimit="10" d="M158.229,690.976
				c0.923-0.432,2.443-0.848,3.54-1.045c2.565-0.463,15.451,1.029,17.519,4.25c0.576,0.902-3.078,2.859-4.343,2.324
				c-7.36-3.115-13.708-4.098-18.09-3.604C155.773,693.025,156.436,691.812,158.229,690.976z"/>
			<path fill="#7F8080" d="M165.827,688.136c-1.08,0.141-0.438-1.084,1.341-1.951c0.914-0.447,2.427-0.887,3.521-1.105
				c2.559-0.504,15.469,0.768,17.587,3.951c0.596,0.895-3.029,2.912-4.302,2.4C176.561,688.441,170.199,687.566,165.827,688.136"/>
			<path fill="none" stroke="#1D1D1B" stroke-width="1.329" stroke-miterlimit="10" d="M167.168,686.185
				c0.914-0.447,2.427-0.887,3.521-1.105c2.559-0.504,15.469,0.768,17.587,3.951c0.596,0.895-3.029,2.912-4.302,2.4
				c-7.413-2.99-13.773-3.865-18.146-3.295C164.747,688.277,165.39,687.052,167.168,686.185z"/>
			<path fill="#7F8080" d="M172.431,683.066c-1.077,0.162-0.95-0.619,0.398-2.068c0.637-0.686,1.482-1.174,2.574-1.41
				c2.547-0.555,16.475-0.029,19.004,2.84c0.71,0.809-2.607,3.295-3.938,2.957C182.72,683.423,176.791,682.417,172.431,683.066"/>
			<path fill="none" stroke="#1D1D1B" stroke-width="1.329" stroke-miterlimit="10" d="M172.829,680.998
				c0.637-0.686,1.482-1.174,2.574-1.41c2.547-0.555,16.475-0.029,19.004,2.84c0.71,0.809-2.607,3.295-3.938,2.957
				c-7.749-1.961-13.678-2.967-18.038-2.314C171.354,683.228,171.481,682.447,172.829,680.998z"/>
			<path fill="#5E5E5E" d="M280.784,688.328c7.792,0,15.521-2.277,23.627-6.963l0.055-0.033l0.048-0.039
				c0.233-0.211,0.568-0.451,0.922-0.709c1.414-1.023,3.353-2.426,3.528-4.795c0.156-2.086-1.099-4.412-3.834-7.109
				c-2.224-3.9-0.021-84.977,2.302-104.982c2.976-25.625,3.533-128.252-0.975-143.785c-2.169-7.469-3.512-20.564-4.811-33.224
				c-1.369-13.332-2.662-25.924-4.808-29.965c-0.683-1.285-3.536-2.993-20.377-2.993c-32.008,0-92.095,6.178-92.699,6.241
				l-0.445,0.046l-6.67,34.779v0.059c-0.013,1.09-1.202,109.23-2.325,132.037c-0.569,11.57,0.319,30.027,1.18,47.875
				c0.859,17.822,1.747,36.25,1.18,47.766c-0.29,5.865-0.324,13.604-0.354,21.088c-0.052,11.438-0.107,24.398-1.245,26.023
				c-0.649,0.934-4.834,7.342-4.275,8.412c0.112,0.221,0.332,0.355,0.576,0.355l0.134-0.016c1.924,0.184,4.041,0.227,6.278,0.268
				c6.159,0.123,13.141,0.26,19.68,3.316c4.207,1.971,9.928,3.055,16.112,3.055c4.983,0,9.687-0.713,13.282-2.021
				c0.04-0.018,3.938-1.816,1.646-7.609c-1.625-5.473-1.789-55.275-1.104-74.715c0.444-12.74,2.873-38.76,5.22-63.922
				c2.559-27.414,5.202-55.764,5.237-66.547c0.058-18.713-0.276-42.479-0.334-46.426l6.094-0.506
				c0.083,7.559,0.913,78.357,3.63,106.703c1.281,13.336,4.313,39.803,7.249,65.395c3.655,31.871,7.433,64.822,7.884,72.957
				c0.146,3.705-1.43,7.398-2.695,10.367c-1.135,2.662-1.887,4.42-1.17,5.504c0.33,0.5,0.924,0.752,1.764,0.752
				c0.225,0,0.473-0.016,0.753-0.053c0.147-0.021,0.308-0.027,0.474-0.027c1.217,0,2.887,0.477,5,1.074
				C270.023,686.96,274.832,688.328,280.784,688.328"/>
			<path fill="#56564A" d="M276.468,354.332c11.028,0,18.812,0.729,19.845,2.672c4.061,7.649,5.07,47.574,9.568,63.072
				c4.496,15.5,3.912,118.059,0.955,143.547c-2.123,18.287-4.686,101.752-2.177,105.438c7.689,7.555,1.36,10.076-0.548,11.781
				c-9.18,5.301-16.944,6.881-23.327,6.881c-9.423,0-15.82-3.438-19.271-3.438c-0.195,0-0.379,0.01-0.554,0.027
				c-0.25,0.033-0.476,0.053-0.674,0.053c-4.49,0,3.022-7.994,2.709-16.041c-0.82-14.729-12.269-108.48-15.136-138.395
				c-2.891-30.125-3.635-107.303-3.635-107.303l-7.307,0.605c0,0,0.406,26.383,0.341,46.98
				c-0.063,20.598-9.521,103.744-10.457,130.449c-0.7,20.043-0.495,69.426,1.132,74.906c2.123,5.365-1.31,6.887-1.31,6.887
				c-3.507,1.273-8.2,1.967-13.038,1.967c-5.633,0-11.465-0.939-15.854-2.994c-9.13-4.27-19.141-2.947-26.285-3.652
				c-0.024,0.02-0.047,0.023-0.064,0.023c-0.416,0,1.761-4.334,4.195-7.813c1.987-2.842,0.938-31.764,1.709-47.43
				c1.139-23.084-3.496-72.557-2.358-95.639c1.139-23.08,2.326-132.063,2.326-132.063l6.574-34.288
				C183.831,360.569,244.122,354.332,276.468,354.332 M276.468,353.123c-32.038,0-92.158,6.184-92.764,6.242l-0.896,0.094
				l-0.17,0.883l-6.57,34.287l-0.021,0.107v0.109c-0.013,1.088-1.204,109.221-2.328,132.016c-0.57,11.6,0.321,30.07,1.182,47.936
				c0.858,17.807,1.744,36.219,1.18,47.701c-0.288,5.881-0.323,13.625-0.356,21.115c-0.048,10.725-0.105,24.068-1.137,25.684
				c-1.075,1.535-2.216,3.404-3.137,5.131c-1.546,2.908-1.454,3.379-1.181,3.906c0.218,0.418,0.645,0.676,1.112,0.676
				c0.051,0,0.102-0.002,0.15-0.006c1.928,0.178,4.028,0.217,6.248,0.262c6.101,0.119,13.014,0.256,19.438,3.266
				c4.282,2.002,10.095,3.104,16.367,3.104c5.054,0,9.831-0.725,13.45-2.039l0.039-0.014l0.035-0.02
				c1.553-0.684,3.947-3.314,1.968-8.381c-1.507-5.354-1.818-53.045-1.065-74.473c0.446-12.73,2.871-38.74,5.221-63.893
				c2.558-27.43,5.201-55.789,5.235-66.604c0.058-17.971-0.25-40.598-0.325-45.869l4.885-0.402
				c0.115,10.277,0.974,78.416,3.627,106.104c1.279,13.34,4.313,39.807,7.248,65.402c3.652,31.861,7.431,64.811,7.885,72.938
				c0.138,3.549-1.407,7.172-2.65,10.084c-1.213,2.842-2.013,4.725-1.117,6.076c0.449,0.678,1.211,1.023,2.269,1.023
				c0.253,0,0.53-0.021,0.831-0.061c0.119-0.014,0.252-0.021,0.396-0.021c1.131,0,2.768,0.465,4.834,1.053
				c3.545,1.008,8.4,2.391,14.438,2.391c7.898,0,15.729-2.307,23.934-7.045l0.107-0.061l0.095-0.084
				c0.211-0.189,0.533-0.422,0.876-0.67c1.423-1.029,3.575-2.59,3.774-5.24c0.169-2.246-1.114-4.699-3.923-7.494
				c-2.049-5.266,0.18-85.541,2.387-104.576c2.979-25.656,3.525-128.449-0.993-144.021c-2.149-7.412-3.492-20.479-4.789-33.111
				c-1.433-13.975-2.672-26.043-4.873-30.189C296.51,354.796,293.344,353.123,276.468,353.123"/>
			<path fill="none" stroke="#303030" stroke-miterlimit="10" d="M276.777,393.751c0,0,0,119.465,1.211,142.447
				c1.21,22.98,0,128.885,6.051,138.561"/>
			<path fill="none" stroke="#303030" stroke-miterlimit="10" d="M200.559,674.761c-6.05-9.678-3.629-113.158,0-134.934
				c3.783-22.701,7.258-119.469,7.258-119.469"/>
			<path fill="#79695C" d="M213.044,669.416c0,0,8.961,3.34,14.45,3.477c-0.225-2.033-3.975-4.938-4.124-8.434
				C221.342,666.582,226.214,670.238,213.044,669.416"/>
			<path fill="#303030" d="M226.627,682.457c0,0,3.434-1.518,1.311-6.887c-0.158-0.543-0.307-1.459-0.438-2.678
				c-5.49-0.137-10.89-3.477-10.89-3.477c4.201,0.26,7.767-2.271,10.328-4.957c-0.67-15.521-0.646-49.055-0.131-63.795
				c0.938-26.705,10.396-109.85,10.457-130.449c0.065-20.6-0.341-46.98-0.341-46.98l4.634-0.607c0,0,3.418,77.178,6.309,107.303
				c2.867,29.912,11.643,123.666,12.463,138.396c0.273,7.043-3.566,14.043-1.38,15.682c1.321-0.557,2.262-1.543,2.397-3.189
				c0.543-6.514-1.047-7.057,4.924-5.43c4.479,1.223,8.396-0.914,8.396-0.914s-1.479-1.391-3.514-2.342
				c-8.141-3.797-8.092-3.801-8.684-16.822c-0.543-11.939,1.086-36.773-4.885-55.768c-5.971-18.996-1.086-31.961,0.544-51.498
				c1.626-19.537-7.601-60.938-9.771-78.301c-2.172-17.365,2.713-33.689,1.086-42.914c-1.631-9.229-3.258-10.854,7.055-14.652
				s6.472-3.799-16.864-7.053c-23.336-3.26-21.165-1.088-15.735,5.426c5.429,6.512,4.104,7.598,8.99,20.08
				c4.885,12.482-4.886,63.688-5.971,88.652c-1.086,24.963-3.256,38.471-6.516,59.637c-3.254,21.164-1.627,15.236-0.541,39.656
				c1.084,24.422,0.541,43.246-5.971,47.588c-6.513,4.34-2.479,10.311-13.332,9.768c-10.854-0.543-2.947-13.023-9.46-9.768
				c-4.406,2.203-10.052,2.66-14.756,1.051c-0.186,1.336-0.431,2.299-0.766,2.779c-2.536,3.621-4.79,8.172-4.131,7.789
				c7.146,0.705,17.154-0.619,26.284,3.646C205.896,685.25,219.036,685.212,226.627,682.457"/>
			<path fill="#303030" d="M175.58,669.988c-2.536,3.621-3.9,8.172-3.236,7.789c0.421,0.041,3.527,0.076,3.967,0.104
				c0.396-10.021,7.498-11.938,5.024-19.863c-2.716-8.684-3.257-72.049,2.169-77.477c5.426-5.426,0-17.307-3.256-43.354
				c-3.257-26.051-0.853-84.271-0.853-84.271l-1.086-4.885l-3.966-1.143c-1.217,22.939,1.102,69.627,0.586,80.033
				c-1.138,23.08,3.497,72.553,2.358,95.635C176.518,638.224,177.569,667.146,175.58,669.988"/>
			<path fill="#303030" d="M301.932,675.925c0.543,9.225,2.283,5.971-7.22,10.225l-0.104,0.305c4.397-1.037,4.619-2.793,9.507-5.615
				c1.774-1.584,7.367-3.885,1.95-10.275c-0.007,0.008-0.014,0.012-0.021,0.014c-0.109-0.152-0.202-0.285-0.254-0.357
				c-6.461,2.844-13.082,1.369-13.082,1.369c5.7-2.496,10.988-5,10.864-7.107c-2.316-20.143,1.608-86.619,3.265-100.857
				c1.755-15.143,2.675-71.555,2.189-101.643l-4.813,0.705c0,0-2.713,38.686-1.084,47.912c1.627,9.225,3.256,13.023,1.627,35.816
				c-1.627,22.793-2.171,60.762-2.171,60.762s-5.54,42.16-2.825,53.557c0.258,1.096-5.546,9.051-10.638,11.279
				c0,0,6.173,2.027,12.67,1.072C301.823,673.839,301.865,674.765,301.932,675.925"/>
			<path fill="#303030" d="M249.913,453.806l0.854,4.395c13.06,3.66,31.358,1.221,46.613-2.318l0.364-5.248L249.913,453.806z"/>
			<path fill="#FFCC73" d="M233.891,197.609c0,0,33.028-37.319,42-32.766c8.971,4.552,26.584,17.053,36.859,27.661
				c10.277,10.608-14.259,75.104-15.66,96c-1.4,20.897,5.969,59.92-4.688,65.379c-10.655,5.459-54.486,13.386-75.908,13.062
				c-21.422-0.323-41.821,6.989-41.511-16.036c0.313-23.029,11.486-149.134,17.799-160.976c3.714-6.969,19.3-13.498,31.497-17.691
				C225.945,177.898,233.891,197.609,233.891,197.609"/>
			
				<path fill="none" stroke="#002549" stroke-width="0.979" stroke-linecap="round" stroke-linejoin="round" stroke-miterlimit="10" d="
				M275.891,164.843c8.971,4.552,26.584,17.053,36.859,27.661c10.277,10.608-14.259,75.104-15.66,96
				c-1.4,20.897,5.969,59.92-4.688,65.379c-10.655,5.459-54.486,13.386-75.908,13.062c-21.422-0.323-41.821,6.989-41.511-16.034
				c0.313-23.031,11.486-149.136,17.799-160.978c3.714-6.969,19.3-13.498,31.497-17.691c1.664,5.659,9.609,25.37,9.609,25.37
				S266.919,160.29,275.891,164.843z"/>
			<path fill="#ECBA97" d="M84.533,200.232c2.036,17.752,38.181,36.022,38.181,36.022l-10.944,29.311
				c0,0-39.715-38.896-41.495-40.596c-7.323-6.991-12.869-5.485-12.869-5.485s-17.439-3.199-18.066-9.931
				c-0.628-6.734,3.384-29.498,11.527-27.071C61.693,185.709,75.581,184.243,84.533,200.232"/>
			
				<path fill="none" stroke="#9F7557" stroke-width="1.388" stroke-linecap="round" stroke-linejoin="round" stroke-miterlimit="10" d="
				M122.714,236.254l-10.944,29.311c0,0-39.715-38.896-41.495-40.596c-7.323-6.991-12.869-5.485-12.869-5.485
				s-17.439-3.199-18.066-9.931c-0.628-6.734,3.384-29.498,11.527-27.071c10.826,3.227,24.716,1.761,33.668,17.75
				C86.571,217.984,122.714,236.254,122.714,236.254z"/>
			<path fill="#ECBA97" d="M66.526,204.265c-4.17-10.276,4.886-20.684,4.886-20.684c-1.057-3.769-0.68-9.732,0.713-16.14
				c1.393-6.408,7.331-8.355,8.373-5.604c1.046,2.751,1.112,9.581,0.02,16.712c-1.094,7.133,5.063,12.304,4.524,16.96
				c-0.534,4.655-1.097,6.696,0.245,10.026"/>
			
				<path fill="none" stroke="#9F7557" stroke-width="1.388" stroke-linecap="round" stroke-linejoin="round" stroke-miterlimit="10" d="
				M66.526,204.265c-4.17-10.276,4.886-20.684,4.886-20.684c-1.057-3.769-0.68-9.732,0.713-16.14
				c1.393-6.408,7.331-8.355,8.373-5.604c1.046,2.751,1.112,9.581,0.02,16.712c-1.094,7.133,5.063,12.304,4.524,16.96
				c-0.534,4.655-1.097,6.696,0.245,10.026"/>
			<path fill="#ECBA97" d="M44.763,196.969c-1.2-0.388-10.692-1.606-11.129-1.603c-0.436,0.005-2.778-1.717-11.391-5.557
				c-8.611-3.838-9.988,4.023-8.522,5.316c1.467,1.294,11.106,6.141,14.461,7.415c3.356,1.276,15.868,2.752,15.868,2.752"/>
			
				<path fill="none" stroke="#9F7557" stroke-width="1.388" stroke-linecap="round" stroke-linejoin="round" stroke-miterlimit="10" d="
				M44.763,196.969c-1.2-0.388-10.692-1.606-11.129-1.603c-0.436,0.005-2.778-1.717-11.391-5.557
				c-8.611-3.838-9.988,4.023-8.522,5.316c1.467,1.294,11.106,6.141,14.461,7.415c3.356,1.276,15.868,2.752,15.868,2.752"/>
			<path fill="#ECBA97" d="M44.823,199.535c1.852-3.796,1.653-9.317,1.653-9.317c-3.939-1.56-11.958-3.929-11.958-3.929
				c0.306,0.339-11.45-6.521-15.207-9.467c-3.661-2.871,3.557-7.737,6.779-5.153c2.26,1.812,5.707,4.159,12.136,7.294
				c2.474,1.207,12.381,3.417,12.381,3.417"/>
			
				<path fill="none" stroke="#9F7557" stroke-width="1.388" stroke-linecap="round" stroke-linejoin="round" stroke-miterlimit="10" d="
				M44.823,199.535c1.852-3.796,1.653-9.317,1.653-9.317c-3.939-1.56-11.958-3.929-11.958-3.929
				c0.306,0.339-11.45-6.521-15.207-9.467c-3.661-2.871,3.557-7.737,6.779-5.153c2.26,1.812,5.707,4.159,12.136,7.294
				c2.474,1.207,12.381,3.417,12.381,3.417"/>
			<path fill="#ECBA97" d="M46.426,190.365c-1.093-0.268-9.18-2.745-10.954-2.957c-0.433-0.051-3.109-2.048-10.946-7.292
				c-7.835-5.245-9.862,2.154-8.637,3.677c1.225,1.524,9.901,7.935,12.991,9.761c3.091,1.824,15.89,5.692,15.89,5.692"/>
			
				<path fill="none" stroke="#9F7557" stroke-width="1.388" stroke-linecap="round" stroke-linejoin="round" stroke-miterlimit="10" d="
				M46.426,190.365c-1.093-0.268-9.18-2.745-10.954-2.957c-0.433-0.051-3.109-2.048-10.946-7.292
				c-7.835-5.245-9.862,2.154-8.637,3.677c1.225,1.524,9.901,7.935,12.991,9.761c3.091,1.824,15.89,5.692,15.89,5.692"/>
			<path fill="#ECBA97" d="M63.846,218.229c-3.9,2.219-19.157,2.513-21.076-0.521c-1.919-3.033-8.24-10.238-10.312-13.851
				c-2.069-3.613-0.911-4.059-1.58-13.064c-0.668-9.004,6.083-2.239,6.562,2.261c0.311,2.905,1.079,6.239,2.407,8.26
				c1.326,2.022,7.016,4.146,7.016,4.146c3.188-1.048,11.917-0.116,16.298,1.876"/>
			
				<path fill="none" stroke="#9F7557" stroke-width="1.388" stroke-linecap="round" stroke-linejoin="round" stroke-miterlimit="10" d="
				M63.846,218.229c-3.9,2.219-19.157,2.513-21.076-0.521c-1.919-3.033-8.24-10.238-10.312-13.851
				c-2.069-3.613-0.911-4.059-1.58-13.064c-0.668-9.004,6.083-2.239,6.562,2.261c0.311,2.905,1.079,6.239,2.407,8.26
				c1.326,2.022,7.016,4.146,7.016,4.146c3.188-1.048,11.917-0.116,16.298,1.876"/>
			<path fill="#EAF6FE" d="M176.087,188.116c6.282,10.61,4.86,67.321,4.859,67.321c-2.202,4.513-34.025,46.932-48.086,44.822
				c-14.062-2.107-47.667-50.076-47.667-50.076c12.886-3.496,18.81-29.389,18.81-29.389c6.226,4.994,33.398,27.192,33.398,27.192
				C139.6,242.91,176.087,188.116,176.087,188.116"/>
			
				<path fill="none" stroke="#8FA5AA" stroke-width="1.177" stroke-linecap="round" stroke-linejoin="round" stroke-miterlimit="10" d="
				M180.948,255.437c-2.202,4.513-34.025,46.932-48.086,44.822c-14.062-2.107-47.667-50.076-47.667-50.076
				c12.886-3.496,18.81-29.389,18.81-29.389c6.226,4.994,33.398,27.192,33.398,27.192c2.197-5.076,38.686-59.87,38.686-59.87
				C182.369,198.726,180.948,255.437,180.948,255.437z"/>
			<path fill="#C2D7E2" d="M132.862,299.912c14.061,2.109,45.884-40.308,48.088-44.824c0,0-0.139-6.89-0.579-16.316
				c-2.434,3.173-4.966,6.189-7.438,8.662c-10.67,10.668-32.601,39.338-39.339,39.338c-6.737,0-19.093-19.093-29.202-28.08
				c-6.106-5.427-8.213-10.809-10.473-15.362c-2.441,3.128-5.342,5.588-8.724,6.504C85.196,249.834,118.8,297.802,132.862,299.912"
				/>
			<path fill="#F5FBFF" d="M147.81,248.337c7.838-6.158,29.445-39.172,31.744-51.02c-0.777-3.854-1.681-6.903-2.729-8.673
				c0,0-36.486,54.795-38.685,59.87c0,0-27.172-22.197-33.398-27.19c0,0-0.813,3.549-2.49,8.196
				c5.543,3.614,12.003,8.288,16.916,13.202c10.67,10.671,13.478,10.671,17.971,12.916c4.494,2.247,6.179,6.738,6.179,6.738
				c0-4.494-5.614-9.545-5.614-9.545c6.735,1.123,9.546,9.545,9.546,3.93C147.249,251.146,139.948,254.516,147.81,248.337"/>
			<path fill="#C1DA9D" d="M207.275,179.084c-5.803,2.811-10.824,5.959-13.426,9.24C197.254,186.271,202.93,182.24,207.275,179.084"
				/>
			<path fill="none" stroke="#1D1D1B" stroke-width="1.177" stroke-miterlimit="10" d="M193.849,188.324
				c3.405-2.053,9.081-6.084,13.426-9.24C201.473,181.895,196.449,185.043,193.849,188.324z"/>
			<path fill="#98A580" d="M213.291,174.656c0,0-2.598,1.943-6.02,4.429c2.805-1.358,5.783-2.635,8.763-3.811L213.291,174.656"/>
			<path fill="#303030" d="M177.573,356.055c1.672,35.071-1.139,73.739-2.396,85.784c-1.254,12.043,24.647,14.771,36.833,6.619
				c0.444,1.215-8.844-14.613-7.234-45.076c0.438-8.317,0.285-21.539,0.793-36.574c-15.081-1.898-26.74-8.234-27.075-26.396
				c-0.021-0.039-0.044-0.068-0.063-0.111c-0.28-0.616-0.557,11.232-0.834,10.613C177.377,357.785,177.347,351.33,177.573,356.055"
				/>
			<path fill="#002549" d="M174.985,350.516c-0.257,19.079,13.771,13.383,30.807,15.319c0.926-24.795,0.177-52.354-0.394-76.08
				c-0.908-37.838,11.562-99.13,16.437-113.181l-5.798-1.301c-2.979,1.174-5.959,2.449-8.762,3.803
				c-4.346,3.149-10.021,7.169-13.426,9.218c-0.421,0.531-0.779,1.065-1.066,1.602C186.472,201.71,175.296,327.542,174.985,350.516"
				/>
			<path fill="#EAF6FE" d="M219.16,176.578c-4.876,14.084-19.314,75.381-16.438,113.448c2.879,38.071-0.09,90.567-1.379,112.636
				c-1.285,22.068,7.428,41.533,7.428,41.533c-13.455,8.152-42.056,5.424-40.67-6.619c1.386-12.045,5.054-47.17,3.206-82.242
				c-1.847-35.069-0.787-141.563,0.628-150.601c1.417-9.038,0.342-16.545,5.824-19.607c5.484-3.061,36.421-16.705,36.421-16.705
				L219.16,176.578z"/>
			<path fill="none" stroke="#8FA5AA" stroke-width="1.177" stroke-miterlimit="10" d="M219.16,176.578
				c-4.876,14.084-19.314,75.381-16.438,113.448c2.879,38.071-0.09,90.567-1.379,112.636c-1.285,22.068,7.428,41.533,7.428,41.533
				c-13.455,8.152-42.056,5.424-40.67-6.619c1.386-12.045,5.054-47.17,3.206-82.242c-1.847-35.069-0.787-141.563,0.628-150.601
				c1.417-9.038,0.342-16.545,5.824-19.607c5.484-3.061,36.421-16.705,36.421-16.705L219.16,176.578z"/>
			<path fill="#EAF6FE" d="M209.846,171.821c4.004-0.54,8.438,6.261,6.471,10.289c-1.965,4.029-9.123,47.617-10.984,62.172
				c-1.861,14.555-2.936,113.182-3.046,101.656c-2.188-9.048-8.405-100.449-10.99-108.444C188.711,229.5,202.1,219.65,202.1,219.65
				s-2.975-1.781-6.455,1.261c-3.479,3.041-1.024-2.496,0.399-10.53c1.424-8.034-1.755-25.548,1.218-29.087
				C200.234,177.757,209.846,171.821,209.846,171.821"/>
			
				<path fill="none" stroke="#8FA5AA" stroke-width="1.177" stroke-linecap="round" stroke-linejoin="round" stroke-miterlimit="10" d="
				M216.316,182.11c-1.965,4.029-9.123,47.617-10.984,62.172c-1.861,14.555-2.936,113.182-3.046,101.656
				c-2.188-9.048-8.405-100.449-10.99-108.444C188.711,229.5,202.1,219.65,202.1,219.65s-2.975-1.781-6.455,1.261
				c-3.479,3.041-1.024-2.496,0.399-10.53c1.424-8.034-1.755-25.548,1.218-29.087c2.975-3.537,12.586-9.473,12.586-9.473
				C213.85,171.281,218.283,178.082,216.316,182.11z"/>
			<path fill="#EAF6FE" d="M286.871,165.827c0,0-6.975,8.143-17.313,27.293c-10.342,19.149-31.406,117.441-30.593,149.512
				c0.815,32.074,10.612,111.18,10.612,111.18c41.68,7.613,69.564-11.207,69.564-11.207c-2.593-8.998-1.719-22.039-9.025-51.543
				s-7.747-71.943,0.399-110.12c8.146-38.175,2.003-68.522,17.374-91.11C320.89,182.189,286.871,165.827,286.871,165.827"/>
			<path fill="none" stroke="#65787F" stroke-width="1.177" stroke-miterlimit="10" d="M269.561,193.12
				c-10.342,19.149-31.406,117.441-30.593,149.512c0.815,32.074,10.612,111.18,10.612,111.18
				c41.68,7.613,69.564-11.207,69.564-11.207c-2.593-8.998-1.719-22.039-9.025-51.543s-7.747-71.943,0.399-110.12
				c8.146-38.175,2.004-68.522,17.374-91.11c-7.005-7.643-41.021-24.005-41.021-24.005S279.898,173.97,269.561,193.12z"/>
			<path fill="#C2D7E2" d="M267.448,454.085c-0.737,0.098-5.109,0.633-5.851,0.713c34.657,2.346,57.093-12.4,57.093-12.4
				c-2.594-8.996-1.72-22.039-9.024-51.542c-7.307-29.505-7.749-71.944,0.399-110.121c1.403-6.575,2.599-13.286,3.576-19.927
				c-3.967-4.665-7.482-9.575-8.313-13.103c-2.113-8.985-8.983-23.785-8.983-23.785s-10.044,15.33-6.873,30.657
				c3.174,15.329,14.803,10.57,13.743,20.613c-1.057,10.043-10.569,35.914-6.87,65.515c3.701,29.602,3.172,54.971,9.516,69.771
				c6.341,14.801,6.871,20.084-1.059,27.482c-0.111,0.105-0.229,0.205-0.339,0.309c-0.097,0.271-0.225,0.535-0.425,0.791
				c-5.438,6.982-16.074,10.457-24.27,12.584C274.494,453.013,272.859,453.376,267.448,454.085"/>
			<path fill="#C2D7E2" d="M293.232,177.733c-1.207-2.519-3.784-5.279-6.762-7.649c-2.188,1.862-8.255,7.893-16.43,23.035
				c-10.341,19.15-31.409,117.441-30.596,149.515c0.729,28.639,9.003,96.904,10.684,110.732c2.163,0.242,5.164,1.203,8.288,1.203
				c-9.015-21.609-15.381-101.242-15.381-101.242c4.668-70.193,38.653-96.237,33.801-99.937c-4.854-3.699-7.694-20.271-7.694-20.271
				c3.267,5.323,16.219,15.905,13.41,2.547C279.747,222.308,297.059,185.728,293.232,177.733"/>
			<path fill="#F5FBFF" d="M204.829,181.842c0,0-2.466-2.349-5.142,4.611c-2.678,6.96,1.606,24.629,1.606,24.629
				s1.604,10.173-2.144,16.064c-3.748,5.89,0,3.747-2.144,18.205c-2.141,14.457,4.82,19.811,4.82,19.811s0.532-12.312,1.067-25.701
				c0.535-13.385,0.871-12.691,2.984-22.734c2.116-10.042,2.645-21.142,2.645-21.142S205.887,190.3,204.829,181.842"/>
			<path fill="#EAF6FE" d="M239.878,349.042c4.67-70.189,38.658-96.231,33.802-99.936c-4.854-3.701-7.693-20.271-7.693-20.271
				c3.265,5.321,16.22,15.904,13.408,2.545c-2.807-13.359,14.506-49.938,10.682-57.933c-3.828-7.995-11.389-14.346-11.762-7.024
				c-0.375,7.322-15.356,34.185-29.416,67.398C235.453,265.595,236.677,331.221,239.878,349.042"/>
			
				<path fill="none" stroke="#8FA5AA" stroke-width="1.177" stroke-linecap="round" stroke-linejoin="round" stroke-miterlimit="10" d="
				M273.68,249.109c-4.854-3.701-7.693-20.271-7.693-20.271c3.265,5.321,16.22,15.904,13.408,2.545
				c-2.807-13.359,14.506-49.938,10.682-57.933c-3.828-7.995-11.389-14.346-11.762-7.024c-0.375,7.322-15.356,34.185-29.416,67.398
				c-13.443,31.771-12.222,97.397-9.021,115.218C244.548,278.853,278.536,252.811,273.68,249.109z"/>
			<path fill="#F5FBFF" d="M282.529,169.157c0,0-7.93,24.314-19.559,39.641c-11.629,15.329-11.098,30.656-13.742,45.457
				c-2.643,14.8,1.586,28.013,4.758,16.385c3.173-11.629,9.516-13.744,12.156-19.557c2.646-5.814-3.172-8.986-5.285-20.085
				c-2.112-11.1,6.871-14.271,6.871-14.271s8.987,1.585,9.518-8.457c0.525-10.042,5.283-16.384,9.514-24.314
				C290.986,176.029,286.758,175.5,282.529,169.157"/>
			<path fill="#E2A84D" stroke="#C48737" stroke-miterlimit="10" d="M233.891,197.609c21.028-16.197,23.869-9.376,31.543-17.617
				c7.672-8.241,3.692-16.767,3.692-16.767c-0.854,3.695-4.92,3.724-13.64,12.22C246.9,183.813,233.891,197.609,233.891,197.609"/>
			<path fill="#C1DA9D" d="M268.273,147.88c0,0,2.56-5.966,6.537,0.57c3.979,6.536,13.641,11.935,15.347,18.471
				c1.704,6.535-0.568,12.787-5.4,19.323c-4.829,6.535-11.937,22.733-12.217,13.923c-0.286-8.81-5.687-20.46-7.392-21.312
				s-3.691-4.263-1.705-5.968c1.99-1.705,2.504-4.996,4.211-9.542C269.357,158.798,269.604,154.642,268.273,147.88"/>
			<path fill="#E2A84D" stroke="#C48737" stroke-miterlimit="10" d="M274.811,148.45c3.979,6.536,13.641,11.935,15.348,18.471
				c1.703,6.535-0.569,12.787-5.401,19.323c-4.829,6.535-11.937,22.733-12.217,13.923c-0.286-8.81-5.687-20.46-7.392-21.312
				s-3.691-4.263-1.705-5.968c1.99-1.705,2.505-4.996,4.211-9.542c1.703-4.547,1.949-8.703,0.619-15.465
				C268.273,147.88,270.831,141.914,274.811,148.45z"/>
			<path fill="#E2A84D" stroke="#C48737" stroke-miterlimit="10" d="M229.627,153.564c0,0-0.568-6.536-2.559-2.274
				c-1.988,4.262-8.239,17.334-6.819,23.301c1.421,5.968,13.642,23.018,13.642,23.018
				C226.907,180.278,230.715,154.836,229.627,153.564"/>
			<path fill="#0C488D" d="M210.871,163.51c5.398-5.116,16.197-12.218,16.197-12.218s-0.568,3.977-3.692,9.945
				c-3.127,5.967-3.127,13.355-3.127,13.355c-4.546,0-11.649,13.641-11.649,13.641C211.439,177.718,207.723,166.493,210.871,163.51"
				/>
			<path fill="#E2A84D" stroke="#C48737" stroke-miterlimit="10" d="M227.07,151.292c0,0-0.568,3.977-3.692,9.945
				c-3.127,5.967-3.127,13.355-3.127,13.355c-4.546,0-11.649,13.641-11.649,13.641c2.84-10.515-0.877-21.74,2.271-24.723
				C216.271,158.394,227.07,151.292,227.07,151.292z"/>
			<path fill="#CDA285" d="M248.225,155.698c-1.26,2.353-10.66,2.859-17.588,2.433c-0.509-5.566-1.246-8.546-1.246-8.546
				l39.698-34.1c-0.843,5.678-1.348,11.287-1.62,16.859C260.841,143.412,249.535,153.25,248.225,155.698"/>
			<path fill="#ECBA97" d="M246.551,26.607c9.631,0.385,21.956,2.696,31.586,14.637c9.631,11.94-5.775,57.393-7.703,73.186
				c-1.927,15.792-23.883,33.511-25.809,36.978c-1.926,3.466-19.646,3.081-24.27,1.54c-4.621-1.54-3.08-8.088-4.235-13.482
				c-1.154-5.391-7.317-18.873-12.324-27.348c-5.007-8.474-4.623-19.258,0.769-26.192c5.396-6.933,8.861-31.971,10.401-45.837
				C216.506,26.223,236.536,26.207,246.551,26.607"/>
			
				<path fill="none" stroke="#9F7557" stroke-width="1.388" stroke-linecap="round" stroke-linejoin="round" stroke-miterlimit="10" d="
				M278.137,41.244c9.631,11.94-5.775,57.393-7.703,73.186c-1.927,15.792-23.883,33.511-25.809,36.978
				c-1.926,3.466-19.646,3.081-24.27,1.54c-4.621-1.54-3.08-8.088-4.235-13.482c-1.154-5.391-7.317-18.873-12.324-27.348
				c-5.007-8.474-4.623-19.258,0.769-26.192c5.396-6.933,8.861-31.971,10.401-45.837c1.54-13.866,21.57-13.882,31.585-13.482
				C256.182,26.992,268.507,29.303,278.137,41.244z"/>
			<path fill="#CDA285" d="M278.137,41.245c7.562,9.375-0.349,35.378-5.012,55.494l-5.956,2.083c0,0,1.429-2.927,1.856-8.709
				c0.43-5.781,1.928-15.844-2.998-20.769c-4.926-4.924-8.563-6.851-6.424-10.277c2.143-3.425,8.563-6.422,6.424-10.49
				c-2.143-4.068-1.5-8.993-10.92-9.207c-9.422-0.214-12.848-9.206-21.41-8.564c-7.813,0.586-11.709,4.011-16.563,3.47
				c5.749-8.041,21.063-8.003,29.414-7.669C256.182,26.993,268.507,29.304,278.137,41.245"/>
			<path fill="#CDA285" d="M225.129,134.189c4.896-2.227,10.393,0.593,12.916,1.93"/>
			<path fill="#F9CDAF" d="M224.537,152.894c-0.043,0.215-3.039-0.205-3.639-0.404c-4.623-1.541-2.721-7.629-3.875-13.023
				c-1.155-5.391-7.318-18.873-12.325-27.348c-5.009-8.474-4.621-19.258,0.771-26.192c5.393-6.933,8.858-31.97,10.399-45.837
				c0.294-2.63,1.253-4.759,2.681-6.484c-0.91,8.632-0.303,21.307-5.006,31.499c-3.314,7.178-3.197,14.419-5.296,17.116
				c-5.394,6.933-6.703,21.424-1.695,29.898c5.005,8.475,10.242,21.957,11.397,27.348
				C219.083,144.751,216.938,151.197,224.537,152.894"/>
			<path fill="#452109" d="M257.938,80.075c-8.039-3.986-20.479-2.024-20.115,0.234c0.761,5.604,6.15,7.316,12.965,7.439
				C257.668,87.872,258.498,80.737,257.938,80.075"/>
			<path fill="#FFFFFF" d="M258.029,80.644c-7.772-3.129-20.484-1.54-20.12,0.717c0.155,4.535,4.946,7.703,12.827,7.565
				C257.68,88.802,258.8,81.034,258.029,80.644"/>
			<g>
				<g>
					<g>
						<path fill="none" d="M237.913,81.279c-0.218-1.354,4.265-2.467,9.563-2.467c3.539,0,7.445,0.497,10.558,1.749
							c0.69,0.327-0.384,8.368-7.292,8.282C248.088,88.809,238.182,88.994,237.913,81.279"/>
						<path fill="none" d="M237.913,81.279c-0.218-1.354,4.265-2.467,9.563-2.467c3.539,0,7.445,0.497,10.558,1.749
							c0.69,0.327-0.384,8.368-7.292,8.282C248.088,88.809,238.182,88.994,237.913,81.279"/>
						<path fill="none" d="M237.913,81.279c-0.218-1.354,4.265-2.467,9.563-2.467c3.539,0,7.445,0.497,10.558,1.749
							c0.69,0.327-0.384,8.368-7.292,8.282C248.088,88.809,238.182,88.994,237.913,81.279"/>
						<path fill="none" d="M237.913,81.279c-0.218-1.354,4.265-2.467,9.563-2.467c3.539,0,7.445,0.497,10.558,1.749
							c0.69,0.327-0.384,8.368-7.292,8.282C248.088,88.809,238.182,88.994,237.913,81.279"/>
						<path fill="none" d="M237.913,81.279c-0.218-1.354,4.265-2.467,9.563-2.467c3.539,0,7.445,0.497,10.558,1.749
							c0.69,0.327-0.384,8.368-7.292,8.282C248.088,88.809,238.182,88.994,237.913,81.279"/>
						<path fill="none" d="M237.913,81.279c-0.218-1.354,4.265-2.467,9.563-2.467c3.539,0,7.445,0.497,10.558,1.749
							c0.69,0.327-0.384,8.368-7.292,8.282C248.088,88.809,238.182,88.994,237.913,81.279"/>
						<path fill="none" d="M237.913,81.279c-0.218-1.354,4.265-2.467,9.563-2.467c3.539,0,7.445,0.497,10.558,1.749
							c0.69,0.327-0.384,8.368-7.292,8.282C248.088,88.809,238.182,88.994,237.913,81.279"/>
						<path fill="none" d="M237.913,81.279c-0.218-1.354,4.265-2.467,9.563-2.467c3.539,0,7.445,0.497,10.558,1.749
							c0.69,0.327-0.384,8.368-7.292,8.282C248.088,88.809,238.182,88.994,237.913,81.279"/>
						<path fill="none" d="M237.913,81.279c-0.218-1.354,4.265-2.467,9.563-2.467c3.539,0,7.445,0.497,10.558,1.749
							c0.69,0.327-0.384,8.368-7.292,8.282C248.088,88.809,238.182,88.994,237.913,81.279"/>
						<path fill="none" d="M237.913,81.279c-0.218-1.354,4.265-2.467,9.563-2.467c3.539,0,7.445,0.497,10.558,1.749
							c0.69,0.327-0.384,8.368-7.292,8.282C248.088,88.809,238.182,88.994,237.913,81.279"/>
						<path fill="none" d="M237.913,81.279c-0.218-1.354,4.265-2.467,9.563-2.467c3.539,0,7.445,0.497,10.558,1.749
							c0.69,0.327-0.384,8.368-7.292,8.282C248.088,88.809,238.182,88.994,237.913,81.279"/>
						<path fill="none" d="M237.913,81.279c-0.218-1.354,4.265-2.467,9.563-2.467c3.539,0,7.445,0.497,10.558,1.749
							c0.69,0.327-0.384,8.368-7.292,8.282C248.088,88.809,238.182,88.994,237.913,81.279"/>
						<path fill="none" d="M237.913,81.279c-0.218-1.354,4.265-2.467,9.563-2.467c3.539,0,7.445,0.497,10.558,1.749
							c0.69,0.327-0.384,8.368-7.292,8.282C248.088,88.809,238.182,88.994,237.913,81.279"/>
						<path fill="none" d="M237.913,81.279c-0.218-1.354,4.265-2.467,9.563-2.467c3.539,0,7.445,0.497,10.558,1.749
							c0.69,0.327-0.384,8.368-7.292,8.282C248.088,88.809,238.182,88.994,237.913,81.279"/>
						<path fill="none" d="M237.913,81.279c-0.218-1.354,4.265-2.467,9.563-2.467c3.539,0,7.445,0.497,10.558,1.749
							c0.69,0.327-0.384,8.368-7.292,8.282C248.088,88.809,238.182,88.994,237.913,81.279"/>
						<path fill="none" d="M237.913,81.279c-0.218-1.354,4.265-2.467,9.563-2.467c3.539,0,7.445,0.497,10.558,1.749
							c0.69,0.327-0.384,8.368-7.292,8.282C248.088,88.809,238.182,88.994,237.913,81.279"/>
						<path fill="none" d="M237.913,81.279c-0.218-1.354,4.265-2.467,9.563-2.467c3.539,0,7.445,0.497,10.558,1.749
							c0.69,0.327-0.384,8.368-7.292,8.282C248.088,88.809,238.182,88.994,237.913,81.279"/>
						<path fill="none" d="M237.913,81.279c-0.218-1.354,4.265-2.467,9.563-2.467c3.539,0,7.445,0.497,10.558,1.749
							c0.69,0.327-0.384,8.368-7.292,8.282C248.088,88.809,238.182,88.994,237.913,81.279"/>
						<path fill="none" d="M237.913,81.279c-0.218-1.354,4.265-2.467,9.563-2.467c3.539,0,7.445,0.497,10.558,1.749
							c0.69,0.327-0.384,8.368-7.292,8.282C248.088,88.809,238.182,88.994,237.913,81.279"/>
						<path fill="none" d="M237.913,81.279c-0.218-1.354,4.265-2.467,9.563-2.467c3.539,0,7.445,0.497,10.558,1.749
							c0.69,0.327-0.384,8.368-7.292,8.282C248.088,88.809,238.182,88.994,237.913,81.279"/>
						<path fill="none" d="M237.913,81.279c-0.218-1.354,4.265-2.467,9.563-2.467c3.539,0,7.445,0.497,10.558,1.749
							c0.69,0.327-0.384,8.368-7.292,8.282C248.088,88.809,238.182,88.994,237.913,81.279"/>
						<path fill="none" d="M237.913,81.279c-0.218-1.354,4.265-2.467,9.563-2.467c3.539,0,7.445,0.497,10.558,1.749
							c0.69,0.327-0.384,8.368-7.292,8.282C248.088,88.809,238.182,88.994,237.913,81.279"/>
						<path fill="none" d="M237.913,81.279c-0.218-1.354,4.265-2.467,9.563-2.467c3.539,0,7.445,0.497,10.558,1.749
							c0.69,0.327-0.384,8.368-7.292,8.282C248.088,88.809,238.182,88.994,237.913,81.279"/>
						<path fill="none" d="M237.913,81.279c-0.218-1.354,4.265-2.467,9.563-2.467c3.539,0,7.445,0.497,10.558,1.749
							c0.69,0.327-0.384,8.368-7.292,8.282C248.088,88.809,238.182,88.994,237.913,81.279"/>
						<path fill="none" d="M237.913,81.279c-0.218-1.354,4.265-2.467,9.563-2.467c3.539,0,7.445,0.497,10.558,1.749
							c0.69,0.327-0.384,8.368-7.292,8.282C248.088,88.809,238.182,88.994,237.913,81.279"/>
						<path fill="none" d="M237.913,81.279c-0.218-1.354,4.265-2.467,9.563-2.467c3.539,0,7.445,0.497,10.558,1.749
							c0.69,0.327-0.384,8.368-7.292,8.282C248.088,88.809,238.182,88.994,237.913,81.279"/>
						<path fill="none" d="M237.913,81.279c-0.218-1.354,4.265-2.467,9.563-2.467c3.539,0,7.445,0.497,10.558,1.749
							c0.69,0.327-0.384,8.368-7.292,8.282C248.088,88.809,238.182,88.994,237.913,81.279"/>
						<path fill="none" d="M237.913,81.279c-0.218-1.354,4.265-2.467,9.563-2.467c3.539,0,7.445,0.497,10.558,1.749
							c0.69,0.327-0.384,8.368-7.292,8.282C248.088,88.809,238.182,88.994,237.913,81.279"/>
						<path fill="none" d="M237.913,81.279c-0.218-1.354,4.265-2.467,9.563-2.467c3.539,0,7.445,0.497,10.558,1.749
							c0.69,0.327-0.384,8.368-7.292,8.282C248.088,88.809,238.182,88.994,237.913,81.279"/>
						<path fill="none" d="M237.913,81.279c-0.218-1.354,4.265-2.467,9.563-2.467c3.539,0,7.445,0.497,10.558,1.749
							c0.69,0.327-0.384,8.368-7.292,8.282C248.088,88.809,238.182,88.994,237.913,81.279"/>
						<path fill="none" d="M237.913,81.279c-0.218-1.354,4.265-2.467,9.563-2.467c3.539,0,7.445,0.497,10.558,1.749
							c0.69,0.327-0.384,8.368-7.292,8.282C248.088,88.809,238.182,88.994,237.913,81.279"/>
						<path fill="none" d="M237.913,81.279c-0.218-1.354,4.265-2.467,9.563-2.467c3.539,0,7.445,0.497,10.558,1.749
							c0.69,0.327-0.384,8.368-7.292,8.282C248.088,88.809,238.182,88.994,237.913,81.279"/>
						<path fill="none" d="M237.913,81.279c-0.218-1.354,4.265-2.467,9.563-2.467c3.539,0,7.445,0.497,10.558,1.749
							c0.69,0.327-0.384,8.368-7.292,8.282C248.088,88.809,238.182,88.994,237.913,81.279"/>
						<path fill="none" d="M237.913,81.279c-0.218-1.354,4.265-2.467,9.563-2.467c3.539,0,7.445,0.497,10.558,1.749
							c0.69,0.327-0.384,8.368-7.292,8.282C248.088,88.809,238.182,88.994,237.913,81.279"/>
						<path fill="none" d="M237.913,81.279c-0.218-1.354,4.265-2.467,9.563-2.467c3.539,0,7.445,0.497,10.558,1.749
							c0.69,0.327-0.384,8.368-7.292,8.282C248.088,88.809,238.182,88.994,237.913,81.279"/>
						<path fill="none" d="M237.913,81.279c-0.218-1.354,4.265-2.467,9.563-2.467c3.539,0,7.445,0.497,10.558,1.749
							c0.69,0.327-0.384,8.368-7.292,8.282C248.088,88.809,238.182,88.994,237.913,81.279"/>
						<path fill="none" d="M237.913,81.279c-0.218-1.354,4.265-2.467,9.563-2.467c3.539,0,7.445,0.497,10.558,1.749
							c0.69,0.327-0.384,8.368-7.292,8.282C248.088,88.809,238.182,88.994,237.913,81.279"/>
						<path fill="none" d="M237.913,81.279c-0.218-1.354,4.265-2.467,9.563-2.467c3.539,0,7.445,0.497,10.558,1.749
							c0.69,0.327-0.384,8.368-7.292,8.282C248.088,88.809,238.182,88.994,237.913,81.279"/>
						<path fill="none" d="M237.913,81.279c-0.218-1.354,4.265-2.467,9.563-2.467c3.539,0,7.445,0.497,10.558,1.749
							c0.69,0.327-0.384,8.368-7.292,8.282C248.088,88.809,238.182,88.994,237.913,81.279"/>
						<path fill="none" d="M237.913,81.279c-0.218-1.354,4.265-2.467,9.563-2.467c3.539,0,7.445,0.497,10.558,1.749
							c0.69,0.327-0.384,8.368-7.292,8.282C248.088,88.809,238.182,88.994,237.913,81.279"/>
						<path fill="none" d="M237.913,81.279c-0.218-1.354,4.265-2.467,9.563-2.467c3.539,0,7.445,0.497,10.558,1.749
							c0.69,0.327-0.384,8.368-7.292,8.282C248.088,88.809,238.182,88.994,237.913,81.279"/>
						<path fill="none" d="M237.913,81.279c-0.218-1.354,4.265-2.467,9.563-2.467c3.539,0,7.445,0.497,10.558,1.749
							c0.69,0.327-0.384,8.368-7.292,8.282C248.088,88.809,238.182,88.994,237.913,81.279"/>
						<path fill="none" d="M237.913,81.279c-0.218-1.354,4.265-2.467,9.563-2.467c3.539,0,7.445,0.497,10.558,1.749
							c0.69,0.327-0.384,8.368-7.292,8.282C248.088,88.809,238.182,88.994,237.913,81.279"/>
						<path fill="none" d="M237.913,81.279c-0.218-1.354,4.265-2.467,9.563-2.467c3.539,0,7.445,0.497,10.558,1.749
							c0.69,0.327-0.384,8.368-7.292,8.282C248.088,88.809,238.182,88.994,237.913,81.279"/>
						<path fill="none" d="M237.913,81.279c-0.218-1.354,4.265-2.467,9.563-2.467c3.539,0,7.445,0.497,10.558,1.749
							c0.69,0.327-0.384,8.368-7.292,8.282C248.088,88.809,238.182,88.994,237.913,81.279"/>
						<path fill="none" d="M237.913,81.279c-0.218-1.354,4.265-2.467,9.563-2.467c3.539,0,7.445,0.497,10.558,1.749
							c0.69,0.327-0.384,8.368-7.292,8.282C248.088,88.809,238.182,88.994,237.913,81.279"/>
						<path fill="none" d="M237.913,81.279c-0.218-1.354,4.265-2.467,9.563-2.467c3.539,0,7.445,0.497,10.558,1.749
							c0.69,0.327-0.384,8.368-7.292,8.282C248.088,88.809,238.182,88.994,237.913,81.279"/>
						<path fill="none" d="M237.913,81.279c-0.218-1.354,4.265-2.467,9.563-2.467c3.539,0,7.445,0.497,10.558,1.749
							c0.69,0.327-0.384,8.368-7.292,8.282C248.088,88.809,238.182,88.994,237.913,81.279"/>
						<path fill="none" d="M237.913,81.279c-0.218-1.354,4.265-2.467,9.563-2.467c3.539,0,7.445,0.497,10.558,1.749
							c0.69,0.327-0.384,8.368-7.292,8.282C248.088,88.809,238.182,88.994,237.913,81.279"/>
						<path fill="none" d="M237.913,81.279c-0.218-1.354,4.265-2.467,9.563-2.467c3.539,0,7.445,0.497,10.558,1.749
							c0.69,0.327-0.384,8.368-7.292,8.282C248.088,88.809,238.182,88.994,237.913,81.279"/>
						<path fill="none" d="M237.913,81.279c-0.218-1.354,4.265-2.467,9.563-2.467c3.539,0,7.445,0.497,10.558,1.749
							c0.69,0.327-0.384,8.368-7.292,8.282C248.088,88.809,238.182,88.994,237.913,81.279"/>
						<path fill="none" d="M237.913,81.279c-0.218-1.354,4.265-2.467,9.563-2.467c3.539,0,7.445,0.497,10.558,1.749
							c0.69,0.327-0.384,8.368-7.292,8.282C248.088,88.809,238.182,88.994,237.913,81.279"/>
						<path fill="none" d="M237.913,81.279c-0.218-1.354,4.265-2.467,9.563-2.467c3.539,0,7.445,0.497,10.558,1.749
							c0.69,0.327-0.384,8.368-7.292,8.282C248.088,88.809,238.182,88.994,237.913,81.279"/>
						<path fill="none" d="M237.913,81.279c-0.218-1.354,4.265-2.467,9.563-2.467c3.539,0,7.445,0.497,10.558,1.749
							c0.69,0.327-0.384,8.368-7.292,8.282C248.088,88.809,238.182,88.994,237.913,81.279"/>
						<path fill="none" d="M237.913,81.279c-0.218-1.354,4.265-2.467,9.563-2.467c3.539,0,7.445,0.497,10.558,1.749
							c0.69,0.327-0.384,8.368-7.292,8.282C248.088,88.809,238.182,88.994,237.913,81.279"/>
						<path fill="none" d="M237.913,81.279c-0.218-1.354,4.265-2.467,9.563-2.467c3.539,0,7.445,0.497,10.558,1.749
							c0.69,0.327-0.384,8.368-7.292,8.282C248.088,88.809,238.182,88.994,237.913,81.279"/>
						<path fill="none" d="M237.913,81.279c-0.218-1.354,4.265-2.467,9.563-2.467c3.539,0,7.445,0.497,10.558,1.749
							c0.69,0.327-0.384,8.368-7.292,8.282C248.088,88.809,238.182,88.994,237.913,81.279"/>
						<path fill="none" d="M237.913,81.279c-0.218-1.354,4.265-2.467,9.563-2.467c3.539,0,7.445,0.497,10.558,1.749
							c0.69,0.327-0.384,8.368-7.292,8.282C248.088,88.809,238.182,88.994,237.913,81.279"/>
						<path fill="none" d="M237.913,81.279c-0.218-1.354,4.265-2.467,9.563-2.467c3.539,0,7.445,0.497,10.558,1.749
							c0.69,0.327-0.384,8.368-7.292,8.282C248.088,88.809,238.182,88.994,237.913,81.279"/>
						<path fill="none" d="M237.913,81.279c-0.218-1.354,4.265-2.467,9.563-2.467c3.539,0,7.445,0.497,10.558,1.749
							c0.69,0.327-0.384,8.368-7.292,8.282C248.088,88.809,238.182,88.994,237.913,81.279"/>
						<path fill="none" d="M237.913,81.279c-0.218-1.354,4.265-2.467,9.563-2.467c3.539,0,7.445,0.497,10.558,1.749
							c0.69,0.327-0.384,8.368-7.292,8.282C248.088,88.809,238.182,88.994,237.913,81.279"/>
						<path fill="none" d="M237.913,81.279c-0.218-1.354,4.265-2.467,9.563-2.467c3.539,0,7.445,0.497,10.558,1.749
							c0.69,0.327-0.384,8.368-7.292,8.282C248.088,88.809,238.182,88.994,237.913,81.279"/>
						<path fill="none" d="M237.913,81.279c-0.218-1.354,4.265-2.467,9.563-2.467c3.539,0,7.445,0.497,10.558,1.749
							c0.69,0.327-0.384,8.368-7.292,8.282C248.088,88.809,238.182,88.994,237.913,81.279"/>
						<path fill="none" d="M237.913,81.279c-0.218-1.354,4.265-2.467,9.563-2.467c3.539,0,7.445,0.497,10.558,1.749
							c0.69,0.327-0.384,8.368-7.292,8.282C248.088,88.809,238.182,88.994,237.913,81.279"/>
						<path fill="none" d="M237.913,81.279c-0.218-1.354,4.265-2.467,9.563-2.467c3.539,0,7.445,0.497,10.558,1.749
							c0.69,0.327-0.384,8.368-7.292,8.282C248.088,88.809,238.182,88.994,237.913,81.279"/>
						<path fill="none" d="M237.913,81.279c-0.218-1.354,4.265-2.467,9.563-2.467c3.539,0,7.445,0.497,10.558,1.749
							c0.69,0.327-0.384,8.368-7.292,8.282C248.088,88.809,238.182,88.994,237.913,81.279"/>
						<path fill="none" d="M237.913,81.279c-0.218-1.354,4.265-2.467,9.563-2.467c3.539,0,7.445,0.497,10.558,1.749
							c0.69,0.327-0.384,8.368-7.292,8.282C248.088,88.809,238.182,88.994,237.913,81.279"/>
						<path fill="none" d="M237.913,81.279c-0.218-1.354,4.265-2.467,9.563-2.467c3.539,0,7.445,0.497,10.558,1.749
							c0.69,0.327-0.384,8.368-7.292,8.282C248.088,88.809,238.182,88.994,237.913,81.279"/>
						<path fill="none" d="M237.913,81.279c-0.218-1.354,4.265-2.467,9.563-2.467c3.539,0,7.445,0.497,10.558,1.749
							c0.69,0.327-0.384,8.368-7.292,8.282C248.088,88.809,238.182,88.994,237.913,81.279"/>
						<path fill="none" d="M237.913,81.279c-0.218-1.354,4.265-2.467,9.563-2.467c3.539,0,7.445,0.497,10.558,1.749
							c0.69,0.327-0.384,8.368-7.292,8.282C248.088,88.809,238.182,88.994,237.913,81.279"/>
						<path fill="none" d="M237.913,81.279c-0.218-1.354,4.265-2.467,9.563-2.467c3.539,0,7.445,0.497,10.558,1.749
							c0.69,0.327-0.384,8.368-7.292,8.282C248.088,88.809,238.182,88.994,237.913,81.279"/>
						<path fill="none" d="M237.913,81.279c-0.218-1.354,4.265-2.467,9.563-2.467c3.539,0,7.445,0.497,10.558,1.749
							c0.69,0.327-0.384,8.368-7.292,8.282C248.088,88.809,238.182,88.994,237.913,81.279"/>
						<path fill="none" d="M237.913,81.279c-0.218-1.354,4.265-2.467,9.563-2.467c3.539,0,7.445,0.497,10.558,1.749
							c0.69,0.327-0.384,8.368-7.292,8.282C248.088,88.809,238.182,88.994,237.913,81.279"/>
						<path fill="none" d="M237.913,81.279c-0.218-1.354,4.265-2.467,9.563-2.467c3.539,0,7.445,0.497,10.558,1.749
							c0.69,0.327-0.384,8.368-7.292,8.282C248.088,88.809,238.182,88.994,237.913,81.279"/>
						<path fill="none" d="M237.913,81.279c-0.218-1.354,4.265-2.467,9.563-2.467c3.539,0,7.445,0.497,10.558,1.749
							c0.69,0.327-0.384,8.368-7.292,8.282C248.088,88.809,238.182,88.994,237.913,81.279"/>
						<path fill="none" d="M237.913,81.279c-0.218-1.354,4.265-2.467,9.563-2.467c3.539,0,7.445,0.497,10.558,1.749
							c0.69,0.327-0.384,8.368-7.292,8.282C248.088,88.809,238.182,88.994,237.913,81.279"/>
						<path fill="none" d="M237.913,81.279c-0.218-1.354,4.265-2.467,9.563-2.467c3.539,0,7.445,0.497,10.558,1.749
							c0.69,0.327-0.384,8.368-7.292,8.282C248.088,88.809,238.182,88.994,237.913,81.279"/>
						<path fill="none" d="M237.913,81.279c-0.218-1.354,4.265-2.467,9.563-2.467c3.539,0,7.445,0.497,10.558,1.749
							c0.69,0.327-0.384,8.368-7.292,8.282C248.088,88.809,238.182,88.994,237.913,81.279"/>
						<path fill="#A85715" d="M252.675,84.962c0.603-2.958-1.312-5.842-4.271-6.44c-2.959-0.599-5.842,1.313-6.438,4.272
							c-0.599,2.957,1.313,5.84,4.271,6.439C249.195,89.833,252.077,87.92,252.675,84.962"/>
						<path fill="none" d="M237.913,81.279c-0.218-1.354,4.265-2.467,9.563-2.467c3.539,0,7.445,0.497,10.558,1.749
							c0.69,0.327-0.384,8.368-7.292,8.282C248.088,88.809,238.182,88.994,237.913,81.279"/>
						<path fill="none" d="M237.913,81.279c-0.218-1.354,4.265-2.467,9.563-2.467c3.539,0,7.445,0.497,10.558,1.749
							c0.69,0.327-0.384,8.368-7.292,8.282C248.088,88.809,238.182,88.994,237.913,81.279"/>
						<path fill="none" d="M237.913,81.279c-0.218-1.354,4.265-2.467,9.563-2.467c3.539,0,7.445,0.497,10.558,1.749
							c0.69,0.327-0.384,8.368-7.292,8.282C248.088,88.809,238.182,88.994,237.913,81.279"/>
						<path fill="none" d="M237.913,81.279c-0.218-1.354,4.265-2.467,9.563-2.467c3.539,0,7.445,0.497,10.558,1.749
							c0.69,0.327-0.384,8.368-7.292,8.282C248.088,88.809,238.182,88.994,237.913,81.279"/>
						<path fill="none" d="M237.913,81.279c-0.218-1.354,4.265-2.467,9.563-2.467c3.539,0,7.445,0.497,10.558,1.749
							c0.69,0.327-0.384,8.368-7.292,8.282C248.088,88.809,238.182,88.994,237.913,81.279"/>
						<path fill="none" d="M237.913,81.279c-0.218-1.354,4.265-2.467,9.563-2.467c3.539,0,7.445,0.497,10.558,1.749
							c0.69,0.327-0.384,8.368-7.292,8.282C248.088,88.809,238.182,88.994,237.913,81.279"/>
						<path fill="none" d="M237.913,81.279c-0.218-1.354,4.265-2.467,9.563-2.467c3.539,0,7.445,0.497,10.558,1.749
							c0.69,0.327-0.384,8.368-7.292,8.282C248.088,88.809,238.182,88.994,237.913,81.279"/>
						<path fill="none" d="M237.913,81.279c-0.218-1.354,4.265-2.467,9.563-2.467c3.539,0,7.445,0.497,10.558,1.749
							c0.69,0.327-0.384,8.368-7.292,8.282C248.088,88.809,238.182,88.994,237.913,81.279"/>
						<path fill="none" d="M237.913,81.279c-0.218-1.354,4.265-2.467,9.563-2.467c3.539,0,7.445,0.497,10.558,1.749
							c0.69,0.327-0.384,8.368-7.292,8.282C248.088,88.809,238.182,88.994,237.913,81.279"/>
						<path fill="none" d="M237.913,81.279c-0.218-1.354,4.265-2.467,9.563-2.467c3.539,0,7.445,0.497,10.558,1.749
							c0.69,0.327-0.384,8.368-7.292,8.282C248.088,88.809,238.182,88.994,237.913,81.279"/>
						<path fill="none" d="M237.913,81.279c-0.218-1.354,4.265-2.467,9.563-2.467c3.539,0,7.445,0.497,10.558,1.749
							c0.69,0.327-0.384,8.368-7.292,8.282C248.088,88.809,238.182,88.994,237.913,81.279"/>
						<path fill="none" d="M237.913,81.279c-0.218-1.354,4.265-2.467,9.563-2.467c3.539,0,7.445,0.497,10.558,1.749
							c0.69,0.327-0.384,8.368-7.292,8.282C248.088,88.809,238.182,88.994,237.913,81.279"/>
						<path fill="#3D1800" d="M250.035,84.427c0.301-1.499-0.666-2.959-2.164-3.263c-1.499-0.302-2.959,0.666-3.266,2.164
							c-0.304,1.499,0.666,2.96,2.164,3.263C248.27,86.895,249.732,85.926,250.035,84.427"/>
						<path fill="none" d="M237.913,81.279c-0.218-1.354,4.265-2.467,9.563-2.467c3.539,0,7.445,0.497,10.558,1.749
							c0.69,0.327-0.384,8.368-7.292,8.282C248.088,88.809,238.182,88.994,237.913,81.279"/>
						<path fill="none" d="M237.913,81.279c-0.218-1.354,4.265-2.467,9.563-2.467c3.539,0,7.445,0.497,10.558,1.749
							c0.69,0.327-0.384,8.368-7.292,8.282C248.088,88.809,238.182,88.994,237.913,81.279"/>
						<path fill="none" d="M237.913,81.279c-0.218-1.354,4.265-2.467,9.563-2.467c3.539,0,7.445,0.497,10.558,1.749
							c0.69,0.327-0.384,8.368-7.292,8.282C248.088,88.809,238.182,88.994,237.913,81.279"/>
						<path fill="none" d="M237.913,81.279c-0.218-1.354,4.265-2.467,9.563-2.467c3.539,0,7.445,0.497,10.558,1.749
							c0.69,0.327-0.384,8.368-7.292,8.282C248.088,88.809,238.182,88.994,237.913,81.279"/>
						<path fill="none" d="M237.913,81.279c-0.218-1.354,4.265-2.467,9.563-2.467c3.539,0,7.445,0.497,10.558,1.749
							c0.69,0.327-0.384,8.368-7.292,8.282C248.088,88.809,238.182,88.994,237.913,81.279"/>
						<path fill="none" d="M237.913,81.279c-0.218-1.354,4.265-2.467,9.563-2.467c3.539,0,7.445,0.497,10.558,1.749
							c0.69,0.327-0.384,8.368-7.292,8.282C248.088,88.809,238.182,88.994,237.913,81.279"/>
						<path fill="none" d="M237.913,81.279c-0.218-1.354,4.265-2.467,9.563-2.467c3.539,0,7.445,0.497,10.558,1.749
							c0.69,0.327-0.384,8.368-7.292,8.282C248.088,88.809,238.182,88.994,237.913,81.279"/>
						<path fill="none" d="M237.913,81.279c-0.218-1.354,4.265-2.467,9.563-2.467c3.539,0,7.445,0.497,10.558,1.749
							c0.69,0.327-0.384,8.368-7.292,8.282C248.088,88.809,238.182,88.994,237.913,81.279"/>
						<path fill="none" d="M237.913,81.279c-0.218-1.354,4.265-2.467,9.563-2.467c3.539,0,7.445,0.497,10.558,1.749
							c0.69,0.327-0.384,8.368-7.292,8.282C248.088,88.809,238.182,88.994,237.913,81.279"/>
						<path fill="none" d="M237.913,81.279c-0.218-1.354,4.265-2.467,9.563-2.467c3.539,0,7.445,0.497,10.558,1.749
							c0.69,0.327-0.384,8.368-7.292,8.282C248.088,88.809,238.182,88.994,237.913,81.279"/>
						<path fill="none" d="M237.913,81.279c-0.218-1.354,4.265-2.467,9.563-2.467c3.539,0,7.445,0.497,10.558,1.749
							c0.69,0.327-0.384,8.368-7.292,8.282C248.088,88.809,238.182,88.994,237.913,81.279"/>
						<path fill="none" d="M237.913,81.279c-0.218-1.354,4.265-2.467,9.563-2.467c3.539,0,7.445,0.497,10.558,1.749
							c0.69,0.327-0.384,8.368-7.292,8.282C248.088,88.809,238.182,88.994,237.913,81.279"/>
						<path fill="#FFFFFF" d="M245.538,83.165c0.153-0.763-0.338-1.507-1.104-1.661c-0.762-0.154-1.507,0.339-1.66,1.101
							c-0.152,0.764,0.34,1.507,1.104,1.662C244.641,84.421,245.384,83.929,245.538,83.165"/>
						<path fill="#452109" d="M209.868,76.451c6.481-3.944,18.29,0.813,18.35,2.964c-1.669,6.837-7.315,5.764-13.522,4.892
							C208.207,83.395,209.063,76.872,209.868,76.451"/>
						<path fill="#FFFFFF" d="M209.632,76.971c7.572-1.781,19.017,1.458,18.365,3.479c-0.779,4.14-6.869,5.93-13.147,5.188
							C208.365,84.873,208.907,77.188,209.632,76.971"/>
						<g>
							<g>
								<g>
									<path fill="none" d="M209.632,76.971c1.536-0.362,3.233-0.516,4.954-0.517c6.766,0,13.932,2.385,13.412,3.996
										c-0.78,4.139-6.895,6.105-13.15,5.188C208.591,84.721,209.632,76.971,209.632,76.971"/>
									<path fill="none" d="M209.632,76.971c1.536-0.362,3.233-0.516,4.954-0.517c6.766,0,13.932,2.385,13.412,3.996
										c-0.78,4.139-6.895,6.105-13.15,5.188C208.591,84.721,209.632,76.971,209.632,76.971"/>
									<path fill="none" d="M209.632,76.971c1.536-0.362,3.233-0.516,4.954-0.517c6.766,0,13.932,2.385,13.412,3.996
										c-0.78,4.139-6.895,6.105-13.15,5.188C208.591,84.721,209.632,76.971,209.632,76.971"/>
									<path fill="none" d="M209.632,76.971c1.536-0.362,3.233-0.516,4.954-0.517c6.766,0,13.932,2.385,13.412,3.996
										c-0.78,4.139-6.895,6.105-13.15,5.188C208.591,84.721,209.632,76.971,209.632,76.971"/>
									<path fill="none" d="M209.632,76.971c1.536-0.362,3.233-0.516,4.954-0.517c6.766,0,13.932,2.385,13.412,3.996
										c-0.78,4.139-6.895,6.105-13.15,5.188C208.591,84.721,209.632,76.971,209.632,76.971"/>
									<path fill="none" d="M209.632,76.971c1.536-0.362,3.233-0.516,4.954-0.517c6.766,0,13.932,2.385,13.412,3.996
										c-0.78,4.139-6.895,6.105-13.15,5.188C208.591,84.721,209.632,76.971,209.632,76.971"/>
									<path fill="none" d="M209.632,76.971c1.536-0.362,3.233-0.516,4.954-0.517c6.766,0,13.932,2.385,13.412,3.996
										c-0.78,4.139-6.895,6.105-13.15,5.188C208.591,84.721,209.632,76.971,209.632,76.971"/>
									<path fill="none" d="M209.632,76.971c1.536-0.362,3.233-0.516,4.954-0.517c6.766,0,13.932,2.385,13.412,3.996
										c-0.78,4.139-6.895,6.105-13.15,5.188C208.591,84.721,209.632,76.971,209.632,76.971"/>
									<path fill="none" d="M209.632,76.971c1.536-0.362,3.233-0.516,4.954-0.517c6.766,0,13.932,2.385,13.412,3.996
										c-0.78,4.139-6.895,6.105-13.15,5.188C208.591,84.721,209.632,76.971,209.632,76.971"/>
									<path fill="none" d="M209.632,76.971c1.536-0.362,3.233-0.516,4.954-0.517c6.766,0,13.932,2.385,13.412,3.996
										c-0.78,4.139-6.895,6.105-13.15,5.188C208.591,84.721,209.632,76.971,209.632,76.971"/>
									<path fill="none" d="M209.632,76.971c1.536-0.362,3.233-0.516,4.954-0.517c6.766,0,13.932,2.385,13.412,3.996
										c-0.78,4.139-6.895,6.105-13.15,5.188C208.591,84.721,209.632,76.971,209.632,76.971"/>
									<path fill="none" d="M209.632,76.971c1.536-0.362,3.233-0.516,4.954-0.517c6.766,0,13.932,2.385,13.412,3.996
										c-0.78,4.139-6.895,6.105-13.15,5.188C208.591,84.721,209.632,76.971,209.632,76.971"/>
									<path fill="none" d="M209.632,76.971c1.536-0.362,3.233-0.516,4.954-0.517c6.766,0,13.932,2.385,13.412,3.996
										c-0.78,4.139-6.895,6.105-13.15,5.188C208.591,84.721,209.632,76.971,209.632,76.971"/>
									<path fill="none" d="M209.632,76.971c1.536-0.362,3.233-0.516,4.954-0.517c6.766,0,13.932,2.385,13.412,3.996
										c-0.78,4.139-6.895,6.105-13.15,5.188C208.591,84.721,209.632,76.971,209.632,76.971"/>
									<path fill="none" d="M209.632,76.971c1.536-0.362,3.233-0.516,4.954-0.517c6.766,0,13.932,2.385,13.412,3.996
										c-0.78,4.139-6.895,6.105-13.15,5.188C208.591,84.721,209.632,76.971,209.632,76.971"/>
									<path fill="none" d="M209.632,76.971c1.536-0.362,3.233-0.516,4.954-0.517c6.766,0,13.932,2.385,13.412,3.996
										c-0.78,4.139-6.895,6.105-13.15,5.188C208.591,84.721,209.632,76.971,209.632,76.971"/>
									<path fill="none" d="M209.632,76.971c1.536-0.362,3.233-0.516,4.954-0.517c6.766,0,13.932,2.385,13.412,3.996
										c-0.78,4.139-6.895,6.105-13.15,5.188C208.591,84.721,209.632,76.971,209.632,76.971"/>
									<path fill="none" d="M209.632,76.971c1.536-0.362,3.233-0.516,4.954-0.517c6.766,0,13.932,2.385,13.412,3.996
										c-0.78,4.139-6.895,6.105-13.15,5.188C208.591,84.721,209.632,76.971,209.632,76.971"/>
									<path fill="none" d="M209.632,76.971c1.536-0.362,3.233-0.516,4.954-0.517c6.766,0,13.932,2.385,13.412,3.996
										c-0.78,4.139-6.895,6.105-13.15,5.188C208.591,84.721,209.632,76.971,209.632,76.971"/>
									<path fill="none" d="M209.632,76.971c1.536-0.362,3.233-0.516,4.954-0.517c6.766,0,13.932,2.385,13.412,3.996
										c-0.78,4.139-6.895,6.105-13.15,5.188C208.591,84.721,209.632,76.971,209.632,76.971"/>
									<path fill="none" d="M209.632,76.971c1.536-0.362,3.233-0.516,4.954-0.517c6.766,0,13.932,2.385,13.412,3.996
										c-0.78,4.139-6.895,6.105-13.15,5.188C208.591,84.721,209.632,76.971,209.632,76.971"/>
									<path fill="none" d="M209.632,76.971c1.536-0.362,3.233-0.516,4.954-0.517c6.766,0,13.932,2.385,13.412,3.996
										c-0.78,4.139-6.895,6.105-13.15,5.188C208.591,84.721,209.632,76.971,209.632,76.971"/>
									<path fill="none" d="M209.632,76.971c1.536-0.362,3.233-0.516,4.954-0.517c6.766,0,13.932,2.385,13.412,3.996
										c-0.78,4.139-6.895,6.105-13.15,5.188C208.591,84.721,209.632,76.971,209.632,76.971"/>
									<path fill="none" d="M209.632,76.971c1.536-0.362,3.233-0.516,4.954-0.517c6.766,0,13.932,2.385,13.412,3.996
										c-0.78,4.139-6.895,6.105-13.15,5.188C208.591,84.721,209.632,76.971,209.632,76.971"/>
									<path fill="none" d="M209.632,76.971c1.536-0.362,3.233-0.516,4.954-0.517c6.766,0,13.932,2.385,13.412,3.996
										c-0.78,4.139-6.895,6.105-13.15,5.188C208.591,84.721,209.632,76.971,209.632,76.971"/>
									<path fill="none" d="M209.632,76.971c1.536-0.362,3.233-0.516,4.954-0.517c6.766,0,13.932,2.385,13.412,3.996
										c-0.78,4.139-6.895,6.105-13.15,5.188C208.591,84.721,209.632,76.971,209.632,76.971"/>
									<path fill="none" d="M209.632,76.971c1.536-0.362,3.233-0.516,4.954-0.517c6.766,0,13.932,2.385,13.412,3.996
										c-0.78,4.139-6.895,6.105-13.15,5.188C208.591,84.721,209.632,76.971,209.632,76.971"/>
									<path fill="none" d="M209.632,76.971c1.536-0.362,3.233-0.516,4.954-0.517c6.766,0,13.932,2.385,13.412,3.996
										c-0.78,4.139-6.895,6.105-13.15,5.188C208.591,84.721,209.632,76.971,209.632,76.971"/>
									<path fill="none" d="M209.632,76.971c1.536-0.362,3.233-0.516,4.954-0.517c6.766,0,13.932,2.385,13.412,3.996
										c-0.78,4.139-6.895,6.105-13.15,5.188C208.591,84.721,209.632,76.971,209.632,76.971"/>
									<path fill="none" d="M209.632,76.971c1.536-0.362,3.233-0.516,4.954-0.517c6.766,0,13.932,2.385,13.412,3.996
										c-0.78,4.139-6.895,6.105-13.15,5.188C208.591,84.721,209.632,76.971,209.632,76.971"/>
									<path fill="none" d="M209.632,76.971c1.536-0.362,3.233-0.516,4.954-0.517c6.766,0,13.932,2.385,13.412,3.996
										c-0.78,4.139-6.895,6.105-13.15,5.188C208.591,84.721,209.632,76.971,209.632,76.971"/>
									<path fill="none" d="M209.632,76.971c1.536-0.362,3.233-0.516,4.954-0.517c6.766,0,13.932,2.385,13.412,3.996
										c-0.78,4.139-6.895,6.105-13.15,5.188C208.591,84.721,209.632,76.971,209.632,76.971"/>
									<path fill="none" d="M209.632,76.971c1.536-0.362,3.233-0.516,4.954-0.517c6.766,0,13.932,2.385,13.412,3.996
										c-0.78,4.139-6.895,6.105-13.15,5.188C208.591,84.721,209.632,76.971,209.632,76.971"/>
									<path fill="none" d="M209.632,76.971c1.536-0.362,3.233-0.516,4.954-0.517c6.766,0,13.932,2.385,13.412,3.996
										c-0.78,4.139-6.895,6.105-13.15,5.188C208.591,84.721,209.632,76.971,209.632,76.971"/>
									<path fill="none" d="M209.632,76.971c1.536-0.362,3.233-0.516,4.954-0.517c6.766,0,13.932,2.385,13.412,3.996
										c-0.78,4.139-6.895,6.105-13.15,5.188C208.591,84.721,209.632,76.971,209.632,76.971"/>
									<path fill="none" d="M209.632,76.971c1.536-0.362,3.233-0.516,4.954-0.517c6.766,0,13.932,2.385,13.412,3.996
										c-0.78,4.139-6.895,6.105-13.15,5.188C208.591,84.721,209.632,76.971,209.632,76.971"/>
									<path fill="none" d="M209.632,76.971c1.536-0.362,3.233-0.516,4.954-0.517c6.766,0,13.932,2.385,13.412,3.996
										c-0.78,4.139-6.895,6.105-13.15,5.188C208.591,84.721,209.632,76.971,209.632,76.971"/>
									<path fill="none" d="M209.632,76.971c1.536-0.362,3.233-0.516,4.954-0.517c6.766,0,13.932,2.385,13.412,3.996
										c-0.78,4.139-6.895,6.105-13.15,5.188C208.591,84.721,209.632,76.971,209.632,76.971"/>
									<path fill="none" d="M209.632,76.971c1.536-0.362,3.233-0.516,4.954-0.517c6.766,0,13.932,2.385,13.412,3.996
										c-0.78,4.139-6.895,6.105-13.15,5.188C208.591,84.721,209.632,76.971,209.632,76.971"/>
									<path fill="none" d="M209.632,76.971c1.536-0.362,3.233-0.516,4.954-0.517c6.766,0,13.932,2.385,13.412,3.996
										c-0.78,4.139-6.895,6.105-13.15,5.188C208.591,84.721,209.632,76.971,209.632,76.971"/>
									<path fill="none" d="M209.632,76.971c1.536-0.362,3.233-0.516,4.954-0.517c6.766,0,13.932,2.385,13.412,3.996
										c-0.78,4.139-6.895,6.105-13.15,5.188C208.591,84.721,209.632,76.971,209.632,76.971"/>
									<path fill="none" d="M209.632,76.971c1.536-0.362,3.233-0.516,4.954-0.517c6.766,0,13.932,2.385,13.412,3.996
										c-0.78,4.139-6.895,6.105-13.15,5.188C208.591,84.721,209.632,76.971,209.632,76.971"/>
									<path fill="none" d="M209.632,76.971c1.536-0.362,3.233-0.516,4.954-0.517c6.766,0,13.932,2.385,13.412,3.996
										c-0.78,4.139-6.895,6.105-13.15,5.188C208.591,84.721,209.632,76.971,209.632,76.971"/>
									<path fill="none" d="M209.632,76.971c1.536-0.362,3.233-0.516,4.954-0.517c6.766,0,13.932,2.385,13.412,3.996
										c-0.78,4.139-6.895,6.105-13.15,5.188C208.591,84.721,209.632,76.971,209.632,76.971"/>
									<path fill="none" d="M209.632,76.971c1.536-0.362,3.233-0.516,4.954-0.517c6.766,0,13.932,2.385,13.412,3.996
										c-0.78,4.139-6.895,6.105-13.15,5.188C208.591,84.721,209.632,76.971,209.632,76.971"/>
									<path fill="none" d="M209.632,76.971c1.536-0.362,3.233-0.516,4.954-0.517c6.766,0,13.932,2.385,13.412,3.996
										c-0.78,4.139-6.895,6.105-13.15,5.188C208.591,84.721,209.632,76.971,209.632,76.971"/>
									<path fill="none" d="M209.632,76.971c1.536-0.362,3.233-0.516,4.954-0.517c6.766,0,13.932,2.385,13.412,3.996
										c-0.78,4.139-6.895,6.105-13.15,5.188C208.591,84.721,209.632,76.971,209.632,76.971"/>
									<path fill="none" d="M209.632,76.971c1.536-0.362,3.233-0.516,4.954-0.517c6.766,0,13.932,2.385,13.412,3.996
										c-0.78,4.139-6.895,6.105-13.15,5.188C208.591,84.721,209.632,76.971,209.632,76.971"/>
									<path fill="none" d="M209.632,76.971c1.536-0.362,3.233-0.516,4.954-0.517c6.766,0,13.932,2.385,13.412,3.996
										c-0.78,4.139-6.895,6.105-13.15,5.188C208.591,84.721,209.632,76.971,209.632,76.971"/>
									<path fill="none" d="M209.632,76.971c1.536-0.362,3.233-0.516,4.954-0.517c6.766,0,13.932,2.385,13.412,3.996
										c-0.78,4.139-6.895,6.105-13.15,5.188C208.591,84.721,209.632,76.971,209.632,76.971"/>
									<path fill="none" d="M209.632,76.971c1.536-0.362,3.233-0.516,4.954-0.517c6.766,0,13.932,2.385,13.412,3.996
										c-0.78,4.139-6.895,6.105-13.15,5.188C208.591,84.721,209.632,76.971,209.632,76.971"/>
									<path fill="none" d="M209.632,76.971c1.536-0.362,3.233-0.516,4.954-0.517c6.766,0,13.932,2.385,13.412,3.996
										c-0.78,4.139-6.895,6.105-13.15,5.188C208.591,84.721,209.632,76.971,209.632,76.971"/>
									<path fill="none" d="M209.632,76.971c1.536-0.362,3.233-0.516,4.954-0.517c6.766,0,13.932,2.385,13.412,3.996
										c-0.78,4.139-6.895,6.105-13.15,5.188C208.591,84.721,209.632,76.971,209.632,76.971"/>
									<path fill="none" d="M209.632,76.971c1.536-0.362,3.233-0.516,4.954-0.517c6.766,0,13.932,2.385,13.412,3.996
										c-0.78,4.139-6.895,6.105-13.15,5.188C208.591,84.721,209.632,76.971,209.632,76.971"/>
									<path fill="none" d="M209.632,76.971c1.536-0.362,3.233-0.516,4.954-0.517c6.766,0,13.932,2.385,13.412,3.996
										c-0.78,4.139-6.895,6.105-13.15,5.188C208.591,84.721,209.632,76.971,209.632,76.971"/>
									<path fill="none" d="M209.632,76.971c1.536-0.362,3.233-0.516,4.954-0.517c6.766,0,13.932,2.385,13.412,3.996
										c-0.78,4.139-6.895,6.105-13.15,5.188C208.591,84.721,209.632,76.971,209.632,76.971"/>
									<path fill="none" d="M209.632,76.971c1.536-0.362,3.233-0.516,4.954-0.517c6.766,0,13.932,2.385,13.412,3.996
										c-0.78,4.139-6.895,6.105-13.15,5.188C208.591,84.721,209.632,76.971,209.632,76.971"/>
									<path fill="none" d="M209.632,76.971c1.536-0.362,3.233-0.516,4.954-0.517c6.766,0,13.932,2.385,13.412,3.996
										c-0.78,4.139-6.895,6.105-13.15,5.188C208.591,84.721,209.632,76.971,209.632,76.971"/>
									<path fill="none" d="M209.632,76.971c1.536-0.362,3.233-0.516,4.954-0.517c6.766,0,13.932,2.385,13.412,3.996
										c-0.78,4.139-6.895,6.105-13.15,5.188C208.591,84.721,209.632,76.971,209.632,76.971"/>
									<path fill="none" d="M209.632,76.971c1.536-0.362,3.233-0.516,4.954-0.517c6.766,0,13.932,2.385,13.412,3.996
										c-0.78,4.139-6.895,6.105-13.15,5.188C208.591,84.721,209.632,76.971,209.632,76.971"/>
									<path fill="none" d="M209.632,76.971c1.536-0.362,3.233-0.516,4.954-0.517c6.766,0,13.932,2.385,13.412,3.996
										c-0.78,4.139-6.895,6.105-13.15,5.188C208.591,84.721,209.632,76.971,209.632,76.971"/>
									<path fill="none" d="M209.632,76.971c1.536-0.362,3.233-0.516,4.954-0.517c6.766,0,13.932,2.385,13.412,3.996
										c-0.78,4.139-6.895,6.105-13.15,5.188C208.591,84.721,209.632,76.971,209.632,76.971"/>
									<path fill="none" d="M209.632,76.971c1.536-0.362,3.233-0.516,4.954-0.517c6.766,0,13.932,2.385,13.412,3.996
										c-0.78,4.139-6.895,6.105-13.15,5.188C208.591,84.721,209.632,76.971,209.632,76.971"/>
									<path fill="none" d="M209.632,76.971c1.536-0.362,3.233-0.516,4.954-0.517c6.766,0,13.932,2.385,13.412,3.996
										c-0.78,4.139-6.895,6.105-13.15,5.188C208.591,84.721,209.632,76.971,209.632,76.971"/>
									<path fill="none" d="M209.632,76.971c1.536-0.362,3.233-0.516,4.954-0.517c6.766,0,13.932,2.385,13.412,3.996
										c-0.78,4.139-6.895,6.105-13.15,5.188C208.591,84.721,209.632,76.971,209.632,76.971"/>
									<path fill="none" d="M209.632,76.971c1.536-0.362,3.233-0.516,4.954-0.517c6.766,0,13.932,2.385,13.412,3.996
										c-0.78,4.139-6.895,6.105-13.15,5.188C208.591,84.721,209.632,76.971,209.632,76.971"/>
									<path fill="none" d="M209.632,76.971c1.536-0.362,3.233-0.516,4.954-0.517c6.766,0,13.932,2.385,13.412,3.996
										c-0.78,4.139-6.895,6.105-13.15,5.188C208.591,84.721,209.632,76.971,209.632,76.971"/>
									<path fill="none" d="M209.632,76.971c1.536-0.362,3.233-0.516,4.954-0.517c6.766,0,13.932,2.385,13.412,3.996
										c-0.78,4.139-6.895,6.105-13.15,5.188C208.591,84.721,209.632,76.971,209.632,76.971"/>
									<path fill="none" d="M209.632,76.971c1.536-0.362,3.233-0.516,4.954-0.517c6.766,0,13.932,2.385,13.412,3.996
										c-0.78,4.139-6.895,6.105-13.15,5.188C208.591,84.721,209.632,76.971,209.632,76.971"/>
									<path fill="none" d="M209.632,76.971c1.536-0.362,3.233-0.516,4.954-0.517c6.766,0,13.932,2.385,13.412,3.996
										c-0.78,4.139-6.895,6.105-13.15,5.188C208.591,84.721,209.632,76.971,209.632,76.971"/>
									<path fill="none" d="M209.632,76.971c1.536-0.362,3.233-0.516,4.954-0.517c6.766,0,13.932,2.385,13.412,3.996
										c-0.78,4.139-6.895,6.105-13.15,5.188C208.591,84.721,209.632,76.971,209.632,76.971"/>
									<path fill="none" d="M209.632,76.971c1.536-0.362,3.233-0.516,4.954-0.517c6.766,0,13.932,2.385,13.412,3.996
										c-0.78,4.139-6.895,6.105-13.15,5.188C208.591,84.721,209.632,76.971,209.632,76.971"/>
									<path fill="none" d="M209.632,76.971c1.536-0.362,3.233-0.516,4.954-0.517c6.766,0,13.932,2.385,13.412,3.996
										c-0.78,4.139-6.895,6.105-13.15,5.188C208.591,84.721,209.632,76.971,209.632,76.971"/>
									<path fill="none" d="M209.632,76.971c1.536-0.362,3.233-0.516,4.954-0.517c6.766,0,13.932,2.385,13.412,3.996
										c-0.78,4.139-6.895,6.105-13.15,5.188C208.591,84.721,209.632,76.971,209.632,76.971"/>
									<path fill="none" d="M209.632,76.971c1.536-0.362,3.233-0.516,4.954-0.517c6.766,0,13.932,2.385,13.412,3.996
										c-0.78,4.139-6.895,6.105-13.15,5.188C208.591,84.721,209.632,76.971,209.632,76.971"/>
									<path fill="none" d="M209.632,76.971c1.536-0.362,3.233-0.516,4.954-0.517c6.766,0,13.932,2.385,13.412,3.996
										c-0.78,4.139-6.895,6.105-13.15,5.188C208.591,84.721,209.632,76.971,209.632,76.971"/>
									<path fill="none" d="M209.632,76.971c1.536-0.362,3.233-0.516,4.954-0.517c6.766,0,13.932,2.385,13.412,3.996
										c-0.78,4.139-6.895,6.105-13.15,5.188C208.591,84.721,209.632,76.971,209.632,76.971"/>
									<path fill="none" d="M209.632,76.971c1.536-0.362,3.233-0.516,4.954-0.517c6.766,0,13.932,2.385,13.412,3.996
										c-0.78,4.139-6.895,6.105-13.15,5.188C208.591,84.721,209.632,76.971,209.632,76.971"/>
									<path fill="#A85715" d="M213.841,80.41c0.854-2.668,3.711-4.139,6.378-3.285c2.67,0.853,4.141,3.709,3.285,6.377
										c-0.854,2.668-3.708,4.14-6.376,3.286C214.459,85.934,212.99,83.079,213.841,80.41"/>
									<path fill="none" d="M209.632,76.971c1.536-0.362,3.233-0.516,4.954-0.517c6.766,0,13.932,2.385,13.412,3.996
										c-0.78,4.139-6.895,6.105-13.15,5.188C208.591,84.721,209.632,76.971,209.632,76.971"/>
									<path fill="none" d="M209.632,76.971c1.536-0.362,3.233-0.516,4.954-0.517c6.766,0,13.932,2.385,13.412,3.996
										c-0.78,4.139-6.895,6.105-13.15,5.188C208.591,84.721,209.632,76.971,209.632,76.971"/>
									<path fill="none" d="M209.632,76.971c1.536-0.362,3.233-0.516,4.954-0.517c6.766,0,13.932,2.385,13.412,3.996
										c-0.78,4.139-6.895,6.105-13.15,5.188C208.591,84.721,209.632,76.971,209.632,76.971"/>
									<path fill="none" d="M209.632,76.971c1.536-0.362,3.233-0.516,4.954-0.517c6.766,0,13.932,2.385,13.412,3.996
										c-0.78,4.139-6.895,6.105-13.15,5.188C208.591,84.721,209.632,76.971,209.632,76.971"/>
									<path fill="none" d="M209.632,76.971c1.536-0.362,3.233-0.516,4.954-0.517c6.766,0,13.932,2.385,13.412,3.996
										c-0.78,4.139-6.895,6.105-13.15,5.188C208.591,84.721,209.632,76.971,209.632,76.971"/>
									<path fill="none" d="M209.632,76.971c1.536-0.362,3.233-0.516,4.954-0.517c6.766,0,13.932,2.385,13.412,3.996
										c-0.78,4.139-6.895,6.105-13.15,5.188C208.591,84.721,209.632,76.971,209.632,76.971"/>
									<path fill="none" d="M209.632,76.971c1.536-0.362,3.233-0.516,4.954-0.517c6.766,0,13.932,2.385,13.412,3.996
										c-0.78,4.139-6.895,6.105-13.15,5.188C208.591,84.721,209.632,76.971,209.632,76.971"/>
									<path fill="none" d="M209.632,76.971c1.536-0.362,3.233-0.516,4.954-0.517c6.766,0,13.932,2.385,13.412,3.996
										c-0.78,4.139-6.895,6.105-13.15,5.188C208.591,84.721,209.632,76.971,209.632,76.971"/>
									<path fill="none" d="M209.632,76.971c1.536-0.362,3.233-0.516,4.954-0.517c6.766,0,13.932,2.385,13.412,3.996
										c-0.78,4.139-6.895,6.105-13.15,5.188C208.591,84.721,209.632,76.971,209.632,76.971"/>
									<path fill="none" d="M209.632,76.971c1.536-0.362,3.233-0.516,4.954-0.517c6.766,0,13.932,2.385,13.412,3.996
										c-0.78,4.139-6.895,6.105-13.15,5.188C208.591,84.721,209.632,76.971,209.632,76.971"/>
									<path fill="none" d="M209.632,76.971c1.536-0.362,3.233-0.516,4.954-0.517c6.766,0,13.932,2.385,13.412,3.996
										c-0.78,4.139-6.895,6.105-13.15,5.188C208.591,84.721,209.632,76.971,209.632,76.971"/>
									<path fill="none" d="M209.632,76.971c1.536-0.362,3.233-0.516,4.954-0.517c6.766,0,13.932,2.385,13.412,3.996
										c-0.78,4.139-6.895,6.105-13.15,5.188C208.591,84.721,209.632,76.971,209.632,76.971"/>
									<path fill="#3D1800" d="M216.172,81.156c0.441-1.381,1.92-2.142,3.303-1.7c1.381,0.441,2.143,1.92,1.699,3.301
										c-0.441,1.381-1.92,2.142-3.3,1.7C216.492,84.016,215.73,82.537,216.172,81.156"/>
									<path fill="none" d="M209.632,76.971c1.536-0.362,3.233-0.516,4.954-0.517c6.766,0,13.932,2.385,13.412,3.996
										c-0.78,4.139-6.895,6.105-13.15,5.188C208.591,84.721,209.632,76.971,209.632,76.971"/>
									<path fill="none" d="M209.632,76.971c1.536-0.362,3.233-0.516,4.954-0.517c6.766,0,13.932,2.385,13.412,3.996
										c-0.78,4.139-6.895,6.105-13.15,5.188C208.591,84.721,209.632,76.971,209.632,76.971"/>
									<path fill="none" d="M209.632,76.971c1.536-0.362,3.233-0.516,4.954-0.517c6.766,0,13.932,2.385,13.412,3.996
										c-0.78,4.139-6.895,6.105-13.15,5.188C208.591,84.721,209.632,76.971,209.632,76.971"/>
									<path fill="none" d="M209.632,76.971c1.536-0.362,3.233-0.516,4.954-0.517c6.766,0,13.932,2.385,13.412,3.996
										c-0.78,4.139-6.895,6.105-13.15,5.188C208.591,84.721,209.632,76.971,209.632,76.971"/>
									<path fill="none" d="M209.632,76.971c1.536-0.362,3.233-0.516,4.954-0.517c6.766,0,13.932,2.385,13.412,3.996
										c-0.78,4.139-6.895,6.105-13.15,5.188C208.591,84.721,209.632,76.971,209.632,76.971"/>
									<path fill="none" d="M209.632,76.971c1.536-0.362,3.233-0.516,4.954-0.517c6.766,0,13.932,2.385,13.412,3.996
										c-0.78,4.139-6.895,6.105-13.15,5.188C208.591,84.721,209.632,76.971,209.632,76.971"/>
									<path fill="none" d="M209.632,76.971c1.536-0.362,3.233-0.516,4.954-0.517c6.766,0,13.932,2.385,13.412,3.996
										c-0.78,4.139-6.895,6.105-13.15,5.188C208.591,84.721,209.632,76.971,209.632,76.971"/>
									<path fill="none" d="M209.632,76.971c1.536-0.362,3.233-0.516,4.954-0.517c6.766,0,13.932,2.385,13.412,3.996
										c-0.78,4.139-6.895,6.105-13.15,5.188C208.591,84.721,209.632,76.971,209.632,76.971"/>
									<path fill="none" d="M209.632,76.971c1.536-0.362,3.233-0.516,4.954-0.517c6.766,0,13.932,2.385,13.412,3.996
										c-0.78,4.139-6.895,6.105-13.15,5.188C208.591,84.721,209.632,76.971,209.632,76.971"/>
									<path fill="none" d="M209.632,76.971c1.536-0.362,3.233-0.516,4.954-0.517c6.766,0,13.932,2.385,13.412,3.996
										c-0.78,4.139-6.895,6.105-13.15,5.188C208.591,84.721,209.632,76.971,209.632,76.971"/>
									<path fill="none" d="M209.632,76.971c1.536-0.362,3.233-0.516,4.954-0.517c6.766,0,13.932,2.385,13.412,3.996
										c-0.78,4.139-6.895,6.105-13.15,5.188C208.591,84.721,209.632,76.971,209.632,76.971"/>
									<path fill="none" d="M209.632,76.971c1.536-0.362,3.233-0.516,4.954-0.517c6.766,0,13.932,2.385,13.412,3.996
										c-0.78,4.139-6.895,6.105-13.15,5.188C208.591,84.721,209.632,76.971,209.632,76.971"/>
									<path fill="#FFFFFF" d="M214.827,78.585c0.219-0.688,0.956-1.067,1.646-0.848c0.688,0.22,1.068,0.956,0.848,1.645
										s-0.957,1.068-1.646,0.848S214.607,79.272,214.827,78.585"/>
									<path fill="#595455" d="M286.225,90.259c4.494-7.494,1.713-28.049,4.711-32.758c2.996-4.711,7.064-13.061,3.854-21.625
										c-3.212-8.565-15.63-14.774-24.837-14.559c-9.206,0.213-12.634-3.641-21.625-5.568c-8.993-1.926-21.197,3.64-29.332,5.568
										c-8.136,1.926-7.923,10.276-2.354,11.775c5.566,1.498,9.42-2.569,17.984-3.211c8.563-0.643,11.988,8.349,21.411,8.564
										c9.421,0.213,8.776,5.138,10.918,9.206s-4.282,7.065-6.425,10.491c-2.141,3.425,1.5,5.353,6.425,10.277
										c4.925,4.926,3.427,14.988,2.998,20.769c-0.431,5.781-2.783,9.635-2.783,9.635l7.278,1.07L286.225,90.259"/>
									<path fill="#564F4C" d="M229.801,69.359c0.393,2.2-2.459,1.653-5.095,0.375c-2.638-1.277-7.513-0.049-10.033,0.626
										c-2.519,0.675-3.282,0.184-3.763-0.265c-0.48-0.451,2.925-5.025,11.313-4.52C227.061,65.866,229.412,67.159,229.801,69.359
										"/>
									<path fill="none" stroke="#473F3D" stroke-width="1.289" stroke-miterlimit="10" d="M224.706,69.734
										c-2.638-1.277-7.513-0.049-10.033,0.626c-2.519,0.675-3.282,0.184-3.763-0.265c-0.48-0.451,2.925-5.025,11.313-4.52
										c4.838,0.291,7.188,1.584,7.577,3.784C230.193,71.559,227.342,71.012,224.706,69.734z"/>
									<path fill="#564F4C" d="M238.695,70.515c-0.635,2.099,2.25,1.87,5.008,0.908s9.936,1.211,12.354,2.137
										c2.42,0.925,3.234,0.528,3.76,0.142c0.527-0.387-2.976-5.808-11.313-6.626C240.215,66.262,239.329,68.415,238.695,70.515"
										/>
									<path fill="none" stroke="#473F3D" stroke-width="1.273" stroke-miterlimit="10" d="M243.701,71.423
										c2.758-0.962,9.936,1.211,12.354,2.137c2.42,0.925,3.234,0.528,3.76,0.142c0.527-0.387-2.976-5.808-11.313-6.626
										c-8.287-0.814-9.173,1.339-9.808,3.439C238.061,72.614,240.945,72.385,243.701,71.423z"/>
									<g>
										<g>
											<g>
												<g opacity="0.3">
													<rect x="295.193" y="401.574" fill="none" width="54.774" height="73.211"/>
													<path d="M347.356,430.3c-0.021-0.477-0.069-0.975-0.17-1.518c-1.31-7.271-2.659-12.945-2.447-17.381
														c0.209-4.436-0.482-9.832-0.482-9.832l-21.592,1.225c0,0,1.068,4.15-3.569,11.994
														c-2.985,3.088-9.686,3.516-11.523,7.33c-2.115,4.385-2.01,7.096-10.633,15.664c-6.506,6.459,6.893,6.395,11.955-0.311
														c1.528-2.02,3.153-3.627,4.181-4.563c0.111,1.076,0.288,2.145,0.504,3.229l-0.048-0.018c0,0-0.57,12.762-1.517,15.695
														c-0.945,2.934-6.065,7.848-7.903,11.061c-1.84,3.211-1.713,11.482,0.986,9.471
														c5.064-3.771,12.359-12.439,15.057-14.156c2.076-1.324,2.733-8.246,3.252-13.91c0.134-0.004,0.262,0.004,0.396-0.002
														c-0.146,3.688-0.437,8.191-0.561,9.141c-0.373,2.889-5.827,8.998-6.981,12.299c-1.152,3.303,0.389,10.971,2.55,8.635
														c2.362-2.551,5.659-6.99,8.443-10.668c-0.35,3.846,1.055,9.254,2.997,7.197c2.625-2.775,5.297-7.271,7.4-10.98
														c0.063,3.234,2.535,8.5,3.86,6.254c2.688-4.559,6.727-14.475,8.248-16.672
														C350.605,448.263,348.64,436.738,347.356,430.3 M333.525,449.47c-0.061,0.422-0.194,0.896-0.381,1.404
														c0.145-2.896,0.166-6.24,0.156-9.188c0.058-0.025,0.115-0.055,0.172-0.078
														C333.633,444.357,333.759,447.789,333.525,449.47"/>
												</g>
												<path fill="#ECBA97" d="M321.335,402.794c0,0,1.278,4.889-4.892,14.094c-6.167,9.207-5.228,14.889-3.705,21.533
													s10.457,7.635,19.655,3.072c9.2-4.564,14.776-5.441,13.466-12.713c-1.313-7.268-2.636-13.162-2.425-17.6
													c0.208-4.436-0.512-9.611-0.512-9.611L321.335,402.794z"/>
												
													<path fill="none" stroke="#9F7557" stroke-width="1.467" stroke-linecap="round" stroke-linejoin="round" stroke-miterlimit="10" d="
													M321.335,402.794c0,0,1.278,4.889-4.892,14.094c-6.167,9.207-5.228,14.889-3.705,21.533s10.457,7.635,19.655,3.072
													c9.2-4.564,14.776-5.441,13.466-12.713c-1.313-7.268-2.636-13.162-2.425-17.6c0.208-4.436-0.512-9.611-0.512-9.611
													L321.335,402.794z"/>
												<path fill="#ECBA97" d="M312.797,431.992c0,0-2.749,2.195-5.234,5.486c-5.063,6.705-18.461,6.764-11.957,0.305
													c8.623-8.568,8.521-11.279,10.635-15.664c2.114-4.387,10.664-4.291,12.593-8.92"/>
												
													<path fill="none" stroke="#9F7557" stroke-width="1.467" stroke-linecap="round" stroke-linejoin="round" stroke-miterlimit="10" d="
													M312.797,431.992c0,0-2.749,2.195-5.234,5.486c-5.063,6.705-18.461,6.764-11.957,0.305
													c8.623-8.568,8.521-11.279,10.635-15.664c2.114-4.387,10.664-4.291,12.593-8.92"/>
												<g>
													<g>
														<g>
															<g opacity="0.4">
																<rect x="281.689" y="426.177" fill="none" width="96.305" height="73.393"/>
																<path fill="#545454" d="M281.794,449.628c-0.521-2.373,0.968-4.723,3.334-5.268l78.728-18.068
																	c2.401-0.551,4.794,0.967,5.318,3.377l8.721,40.059c0.486,2.236-0.81,4.477-2.988,5.166l-77.25,24.471
																	c-2.481,0.787-5.104-0.729-5.661-3.271L281.794,449.628"/>
															</g>
															<path fill="#9DB2AA" d="M279.38,448.898c-0.521-2.373,0.968-4.725,3.334-5.266l78.729-18.068
																c2.4-0.551,4.795,0.965,5.316,3.373l8.722,40.064c0.485,2.234-0.81,4.473-2.988,5.164l-77.25,24.469
																c-2.481,0.787-5.104-0.73-5.663-3.271L279.38,448.898"/>
															<path fill="none" stroke="#6F7B7F" stroke-width="0.973" stroke-miterlimit="10" d="M282.714,443.632l78.729-18.068
																c2.4-0.551,4.795,0.965,5.316,3.373l8.722,40.064c0.485,2.234-0.81,4.473-2.988,5.164l-77.25,24.469
																c-2.481,0.787-5.104-0.73-5.663-3.271l-10.198-46.465C278.859,446.525,280.348,444.173,282.714,443.632z"/>
															<g>
																<g>
																	<g>
																		<g opacity="0.3">
																			<rect x="302.871" y="429.107" fill="none" width="47.097" height="45.678"/>
																			<path d="M347.356,430.3c-0.02-0.377-0.061-0.775-0.12-1.195c-11.483,0.861-22.949,3.256-33.714,7.154
																				c-0.063,1.369-0.62,12.805-1.51,15.561c-0.944,2.934-6.065,7.848-7.903,11.061
																				c-1.84,3.211-1.713,11.482,0.986,9.471c5.064-3.771,12.361-12.439,15.057-14.156
																				c2.075-1.324,2.733-8.246,3.252-13.91c0.134-0.004,0.262,0.004,0.396-0.002
																				c-0.146,3.688-0.437,8.191-0.561,9.141c-0.373,2.889-5.827,8.998-6.981,12.299
																				c-1.152,3.303,0.389,10.971,2.55,8.635c2.362-2.551,5.659-6.99,8.442-10.668
																				c-0.349,3.846,1.056,9.254,2.998,7.197c2.625-2.775,5.297-7.271,7.4-10.98c0.063,3.234,2.535,8.5,3.86,6.254
																				c2.688-4.559,6.727-14.475,8.248-16.672C350.605,448.263,348.64,436.738,347.356,430.3 M333.525,449.47
																				c-0.061,0.422-0.194,0.896-0.381,1.404c0.145-2.896,0.166-6.24,0.156-9.188c0.058-0.025,0.115-0.055,0.172-0.078
																				C333.633,444.357,333.759,447.789,333.525,449.47"/>
																		</g>
																		<path fill="#ECBA97" d="M321.906,403.312c0,0,0.833,4.674-5.21,13.693c-6.044,9.02-5.121,14.586-3.631,21.098
																			c1.492,6.51,10.243,7.48,19.258,3.008c9.018-4.469,14.479-5.33,13.192-12.451
																			c-1.284-7.125-2.675-12.99-2.469-17.336c0.206-4.344-0.407-9.328-0.407-9.328L321.906,403.312z"/>
																		<path fill="#ECBA97" d="M339.563,438.482c0,0,0.303,6.148,0.521,8.721c0.221,2.572-3.353,8.885-3.73,11.959
																			c-0.379,3.076,2.399,9.42,3.83,6.994c2.688-4.559,6.727-14.475,8.249-16.672
																			c0.961-1.387-1.716-16.115-2.888-21.514"/>
																		
																			<path fill="none" stroke="#9F7557" stroke-width="1.467" stroke-linecap="round" stroke-linejoin="round" stroke-miterlimit="10" d="
																			M339.563,438.482c0,0,0.303,6.148,0.521,8.721c0.221,2.572-3.353,8.885-3.73,11.959
																			c-0.379,3.076,2.399,9.42,3.83,6.994c2.688-4.559,6.727-14.475,8.249-16.672
																			c0.961-1.387-1.716-16.115-2.888-21.514"/>
																		<path fill="#ECBA97" d="M332.021,439.669c0.197,2.813,0.472,7.691,0.178,9.801
																			c-0.427,3.055-4.623,8.775-5.881,12.254c-1.259,3.479,0.292,11.605,2.604,9.158
																			c4.339-4.592,8.825-13.898,10.617-16.545c1.658-2.443,1.146-10.688,1.114-17.848"/>
																		
																			<path fill="none" stroke="#9F7557" stroke-width="1.467" stroke-linecap="round" stroke-linejoin="round" stroke-miterlimit="10" d="
																			M332.021,439.669c0.197,2.813,0.472,7.691,0.178,9.801c-0.427,3.055-4.623,8.775-5.881,12.254
																			c-1.259,3.479,0.292,11.605,2.604,9.158c4.339-4.592,8.825-13.898,10.617-16.545
																			c1.658-2.443,1.146-10.688,1.114-17.848"/>
																		<path fill="#ECBA97" d="M322.529,439.751c0.152,2.449-0.432,12.223-0.617,13.668
																			c-0.374,2.891-5.829,8.998-6.983,12.299c-1.154,3.303,0.389,10.971,2.552,8.635
																			c4.06-4.385,10.89-14.357,13.097-16.418c1.501-1.398,1.434-12.705,1.38-19.271"/>
																		
																			<path fill="none" stroke="#9F7557" stroke-width="1.467" stroke-linecap="round" stroke-linejoin="round" stroke-miterlimit="10" d="
																			M322.529,439.751c0.152,2.449-0.432,12.223-0.617,13.668c-0.374,2.891-5.829,8.998-6.983,12.299
																			c-1.154,3.303,0.389,10.971,2.552,8.635c4.06-4.385,10.89-14.357,13.097-16.418
																			c1.501-1.398,1.434-12.705,1.38-19.271"/>
																		<path fill="#ECBA97" d="M312.199,436.125c0,0-0.571,12.764-1.52,15.695c-0.943,2.936-6.063,7.85-7.902,11.061
																			c-1.84,3.211-1.713,11.482,0.986,9.471c5.065-3.771,12.362-12.439,15.057-14.156
																			c2.69-1.721,3.003-12.848,3.709-18.439"/>
																		
																			<path fill="none" stroke="#9F7557" stroke-width="1.467" stroke-linecap="round" stroke-linejoin="round" stroke-miterlimit="10" d="
																			M312.199,436.125c0,0-0.571,12.764-1.52,15.695c-0.943,2.936-6.063,7.85-7.902,11.061
																			c-1.84,3.211-1.713,11.482,0.986,9.471c5.065-3.771,12.362-12.439,15.057-14.156
																			c2.69-1.721,3.003-12.848,3.709-18.439"/>
																		<path fill="#EAF6FE" d="M329.936,192.412c-11.935-10.052-32.033,16.331-34.547,32.664
																			c-2.513,16.331,10.049,74.123,13.19,99.248c3.141,25.125,8.114,79.057,8.114,79.057
																			c3.249,3.543,29.228,6.791,30.408-1.18c5.024-24.498,0.421-57.777-2.092-75.365
																			c-2.514-17.59-3.141-86.058-6.909-104.898C334.334,203.091,329.936,192.412,329.936,192.412"/>
																		<path fill="none" stroke="#65787F" stroke-width="1.177" stroke-miterlimit="10" d="M295.389,225.076
																			c-2.513,16.331,10.049,74.123,13.19,99.248c3.141,25.125,8.114,79.057,8.114,79.057
																			c3.249,3.543,29.228,6.791,30.408-1.18c5.024-24.498,0.421-57.777-2.092-75.365
																			c-2.514-17.59-3.141-86.058-6.909-104.898c-3.77-18.844-8.167-29.523-8.167-29.523
																			C318.001,182.36,297.902,208.743,295.389,225.076z"/>
																		<path fill="#CDA285" d="M270.721,109.783c0.203-1.671,0.717-3.654,1.436-5.85
																			c-0.803,3.632-1.426,6.789-1.723,9.234c-1.927,15.792-24.25,34.239-26.177,37.706
																			c-1.276,2.297-9.103,2.725-15.841,2.425c4.771-0.226,9.006-1.554,9.893-3.153
																			C240.236,146.679,268.792,125.577,270.721,109.783"/>
																		<path fill="#ECBA97" d="M269.637,113.496c0,0-0.562,5.453,5.62,5.183c6.183-0.269,1.562-10.253,6.237-13.492
																			c4.674-3.237,9.092-8.774,7.467-16.343c-1.626-7.569-10.537-4.839-16.018,1.591"/>
																		
																			<path fill="none" stroke="#9F7557" stroke-width="1.388" stroke-linecap="round" stroke-linejoin="round" stroke-miterlimit="10" d="
																			M269.637,113.496c0,0-0.562,5.453,5.62,5.183c6.183-0.269,1.562-10.253,6.237-13.492
																			c4.674-3.237,9.092-8.774,7.467-16.343c-1.626-7.569-10.537-4.839-16.018,1.591"/>
																		<path fill="#ECBA97" d="M274.096,108.21c0-2.725,0.853-5.279,6.645-8.857c5.791-3.577,3.064-10.39-0.854-8.176"/>
																		
																			<path fill="none" stroke="#9F7557" stroke-width="1.388" stroke-linecap="round" stroke-linejoin="round" stroke-miterlimit="10" d="
																			M274.096,108.21c0-2.725,0.853-5.279,6.645-8.857c5.791-3.577,3.064-10.39-0.854-8.176"/>
																		<path fill="#C99979" d="M219.466,122.609c0,0,5.205,5.041,10.731,5.274c5.525,0.236,16.505-5.163,14.564-5.571
																			c-1.935-0.408-10.31-0.634-11.617,0.004c-1.31,0.637-1.82,0.58-5.013-0.574
																			C224.711,120.505,219.466,122.609,219.466,122.609"/>
																		<path fill="#ECBA97" d="M230.184,110.056c-3.004-0.246-7.762,0.118-8.922-1.868
																			c-1.162-1.987,1.021-10.127,4.479-10.789c0.169-2.065,2.987-13.368,4.313-15.718"/>
																		
																			<path fill="none" stroke="#9F7557" stroke-width="1.388" stroke-linecap="round" stroke-linejoin="round" stroke-miterlimit="10" d="
																			M230.184,110.056c-3.004-0.246-7.762,0.118-8.922-1.868c-1.162-1.987,1.021-10.127,4.479-10.789
																			c0.169-2.065,2.987-13.368,4.313-15.718"/>
																		<path fill="#ECBA97" d="M247.854,124.182c1.826-3.85,1.461-8.737,0.244-9.329
																			c-1.217-0.592-4.257-3.998-4.257-3.998"/>
																		
																			<path fill="none" stroke="#9F7557" stroke-width="1.388" stroke-linecap="round" stroke-linejoin="round" stroke-miterlimit="10" d="
																			M247.854,124.182c1.826-3.85,1.461-8.737,0.244-9.329c-1.217-0.592-4.257-3.998-4.257-3.998"/>
																		<path fill="#ECBA97" d="M218.836,115.787c-0.109,2.372-2.707,3.162-3.464,4.875
																			c-0.759,1.713,0.217,4.084,0.974,6.192"/>
																		
																			<path fill="none" stroke="#9F7557" stroke-width="1.388" stroke-linecap="round" stroke-linejoin="round" stroke-miterlimit="10" d="
																			M218.836,115.787c-0.109,2.372-2.707,3.162-3.464,4.875c-0.759,1.713,0.217,4.084,0.974,6.192"/>
																		
																			<path fill="none" stroke="#9F7557" stroke-width="0.694" stroke-linecap="round" stroke-linejoin="round" stroke-miterlimit="10" d="
																			M219.711,122.997c1.531,0.188,15.271,3.697,25.075-0.773"/>
																		<path fill="none" stroke="#303030" stroke-miterlimit="10" d="M312.782,543.371
																			c-5.484-12.744-48.171-5.48-48.171-5.48"/>
																	</g>
																</g>
															</g>
														</g>
													</g>
												</g>
											</g>
										</g>
									</g>
								</g>
							</g>
						</g>
					</g>
				</g>
			</g>
		</g>
	</g>
</g>
</svg>
