<?xml version="1.0" encoding="utf-8"?>
<!-- Generator: Adobe Illustrator 16.0.0, SVG Export Plug-In . SVG Version: 6.00 Build 0)  -->
<!DOCTYPE svg PUBLIC "-//W3C//DTD SVG 1.1//EN" "http://www.w3.org/Graphics/SVG/1.1/DTD/svg11.dtd">
<svg version="1.1" id="Capa_1" xmlns="http://www.w3.org/2000/svg" xmlns:xlink="http://www.w3.org/1999/xlink" x="0px" y="0px"
	 width="194.939px" height="160.429px" viewBox="0 0 194.939 160.429" enable-background="new 0 0 194.939 160.429"
	 xml:space="preserve">
<g opacity="0.5">
	<rect x="13.188" y="20.44" fill="#FFFFFF" width="181.751" height="1"/>
</g>
<g opacity="0.5">
	<rect x="13.188" y="58.345" fill="#FFFFFF" width="181.751" height="1"/>
</g>
<g opacity="0.5">
	<rect x="13.188" y="99.515" fill="#FFFFFF" width="181.751" height="1"/>
</g>
<g opacity="0.5">
	<rect x="13.188" y="141.013" fill="#FFFFFF" width="181.751" height="1"/>
</g>
<g opacity="0.8">
	<path fill="#FFFFFF" d="M18.755,7.451l1.111-0.152c0.03,0.711,0.163,1.198,0.4,1.46s0.565,0.394,0.984,0.394
		c0.309,0,0.576-0.071,0.8-0.213c0.224-0.142,0.379-0.334,0.463-0.577c0.084-0.244,0.127-0.632,0.127-1.165V0.786h1.231v6.341
		c0,0.779-0.094,1.382-0.283,1.809c-0.188,0.427-0.486,0.753-0.895,0.978c-0.409,0.224-0.888,0.336-1.438,0.336
		c-0.817,0-1.442-0.235-1.875-0.705C18.947,9.076,18.738,8.378,18.755,7.451z"/>
	<path fill="#FFFFFF" d="M30.156,10.092v-0.99c-0.525,0.762-1.238,1.143-2.139,1.143c-0.398,0-0.769-0.076-1.114-0.229
		c-0.345-0.152-0.601-0.344-0.768-0.574c-0.167-0.231-0.285-0.513-0.353-0.848c-0.046-0.224-0.07-0.58-0.07-1.066V3.351h1.143v3.739
		c0,0.597,0.023,0.999,0.07,1.206c0.072,0.3,0.224,0.537,0.457,0.708c0.233,0.172,0.521,0.257,0.863,0.257s0.665-0.088,0.965-0.263
		c0.3-0.176,0.513-0.415,0.638-0.718c0.125-0.302,0.188-0.741,0.188-1.317V3.351h1.143v6.741H30.156z"/>
	<path fill="#FFFFFF" d="M32.511,8.08l1.13-0.178c0.063,0.453,0.24,0.8,0.53,1.041c0.29,0.241,0.695,0.362,1.215,0.362
		c0.525,0,0.914-0.107,1.168-0.32c0.254-0.214,0.381-0.465,0.381-0.752c0-0.258-0.112-0.461-0.336-0.609
		c-0.157-0.102-0.546-0.23-1.168-0.387c-0.838-0.211-1.419-0.395-1.742-0.549c-0.324-0.155-0.569-0.368-0.736-0.642
		c-0.167-0.272-0.251-0.574-0.251-0.904c0-0.3,0.069-0.579,0.206-0.835c0.138-0.256,0.325-0.468,0.562-0.638
		c0.178-0.131,0.42-0.242,0.727-0.333c0.307-0.091,0.636-0.137,0.987-0.137c0.529,0,0.994,0.076,1.393,0.229
		c0.4,0.152,0.695,0.358,0.886,0.619c0.19,0.26,0.322,0.608,0.394,1.044l-1.117,0.152c-0.051-0.347-0.198-0.618-0.441-0.813
		c-0.243-0.195-0.587-0.292-1.031-0.292c-0.525,0-0.899,0.087-1.124,0.26s-0.336,0.376-0.336,0.609c0,0.148,0.046,0.281,0.14,0.4
		c0.093,0.123,0.239,0.224,0.438,0.305c0.114,0.042,0.451,0.14,1.009,0.292c0.808,0.216,1.372,0.393,1.691,0.53
		c0.32,0.137,0.57,0.337,0.752,0.6s0.273,0.588,0.273,0.978c0,0.381-0.111,0.739-0.333,1.076c-0.223,0.336-0.543,0.597-0.962,0.78
		c-0.419,0.185-0.893,0.276-1.422,0.276c-0.876,0-1.543-0.182-2.003-0.546C32.931,9.334,32.638,8.795,32.511,8.08z"/>
	<path fill="#FFFFFF" d="M41.962,9.07l0.165,1.009c-0.322,0.068-0.609,0.102-0.863,0.102c-0.415,0-0.736-0.065-0.965-0.197
		S39.91,9.68,39.817,9.467c-0.093-0.214-0.14-0.664-0.14-1.349V4.239h-0.838V3.351h0.838V1.681l1.136-0.686v2.355h1.149v0.889
		h-1.149v3.942c0,0.326,0.02,0.535,0.061,0.628c0.04,0.093,0.105,0.167,0.196,0.222c0.091,0.055,0.221,0.083,0.391,0.083
		C41.588,9.114,41.755,9.1,41.962,9.07z"/>
	<path fill="#FFFFFF" d="M43.086,2.1V0.786h1.143V2.1H43.086z M43.086,10.092V3.351h1.143v6.741H43.086z"/>
	<path fill="#FFFFFF" d="M46.241,10.092V4.239h-1.009V3.351h1.009V2.633c0-0.453,0.04-0.789,0.121-1.009
		c0.11-0.296,0.304-0.536,0.581-0.721c0.277-0.184,0.665-0.276,1.165-0.276c0.322,0,0.677,0.038,1.066,0.114l-0.171,0.997
		c-0.237-0.042-0.461-0.063-0.673-0.063c-0.347,0-0.592,0.074-0.736,0.222s-0.216,0.425-0.216,0.832v0.622h1.314v0.889h-1.314v5.853
		H46.241z"/>
	<path fill="#FFFFFF" d="M49.586,2.1V0.786h1.143V2.1H49.586z M49.586,10.092V3.351h1.143v6.741H49.586z"/>
	<path fill="#FFFFFF" d="M56.867,7.623l1.124,0.146c-0.123,0.774-0.437,1.381-0.942,1.818c-0.506,0.438-1.127,0.657-1.863,0.657
		c-0.922,0-1.664-0.302-2.225-0.904c-0.561-0.604-0.841-1.468-0.841-2.593c0-0.728,0.121-1.365,0.362-1.911s0.608-0.955,1.102-1.229
		c0.493-0.272,1.029-0.409,1.609-0.409c0.732,0,1.331,0.185,1.796,0.556c0.465,0.37,0.764,0.896,0.895,1.577l-1.111,0.171
		C56.666,5.05,56.479,4.709,56.21,4.48c-0.269-0.229-0.594-0.343-0.975-0.343c-0.576,0-1.043,0.206-1.403,0.619
		c-0.36,0.412-0.54,1.065-0.54,1.958c0,0.906,0.173,1.563,0.521,1.974s0.8,0.616,1.358,0.616c0.449,0,0.823-0.138,1.124-0.413
		S56.786,8.194,56.867,7.623z"/>
	<path fill="#FFFFFF" d="M63.367,9.26c-0.423,0.36-0.831,0.614-1.222,0.762c-0.391,0.148-0.811,0.222-1.26,0.222
		c-0.741,0-1.31-0.181-1.708-0.543c-0.398-0.361-0.597-0.824-0.597-1.387c0-0.33,0.075-0.632,0.225-0.904
		c0.15-0.273,0.347-0.492,0.591-0.657c0.243-0.165,0.517-0.29,0.822-0.375c0.224-0.059,0.563-0.116,1.016-0.171
		c0.922-0.11,1.602-0.241,2.038-0.394c0.004-0.157,0.006-0.256,0.006-0.298c0-0.465-0.108-0.793-0.324-0.984
		c-0.292-0.258-0.726-0.387-1.301-0.387c-0.538,0-0.934,0.094-1.19,0.283c-0.256,0.188-0.446,0.521-0.568,1l-1.117-0.152
		c0.102-0.478,0.269-0.864,0.501-1.159c0.233-0.294,0.569-0.521,1.009-0.679c0.44-0.159,0.95-0.238,1.53-0.238
		c0.576,0,1.043,0.068,1.403,0.203s0.624,0.306,0.793,0.511c0.169,0.206,0.288,0.465,0.355,0.778
		c0.038,0.195,0.057,0.546,0.057,1.054v1.523c0,1.062,0.024,1.734,0.073,2.015c0.048,0.282,0.145,0.551,0.289,0.81h-1.193
		C63.477,9.855,63.4,9.578,63.367,9.26z M63.271,6.708c-0.415,0.169-1.037,0.313-1.866,0.432c-0.47,0.068-0.802,0.144-0.997,0.229
		s-0.345,0.208-0.451,0.372c-0.106,0.163-0.159,0.344-0.159,0.542c0,0.305,0.115,0.559,0.346,0.762
		c0.23,0.203,0.568,0.305,1.012,0.305c0.44,0,0.832-0.096,1.174-0.289c0.343-0.193,0.595-0.456,0.755-0.791
		c0.123-0.258,0.184-0.639,0.184-1.143V6.708z"/>
	<path fill="#FFFFFF" d="M70.597,7.623l1.124,0.146c-0.123,0.774-0.437,1.381-0.943,1.818c-0.505,0.438-1.126,0.657-1.863,0.657
		c-0.922,0-1.664-0.302-2.225-0.904c-0.561-0.604-0.841-1.468-0.841-2.593c0-0.728,0.121-1.365,0.362-1.911s0.608-0.955,1.101-1.229
		c0.493-0.272,1.03-0.409,1.609-0.409c0.732,0,1.331,0.185,1.796,0.556c0.465,0.37,0.764,0.896,0.895,1.577l-1.111,0.171
		c-0.106-0.453-0.293-0.793-0.562-1.022c-0.269-0.229-0.593-0.343-0.974-0.343c-0.576,0-1.043,0.206-1.403,0.619
		c-0.36,0.412-0.54,1.065-0.54,1.958c0,0.906,0.173,1.563,0.521,1.974s0.8,0.616,1.358,0.616c0.449,0,0.823-0.138,1.124-0.413
		S70.516,8.194,70.597,7.623z"/>
	<path fill="#FFFFFF" d="M72.704,2.1V0.786h1.143V2.1H72.704z M72.704,10.092V3.351h1.143v6.741H72.704z"/>
	<path fill="#FFFFFF" d="M75.161,6.721c0-1.249,0.347-2.173,1.041-2.774c0.58-0.5,1.287-0.749,2.12-0.749
		c0.927,0,1.684,0.304,2.272,0.911c0.588,0.607,0.882,1.446,0.882,2.517c0,0.868-0.13,1.55-0.391,2.047
		c-0.26,0.498-0.639,0.884-1.136,1.159c-0.498,0.275-1.04,0.413-1.628,0.413c-0.944,0-1.707-0.303-2.289-0.908
		C75.452,8.731,75.161,7.859,75.161,6.721z M76.335,6.721c0,0.863,0.188,1.51,0.565,1.939c0.376,0.43,0.851,0.645,1.422,0.645
		c0.567,0,1.039-0.216,1.416-0.647s0.565-1.09,0.565-1.974c0-0.833-0.189-1.465-0.568-1.895c-0.379-0.429-0.85-0.644-1.413-0.644
		c-0.571,0-1.045,0.214-1.422,0.641S76.335,5.858,76.335,6.721z M77.687,2.513l0.844-1.777h1.498l-1.396,1.777H77.687z"/>
	<path fill="#FFFFFF" d="M82.816,10.092V3.351h1.028v0.958c0.495-0.741,1.21-1.111,2.146-1.111c0.406,0,0.78,0.073,1.121,0.219
		c0.34,0.146,0.595,0.338,0.765,0.575s0.288,0.519,0.355,0.844c0.042,0.211,0.063,0.582,0.063,1.111v4.145h-1.143V5.991
		c0-0.465-0.044-0.813-0.133-1.044c-0.089-0.231-0.247-0.415-0.473-0.553c-0.226-0.137-0.492-0.206-0.796-0.206
		c-0.487,0-0.907,0.154-1.26,0.463c-0.353,0.309-0.53,0.895-0.53,1.758v3.682H82.816z"/>
	<path fill="#FFFFFF" d="M98.031,10.092V9.241c-0.427,0.668-1.056,1.003-1.885,1.003c-0.538,0-1.032-0.148-1.482-0.444
		c-0.451-0.296-0.8-0.71-1.048-1.241c-0.247-0.531-0.371-1.141-0.371-1.831c0-0.673,0.112-1.283,0.336-1.831
		c0.224-0.548,0.561-0.968,1.009-1.26s0.95-0.438,1.504-0.438c0.406,0,0.768,0.086,1.085,0.257c0.317,0.172,0.576,0.395,0.774,0.67
		V0.786h1.136v9.306H98.031z M94.419,6.728c0,0.863,0.182,1.509,0.546,1.936s0.793,0.641,1.289,0.641c0.5,0,0.924-0.204,1.272-0.612
		c0.35-0.409,0.524-1.032,0.524-1.87c0-0.922-0.178-1.6-0.533-2.031s-0.793-0.647-1.314-0.647c-0.508,0-0.932,0.208-1.272,0.622
		C94.59,5.181,94.419,5.834,94.419,6.728z"/>
	<path fill="#FFFFFF" d="M105.502,7.921l1.181,0.146c-0.187,0.69-0.531,1.225-1.034,1.606c-0.504,0.381-1.147,0.571-1.93,0.571
		c-0.986,0-1.768-0.304-2.346-0.911c-0.578-0.607-0.867-1.458-0.867-2.555c0-1.134,0.293-2.014,0.877-2.641s1.341-0.939,2.271-0.939
		c0.902,0,1.639,0.307,2.209,0.92c0.572,0.614,0.857,1.477,0.857,2.59c0,0.068-0.002,0.169-0.006,0.305h-5.027
		c0.042,0.741,0.252,1.308,0.628,1.701s0.847,0.59,1.409,0.59c0.419,0,0.776-0.11,1.072-0.33
		C105.094,8.754,105.329,8.403,105.502,7.921z M101.75,6.074h3.765c-0.051-0.567-0.194-0.992-0.432-1.276
		c-0.364-0.44-0.836-0.66-1.415-0.66c-0.525,0-0.967,0.176-1.324,0.527S101.79,5.485,101.75,6.074z"/>
	<path fill="#FFFFFF" d="M108.092,10.092V0.786h1.143v9.306H108.092z"/>
	<path fill="#FFFFFF" d="M114.618,12.675V3.351h1.041v0.876c0.246-0.343,0.522-0.6,0.832-0.771c0.309-0.171,0.684-0.257,1.123-0.257
		c0.576,0,1.084,0.148,1.523,0.444s0.772,0.714,0.996,1.254c0.225,0.539,0.337,1.131,0.337,1.774c0,0.69-0.124,1.311-0.372,1.863
		c-0.246,0.553-0.606,0.976-1.078,1.27c-0.473,0.294-0.969,0.441-1.488,0.441c-0.381,0-0.723-0.081-1.025-0.241
		s-0.551-0.364-0.746-0.609v3.282H114.618z M115.653,6.759c0,0.868,0.176,1.509,0.526,1.923s0.776,0.622,1.276,0.622
		c0.508,0,0.941-0.215,1.305-0.645c0.361-0.429,0.542-1.095,0.542-1.996c0-0.859-0.177-1.502-0.53-1.93s-0.775-0.641-1.266-0.641
		c-0.487,0-0.918,0.228-1.293,0.682C115.84,5.23,115.653,5.892,115.653,6.759z"/>
	<path fill="#FFFFFF" d="M121.834,10.092V3.351h1.029v1.022c0.262-0.478,0.504-0.793,0.727-0.946s0.467-0.229,0.732-0.229
		c0.386,0,0.777,0.123,1.175,0.368l-0.394,1.06c-0.279-0.165-0.559-0.248-0.838-0.248c-0.25,0-0.475,0.075-0.673,0.226
		c-0.198,0.15-0.341,0.358-0.425,0.625c-0.127,0.406-0.191,0.851-0.191,1.333v3.529H121.834z"/>
	<path fill="#FFFFFF" d="M125.751,6.721c0-1.249,0.347-2.173,1.041-2.774c0.579-0.5,1.286-0.749,2.12-0.749
		c0.927,0,1.684,0.304,2.272,0.911c0.589,0.607,0.882,1.446,0.882,2.517c0,0.868-0.129,1.55-0.391,2.047
		c-0.26,0.498-0.639,0.884-1.135,1.159c-0.498,0.275-1.041,0.413-1.629,0.413c-0.943,0-1.707-0.303-2.289-0.908
		C126.042,8.731,125.751,7.859,125.751,6.721z M126.926,6.721c0,0.863,0.188,1.51,0.564,1.939c0.377,0.43,0.851,0.645,1.422,0.645
		c0.566,0,1.039-0.216,1.416-0.647c0.376-0.432,0.564-1.09,0.564-1.974c0-0.833-0.189-1.465-0.568-1.895
		c-0.379-0.429-0.85-0.644-1.412-0.644c-0.571,0-1.045,0.214-1.422,0.641S126.926,5.858,126.926,6.721z"/>
	<path fill="#FFFFFF" d="M133.198,10.65l1.11,0.165c0.046,0.343,0.176,0.592,0.388,0.749c0.283,0.211,0.67,0.317,1.161,0.317
		c0.528,0,0.938-0.106,1.226-0.317c0.287-0.211,0.482-0.508,0.584-0.889c0.059-0.233,0.086-0.722,0.082-1.466
		c-0.5,0.588-1.121,0.882-1.866,0.882c-0.927,0-1.644-0.334-2.151-1.003s-0.762-1.471-0.762-2.406c0-0.643,0.115-1.237,0.349-1.781
		c0.233-0.543,0.57-0.963,1.013-1.26c0.441-0.296,0.961-0.444,1.559-0.444c0.795,0,1.451,0.322,1.967,0.965V3.351h1.055v5.827
		c0,1.049-0.107,1.793-0.32,2.231c-0.215,0.438-0.553,0.784-1.016,1.038c-0.465,0.254-1.034,0.381-1.711,0.381
		c-0.805,0-1.454-0.181-1.949-0.542C133.419,11.923,133.18,11.378,133.198,10.65z M134.143,6.601c0,0.884,0.176,1.53,0.527,1.936
		c0.351,0.406,0.791,0.609,1.32,0.609c0.524,0,0.965-0.202,1.32-0.606c0.355-0.404,0.533-1.038,0.533-1.901
		c0-0.825-0.184-1.447-0.549-1.866c-0.367-0.419-0.809-0.628-1.324-0.628c-0.508,0-0.939,0.207-1.295,0.619
		C134.321,5.176,134.143,5.788,134.143,6.601z"/>
	<path fill="#FFFFFF" d="M140.624,10.092V3.351h1.029v1.022c0.262-0.478,0.504-0.793,0.727-0.946s0.467-0.229,0.732-0.229
		c0.386,0,0.777,0.123,1.175,0.368l-0.394,1.06c-0.279-0.165-0.559-0.248-0.838-0.248c-0.25,0-0.475,0.075-0.673,0.226
		c-0.198,0.15-0.341,0.358-0.425,0.625c-0.127,0.406-0.191,0.851-0.191,1.333v3.529H140.624z"/>
	<path fill="#FFFFFF" d="M149.365,9.26c-0.423,0.36-0.831,0.614-1.222,0.762c-0.392,0.148-0.812,0.222-1.26,0.222
		c-0.741,0-1.311-0.181-1.708-0.543c-0.397-0.361-0.597-0.824-0.597-1.387c0-0.33,0.075-0.632,0.225-0.904
		c0.15-0.273,0.348-0.492,0.592-0.657c0.242-0.165,0.517-0.29,0.821-0.375c0.224-0.059,0.563-0.116,1.016-0.171
		c0.923-0.11,1.602-0.241,2.038-0.394c0.004-0.157,0.006-0.256,0.006-0.298c0-0.465-0.107-0.793-0.324-0.984
		c-0.291-0.258-0.725-0.387-1.301-0.387c-0.537,0-0.934,0.094-1.189,0.283c-0.257,0.188-0.446,0.521-0.568,1l-1.117-0.152
		c0.102-0.478,0.268-0.864,0.501-1.159c0.233-0.294,0.569-0.521,1.009-0.679c0.44-0.159,0.951-0.238,1.53-0.238
		c0.575,0,1.043,0.068,1.403,0.203c0.359,0.135,0.623,0.306,0.793,0.511c0.17,0.206,0.287,0.465,0.355,0.778
		c0.038,0.195,0.057,0.546,0.057,1.054v1.523c0,1.062,0.025,1.734,0.074,2.015c0.048,0.282,0.145,0.551,0.288,0.81h-1.193
		C149.475,9.855,149.399,9.578,149.365,9.26z M149.27,6.708c-0.415,0.169-1.037,0.313-1.867,0.432
		c-0.469,0.068-0.801,0.144-0.996,0.229s-0.345,0.208-0.451,0.372c-0.105,0.163-0.158,0.344-0.158,0.542
		c0,0.305,0.115,0.559,0.346,0.762s0.568,0.305,1.013,0.305c0.44,0,0.831-0.096,1.175-0.289c0.342-0.193,0.594-0.456,0.755-0.791
		c0.122-0.258,0.185-0.639,0.185-1.143V6.708z"/>
	<path fill="#FFFFFF" d="M152.196,10.092V3.351h1.021v0.946c0.212-0.33,0.494-0.596,0.845-0.796c0.351-0.201,0.751-0.302,1.2-0.302
		c0.499,0,0.908,0.104,1.229,0.311c0.318,0.208,0.544,0.497,0.676,0.87c0.533-0.787,1.227-1.181,2.082-1.181
		c0.668,0,1.182,0.185,1.542,0.556c0.36,0.37,0.54,0.94,0.54,1.71v4.627h-1.137V5.845c0-0.457-0.037-0.786-0.111-0.987
		c-0.074-0.201-0.208-0.363-0.402-0.486c-0.195-0.123-0.424-0.184-0.686-0.184c-0.475,0-0.868,0.158-1.182,0.473
		c-0.313,0.315-0.469,0.82-0.469,1.514v3.917h-1.143v-4.38c0-0.508-0.094-0.889-0.279-1.143c-0.187-0.254-0.491-0.381-0.914-0.381
		c-0.322,0-0.619,0.084-0.893,0.254s-0.471,0.417-0.594,0.743c-0.122,0.326-0.184,0.795-0.184,1.409v3.498H152.196z"/>
	<path fill="#FFFFFF" d="M167.424,9.26c-0.424,0.36-0.831,0.614-1.223,0.762c-0.391,0.148-0.811,0.222-1.26,0.222
		c-0.74,0-1.31-0.181-1.707-0.543c-0.398-0.361-0.598-0.824-0.598-1.387c0-0.33,0.076-0.632,0.227-0.904
		c0.149-0.273,0.346-0.492,0.59-0.657c0.243-0.165,0.518-0.29,0.822-0.375c0.224-0.059,0.563-0.116,1.016-0.171
		c0.922-0.11,1.602-0.241,2.037-0.394c0.004-0.157,0.006-0.256,0.006-0.298c0-0.465-0.107-0.793-0.323-0.984
		c-0.292-0.258-0.726-0.387-1.302-0.387c-0.537,0-0.934,0.094-1.189,0.283c-0.256,0.188-0.445,0.521-0.568,1l-1.117-0.152
		c0.102-0.478,0.269-0.864,0.502-1.159c0.232-0.294,0.568-0.521,1.009-0.679c0.44-0.159,0.95-0.238,1.53-0.238
		c0.575,0,1.043,0.068,1.402,0.203s0.624,0.306,0.793,0.511c0.17,0.206,0.288,0.465,0.355,0.778
		c0.039,0.195,0.058,0.546,0.058,1.054v1.523c0,1.062,0.024,1.734,0.073,2.015c0.049,0.282,0.145,0.551,0.289,0.81h-1.193
		C167.534,9.855,167.458,9.578,167.424,9.26z M167.329,6.708c-0.414,0.169-1.037,0.313-1.866,0.432
		c-0.47,0.068-0.802,0.144-0.997,0.229c-0.194,0.084-0.344,0.208-0.45,0.372c-0.106,0.163-0.159,0.344-0.159,0.542
		c0,0.305,0.115,0.559,0.346,0.762c0.231,0.203,0.568,0.305,1.014,0.305c0.439,0,0.831-0.096,1.174-0.289
		c0.343-0.193,0.595-0.456,0.756-0.791c0.122-0.258,0.184-0.639,0.184-1.143V6.708z"/>
	<path fill="#FFFFFF" d="M19.384,35.292v-9.306h3.51c0.618,0,1.09,0.03,1.416,0.089c0.457,0.076,0.84,0.221,1.149,0.435
		c0.309,0.214,0.558,0.513,0.746,0.898c0.188,0.385,0.283,0.808,0.283,1.27c0,0.792-0.252,1.461-0.755,2.009
		c-0.503,0.548-1.414,0.822-2.729,0.822h-2.387v3.783H19.384z M20.615,30.411h2.406c0.795,0,1.36-0.148,1.695-0.444
		s0.501-0.713,0.501-1.25c0-0.389-0.098-0.723-0.295-1c-0.196-0.277-0.456-0.46-0.777-0.549c-0.208-0.055-0.59-0.083-1.149-0.083
		h-2.38V30.411z"/>
	<path fill="#FFFFFF" d="M27.483,31.921c0-1.249,0.347-2.173,1.041-2.774c0.58-0.5,1.287-0.749,2.12-0.749
		c0.927,0,1.684,0.304,2.272,0.911c0.588,0.607,0.882,1.446,0.882,2.517c0,0.868-0.13,1.55-0.39,2.047
		c-0.261,0.498-0.639,0.884-1.137,1.159c-0.497,0.275-1.04,0.413-1.628,0.413c-0.944,0-1.707-0.303-2.288-0.908
		C27.774,33.932,27.483,33.06,27.483,31.921z M28.658,31.921c0,0.863,0.188,1.51,0.565,1.939c0.376,0.43,0.851,0.645,1.422,0.645
		c0.567,0,1.039-0.216,1.416-0.647s0.565-1.09,0.565-1.974c0-0.833-0.189-1.465-0.568-1.895c-0.378-0.429-0.849-0.644-1.412-0.644
		c-0.571,0-1.045,0.214-1.422,0.641S28.658,31.058,28.658,31.921z"/>
	<path fill="#FFFFFF" d="M36.192,35.292h-1.06v-9.306h1.143v3.32c0.482-0.605,1.098-0.908,1.847-0.908
		c0.415,0,0.807,0.083,1.178,0.251c0.37,0.167,0.675,0.402,0.914,0.704c0.239,0.303,0.426,0.668,0.562,1.095
		s0.203,0.884,0.203,1.371c0,1.155-0.286,2.048-0.857,2.679s-1.257,0.946-2.057,0.946c-0.795,0-1.42-0.332-1.873-0.997V35.292z
		 M36.18,31.871c0,0.808,0.11,1.392,0.33,1.752c0.36,0.588,0.846,0.882,1.46,0.882c0.5,0,0.931-0.217,1.295-0.65
		c0.364-0.434,0.546-1.081,0.546-1.939c0-0.88-0.175-1.53-0.523-1.949c-0.35-0.419-0.771-0.628-1.267-0.628
		c-0.5,0-0.931,0.217-1.295,0.65C36.362,30.422,36.18,31.05,36.18,31.871z"/>
	<path fill="#FFFFFF" d="M42.343,35.292v-9.306h1.143v9.306H42.343z"/>
	<path fill="#FFFFFF" d="M49.656,34.46c-0.423,0.36-0.831,0.614-1.222,0.762c-0.391,0.148-0.811,0.222-1.26,0.222
		c-0.741,0-1.31-0.181-1.708-0.543c-0.398-0.361-0.597-0.824-0.597-1.387c0-0.33,0.075-0.632,0.225-0.904
		c0.15-0.273,0.347-0.492,0.591-0.657c0.243-0.165,0.517-0.29,0.822-0.375c0.224-0.059,0.563-0.116,1.016-0.171
		c0.922-0.11,1.602-0.241,2.038-0.394c0.004-0.157,0.006-0.256,0.006-0.298c0-0.465-0.108-0.793-0.324-0.984
		c-0.292-0.258-0.726-0.387-1.301-0.387c-0.538,0-0.934,0.094-1.19,0.283c-0.256,0.188-0.446,0.521-0.568,1l-1.117-0.152
		c0.102-0.478,0.269-0.864,0.501-1.159c0.233-0.294,0.569-0.521,1.009-0.679c0.44-0.159,0.95-0.238,1.53-0.238
		c0.576,0,1.043,0.068,1.403,0.203s0.624,0.306,0.793,0.511c0.169,0.206,0.288,0.465,0.355,0.778
		c0.038,0.195,0.057,0.546,0.057,1.054v1.523c0,1.062,0.024,1.734,0.073,2.015c0.048,0.282,0.145,0.551,0.289,0.81h-1.193
		C49.766,35.055,49.689,34.778,49.656,34.46z M49.561,31.909c-0.415,0.169-1.037,0.313-1.866,0.432
		c-0.47,0.068-0.802,0.144-0.997,0.229s-0.345,0.208-0.451,0.372c-0.106,0.163-0.159,0.344-0.159,0.542
		c0,0.305,0.115,0.559,0.346,0.762c0.23,0.203,0.568,0.305,1.012,0.305c0.44,0,0.832-0.096,1.174-0.289
		c0.343-0.193,0.595-0.456,0.755-0.791c0.123-0.258,0.184-0.639,0.184-1.143V31.909z"/>
	<path fill="#FFFFFF" d="M56.886,32.823l1.124,0.146c-0.123,0.774-0.437,1.381-0.943,1.818c-0.505,0.438-1.126,0.657-1.863,0.657
		c-0.922,0-1.664-0.302-2.225-0.904c-0.561-0.604-0.841-1.468-0.841-2.593c0-0.728,0.121-1.365,0.362-1.911s0.608-0.955,1.101-1.229
		c0.493-0.272,1.03-0.409,1.609-0.409c0.732,0,1.331,0.185,1.796,0.556c0.465,0.37,0.764,0.896,0.895,1.577l-1.111,0.171
		c-0.106-0.453-0.293-0.793-0.562-1.022c-0.269-0.229-0.593-0.343-0.974-0.343c-0.576,0-1.043,0.206-1.403,0.619
		c-0.36,0.412-0.54,1.065-0.54,1.958c0,0.906,0.173,1.563,0.521,1.974s0.8,0.616,1.358,0.616c0.449,0,0.823-0.138,1.124-0.413
		S56.805,33.394,56.886,32.823z"/>
	<path fill="#FFFFFF" d="M58.993,27.3v-1.314h1.143V27.3H58.993z M58.993,35.292v-6.741h1.143v6.741H58.993z"/>
	<path fill="#FFFFFF" d="M61.45,31.921c0-1.249,0.347-2.173,1.041-2.774c0.58-0.5,1.287-0.749,2.12-0.749
		c0.927,0,1.684,0.304,2.272,0.911c0.588,0.607,0.882,1.446,0.882,2.517c0,0.868-0.13,1.55-0.391,2.047
		c-0.26,0.498-0.639,0.884-1.136,1.159c-0.498,0.275-1.04,0.413-1.628,0.413c-0.944,0-1.707-0.303-2.289-0.908
		C61.741,33.932,61.45,33.06,61.45,31.921z M62.624,31.921c0,0.863,0.188,1.51,0.565,1.939c0.376,0.43,0.851,0.645,1.422,0.645
		c0.567,0,1.039-0.216,1.416-0.647s0.565-1.09,0.565-1.974c0-0.833-0.189-1.465-0.568-1.895c-0.379-0.429-0.85-0.644-1.413-0.644
		c-0.571,0-1.045,0.214-1.422,0.641S62.624,31.058,62.624,31.921z M63.976,27.713l0.844-1.777h1.498l-1.396,1.777H63.976z"/>
	<path fill="#FFFFFF" d="M69.105,35.292v-6.741h1.028v0.958c0.495-0.741,1.21-1.111,2.146-1.111c0.406,0,0.78,0.073,1.121,0.219
		c0.34,0.146,0.595,0.338,0.765,0.575s0.288,0.519,0.355,0.844c0.042,0.211,0.063,0.582,0.063,1.111v4.145H73.44v-4.101
		c0-0.465-0.044-0.813-0.133-1.044c-0.089-0.231-0.247-0.415-0.473-0.553c-0.226-0.137-0.492-0.206-0.796-0.206
		c-0.487,0-0.907,0.154-1.26,0.463c-0.353,0.309-0.53,0.895-0.53,1.758v3.682H69.105z"/>
	<path fill="#FFFFFF" d="M79.521,31.921c0-1.249,0.347-2.173,1.041-2.774c0.58-0.5,1.287-0.749,2.12-0.749
		c0.927,0,1.684,0.304,2.272,0.911c0.588,0.607,0.882,1.446,0.882,2.517c0,0.868-0.13,1.55-0.39,2.047
		c-0.261,0.498-0.639,0.884-1.137,1.159c-0.497,0.275-1.04,0.413-1.628,0.413c-0.944,0-1.707-0.303-2.288-0.908
		C79.813,33.932,79.521,33.06,79.521,31.921z M80.696,31.921c0,0.863,0.188,1.51,0.565,1.939c0.376,0.43,0.851,0.645,1.422,0.645
		c0.567,0,1.039-0.216,1.416-0.647s0.565-1.09,0.565-1.974c0-0.833-0.189-1.465-0.568-1.895c-0.378-0.429-0.849-0.644-1.412-0.644
		c-0.571,0-1.045,0.214-1.422,0.641S80.696,31.058,80.696,31.921z"/>
	<path fill="#FFFFFF" d="M88.23,35.292h-1.06v-9.306h1.143v3.32c0.482-0.605,1.098-0.908,1.847-0.908
		c0.415,0,0.807,0.083,1.178,0.251c0.37,0.167,0.675,0.402,0.914,0.704c0.239,0.303,0.426,0.668,0.562,1.095
		s0.203,0.884,0.203,1.371c0,1.155-0.286,2.048-0.857,2.679s-1.257,0.946-2.057,0.946c-0.795,0-1.42-0.332-1.873-0.997V35.292z
		 M88.218,31.871c0,0.808,0.11,1.392,0.33,1.752c0.36,0.588,0.846,0.882,1.46,0.882c0.5,0,0.931-0.217,1.295-0.65
		c0.364-0.434,0.546-1.081,0.546-1.939c0-0.88-0.175-1.53-0.523-1.949c-0.35-0.419-0.771-0.628-1.267-0.628
		c-0.5,0-0.931,0.217-1.295,0.65C88.4,30.422,88.218,31.05,88.218,31.871z"/>
	<path fill="#FFFFFF" d="M92.953,37.907l0.216-0.971c0.229,0.059,0.408,0.089,0.54,0.089c0.233,0,0.406-0.077,0.521-0.232
		c0.114-0.154,0.171-0.541,0.171-1.158v-7.084h1.143v7.109c0,0.83-0.108,1.407-0.324,1.733c-0.275,0.423-0.732,0.635-1.371,0.635
		C93.539,38.028,93.241,37.988,92.953,37.907z M94.4,27.313v-1.327h1.143v1.327H94.4z"/>
	<path fill="#FFFFFF" d="M101.91,33.121l1.181,0.146c-0.186,0.69-0.531,1.225-1.035,1.606c-0.503,0.381-1.146,0.571-1.93,0.571
		c-0.985,0-1.767-0.304-2.345-0.911c-0.577-0.607-0.866-1.458-0.866-2.555c0-1.134,0.292-2.014,0.876-2.641s1.341-0.939,2.273-0.939
		c0.9,0,1.637,0.307,2.209,0.92c0.57,0.614,0.856,1.477,0.856,2.59c0,0.068-0.002,0.169-0.007,0.305h-5.027
		c0.042,0.741,0.252,1.308,0.628,1.701c0.377,0.394,0.846,0.59,1.409,0.59c0.419,0,0.776-0.11,1.073-0.33
		C101.501,33.955,101.737,33.604,101.91,33.121z M98.158,31.274h3.764c-0.051-0.567-0.195-0.992-0.432-1.276
		c-0.363-0.44-0.836-0.66-1.416-0.66c-0.524,0-0.965,0.176-1.323,0.527S98.196,30.686,98.158,31.274z"/>
	<path fill="#FFFFFF" d="M107.02,34.27l0.164,1.009c-0.321,0.068-0.609,0.102-0.863,0.102c-0.414,0-0.736-0.065-0.965-0.197
		s-0.389-0.304-0.482-0.517c-0.093-0.214-0.139-0.664-0.139-1.349v-3.878h-0.838v-0.889h0.838v-1.669l1.136-0.686v2.355h1.149v0.889
		h-1.149v3.942c0,0.326,0.021,0.535,0.06,0.628c0.041,0.093,0.106,0.167,0.197,0.222c0.092,0.055,0.221,0.083,0.391,0.083
		C106.645,34.314,106.812,34.3,107.02,34.27z"/>
	<path fill="#FFFFFF" d="M108.143,27.3v-1.314h1.143V27.3H108.143z M108.143,35.292v-6.741h1.143v6.741H108.143z"/>
	<path fill="#FFFFFF" d="M112.897,35.292l-2.564-6.741h1.207l1.447,4.037c0.156,0.436,0.3,0.889,0.432,1.358
		c0.102-0.355,0.242-0.783,0.425-1.282l1.498-4.113h1.175l-2.553,6.741H112.897z"/>
	<path fill="#FFFFFF" d="M117.1,31.921c0-1.249,0.347-2.173,1.041-2.774c0.579-0.5,1.286-0.749,2.119-0.749
		c0.928,0,1.685,0.304,2.273,0.911c0.588,0.607,0.882,1.446,0.882,2.517c0,0.868-0.13,1.55-0.39,2.047
		c-0.262,0.498-0.64,0.884-1.137,1.159c-0.498,0.275-1.04,0.413-1.629,0.413c-0.943,0-1.706-0.303-2.287-0.908
		C117.391,33.932,117.1,33.06,117.1,31.921z M118.274,31.921c0,0.863,0.188,1.51,0.564,1.939c0.377,0.43,0.852,0.645,1.422,0.645
		c0.567,0,1.039-0.216,1.416-0.647s0.564-1.09,0.564-1.974c0-0.833-0.189-1.465-0.568-1.895c-0.378-0.429-0.849-0.644-1.412-0.644
		c-0.57,0-1.045,0.214-1.422,0.641C118.462,30.413,118.274,31.058,118.274,31.921z"/>
	<path fill="#FFFFFF" d="M128.316,37.888l-0.127-1.073c0.249,0.068,0.468,0.102,0.653,0.102c0.254,0,0.457-0.042,0.609-0.127
		s0.277-0.203,0.375-0.355c0.072-0.114,0.188-0.398,0.35-0.851c0.021-0.063,0.055-0.157,0.102-0.279l-2.559-6.754h1.231l1.403,3.904
		c0.182,0.495,0.344,1.016,0.488,1.562c0.131-0.525,0.287-1.037,0.47-1.536l1.44-3.929h1.143l-2.564,6.855
		c-0.274,0.741-0.488,1.25-0.641,1.53c-0.203,0.376-0.436,0.653-0.698,0.829c-0.263,0.175-0.575,0.263-0.939,0.263
		C128.833,38.028,128.586,37.981,128.316,37.888z"/>
	<path fill="#FFFFFF" d="M138.479,37.875v-9.325h1.041v0.876c0.245-0.343,0.521-0.6,0.831-0.771c0.31-0.171,0.684-0.257,1.124-0.257
		c0.575,0,1.083,0.148,1.523,0.444c0.439,0.296,0.771,0.714,0.996,1.254c0.225,0.539,0.336,1.131,0.336,1.774
		c0,0.69-0.123,1.311-0.371,1.863c-0.248,0.553-0.607,0.976-1.078,1.27c-0.473,0.294-0.969,0.441-1.489,0.441
		c-0.381,0-0.723-0.081-1.024-0.241c-0.303-0.161-0.552-0.364-0.746-0.609v3.282H138.479z M139.513,31.959
		c0,0.868,0.176,1.509,0.526,1.923c0.352,0.415,0.777,0.622,1.276,0.622c0.508,0,0.942-0.215,1.304-0.645
		c0.363-0.429,0.543-1.095,0.543-1.996c0-0.859-0.176-1.502-0.529-1.93s-0.775-0.641-1.267-0.641c-0.487,0-0.917,0.228-1.292,0.682
		C139.7,30.431,139.513,31.092,139.513,31.959z"/>
	<path fill="#FFFFFF" d="M150.323,33.121l1.182,0.146c-0.187,0.69-0.531,1.225-1.035,1.606s-1.146,0.571-1.93,0.571
		c-0.986,0-1.768-0.304-2.346-0.911c-0.578-0.607-0.866-1.458-0.866-2.555c0-1.134,0.292-2.014,0.876-2.641s1.342-0.939,2.272-0.939
		c0.901,0,1.638,0.307,2.209,0.92s0.856,1.477,0.856,2.59c0,0.068-0.002,0.169-0.006,0.305h-5.027
		c0.043,0.741,0.252,1.308,0.629,1.701c0.376,0.394,0.846,0.59,1.408,0.59c0.42,0,0.777-0.11,1.073-0.33
		S150.15,33.604,150.323,33.121z M146.572,31.274h3.765c-0.051-0.567-0.195-0.992-0.432-1.276c-0.364-0.44-0.836-0.66-1.416-0.66
		c-0.525,0-0.966,0.176-1.324,0.527C146.807,30.216,146.61,30.686,146.572,31.274z"/>
	<path fill="#FFFFFF" d="M152.926,35.292v-6.741h1.027v1.022c0.263-0.478,0.506-0.793,0.727-0.946
		c0.223-0.152,0.467-0.229,0.734-0.229c0.385,0,0.775,0.123,1.174,0.368l-0.394,1.06c-0.279-0.165-0.559-0.248-0.838-0.248
		c-0.249,0-0.474,0.075-0.673,0.226c-0.199,0.15-0.341,0.358-0.426,0.625c-0.127,0.406-0.189,0.851-0.189,1.333v3.529H152.926z"/>
	<path fill="#FFFFFF" d="M157.541,35.292v-5.853h-1.009v-0.889h1.009v-0.717c0-0.453,0.04-0.789,0.12-1.009
		c0.11-0.296,0.305-0.536,0.582-0.721c0.276-0.184,0.664-0.276,1.164-0.276c0.322,0,0.678,0.038,1.066,0.114l-0.172,0.997
		c-0.236-0.042-0.461-0.063-0.672-0.063c-0.348,0-0.593,0.074-0.736,0.222c-0.145,0.148-0.217,0.425-0.217,0.832v0.622h1.314v0.889
		h-1.314v5.853H157.541z"/>
	<path fill="#FFFFFF" d="M160.885,27.3v-1.314h1.143V27.3H160.885z M160.885,35.292v-6.741h1.143v6.741H160.885z"/>
	<path fill="#FFFFFF" d="M163.743,35.292v-9.306h1.143v9.306H163.743z"/>
	<path fill="#FFFFFF" d="M174.641,35.292v-0.851c-0.428,0.668-1.056,1.003-1.885,1.003c-0.538,0-1.031-0.148-1.482-0.444
		s-0.801-0.71-1.047-1.241c-0.248-0.531-0.372-1.141-0.372-1.831c0-0.673,0.112-1.283,0.337-1.831
		c0.224-0.548,0.561-0.968,1.009-1.26s0.95-0.438,1.505-0.438c0.406,0,0.768,0.086,1.085,0.257c0.317,0.172,0.575,0.395,0.774,0.67
		v-3.339h1.137v9.306H174.641z M171.03,31.928c0,0.863,0.182,1.509,0.545,1.936c0.364,0.427,0.794,0.641,1.289,0.641
		c0.5,0,0.924-0.204,1.273-0.612c0.348-0.409,0.523-1.032,0.523-1.87c0-0.922-0.178-1.6-0.533-2.031s-0.794-0.647-1.314-0.647
		c-0.508,0-0.932,0.208-1.273,0.622C171.2,30.381,171.03,31.035,171.03,31.928z"/>
	<path fill="#FFFFFF" d="M182.112,33.121l1.182,0.146c-0.187,0.69-0.531,1.225-1.035,1.606s-1.146,0.571-1.93,0.571
		c-0.986,0-1.768-0.304-2.346-0.911c-0.578-0.607-0.866-1.458-0.866-2.555c0-1.134,0.292-2.014,0.876-2.641s1.342-0.939,2.272-0.939
		c0.901,0,1.638,0.307,2.209,0.92s0.856,1.477,0.856,2.59c0,0.068-0.002,0.169-0.006,0.305h-5.027
		c0.043,0.741,0.252,1.308,0.629,1.701c0.376,0.394,0.846,0.59,1.408,0.59c0.42,0,0.777-0.11,1.073-0.33
		S181.939,33.604,182.112,33.121z M178.361,31.274h3.765c-0.051-0.567-0.195-0.992-0.432-1.276c-0.364-0.44-0.836-0.66-1.416-0.66
		c-0.525,0-0.966,0.176-1.324,0.527C178.596,30.216,178.399,30.686,178.361,31.274z"/>
	<path fill="#FFFFFF" d="M23.853,48.721l1.181,0.146c-0.186,0.69-0.531,1.225-1.035,1.606s-1.147,0.571-1.93,0.571
		c-0.986,0-1.768-0.304-2.345-0.911c-0.578-0.607-0.867-1.459-0.867-2.555c0-1.134,0.292-2.014,0.876-2.641s1.341-0.939,2.272-0.939
		c0.901,0,1.638,0.307,2.209,0.92s0.857,1.477,0.857,2.59c0,0.068-0.002,0.169-0.006,0.305h-5.027
		c0.042,0.741,0.252,1.308,0.628,1.701s0.846,0.59,1.409,0.59c0.419,0,0.776-0.11,1.073-0.33S23.679,49.204,23.853,48.721z
		 M20.101,46.874h3.764c-0.051-0.567-0.195-0.992-0.432-1.276c-0.364-0.44-0.836-0.66-1.416-0.66c-0.525,0-0.966,0.176-1.324,0.527
		C20.337,45.816,20.139,46.286,20.101,46.874z"/>
	<path fill="#FFFFFF" d="M26.468,50.892v-6.741h1.028v0.958c0.495-0.741,1.21-1.111,2.146-1.111c0.406,0,0.78,0.073,1.12,0.219
		c0.341,0.146,0.596,0.337,0.765,0.574s0.288,0.519,0.355,0.844c0.042,0.211,0.063,0.582,0.063,1.111v4.145h-1.143v-4.101
		c0-0.465-0.044-0.813-0.133-1.044c-0.089-0.23-0.247-0.415-0.473-0.552c-0.227-0.138-0.492-0.207-0.797-0.207
		c-0.487,0-0.907,0.154-1.26,0.463c-0.354,0.309-0.53,0.895-0.53,1.758v3.682H26.468z"/>
	<path fill="#FFFFFF" d="M36.192,49.87l0.165,1.009c-0.322,0.068-0.609,0.102-0.863,0.102c-0.415,0-0.736-0.065-0.965-0.197
		s-0.389-0.304-0.482-0.518c-0.093-0.213-0.14-0.663-0.14-1.349V45.04h-0.838v-0.889h0.838v-1.669l1.136-0.686v2.355h1.149v0.889
		h-1.149v3.942c0,0.326,0.02,0.535,0.06,0.628c0.041,0.093,0.106,0.167,0.197,0.222c0.091,0.055,0.221,0.083,0.39,0.083
		C35.818,49.915,35.985,49.9,36.192,49.87z"/>
	<path fill="#FFFFFF" d="M37.297,50.892v-6.741h1.028v1.022c0.262-0.478,0.505-0.793,0.727-0.946
		c0.223-0.152,0.467-0.229,0.733-0.229c0.385,0,0.776,0.123,1.174,0.368l-0.394,1.06c-0.279-0.165-0.559-0.248-0.838-0.248
		c-0.25,0-0.474,0.075-0.673,0.225c-0.199,0.15-0.341,0.359-0.425,0.625c-0.127,0.406-0.19,0.851-0.19,1.333v3.529H37.297z"/>
	<path fill="#FFFFFF" d="M46.038,50.061c-0.423,0.36-0.831,0.614-1.222,0.762c-0.391,0.148-0.811,0.222-1.26,0.222
		c-0.741,0-1.31-0.181-1.708-0.542c-0.398-0.362-0.597-0.824-0.597-1.387c0-0.33,0.075-0.631,0.225-0.905
		c0.15-0.272,0.347-0.492,0.591-0.657c0.243-0.165,0.517-0.29,0.822-0.375c0.224-0.059,0.563-0.116,1.016-0.171
		c0.922-0.11,1.602-0.241,2.038-0.394c0.004-0.157,0.006-0.256,0.006-0.298c0-0.465-0.108-0.793-0.324-0.984
		c-0.292-0.258-0.726-0.387-1.301-0.387c-0.538,0-0.934,0.094-1.19,0.282c-0.256,0.188-0.446,0.522-0.568,1l-1.117-0.152
		c0.102-0.478,0.269-0.864,0.501-1.158c0.233-0.294,0.569-0.521,1.009-0.68c0.44-0.158,0.95-0.238,1.53-0.238
		c0.576,0,1.043,0.068,1.403,0.203s0.624,0.306,0.793,0.511c0.169,0.205,0.288,0.464,0.355,0.777
		c0.038,0.195,0.057,0.546,0.057,1.054v1.523c0,1.062,0.024,1.734,0.073,2.016c0.048,0.281,0.145,0.551,0.289,0.809h-1.193
		C46.147,50.655,46.071,50.378,46.038,50.061z M45.942,47.509c-0.415,0.169-1.037,0.313-1.866,0.432
		c-0.47,0.068-0.802,0.144-0.997,0.229s-0.345,0.208-0.451,0.371c-0.106,0.163-0.159,0.344-0.159,0.543
		c0,0.305,0.115,0.559,0.346,0.762c0.23,0.203,0.568,0.305,1.012,0.305c0.44,0,0.832-0.096,1.174-0.289
		c0.343-0.192,0.595-0.456,0.755-0.79c0.123-0.258,0.184-0.639,0.184-1.143V47.509z"/>
	<path fill="#FFFFFF" d="M53.242,50.892v-0.851c-0.427,0.668-1.056,1.003-1.885,1.003c-0.538,0-1.032-0.148-1.482-0.444
		c-0.451-0.296-0.8-0.71-1.048-1.241c-0.247-0.531-0.371-1.142-0.371-1.832c0-0.673,0.112-1.283,0.336-1.832
		c0.224-0.548,0.561-0.968,1.009-1.26s0.95-0.438,1.504-0.438c0.406,0,0.768,0.085,1.085,0.257c0.317,0.171,0.576,0.395,0.774,0.669
		v-3.339h1.136v9.306H53.242z M49.63,47.528c0,0.863,0.182,1.509,0.546,1.936s0.793,0.641,1.289,0.641
		c0.5,0,0.924-0.204,1.272-0.613c0.35-0.408,0.524-1.031,0.524-1.869c0-0.922-0.178-1.6-0.533-2.031s-0.793-0.647-1.314-0.647
		c-0.508,0-0.932,0.208-1.272,0.622C49.801,45.981,49.63,46.635,49.63,47.528z"/>
	<path fill="#FFFFFF" d="M60.498,50.061c-0.423,0.36-0.831,0.614-1.222,0.762c-0.391,0.148-0.811,0.222-1.26,0.222
		c-0.741,0-1.31-0.181-1.708-0.542c-0.398-0.362-0.597-0.824-0.597-1.387c0-0.33,0.075-0.631,0.225-0.905
		c0.15-0.272,0.347-0.492,0.591-0.657c0.243-0.165,0.517-0.29,0.822-0.375c0.224-0.059,0.563-0.116,1.016-0.171
		c0.922-0.11,1.602-0.241,2.038-0.394c0.004-0.157,0.006-0.256,0.006-0.298c0-0.465-0.108-0.793-0.324-0.984
		c-0.292-0.258-0.726-0.387-1.301-0.387c-0.538,0-0.934,0.094-1.19,0.282c-0.256,0.188-0.446,0.522-0.568,1l-1.117-0.152
		c0.102-0.478,0.269-0.864,0.501-1.158c0.233-0.294,0.569-0.521,1.009-0.68c0.44-0.158,0.95-0.238,1.53-0.238
		c0.576,0,1.043,0.068,1.403,0.203s0.624,0.306,0.793,0.511c0.169,0.205,0.288,0.464,0.355,0.777
		c0.038,0.195,0.057,0.546,0.057,1.054v1.523c0,1.062,0.024,1.734,0.073,2.016c0.048,0.281,0.145,0.551,0.289,0.809h-1.193
		C60.607,50.655,60.531,50.378,60.498,50.061z M60.402,47.509c-0.415,0.169-1.037,0.313-1.866,0.432
		c-0.47,0.068-0.802,0.144-0.997,0.229s-0.345,0.208-0.451,0.371c-0.106,0.163-0.159,0.344-0.159,0.543
		c0,0.305,0.115,0.559,0.346,0.762c0.23,0.203,0.568,0.305,1.012,0.305c0.44,0,0.832-0.096,1.174-0.289
		c0.343-0.192,0.595-0.456,0.755-0.79c0.123-0.258,0.184-0.639,0.184-1.143V47.509z"/>
	<path fill="#FFFFFF" d="M19.346,76.092v-9.306h1.854l2.203,6.589c0.203,0.614,0.351,1.073,0.444,1.377
		c0.106-0.338,0.271-0.836,0.495-1.492l2.228-6.475h1.657v9.306h-1.187v-7.789l-2.704,7.789h-1.111l-2.691-7.922v7.922H19.346z"/>
	<path fill="#FFFFFF" d="M29.642,72.721c0-1.249,0.347-2.173,1.041-2.774c0.58-0.5,1.287-0.749,2.12-0.749
		c0.927,0,1.684,0.304,2.272,0.911c0.588,0.607,0.882,1.446,0.882,2.517c0,0.868-0.13,1.55-0.39,2.047
		c-0.261,0.498-0.639,0.884-1.137,1.159c-0.497,0.275-1.04,0.413-1.628,0.413c-0.944,0-1.707-0.303-2.288-0.908
		C29.933,74.731,29.642,73.859,29.642,72.721z M30.816,72.721c0,0.863,0.188,1.51,0.565,1.939c0.376,0.43,0.851,0.645,1.422,0.645
		c0.567,0,1.039-0.216,1.416-0.647s0.565-1.09,0.565-1.974c0-0.833-0.189-1.465-0.568-1.895c-0.378-0.429-0.849-0.644-1.412-0.644
		c-0.571,0-1.045,0.214-1.422,0.641S30.816,71.858,30.816,72.721z"/>
	<path fill="#FFFFFF" d="M41.67,76.092v-0.851c-0.427,0.668-1.056,1.003-1.885,1.003c-0.538,0-1.031-0.148-1.482-0.444
		c-0.45-0.296-0.8-0.71-1.047-1.241c-0.248-0.531-0.372-1.141-0.372-1.831c0-0.673,0.112-1.283,0.336-1.831
		c0.224-0.548,0.561-0.968,1.009-1.26s0.95-0.438,1.504-0.438c0.406,0,0.768,0.086,1.085,0.257c0.317,0.172,0.576,0.395,0.774,0.67
		v-3.339h1.136v9.306H41.67z M38.059,72.728c0,0.863,0.182,1.509,0.546,1.936s0.793,0.641,1.289,0.641
		c0.5,0,0.923-0.204,1.273-0.612c0.349-0.409,0.523-1.032,0.523-1.87c0-0.922-0.178-1.6-0.533-2.031s-0.793-0.647-1.314-0.647
		c-0.508,0-0.932,0.208-1.273,0.622C38.229,71.181,38.059,71.834,38.059,72.728z"/>
	<path fill="#FFFFFF" d="M48.926,75.26c-0.423,0.36-0.831,0.614-1.222,0.762c-0.392,0.148-0.812,0.222-1.26,0.222
		c-0.741,0-1.31-0.181-1.708-0.543c-0.398-0.361-0.597-0.824-0.597-1.387c0-0.33,0.075-0.632,0.226-0.904
		c0.15-0.273,0.347-0.492,0.59-0.657c0.244-0.165,0.518-0.29,0.822-0.375c0.224-0.059,0.563-0.116,1.016-0.171
		c0.922-0.11,1.602-0.241,2.038-0.394c0.004-0.157,0.006-0.256,0.006-0.298c0-0.465-0.108-0.793-0.324-0.984
		c-0.292-0.258-0.726-0.387-1.301-0.387c-0.538,0-0.934,0.094-1.19,0.283c-0.256,0.188-0.445,0.521-0.568,1l-1.117-0.152
		c0.102-0.478,0.269-0.864,0.501-1.159c0.233-0.294,0.569-0.521,1.009-0.679c0.44-0.159,0.95-0.238,1.53-0.238
		c0.576,0,1.043,0.068,1.403,0.203s0.624,0.306,0.793,0.511c0.169,0.206,0.288,0.465,0.355,0.778
		c0.038,0.195,0.057,0.546,0.057,1.054v1.523c0,1.062,0.024,1.734,0.073,2.015c0.049,0.282,0.145,0.551,0.289,0.81h-1.193
		C49.036,75.855,48.959,75.578,48.926,75.26z M48.831,72.708c-0.415,0.169-1.037,0.313-1.866,0.432
		c-0.47,0.068-0.802,0.144-0.997,0.229s-0.345,0.208-0.451,0.372c-0.106,0.163-0.159,0.344-0.159,0.542
		c0,0.305,0.115,0.559,0.346,0.762c0.231,0.203,0.568,0.305,1.013,0.305c0.44,0,0.832-0.096,1.174-0.289
		c0.343-0.193,0.595-0.456,0.755-0.791c0.123-0.258,0.184-0.639,0.184-1.143V72.708z"/>
	<path fill="#FFFFFF" d="M51.731,76.092v-9.306h1.143v9.306H51.731z"/>
	<path fill="#FFFFFF" d="M54.651,68.1v-1.314h1.143V68.1H54.651z M54.651,76.092v-6.741h1.143v6.741H54.651z"/>
	<path fill="#FFFFFF" d="M61.907,76.092v-0.851c-0.427,0.668-1.056,1.003-1.885,1.003c-0.538,0-1.031-0.148-1.482-0.444
		c-0.45-0.296-0.8-0.71-1.047-1.241c-0.248-0.531-0.372-1.141-0.372-1.831c0-0.673,0.112-1.283,0.336-1.831
		c0.224-0.548,0.561-0.968,1.009-1.26s0.95-0.438,1.504-0.438c0.406,0,0.768,0.086,1.085,0.257c0.317,0.172,0.576,0.395,0.774,0.67
		v-3.339h1.136v9.306H61.907z M58.295,72.728c0,0.863,0.182,1.509,0.546,1.936s0.793,0.641,1.289,0.641
		c0.5,0,0.923-0.204,1.273-0.612c0.349-0.409,0.523-1.032,0.523-1.87c0-0.922-0.178-1.6-0.533-2.031s-0.793-0.647-1.314-0.647
		c-0.508,0-0.932,0.208-1.273,0.622C58.465,71.181,58.295,71.834,58.295,72.728z"/>
	<path fill="#FFFFFF" d="M69.162,75.26c-0.423,0.36-0.831,0.614-1.222,0.762c-0.392,0.148-0.812,0.222-1.26,0.222
		c-0.741,0-1.31-0.181-1.708-0.543c-0.398-0.361-0.597-0.824-0.597-1.387c0-0.33,0.075-0.632,0.226-0.904
		c0.15-0.273,0.347-0.492,0.59-0.657c0.244-0.165,0.518-0.29,0.822-0.375c0.224-0.059,0.563-0.116,1.016-0.171
		c0.922-0.11,1.602-0.241,2.038-0.394c0.004-0.157,0.006-0.256,0.006-0.298c0-0.465-0.108-0.793-0.324-0.984
		c-0.292-0.258-0.726-0.387-1.301-0.387c-0.538,0-0.934,0.094-1.19,0.283c-0.256,0.188-0.445,0.521-0.568,1l-1.117-0.152
		c0.102-0.478,0.269-0.864,0.501-1.159c0.233-0.294,0.569-0.521,1.009-0.679c0.44-0.159,0.95-0.238,1.53-0.238
		c0.576,0,1.043,0.068,1.403,0.203s0.624,0.306,0.793,0.511c0.169,0.206,0.288,0.465,0.355,0.778
		c0.038,0.195,0.057,0.546,0.057,1.054v1.523c0,1.062,0.024,1.734,0.073,2.015c0.049,0.282,0.145,0.551,0.289,0.81h-1.193
		C69.272,75.855,69.196,75.578,69.162,75.26z M69.067,72.708c-0.415,0.169-1.037,0.313-1.866,0.432
		c-0.47,0.068-0.802,0.144-0.997,0.229s-0.345,0.208-0.451,0.372c-0.106,0.163-0.159,0.344-0.159,0.542
		c0,0.305,0.115,0.559,0.346,0.762c0.231,0.203,0.568,0.305,1.013,0.305c0.44,0,0.832-0.096,1.174-0.289
		c0.343-0.193,0.595-0.456,0.755-0.791c0.123-0.258,0.184-0.639,0.184-1.143V72.708z"/>
	<path fill="#FFFFFF" d="M76.367,76.092v-0.851c-0.427,0.668-1.056,1.003-1.885,1.003c-0.538,0-1.031-0.148-1.482-0.444
		c-0.45-0.296-0.8-0.71-1.047-1.241c-0.248-0.531-0.372-1.141-0.372-1.831c0-0.673,0.112-1.283,0.336-1.831
		c0.224-0.548,0.561-0.968,1.009-1.26s0.95-0.438,1.504-0.438c0.406,0,0.768,0.086,1.085,0.257c0.317,0.172,0.576,0.395,0.774,0.67
		v-3.339h1.136v9.306H76.367z M72.755,72.728c0,0.863,0.182,1.509,0.546,1.936s0.793,0.641,1.289,0.641
		c0.5,0,0.923-0.204,1.273-0.612c0.349-0.409,0.523-1.032,0.523-1.87c0-0.922-0.178-1.6-0.533-2.031s-0.793-0.647-1.314-0.647
		c-0.508,0-0.932,0.208-1.273,0.622C72.925,71.181,72.755,71.834,72.755,72.728z"/>
	<path fill="#FFFFFF" d="M82.784,78.688l-0.127-1.073c0.25,0.068,0.468,0.102,0.654,0.102c0.254,0,0.457-0.042,0.609-0.127
		s0.277-0.203,0.375-0.355c0.072-0.114,0.188-0.398,0.349-0.851c0.021-0.063,0.055-0.157,0.102-0.279l-2.558-6.754h1.231
		l1.403,3.904c0.182,0.495,0.345,1.016,0.489,1.562c0.131-0.525,0.288-1.037,0.47-1.536l1.441-3.929h1.143l-2.564,6.855
		c-0.275,0.741-0.489,1.25-0.641,1.53c-0.203,0.376-0.436,0.653-0.698,0.829c-0.262,0.175-0.576,0.263-0.939,0.263
		C83.3,78.828,83.055,78.781,82.784,78.688z"/>
	<path fill="#FFFFFF" d="M97.32,76.092v-0.851c-0.427,0.668-1.056,1.003-1.885,1.003c-0.538,0-1.032-0.148-1.482-0.444
		c-0.451-0.296-0.8-0.71-1.048-1.241c-0.247-0.531-0.371-1.141-0.371-1.831c0-0.673,0.112-1.283,0.336-1.831
		c0.224-0.548,0.561-0.968,1.009-1.26s0.95-0.438,1.504-0.438c0.406,0,0.768,0.086,1.085,0.257c0.317,0.172,0.576,0.395,0.774,0.67
		v-3.339h1.136v9.306H97.32z M93.708,72.728c0,0.863,0.182,1.509,0.546,1.936s0.793,0.641,1.289,0.641
		c0.5,0,0.924-0.204,1.272-0.612c0.35-0.409,0.524-1.032,0.524-1.87c0-0.922-0.178-1.6-0.533-2.031s-0.793-0.647-1.314-0.647
		c-0.508,0-0.932,0.208-1.272,0.622C93.879,71.181,93.708,71.834,93.708,72.728z"/>
	<path fill="#FFFFFF" d="M104.594,76.092v-0.99c-0.524,0.762-1.237,1.143-2.139,1.143c-0.398,0-0.77-0.076-1.113-0.229
		c-0.346-0.152-0.602-0.344-0.77-0.574c-0.166-0.231-0.283-0.513-0.352-0.848c-0.047-0.224-0.07-0.58-0.07-1.066v-4.177h1.143v3.739
		c0,0.597,0.023,0.999,0.07,1.206c0.072,0.3,0.225,0.537,0.457,0.708c0.232,0.172,0.521,0.257,0.863,0.257s0.664-0.088,0.965-0.263
		c0.301-0.176,0.514-0.415,0.639-0.718c0.124-0.302,0.187-0.741,0.187-1.317v-3.612h1.143v6.741H104.594z"/>
	<path fill="#FFFFFF" d="M107.394,76.092v-6.741h1.028v1.022c0.262-0.478,0.504-0.793,0.727-0.946s0.467-0.229,0.733-0.229
		c0.386,0,0.776,0.123,1.175,0.368l-0.395,1.06c-0.279-0.165-0.559-0.248-0.838-0.248c-0.249,0-0.474,0.075-0.672,0.226
		c-0.199,0.15-0.342,0.358-0.426,0.625c-0.127,0.406-0.19,0.851-0.19,1.333v3.529H107.394z"/>
	<path fill="#FFFFFF" d="M116.135,75.26c-0.424,0.36-0.831,0.614-1.223,0.762c-0.391,0.148-0.811,0.222-1.26,0.222
		c-0.74,0-1.31-0.181-1.707-0.543c-0.398-0.361-0.598-0.824-0.598-1.387c0-0.33,0.076-0.632,0.227-0.904
		c0.149-0.273,0.346-0.492,0.59-0.657c0.243-0.165,0.518-0.29,0.822-0.375c0.224-0.059,0.563-0.116,1.016-0.171
		c0.922-0.11,1.602-0.241,2.037-0.394c0.004-0.157,0.006-0.256,0.006-0.298c0-0.465-0.107-0.793-0.323-0.984
		c-0.292-0.258-0.726-0.387-1.302-0.387c-0.537,0-0.934,0.094-1.189,0.283c-0.256,0.188-0.445,0.521-0.568,1l-1.117-0.152
		c0.102-0.478,0.269-0.864,0.502-1.159c0.232-0.294,0.568-0.521,1.009-0.679c0.44-0.159,0.95-0.238,1.53-0.238
		c0.575,0,1.043,0.068,1.402,0.203s0.624,0.306,0.793,0.511c0.17,0.206,0.288,0.465,0.355,0.778
		c0.039,0.195,0.058,0.546,0.058,1.054v1.523c0,1.062,0.024,1.734,0.073,2.015c0.049,0.282,0.145,0.551,0.289,0.81h-1.193
		C116.245,75.855,116.168,75.578,116.135,75.26z M116.04,72.708c-0.414,0.169-1.037,0.313-1.866,0.432
		c-0.47,0.068-0.802,0.144-0.997,0.229c-0.194,0.084-0.344,0.208-0.45,0.372c-0.106,0.163-0.159,0.344-0.159,0.542
		c0,0.305,0.115,0.559,0.346,0.762c0.231,0.203,0.568,0.305,1.014,0.305c0.439,0,0.831-0.096,1.174-0.289
		c0.343-0.193,0.595-0.456,0.756-0.791c0.122-0.258,0.184-0.639,0.184-1.143V72.708z"/>
	<path fill="#FFFFFF" d="M123.365,73.623l1.124,0.146c-0.123,0.774-0.438,1.381-0.943,1.818c-0.506,0.438-1.127,0.657-1.863,0.657
		c-0.922,0-1.664-0.302-2.225-0.904c-0.561-0.604-0.841-1.468-0.841-2.593c0-0.728,0.12-1.365,0.362-1.911
		c0.24-0.546,0.607-0.955,1.102-1.229c0.492-0.272,1.029-0.409,1.608-0.409c0.731,0,1.331,0.185,1.796,0.556
		c0.466,0.37,0.764,0.896,0.896,1.577l-1.11,0.171c-0.106-0.453-0.293-0.793-0.563-1.022c-0.269-0.229-0.594-0.343-0.975-0.343
		c-0.575,0-1.043,0.206-1.402,0.619c-0.359,0.412-0.539,1.065-0.539,1.958c0,0.906,0.173,1.563,0.52,1.974
		c0.348,0.411,0.801,0.616,1.359,0.616c0.448,0,0.822-0.138,1.123-0.413S123.284,74.194,123.365,73.623z"/>
	<path fill="#FFFFFF" d="M125.472,68.1v-1.314h1.143V68.1H125.472z M125.472,76.092v-6.741h1.143v6.741H125.472z"/>
	<path fill="#FFFFFF" d="M127.928,72.721c0-1.249,0.348-2.173,1.041-2.774c0.58-0.5,1.287-0.749,2.121-0.749
		c0.926,0,1.684,0.304,2.271,0.911c0.589,0.607,0.883,1.446,0.883,2.517c0,0.868-0.131,1.55-0.391,2.047
		c-0.26,0.498-0.639,0.884-1.137,1.159c-0.496,0.275-1.039,0.413-1.627,0.413c-0.944,0-1.707-0.303-2.289-0.908
		S127.928,73.859,127.928,72.721z M129.103,72.721c0,0.863,0.188,1.51,0.565,1.939c0.376,0.43,0.85,0.645,1.422,0.645
		c0.566,0,1.039-0.216,1.415-0.647s0.565-1.09,0.565-1.974c0-0.833-0.189-1.465-0.568-1.895c-0.379-0.429-0.85-0.644-1.412-0.644
		c-0.572,0-1.046,0.214-1.422,0.641C129.292,71.212,129.103,71.858,129.103,72.721z M130.456,68.513l0.844-1.777h1.498l-1.396,1.777
		H130.456z"/>
	<path fill="#FFFFFF" d="M135.584,76.092v-6.741h1.027v0.958c0.496-0.741,1.211-1.111,2.146-1.111c0.406,0,0.779,0.073,1.119,0.219
		c0.342,0.146,0.596,0.338,0.766,0.575s0.287,0.519,0.355,0.844c0.043,0.211,0.063,0.582,0.063,1.111v4.145h-1.143v-4.101
		c0-0.465-0.044-0.813-0.134-1.044c-0.088-0.231-0.246-0.415-0.473-0.553c-0.227-0.137-0.492-0.206-0.797-0.206
		c-0.486,0-0.906,0.154-1.26,0.463s-0.529,0.895-0.529,1.758v3.682H135.584z"/>
	<path fill="#FFFFFF" d="M150.799,76.092v-0.851c-0.428,0.668-1.056,1.003-1.885,1.003c-0.538,0-1.031-0.148-1.482-0.444
		s-0.801-0.71-1.047-1.241c-0.248-0.531-0.372-1.141-0.372-1.831c0-0.673,0.112-1.283,0.337-1.831
		c0.224-0.548,0.561-0.968,1.009-1.26s0.95-0.438,1.505-0.438c0.406,0,0.768,0.086,1.085,0.257c0.317,0.172,0.575,0.395,0.774,0.67
		v-3.339h1.137v9.306H150.799z M147.188,72.728c0,0.863,0.182,1.509,0.545,1.936c0.364,0.427,0.794,0.641,1.289,0.641
		c0.5,0,0.924-0.204,1.273-0.612c0.348-0.409,0.523-1.032,0.523-1.87c0-0.922-0.178-1.6-0.533-2.031s-0.794-0.647-1.314-0.647
		c-0.508,0-0.932,0.208-1.273,0.622C147.358,71.181,147.188,71.834,147.188,72.728z"/>
	<path fill="#FFFFFF" d="M158.27,73.921l1.182,0.146c-0.187,0.69-0.531,1.225-1.035,1.606s-1.146,0.571-1.93,0.571
		c-0.986,0-1.768-0.304-2.346-0.911c-0.578-0.607-0.866-1.458-0.866-2.555c0-1.134,0.292-2.014,0.876-2.641s1.342-0.939,2.272-0.939
		c0.901,0,1.638,0.307,2.209,0.92s0.856,1.477,0.856,2.59c0,0.068-0.002,0.169-0.006,0.305h-5.027
		c0.043,0.741,0.252,1.308,0.629,1.701c0.376,0.394,0.846,0.59,1.408,0.59c0.42,0,0.777-0.11,1.073-0.33
		S158.097,74.403,158.27,73.921z M154.519,72.074h3.765c-0.051-0.567-0.195-0.992-0.432-1.276c-0.364-0.44-0.836-0.66-1.416-0.66
		c-0.525,0-0.966,0.176-1.324,0.527C154.754,71.016,154.557,71.485,154.519,72.074z"/>
	<path fill="#FFFFFF" d="M160.86,76.092v-9.306h1.143v9.306H160.86z"/>
	<path fill="#FFFFFF" d="M19.238,94.275v-9.325h1.041v0.876c0.246-0.343,0.522-0.6,0.832-0.771c0.309-0.172,0.684-0.257,1.124-0.257
		c0.576,0,1.083,0.148,1.523,0.444s0.772,0.714,0.997,1.253c0.224,0.54,0.336,1.131,0.336,1.774c0,0.69-0.124,1.311-0.372,1.863
		c-0.247,0.552-0.607,0.975-1.079,1.27c-0.472,0.294-0.968,0.441-1.488,0.441c-0.381,0-0.723-0.081-1.025-0.241
		c-0.302-0.161-0.551-0.364-0.746-0.609v3.282H19.238z M20.272,88.359c0,0.868,0.176,1.509,0.527,1.923s0.776,0.622,1.276,0.622
		c0.508,0,0.942-0.215,1.305-0.644c0.361-0.43,0.542-1.095,0.542-1.997c0-0.859-0.177-1.502-0.53-1.93
		c-0.354-0.427-0.776-0.641-1.267-0.641c-0.487,0-0.917,0.228-1.292,0.683C20.46,86.831,20.272,87.492,20.272,88.359z"/>
	<path fill="#FFFFFF" d="M26.455,91.692v-6.741h1.028v1.022c0.262-0.478,0.505-0.793,0.727-0.946
		c0.223-0.152,0.467-0.229,0.733-0.229c0.385,0,0.776,0.123,1.174,0.368l-0.394,1.06c-0.279-0.165-0.559-0.248-0.838-0.248
		c-0.25,0-0.474,0.075-0.673,0.225c-0.199,0.15-0.341,0.359-0.425,0.625c-0.127,0.406-0.19,0.851-0.19,1.333v3.529H26.455z"/>
	<path fill="#FFFFFF" d="M30.372,88.321c0-1.249,0.347-2.173,1.041-2.774c0.58-0.5,1.287-0.749,2.12-0.749
		c0.927,0,1.684,0.304,2.272,0.911c0.588,0.607,0.882,1.446,0.882,2.517c0,0.868-0.13,1.55-0.391,2.047
		c-0.26,0.497-0.639,0.883-1.136,1.158c-0.498,0.275-1.04,0.413-1.628,0.413c-0.944,0-1.707-0.303-2.289-0.908
		C30.663,90.332,30.372,89.459,30.372,88.321z M31.546,88.321c0,0.863,0.188,1.51,0.565,1.939c0.376,0.429,0.851,0.644,1.422,0.644
		c0.567,0,1.039-0.216,1.416-0.647s0.565-1.09,0.565-1.974c0-0.833-0.189-1.465-0.568-1.895c-0.379-0.43-0.85-0.645-1.413-0.645
		c-0.571,0-1.045,0.214-1.422,0.641S31.546,87.458,31.546,88.321z"/>
	<path fill="#FFFFFF" d="M37.817,92.25l1.111,0.165c0.046,0.343,0.176,0.592,0.387,0.749c0.284,0.211,0.671,0.317,1.162,0.317
		c0.529,0,0.938-0.106,1.225-0.317s0.482-0.508,0.584-0.889c0.059-0.233,0.087-0.722,0.083-1.466
		c-0.5,0.588-1.122,0.882-1.866,0.882c-0.927,0-1.644-0.334-2.152-1.003s-0.762-1.471-0.762-2.406c0-0.643,0.116-1.237,0.349-1.78
		c0.233-0.544,0.57-0.964,1.012-1.26c0.442-0.296,0.962-0.444,1.559-0.444c0.795,0,1.452,0.322,1.968,0.965v-0.813h1.054v5.827
		c0,1.049-0.107,1.793-0.32,2.231c-0.214,0.438-0.553,0.784-1.016,1.038c-0.464,0.254-1.034,0.381-1.711,0.381
		c-0.804,0-1.454-0.181-1.949-0.543C38.04,93.523,37.8,92.979,37.817,92.25z M38.763,88.201c0,0.884,0.176,1.53,0.527,1.936
		s0.792,0.609,1.32,0.609c0.525,0,0.965-0.202,1.32-0.606c0.355-0.404,0.533-1.038,0.533-1.901c0-0.825-0.183-1.447-0.549-1.866
		c-0.366-0.419-0.808-0.628-1.324-0.628c-0.508,0-0.939,0.206-1.295,0.619C38.941,86.775,38.763,87.388,38.763,88.201z"/>
	<path fill="#FFFFFF" d="M45.244,91.692v-6.741h1.028v1.022c0.262-0.478,0.505-0.793,0.727-0.946
		c0.223-0.152,0.467-0.229,0.733-0.229c0.385,0,0.776,0.123,1.174,0.368l-0.394,1.06c-0.279-0.165-0.559-0.248-0.838-0.248
		c-0.25,0-0.474,0.075-0.673,0.225c-0.199,0.15-0.341,0.359-0.425,0.625c-0.127,0.406-0.19,0.851-0.19,1.333v3.529H45.244z"/>
	<path fill="#FFFFFF" d="M53.985,90.86c-0.423,0.36-0.831,0.614-1.222,0.762c-0.391,0.148-0.811,0.222-1.26,0.222
		c-0.741,0-1.31-0.181-1.708-0.542c-0.398-0.362-0.597-0.824-0.597-1.387c0-0.33,0.075-0.631,0.225-0.905
		c0.15-0.272,0.347-0.492,0.591-0.657c0.243-0.165,0.517-0.29,0.822-0.375c0.224-0.059,0.563-0.116,1.016-0.171
		c0.922-0.11,1.602-0.241,2.038-0.394c0.004-0.157,0.006-0.256,0.006-0.298c0-0.465-0.108-0.793-0.324-0.984
		c-0.292-0.258-0.726-0.387-1.301-0.387c-0.538,0-0.934,0.094-1.19,0.282c-0.256,0.188-0.446,0.522-0.568,1l-1.117-0.152
		c0.102-0.478,0.269-0.864,0.501-1.158c0.233-0.294,0.569-0.521,1.009-0.68c0.44-0.158,0.95-0.238,1.53-0.238
		c0.576,0,1.043,0.068,1.403,0.203s0.624,0.306,0.793,0.511c0.169,0.205,0.288,0.464,0.355,0.777
		c0.038,0.195,0.057,0.546,0.057,1.054v1.523c0,1.062,0.024,1.734,0.073,2.016c0.048,0.281,0.145,0.551,0.289,0.809h-1.193
		C54.095,91.455,54.019,91.178,53.985,90.86z M53.89,88.309c-0.415,0.169-1.037,0.313-1.866,0.432
		c-0.47,0.068-0.802,0.144-0.997,0.229s-0.345,0.208-0.451,0.371c-0.106,0.163-0.159,0.344-0.159,0.543
		c0,0.305,0.115,0.559,0.346,0.762c0.23,0.203,0.568,0.305,1.012,0.305c0.44,0,0.832-0.096,1.174-0.289
		c0.343-0.192,0.595-0.456,0.755-0.79c0.123-0.258,0.184-0.639,0.184-1.143V88.309z"/>
	<path fill="#FFFFFF" d="M56.816,91.692v-6.741h1.022v0.946c0.211-0.33,0.493-0.596,0.844-0.797c0.351-0.201,0.751-0.301,1.2-0.301
		c0.5,0,0.909,0.104,1.229,0.311c0.319,0.208,0.544,0.497,0.676,0.87c0.533-0.787,1.227-1.181,2.082-1.181
		c0.668,0,1.183,0.185,1.542,0.555c0.36,0.371,0.54,0.941,0.54,1.711v4.627h-1.136v-4.247c0-0.457-0.037-0.786-0.111-0.987
		c-0.074-0.201-0.208-0.363-0.403-0.485s-0.423-0.184-0.686-0.184c-0.474,0-0.868,0.158-1.181,0.473
		c-0.313,0.315-0.47,0.82-0.47,1.514v3.917h-1.143v-4.38c0-0.508-0.093-0.889-0.279-1.143s-0.491-0.381-0.914-0.381
		c-0.322,0-0.619,0.084-0.892,0.254c-0.273,0.169-0.471,0.417-0.594,0.743s-0.184,0.795-0.184,1.409v3.498H56.816z"/>
	<path fill="#FFFFFF" d="M72.044,90.86c-0.423,0.36-0.831,0.614-1.222,0.762c-0.392,0.148-0.812,0.222-1.26,0.222
		c-0.741,0-1.31-0.181-1.708-0.542c-0.398-0.362-0.597-0.824-0.597-1.387c0-0.33,0.075-0.631,0.226-0.905
		c0.15-0.272,0.347-0.492,0.59-0.657c0.244-0.165,0.518-0.29,0.822-0.375c0.224-0.059,0.563-0.116,1.016-0.171
		c0.922-0.11,1.602-0.241,2.038-0.394c0.004-0.157,0.006-0.256,0.006-0.298c0-0.465-0.108-0.793-0.324-0.984
		c-0.292-0.258-0.726-0.387-1.301-0.387c-0.538,0-0.934,0.094-1.19,0.282c-0.256,0.188-0.445,0.522-0.568,1l-1.117-0.152
		c0.102-0.478,0.269-0.864,0.501-1.158c0.233-0.294,0.569-0.521,1.009-0.68c0.44-0.158,0.95-0.238,1.53-0.238
		c0.576,0,1.043,0.068,1.403,0.203s0.624,0.306,0.793,0.511c0.169,0.205,0.288,0.464,0.355,0.777
		c0.038,0.195,0.057,0.546,0.057,1.054v1.523c0,1.062,0.024,1.734,0.073,2.016c0.049,0.281,0.145,0.551,0.289,0.809h-1.193
		C72.154,91.455,72.078,91.178,72.044,90.86z M71.949,88.309c-0.415,0.169-1.037,0.313-1.866,0.432
		c-0.47,0.068-0.802,0.144-0.997,0.229s-0.345,0.208-0.451,0.371c-0.106,0.163-0.159,0.344-0.159,0.543
		c0,0.305,0.115,0.559,0.346,0.762c0.231,0.203,0.568,0.305,1.013,0.305c0.44,0,0.832-0.096,1.174-0.289
		c0.343-0.192,0.595-0.456,0.755-0.79c0.123-0.258,0.184-0.639,0.184-1.143V88.309z"/>
	<path fill="#FFFFFF" d="M19.371,116.892v-9.306h1.263l4.888,7.306v-7.306h1.181v9.306h-1.263l-4.888-7.313v7.313H19.371z"/>
	<path fill="#FFFFFF" d="M28.632,108.899v-1.313h1.143v1.313H28.632z M28.632,116.892v-6.741h1.143v6.741H28.632z"/>
	<path fill="#FFFFFF" d="M33.387,116.892l-2.564-6.741h1.206l1.447,4.037c0.157,0.436,0.3,0.889,0.432,1.358
		c0.102-0.355,0.243-0.783,0.425-1.282l1.498-4.113h1.174l-2.552,6.741H33.387z"/>
	<path fill="#FFFFFF" d="M42.629,114.721l1.181,0.146c-0.186,0.69-0.531,1.226-1.035,1.606s-1.147,0.571-1.93,0.571
		c-0.986,0-1.768-0.304-2.345-0.911c-0.578-0.607-0.867-1.459-0.867-2.555c0-1.134,0.292-2.015,0.876-2.641s1.341-0.939,2.272-0.939
		c0.901,0,1.638,0.307,2.209,0.921c0.571,0.613,0.857,1.477,0.857,2.59c0,0.067-0.002,0.169-0.006,0.305h-5.027
		c0.042,0.74,0.252,1.307,0.628,1.701c0.376,0.393,0.846,0.59,1.409,0.59c0.419,0,0.776-0.11,1.073-0.33
		S42.456,115.203,42.629,114.721z M38.877,112.874h3.764c-0.051-0.567-0.195-0.993-0.432-1.276c-0.364-0.44-0.836-0.66-1.416-0.66
		c-0.525,0-0.966,0.176-1.324,0.526C39.113,111.815,38.916,112.285,38.877,112.874z"/>
	<path fill="#FFFFFF" d="M45.219,116.892v-9.306h1.143v9.306H45.219z"/>
	<path fill="#FFFFFF" d="M56.118,116.892v-0.851c-0.427,0.669-1.056,1.003-1.885,1.003c-0.538,0-1.031-0.148-1.482-0.444
		c-0.45-0.296-0.8-0.71-1.047-1.241c-0.248-0.531-0.372-1.142-0.372-1.831c0-0.673,0.112-1.283,0.336-1.831s0.561-0.969,1.009-1.26
		c0.449-0.293,0.95-0.438,1.504-0.438c0.406,0,0.768,0.086,1.085,0.257c0.317,0.172,0.576,0.395,0.774,0.67v-3.339h1.136v9.306
		H56.118z M52.506,113.527c0,0.863,0.182,1.509,0.546,1.937c0.364,0.427,0.793,0.641,1.289,0.641c0.5,0,0.923-0.204,1.273-0.612
		c0.349-0.408,0.523-1.032,0.523-1.87c0-0.922-0.178-1.6-0.533-2.031s-0.793-0.646-1.314-0.646c-0.508,0-0.932,0.207-1.273,0.621
		C52.676,111.98,52.506,112.635,52.506,113.527z"/>
	<path fill="#FFFFFF" d="M63.589,114.721l1.181,0.146c-0.186,0.69-0.531,1.226-1.035,1.606s-1.147,0.571-1.93,0.571
		c-0.986,0-1.768-0.304-2.345-0.911c-0.578-0.607-0.867-1.459-0.867-2.555c0-1.134,0.292-2.015,0.876-2.641s1.341-0.939,2.272-0.939
		c0.901,0,1.638,0.307,2.209,0.921c0.571,0.613,0.857,1.477,0.857,2.59c0,0.067-0.002,0.169-0.006,0.305h-5.027
		c0.042,0.74,0.252,1.307,0.628,1.701c0.376,0.393,0.846,0.59,1.409,0.59c0.419,0,0.776-0.11,1.073-0.33
		S63.416,115.203,63.589,114.721z M59.837,112.874h3.764c-0.051-0.567-0.195-0.993-0.432-1.276c-0.364-0.44-0.836-0.66-1.416-0.66
		c-0.525,0-0.966,0.176-1.324,0.526C60.073,111.815,59.875,112.285,59.837,112.874z"/>
	<path fill="#FFFFFF" d="M70.089,116.892v-5.853H69.08v-0.889h1.009v-0.718c0-0.452,0.04-0.789,0.121-1.009
		c0.11-0.296,0.304-0.536,0.581-0.721c0.277-0.184,0.666-0.276,1.165-0.276c0.322,0,0.677,0.039,1.066,0.115l-0.171,0.996
		c-0.237-0.042-0.461-0.063-0.673-0.063c-0.347,0-0.592,0.074-0.736,0.222c-0.144,0.148-0.216,0.426-0.216,0.832v0.622h1.314v0.889
		h-1.314v5.853H70.089z"/>
	<path fill="#FFFFFF" d="M73.002,113.521c0-1.248,0.347-2.173,1.041-2.773c0.58-0.499,1.287-0.749,2.12-0.749
		c0.927,0,1.684,0.304,2.272,0.911s0.882,1.446,0.882,2.517c0,0.867-0.13,1.55-0.391,2.047c-0.26,0.497-0.639,0.884-1.136,1.159
		c-0.498,0.274-1.04,0.412-1.628,0.412c-0.944,0-1.707-0.303-2.289-0.908C73.293,115.531,73.002,114.659,73.002,113.521z
		 M74.177,113.521c0,0.863,0.188,1.51,0.565,1.939s0.851,0.645,1.422,0.645c0.567,0,1.039-0.216,1.416-0.647s0.565-1.09,0.565-1.974
		c0-0.834-0.189-1.466-0.568-1.896c-0.379-0.43-0.85-0.644-1.413-0.644c-0.571,0-1.045,0.213-1.422,0.641
		S74.177,112.657,74.177,113.521z"/>
	<path fill="#FFFFFF" d="M80.645,116.892v-6.741h1.028v1.022c0.262-0.479,0.504-0.794,0.727-0.946
		c0.222-0.152,0.466-0.229,0.733-0.229c0.385,0,0.776,0.123,1.174,0.368l-0.394,1.061c-0.279-0.166-0.559-0.248-0.838-0.248
		c-0.25,0-0.474,0.075-0.673,0.226s-0.341,0.358-0.425,0.625c-0.127,0.406-0.19,0.851-0.19,1.333v3.529H80.645z"/>
	<path fill="#FFFFFF" d="M84.987,116.892v-6.741h1.022v0.946c0.211-0.33,0.493-0.596,0.844-0.797s0.751-0.302,1.2-0.302
		c0.5,0,0.909,0.104,1.229,0.312c0.319,0.207,0.544,0.497,0.676,0.869c0.533-0.787,1.227-1.181,2.082-1.181
		c0.668,0,1.183,0.186,1.542,0.556s0.54,0.94,0.54,1.711v4.627h-1.136v-4.246c0-0.457-0.037-0.786-0.111-0.987
		c-0.074-0.201-0.208-0.363-0.403-0.485c-0.195-0.123-0.423-0.185-0.686-0.185c-0.474,0-0.868,0.157-1.181,0.473
		s-0.47,0.82-0.47,1.515v3.916h-1.143v-4.38c0-0.508-0.093-0.889-0.279-1.143s-0.491-0.381-0.914-0.381
		c-0.322,0-0.619,0.085-0.892,0.254c-0.273,0.169-0.471,0.417-0.594,0.743c-0.123,0.325-0.184,0.795-0.184,1.408v3.498H84.987z"/>
	<path fill="#FFFFFF" d="M100.215,116.06c-0.424,0.36-0.831,0.614-1.222,0.762c-0.392,0.148-0.812,0.223-1.26,0.223
		c-0.741,0-1.31-0.181-1.708-0.543c-0.398-0.361-0.597-0.824-0.597-1.387c0-0.33,0.075-0.632,0.226-0.904
		c0.15-0.273,0.347-0.492,0.59-0.657c0.244-0.165,0.518-0.29,0.822-0.374c0.224-0.06,0.563-0.117,1.016-0.172
		c0.922-0.11,1.602-0.241,2.038-0.394c0.004-0.156,0.006-0.256,0.006-0.298c0-0.466-0.107-0.794-0.323-0.984
		c-0.292-0.258-0.726-0.387-1.301-0.387c-0.538,0-0.934,0.094-1.19,0.282c-0.256,0.188-0.445,0.521-0.568,0.999l-1.117-0.152
		c0.102-0.478,0.269-0.864,0.501-1.158s0.569-0.521,1.009-0.679c0.44-0.159,0.95-0.238,1.53-0.238c0.576,0,1.043,0.067,1.403,0.203
		s0.624,0.306,0.793,0.511c0.17,0.205,0.288,0.465,0.355,0.777c0.039,0.195,0.058,0.547,0.058,1.055v1.523
		c0,1.062,0.024,1.733,0.073,2.015s0.145,0.552,0.289,0.81h-1.193C100.325,116.654,100.249,116.378,100.215,116.06z M100.12,113.509
		c-0.414,0.169-1.037,0.313-1.866,0.432c-0.47,0.067-0.802,0.144-0.997,0.229c-0.195,0.084-0.345,0.208-0.451,0.371
		s-0.159,0.344-0.159,0.543c0,0.305,0.115,0.559,0.346,0.762c0.231,0.203,0.568,0.305,1.013,0.305c0.44,0,0.832-0.097,1.174-0.289
		s0.595-0.456,0.756-0.791c0.122-0.258,0.184-0.639,0.184-1.143V113.509z"/>
	<path fill="#FFFFFF" d="M107.445,114.423l1.124,0.146c-0.123,0.774-0.438,1.381-0.943,1.818c-0.506,0.438-1.127,0.657-1.863,0.657
		c-0.922,0-1.664-0.302-2.225-0.904c-0.561-0.604-0.841-1.468-0.841-2.594c0-0.728,0.12-1.364,0.362-1.91
		c0.24-0.546,0.607-0.955,1.102-1.229c0.492-0.272,1.029-0.409,1.608-0.409c0.731,0,1.331,0.186,1.796,0.556
		c0.466,0.37,0.764,0.896,0.896,1.577l-1.11,0.171c-0.106-0.452-0.293-0.793-0.563-1.021c-0.269-0.229-0.594-0.343-0.975-0.343
		c-0.575,0-1.043,0.206-1.402,0.619c-0.359,0.412-0.539,1.065-0.539,1.958c0,0.905,0.173,1.563,0.52,1.975
		c0.348,0.41,0.801,0.615,1.359,0.615c0.448,0,0.822-0.138,1.123-0.412C107.174,115.417,107.364,114.993,107.445,114.423z"/>
	<path fill="#FFFFFF" d="M109.552,108.899v-1.313h1.143v1.313H109.552z M109.552,116.892v-6.741h1.143v6.741H109.552z"/>
	<path fill="#FFFFFF" d="M112.008,113.521c0-1.248,0.348-2.173,1.041-2.773c0.58-0.499,1.287-0.749,2.121-0.749
		c0.926,0,1.684,0.304,2.271,0.911c0.589,0.607,0.883,1.446,0.883,2.517c0,0.867-0.131,1.55-0.391,2.047s-0.639,0.884-1.137,1.159
		c-0.496,0.274-1.039,0.412-1.627,0.412c-0.944,0-1.707-0.303-2.289-0.908C112.299,115.531,112.008,114.659,112.008,113.521z
		 M113.183,113.521c0,0.863,0.188,1.51,0.565,1.939c0.376,0.43,0.85,0.645,1.422,0.645c0.566,0,1.039-0.216,1.415-0.647
		s0.565-1.09,0.565-1.974c0-0.834-0.189-1.466-0.568-1.896s-0.85-0.644-1.412-0.644c-0.572,0-1.046,0.213-1.422,0.641
		C113.372,112.013,113.183,112.657,113.183,113.521z M114.536,109.313l0.844-1.777h1.498l-1.396,1.777H114.536z"/>
	<path fill="#FFFFFF" d="M119.665,116.892v-6.741h1.027v0.958c0.496-0.74,1.211-1.11,2.146-1.11c0.406,0,0.779,0.073,1.119,0.219
		c0.342,0.146,0.596,0.338,0.766,0.575c0.17,0.236,0.287,0.518,0.355,0.844c0.043,0.212,0.063,0.582,0.063,1.111v4.145H124v-4.101
		c0-0.466-0.044-0.813-0.134-1.044c-0.088-0.23-0.246-0.415-0.473-0.553s-0.492-0.206-0.797-0.206c-0.486,0-0.906,0.154-1.26,0.464
		c-0.354,0.309-0.529,0.895-0.529,1.758v3.682H119.665z"/>
	<path fill="#FFFFFF" d="M130.456,119.487l-0.127-1.072c0.249,0.067,0.467,0.102,0.653,0.102c0.254,0,0.457-0.042,0.609-0.127
		s0.277-0.203,0.374-0.355c0.072-0.114,0.189-0.397,0.35-0.851c0.021-0.063,0.055-0.156,0.102-0.279l-2.559-6.754h1.232l1.402,3.903
		c0.182,0.496,0.345,1.016,0.488,1.563c0.132-0.525,0.288-1.037,0.471-1.537l1.44-3.929h1.143l-2.564,6.855
		c-0.274,0.74-0.489,1.251-0.642,1.53c-0.203,0.376-0.436,0.652-0.697,0.828c-0.263,0.176-0.576,0.264-0.939,0.264
		C130.971,119.628,130.726,119.581,130.456,119.487z"/>
	<path fill="#FFFFFF" d="M140.618,119.476v-9.325h1.041v0.876c0.246-0.343,0.522-0.6,0.832-0.771
		c0.309-0.171,0.684-0.257,1.123-0.257c0.576,0,1.084,0.148,1.523,0.444s0.772,0.714,0.996,1.254
		c0.225,0.539,0.337,1.131,0.337,1.773c0,0.69-0.124,1.312-0.372,1.863c-0.246,0.553-0.606,0.976-1.078,1.27
		c-0.473,0.294-0.969,0.441-1.488,0.441c-0.381,0-0.723-0.08-1.025-0.241s-0.551-0.364-0.746-0.609v3.282H140.618z M141.653,113.56
		c0,0.867,0.176,1.508,0.526,1.923s0.776,0.622,1.276,0.622c0.508,0,0.941-0.215,1.305-0.645c0.361-0.43,0.542-1.095,0.542-1.996
		c0-0.859-0.177-1.502-0.53-1.93s-0.775-0.641-1.266-0.641c-0.487,0-0.918,0.227-1.293,0.682
		C141.84,112.03,141.653,112.691,141.653,113.56z"/>
	<path fill="#FFFFFF" d="M152.462,114.721l1.181,0.146c-0.186,0.69-0.531,1.226-1.035,1.606c-0.503,0.381-1.146,0.571-1.93,0.571
		c-0.985,0-1.768-0.304-2.346-0.911c-0.576-0.607-0.865-1.459-0.865-2.555c0-1.134,0.291-2.015,0.875-2.641s1.342-0.939,2.273-0.939
		c0.9,0,1.637,0.307,2.209,0.921c0.57,0.613,0.856,1.477,0.856,2.59c0,0.067-0.002,0.169-0.007,0.305h-5.027
		c0.043,0.74,0.252,1.307,0.629,1.701c0.377,0.393,0.846,0.59,1.409,0.59c0.419,0,0.776-0.11,1.073-0.33
		C152.054,115.555,152.29,115.203,152.462,114.721z M148.711,112.874h3.764c-0.051-0.567-0.195-0.993-0.432-1.276
		c-0.363-0.44-0.836-0.66-1.416-0.66c-0.524,0-0.965,0.176-1.322,0.526C148.947,111.815,148.749,112.285,148.711,112.874z"/>
	<path fill="#FFFFFF" d="M155.065,116.892v-6.741h1.028v1.022c0.263-0.479,0.505-0.794,0.728-0.946
		c0.221-0.152,0.466-0.229,0.732-0.229c0.385,0,0.776,0.123,1.174,0.368l-0.393,1.061c-0.279-0.166-0.559-0.248-0.838-0.248
		c-0.25,0-0.475,0.075-0.674,0.226c-0.198,0.15-0.34,0.358-0.425,0.625c-0.127,0.406-0.19,0.851-0.19,1.333v3.529H155.065z"/>
	<path fill="#FFFFFF" d="M159.68,116.892v-5.853h-1.01v-0.889h1.01v-0.718c0-0.452,0.039-0.789,0.12-1.009
		c0.11-0.296,0.304-0.536,0.581-0.721c0.277-0.184,0.665-0.276,1.164-0.276c0.322,0,0.678,0.039,1.066,0.115l-0.171,0.996
		c-0.237-0.042-0.462-0.063-0.673-0.063c-0.348,0-0.592,0.074-0.736,0.222c-0.145,0.148-0.216,0.426-0.216,0.832v0.622h1.313v0.889
		h-1.313v5.853H159.68z"/>
	<path fill="#FFFFFF" d="M163.025,108.899v-1.313h1.143v1.313H163.025z M163.025,116.892v-6.741h1.143v6.741H163.025z"/>
	<path fill="#FFFFFF" d="M165.881,116.892v-9.306h1.143v9.306H165.881z"/>
	<path fill="#FFFFFF" d="M18.813,129.122c0-1.249,0.347-2.174,1.041-2.774c0.58-0.499,1.287-0.749,2.12-0.749
		c0.927,0,1.684,0.304,2.272,0.911s0.882,1.446,0.882,2.517c0,0.867-0.13,1.55-0.39,2.047c-0.261,0.497-0.639,0.884-1.137,1.158
		c-0.497,0.275-1.04,0.413-1.628,0.413c-0.944,0-1.707-0.303-2.288-0.907C19.104,131.132,18.813,130.26,18.813,129.122z
		 M19.987,129.122c0,0.863,0.188,1.509,0.565,1.938s0.851,0.645,1.422,0.645c0.567,0,1.039-0.216,1.416-0.647
		s0.565-1.09,0.565-1.975c0-0.833-0.189-1.465-0.568-1.895c-0.378-0.43-0.849-0.645-1.412-0.645c-0.571,0-1.045,0.214-1.422,0.642
		S19.987,128.259,19.987,129.122z"/>
	<path fill="#FFFFFF" d="M30.867,130.022l1.124,0.146c-0.123,0.774-0.437,1.381-0.942,1.818c-0.506,0.438-1.127,0.657-1.863,0.657
		c-0.922,0-1.664-0.302-2.225-0.904c-0.561-0.604-0.841-1.468-0.841-2.593c0-0.729,0.121-1.365,0.362-1.911s0.608-0.955,1.102-1.229
		c0.493-0.272,1.029-0.409,1.609-0.409c0.732,0,1.331,0.186,1.796,0.556s0.764,0.896,0.895,1.577l-1.111,0.172
		c-0.106-0.453-0.293-0.794-0.562-1.022c-0.269-0.229-0.594-0.343-0.975-0.343c-0.576,0-1.043,0.206-1.403,0.619
		c-0.36,0.412-0.54,1.065-0.54,1.958c0,0.905,0.173,1.563,0.521,1.974c0.347,0.411,0.8,0.616,1.358,0.616
		c0.449,0,0.823-0.138,1.124-0.413C30.596,131.018,30.786,130.595,30.867,130.022z"/>
	<path fill="#FFFFFF" d="M37.386,132.492v-0.99c-0.525,0.762-1.238,1.143-2.139,1.143c-0.398,0-0.769-0.076-1.114-0.229
		c-0.345-0.152-0.601-0.344-0.769-0.574c-0.167-0.23-0.284-0.514-0.352-0.848c-0.046-0.225-0.07-0.58-0.07-1.066v-4.177h1.143v3.738
		c0,0.598,0.023,0.999,0.07,1.207c0.072,0.3,0.224,0.536,0.457,0.707c0.233,0.172,0.521,0.258,0.863,0.258s0.665-0.088,0.965-0.264
		s0.513-0.415,0.638-0.718c0.125-0.303,0.187-0.741,0.187-1.317v-3.611h1.143v6.741H37.386z"/>
	<path fill="#FFFFFF" d="M40.198,135.075v-9.324h1.041v0.876c0.246-0.343,0.522-0.6,0.832-0.771
		c0.309-0.171,0.684-0.257,1.124-0.257c0.576,0,1.083,0.148,1.523,0.444s0.772,0.714,0.997,1.254
		c0.224,0.539,0.336,1.131,0.336,1.774c0,0.689-0.124,1.311-0.372,1.862c-0.247,0.553-0.607,0.976-1.079,1.27
		c-0.472,0.294-0.968,0.441-1.488,0.441c-0.381,0-0.723-0.08-1.025-0.241c-0.302-0.161-0.551-0.364-0.746-0.609v3.281H40.198z
		 M41.232,129.159c0,0.868,0.176,1.509,0.527,1.924s0.776,0.622,1.276,0.622c0.508,0,0.942-0.215,1.305-0.645
		c0.361-0.43,0.542-1.095,0.542-1.996c0-0.859-0.177-1.502-0.53-1.93c-0.354-0.428-0.776-0.642-1.267-0.642
		c-0.487,0-0.917,0.228-1.292,0.683C41.42,127.631,41.232,128.292,41.232,129.159z"/>
	<path fill="#FFFFFF" d="M51.827,131.661c-0.423,0.359-0.831,0.613-1.222,0.762c-0.391,0.147-0.811,0.222-1.26,0.222
		c-0.741,0-1.31-0.181-1.708-0.543c-0.398-0.361-0.597-0.824-0.597-1.387c0-0.33,0.075-0.632,0.225-0.904
		c0.15-0.273,0.347-0.492,0.591-0.657c0.243-0.165,0.517-0.29,0.822-0.375c0.224-0.059,0.563-0.116,1.016-0.171
		c0.922-0.11,1.602-0.241,2.038-0.394c0.004-0.156,0.006-0.256,0.006-0.299c0-0.465-0.108-0.793-0.324-0.983
		c-0.292-0.258-0.726-0.388-1.301-0.388c-0.538,0-0.934,0.095-1.19,0.283c-0.256,0.188-0.446,0.521-0.568,1l-1.117-0.152
		c0.102-0.479,0.269-0.865,0.501-1.159s0.569-0.521,1.009-0.679c0.44-0.159,0.95-0.238,1.53-0.238c0.576,0,1.043,0.067,1.403,0.203
		s0.624,0.306,0.793,0.511s0.288,0.465,0.355,0.778c0.038,0.194,0.057,0.545,0.057,1.053v1.523c0,1.063,0.024,1.734,0.073,2.016
		c0.048,0.281,0.145,0.552,0.289,0.81h-1.193C51.937,132.255,51.86,131.978,51.827,131.661z M51.731,129.108
		c-0.415,0.17-1.037,0.313-1.866,0.432c-0.47,0.068-0.802,0.145-0.997,0.229c-0.195,0.085-0.345,0.209-0.451,0.372
		s-0.159,0.344-0.159,0.542c0,0.305,0.115,0.559,0.346,0.762c0.23,0.203,0.568,0.305,1.012,0.305c0.44,0,0.832-0.096,1.174-0.288
		s0.595-0.456,0.755-0.79c0.123-0.259,0.184-0.64,0.184-1.143V129.108z"/>
	<path fill="#FFFFFF" d="M59.057,130.022l1.124,0.146c-0.123,0.774-0.437,1.381-0.943,1.818c-0.505,0.438-1.126,0.657-1.863,0.657
		c-0.922,0-1.664-0.302-2.225-0.904c-0.561-0.604-0.841-1.468-0.841-2.593c0-0.729,0.121-1.365,0.362-1.911s0.608-0.955,1.101-1.229
		c0.493-0.272,1.03-0.409,1.609-0.409c0.732,0,1.331,0.186,1.796,0.556s0.764,0.896,0.895,1.577l-1.111,0.172
		c-0.106-0.453-0.293-0.794-0.562-1.022c-0.269-0.229-0.593-0.343-0.974-0.343c-0.576,0-1.043,0.206-1.403,0.619
		c-0.36,0.412-0.54,1.065-0.54,1.958c0,0.905,0.173,1.563,0.521,1.974c0.347,0.411,0.8,0.616,1.358,0.616
		c0.449,0,0.823-0.138,1.124-0.413C58.786,131.018,58.976,130.595,59.057,130.022z"/>
	<path fill="#FFFFFF" d="M61.164,124.501v-1.314h1.143v1.314H61.164z M61.164,132.492v-6.741h1.143v6.741H61.164z"/>
	<path fill="#FFFFFF" d="M63.621,129.122c0-1.249,0.347-2.174,1.041-2.774c0.58-0.499,1.287-0.749,2.12-0.749
		c0.927,0,1.684,0.304,2.272,0.911s0.882,1.446,0.882,2.517c0,0.867-0.13,1.55-0.391,2.047c-0.26,0.497-0.639,0.884-1.136,1.158
		c-0.498,0.275-1.04,0.413-1.628,0.413c-0.944,0-1.707-0.303-2.289-0.907C63.912,131.132,63.621,130.26,63.621,129.122z
		 M64.795,129.122c0,0.863,0.188,1.509,0.565,1.938s0.851,0.645,1.422,0.645c0.567,0,1.039-0.216,1.416-0.647
		s0.565-1.09,0.565-1.975c0-0.833-0.189-1.465-0.568-1.895c-0.379-0.43-0.85-0.645-1.413-0.645c-0.571,0-1.045,0.214-1.422,0.642
		S64.795,128.259,64.795,129.122z"/>
	<path fill="#FFFFFF" d="M71.276,132.492v-6.741h1.028v0.959c0.495-0.741,1.21-1.111,2.146-1.111c0.406,0,0.78,0.073,1.121,0.219
		c0.34,0.146,0.595,0.338,0.765,0.574c0.169,0.237,0.288,0.519,0.355,0.845c0.042,0.212,0.063,0.582,0.063,1.11v4.146h-1.143v-4.101
		c0-0.466-0.044-0.813-0.133-1.044s-0.247-0.415-0.473-0.553c-0.226-0.138-0.492-0.206-0.796-0.206c-0.487,0-0.907,0.154-1.26,0.463
		c-0.353,0.31-0.53,0.896-0.53,1.759v3.682H71.276z"/>
	<path fill="#FFFFFF" d="M82.905,131.661c-0.423,0.359-0.831,0.613-1.222,0.762c-0.391,0.147-0.811,0.222-1.26,0.222
		c-0.741,0-1.31-0.181-1.708-0.543c-0.398-0.361-0.597-0.824-0.597-1.387c0-0.33,0.075-0.632,0.225-0.904
		c0.15-0.273,0.347-0.492,0.591-0.657c0.243-0.165,0.517-0.29,0.822-0.375c0.224-0.059,0.563-0.116,1.016-0.171
		c0.922-0.11,1.602-0.241,2.038-0.394c0.004-0.156,0.006-0.256,0.006-0.299c0-0.465-0.108-0.793-0.324-0.983
		c-0.292-0.258-0.726-0.388-1.301-0.388c-0.538,0-0.934,0.095-1.19,0.283c-0.256,0.188-0.446,0.521-0.568,1l-1.117-0.152
		c0.102-0.479,0.269-0.865,0.501-1.159s0.569-0.521,1.009-0.679c0.44-0.159,0.95-0.238,1.53-0.238c0.576,0,1.043,0.067,1.403,0.203
		s0.624,0.306,0.793,0.511s0.288,0.465,0.355,0.778c0.038,0.194,0.057,0.545,0.057,1.053v1.523c0,1.063,0.024,1.734,0.073,2.016
		c0.048,0.281,0.145,0.552,0.289,0.81h-1.193C83.015,132.255,82.938,131.978,82.905,131.661z M82.81,129.108
		c-0.415,0.17-1.037,0.313-1.866,0.432c-0.47,0.068-0.802,0.145-0.997,0.229c-0.195,0.085-0.345,0.209-0.451,0.372
		s-0.159,0.344-0.159,0.542c0,0.305,0.115,0.559,0.346,0.762c0.23,0.203,0.568,0.305,1.012,0.305c0.44,0,0.832-0.096,1.174-0.288
		s0.595-0.456,0.755-0.79c0.123-0.259,0.184-0.64,0.184-1.143V129.108z"/>
	<path fill="#FFFFFF" d="M85.71,132.492v-9.306h1.143v9.306H85.71z"/>
	<path fill="#FFFFFF" d="M96.609,132.492v-0.851c-0.427,0.669-1.056,1.003-1.885,1.003c-0.538,0-1.032-0.148-1.482-0.444
		c-0.451-0.296-0.8-0.71-1.048-1.241c-0.247-0.531-0.371-1.142-0.371-1.831c0-0.673,0.112-1.283,0.336-1.831
		s0.561-0.968,1.009-1.261c0.449-0.291,0.95-0.438,1.504-0.438c0.406,0,0.768,0.086,1.085,0.257c0.317,0.172,0.576,0.395,0.774,0.67
		v-3.339h1.136v9.306H96.609z M92.998,129.128c0,0.863,0.182,1.509,0.546,1.936c0.364,0.428,0.793,0.642,1.289,0.642
		c0.5,0,0.924-0.204,1.272-0.612c0.35-0.408,0.524-1.031,0.524-1.869c0-0.923-0.178-1.6-0.533-2.031s-0.793-0.648-1.314-0.648
		c-0.508,0-0.932,0.208-1.272,0.623C93.168,127.581,92.998,128.235,92.998,129.128z"/>
	<path fill="#FFFFFF" d="M104.081,130.321l1.181,0.146c-0.187,0.689-0.531,1.225-1.034,1.605c-0.504,0.381-1.147,0.571-1.93,0.571
		c-0.986,0-1.768-0.304-2.346-0.911s-0.867-1.459-0.867-2.555c0-1.134,0.293-2.015,0.877-2.641s1.341-0.939,2.271-0.939
		c0.902,0,1.639,0.307,2.209,0.92c0.572,0.614,0.857,1.478,0.857,2.59c0,0.068-0.002,0.17-0.006,0.305h-5.027
		c0.042,0.741,0.252,1.309,0.628,1.701c0.376,0.395,0.847,0.591,1.409,0.591c0.419,0,0.776-0.11,1.072-0.33
		C103.672,131.155,103.907,130.804,104.081,130.321z M100.329,128.474h3.765c-0.051-0.566-0.194-0.992-0.432-1.275
		c-0.364-0.44-0.836-0.66-1.415-0.66c-0.525,0-0.967,0.176-1.324,0.527C100.565,127.416,100.368,127.886,100.329,128.474z"/>
	<path fill="#FFFFFF" d="M106.67,132.492v-9.306h1.143v9.306H106.67z"/>
	<path fill="#FFFFFF" d="M117.594,131.661c-0.423,0.359-0.83,0.613-1.221,0.762c-0.393,0.147-0.813,0.222-1.261,0.222
		c-0.741,0-1.31-0.181-1.708-0.543c-0.397-0.361-0.596-0.824-0.596-1.387c0-0.33,0.074-0.632,0.225-0.904
		c0.15-0.273,0.348-0.492,0.59-0.657c0.244-0.165,0.518-0.29,0.822-0.375c0.225-0.059,0.563-0.116,1.016-0.171
		c0.923-0.11,1.602-0.241,2.038-0.394c0.005-0.156,0.007-0.256,0.007-0.299c0-0.465-0.108-0.793-0.324-0.983
		c-0.292-0.258-0.726-0.388-1.301-0.388c-0.538,0-0.935,0.095-1.191,0.283c-0.256,0.188-0.445,0.521-0.567,1l-1.117-0.152
		c0.102-0.479,0.269-0.865,0.501-1.159c0.233-0.294,0.57-0.521,1.01-0.679c0.439-0.159,0.95-0.238,1.529-0.238
		c0.576,0,1.043,0.067,1.403,0.203s0.624,0.306,0.794,0.511c0.169,0.205,0.287,0.465,0.355,0.778
		c0.037,0.194,0.057,0.545,0.057,1.053v1.523c0,1.063,0.024,1.734,0.072,2.016c0.049,0.281,0.146,0.552,0.289,0.81h-1.193
		C117.705,132.255,117.628,131.978,117.594,131.661z M117.5,129.108c-0.415,0.17-1.036,0.313-1.866,0.432
		c-0.47,0.068-0.802,0.145-0.996,0.229c-0.195,0.085-0.346,0.209-0.451,0.372s-0.158,0.344-0.158,0.542
		c0,0.305,0.115,0.559,0.346,0.762s0.568,0.305,1.012,0.305c0.44,0,0.832-0.096,1.175-0.288s0.595-0.456,0.755-0.79
		c0.123-0.259,0.185-0.64,0.185-1.143V129.108z"/>
	<path fill="#FFFFFF" d="M120.426,135.075v-9.324h1.041v0.876c0.245-0.343,0.521-0.6,0.831-0.771
		c0.31-0.171,0.684-0.257,1.124-0.257c0.575,0,1.083,0.148,1.523,0.444c0.439,0.296,0.771,0.714,0.996,1.254
		c0.225,0.539,0.336,1.131,0.336,1.774c0,0.689-0.123,1.311-0.371,1.862c-0.248,0.553-0.607,0.976-1.078,1.27
		c-0.473,0.294-0.969,0.441-1.489,0.441c-0.381,0-0.723-0.08-1.024-0.241c-0.303-0.161-0.552-0.364-0.746-0.609v3.281H120.426z
		 M121.46,129.159c0,0.868,0.176,1.509,0.526,1.924c0.352,0.415,0.777,0.622,1.276,0.622c0.508,0,0.942-0.215,1.304-0.645
		c0.363-0.43,0.543-1.095,0.543-1.996c0-0.859-0.176-1.502-0.529-1.93s-0.775-0.642-1.267-0.642c-0.487,0-0.917,0.228-1.292,0.683
		S121.46,128.292,121.46,129.159z"/>
	<path fill="#FFFFFF" d="M127.643,132.492v-6.741h1.028v1.021c0.263-0.478,0.505-0.793,0.728-0.945
		c0.221-0.152,0.466-0.229,0.732-0.229c0.385,0,0.776,0.123,1.174,0.368l-0.393,1.06c-0.279-0.164-0.559-0.247-0.838-0.247
		c-0.25,0-0.475,0.075-0.674,0.226c-0.198,0.15-0.34,0.358-0.425,0.625c-0.127,0.406-0.19,0.851-0.19,1.333v3.529H127.643z"/>
	<path fill="#FFFFFF" d="M136.6,130.321l1.18,0.146c-0.186,0.689-0.531,1.225-1.034,1.605s-1.147,0.571-1.93,0.571
		c-0.985,0-1.769-0.304-2.345-0.911c-0.578-0.607-0.867-1.459-0.867-2.555c0-1.134,0.292-2.015,0.876-2.641s1.341-0.939,2.272-0.939
		c0.901,0,1.638,0.307,2.209,0.92c0.571,0.614,0.857,1.478,0.857,2.59c0,0.068-0.002,0.17-0.007,0.305h-5.027
		c0.042,0.741,0.252,1.309,0.628,1.701c0.377,0.395,0.847,0.591,1.41,0.591c0.418,0,0.775-0.11,1.072-0.33
		S136.426,130.804,136.6,130.321z M132.848,128.474h3.764c-0.051-0.566-0.194-0.992-0.432-1.275c-0.363-0.44-0.836-0.66-1.415-0.66
		c-0.524,0-0.966,0.176-1.323,0.527C133.084,127.416,132.886,127.886,132.848,128.474z"/>
	<path fill="#FFFFFF" d="M139.215,132.492v-6.741h1.027v0.959c0.496-0.741,1.211-1.111,2.146-1.111c0.406,0,0.779,0.073,1.119,0.219
		c0.342,0.146,0.596,0.338,0.766,0.574c0.17,0.237,0.287,0.519,0.355,0.845c0.043,0.212,0.063,0.582,0.063,1.11v4.146h-1.143v-4.101
		c0-0.466-0.044-0.813-0.134-1.044c-0.088-0.23-0.246-0.415-0.473-0.553s-0.492-0.206-0.797-0.206c-0.486,0-0.906,0.154-1.26,0.463
		c-0.354,0.31-0.529,0.896-0.529,1.759v3.682H139.215z"/>
	<path fill="#FFFFFF" d="M150.819,132.492v-0.851c-0.428,0.669-1.057,1.003-1.886,1.003c-0.538,0-1.032-0.148-1.481-0.444
		c-0.451-0.296-0.801-0.71-1.049-1.241c-0.246-0.531-0.371-1.142-0.371-1.831c0-0.673,0.113-1.283,0.337-1.831
		s0.561-0.968,1.009-1.261c0.449-0.291,0.951-0.438,1.505-0.438c0.406,0,0.769,0.086,1.085,0.257
		c0.318,0.172,0.576,0.395,0.775,0.67v-3.339h1.136v9.306H150.819z M147.207,129.128c0,0.863,0.183,1.509,0.546,1.936
		c0.363,0.428,0.793,0.642,1.289,0.642c0.499,0,0.924-0.204,1.271-0.612c0.35-0.408,0.524-1.031,0.524-1.869
		c0-0.923-0.178-1.6-0.533-2.031s-0.794-0.648-1.313-0.648c-0.508,0-0.933,0.208-1.273,0.623
		C147.377,127.581,147.207,128.235,147.207,129.128z"/>
	<path fill="#FFFFFF" d="M153.681,124.501v-1.314h1.143v1.314H153.681z M153.681,132.492v-6.741h1.143v6.741H153.681z"/>
	<path fill="#FFFFFF" d="M155.959,132.492v-0.927l4.291-4.926c-0.486,0.025-0.916,0.038-1.288,0.038h-2.749v-0.927h5.51v0.756
		l-3.649,4.277l-0.704,0.781c0.512-0.038,0.992-0.057,1.44-0.057h3.116v0.983H155.959z"/>
	<path fill="#FFFFFF" d="M19.409,157.692v-9.306h6.729v1.099h-5.497v2.85h5.148v1.092h-5.148v3.168h5.713v1.098H19.409z"/>
	<path fill="#FFFFFF" d="M27.452,155.681l1.13-0.178c0.063,0.452,0.24,0.799,0.53,1.041c0.29,0.24,0.695,0.361,1.216,0.361
		c0.525,0,0.914-0.106,1.168-0.32s0.381-0.465,0.381-0.752c0-0.259-0.112-0.462-0.336-0.609c-0.157-0.102-0.546-0.231-1.168-0.388
		c-0.838-0.212-1.418-0.395-1.743-0.549c-0.323-0.154-0.569-0.368-0.736-0.642c-0.167-0.272-0.25-0.574-0.25-0.904
		c0-0.301,0.069-0.579,0.207-0.835c0.137-0.256,0.325-0.469,0.562-0.638c0.178-0.131,0.42-0.242,0.727-0.333
		c0.307-0.091,0.636-0.137,0.987-0.137c0.529,0,0.993,0.076,1.394,0.229c0.399,0.152,0.695,0.358,0.885,0.619
		c0.19,0.26,0.322,0.608,0.394,1.044l-1.117,0.152c-0.051-0.347-0.198-0.618-0.441-0.813c-0.244-0.194-0.587-0.292-1.032-0.292
		c-0.525,0-0.899,0.087-1.124,0.261c-0.224,0.173-0.336,0.376-0.336,0.609c0,0.147,0.046,0.281,0.14,0.399
		c0.093,0.123,0.239,0.225,0.438,0.305c0.114,0.042,0.451,0.14,1.009,0.292c0.808,0.216,1.372,0.393,1.692,0.53
		c0.319,0.138,0.57,0.337,0.752,0.6s0.273,0.588,0.273,0.978c0,0.381-0.111,0.739-0.333,1.076c-0.222,0.336-0.542,0.597-0.961,0.78
		c-0.419,0.185-0.893,0.276-1.422,0.276c-0.876,0-1.543-0.182-2.002-0.546C27.872,156.935,27.579,156.396,27.452,155.681z"/>
	<path fill="#FFFFFF" d="M36.903,156.671l0.165,1.009c-0.322,0.067-0.609,0.102-0.863,0.102c-0.415,0-0.736-0.065-0.965-0.196
		c-0.229-0.132-0.389-0.304-0.482-0.518s-0.14-0.664-0.14-1.35v-3.878H33.78v-0.889h0.838v-1.669l1.136-0.686v2.354h1.149v0.889
		h-1.149v3.942c0,0.325,0.02,0.535,0.06,0.628c0.041,0.093,0.106,0.167,0.197,0.222c0.091,0.056,0.221,0.083,0.39,0.083
		C36.529,156.715,36.696,156.7,36.903,156.671z"/>
	<path fill="#FFFFFF" d="M38.008,157.692v-6.741h1.028v1.022c0.262-0.479,0.505-0.794,0.727-0.946
		c0.223-0.152,0.467-0.229,0.733-0.229c0.385,0,0.776,0.123,1.174,0.368l-0.394,1.061c-0.279-0.166-0.559-0.248-0.838-0.248
		c-0.25,0-0.474,0.075-0.673,0.226s-0.341,0.358-0.425,0.625c-0.127,0.406-0.19,0.851-0.19,1.333v3.529H38.008z"/>
	<path fill="#FFFFFF" d="M46.749,156.86c-0.423,0.36-0.831,0.614-1.222,0.762c-0.391,0.148-0.811,0.223-1.26,0.223
		c-0.741,0-1.31-0.181-1.708-0.543c-0.398-0.361-0.597-0.824-0.597-1.387c0-0.33,0.075-0.632,0.225-0.904
		c0.15-0.273,0.347-0.492,0.591-0.657c0.243-0.165,0.517-0.29,0.822-0.374c0.224-0.06,0.563-0.117,1.016-0.172
		c0.922-0.11,1.602-0.241,2.038-0.394c0.004-0.156,0.006-0.256,0.006-0.298c0-0.466-0.108-0.794-0.324-0.984
		c-0.292-0.258-0.726-0.387-1.301-0.387c-0.538,0-0.934,0.094-1.19,0.282c-0.256,0.188-0.446,0.521-0.568,0.999l-1.117-0.152
		c0.102-0.478,0.269-0.864,0.501-1.158s0.569-0.521,1.009-0.679c0.44-0.159,0.95-0.238,1.53-0.238c0.576,0,1.043,0.067,1.403,0.203
		s0.624,0.306,0.793,0.511s0.288,0.465,0.355,0.777c0.038,0.195,0.057,0.547,0.057,1.055v1.523c0,1.062,0.024,1.733,0.073,2.015
		c0.048,0.281,0.145,0.552,0.289,0.81h-1.193C46.858,157.455,46.782,157.179,46.749,156.86z M46.653,154.31
		c-0.415,0.169-1.037,0.313-1.866,0.432c-0.47,0.067-0.802,0.144-0.997,0.229c-0.195,0.084-0.345,0.208-0.451,0.371
		s-0.159,0.344-0.159,0.543c0,0.305,0.115,0.559,0.346,0.762c0.23,0.203,0.568,0.305,1.012,0.305c0.44,0,0.832-0.097,1.174-0.289
		s0.595-0.456,0.755-0.791c0.123-0.258,0.184-0.639,0.184-1.143V154.31z"/>
	<path fill="#FFFFFF" d="M52.074,156.671l0.165,1.009c-0.322,0.067-0.609,0.102-0.863,0.102c-0.415,0-0.736-0.065-0.965-0.196
		c-0.229-0.132-0.389-0.304-0.482-0.518s-0.14-0.664-0.14-1.35v-3.878h-0.838v-0.889h0.838v-1.669l1.136-0.686v2.354h1.149v0.889
		h-1.149v3.942c0,0.325,0.02,0.535,0.06,0.628c0.041,0.093,0.106,0.167,0.197,0.222c0.091,0.056,0.221,0.083,0.39,0.083
		C51.7,156.715,51.867,156.7,52.074,156.671z"/>
	<path fill="#FFFFFF" d="M57.806,155.521l1.181,0.146c-0.186,0.69-0.531,1.226-1.035,1.606s-1.147,0.571-1.93,0.571
		c-0.986,0-1.768-0.304-2.346-0.911c-0.577-0.607-0.866-1.459-0.866-2.555c0-1.134,0.292-2.015,0.876-2.641s1.341-0.939,2.272-0.939
		c0.901,0,1.638,0.307,2.209,0.921c0.571,0.613,0.857,1.477,0.857,2.59c0,0.067-0.002,0.169-0.006,0.305h-5.027
		c0.042,0.74,0.252,1.307,0.628,1.701c0.376,0.393,0.846,0.59,1.409,0.59c0.419,0,0.776-0.11,1.073-0.33
		S57.633,156.004,57.806,155.521z M54.055,153.675h3.764c-0.051-0.567-0.195-0.993-0.432-1.276c-0.364-0.44-0.836-0.66-1.416-0.66
		c-0.525,0-0.966,0.176-1.323,0.526C54.291,152.616,54.093,153.086,54.055,153.675z"/>
	<path fill="#FFFFFF" d="M60.212,158.251l1.111,0.165c0.046,0.343,0.176,0.593,0.387,0.749c0.284,0.212,0.671,0.317,1.162,0.317
		c0.529,0,0.938-0.105,1.225-0.317s0.482-0.508,0.584-0.889c0.059-0.232,0.087-0.722,0.083-1.467
		c-0.5,0.589-1.122,0.883-1.866,0.883c-0.927,0-1.644-0.334-2.152-1.003s-0.762-1.471-0.762-2.405c0-0.644,0.116-1.237,0.349-1.781
		s0.57-0.964,1.012-1.26c0.442-0.296,0.962-0.444,1.559-0.444c0.795,0,1.452,0.321,1.968,0.965v-0.813h1.054v5.827
		c0,1.05-0.107,1.793-0.32,2.231c-0.214,0.438-0.553,0.784-1.016,1.038c-0.464,0.254-1.034,0.381-1.711,0.381
		c-0.804,0-1.454-0.182-1.949-0.543C60.434,159.523,60.195,158.979,60.212,158.251z M61.158,154.201c0,0.885,0.176,1.53,0.527,1.937
		s0.792,0.609,1.32,0.609c0.525,0,0.965-0.202,1.32-0.606s0.533-1.038,0.533-1.901c0-0.825-0.183-1.447-0.549-1.866
		c-0.366-0.419-0.808-0.628-1.324-0.628c-0.508,0-0.939,0.206-1.295,0.618C61.335,152.776,61.158,153.389,61.158,154.201z"/>
	<path fill="#FFFFFF" d="M67.658,149.7v-1.313H68.8v1.313H67.658z M67.658,157.692v-6.741H68.8v6.741H67.658z"/>
	<path fill="#FFFFFF" d="M74.938,156.86c-0.423,0.36-0.831,0.614-1.222,0.762c-0.392,0.148-0.812,0.223-1.26,0.223
		c-0.741,0-1.31-0.181-1.708-0.543c-0.398-0.361-0.597-0.824-0.597-1.387c0-0.33,0.075-0.632,0.226-0.904
		c0.15-0.273,0.347-0.492,0.59-0.657c0.244-0.165,0.518-0.29,0.822-0.374c0.224-0.06,0.563-0.117,1.016-0.172
		c0.922-0.11,1.602-0.241,2.038-0.394c0.004-0.156,0.006-0.256,0.006-0.298c0-0.466-0.108-0.794-0.324-0.984
		c-0.292-0.258-0.726-0.387-1.301-0.387c-0.538,0-0.934,0.094-1.19,0.282c-0.256,0.188-0.445,0.521-0.568,0.999l-1.117-0.152
		c0.102-0.478,0.269-0.864,0.501-1.158s0.569-0.521,1.009-0.679c0.44-0.159,0.95-0.238,1.53-0.238c0.576,0,1.043,0.067,1.403,0.203
		s0.624,0.306,0.793,0.511s0.288,0.465,0.355,0.777c0.038,0.195,0.057,0.547,0.057,1.055v1.523c0,1.062,0.024,1.733,0.073,2.015
		c0.049,0.281,0.145,0.552,0.289,0.81h-1.193C75.048,157.455,74.972,157.179,74.938,156.86z M74.843,154.31
		c-0.415,0.169-1.037,0.313-1.866,0.432c-0.47,0.067-0.802,0.144-0.997,0.229c-0.195,0.084-0.345,0.208-0.451,0.371
		s-0.159,0.344-0.159,0.543c0,0.305,0.115,0.559,0.346,0.762c0.231,0.203,0.568,0.305,1.013,0.305c0.44,0,0.832-0.097,1.174-0.289
		s0.595-0.456,0.755-0.791c0.123-0.258,0.184-0.639,0.184-1.143V154.31z"/>
	<path fill="#FFFFFF" d="M81.381,157.692v-6.741h1.022v0.946c0.211-0.33,0.493-0.596,0.844-0.797s0.751-0.302,1.2-0.302
		c0.5,0,0.909,0.104,1.229,0.312c0.319,0.207,0.544,0.497,0.676,0.869c0.533-0.787,1.227-1.181,2.082-1.181
		c0.668,0,1.183,0.186,1.542,0.556s0.54,0.94,0.54,1.711v4.627h-1.136v-4.246c0-0.457-0.037-0.786-0.111-0.987
		c-0.074-0.201-0.208-0.363-0.403-0.485c-0.195-0.123-0.423-0.185-0.686-0.185c-0.474,0-0.868,0.157-1.181,0.473
		s-0.47,0.82-0.47,1.515v3.916h-1.143v-4.38c0-0.508-0.093-0.889-0.279-1.143s-0.491-0.381-0.914-0.381
		c-0.322,0-0.619,0.085-0.892,0.254c-0.273,0.169-0.471,0.417-0.594,0.743c-0.123,0.325-0.184,0.795-0.184,1.408v3.498H81.381z"/>
	<path fill="#FFFFFF" d="M96.825,155.521l1.181,0.146c-0.186,0.69-0.531,1.226-1.035,1.606s-1.147,0.571-1.93,0.571
		c-0.986,0-1.768-0.304-2.345-0.911c-0.578-0.607-0.867-1.459-0.867-2.555c0-1.134,0.292-2.015,0.876-2.641s1.341-0.939,2.272-0.939
		c0.901,0,1.638,0.307,2.209,0.921c0.571,0.613,0.857,1.477,0.857,2.59c0,0.067-0.002,0.169-0.006,0.305H93.01
		c0.042,0.74,0.252,1.307,0.628,1.701c0.376,0.393,0.846,0.59,1.409,0.59c0.419,0,0.776-0.11,1.073-0.33
		S96.652,156.004,96.825,155.521z M93.074,153.675h3.764c-0.051-0.567-0.195-0.993-0.432-1.276c-0.364-0.44-0.836-0.66-1.416-0.66
		c-0.525,0-0.966,0.176-1.324,0.526C93.31,152.616,93.112,153.086,93.074,153.675z"/>
	<path fill="#FFFFFF" d="M101.935,156.671l0.165,1.009c-0.322,0.067-0.609,0.102-0.863,0.102c-0.414,0-0.736-0.065-0.965-0.196
		c-0.229-0.132-0.389-0.304-0.482-0.518s-0.14-0.664-0.14-1.35v-3.878h-0.838v-0.889h0.838v-1.669l1.136-0.686v2.354h1.149v0.889
		h-1.149v3.942c0,0.325,0.021,0.535,0.061,0.628c0.041,0.093,0.105,0.167,0.197,0.222c0.091,0.056,0.221,0.083,0.391,0.083
		C101.561,156.715,101.727,156.7,101.935,156.671z"/>
	<path fill="#FFFFFF" d="M102.627,154.321c0-1.248,0.347-2.173,1.041-2.773c0.579-0.499,1.286-0.749,2.119-0.749
		c0.928,0,1.685,0.304,2.273,0.911c0.588,0.607,0.882,1.446,0.882,2.517c0,0.867-0.13,1.55-0.39,2.047
		c-0.262,0.497-0.64,0.884-1.137,1.159c-0.498,0.274-1.04,0.412-1.629,0.412c-0.943,0-1.706-0.303-2.287-0.908
		C102.918,156.332,102.627,155.46,102.627,154.321z M103.801,154.321c0,0.863,0.188,1.51,0.564,1.939
		c0.377,0.43,0.852,0.645,1.422,0.645c0.567,0,1.039-0.216,1.416-0.647s0.564-1.09,0.564-1.974c0-0.834-0.189-1.466-0.568-1.896
		c-0.378-0.43-0.849-0.644-1.412-0.644c-0.57,0-1.045,0.213-1.422,0.641C103.99,152.813,103.801,153.458,103.801,154.321z"/>
	<path fill="#FFFFFF" d="M114.656,157.692v-0.851c-0.427,0.669-1.056,1.003-1.886,1.003c-0.537,0-1.031-0.148-1.482-0.444
		c-0.449-0.296-0.799-0.71-1.047-1.241s-0.371-1.142-0.371-1.831c0-0.673,0.112-1.283,0.336-1.831
		c0.225-0.548,0.561-0.969,1.01-1.26c0.449-0.293,0.95-0.438,1.504-0.438c0.406,0,0.769,0.086,1.086,0.257
		c0.317,0.172,0.576,0.395,0.774,0.67v-3.339h1.136v9.306H114.656z M111.043,154.328c0,0.863,0.183,1.509,0.547,1.937
		c0.363,0.427,0.793,0.641,1.288,0.641c0.499,0,0.923-0.204,1.272-0.612s0.523-1.032,0.523-1.87c0-0.922-0.178-1.6-0.533-2.031
		s-0.793-0.646-1.313-0.646c-0.508,0-0.933,0.207-1.272,0.621C111.214,152.781,111.043,153.436,111.043,154.328z"/>
	<path fill="#FFFFFF" d="M117.086,154.321c0-1.248,0.348-2.173,1.041-2.773c0.58-0.499,1.287-0.749,2.121-0.749
		c0.926,0,1.684,0.304,2.271,0.911c0.589,0.607,0.883,1.446,0.883,2.517c0,0.867-0.131,1.55-0.391,2.047s-0.639,0.884-1.137,1.159
		c-0.496,0.274-1.039,0.412-1.627,0.412c-0.944,0-1.707-0.303-2.289-0.908C117.377,156.332,117.086,155.46,117.086,154.321z
		 M118.261,154.321c0,0.863,0.188,1.51,0.565,1.939c0.376,0.43,0.85,0.645,1.422,0.645c0.566,0,1.039-0.216,1.415-0.647
		s0.565-1.09,0.565-1.974c0-0.834-0.189-1.466-0.568-1.896s-0.85-0.644-1.412-0.644c-0.572,0-1.046,0.213-1.422,0.641
		C118.45,152.813,118.261,153.458,118.261,154.321z"/>
	<path fill="#FFFFFF" d="M124.717,157.692v-9.306h1.143v9.306H124.717z"/>
	<path fill="#FFFFFF" d="M127.206,154.321c0-1.248,0.347-2.173,1.041-2.773c0.579-0.499,1.286-0.749,2.119-0.749
		c0.928,0,1.685,0.304,2.273,0.911c0.588,0.607,0.882,1.446,0.882,2.517c0,0.867-0.13,1.55-0.39,2.047
		c-0.262,0.497-0.64,0.884-1.137,1.159c-0.498,0.274-1.04,0.412-1.629,0.412c-0.943,0-1.706-0.303-2.287-0.908
		C127.497,156.332,127.206,155.46,127.206,154.321z M128.379,154.321c0,0.863,0.188,1.51,0.564,1.939
		c0.377,0.43,0.852,0.645,1.422,0.645c0.567,0,1.039-0.216,1.416-0.647s0.564-1.09,0.564-1.974c0-0.834-0.189-1.466-0.568-1.896
		c-0.378-0.43-0.849-0.644-1.412-0.644c-0.57,0-1.045,0.213-1.422,0.641C128.568,152.813,128.379,153.458,128.379,154.321z
		 M129.731,150.113l0.845-1.777h1.498l-1.396,1.777H129.731z"/>
	<path fill="#FFFFFF" d="M134.651,158.251l1.111,0.165c0.046,0.343,0.176,0.593,0.387,0.749c0.283,0.212,0.671,0.317,1.162,0.317
		c0.528,0,0.938-0.105,1.225-0.317s0.482-0.508,0.584-0.889c0.059-0.232,0.087-0.722,0.082-1.467
		c-0.499,0.589-1.121,0.883-1.865,0.883c-0.928,0-1.645-0.334-2.152-1.003s-0.762-1.471-0.762-2.405c0-0.644,0.116-1.237,0.35-1.781
		c0.232-0.544,0.57-0.964,1.012-1.26c0.442-0.296,0.962-0.444,1.559-0.444c0.795,0,1.451,0.321,1.968,0.965v-0.813h1.054v5.827
		c0,1.05-0.107,1.793-0.32,2.231c-0.214,0.438-0.553,0.784-1.016,1.038s-1.033,0.381-1.711,0.381c-0.805,0-1.453-0.182-1.949-0.543
		C134.874,159.523,134.633,158.979,134.651,158.251z M135.596,154.201c0,0.885,0.176,1.53,0.527,1.937s0.791,0.609,1.32,0.609
		c0.525,0,0.965-0.202,1.32-0.606s0.533-1.038,0.533-1.901c0-0.825-0.184-1.447-0.549-1.866c-0.366-0.419-0.808-0.628-1.324-0.628
		c-0.508,0-0.939,0.206-1.295,0.618C135.774,152.776,135.596,153.389,135.596,154.201z"/>
	<path fill="#FFFFFF" d="M142.096,149.7v-1.313h1.143v1.313H142.096z M142.096,157.692v-6.741h1.143v6.741H142.096z"/>
	<path fill="#FFFFFF" d="M149.377,155.224l1.123,0.146c-0.122,0.774-0.437,1.381-0.941,1.818c-0.506,0.438-1.127,0.657-1.863,0.657
		c-0.923,0-1.664-0.302-2.225-0.904c-0.562-0.604-0.842-1.468-0.842-2.594c0-0.728,0.121-1.364,0.361-1.91
		c0.242-0.546,0.609-0.955,1.102-1.229c0.493-0.272,1.029-0.409,1.609-0.409c0.732,0,1.331,0.186,1.797,0.556
		c0.465,0.37,0.764,0.896,0.895,1.577l-1.111,0.171c-0.105-0.452-0.293-0.793-0.561-1.021c-0.27-0.229-0.594-0.343-0.975-0.343
		c-0.576,0-1.043,0.206-1.403,0.619c-0.36,0.412-0.54,1.065-0.54,1.958c0,0.905,0.174,1.563,0.521,1.975
		c0.347,0.41,0.799,0.615,1.357,0.615c0.449,0,0.824-0.138,1.124-0.412C149.106,156.218,149.297,155.794,149.377,155.224z"/>
	<path fill="#FFFFFF" d="M155.877,156.86c-0.424,0.36-0.83,0.614-1.223,0.762c-0.391,0.148-0.811,0.223-1.26,0.223
		c-0.74,0-1.309-0.181-1.707-0.543c-0.398-0.361-0.597-0.824-0.597-1.387c0-0.33,0.075-0.632,0.226-0.904
		c0.15-0.273,0.347-0.492,0.59-0.657c0.244-0.165,0.518-0.29,0.822-0.374c0.225-0.06,0.563-0.117,1.016-0.172
		c0.922-0.11,1.602-0.241,2.037-0.394c0.005-0.156,0.007-0.256,0.007-0.298c0-0.466-0.108-0.794-0.323-0.984
		c-0.293-0.258-0.727-0.387-1.302-0.387c-0.538,0-0.935,0.094-1.19,0.282s-0.445,0.521-0.568,0.999l-1.117-0.152
		c0.102-0.478,0.27-0.864,0.502-1.158s0.569-0.521,1.01-0.679c0.439-0.159,0.949-0.238,1.529-0.238c0.576,0,1.043,0.067,1.402,0.203
		c0.36,0.136,0.625,0.306,0.794,0.511s0.288,0.465,0.355,0.777c0.038,0.195,0.058,0.547,0.058,1.055v1.523
		c0,1.062,0.023,1.733,0.072,2.015s0.145,0.552,0.289,0.81h-1.193C155.987,157.455,155.911,157.179,155.877,156.86z M155.782,154.31
		c-0.414,0.169-1.036,0.313-1.865,0.432c-0.471,0.067-0.803,0.144-0.997,0.229c-0.194,0.084-0.345,0.208-0.45,0.371
		c-0.106,0.163-0.159,0.344-0.159,0.543c0,0.305,0.115,0.559,0.347,0.762c0.23,0.203,0.567,0.305,1.012,0.305
		c0.439,0,0.832-0.097,1.174-0.289c0.344-0.192,0.596-0.456,0.756-0.791c0.123-0.258,0.184-0.639,0.184-1.143V154.31z"/>
</g>
<g>
	<path fill="#FFFFFF" d="M4.918,9.836C2.207,9.836,0,7.63,0,4.918S2.207,0,4.918,0s4.918,2.206,4.918,4.918S7.63,9.836,4.918,9.836z
		 M4.918,1C2.758,1,1,2.758,1,4.918c0,2.161,1.758,3.918,3.918,3.918c2.16,0,3.918-1.758,3.918-3.918C8.836,2.758,7.079,1,4.918,1z"
		/>
</g>
<g>
	<path fill="#FFFFFF" d="M4.918,40.179C2.207,40.179,0,37.973,0,35.261s2.207-4.918,4.918-4.918s4.918,2.206,4.918,4.918
		S7.63,40.179,4.918,40.179z M4.918,31.343C2.758,31.343,1,33.101,1,35.261c0,2.161,1.758,3.918,3.918,3.918
		c2.16,0,3.918-1.758,3.918-3.918C8.836,33.101,7.079,31.343,4.918,31.343z"/>
</g>
<g>
	<path fill="#FFFFFF" d="M4.918,84.525C2.207,84.525,0,82.318,0,79.606s2.207-4.918,4.918-4.918s4.918,2.206,4.918,4.918
		S7.63,84.525,4.918,84.525z M4.918,75.688C2.758,75.688,1,77.446,1,79.606c0,2.161,1.758,3.918,3.918,3.918
		c2.16,0,3.918-1.758,3.918-3.918C8.836,77.446,7.079,75.688,4.918,75.688z"/>
</g>
<g>
	<path fill="#FFFFFF" d="M4.918,123.2C2.207,123.2,0,120.994,0,118.282s2.207-4.918,4.918-4.918s4.918,2.206,4.918,4.918
		S7.63,123.2,4.918,123.2z M4.918,114.364c-2.161,0-3.918,1.758-3.918,3.918s1.758,3.918,3.918,3.918
		c2.16,0,3.918-1.758,3.918-3.918S7.079,114.364,4.918,114.364z"/>
</g>
<g>
	<path fill="#FFFFFF" d="M4.918,158.078c-2.712,0-4.918-2.207-4.918-4.919s2.207-4.918,4.918-4.918s4.918,2.206,4.918,4.918
		S7.63,158.078,4.918,158.078z M4.918,149.241c-2.161,0-3.918,1.758-3.918,3.918c0,2.161,1.758,3.919,3.918,3.919
		c2.16,0,3.918-1.758,3.918-3.919C8.836,150.999,7.079,149.241,4.918,149.241z"/>
</g>
</svg>
