<?xml version="1.0" encoding="utf-8"?>
<!-- Generator: Adobe Illustrator 16.0.0, SVG Export Plug-In . SVG Version: 6.00 Build 0)  -->
<!DOCTYPE svg PUBLIC "-//W3C//DTD SVG 1.1//EN" "http://www.w3.org/Graphics/SVG/1.1/DTD/svg11.dtd">
<svg version="1.1" id="Capa_1" xmlns="http://www.w3.org/2000/svg" xmlns:xlink="http://www.w3.org/1999/xlink" x="0px" y="0px"
	 width="196.806px" height="159.801px" viewBox="0 0 196.806 159.801" enable-background="new 0 0 196.806 159.801"
	 xml:space="preserve">
<g opacity="0.5">
	<rect x="13.188" y="17.651" fill="#FFFFFF" width="181.751" height="1"/>
</g>
<g opacity="0.5">
	<rect x="13.188" y="56.556" fill="#FFFFFF" width="181.751" height="1"/>
</g>
<g opacity="0.5">
	<rect x="13.188" y="96.726" fill="#FFFFFF" width="181.751" height="1"/>
</g>
<g opacity="0.5">
	<rect x="13.188" y="126.223" fill="#FFFFFF" width="181.751" height="1"/>
</g>
<g opacity="0.8">
	<path fill="#FFFFFF" d="M21.959,9.464V0.159h3.51c0.618,0,1.09,0.03,1.416,0.089c0.457,0.076,0.84,0.221,1.149,0.435
		c0.309,0.214,0.558,0.513,0.746,0.898c0.188,0.385,0.283,0.808,0.283,1.27c0,0.792-0.252,1.461-0.755,2.009
		c-0.503,0.548-1.414,0.822-2.729,0.822h-2.387v3.783H21.959z M23.191,4.583h2.406c0.795,0,1.36-0.148,1.695-0.444
		s0.501-0.713,0.501-1.25c0-0.389-0.098-0.723-0.295-1c-0.196-0.277-0.456-0.46-0.777-0.549c-0.208-0.055-0.59-0.083-1.149-0.083
		h-2.38V4.583z"/>
	<path fill="#FFFFFF" d="M30.472,9.464V2.723H31.5v1.022c0.262-0.478,0.504-0.793,0.727-0.946c0.222-0.152,0.466-0.229,0.733-0.229
		c0.385,0,0.776,0.123,1.174,0.368l-0.394,1.06c-0.279-0.165-0.559-0.248-0.838-0.248c-0.25,0-0.474,0.075-0.673,0.226
		c-0.199,0.15-0.341,0.358-0.425,0.625c-0.127,0.406-0.19,0.851-0.19,1.333v3.529H30.472z"/>
	<path fill="#FFFFFF" d="M34.388,6.094c0-1.249,0.347-2.173,1.041-2.774c0.58-0.5,1.287-0.749,2.12-0.749
		c0.927,0,1.684,0.304,2.272,0.911c0.588,0.607,0.882,1.446,0.882,2.517c0,0.868-0.13,1.55-0.39,2.047
		c-0.261,0.498-0.639,0.884-1.137,1.159c-0.497,0.275-1.04,0.413-1.628,0.413c-0.944,0-1.707-0.303-2.288-0.908
		C34.679,8.104,34.388,7.232,34.388,6.094z M35.563,6.094c0,0.863,0.188,1.51,0.565,1.939c0.376,0.43,0.851,0.645,1.422,0.645
		c0.567,0,1.039-0.216,1.416-0.647s0.565-1.09,0.565-1.974c0-0.833-0.189-1.465-0.568-1.895c-0.378-0.429-0.849-0.644-1.412-0.644
		c-0.571,0-1.045,0.214-1.422,0.641S35.563,5.23,35.563,6.094z"/>
	<path fill="#FFFFFF" d="M41.993,12.061l-0.127-1.073c0.25,0.068,0.468,0.102,0.654,0.102c0.254,0,0.457-0.042,0.609-0.127
		s0.277-0.203,0.375-0.355c0.072-0.114,0.188-0.398,0.349-0.851c0.021-0.063,0.055-0.157,0.102-0.279l-2.558-6.754h1.231
		l1.403,3.904c0.182,0.495,0.345,1.016,0.489,1.562c0.131-0.525,0.288-1.037,0.47-1.536l1.441-3.929h1.143l-2.564,6.855
		c-0.275,0.741-0.489,1.25-0.641,1.53c-0.203,0.376-0.436,0.653-0.698,0.829c-0.262,0.175-0.576,0.263-0.939,0.263
		C42.509,12.2,42.264,12.154,41.993,12.061z"/>
	<path fill="#FFFFFF" d="M53.158,7.293l1.181,0.146c-0.186,0.69-0.531,1.225-1.035,1.606s-1.147,0.571-1.93,0.571
		c-0.986,0-1.768-0.304-2.346-0.911c-0.577-0.607-0.866-1.458-0.866-2.555c0-1.134,0.292-2.014,0.876-2.641s1.341-0.939,2.272-0.939
		c0.901,0,1.638,0.307,2.209,0.92s0.857,1.477,0.857,2.59c0,0.068-0.002,0.169-0.006,0.305h-5.027
		c0.042,0.741,0.252,1.308,0.628,1.701s0.846,0.59,1.409,0.59c0.419,0,0.776-0.11,1.073-0.33S52.985,7.776,53.158,7.293z
		 M49.407,5.446h3.764c-0.051-0.567-0.195-0.992-0.432-1.276c-0.364-0.44-0.836-0.66-1.416-0.66c-0.525,0-0.966,0.176-1.323,0.527
		C49.643,4.388,49.445,4.858,49.407,5.446z"/>
	<path fill="#FFFFFF" d="M60.172,6.995l1.124,0.146c-0.123,0.774-0.437,1.381-0.943,1.818c-0.505,0.438-1.126,0.657-1.863,0.657
		c-0.922,0-1.664-0.302-2.225-0.904c-0.561-0.604-0.841-1.468-0.841-2.593c0-0.728,0.121-1.365,0.362-1.911s0.608-0.955,1.101-1.229
		c0.493-0.272,1.03-0.409,1.609-0.409c0.732,0,1.331,0.185,1.796,0.556c0.465,0.37,0.764,0.896,0.895,1.577l-1.111,0.171
		c-0.106-0.453-0.293-0.793-0.562-1.022c-0.269-0.229-0.593-0.343-0.974-0.343c-0.576,0-1.043,0.206-1.403,0.619
		c-0.36,0.412-0.54,1.065-0.54,1.958c0,0.906,0.173,1.563,0.521,1.974s0.8,0.616,1.358,0.616c0.449,0,0.823-0.138,1.124-0.413
		S60.092,7.566,60.172,6.995z"/>
	<path fill="#FFFFFF" d="M64.768,8.442l0.165,1.009c-0.322,0.068-0.609,0.102-0.863,0.102c-0.415,0-0.736-0.065-0.965-0.197
		s-0.389-0.304-0.482-0.517c-0.093-0.214-0.14-0.664-0.14-1.349V3.612h-0.838V2.723h0.838V1.054l1.136-0.686v2.355h1.149v0.889
		h-1.149v3.942c0,0.326,0.02,0.535,0.06,0.628c0.041,0.093,0.106,0.167,0.197,0.222c0.091,0.055,0.221,0.083,0.39,0.083
		C64.394,8.487,64.561,8.472,64.768,8.442z"/>
	<path fill="#FFFFFF" d="M65.46,6.094c0-1.249,0.347-2.173,1.041-2.774c0.58-0.5,1.287-0.749,2.12-0.749
		c0.927,0,1.684,0.304,2.272,0.911c0.588,0.607,0.882,1.446,0.882,2.517c0,0.868-0.13,1.55-0.391,2.047
		c-0.26,0.498-0.639,0.884-1.136,1.159c-0.498,0.275-1.04,0.413-1.628,0.413c-0.944,0-1.707-0.303-2.289-0.908
		C65.751,8.104,65.46,7.232,65.46,6.094z M66.634,6.094c0,0.863,0.188,1.51,0.565,1.939c0.376,0.43,0.851,0.645,1.422,0.645
		c0.567,0,1.039-0.216,1.416-0.647s0.565-1.09,0.565-1.974c0-0.833-0.189-1.465-0.568-1.895c-0.379-0.429-0.85-0.644-1.413-0.644
		c-0.571,0-1.045,0.214-1.422,0.641S66.634,5.23,66.634,6.094z"/>
	<path fill="#FFFFFF" d="M77,9.464V3.612h-1.009V2.723H77V2.006c0-0.453,0.04-0.789,0.121-1.009c0.11-0.296,0.304-0.536,0.581-0.721
		C77.979,0.092,78.367,0,78.866,0c0.322,0,0.677,0.038,1.066,0.114l-0.171,0.997c-0.237-0.042-0.461-0.063-0.673-0.063
		c-0.347,0-0.592,0.074-0.736,0.222s-0.216,0.425-0.216,0.832v0.622h1.314v0.889h-1.314v5.853H77z"/>
	<path fill="#FFFFFF" d="M79.914,6.094c0-1.249,0.347-2.173,1.041-2.774c0.58-0.5,1.287-0.749,2.12-0.749
		c0.927,0,1.684,0.304,2.272,0.911c0.588,0.607,0.882,1.446,0.882,2.517c0,0.868-0.13,1.55-0.39,2.047
		c-0.261,0.498-0.639,0.884-1.137,1.159c-0.497,0.275-1.04,0.413-1.628,0.413c-0.944,0-1.707-0.303-2.288-0.908
		C80.205,8.104,79.914,7.232,79.914,6.094z M81.088,6.094c0,0.863,0.188,1.51,0.565,1.939c0.376,0.43,0.851,0.645,1.422,0.645
		c0.567,0,1.039-0.216,1.416-0.647s0.565-1.09,0.565-1.974c0-0.833-0.189-1.465-0.568-1.895c-0.378-0.429-0.849-0.644-1.412-0.644
		c-0.571,0-1.045,0.214-1.422,0.641S81.088,5.23,81.088,6.094z"/>
	<path fill="#FFFFFF" d="M87.556,9.464V2.723h1.028v1.022c0.262-0.478,0.505-0.793,0.727-0.946c0.223-0.152,0.467-0.229,0.733-0.229
		c0.385,0,0.776,0.123,1.174,0.368l-0.394,1.06c-0.279-0.165-0.559-0.248-0.838-0.248c-0.25,0-0.474,0.075-0.673,0.226
		c-0.199,0.15-0.341,0.358-0.425,0.625c-0.127,0.406-0.19,0.851-0.19,1.333v3.529H87.556z"/>
	<path fill="#FFFFFF" d="M91.898,9.464V2.723h1.022v0.946c0.211-0.33,0.493-0.596,0.844-0.796c0.351-0.201,0.751-0.302,1.2-0.302
		c0.5,0,0.909,0.104,1.228,0.311c0.32,0.208,0.545,0.497,0.676,0.87c0.533-0.787,1.227-1.181,2.082-1.181
		c0.668,0,1.183,0.185,1.542,0.556c0.36,0.37,0.54,0.94,0.54,1.71v4.627h-1.136V5.218c0-0.457-0.037-0.786-0.111-0.987
		c-0.074-0.201-0.208-0.363-0.403-0.486s-0.423-0.184-0.686-0.184c-0.474,0-0.868,0.158-1.181,0.473
		c-0.313,0.315-0.47,0.82-0.47,1.514v3.917h-1.143v-4.38c0-0.508-0.093-0.889-0.279-1.143s-0.491-0.381-0.914-0.381
		c-0.322,0-0.619,0.084-0.892,0.254c-0.272,0.169-0.471,0.417-0.593,0.743s-0.184,0.795-0.184,1.409v3.498H91.898z"/>
	<path fill="#FFFFFF" d="M107.126,8.633c-0.424,0.36-0.83,0.614-1.223,0.762c-0.391,0.148-0.811,0.222-1.259,0.222
		c-0.741,0-1.31-0.181-1.708-0.543c-0.398-0.361-0.597-0.824-0.597-1.387c0-0.33,0.075-0.632,0.225-0.904
		c0.15-0.273,0.347-0.492,0.591-0.657c0.243-0.165,0.517-0.29,0.822-0.375c0.224-0.059,0.563-0.116,1.016-0.171
		c0.922-0.11,1.602-0.241,2.037-0.394c0.005-0.157,0.007-0.256,0.007-0.298c0-0.465-0.108-0.793-0.323-0.984
		c-0.293-0.258-0.727-0.387-1.302-0.387c-0.538,0-0.934,0.094-1.19,0.283c-0.256,0.188-0.446,0.521-0.568,1l-1.117-0.152
		c0.102-0.478,0.269-0.864,0.501-1.159c0.233-0.294,0.569-0.521,1.009-0.679c0.44-0.159,0.95-0.238,1.53-0.238
		c0.576,0,1.043,0.068,1.402,0.203c0.36,0.135,0.625,0.306,0.794,0.511c0.169,0.206,0.288,0.465,0.355,0.778
		c0.038,0.195,0.058,0.546,0.058,1.054V6.64c0,1.062,0.023,1.734,0.072,2.015c0.049,0.282,0.145,0.551,0.289,0.81h-1.193
		C107.235,9.228,107.159,8.95,107.126,8.633z M107.03,6.081c-0.414,0.169-1.036,0.313-1.865,0.432
		c-0.47,0.068-0.802,0.144-0.997,0.229s-0.345,0.208-0.451,0.372c-0.106,0.163-0.159,0.344-0.159,0.542
		c0,0.305,0.115,0.559,0.346,0.762c0.23,0.203,0.568,0.305,1.012,0.305c0.439,0,0.832-0.096,1.174-0.289
		c0.344-0.193,0.596-0.456,0.756-0.791c0.123-0.258,0.184-0.639,0.184-1.143V6.081z"/>
	<path fill="#FFFFFF" d="M112.452,8.442l0.164,1.009c-0.321,0.068-0.609,0.102-0.863,0.102c-0.414,0-0.736-0.065-0.965-0.197
		s-0.389-0.304-0.482-0.517c-0.093-0.214-0.139-0.664-0.139-1.349V3.612h-0.838V2.723h0.838V1.054l1.136-0.686v2.355h1.149v0.889
		h-1.149v3.942c0,0.326,0.021,0.535,0.06,0.628c0.041,0.093,0.106,0.167,0.197,0.222c0.092,0.055,0.221,0.083,0.391,0.083
		C112.077,8.487,112.244,8.472,112.452,8.442z"/>
	<path fill="#FFFFFF" d="M113.575,1.473V0.159h1.143v1.314H113.575z M113.575,9.464V2.723h1.143v6.741H113.575z"/>
	<path fill="#FFFFFF" d="M118.329,9.464l-2.564-6.741h1.207l1.447,4.037c0.156,0.436,0.3,0.889,0.432,1.358
		c0.102-0.355,0.242-0.783,0.425-1.282l1.498-4.113h1.175l-2.553,6.741H118.329z"/>
	<path fill="#FFFFFF" d="M122.532,6.094c0-1.249,0.347-2.173,1.041-2.774c0.579-0.5,1.286-0.749,2.119-0.749
		c0.928,0,1.685,0.304,2.273,0.911c0.588,0.607,0.882,1.446,0.882,2.517c0,0.868-0.13,1.55-0.39,2.047
		c-0.262,0.498-0.64,0.884-1.137,1.159c-0.498,0.275-1.04,0.413-1.629,0.413c-0.943,0-1.706-0.303-2.287-0.908
		C122.823,8.104,122.532,7.232,122.532,6.094z M123.706,6.094c0,0.863,0.188,1.51,0.564,1.939c0.377,0.43,0.852,0.645,1.422,0.645
		c0.567,0,1.039-0.216,1.416-0.647s0.564-1.09,0.564-1.974c0-0.833-0.189-1.465-0.568-1.895c-0.378-0.429-0.849-0.644-1.412-0.644
		c-0.57,0-1.045,0.214-1.422,0.641C123.895,4.585,123.706,5.23,123.706,6.094z"/>
	<path fill="#FFFFFF" d="M28.599,31.402l1.231,0.311c-0.258,1.011-0.723,1.783-1.394,2.314c-0.67,0.531-1.49,0.796-2.459,0.796
		c-1.003,0-1.819-0.204-2.447-0.613c-0.629-0.408-1.107-1-1.435-1.774c-0.328-0.774-0.492-1.606-0.492-2.495
		c0-0.969,0.185-1.814,0.556-2.536c0.37-0.721,0.897-1.27,1.58-1.644c0.684-0.375,1.436-0.562,2.257-0.562
		c0.931,0,1.714,0.237,2.349,0.711s1.077,1.141,1.327,2l-1.212,0.286c-0.216-0.677-0.529-1.17-0.939-1.479s-0.927-0.463-1.549-0.463
		c-0.715,0-1.313,0.171-1.793,0.514c-0.48,0.343-0.818,0.803-1.013,1.381c-0.195,0.577-0.292,1.173-0.292,1.787
		c0,0.792,0.115,1.482,0.346,2.073c0.231,0.59,0.589,1.031,1.076,1.323s1.014,0.438,1.581,0.438c0.69,0,1.274-0.199,1.752-0.597
		S28.43,32.185,28.599,31.402z"/>
	<path fill="#FFFFFF" d="M30.776,31.294c0-1.249,0.347-2.173,1.041-2.774c0.58-0.5,1.287-0.749,2.12-0.749
		c0.927,0,1.684,0.304,2.272,0.911c0.588,0.607,0.882,1.446,0.882,2.517c0,0.868-0.13,1.55-0.391,2.047
		c-0.26,0.498-0.639,0.884-1.136,1.159c-0.498,0.275-1.04,0.413-1.628,0.413c-0.944,0-1.707-0.303-2.289-0.908
		C31.067,33.304,30.776,32.432,30.776,31.294z M31.951,31.294c0,0.863,0.188,1.51,0.565,1.939c0.376,0.43,0.851,0.645,1.422,0.645
		c0.567,0,1.039-0.216,1.416-0.647s0.565-1.09,0.565-1.974c0-0.833-0.189-1.465-0.568-1.895c-0.379-0.429-0.85-0.644-1.413-0.644
		c-0.571,0-1.045,0.214-1.422,0.641S31.951,30.431,31.951,31.294z"/>
	<path fill="#FFFFFF" d="M38.432,34.665v-6.741h1.022v0.946c0.211-0.33,0.493-0.596,0.844-0.796c0.351-0.201,0.751-0.302,1.2-0.302
		c0.5,0,0.909,0.104,1.229,0.311c0.319,0.208,0.544,0.497,0.676,0.87c0.533-0.787,1.227-1.181,2.082-1.181
		c0.668,0,1.183,0.185,1.542,0.556c0.36,0.37,0.54,0.94,0.54,1.71v4.627H46.43v-4.247c0-0.457-0.037-0.786-0.111-0.987
		c-0.074-0.201-0.208-0.363-0.403-0.486s-0.423-0.184-0.686-0.184c-0.474,0-0.868,0.158-1.181,0.473
		c-0.313,0.315-0.47,0.82-0.47,1.514v3.917h-1.143v-4.38c0-0.508-0.093-0.889-0.279-1.143s-0.491-0.381-0.914-0.381
		c-0.322,0-0.619,0.084-0.892,0.254c-0.273,0.169-0.471,0.417-0.594,0.743s-0.184,0.795-0.184,1.409v3.498H38.432z"/>
	<path fill="#FFFFFF" d="M49.261,37.248v-9.325h1.041v0.876c0.246-0.343,0.522-0.6,0.832-0.771c0.309-0.171,0.684-0.257,1.124-0.257
		c0.576,0,1.083,0.148,1.523,0.444s0.772,0.714,0.997,1.254c0.224,0.539,0.336,1.131,0.336,1.774c0,0.69-0.124,1.311-0.372,1.863
		c-0.247,0.553-0.607,0.976-1.079,1.27c-0.472,0.294-0.968,0.441-1.488,0.441c-0.381,0-0.723-0.081-1.025-0.241
		c-0.302-0.161-0.551-0.364-0.746-0.609v3.282H49.261z M50.295,31.332c0,0.868,0.176,1.509,0.527,1.923s0.776,0.622,1.276,0.622
		c0.508,0,0.942-0.215,1.305-0.645c0.361-0.429,0.542-1.095,0.542-1.996c0-0.859-0.177-1.502-0.53-1.93
		c-0.354-0.427-0.776-0.641-1.267-0.641c-0.487,0-0.917,0.228-1.292,0.682C50.483,29.803,50.295,30.464,50.295,31.332z"/>
	<path fill="#FFFFFF" d="M61.105,32.494l1.181,0.146c-0.186,0.69-0.531,1.225-1.035,1.606s-1.147,0.571-1.93,0.571
		c-0.986,0-1.768-0.304-2.346-0.911c-0.577-0.607-0.866-1.458-0.866-2.555c0-1.134,0.292-2.014,0.876-2.641s1.341-0.939,2.272-0.939
		c0.901,0,1.638,0.307,2.209,0.92s0.857,1.477,0.857,2.59c0,0.068-0.002,0.169-0.006,0.305h-5.027
		c0.042,0.741,0.252,1.308,0.628,1.701s0.846,0.59,1.409,0.59c0.419,0,0.776-0.11,1.073-0.33S60.932,32.976,61.105,32.494z
		 M57.354,30.646h3.764c-0.051-0.567-0.195-0.992-0.432-1.276c-0.364-0.44-0.836-0.66-1.416-0.66c-0.525,0-0.966,0.176-1.323,0.527
		C57.59,29.588,57.392,30.058,57.354,30.646z"/>
	<path fill="#FFFFFF" d="M66.215,33.643l0.165,1.009c-0.322,0.068-0.609,0.102-0.863,0.102c-0.415,0-0.736-0.065-0.965-0.197
		s-0.389-0.304-0.482-0.517c-0.093-0.214-0.14-0.664-0.14-1.349v-3.878h-0.838v-0.889h0.838v-1.669l1.136-0.686v2.355h1.149v0.889
		h-1.149v3.942c0,0.326,0.02,0.535,0.06,0.628c0.041,0.093,0.106,0.167,0.197,0.222c0.091,0.055,0.221,0.083,0.39,0.083
		C65.841,33.687,66.008,33.672,66.215,33.643z"/>
	<path fill="#FFFFFF" d="M71.947,32.494l1.181,0.146c-0.186,0.69-0.531,1.225-1.035,1.606s-1.147,0.571-1.93,0.571
		c-0.986,0-1.768-0.304-2.346-0.911c-0.577-0.607-0.866-1.458-0.866-2.555c0-1.134,0.292-2.014,0.876-2.641s1.341-0.939,2.272-0.939
		c0.901,0,1.638,0.307,2.209,0.92s0.857,1.477,0.857,2.59c0,0.068-0.002,0.169-0.006,0.305h-5.027
		c0.042,0.741,0.252,1.308,0.628,1.701s0.846,0.59,1.409,0.59c0.419,0,0.776-0.11,1.073-0.33S71.774,32.976,71.947,32.494z
		 M68.196,30.646h3.764c-0.051-0.567-0.195-0.992-0.432-1.276c-0.364-0.44-0.836-0.66-1.416-0.66c-0.525,0-0.966,0.176-1.323,0.527
		C68.432,29.588,68.234,30.058,68.196,30.646z"/>
	<path fill="#FFFFFF" d="M74.563,34.665v-6.741h1.028v0.958c0.495-0.741,1.21-1.111,2.146-1.111c0.406,0,0.78,0.073,1.121,0.219
		c0.34,0.146,0.595,0.338,0.765,0.575s0.288,0.519,0.355,0.844c0.042,0.211,0.063,0.582,0.063,1.111v4.145h-1.143v-4.101
		c0-0.465-0.044-0.813-0.133-1.044c-0.089-0.231-0.247-0.415-0.473-0.553c-0.226-0.137-0.492-0.206-0.796-0.206
		c-0.487,0-0.907,0.154-1.26,0.463c-0.353,0.309-0.53,0.895-0.53,1.758v3.682H74.563z"/>
	<path fill="#FFFFFF" d="M86.191,32.195l1.124,0.146c-0.123,0.774-0.437,1.381-0.942,1.818c-0.506,0.438-1.127,0.657-1.863,0.657
		c-0.922,0-1.664-0.302-2.225-0.904c-0.561-0.604-0.841-1.468-0.841-2.593c0-0.728,0.121-1.365,0.362-1.911s0.608-0.955,1.102-1.229
		c0.493-0.272,1.029-0.409,1.609-0.409c0.732,0,1.331,0.185,1.796,0.556c0.465,0.37,0.764,0.896,0.895,1.577l-1.111,0.171
		c-0.106-0.453-0.293-0.793-0.562-1.022c-0.269-0.229-0.594-0.343-0.975-0.343c-0.576,0-1.043,0.206-1.403,0.619
		c-0.36,0.412-0.54,1.065-0.54,1.958c0,0.906,0.173,1.563,0.521,1.974s0.8,0.616,1.358,0.616c0.449,0,0.823-0.138,1.124-0.413
		S86.111,32.767,86.191,32.195z"/>
	<path fill="#FFFFFF" d="M88.299,26.673v-1.314h1.143v1.314H88.299z M88.299,34.665v-6.741h1.143v6.741H88.299z"/>
	<path fill="#FFFFFF" d="M95.58,33.833c-0.423,0.36-0.831,0.614-1.222,0.762c-0.392,0.148-0.812,0.222-1.26,0.222
		c-0.741,0-1.31-0.181-1.708-0.543c-0.398-0.361-0.597-0.824-0.597-1.387c0-0.33,0.075-0.632,0.226-0.904
		c0.15-0.273,0.347-0.492,0.59-0.657c0.244-0.165,0.518-0.29,0.822-0.375c0.224-0.059,0.563-0.116,1.016-0.171
		c0.922-0.11,1.602-0.241,2.038-0.394c0.004-0.157,0.006-0.256,0.006-0.298c0-0.465-0.108-0.793-0.324-0.984
		c-0.292-0.258-0.726-0.387-1.301-0.387c-0.538,0-0.934,0.094-1.19,0.283c-0.256,0.188-0.445,0.521-0.568,1l-1.117-0.152
		c0.102-0.478,0.269-0.864,0.501-1.159c0.233-0.294,0.569-0.521,1.009-0.679c0.44-0.159,0.95-0.238,1.53-0.238
		c0.576,0,1.043,0.068,1.403,0.203s0.624,0.306,0.793,0.511c0.169,0.206,0.288,0.465,0.355,0.778
		c0.038,0.195,0.057,0.546,0.057,1.054v1.523c0,1.062,0.024,1.734,0.073,2.015c0.049,0.282,0.145,0.551,0.289,0.81h-1.193
		C95.689,34.428,95.613,34.15,95.58,33.833z M95.484,31.281c-0.415,0.169-1.037,0.313-1.866,0.432
		c-0.47,0.068-0.802,0.144-0.997,0.229s-0.345,0.208-0.451,0.372c-0.106,0.163-0.159,0.344-0.159,0.542
		c0,0.305,0.115,0.559,0.346,0.762c0.231,0.203,0.568,0.305,1.013,0.305c0.44,0,0.832-0.096,1.174-0.289
		c0.343-0.193,0.595-0.456,0.755-0.791c0.123-0.258,0.184-0.639,0.184-1.143V31.281z"/>
	<path fill="#FFFFFF" d="M97.954,32.652l1.13-0.178c0.063,0.453,0.24,0.8,0.53,1.041c0.29,0.241,0.695,0.362,1.215,0.362
		c0.525,0,0.914-0.107,1.168-0.32c0.254-0.214,0.381-0.465,0.381-0.752c0-0.258-0.112-0.461-0.336-0.609
		c-0.157-0.102-0.546-0.23-1.168-0.387c-0.838-0.211-1.419-0.395-1.742-0.549c-0.324-0.155-0.569-0.368-0.736-0.642
		c-0.167-0.272-0.251-0.574-0.251-0.904c0-0.3,0.069-0.579,0.206-0.835c0.138-0.256,0.325-0.468,0.562-0.638
		c0.178-0.131,0.42-0.242,0.727-0.333c0.307-0.091,0.636-0.137,0.987-0.137c0.529,0,0.994,0.076,1.393,0.229
		c0.4,0.152,0.695,0.358,0.886,0.619c0.19,0.26,0.322,0.608,0.394,1.044l-1.117,0.152c-0.051-0.347-0.198-0.618-0.441-0.813
		c-0.243-0.195-0.587-0.292-1.031-0.292c-0.525,0-0.899,0.087-1.124,0.26s-0.336,0.376-0.336,0.609c0,0.148,0.046,0.281,0.14,0.4
		c0.093,0.123,0.239,0.224,0.438,0.305c0.114,0.042,0.451,0.14,1.009,0.292c0.808,0.216,1.372,0.393,1.691,0.53
		c0.32,0.137,0.57,0.337,0.752,0.6s0.273,0.588,0.273,0.978c0,0.381-0.111,0.739-0.333,1.076c-0.223,0.336-0.543,0.597-0.962,0.78
		c-0.419,0.185-0.893,0.276-1.422,0.276c-0.876,0-1.543-0.182-2.003-0.546C98.374,33.907,98.081,33.368,97.954,32.652z"/>
	<path fill="#FFFFFF" d="M108.472,37.261l-0.127-1.073c0.25,0.068,0.468,0.102,0.654,0.102c0.254,0,0.457-0.042,0.609-0.127
		s0.277-0.203,0.374-0.355c0.071-0.114,0.188-0.398,0.349-0.851c0.021-0.063,0.056-0.157,0.102-0.279l-2.558-6.754h1.231
		l1.402,3.904c0.183,0.495,0.346,1.016,0.489,1.562c0.132-0.525,0.288-1.037,0.47-1.536l1.441-3.929h1.143l-2.564,6.855
		c-0.275,0.741-0.489,1.25-0.642,1.53c-0.203,0.376-0.437,0.653-0.698,0.829c-0.262,0.175-0.576,0.263-0.939,0.263
		C108.987,37.4,108.743,37.354,108.472,37.261z"/>
	<path fill="#FFFFFF" d="M118.622,34.665v-6.741h1.027v1.022c0.263-0.478,0.506-0.793,0.727-0.946
		c0.223-0.152,0.467-0.229,0.734-0.229c0.385,0,0.775,0.123,1.174,0.368l-0.394,1.06c-0.279-0.165-0.559-0.248-0.838-0.248
		c-0.249,0-0.474,0.075-0.673,0.226c-0.199,0.15-0.341,0.358-0.426,0.625c-0.127,0.406-0.189,0.851-0.189,1.333v3.529H118.622z"/>
	<path fill="#FFFFFF" d="M127.578,32.494l1.181,0.146c-0.186,0.69-0.531,1.225-1.035,1.606c-0.503,0.381-1.146,0.571-1.93,0.571
		c-0.985,0-1.768-0.304-2.346-0.911c-0.576-0.607-0.865-1.458-0.865-2.555c0-1.134,0.291-2.014,0.875-2.641s1.342-0.939,2.273-0.939
		c0.9,0,1.637,0.307,2.209,0.92c0.57,0.614,0.856,1.477,0.856,2.59c0,0.068-0.002,0.169-0.007,0.305h-5.027
		c0.043,0.741,0.252,1.308,0.629,1.701s0.846,0.59,1.409,0.59c0.419,0,0.776-0.11,1.073-0.33
		C127.17,33.327,127.405,32.976,127.578,32.494z M123.827,30.646h3.764c-0.051-0.567-0.195-0.992-0.432-1.276
		c-0.363-0.44-0.836-0.66-1.416-0.66c-0.524,0-0.965,0.176-1.322,0.527C124.063,29.588,123.864,30.058,123.827,30.646z"/>
	<path fill="#FFFFFF" d="M129.736,32.652l1.13-0.178c0.063,0.453,0.24,0.8,0.529,1.041c0.291,0.241,0.695,0.362,1.217,0.362
		c0.524,0,0.914-0.107,1.168-0.32c0.254-0.214,0.381-0.465,0.381-0.752c0-0.258-0.113-0.461-0.337-0.609
		c-0.157-0.102-0.546-0.23-1.168-0.387c-0.838-0.211-1.419-0.395-1.743-0.549c-0.322-0.155-0.568-0.368-0.736-0.642
		c-0.166-0.272-0.25-0.574-0.25-0.904c0-0.3,0.068-0.579,0.207-0.835c0.137-0.256,0.324-0.468,0.561-0.638
		c0.178-0.131,0.42-0.242,0.727-0.333c0.308-0.091,0.637-0.137,0.988-0.137c0.528,0,0.992,0.076,1.393,0.229
		s0.695,0.358,0.886,0.619c0.19,0.26,0.321,0.608,0.394,1.044l-1.117,0.152c-0.051-0.347-0.197-0.618-0.441-0.813
		c-0.243-0.195-0.587-0.292-1.031-0.292c-0.525,0-0.899,0.087-1.123,0.26c-0.225,0.173-0.337,0.376-0.337,0.609
		c0,0.148,0.046,0.281,0.14,0.4c0.094,0.123,0.239,0.224,0.438,0.305c0.115,0.042,0.451,0.14,1.01,0.292
		c0.809,0.216,1.372,0.393,1.691,0.53c0.32,0.137,0.57,0.337,0.752,0.6c0.183,0.262,0.273,0.588,0.273,0.978
		c0,0.381-0.111,0.739-0.334,1.076c-0.221,0.336-0.542,0.597-0.961,0.78c-0.419,0.185-0.893,0.276-1.422,0.276
		c-0.876,0-1.543-0.182-2.002-0.546C130.156,33.907,129.863,33.368,129.736,32.652z"/>
	<path fill="#FFFFFF" d="M141.111,34.665v-0.99c-0.524,0.762-1.237,1.143-2.14,1.143c-0.397,0-0.769-0.076-1.113-0.229
		c-0.346-0.152-0.602-0.344-0.768-0.574c-0.168-0.231-0.285-0.513-0.354-0.848c-0.046-0.224-0.069-0.58-0.069-1.066v-4.177h1.143
		v3.739c0,0.597,0.023,0.999,0.069,1.206c0.072,0.3,0.225,0.537,0.457,0.708c0.233,0.172,0.521,0.257,0.863,0.257
		c0.344,0,0.665-0.088,0.965-0.263c0.301-0.176,0.514-0.415,0.639-0.718c0.125-0.302,0.188-0.741,0.188-1.317v-3.612h1.143v6.741
		H141.111z"/>
	<path fill="#FFFFFF" d="M143.897,34.665v-9.306h1.143v9.306H143.897z"/>
	<path fill="#FFFFFF" d="M149.306,33.643l0.166,1.009c-0.322,0.068-0.609,0.102-0.863,0.102c-0.415,0-0.736-0.065-0.965-0.197
		s-0.39-0.304-0.482-0.517c-0.094-0.214-0.141-0.664-0.141-1.349v-3.878h-0.838v-0.889h0.838v-1.669l1.137-0.686v2.355h1.148v0.889
		h-1.148v3.942c0,0.326,0.02,0.535,0.061,0.628c0.04,0.093,0.105,0.167,0.197,0.222c0.09,0.055,0.221,0.083,0.39,0.083
		C148.932,33.687,149.099,33.672,149.306,33.643z"/>
	<path fill="#FFFFFF" d="M154.822,33.833c-0.423,0.36-0.831,0.614-1.222,0.762c-0.392,0.148-0.812,0.222-1.26,0.222
		c-0.741,0-1.311-0.181-1.708-0.543c-0.397-0.361-0.597-0.824-0.597-1.387c0-0.33,0.075-0.632,0.225-0.904
		c0.15-0.273,0.348-0.492,0.592-0.657c0.242-0.165,0.517-0.29,0.821-0.375c0.224-0.059,0.563-0.116,1.016-0.171
		c0.923-0.11,1.602-0.241,2.038-0.394c0.004-0.157,0.006-0.256,0.006-0.298c0-0.465-0.107-0.793-0.324-0.984
		c-0.291-0.258-0.725-0.387-1.301-0.387c-0.537,0-0.934,0.094-1.189,0.283c-0.257,0.188-0.446,0.521-0.568,1l-1.117-0.152
		c0.102-0.478,0.268-0.864,0.501-1.159c0.233-0.294,0.569-0.521,1.009-0.679c0.44-0.159,0.951-0.238,1.53-0.238
		c0.575,0,1.043,0.068,1.403,0.203c0.359,0.135,0.623,0.306,0.793,0.511c0.17,0.206,0.287,0.465,0.355,0.778
		c0.038,0.195,0.057,0.546,0.057,1.054v1.523c0,1.062,0.025,1.734,0.074,2.015c0.048,0.282,0.145,0.551,0.288,0.81h-1.193
		C154.933,34.428,154.856,34.15,154.822,33.833z M154.728,31.281c-0.415,0.169-1.037,0.313-1.867,0.432
		c-0.469,0.068-0.801,0.144-0.996,0.229s-0.345,0.208-0.451,0.372c-0.105,0.163-0.158,0.344-0.158,0.542
		c0,0.305,0.115,0.559,0.346,0.762s0.568,0.305,1.013,0.305c0.44,0,0.831-0.096,1.175-0.289c0.342-0.193,0.594-0.456,0.755-0.791
		c0.122-0.258,0.185-0.639,0.185-1.143V31.281z"/>
	<path fill="#FFFFFF" d="M162.026,34.665v-0.851c-0.427,0.668-1.055,1.003-1.885,1.003c-0.537,0-1.031-0.148-1.482-0.444
		s-0.799-0.71-1.047-1.241c-0.248-0.531-0.371-1.141-0.371-1.831c0-0.673,0.111-1.283,0.336-1.831
		c0.225-0.548,0.561-0.968,1.01-1.26c0.448-0.292,0.949-0.438,1.504-0.438c0.406,0,0.768,0.086,1.086,0.257
		c0.316,0.172,0.575,0.395,0.773,0.67v-3.339h1.137v9.306H162.026z M158.415,31.3c0,0.863,0.182,1.509,0.546,1.936
		s0.794,0.641,1.288,0.641c0.5,0,0.924-0.204,1.273-0.612c0.35-0.409,0.523-1.032,0.523-1.87c0-0.922-0.178-1.6-0.533-2.031
		s-0.793-0.647-1.314-0.647c-0.508,0-0.932,0.208-1.271,0.622C158.585,29.753,158.415,30.407,158.415,31.3z"/>
	<path fill="#FFFFFF" d="M164.458,31.294c0-1.249,0.348-2.173,1.041-2.774c0.58-0.5,1.287-0.749,2.12-0.749
		c0.927,0,1.685,0.304,2.272,0.911c0.588,0.607,0.883,1.446,0.883,2.517c0,0.868-0.131,1.55-0.391,2.047
		c-0.26,0.498-0.639,0.884-1.137,1.159c-0.497,0.275-1.039,0.413-1.628,0.413c-0.944,0-1.706-0.303-2.288-0.908
		S164.458,32.432,164.458,31.294z M165.632,31.294c0,0.863,0.189,1.51,0.565,1.939c0.376,0.43,0.851,0.645,1.422,0.645
		c0.567,0,1.039-0.216,1.415-0.647c0.377-0.432,0.565-1.09,0.565-1.974c0-0.833-0.189-1.465-0.567-1.895
		c-0.379-0.429-0.85-0.644-1.413-0.644c-0.571,0-1.046,0.214-1.422,0.641S165.632,30.431,165.632,31.294z"/>
	<path fill="#FFFFFF" d="M171.656,32.652l1.13-0.178c0.063,0.453,0.24,0.8,0.529,1.041c0.291,0.241,0.695,0.362,1.217,0.362
		c0.524,0,0.914-0.107,1.168-0.32c0.254-0.214,0.381-0.465,0.381-0.752c0-0.258-0.113-0.461-0.337-0.609
		c-0.157-0.102-0.546-0.23-1.168-0.387c-0.838-0.211-1.419-0.395-1.743-0.549c-0.322-0.155-0.568-0.368-0.736-0.642
		c-0.166-0.272-0.25-0.574-0.25-0.904c0-0.3,0.068-0.579,0.207-0.835c0.137-0.256,0.324-0.468,0.561-0.638
		c0.178-0.131,0.42-0.242,0.727-0.333c0.308-0.091,0.637-0.137,0.988-0.137c0.528,0,0.992,0.076,1.393,0.229
		s0.695,0.358,0.886,0.619c0.19,0.26,0.321,0.608,0.394,1.044l-1.117,0.152c-0.051-0.347-0.197-0.618-0.441-0.813
		c-0.243-0.195-0.587-0.292-1.031-0.292c-0.525,0-0.899,0.087-1.123,0.26c-0.225,0.173-0.337,0.376-0.337,0.609
		c0,0.148,0.046,0.281,0.14,0.4c0.094,0.123,0.239,0.224,0.438,0.305c0.115,0.042,0.451,0.14,1.01,0.292
		c0.809,0.216,1.372,0.393,1.691,0.53c0.32,0.137,0.57,0.337,0.752,0.6c0.183,0.262,0.273,0.588,0.273,0.978
		c0,0.381-0.111,0.739-0.334,1.076c-0.221,0.336-0.542,0.597-0.961,0.78c-0.419,0.185-0.893,0.276-1.422,0.276
		c-0.876,0-1.543-0.182-2.002-0.546C172.076,33.907,171.783,33.368,171.656,32.652z"/>
	<path fill="#FFFFFF" d="M186.599,34.665v-0.851c-0.428,0.668-1.056,1.003-1.885,1.003c-0.538,0-1.031-0.148-1.482-0.444
		s-0.801-0.71-1.047-1.241c-0.248-0.531-0.372-1.141-0.372-1.831c0-0.673,0.112-1.283,0.337-1.831
		c0.224-0.548,0.561-0.968,1.009-1.26s0.95-0.438,1.505-0.438c0.406,0,0.768,0.086,1.085,0.257c0.317,0.172,0.575,0.395,0.774,0.67
		v-3.339h1.137v9.306H186.599z M182.987,31.3c0,0.863,0.182,1.509,0.545,1.936c0.364,0.427,0.794,0.641,1.289,0.641
		c0.5,0,0.924-0.204,1.273-0.612c0.348-0.409,0.523-1.032,0.523-1.87c0-0.922-0.178-1.6-0.533-2.031s-0.794-0.647-1.314-0.647
		c-0.508,0-0.932,0.208-1.273,0.622C183.157,29.753,182.987,30.407,182.987,31.3z"/>
	<path fill="#FFFFFF" d="M194.069,32.494l1.182,0.146c-0.187,0.69-0.531,1.225-1.035,1.606s-1.146,0.571-1.93,0.571
		c-0.986,0-1.768-0.304-2.346-0.911c-0.578-0.607-0.866-1.458-0.866-2.555c0-1.134,0.292-2.014,0.876-2.641s1.342-0.939,2.272-0.939
		c0.901,0,1.638,0.307,2.209,0.92s0.856,1.477,0.856,2.59c0,0.068-0.002,0.169-0.006,0.305h-5.027
		c0.043,0.741,0.252,1.308,0.629,1.701c0.376,0.394,0.846,0.59,1.408,0.59c0.42,0,0.777-0.11,1.073-0.33
		S193.896,32.976,194.069,32.494z M190.318,30.646h3.765c-0.051-0.567-0.195-0.992-0.432-1.276c-0.364-0.44-0.836-0.66-1.416-0.66
		c-0.525,0-0.966,0.176-1.324,0.527C190.554,29.588,190.356,30.058,190.318,30.646z"/>
	<path fill="#FFFFFF" d="M26.212,49.433c-0.423,0.36-0.831,0.614-1.222,0.762c-0.392,0.148-0.812,0.222-1.26,0.222
		c-0.741,0-1.31-0.181-1.708-0.542c-0.398-0.362-0.597-0.824-0.597-1.387c0-0.33,0.075-0.631,0.226-0.905
		c0.15-0.272,0.347-0.492,0.59-0.657c0.244-0.165,0.518-0.29,0.822-0.375c0.224-0.059,0.563-0.116,1.016-0.171
		c0.922-0.11,1.602-0.241,2.038-0.394c0.004-0.157,0.006-0.256,0.006-0.298c0-0.465-0.108-0.793-0.324-0.984
		c-0.292-0.258-0.726-0.387-1.301-0.387c-0.538,0-0.934,0.094-1.19,0.282c-0.256,0.188-0.445,0.522-0.568,1l-1.117-0.152
		c0.102-0.478,0.269-0.864,0.501-1.158c0.233-0.294,0.569-0.521,1.009-0.68c0.44-0.158,0.95-0.238,1.53-0.238
		c0.576,0,1.043,0.068,1.403,0.203s0.624,0.306,0.793,0.511c0.169,0.205,0.288,0.464,0.355,0.777
		c0.038,0.195,0.057,0.546,0.057,1.054v1.523c0,1.062,0.024,1.734,0.073,2.016c0.049,0.281,0.145,0.551,0.289,0.809h-1.193
		C26.322,50.028,26.246,49.75,26.212,49.433z M26.117,46.881c-0.415,0.169-1.037,0.313-1.866,0.432
		c-0.47,0.068-0.802,0.144-0.997,0.229s-0.345,0.208-0.451,0.371c-0.106,0.163-0.159,0.344-0.159,0.543
		c0,0.305,0.115,0.559,0.346,0.762c0.231,0.203,0.568,0.305,1.013,0.305c0.44,0,0.832-0.096,1.174-0.289
		c0.343-0.192,0.595-0.456,0.755-0.79c0.123-0.258,0.184-0.639,0.184-1.143V46.881z"/>
	<path fill="#FFFFFF" d="M29.043,52.848v-9.325h1.041v0.876c0.246-0.343,0.522-0.6,0.832-0.771c0.309-0.172,0.684-0.257,1.124-0.257
		c0.576,0,1.083,0.148,1.523,0.444s0.772,0.714,0.997,1.253c0.224,0.54,0.336,1.131,0.336,1.774c0,0.69-0.124,1.311-0.371,1.863
		c-0.248,0.552-0.607,0.975-1.079,1.27c-0.472,0.294-0.968,0.441-1.489,0.441c-0.381,0-0.723-0.081-1.025-0.241
		c-0.303-0.161-0.551-0.364-0.746-0.609v3.282H29.043z M30.078,46.932c0,0.868,0.176,1.509,0.527,1.923s0.776,0.622,1.276,0.622
		c0.508,0,0.943-0.215,1.304-0.644c0.362-0.43,0.543-1.095,0.543-1.997c0-0.859-0.177-1.502-0.53-1.93
		c-0.353-0.427-0.775-0.641-1.266-0.641c-0.487,0-0.917,0.228-1.292,0.683C30.265,45.403,30.078,46.064,30.078,46.932z"/>
	<path fill="#FFFFFF" d="M36.261,50.265v-6.741h1.028v1.022c0.262-0.478,0.504-0.793,0.727-0.946
		c0.222-0.152,0.466-0.229,0.733-0.229c0.385,0,0.776,0.123,1.174,0.368l-0.394,1.06c-0.279-0.165-0.559-0.248-0.838-0.248
		c-0.25,0-0.474,0.075-0.673,0.225c-0.199,0.15-0.341,0.359-0.425,0.625c-0.127,0.406-0.19,0.851-0.19,1.333v3.529H36.261z"/>
	<path fill="#FFFFFF" d="M45.217,48.094l1.181,0.146c-0.186,0.69-0.531,1.225-1.035,1.606s-1.147,0.571-1.93,0.571
		c-0.986,0-1.768-0.304-2.345-0.911c-0.578-0.607-0.867-1.459-0.867-2.555c0-1.134,0.292-2.014,0.876-2.641s1.341-0.939,2.272-0.939
		c0.901,0,1.638,0.307,2.209,0.92s0.857,1.477,0.857,2.59c0,0.068-0.002,0.169-0.006,0.305h-5.027
		c0.042,0.741,0.252,1.308,0.628,1.701s0.846,0.59,1.409,0.59c0.419,0,0.776-0.11,1.073-0.33S45.044,48.576,45.217,48.094z
		 M41.466,46.247h3.764c-0.051-0.567-0.195-0.992-0.432-1.276c-0.364-0.44-0.836-0.66-1.416-0.66c-0.525,0-0.966,0.176-1.324,0.527
		C41.702,45.188,41.504,45.658,41.466,46.247z"/>
	<path fill="#FFFFFF" d="M47.833,50.265v-6.741h1.028v0.958c0.495-0.741,1.21-1.111,2.146-1.111c0.406,0,0.78,0.073,1.12,0.219
		c0.341,0.146,0.596,0.337,0.765,0.574s0.288,0.519,0.355,0.844c0.042,0.211,0.063,0.582,0.063,1.111v4.145h-1.143v-4.101
		c0-0.465-0.044-0.813-0.133-1.044c-0.089-0.23-0.247-0.415-0.473-0.552c-0.227-0.138-0.492-0.207-0.797-0.207
		c-0.487,0-0.907,0.154-1.26,0.463c-0.354,0.309-0.53,0.895-0.53,1.758v3.682H47.833z"/>
	<path fill="#FFFFFF" d="M59.436,50.265v-0.851c-0.427,0.668-1.056,1.003-1.885,1.003c-0.538,0-1.032-0.148-1.482-0.444
		c-0.451-0.296-0.8-0.71-1.048-1.241c-0.247-0.531-0.371-1.142-0.371-1.832c0-0.673,0.112-1.283,0.336-1.832
		c0.224-0.548,0.561-0.968,1.009-1.26s0.95-0.438,1.504-0.438c0.406,0,0.768,0.085,1.085,0.257c0.317,0.171,0.576,0.395,0.774,0.669
		v-3.339h1.136v9.306H59.436z M55.824,46.9c0,0.863,0.182,1.509,0.546,1.936s0.793,0.641,1.289,0.641c0.5,0,0.924-0.204,1.272-0.613
		c0.35-0.408,0.524-1.031,0.524-1.869c0-0.922-0.178-1.6-0.533-2.031s-0.793-0.647-1.314-0.647c-0.508,0-0.932,0.208-1.272,0.622
		C55.995,45.354,55.824,46.007,55.824,46.9z"/>
	<path fill="#FFFFFF" d="M62.299,42.273v-1.314h1.143v1.314H62.299z M62.299,50.265v-6.741h1.143v6.741H62.299z"/>
	<path fill="#FFFFFF" d="M64.578,50.265v-0.927l4.291-4.926c-0.487,0.025-0.916,0.038-1.289,0.038h-2.749v-0.927h5.51v0.755
		l-3.65,4.278l-0.705,0.781c0.512-0.038,0.992-0.057,1.441-0.057h3.117v0.984H64.578z"/>
	<path fill="#FFFFFF" d="M76.08,49.433c-0.423,0.36-0.831,0.614-1.222,0.762c-0.392,0.148-0.812,0.222-1.26,0.222
		c-0.741,0-1.31-0.181-1.708-0.542c-0.398-0.362-0.597-0.824-0.597-1.387c0-0.33,0.075-0.631,0.226-0.905
		c0.15-0.272,0.347-0.492,0.59-0.657c0.244-0.165,0.518-0.29,0.822-0.375c0.224-0.059,0.563-0.116,1.016-0.171
		c0.922-0.11,1.602-0.241,2.038-0.394c0.004-0.157,0.006-0.256,0.006-0.298c0-0.465-0.108-0.793-0.324-0.984
		c-0.292-0.258-0.726-0.387-1.301-0.387c-0.538,0-0.934,0.094-1.19,0.282c-0.256,0.188-0.445,0.522-0.568,1l-1.117-0.152
		c0.102-0.478,0.269-0.864,0.501-1.158c0.233-0.294,0.569-0.521,1.009-0.68c0.44-0.158,0.95-0.238,1.53-0.238
		c0.576,0,1.043,0.068,1.403,0.203s0.624,0.306,0.793,0.511c0.169,0.205,0.288,0.464,0.355,0.777
		c0.038,0.195,0.057,0.546,0.057,1.054v1.523c0,1.062,0.024,1.734,0.073,2.016c0.049,0.281,0.145,0.551,0.289,0.809h-1.193
		C76.189,50.028,76.113,49.75,76.08,49.433z M75.984,46.881c-0.415,0.169-1.037,0.313-1.866,0.432
		c-0.47,0.068-0.802,0.144-0.997,0.229s-0.345,0.208-0.451,0.371c-0.106,0.163-0.159,0.344-0.159,0.543
		c0,0.305,0.115,0.559,0.346,0.762c0.231,0.203,0.568,0.305,1.013,0.305c0.44,0,0.832-0.096,1.174-0.289
		c0.343-0.192,0.595-0.456,0.755-0.79c0.123-0.258,0.184-0.639,0.184-1.143V46.881z"/>
	<path fill="#FFFFFF" d="M77.457,52.88l0.216-0.971c0.229,0.059,0.408,0.089,0.54,0.089c0.233,0,0.406-0.077,0.521-0.231
		c0.114-0.155,0.171-0.541,0.171-1.159v-7.084h1.143v7.109c0,0.83-0.108,1.407-0.324,1.733C79.448,52.789,78.991,53,78.352,53
		C78.043,53,77.745,52.96,77.457,52.88z M78.904,42.286v-1.327h1.143v1.327H78.904z"/>
	<path fill="#FFFFFF" d="M86.414,48.094l1.181,0.146c-0.186,0.69-0.531,1.225-1.035,1.606s-1.147,0.571-1.93,0.571
		c-0.986,0-1.768-0.304-2.345-0.911c-0.578-0.607-0.867-1.459-0.867-2.555c0-1.134,0.292-2.014,0.876-2.641s1.341-0.939,2.272-0.939
		c0.901,0,1.638,0.307,2.209,0.92s0.857,1.477,0.857,2.59c0,0.068-0.002,0.169-0.006,0.305h-5.027
		c0.042,0.741,0.252,1.308,0.628,1.701s0.846,0.59,1.409,0.59c0.419,0,0.776-0.11,1.073-0.33S86.24,48.576,86.414,48.094z
		 M82.662,46.247h3.764c-0.051-0.567-0.195-0.992-0.432-1.276c-0.364-0.44-0.836-0.66-1.416-0.66c-0.525,0-0.966,0.176-1.324,0.527
		C82.898,45.188,82.7,45.658,82.662,46.247z"/>
	<path fill="#FFFFFF" d="M28.599,72.202l1.231,0.311c-0.258,1.011-0.723,1.783-1.394,2.314c-0.67,0.531-1.49,0.796-2.459,0.796
		c-1.003,0-1.819-0.204-2.447-0.613c-0.629-0.408-1.107-1-1.435-1.774c-0.328-0.774-0.492-1.606-0.492-2.495
		c0-0.969,0.185-1.814,0.556-2.536c0.37-0.721,0.897-1.27,1.58-1.644C24.423,66.187,25.176,66,25.997,66
		c0.931,0,1.714,0.237,2.349,0.711s1.077,1.141,1.327,2l-1.212,0.286c-0.216-0.677-0.529-1.17-0.939-1.479s-0.927-0.463-1.549-0.463
		c-0.715,0-1.313,0.171-1.793,0.514c-0.48,0.343-0.818,0.803-1.013,1.381c-0.195,0.577-0.292,1.173-0.292,1.787
		c0,0.792,0.115,1.482,0.346,2.073c0.231,0.59,0.589,1.031,1.076,1.323s1.014,0.438,1.581,0.438c0.69,0,1.274-0.199,1.752-0.597
		S28.43,72.984,28.599,72.202z"/>
	<path fill="#FFFFFF" d="M30.776,72.094c0-1.249,0.347-2.173,1.041-2.774c0.58-0.5,1.287-0.749,2.12-0.749
		c0.927,0,1.684,0.304,2.272,0.911c0.588,0.607,0.882,1.446,0.882,2.517c0,0.868-0.13,1.55-0.391,2.047
		c-0.26,0.498-0.639,0.884-1.136,1.159c-0.498,0.275-1.04,0.413-1.628,0.413c-0.944,0-1.707-0.303-2.289-0.908
		C31.067,74.104,30.776,73.232,30.776,72.094z M31.951,72.094c0,0.863,0.188,1.51,0.565,1.939c0.376,0.43,0.851,0.645,1.422,0.645
		c0.567,0,1.039-0.216,1.416-0.647s0.565-1.09,0.565-1.974c0-0.833-0.189-1.465-0.568-1.895c-0.379-0.429-0.85-0.644-1.413-0.644
		c-0.571,0-1.045,0.214-1.422,0.641S31.951,71.23,31.951,72.094z"/>
	<path fill="#FFFFFF" d="M38.432,75.464v-6.741h1.028v0.958c0.495-0.741,1.21-1.111,2.146-1.111c0.406,0,0.78,0.073,1.121,0.219
		c0.34,0.146,0.595,0.338,0.765,0.575s0.288,0.519,0.355,0.844c0.042,0.211,0.063,0.582,0.063,1.111v4.145h-1.143v-4.101
		c0-0.465-0.044-0.813-0.133-1.044c-0.089-0.231-0.247-0.415-0.473-0.553c-0.226-0.137-0.492-0.206-0.796-0.206
		c-0.487,0-0.907,0.154-1.26,0.463c-0.353,0.309-0.53,0.895-0.53,1.758v3.682H38.432z"/>
	<path fill="#FFFFFF" d="M45.236,72.094c0-1.249,0.347-2.173,1.041-2.774c0.58-0.5,1.287-0.749,2.12-0.749
		c0.927,0,1.684,0.304,2.272,0.911c0.588,0.607,0.882,1.446,0.882,2.517c0,0.868-0.13,1.55-0.391,2.047
		c-0.26,0.498-0.639,0.884-1.136,1.159c-0.498,0.275-1.04,0.413-1.628,0.413c-0.944,0-1.707-0.303-2.289-0.908
		C45.527,74.104,45.236,73.232,45.236,72.094z M46.411,72.094c0,0.863,0.188,1.51,0.565,1.939c0.376,0.43,0.851,0.645,1.422,0.645
		c0.567,0,1.039-0.216,1.416-0.647s0.565-1.09,0.565-1.974c0-0.833-0.189-1.465-0.568-1.895c-0.379-0.429-0.85-0.644-1.413-0.644
		c-0.571,0-1.045,0.214-1.422,0.641S46.411,71.23,46.411,72.094z"/>
	<path fill="#FFFFFF" d="M57.291,72.995l1.124,0.146c-0.123,0.774-0.437,1.381-0.943,1.818c-0.505,0.438-1.126,0.657-1.863,0.657
		c-0.922,0-1.664-0.302-2.225-0.904c-0.561-0.604-0.841-1.468-0.841-2.593c0-0.728,0.121-1.365,0.362-1.911s0.608-0.955,1.101-1.229
		c0.493-0.272,1.03-0.409,1.609-0.409c0.732,0,1.331,0.185,1.796,0.556c0.465,0.37,0.764,0.896,0.895,1.577l-1.111,0.171
		c-0.106-0.453-0.293-0.793-0.562-1.022c-0.269-0.229-0.593-0.343-0.974-0.343c-0.576,0-1.043,0.206-1.403,0.619
		c-0.36,0.412-0.54,1.065-0.54,1.958c0,0.906,0.173,1.563,0.521,1.974s0.8,0.616,1.358,0.616c0.449,0,0.823-0.138,1.124-0.413
		S57.21,73.566,57.291,72.995z"/>
	<path fill="#FFFFFF" d="M59.398,67.473v-1.314h1.143v1.314H59.398z M59.398,75.464v-6.741h1.143v6.741H59.398z"/>
	<path fill="#FFFFFF" d="M62.28,75.464v-6.741h1.022v0.946c0.211-0.33,0.493-0.596,0.844-0.796c0.351-0.201,0.751-0.302,1.2-0.302
		c0.5,0,0.909,0.104,1.228,0.311c0.32,0.208,0.545,0.497,0.676,0.87c0.533-0.787,1.227-1.181,2.082-1.181
		c0.668,0,1.183,0.185,1.542,0.556c0.36,0.37,0.54,0.94,0.54,1.71v4.627h-1.136v-4.247c0-0.457-0.037-0.786-0.111-0.987
		c-0.074-0.201-0.208-0.363-0.403-0.486s-0.423-0.184-0.686-0.184c-0.474,0-0.868,0.158-1.181,0.473
		c-0.313,0.315-0.47,0.82-0.47,1.514v3.917h-1.143v-4.38c0-0.508-0.093-0.889-0.279-1.143s-0.491-0.381-0.914-0.381
		c-0.322,0-0.619,0.084-0.892,0.254c-0.272,0.169-0.471,0.417-0.593,0.743s-0.184,0.795-0.184,1.409v3.498H62.28z"/>
	<path fill="#FFFFFF" d="M73.115,67.473v-1.314h1.143v1.314H73.115z M73.115,75.464v-6.741h1.143v6.741H73.115z"/>
	<path fill="#FFFFFF" d="M80.612,73.293l1.181,0.146c-0.186,0.69-0.531,1.225-1.035,1.606s-1.147,0.571-1.93,0.571
		c-0.986,0-1.768-0.304-2.345-0.911c-0.578-0.607-0.867-1.458-0.867-2.555c0-1.134,0.292-2.014,0.876-2.641s1.341-0.939,2.272-0.939
		c0.901,0,1.638,0.307,2.209,0.92s0.857,1.477,0.857,2.59c0,0.068-0.002,0.169-0.006,0.305h-5.027
		c0.042,0.741,0.252,1.308,0.628,1.701s0.846,0.59,1.409,0.59c0.419,0,0.776-0.11,1.073-0.33S80.438,73.776,80.612,73.293z
		 M76.86,71.446h3.764c-0.051-0.567-0.195-0.992-0.432-1.276c-0.364-0.44-0.836-0.66-1.416-0.66c-0.525,0-0.966,0.176-1.324,0.527
		C77.096,70.388,76.898,70.858,76.86,71.446z"/>
	<path fill="#FFFFFF" d="M83.227,75.464v-6.741h1.028v0.958c0.495-0.741,1.21-1.111,2.146-1.111c0.406,0,0.78,0.073,1.12,0.219
		c0.341,0.146,0.596,0.338,0.765,0.575s0.288,0.519,0.355,0.844c0.042,0.211,0.063,0.582,0.063,1.111v4.145h-1.143v-4.101
		c0-0.465-0.044-0.813-0.133-1.044c-0.089-0.231-0.247-0.415-0.473-0.553c-0.227-0.137-0.492-0.206-0.797-0.206
		c-0.487,0-0.907,0.154-1.26,0.463c-0.354,0.309-0.53,0.895-0.53,1.758v3.682H83.227z"/>
	<path fill="#FFFFFF" d="M92.952,74.442l0.165,1.009c-0.322,0.068-0.609,0.102-0.863,0.102c-0.415,0-0.736-0.065-0.965-0.197
		s-0.389-0.304-0.482-0.517c-0.093-0.214-0.14-0.664-0.14-1.349v-3.878h-0.838v-0.889h0.838v-1.669l1.136-0.686v2.355h1.149v0.889
		h-1.149v3.942c0,0.326,0.02,0.535,0.06,0.628c0.041,0.093,0.106,0.167,0.197,0.222c0.091,0.055,0.221,0.083,0.39,0.083
		C92.577,74.487,92.744,74.472,92.952,74.442z"/>
	<path fill="#FFFFFF" d="M93.644,72.094c0-1.249,0.347-2.173,1.041-2.774c0.58-0.5,1.287-0.749,2.12-0.749
		c0.927,0,1.684,0.304,2.272,0.911c0.588,0.607,0.882,1.446,0.882,2.517c0,0.868-0.13,1.55-0.391,2.047
		c-0.26,0.498-0.639,0.884-1.136,1.159c-0.498,0.275-1.04,0.413-1.628,0.413c-0.944,0-1.707-0.303-2.289-0.908
		C93.935,74.104,93.644,73.232,93.644,72.094z M94.818,72.094c0,0.863,0.188,1.51,0.565,1.939c0.376,0.43,0.851,0.645,1.422,0.645
		c0.567,0,1.039-0.216,1.416-0.647s0.565-1.09,0.565-1.974c0-0.833-0.189-1.465-0.568-1.895c-0.379-0.429-0.85-0.644-1.413-0.644
		c-0.571,0-1.045,0.214-1.422,0.641S94.818,71.23,94.818,72.094z"/>
	<path fill="#FFFFFF" d="M100.842,73.452l1.13-0.178c0.063,0.453,0.24,0.8,0.53,1.041c0.29,0.241,0.695,0.362,1.216,0.362
		c0.525,0,0.914-0.107,1.168-0.32c0.254-0.214,0.381-0.465,0.381-0.752c0-0.258-0.113-0.461-0.337-0.609
		c-0.157-0.102-0.546-0.23-1.168-0.387c-0.838-0.211-1.418-0.395-1.743-0.549c-0.323-0.155-0.569-0.368-0.736-0.642
		c-0.167-0.272-0.25-0.574-0.25-0.904c0-0.3,0.069-0.579,0.207-0.835c0.137-0.256,0.325-0.468,0.562-0.638
		c0.178-0.131,0.42-0.242,0.727-0.333c0.307-0.091,0.636-0.137,0.987-0.137c0.529,0,0.993,0.076,1.394,0.229
		c0.4,0.152,0.695,0.358,0.885,0.619c0.19,0.26,0.321,0.608,0.394,1.044l-1.117,0.152c-0.051-0.347-0.198-0.618-0.441-0.813
		c-0.244-0.195-0.587-0.292-1.032-0.292c-0.525,0-0.899,0.087-1.124,0.26s-0.336,0.376-0.336,0.609c0,0.148,0.046,0.281,0.14,0.4
		c0.093,0.123,0.239,0.224,0.438,0.305c0.114,0.042,0.451,0.14,1.009,0.292c0.808,0.216,1.372,0.393,1.691,0.53
		c0.32,0.137,0.57,0.337,0.752,0.6c0.183,0.262,0.273,0.588,0.273,0.978c0,0.381-0.111,0.739-0.334,1.076
		c-0.221,0.336-0.542,0.597-0.961,0.78c-0.419,0.185-0.893,0.276-1.422,0.276c-0.876,0-1.543-0.182-2.002-0.546
		C101.262,74.707,100.969,74.167,100.842,73.452z"/>
	<path fill="#FFFFFF" d="M111.36,78.061l-0.127-1.073c0.249,0.068,0.467,0.102,0.653,0.102c0.254,0,0.457-0.042,0.609-0.127
		s0.277-0.203,0.374-0.355c0.072-0.114,0.189-0.398,0.35-0.851c0.021-0.063,0.055-0.157,0.102-0.279l-2.559-6.754h1.232l1.402,3.904
		c0.182,0.495,0.345,1.016,0.488,1.562c0.132-0.525,0.288-1.037,0.471-1.536l1.44-3.929h1.143l-2.564,6.855
		c-0.274,0.741-0.489,1.25-0.642,1.53c-0.203,0.376-0.436,0.653-0.697,0.829c-0.263,0.175-0.576,0.263-0.939,0.263
		C111.876,78.2,111.631,78.154,111.36,78.061z"/>
	<path fill="#FFFFFF" d="M125.921,72.995l1.124,0.146c-0.122,0.774-0.437,1.381-0.942,1.818c-0.506,0.438-1.127,0.657-1.863,0.657
		c-0.922,0-1.664-0.302-2.225-0.904c-0.561-0.604-0.842-1.468-0.842-2.593c0-0.728,0.121-1.365,0.362-1.911s0.608-0.955,1.101-1.229
		c0.494-0.272,1.03-0.409,1.609-0.409c0.732,0,1.332,0.185,1.797,0.556c0.465,0.37,0.764,0.896,0.895,1.577l-1.11,0.171
		c-0.106-0.453-0.293-0.793-0.562-1.022c-0.27-0.229-0.594-0.343-0.975-0.343c-0.576,0-1.043,0.206-1.402,0.619
		c-0.36,0.412-0.54,1.065-0.54,1.958c0,0.906,0.173,1.563,0.521,1.974s0.8,0.616,1.358,0.616c0.448,0,0.823-0.138,1.124-0.413
		C125.65,73.99,125.841,73.566,125.921,72.995z"/>
	<path fill="#FFFFFF" d="M128.01,75.464v-6.741h1.028v1.022c0.262-0.478,0.504-0.793,0.727-0.946s0.467-0.229,0.733-0.229
		c0.386,0,0.776,0.123,1.175,0.368l-0.395,1.06c-0.279-0.165-0.559-0.248-0.838-0.248c-0.249,0-0.474,0.075-0.672,0.226
		c-0.199,0.15-0.342,0.358-0.426,0.625c-0.127,0.406-0.19,0.851-0.19,1.333v3.529H128.01z"/>
	<path fill="#FFFFFF" d="M132.358,67.473v-1.314h1.143v1.314H132.358z M132.358,75.464v-6.741h1.143v6.741H132.358z"/>
	<path fill="#FFFFFF" d="M137.734,74.442l0.165,1.009c-0.322,0.068-0.609,0.102-0.863,0.102c-0.414,0-0.736-0.065-0.965-0.197
		s-0.389-0.304-0.482-0.517c-0.094-0.214-0.14-0.664-0.14-1.349v-3.878h-0.838v-0.889h0.838v-1.669l1.136-0.686v2.355h1.149v0.889
		h-1.149v3.942c0,0.326,0.021,0.535,0.061,0.628c0.041,0.093,0.105,0.167,0.197,0.222c0.091,0.055,0.221,0.083,0.391,0.083
		C137.36,74.487,137.526,74.472,137.734,74.442z"/>
	<path fill="#FFFFFF" d="M143.466,73.293l1.182,0.146c-0.187,0.69-0.531,1.225-1.035,1.606s-1.146,0.571-1.93,0.571
		c-0.986,0-1.768-0.304-2.346-0.911c-0.578-0.607-0.866-1.458-0.866-2.555c0-1.134,0.292-2.014,0.876-2.641s1.342-0.939,2.272-0.939
		c0.901,0,1.638,0.307,2.209,0.92s0.856,1.477,0.856,2.59c0,0.068-0.002,0.169-0.006,0.305h-5.027
		c0.043,0.741,0.252,1.308,0.629,1.701c0.376,0.394,0.846,0.59,1.408,0.59c0.42,0,0.777-0.11,1.073-0.33
		S143.293,73.776,143.466,73.293z M139.715,71.446h3.765c-0.051-0.567-0.195-0.992-0.432-1.276c-0.364-0.44-0.836-0.66-1.416-0.66
		c-0.525,0-0.966,0.176-1.324,0.527C139.95,70.388,139.753,70.858,139.715,71.446z"/>
	<path fill="#FFFFFF" d="M146.069,75.464v-6.741h1.027v1.022c0.263-0.478,0.506-0.793,0.727-0.946
		c0.223-0.152,0.467-0.229,0.734-0.229c0.385,0,0.775,0.123,1.174,0.368l-0.394,1.06c-0.279-0.165-0.559-0.248-0.838-0.248
		c-0.249,0-0.474,0.075-0.673,0.226c-0.199,0.15-0.341,0.358-0.426,0.625c-0.127,0.406-0.189,0.851-0.189,1.333v3.529H146.069z"/>
	<path fill="#FFFFFF" d="M150.417,67.473v-1.314h1.143v1.314H150.417z M150.417,75.464v-6.741h1.143v6.741H150.417z"/>
	<path fill="#FFFFFF" d="M152.874,72.094c0-1.249,0.347-2.173,1.041-2.774c0.579-0.5,1.286-0.749,2.119-0.749
		c0.928,0,1.685,0.304,2.273,0.911c0.588,0.607,0.882,1.446,0.882,2.517c0,0.868-0.13,1.55-0.39,2.047
		c-0.262,0.498-0.64,0.884-1.137,1.159c-0.498,0.275-1.04,0.413-1.629,0.413c-0.943,0-1.706-0.303-2.287-0.908
		C153.165,74.104,152.874,73.232,152.874,72.094z M154.048,72.094c0,0.863,0.188,1.51,0.564,1.939
		c0.377,0.43,0.852,0.645,1.422,0.645c0.567,0,1.039-0.216,1.416-0.647s0.564-1.09,0.564-1.974c0-0.833-0.189-1.465-0.568-1.895
		c-0.378-0.429-0.849-0.644-1.412-0.644c-0.57,0-1.045,0.214-1.422,0.641C154.236,70.585,154.048,71.23,154.048,72.094z"/>
	<path fill="#FFFFFF" d="M160.071,73.452l1.131-0.178c0.063,0.453,0.24,0.8,0.529,1.041c0.29,0.241,0.695,0.362,1.216,0.362
		c0.524,0,0.914-0.107,1.168-0.32c0.254-0.214,0.381-0.465,0.381-0.752c0-0.258-0.112-0.461-0.337-0.609
		c-0.156-0.102-0.545-0.23-1.168-0.387c-0.838-0.211-1.418-0.395-1.742-0.549c-0.324-0.155-0.568-0.368-0.736-0.642
		c-0.167-0.272-0.25-0.574-0.25-0.904c0-0.3,0.068-0.579,0.205-0.835c0.139-0.256,0.326-0.468,0.563-0.638
		c0.178-0.131,0.42-0.242,0.727-0.333c0.307-0.091,0.637-0.137,0.987-0.137c0.528,0,0.993,0.076,1.394,0.229
		s0.695,0.358,0.885,0.619c0.191,0.26,0.322,0.608,0.395,1.044l-1.117,0.152c-0.051-0.347-0.198-0.618-0.441-0.813
		c-0.244-0.195-0.588-0.292-1.031-0.292c-0.525,0-0.9,0.087-1.124,0.26s-0.337,0.376-0.337,0.609c0,0.148,0.047,0.281,0.141,0.4
		c0.093,0.123,0.238,0.224,0.438,0.305c0.114,0.042,0.451,0.14,1.01,0.292c0.808,0.216,1.371,0.393,1.691,0.53
		c0.319,0.137,0.57,0.337,0.752,0.6s0.273,0.588,0.273,0.978c0,0.381-0.111,0.739-0.334,1.076c-0.223,0.336-0.543,0.597-0.961,0.78
		c-0.42,0.185-0.894,0.276-1.422,0.276c-0.877,0-1.544-0.182-2.004-0.546C160.491,74.707,160.198,74.167,160.071,73.452z"/>
	<path fill="#FFFFFF" d="M175.015,75.464v-0.851c-0.428,0.668-1.057,1.003-1.886,1.003c-0.538,0-1.032-0.148-1.481-0.444
		c-0.451-0.296-0.801-0.71-1.049-1.241c-0.246-0.531-0.371-1.141-0.371-1.831c0-0.673,0.113-1.283,0.337-1.831
		c0.224-0.548,0.561-0.968,1.009-1.26c0.449-0.292,0.951-0.438,1.505-0.438c0.406,0,0.769,0.086,1.085,0.257
		c0.318,0.172,0.576,0.395,0.775,0.67v-3.339h1.136v9.306H175.015z M171.402,72.1c0,0.863,0.183,1.509,0.546,1.936
		s0.793,0.641,1.289,0.641c0.499,0,0.924-0.204,1.271-0.612c0.35-0.409,0.524-1.032,0.524-1.87c0-0.922-0.178-1.6-0.533-2.031
		s-0.794-0.647-1.313-0.647c-0.508,0-0.933,0.208-1.273,0.622C171.573,70.553,171.402,71.207,171.402,72.1z"/>
	<path fill="#FFFFFF" d="M182.485,73.293l1.181,0.146c-0.187,0.69-0.531,1.225-1.034,1.606c-0.504,0.381-1.147,0.571-1.93,0.571
		c-0.986,0-1.768-0.304-2.346-0.911c-0.578-0.607-0.867-1.458-0.867-2.555c0-1.134,0.293-2.014,0.877-2.641s1.341-0.939,2.271-0.939
		c0.902,0,1.639,0.307,2.209,0.92c0.572,0.614,0.857,1.477,0.857,2.59c0,0.068-0.002,0.169-0.006,0.305h-5.027
		c0.042,0.741,0.252,1.308,0.628,1.701s0.847,0.59,1.409,0.59c0.419,0,0.776-0.11,1.072-0.33
		C182.077,74.127,182.312,73.776,182.485,73.293z M178.733,71.446h3.765c-0.051-0.567-0.194-0.992-0.432-1.276
		c-0.364-0.44-0.836-0.66-1.415-0.66c-0.525,0-0.967,0.176-1.324,0.527S178.772,70.858,178.733,71.446z"/>
	<path fill="#FFFFFF" d="M26.428,88.894l1.181,0.146c-0.186,0.69-0.531,1.225-1.035,1.606s-1.147,0.571-1.93,0.571
		c-0.986,0-1.768-0.304-2.345-0.911c-0.578-0.607-0.867-1.459-0.867-2.555c0-1.134,0.292-2.014,0.876-2.641s1.341-0.939,2.272-0.939
		c0.901,0,1.638,0.307,2.209,0.92s0.857,1.477,0.857,2.59c0,0.068-0.002,0.169-0.006,0.305h-5.027
		c0.042,0.741,0.252,1.308,0.628,1.701s0.846,0.59,1.409,0.59c0.419,0,0.776-0.11,1.073-0.33S26.255,89.376,26.428,88.894z
		 M22.677,87.046h3.764c-0.051-0.567-0.195-0.992-0.432-1.276c-0.364-0.44-0.836-0.66-1.416-0.66c-0.525,0-0.966,0.176-1.324,0.527
		C22.913,85.988,22.715,86.458,22.677,87.046z"/>
	<path fill="#FFFFFF" d="M30.916,91.064l-2.564-6.741h1.206l1.447,4.037c0.157,0.436,0.3,0.889,0.432,1.358
		c0.102-0.355,0.243-0.783,0.425-1.282l1.498-4.113h1.174l-2.552,6.741H30.916z"/>
	<path fill="#FFFFFF" d="M39.942,90.233c-0.423,0.36-0.831,0.614-1.222,0.762c-0.391,0.148-0.811,0.222-1.26,0.222
		c-0.741,0-1.31-0.181-1.708-0.542c-0.398-0.362-0.597-0.824-0.597-1.387c0-0.33,0.075-0.631,0.225-0.905
		c0.15-0.272,0.347-0.492,0.591-0.657c0.243-0.165,0.517-0.29,0.822-0.375c0.224-0.059,0.563-0.116,1.016-0.171
		c0.922-0.11,1.602-0.241,2.038-0.394c0.004-0.157,0.006-0.256,0.006-0.298c0-0.465-0.108-0.793-0.324-0.984
		c-0.292-0.258-0.726-0.387-1.301-0.387c-0.538,0-0.934,0.094-1.19,0.282c-0.256,0.188-0.446,0.522-0.568,1l-1.117-0.152
		c0.102-0.478,0.269-0.864,0.501-1.158c0.233-0.294,0.569-0.521,1.009-0.68c0.44-0.158,0.95-0.238,1.53-0.238
		c0.576,0,1.043,0.068,1.403,0.203s0.624,0.306,0.793,0.511c0.169,0.205,0.288,0.464,0.355,0.777
		c0.038,0.195,0.057,0.546,0.057,1.054v1.523c0,1.062,0.024,1.734,0.073,2.016c0.048,0.281,0.145,0.551,0.289,0.809h-1.193
		C40.052,90.828,39.976,90.55,39.942,90.233z M39.847,87.681c-0.415,0.169-1.037,0.313-1.866,0.432
		c-0.47,0.068-0.802,0.144-0.997,0.229s-0.345,0.208-0.451,0.371c-0.106,0.163-0.159,0.344-0.159,0.543
		c0,0.305,0.115,0.559,0.346,0.762c0.23,0.203,0.568,0.305,1.012,0.305c0.44,0,0.832-0.096,1.174-0.289
		c0.343-0.192,0.595-0.456,0.755-0.79c0.123-0.258,0.184-0.639,0.184-1.143V87.681z"/>
	<path fill="#FFFFFF" d="M42.748,91.064v-9.306h1.143v9.306H42.748z"/>
	<path fill="#FFFFFF" d="M50.08,91.064v-0.99c-0.525,0.762-1.238,1.143-2.139,1.143c-0.398,0-0.769-0.076-1.114-0.229
		c-0.345-0.152-0.601-0.344-0.769-0.575c-0.167-0.23-0.284-0.513-0.352-0.847c-0.046-0.224-0.07-0.58-0.07-1.066v-4.177h1.143v3.739
		c0,0.597,0.023,0.999,0.07,1.206c0.072,0.3,0.224,0.536,0.457,0.708c0.233,0.171,0.521,0.257,0.863,0.257s0.665-0.088,0.965-0.264
		c0.3-0.175,0.513-0.415,0.638-0.717c0.125-0.303,0.187-0.742,0.187-1.317v-3.612h1.143v6.741H50.08z"/>
	<path fill="#FFFFFF" d="M57.291,90.233c-0.423,0.36-0.831,0.614-1.222,0.762c-0.392,0.148-0.812,0.222-1.26,0.222
		c-0.741,0-1.31-0.181-1.708-0.542c-0.398-0.362-0.597-0.824-0.597-1.387c0-0.33,0.075-0.631,0.226-0.905
		c0.15-0.272,0.347-0.492,0.59-0.657c0.244-0.165,0.518-0.29,0.822-0.375c0.224-0.059,0.563-0.116,1.016-0.171
		c0.922-0.11,1.602-0.241,2.038-0.394c0.004-0.157,0.006-0.256,0.006-0.298c0-0.465-0.108-0.793-0.324-0.984
		c-0.292-0.258-0.726-0.387-1.301-0.387c-0.538,0-0.934,0.094-1.19,0.282c-0.256,0.188-0.445,0.522-0.568,1l-1.117-0.152
		c0.102-0.478,0.269-0.864,0.501-1.158c0.233-0.294,0.569-0.521,1.009-0.68c0.44-0.158,0.95-0.238,1.53-0.238
		c0.576,0,1.043,0.068,1.403,0.203s0.624,0.306,0.793,0.511c0.169,0.205,0.288,0.464,0.355,0.777
		c0.038,0.195,0.057,0.546,0.057,1.054v1.523c0,1.062,0.024,1.734,0.073,2.016c0.049,0.281,0.145,0.551,0.289,0.809h-1.193
		C57.4,90.828,57.324,90.55,57.291,90.233z M57.195,87.681c-0.415,0.169-1.037,0.313-1.866,0.432
		c-0.47,0.068-0.802,0.144-0.997,0.229s-0.345,0.208-0.451,0.371c-0.106,0.163-0.159,0.344-0.159,0.543
		c0,0.305,0.115,0.559,0.346,0.762c0.231,0.203,0.568,0.305,1.013,0.305c0.44,0,0.832-0.096,1.174-0.289
		c0.343-0.192,0.595-0.456,0.755-0.79c0.123-0.258,0.184-0.639,0.184-1.143V87.681z"/>
	<path fill="#FFFFFF" d="M64.521,88.595l1.124,0.146c-0.123,0.774-0.437,1.38-0.942,1.819c-0.506,0.438-1.127,0.657-1.863,0.657
		c-0.922,0-1.664-0.301-2.225-0.905c-0.561-0.603-0.841-1.467-0.841-2.593c0-0.728,0.121-1.365,0.362-1.911s0.608-0.956,1.102-1.228
		c0.493-0.273,1.029-0.41,1.609-0.41c0.732,0,1.331,0.185,1.796,0.555c0.465,0.371,0.764,0.896,0.895,1.578l-1.111,0.171
		c-0.106-0.453-0.293-0.793-0.562-1.022c-0.269-0.229-0.594-0.343-0.975-0.343c-0.576,0-1.043,0.207-1.403,0.619
		c-0.36,0.413-0.54,1.065-0.54,1.958c0,0.906,0.173,1.563,0.521,1.974s0.8,0.616,1.358,0.616c0.449,0,0.823-0.138,1.124-0.413
		S64.44,89.167,64.521,88.595z"/>
	<path fill="#FFFFFF" d="M66.628,83.073v-1.314h1.143v1.314H66.628z M66.628,91.064v-6.741h1.143v6.741H66.628z"/>
	<path fill="#FFFFFF" d="M69.084,87.694c0-1.249,0.347-2.173,1.041-2.774c0.58-0.5,1.287-0.749,2.12-0.749
		c0.927,0,1.684,0.304,2.272,0.911c0.588,0.607,0.882,1.446,0.882,2.517c0,0.868-0.13,1.55-0.39,2.047
		c-0.261,0.497-0.639,0.883-1.137,1.158c-0.497,0.275-1.04,0.413-1.628,0.413c-0.944,0-1.707-0.303-2.288-0.908
		C69.375,89.704,69.084,88.832,69.084,87.694z M70.259,87.694c0,0.863,0.188,1.51,0.565,1.939c0.376,0.429,0.851,0.644,1.422,0.644
		c0.567,0,1.039-0.216,1.416-0.647s0.565-1.09,0.565-1.974c0-0.833-0.189-1.465-0.568-1.895c-0.378-0.43-0.849-0.645-1.412-0.645
		c-0.571,0-1.045,0.214-1.422,0.641S70.259,86.831,70.259,87.694z M71.611,83.485l0.844-1.777h1.498l-1.396,1.777H71.611z"/>
	<path fill="#FFFFFF" d="M76.74,91.064v-6.741h1.028v0.958c0.495-0.741,1.21-1.111,2.146-1.111c0.406,0,0.78,0.073,1.12,0.219
		c0.341,0.146,0.596,0.337,0.765,0.574s0.288,0.519,0.355,0.844c0.042,0.211,0.063,0.582,0.063,1.111v4.145h-1.143v-4.101
		c0-0.465-0.044-0.813-0.133-1.044c-0.089-0.23-0.247-0.415-0.473-0.552c-0.227-0.138-0.492-0.207-0.797-0.207
		c-0.487,0-0.907,0.154-1.26,0.463c-0.354,0.309-0.53,0.895-0.53,1.758v3.682H76.74z"/>
	<path fill="#FFFFFF" d="M20.938,116.264l3.574-9.306h1.327l3.809,9.306h-1.403l-1.085-2.818h-3.891l-1.022,2.818H20.938z
		 M23.623,112.443h3.155l-0.971-2.577c-0.296-0.783-0.516-1.426-0.66-1.93c-0.119,0.597-0.286,1.189-0.501,1.777L23.623,112.443z"/>
	<path fill="#FFFFFF" d="M34.883,113.795l1.124,0.146c-0.123,0.774-0.437,1.381-0.943,1.818c-0.505,0.438-1.126,0.657-1.863,0.657
		c-0.922,0-1.664-0.302-2.225-0.904c-0.561-0.604-0.841-1.468-0.841-2.594c0-0.728,0.121-1.364,0.362-1.91s0.608-0.955,1.101-1.229
		c0.493-0.272,1.03-0.409,1.609-0.409c0.732,0,1.331,0.186,1.796,0.556s0.764,0.896,0.895,1.577l-1.111,0.171
		c-0.106-0.452-0.293-0.793-0.562-1.021c-0.269-0.229-0.593-0.343-0.974-0.343c-0.576,0-1.043,0.206-1.403,0.619
		c-0.36,0.412-0.54,1.065-0.54,1.958c0,0.905,0.173,1.563,0.521,1.975c0.347,0.41,0.8,0.615,1.358,0.615
		c0.449,0,0.823-0.138,1.124-0.412C34.612,114.79,34.803,114.366,34.883,113.795z"/>
	<path fill="#FFFFFF" d="M39.479,115.243l0.165,1.009c-0.322,0.067-0.609,0.102-0.863,0.102c-0.415,0-0.736-0.065-0.965-0.196
		c-0.229-0.132-0.389-0.304-0.482-0.518s-0.14-0.664-0.14-1.35v-3.878h-0.838v-0.889h0.838v-1.669l1.136-0.686v2.354h1.149v0.889
		H38.33v3.942c0,0.325,0.02,0.535,0.06,0.628c0.041,0.093,0.106,0.167,0.197,0.222c0.091,0.056,0.221,0.083,0.39,0.083
		C39.104,115.287,39.271,115.272,39.479,115.243z"/>
	<path fill="#FFFFFF" d="M40.603,108.272v-1.313h1.143v1.313H40.603z M40.603,116.264v-6.741h1.143v6.741H40.603z"/>
	<path fill="#FFFFFF" d="M45.357,116.264l-2.564-6.741h1.206l1.447,4.037c0.157,0.436,0.3,0.889,0.432,1.358
		c0.102-0.355,0.243-0.783,0.425-1.282l1.498-4.113h1.174l-2.552,6.741H45.357z"/>
	<path fill="#FFFFFF" d="M49.991,108.272v-1.313h1.143v1.313H49.991z M49.991,116.264v-6.741h1.143v6.741H49.991z"/>
	<path fill="#FFFFFF" d="M57.246,116.264v-0.851c-0.427,0.669-1.056,1.003-1.885,1.003c-0.538,0-1.031-0.148-1.482-0.444
		c-0.45-0.296-0.8-0.71-1.047-1.241c-0.248-0.531-0.372-1.142-0.372-1.831c0-0.673,0.112-1.283,0.336-1.831s0.561-0.969,1.009-1.26
		c0.449-0.293,0.95-0.438,1.504-0.438c0.406,0,0.768,0.086,1.085,0.257c0.317,0.172,0.576,0.395,0.774,0.67v-3.339h1.136v9.306
		H57.246z M53.634,112.9c0,0.863,0.182,1.509,0.546,1.937c0.364,0.427,0.793,0.641,1.289,0.641c0.5,0,0.923-0.204,1.273-0.612
		c0.349-0.408,0.523-1.032,0.523-1.87c0-0.922-0.178-1.6-0.533-2.031s-0.793-0.646-1.314-0.646c-0.508,0-0.932,0.207-1.273,0.621
		C53.805,111.353,53.634,112.007,53.634,112.9z"/>
	<path fill="#FFFFFF" d="M64.501,115.432c-0.423,0.36-0.831,0.614-1.222,0.762c-0.392,0.148-0.812,0.223-1.26,0.223
		c-0.741,0-1.31-0.181-1.708-0.543c-0.398-0.361-0.597-0.824-0.597-1.387c0-0.33,0.075-0.632,0.226-0.904
		c0.15-0.273,0.347-0.492,0.59-0.657c0.244-0.165,0.518-0.29,0.822-0.374c0.224-0.06,0.563-0.117,1.016-0.172
		c0.922-0.11,1.602-0.241,2.038-0.394c0.004-0.156,0.006-0.256,0.006-0.298c0-0.466-0.108-0.794-0.324-0.984
		c-0.292-0.258-0.726-0.387-1.301-0.387c-0.538,0-0.934,0.094-1.19,0.282c-0.256,0.188-0.445,0.521-0.568,0.999l-1.117-0.152
		c0.102-0.478,0.269-0.864,0.501-1.158s0.569-0.521,1.009-0.679c0.44-0.159,0.95-0.238,1.53-0.238c0.576,0,1.043,0.067,1.403,0.203
		s0.624,0.306,0.793,0.511s0.288,0.465,0.355,0.777c0.038,0.195,0.057,0.547,0.057,1.055v1.523c0,1.062,0.024,1.733,0.073,2.015
		c0.049,0.281,0.145,0.552,0.289,0.81H64.73C64.611,116.027,64.535,115.75,64.501,115.432z M64.406,112.881
		c-0.415,0.169-1.037,0.313-1.866,0.432c-0.47,0.067-0.802,0.144-0.997,0.229c-0.195,0.084-0.345,0.208-0.451,0.371
		s-0.159,0.344-0.159,0.543c0,0.305,0.115,0.559,0.346,0.762c0.231,0.203,0.568,0.305,1.013,0.305c0.44,0,0.832-0.097,1.174-0.289
		s0.595-0.456,0.755-0.791c0.123-0.258,0.184-0.639,0.184-1.143V112.881z"/>
	<path fill="#FFFFFF" d="M71.706,116.264v-0.851c-0.427,0.669-1.056,1.003-1.885,1.003c-0.538,0-1.031-0.148-1.482-0.444
		c-0.45-0.296-0.8-0.71-1.047-1.241c-0.248-0.531-0.372-1.142-0.372-1.831c0-0.673,0.112-1.283,0.336-1.831s0.561-0.969,1.009-1.26
		c0.449-0.293,0.95-0.438,1.504-0.438c0.406,0,0.768,0.086,1.085,0.257c0.317,0.172,0.576,0.395,0.774,0.67v-3.339h1.136v9.306
		H71.706z M68.094,112.9c0,0.863,0.182,1.509,0.546,1.937c0.364,0.427,0.793,0.641,1.289,0.641c0.5,0,0.923-0.204,1.273-0.612
		c0.349-0.408,0.523-1.032,0.523-1.87c0-0.922-0.178-1.6-0.533-2.031s-0.793-0.646-1.314-0.646c-0.508,0-0.932,0.207-1.273,0.621
		C68.265,111.353,68.094,112.007,68.094,112.9z"/>
	<path fill="#FFFFFF" d="M79.177,114.093l1.181,0.146c-0.186,0.69-0.531,1.226-1.035,1.606s-1.147,0.571-1.93,0.571
		c-0.986,0-1.768-0.304-2.345-0.911c-0.578-0.607-0.867-1.459-0.867-2.555c0-1.134,0.292-2.015,0.876-2.641s1.341-0.939,2.272-0.939
		c0.901,0,1.638,0.307,2.209,0.921c0.571,0.613,0.857,1.477,0.857,2.59c0,0.067-0.002,0.169-0.006,0.305h-5.027
		c0.042,0.74,0.252,1.307,0.628,1.701c0.376,0.393,0.846,0.59,1.409,0.59c0.419,0,0.776-0.11,1.073-0.33
		S79.004,114.576,79.177,114.093z M75.426,112.247h3.764c-0.051-0.567-0.195-0.993-0.432-1.276c-0.364-0.44-0.836-0.66-1.416-0.66
		c-0.525,0-0.966,0.176-1.324,0.526C75.662,111.188,75.464,111.658,75.426,112.247z"/>
	<path fill="#FFFFFF" d="M81.335,114.252l1.13-0.178c0.063,0.452,0.24,0.799,0.53,1.041c0.29,0.24,0.695,0.361,1.215,0.361
		c0.525,0,0.914-0.106,1.168-0.32s0.381-0.465,0.381-0.752c0-0.259-0.112-0.462-0.336-0.609c-0.157-0.102-0.546-0.231-1.168-0.388
		c-0.838-0.212-1.419-0.395-1.742-0.549c-0.324-0.154-0.569-0.368-0.736-0.642c-0.167-0.272-0.251-0.574-0.251-0.904
		c0-0.301,0.069-0.579,0.206-0.835c0.138-0.256,0.325-0.469,0.562-0.638c0.178-0.131,0.42-0.242,0.727-0.333
		c0.307-0.091,0.636-0.137,0.987-0.137c0.529,0,0.994,0.076,1.393,0.229c0.4,0.152,0.695,0.358,0.886,0.619
		c0.19,0.26,0.322,0.608,0.394,1.044l-1.117,0.152c-0.051-0.347-0.198-0.618-0.441-0.813c-0.243-0.194-0.587-0.292-1.031-0.292
		c-0.525,0-0.899,0.087-1.124,0.261c-0.224,0.173-0.336,0.376-0.336,0.609c0,0.147,0.046,0.281,0.14,0.399
		c0.093,0.123,0.239,0.225,0.438,0.305c0.114,0.042,0.451,0.14,1.009,0.292c0.808,0.216,1.372,0.393,1.691,0.53
		c0.32,0.138,0.57,0.337,0.752,0.6s0.273,0.588,0.273,0.978c0,0.381-0.111,0.739-0.333,1.076c-0.223,0.336-0.543,0.597-0.962,0.78
		c-0.419,0.185-0.893,0.276-1.422,0.276c-0.876,0-1.543-0.182-2.003-0.546C81.755,115.506,81.462,114.967,81.335,114.252z"/>
	<path fill="#FFFFFF" d="M96.278,116.264v-0.851c-0.427,0.669-1.056,1.003-1.885,1.003c-0.538,0-1.032-0.148-1.482-0.444
		c-0.451-0.296-0.8-0.71-1.048-1.241c-0.247-0.531-0.371-1.142-0.371-1.831c0-0.673,0.112-1.283,0.336-1.831s0.561-0.969,1.009-1.26
		c0.449-0.293,0.95-0.438,1.504-0.438c0.406,0,0.768,0.086,1.085,0.257c0.317,0.172,0.576,0.395,0.774,0.67v-3.339h1.136v9.306
		H96.278z M92.666,112.9c0,0.863,0.182,1.509,0.546,1.937c0.364,0.427,0.793,0.641,1.289,0.641c0.5,0,0.924-0.204,1.272-0.612
		c0.35-0.408,0.524-1.032,0.524-1.87c0-0.922-0.178-1.6-0.533-2.031s-0.793-0.646-1.314-0.646c-0.508,0-0.932,0.207-1.272,0.621
		C92.836,111.353,92.666,112.007,92.666,112.9z"/>
	<path fill="#FFFFFF" d="M103.749,114.093l1.181,0.146c-0.186,0.69-0.531,1.226-1.035,1.606s-1.147,0.571-1.93,0.571
		c-0.986,0-1.768-0.304-2.346-0.911c-0.577-0.607-0.866-1.459-0.866-2.555c0-1.134,0.292-2.015,0.876-2.641s1.341-0.939,2.272-0.939
		c0.901,0,1.638,0.307,2.209,0.921c0.571,0.613,0.857,1.477,0.857,2.59c0,0.067-0.002,0.169-0.006,0.305h-5.028
		c0.042,0.74,0.252,1.307,0.628,1.701c0.376,0.393,0.846,0.59,1.409,0.59c0.419,0,0.776-0.11,1.073-0.33
		S103.576,114.576,103.749,114.093z M99.998,112.247h3.764c-0.051-0.567-0.195-0.993-0.432-1.276c-0.364-0.44-0.836-0.66-1.416-0.66
		c-0.525,0-0.966,0.176-1.323,0.526C100.233,111.188,100.036,111.658,99.998,112.247z"/>
	<path fill="#FFFFFF" d="M114.375,115.432c-0.423,0.36-0.831,0.614-1.222,0.762c-0.392,0.148-0.812,0.223-1.26,0.223
		c-0.741,0-1.311-0.181-1.708-0.543c-0.397-0.361-0.597-0.824-0.597-1.387c0-0.33,0.075-0.632,0.225-0.904
		c0.15-0.273,0.348-0.492,0.592-0.657c0.242-0.165,0.517-0.29,0.821-0.374c0.224-0.06,0.563-0.117,1.016-0.172
		c0.923-0.11,1.602-0.241,2.038-0.394c0.004-0.156,0.006-0.256,0.006-0.298c0-0.466-0.107-0.794-0.324-0.984
		c-0.291-0.258-0.725-0.387-1.301-0.387c-0.537,0-0.934,0.094-1.189,0.282c-0.257,0.188-0.446,0.521-0.568,0.999l-1.117-0.152
		c0.102-0.478,0.268-0.864,0.501-1.158s0.569-0.521,1.009-0.679c0.44-0.159,0.951-0.238,1.53-0.238c0.575,0,1.043,0.067,1.403,0.203
		c0.359,0.136,0.623,0.306,0.793,0.511s0.287,0.465,0.355,0.777c0.038,0.195,0.057,0.547,0.057,1.055v1.523
		c0,1.062,0.025,1.733,0.074,2.015c0.048,0.281,0.145,0.552,0.288,0.81h-1.193C114.485,116.027,114.409,115.75,114.375,115.432z
		 M114.28,112.881c-0.415,0.169-1.037,0.313-1.867,0.432c-0.469,0.067-0.801,0.144-0.996,0.229
		c-0.195,0.084-0.345,0.208-0.451,0.371c-0.105,0.163-0.158,0.344-0.158,0.543c0,0.305,0.115,0.559,0.346,0.762
		s0.568,0.305,1.013,0.305c0.44,0,0.831-0.097,1.175-0.289c0.342-0.192,0.594-0.456,0.755-0.791
		c0.122-0.258,0.185-0.639,0.185-1.143V112.881z"/>
	<path fill="#FFFFFF" d="M117.206,118.848v-9.325h1.041v0.876c0.246-0.343,0.522-0.6,0.832-0.771
		c0.309-0.171,0.684-0.257,1.123-0.257c0.576,0,1.084,0.148,1.523,0.444s0.772,0.714,0.996,1.254
		c0.225,0.539,0.337,1.131,0.337,1.773c0,0.69-0.124,1.312-0.372,1.863c-0.246,0.553-0.606,0.976-1.078,1.27
		c-0.473,0.294-0.969,0.441-1.488,0.441c-0.381,0-0.723-0.08-1.025-0.241s-0.551-0.364-0.746-0.609v3.282H117.206z M118.241,112.932
		c0,0.867,0.176,1.508,0.526,1.923s0.776,0.622,1.276,0.622c0.508,0,0.941-0.215,1.305-0.645c0.361-0.43,0.542-1.095,0.542-1.996
		c0-0.859-0.177-1.502-0.53-1.93s-0.775-0.641-1.266-0.641c-0.487,0-0.918,0.227-1.293,0.682
		C118.429,111.403,118.241,112.064,118.241,112.932z"/>
	<path fill="#FFFFFF" d="M124.423,116.264v-6.741h1.029v1.022c0.262-0.479,0.504-0.794,0.727-0.946s0.467-0.229,0.732-0.229
		c0.386,0,0.777,0.123,1.175,0.368l-0.394,1.061c-0.279-0.166-0.559-0.248-0.838-0.248c-0.25,0-0.475,0.075-0.673,0.226
		s-0.341,0.358-0.425,0.625c-0.127,0.406-0.191,0.851-0.191,1.333v3.529H124.423z"/>
	<path fill="#FFFFFF" d="M133.38,114.093l1.181,0.146c-0.187,0.69-0.531,1.226-1.034,1.606c-0.504,0.381-1.147,0.571-1.93,0.571
		c-0.986,0-1.768-0.304-2.346-0.911s-0.867-1.459-0.867-2.555c0-1.134,0.293-2.015,0.877-2.641s1.341-0.939,2.271-0.939
		c0.902,0,1.639,0.307,2.209,0.921c0.572,0.613,0.857,1.477,0.857,2.59c0,0.067-0.002,0.169-0.006,0.305h-5.027
		c0.042,0.74,0.252,1.307,0.628,1.701c0.376,0.393,0.847,0.59,1.409,0.59c0.419,0,0.776-0.11,1.072-0.33
		C132.972,114.927,133.206,114.576,133.38,114.093z M129.628,112.247h3.765c-0.051-0.567-0.194-0.993-0.432-1.276
		c-0.364-0.44-0.836-0.66-1.415-0.66c-0.525,0-0.967,0.176-1.324,0.526C129.864,111.188,129.667,111.658,129.628,112.247z"/>
	<path fill="#FFFFFF" d="M135.995,116.264v-6.741h1.028v0.958c0.495-0.74,1.21-1.11,2.146-1.11c0.406,0,0.779,0.073,1.121,0.219
		c0.34,0.146,0.595,0.338,0.764,0.575c0.17,0.236,0.288,0.518,0.355,0.844c0.043,0.212,0.064,0.582,0.064,1.111v4.145h-1.143v-4.101
		c0-0.466-0.045-0.813-0.134-1.044s-0.247-0.415-0.474-0.553c-0.226-0.138-0.491-0.206-0.796-0.206
		c-0.487,0-0.907,0.154-1.261,0.464c-0.353,0.309-0.529,0.895-0.529,1.758v3.682H135.995z"/>
	<path fill="#FFFFFF" d="M147.599,116.264v-0.851c-0.428,0.669-1.056,1.003-1.885,1.003c-0.538,0-1.031-0.148-1.482-0.444
		s-0.801-0.71-1.047-1.241c-0.248-0.531-0.372-1.142-0.372-1.831c0-0.673,0.112-1.283,0.337-1.831
		c0.224-0.548,0.561-0.969,1.009-1.26c0.448-0.293,0.95-0.438,1.505-0.438c0.406,0,0.768,0.086,1.085,0.257
		c0.317,0.172,0.575,0.395,0.774,0.67v-3.339h1.137v9.306H147.599z M143.987,112.9c0,0.863,0.182,1.509,0.545,1.937
		c0.364,0.427,0.794,0.641,1.289,0.641c0.5,0,0.924-0.204,1.273-0.612c0.348-0.408,0.523-1.032,0.523-1.87
		c0-0.922-0.178-1.6-0.533-2.031s-0.794-0.646-1.314-0.646c-0.508,0-0.932,0.207-1.273,0.621
		C144.157,111.353,143.987,112.007,143.987,112.9z"/>
	<path fill="#FFFFFF" d="M150.462,108.272v-1.313h1.143v1.313H150.462z M150.462,116.264v-6.741h1.143v6.741H150.462z"/>
	<path fill="#FFFFFF" d="M152.74,116.264v-0.927l4.291-4.926c-0.487,0.025-0.916,0.038-1.288,0.038h-2.749v-0.927h5.51v0.755
		l-3.649,4.279l-0.705,0.78c0.512-0.038,0.992-0.058,1.441-0.058h3.116v0.984H152.74z"/>
	<path fill="#FFFFFF" d="M164.242,115.432c-0.423,0.36-0.831,0.614-1.222,0.762c-0.392,0.148-0.812,0.223-1.26,0.223
		c-0.741,0-1.311-0.181-1.708-0.543c-0.397-0.361-0.597-0.824-0.597-1.387c0-0.33,0.075-0.632,0.225-0.904
		c0.15-0.273,0.348-0.492,0.592-0.657c0.242-0.165,0.517-0.29,0.821-0.374c0.224-0.06,0.563-0.117,1.016-0.172
		c0.923-0.11,1.602-0.241,2.038-0.394c0.004-0.156,0.006-0.256,0.006-0.298c0-0.466-0.107-0.794-0.324-0.984
		c-0.291-0.258-0.725-0.387-1.301-0.387c-0.537,0-0.934,0.094-1.189,0.282c-0.257,0.188-0.446,0.521-0.568,0.999l-1.117-0.152
		c0.102-0.478,0.268-0.864,0.501-1.158s0.569-0.521,1.009-0.679c0.44-0.159,0.951-0.238,1.53-0.238c0.575,0,1.043,0.067,1.403,0.203
		c0.359,0.136,0.623,0.306,0.793,0.511s0.287,0.465,0.355,0.777c0.038,0.195,0.057,0.547,0.057,1.055v1.523
		c0,1.062,0.025,1.733,0.074,2.015c0.048,0.281,0.145,0.552,0.288,0.81h-1.193C164.353,116.027,164.276,115.75,164.242,115.432z
		 M164.147,112.881c-0.415,0.169-1.037,0.313-1.867,0.432c-0.469,0.067-0.801,0.144-0.996,0.229
		c-0.195,0.084-0.345,0.208-0.451,0.371c-0.105,0.163-0.158,0.344-0.158,0.543c0,0.305,0.115,0.559,0.346,0.762
		s0.568,0.305,1.013,0.305c0.44,0,0.831-0.097,1.175-0.289c0.342-0.192,0.594-0.456,0.755-0.791
		c0.122-0.258,0.185-0.639,0.185-1.143V112.881z"/>
	<path fill="#FFFFFF" d="M165.62,118.879l0.215-0.971c0.229,0.059,0.408,0.088,0.54,0.088c0.233,0,0.406-0.077,0.521-0.231
		s0.172-0.54,0.172-1.158v-7.084h1.143v7.109c0,0.829-0.108,1.407-0.324,1.733c-0.275,0.423-0.732,0.635-1.371,0.635
		C166.206,119,165.907,118.959,165.62,118.879z M167.067,108.286v-1.327h1.143v1.327H167.067z"/>
	<path fill="#FFFFFF" d="M174.576,114.093l1.181,0.146c-0.186,0.69-0.531,1.226-1.035,1.606c-0.503,0.381-1.146,0.571-1.93,0.571
		c-0.985,0-1.768-0.304-2.346-0.911c-0.576-0.607-0.865-1.459-0.865-2.555c0-1.134,0.291-2.015,0.875-2.641s1.342-0.939,2.273-0.939
		c0.9,0,1.637,0.307,2.209,0.921c0.57,0.613,0.856,1.477,0.856,2.59c0,0.067-0.002,0.169-0.007,0.305h-5.027
		c0.043,0.74,0.252,1.307,0.629,1.701c0.377,0.393,0.846,0.59,1.409,0.59c0.419,0,0.776-0.11,1.073-0.33
		C174.168,114.927,174.403,114.576,174.576,114.093z M170.825,112.247h3.764c-0.051-0.567-0.195-0.993-0.432-1.276
		c-0.363-0.44-0.836-0.66-1.416-0.66c-0.524,0-0.965,0.176-1.322,0.526C171.061,111.188,170.862,111.658,170.825,112.247z"/>
	<path fill="#FFFFFF" d="M21.985,141.464v-9.306h6.729v1.098h-5.497v2.851h5.148v1.092h-5.148v3.167h5.713v1.099H21.985z"/>
	<path fill="#FFFFFF" d="M32.357,141.464l-2.564-6.741h1.206l1.447,4.037c0.157,0.436,0.3,0.889,0.432,1.358
		c0.102-0.355,0.243-0.783,0.425-1.282l1.498-4.113h1.174l-2.552,6.741H32.357z"/>
	<path fill="#FFFFFF" d="M36.991,133.473v-1.314h1.143v1.314H36.991z M36.991,141.464v-6.741h1.143v6.741H36.991z"/>
	<path fill="#FFFFFF" d="M44.246,141.464v-0.851c-0.427,0.669-1.056,1.003-1.885,1.003c-0.538,0-1.031-0.148-1.482-0.444
		c-0.45-0.296-0.8-0.71-1.047-1.241c-0.248-0.531-0.372-1.142-0.372-1.831c0-0.673,0.112-1.283,0.336-1.831s0.561-0.968,1.009-1.261
		c0.449-0.291,0.95-0.438,1.504-0.438c0.406,0,0.768,0.086,1.085,0.257c0.317,0.172,0.576,0.395,0.774,0.67v-3.339h1.136v9.306
		H44.246z M40.634,138.1c0,0.863,0.182,1.509,0.546,1.936c0.364,0.428,0.793,0.642,1.289,0.642c0.5,0,0.923-0.204,1.273-0.612
		c0.349-0.408,0.523-1.031,0.523-1.869c0-0.923-0.178-1.6-0.533-2.031s-0.793-0.648-1.314-0.648c-0.508,0-0.932,0.208-1.273,0.623
		C40.805,136.553,40.634,137.208,40.634,138.1z"/>
	<path fill="#FFFFFF" d="M51.717,139.293l1.181,0.146c-0.186,0.689-0.531,1.225-1.035,1.605s-1.147,0.571-1.93,0.571
		c-0.986,0-1.768-0.304-2.345-0.911c-0.578-0.607-0.867-1.459-0.867-2.555c0-1.134,0.292-2.015,0.876-2.641s1.341-0.939,2.272-0.939
		c0.901,0,1.638,0.307,2.209,0.92c0.571,0.614,0.857,1.478,0.857,2.59c0,0.068-0.002,0.17-0.006,0.305h-5.027
		c0.042,0.741,0.252,1.309,0.628,1.701c0.376,0.395,0.846,0.591,1.409,0.591c0.419,0,0.776-0.11,1.073-0.33
		S51.544,139.776,51.717,139.293z M47.966,137.446h3.764c-0.051-0.566-0.195-0.992-0.432-1.275c-0.364-0.44-0.836-0.66-1.416-0.66
		c-0.525,0-0.966,0.176-1.324,0.527C48.202,136.388,48.004,136.858,47.966,137.446z"/>
	<path fill="#FFFFFF" d="M54.333,141.464v-6.741h1.028v0.959c0.495-0.741,1.21-1.111,2.146-1.111c0.406,0,0.78,0.073,1.12,0.219
		c0.341,0.146,0.596,0.338,0.765,0.574c0.169,0.237,0.288,0.519,0.355,0.845c0.042,0.212,0.063,0.582,0.063,1.11v4.146h-1.143
		v-4.101c0-0.466-0.044-0.813-0.133-1.044s-0.247-0.415-0.473-0.553c-0.227-0.138-0.492-0.206-0.797-0.206
		c-0.487,0-0.907,0.154-1.26,0.463c-0.354,0.31-0.53,0.896-0.53,1.759v3.682H54.333z"/>
	<path fill="#FFFFFF" d="M65.961,138.995l1.124,0.146c-0.123,0.774-0.437,1.381-0.943,1.818c-0.505,0.438-1.126,0.657-1.863,0.657
		c-0.922,0-1.664-0.302-2.225-0.904c-0.561-0.604-0.841-1.468-0.841-2.593c0-0.729,0.121-1.365,0.362-1.911s0.608-0.955,1.101-1.229
		c0.493-0.272,1.03-0.409,1.609-0.409c0.732,0,1.331,0.186,1.796,0.556s0.764,0.896,0.895,1.577l-1.111,0.172
		c-0.106-0.453-0.293-0.794-0.562-1.022c-0.269-0.229-0.593-0.343-0.974-0.343c-0.576,0-1.043,0.206-1.403,0.619
		c-0.36,0.412-0.54,1.065-0.54,1.958c0,0.905,0.173,1.563,0.521,1.974c0.347,0.411,0.8,0.616,1.358,0.616
		c0.449,0,0.823-0.138,1.124-0.413C65.69,139.99,65.881,139.567,65.961,138.995z"/>
	<path fill="#FFFFFF" d="M68.069,133.473v-1.314h1.143v1.314H68.069z M68.069,141.464v-6.741h1.143v6.741H68.069z"/>
	<path fill="#FFFFFF" d="M75.35,140.633c-0.423,0.359-0.831,0.613-1.222,0.762c-0.391,0.147-0.811,0.222-1.26,0.222
		c-0.741,0-1.31-0.181-1.708-0.543c-0.398-0.361-0.597-0.824-0.597-1.387c0-0.33,0.075-0.632,0.225-0.904
		c0.15-0.273,0.347-0.492,0.591-0.657c0.243-0.165,0.517-0.29,0.822-0.375c0.224-0.059,0.563-0.116,1.016-0.171
		c0.922-0.11,1.602-0.241,2.038-0.394c0.004-0.156,0.006-0.256,0.006-0.299c0-0.465-0.108-0.793-0.324-0.983
		c-0.292-0.258-0.726-0.388-1.301-0.388c-0.538,0-0.934,0.095-1.19,0.283c-0.256,0.188-0.446,0.521-0.568,1l-1.117-0.152
		c0.102-0.479,0.269-0.865,0.501-1.159s0.569-0.521,1.009-0.679c0.44-0.159,0.95-0.238,1.53-0.238c0.576,0,1.043,0.067,1.403,0.203
		s0.624,0.306,0.793,0.511s0.288,0.465,0.355,0.778c0.038,0.194,0.057,0.545,0.057,1.053v1.523c0,1.063,0.024,1.734,0.073,2.016
		c0.048,0.281,0.145,0.552,0.289,0.81h-1.193C75.459,141.227,75.383,140.95,75.35,140.633z M75.254,138.081
		c-0.415,0.17-1.037,0.313-1.866,0.432c-0.47,0.068-0.802,0.145-0.997,0.229c-0.195,0.085-0.345,0.209-0.451,0.372
		s-0.159,0.344-0.159,0.542c0,0.305,0.115,0.559,0.346,0.762c0.23,0.203,0.568,0.305,1.012,0.305c0.44,0,0.832-0.096,1.174-0.288
		s0.595-0.456,0.755-0.79c0.123-0.259,0.184-0.64,0.184-1.143V138.081z"/>
	<path fill="#FFFFFF" d="M77.724,139.452l1.13-0.178c0.063,0.453,0.24,0.801,0.53,1.041c0.29,0.242,0.695,0.362,1.216,0.362
		c0.525,0,0.914-0.106,1.168-0.32s0.381-0.465,0.381-0.753c0-0.258-0.112-0.461-0.336-0.609c-0.157-0.102-0.546-0.23-1.168-0.387
		c-0.838-0.212-1.418-0.395-1.743-0.549c-0.323-0.154-0.569-0.368-0.736-0.642c-0.167-0.272-0.25-0.574-0.25-0.904
		c0-0.301,0.069-0.579,0.207-0.835c0.137-0.256,0.325-0.469,0.562-0.638c0.178-0.131,0.42-0.242,0.727-0.333
		c0.307-0.091,0.636-0.137,0.987-0.137c0.529,0,0.993,0.076,1.394,0.229c0.399,0.152,0.695,0.358,0.885,0.619
		c0.19,0.26,0.322,0.608,0.394,1.044l-1.117,0.152c-0.051-0.347-0.198-0.618-0.441-0.813c-0.244-0.194-0.587-0.292-1.032-0.292
		c-0.525,0-0.899,0.087-1.124,0.26c-0.224,0.174-0.336,0.377-0.336,0.609c0,0.148,0.046,0.282,0.14,0.4
		c0.093,0.123,0.239,0.225,0.438,0.305c0.114,0.042,0.451,0.14,1.009,0.292c0.808,0.216,1.372,0.393,1.692,0.53
		c0.319,0.138,0.57,0.337,0.752,0.6s0.273,0.588,0.273,0.978c0,0.381-0.111,0.739-0.333,1.076c-0.222,0.336-0.542,0.597-0.961,0.78
		c-0.419,0.185-0.893,0.276-1.422,0.276c-0.876,0-1.543-0.182-2.002-0.546C78.144,140.707,77.851,140.167,77.724,139.452z"/>
	<path fill="#FFFFFF" d="M92.666,141.464v-0.851c-0.427,0.669-1.056,1.003-1.885,1.003c-0.538,0-1.031-0.148-1.482-0.444
		c-0.45-0.296-0.8-0.71-1.047-1.241c-0.248-0.531-0.372-1.142-0.372-1.831c0-0.673,0.112-1.283,0.336-1.831s0.561-0.968,1.009-1.261
		c0.449-0.291,0.95-0.438,1.504-0.438c0.406,0,0.768,0.086,1.085,0.257c0.317,0.172,0.576,0.395,0.774,0.67v-3.339h1.136v9.306
		H92.666z M89.054,138.1c0,0.863,0.182,1.509,0.546,1.936c0.364,0.428,0.793,0.642,1.289,0.642c0.5,0,0.923-0.204,1.273-0.612
		c0.349-0.408,0.523-1.031,0.523-1.869c0-0.923-0.178-1.6-0.533-2.031s-0.793-0.648-1.314-0.648c-0.508,0-0.932,0.208-1.273,0.623
		C89.225,136.553,89.054,137.208,89.054,138.1z"/>
	<path fill="#FFFFFF" d="M100.137,139.293l1.181,0.146c-0.186,0.689-0.531,1.225-1.035,1.605s-1.147,0.571-1.93,0.571
		c-0.986,0-1.768-0.304-2.345-0.911c-0.578-0.607-0.867-1.459-0.867-2.555c0-1.134,0.292-2.015,0.876-2.641s1.341-0.939,2.272-0.939
		c0.901,0,1.638,0.307,2.209,0.92c0.571,0.614,0.857,1.478,0.857,2.59c0,0.068-0.002,0.17-0.006,0.305h-5.027
		c0.042,0.741,0.252,1.309,0.628,1.701c0.376,0.395,0.846,0.591,1.409,0.591c0.419,0,0.776-0.11,1.073-0.33
		S99.964,139.776,100.137,139.293z M96.386,137.446h3.764c-0.051-0.566-0.195-0.992-0.432-1.275c-0.364-0.44-0.836-0.66-1.416-0.66
		c-0.525,0-0.966,0.176-1.324,0.527C96.622,136.388,96.424,136.858,96.386,137.446z"/>
	<path fill="#FFFFFF" d="M106.364,144.047v-9.324h1.041v0.876c0.246-0.343,0.522-0.6,0.832-0.771
		c0.309-0.171,0.684-0.257,1.123-0.257c0.576,0,1.084,0.148,1.523,0.444s0.772,0.714,0.996,1.254
		c0.225,0.539,0.337,1.131,0.337,1.774c0,0.689-0.124,1.311-0.372,1.862c-0.246,0.553-0.606,0.976-1.078,1.27
		c-0.473,0.294-0.969,0.441-1.488,0.441c-0.381,0-0.723-0.08-1.025-0.241s-0.551-0.364-0.746-0.609v3.281H106.364z M107.399,138.131
		c0,0.868,0.176,1.509,0.526,1.924s0.776,0.622,1.276,0.622c0.508,0,0.941-0.215,1.305-0.645c0.361-0.43,0.542-1.095,0.542-1.996
		c0-0.859-0.177-1.502-0.53-1.93s-0.775-0.642-1.266-0.642c-0.487,0-0.918,0.228-1.293,0.683
		C107.587,136.603,107.399,137.264,107.399,138.131z"/>
	<path fill="#FFFFFF" d="M113.581,141.464v-6.741h1.029v1.021c0.262-0.478,0.504-0.793,0.727-0.945s0.467-0.229,0.732-0.229
		c0.386,0,0.777,0.123,1.175,0.368l-0.394,1.06c-0.279-0.164-0.559-0.247-0.838-0.247c-0.25,0-0.475,0.075-0.673,0.226
		s-0.341,0.358-0.425,0.625c-0.127,0.406-0.191,0.851-0.191,1.333v3.529H113.581z"/>
	<path fill="#FFFFFF" d="M117.498,138.094c0-1.249,0.347-2.174,1.041-2.774c0.579-0.499,1.286-0.749,2.12-0.749
		c0.927,0,1.684,0.304,2.272,0.911s0.882,1.446,0.882,2.517c0,0.867-0.129,1.55-0.391,2.047c-0.26,0.497-0.639,0.884-1.135,1.158
		c-0.498,0.275-1.041,0.413-1.629,0.413c-0.943,0-1.707-0.303-2.289-0.907C117.789,140.104,117.498,139.232,117.498,138.094z
		 M118.673,138.094c0,0.863,0.188,1.509,0.564,1.938s0.851,0.645,1.422,0.645c0.566,0,1.039-0.216,1.416-0.647
		c0.376-0.432,0.564-1.09,0.564-1.975c0-0.833-0.189-1.465-0.568-1.895s-0.85-0.645-1.412-0.645c-0.571,0-1.045,0.214-1.422,0.642
		S118.673,137.231,118.673,138.094z"/>
	<path fill="#FFFFFF" d="M129.526,141.464v-0.851c-0.427,0.669-1.055,1.003-1.885,1.003c-0.537,0-1.031-0.148-1.482-0.444
		s-0.799-0.71-1.047-1.241s-0.371-1.142-0.371-1.831c0-0.673,0.111-1.283,0.336-1.831s0.561-0.968,1.01-1.261
		c0.448-0.291,0.949-0.438,1.504-0.438c0.406,0,0.768,0.086,1.086,0.257c0.316,0.172,0.575,0.395,0.773,0.67v-3.339h1.137v9.306
		H129.526z M125.915,138.1c0,0.863,0.182,1.509,0.546,1.936c0.364,0.428,0.794,0.642,1.288,0.642c0.5,0,0.924-0.204,1.273-0.612
		s0.523-1.031,0.523-1.869c0-0.923-0.178-1.6-0.533-2.031s-0.793-0.648-1.314-0.648c-0.508,0-0.932,0.208-1.271,0.623
		C126.085,136.553,125.915,137.208,125.915,138.1z"/>
	<path fill="#FFFFFF" d="M136.802,141.464v-0.99c-0.525,0.762-1.238,1.143-2.14,1.143c-0.397,0-0.769-0.076-1.114-0.229
		c-0.345-0.152-0.601-0.344-0.768-0.574c-0.168-0.23-0.285-0.514-0.353-0.848c-0.046-0.225-0.069-0.58-0.069-1.066v-4.177h1.143
		v3.738c0,0.598,0.023,0.999,0.069,1.207c0.071,0.3,0.224,0.536,0.457,0.707c0.233,0.172,0.521,0.258,0.863,0.258
		s0.665-0.088,0.965-0.264s0.513-0.415,0.638-0.718s0.188-0.741,0.188-1.317v-3.611h1.143v6.741H136.802z"/>
	<path fill="#FFFFFF" d="M144.013,138.995l1.123,0.146c-0.123,0.774-0.438,1.381-0.943,1.818c-0.505,0.438-1.126,0.657-1.862,0.657
		c-0.923,0-1.664-0.302-2.226-0.904c-0.561-0.604-0.84-1.468-0.84-2.593c0-0.729,0.12-1.365,0.361-1.911s0.608-0.955,1.102-1.229
		c0.492-0.272,1.029-0.409,1.609-0.409c0.731,0,1.33,0.186,1.796,0.556s0.764,0.896,0.896,1.577l-1.111,0.172
		c-0.105-0.453-0.293-0.794-0.563-1.022c-0.268-0.229-0.593-0.343-0.974-0.343c-0.575,0-1.043,0.206-1.403,0.619
		c-0.359,0.412-0.539,1.065-0.539,1.958c0,0.905,0.174,1.563,0.521,1.974c0.347,0.411,0.8,0.616,1.358,0.616
		c0.449,0,0.823-0.138,1.123-0.413C143.741,139.99,143.932,139.567,144.013,138.995z"/>
	<path fill="#FFFFFF" d="M148.608,140.442l0.164,1.01c-0.321,0.067-0.609,0.102-0.863,0.102c-0.414,0-0.736-0.065-0.965-0.197
		c-0.229-0.131-0.389-0.303-0.482-0.517c-0.093-0.214-0.139-0.663-0.139-1.349v-3.879h-0.838v-0.889h0.838v-1.67l1.136-0.686v2.355
		h1.149v0.889h-1.149v3.941c0,0.326,0.021,0.536,0.06,0.629c0.041,0.093,0.106,0.167,0.197,0.223
		c0.092,0.055,0.221,0.082,0.391,0.082C148.233,140.487,148.4,140.472,148.608,140.442z"/>
	<path fill="#FFFFFF" d="M149.3,138.094c0-1.249,0.348-2.174,1.041-2.774c0.58-0.499,1.287-0.749,2.12-0.749
		c0.927,0,1.685,0.304,2.272,0.911s0.883,1.446,0.883,2.517c0,0.867-0.131,1.55-0.391,2.047s-0.639,0.884-1.137,1.158
		c-0.497,0.275-1.039,0.413-1.628,0.413c-0.944,0-1.706-0.303-2.288-0.907C149.591,140.104,149.3,139.232,149.3,138.094z
		 M150.474,138.094c0,0.863,0.189,1.509,0.565,1.938s0.851,0.645,1.422,0.645c0.567,0,1.039-0.216,1.415-0.647
		c0.377-0.432,0.565-1.09,0.565-1.975c0-0.833-0.189-1.465-0.567-1.895c-0.379-0.43-0.85-0.645-1.413-0.645
		c-0.571,0-1.046,0.214-1.422,0.642S150.474,137.231,150.474,138.094z"/>
	<path fill="#FFFFFF" d="M157.253,141.464v-1.302h1.302v1.302c0,0.479-0.085,0.864-0.254,1.158s-0.438,0.521-0.806,0.683
		l-0.318-0.488c0.242-0.106,0.42-0.262,0.533-0.467c0.115-0.205,0.178-0.501,0.191-0.886H157.253z"/>
	<path fill="#FFFFFF" d="M168.552,141.464v-0.851c-0.427,0.669-1.055,1.003-1.885,1.003c-0.537,0-1.031-0.148-1.482-0.444
		s-0.799-0.71-1.047-1.241s-0.371-1.142-0.371-1.831c0-0.673,0.111-1.283,0.336-1.831s0.561-0.968,1.01-1.261
		c0.448-0.291,0.949-0.438,1.504-0.438c0.406,0,0.768,0.086,1.086,0.257c0.316,0.172,0.575,0.395,0.773,0.67v-3.339h1.137v9.306
		H168.552z M164.94,138.1c0,0.863,0.182,1.509,0.546,1.936c0.364,0.428,0.794,0.642,1.288,0.642c0.5,0,0.924-0.204,1.273-0.612
		s0.523-1.031,0.523-1.869c0-0.923-0.178-1.6-0.533-2.031s-0.793-0.648-1.314-0.648c-0.508,0-0.932,0.208-1.271,0.623
		C165.11,136.553,164.94,137.208,164.94,138.1z"/>
	<path fill="#FFFFFF" d="M176.023,139.293l1.181,0.146c-0.186,0.689-0.531,1.225-1.035,1.605c-0.503,0.381-1.146,0.571-1.93,0.571
		c-0.985,0-1.768-0.304-2.346-0.911c-0.576-0.607-0.865-1.459-0.865-2.555c0-1.134,0.291-2.015,0.875-2.641s1.342-0.939,2.273-0.939
		c0.9,0,1.637,0.307,2.209,0.92c0.57,0.614,0.856,1.478,0.856,2.59c0,0.068-0.002,0.17-0.007,0.305h-5.027
		c0.043,0.741,0.252,1.309,0.629,1.701c0.377,0.395,0.846,0.591,1.409,0.591c0.419,0,0.776-0.11,1.073-0.33
		C175.615,140.127,175.851,139.776,176.023,139.293z M172.272,137.446h3.764c-0.051-0.566-0.195-0.992-0.432-1.275
		c-0.363-0.44-0.836-0.66-1.416-0.66c-0.524,0-0.965,0.176-1.322,0.527C172.508,136.388,172.31,136.858,172.272,137.446z"/>
	<path fill="#FFFFFF" d="M26.187,157.065v-0.851c-0.427,0.669-1.056,1.003-1.885,1.003c-0.538,0-1.032-0.148-1.482-0.444
		c-0.451-0.296-0.8-0.71-1.048-1.241c-0.247-0.531-0.371-1.142-0.371-1.831c0-0.673,0.112-1.283,0.336-1.831s0.561-0.969,1.009-1.26
		c0.449-0.293,0.95-0.438,1.504-0.438c0.406,0,0.768,0.086,1.085,0.257c0.317,0.172,0.576,0.395,0.774,0.67v-3.339h1.136v9.306
		H26.187z M22.575,153.701c0,0.863,0.182,1.509,0.546,1.937c0.364,0.427,0.793,0.641,1.289,0.641c0.5,0,0.924-0.204,1.272-0.612
		c0.35-0.408,0.524-1.032,0.524-1.87c0-0.922-0.178-1.6-0.533-2.031s-0.793-0.646-1.314-0.646c-0.508,0-0.932,0.207-1.272,0.621
		C22.746,152.154,22.575,152.808,22.575,153.701z"/>
	<path fill="#FFFFFF" d="M33.658,154.894l1.181,0.146c-0.186,0.69-0.531,1.226-1.035,1.606s-1.147,0.571-1.93,0.571
		c-0.986,0-1.768-0.304-2.346-0.911c-0.577-0.607-0.866-1.459-0.866-2.555c0-1.134,0.292-2.015,0.876-2.641s1.341-0.939,2.272-0.939
		c0.901,0,1.638,0.307,2.209,0.921c0.571,0.613,0.857,1.477,0.857,2.59c0,0.067-0.002,0.169-0.006,0.305h-5.027
		c0.042,0.74,0.252,1.307,0.628,1.701c0.376,0.393,0.846,0.59,1.409,0.59c0.419,0,0.776-0.11,1.073-0.33
		S33.485,155.376,33.658,154.894z M29.907,153.047h3.764c-0.051-0.567-0.195-0.993-0.432-1.276c-0.364-0.44-0.836-0.66-1.416-0.66
		c-0.525,0-0.966,0.176-1.323,0.526C30.143,151.989,29.945,152.458,29.907,153.047z"/>
	<path fill="#FFFFFF" d="M35.816,155.053l1.13-0.178c0.063,0.452,0.24,0.799,0.53,1.041c0.29,0.24,0.695,0.361,1.216,0.361
		c0.525,0,0.914-0.106,1.168-0.32s0.381-0.465,0.381-0.752c0-0.259-0.112-0.462-0.336-0.609c-0.157-0.102-0.546-0.231-1.168-0.388
		c-0.838-0.212-1.418-0.395-1.743-0.549c-0.323-0.154-0.569-0.368-0.736-0.642c-0.167-0.272-0.25-0.574-0.25-0.904
		c0-0.301,0.069-0.579,0.207-0.835c0.137-0.256,0.325-0.469,0.562-0.638c0.178-0.131,0.42-0.242,0.727-0.333
		c0.307-0.091,0.636-0.137,0.987-0.137c0.529,0,0.993,0.076,1.394,0.229c0.399,0.152,0.695,0.358,0.885,0.619
		c0.19,0.26,0.322,0.608,0.394,1.044l-1.117,0.152c-0.051-0.347-0.198-0.618-0.441-0.813c-0.244-0.194-0.587-0.292-1.032-0.292
		c-0.525,0-0.899,0.087-1.124,0.261c-0.224,0.173-0.336,0.376-0.336,0.609c0,0.147,0.046,0.281,0.14,0.399
		c0.093,0.123,0.239,0.225,0.438,0.305c0.114,0.042,0.451,0.14,1.009,0.292c0.808,0.216,1.372,0.393,1.692,0.53
		c0.319,0.138,0.57,0.337,0.752,0.6s0.273,0.588,0.273,0.978c0,0.381-0.111,0.739-0.333,1.076c-0.222,0.336-0.542,0.597-0.961,0.78
		c-0.419,0.185-0.893,0.276-1.422,0.276c-0.876,0-1.543-0.182-2.002-0.546C36.236,156.307,35.943,155.768,35.816,155.053z"/>
	<path fill="#FFFFFF" d="M47.388,154.894l1.181,0.146c-0.186,0.69-0.531,1.226-1.035,1.606s-1.147,0.571-1.93,0.571
		c-0.986,0-1.768-0.304-2.345-0.911c-0.578-0.607-0.867-1.459-0.867-2.555c0-1.134,0.292-2.015,0.876-2.641s1.341-0.939,2.272-0.939
		c0.901,0,1.638,0.307,2.209,0.921c0.571,0.613,0.857,1.477,0.857,2.59c0,0.067-0.002,0.169-0.006,0.305h-5.027
		c0.042,0.74,0.252,1.307,0.628,1.701c0.376,0.393,0.846,0.59,1.409,0.59c0.419,0,0.776-0.11,1.073-0.33
		S47.215,155.376,47.388,154.894z M43.637,153.047h3.764c-0.051-0.567-0.195-0.993-0.432-1.276c-0.364-0.44-0.836-0.66-1.416-0.66
		c-0.525,0-0.966,0.176-1.324,0.526C43.873,151.989,43.675,152.458,43.637,153.047z"/>
	<path fill="#FFFFFF" d="M50.003,157.065v-6.741h1.022v0.946c0.211-0.33,0.493-0.596,0.844-0.797s0.751-0.302,1.2-0.302
		c0.5,0,0.909,0.104,1.228,0.312c0.32,0.207,0.545,0.497,0.676,0.869c0.533-0.787,1.227-1.181,2.082-1.181
		c0.668,0,1.183,0.186,1.542,0.556s0.54,0.94,0.54,1.711v4.627h-1.136v-4.246c0-0.457-0.037-0.786-0.111-0.987
		c-0.074-0.201-0.208-0.363-0.403-0.485c-0.195-0.123-0.423-0.185-0.686-0.185c-0.474,0-0.868,0.157-1.181,0.473
		s-0.47,0.82-0.47,1.515v3.916h-1.143v-4.38c0-0.508-0.093-0.889-0.279-1.143s-0.491-0.381-0.914-0.381
		c-0.322,0-0.619,0.085-0.892,0.254c-0.272,0.169-0.471,0.417-0.593,0.743c-0.123,0.325-0.184,0.795-0.184,1.408v3.498H50.003z"/>
	<path fill="#FFFFFF" d="M60.833,159.649v-9.325h1.041v0.876c0.246-0.343,0.522-0.6,0.832-0.771
		c0.309-0.171,0.684-0.257,1.124-0.257c0.576,0,1.083,0.148,1.523,0.444s0.772,0.714,0.997,1.254
		c0.224,0.539,0.336,1.131,0.336,1.773c0,0.69-0.124,1.312-0.371,1.863c-0.248,0.553-0.607,0.976-1.079,1.27
		c-0.472,0.294-0.968,0.441-1.489,0.441c-0.381,0-0.723-0.08-1.025-0.241c-0.303-0.161-0.551-0.364-0.746-0.609v3.282H60.833z
		 M61.867,153.733c0,0.867,0.176,1.508,0.527,1.923s0.776,0.622,1.276,0.622c0.508,0,0.943-0.215,1.304-0.645
		c0.362-0.43,0.543-1.095,0.543-1.996c0-0.859-0.177-1.502-0.53-1.93c-0.353-0.428-0.775-0.641-1.266-0.641
		c-0.487,0-0.917,0.227-1.292,0.682C62.054,152.204,61.867,152.865,61.867,153.733z"/>
	<path fill="#FFFFFF" d="M72.677,154.894l1.181,0.146c-0.186,0.69-0.531,1.226-1.035,1.606s-1.147,0.571-1.93,0.571
		c-0.986,0-1.768-0.304-2.345-0.911c-0.578-0.607-0.867-1.459-0.867-2.555c0-1.134,0.292-2.015,0.876-2.641s1.341-0.939,2.272-0.939
		c0.901,0,1.638,0.307,2.209,0.921c0.571,0.613,0.857,1.477,0.857,2.59c0,0.067-0.002,0.169-0.006,0.305h-5.027
		c0.042,0.74,0.252,1.307,0.628,1.701c0.376,0.393,0.846,0.59,1.409,0.59c0.419,0,0.776-0.11,1.073-0.33
		S72.504,155.376,72.677,154.894z M68.926,153.047h3.764c-0.051-0.567-0.195-0.993-0.432-1.276c-0.364-0.44-0.836-0.66-1.416-0.66
		c-0.525,0-0.966,0.176-1.324,0.526C69.162,151.989,68.964,152.458,68.926,153.047z"/>
	<path fill="#FFFFFF" d="M75.292,157.065v-6.741h1.028v0.958c0.495-0.74,1.21-1.11,2.146-1.11c0.406,0,0.78,0.073,1.12,0.219
		c0.341,0.146,0.596,0.338,0.765,0.575c0.169,0.236,0.288,0.518,0.355,0.844c0.042,0.212,0.063,0.582,0.063,1.111v4.145h-1.143
		v-4.101c0-0.466-0.044-0.813-0.133-1.044s-0.247-0.415-0.473-0.553c-0.227-0.138-0.492-0.206-0.797-0.206
		c-0.487,0-0.907,0.154-1.26,0.464c-0.354,0.309-0.53,0.895-0.53,1.758v3.682H75.292z M76.099,149.327
		c-0.004-0.439,0.116-0.791,0.362-1.053c0.241-0.263,0.55-0.395,0.927-0.395c0.262,0,0.62,0.115,1.073,0.344
		c0.25,0.127,0.449,0.189,0.597,0.189c0.135,0,0.239-0.036,0.311-0.11s0.123-0.222,0.152-0.441h0.825
		c-0.013,0.482-0.134,0.845-0.365,1.085c-0.23,0.242-0.523,0.362-0.879,0.362c-0.267,0-0.618-0.118-1.054-0.355
		c-0.284-0.152-0.491-0.229-0.622-0.229c-0.144,0-0.26,0.051-0.349,0.152c-0.093,0.102-0.138,0.252-0.133,0.45H76.099z"/>
	<path fill="#FFFFFF" d="M82.097,153.694c0-1.248,0.347-2.173,1.041-2.773c0.58-0.499,1.287-0.749,2.12-0.749
		c0.927,0,1.684,0.304,2.272,0.911s0.882,1.446,0.882,2.517c0,0.867-0.13,1.55-0.39,2.047c-0.261,0.497-0.639,0.884-1.137,1.159
		c-0.497,0.274-1.04,0.412-1.628,0.412c-0.944,0-1.707-0.303-2.288-0.908C82.388,155.705,82.097,154.833,82.097,153.694z
		 M83.271,153.694c0,0.863,0.188,1.51,0.565,1.939s0.851,0.645,1.422,0.645c0.567,0,1.039-0.216,1.416-0.647s0.565-1.09,0.565-1.974
		c0-0.834-0.189-1.466-0.568-1.896c-0.378-0.43-0.849-0.644-1.412-0.644c-0.571,0-1.045,0.213-1.422,0.641
		S83.271,152.831,83.271,153.694z"/>
	<path fill="#FFFFFF" d="M93.313,159.661l-0.127-1.072c0.25,0.067,0.468,0.102,0.654,0.102c0.254,0,0.457-0.042,0.609-0.127
		s0.277-0.203,0.375-0.355c0.072-0.114,0.188-0.397,0.349-0.851c0.021-0.063,0.055-0.156,0.102-0.279l-2.558-6.754h1.231
		l1.403,3.903c0.182,0.496,0.345,1.016,0.489,1.563c0.131-0.525,0.288-1.037,0.47-1.537l1.441-3.929h1.143l-2.564,6.855
		c-0.275,0.74-0.489,1.251-0.641,1.53c-0.203,0.376-0.436,0.652-0.698,0.828s-0.576,0.264-0.939,0.264
		C93.83,159.801,93.584,159.754,93.313,159.661z"/>
	<path fill="#FFFFFF" d="M107.85,157.065v-0.851c-0.427,0.669-1.056,1.003-1.886,1.003c-0.537,0-1.031-0.148-1.482-0.444
		c-0.45-0.296-0.8-0.71-1.047-1.241c-0.248-0.531-0.372-1.142-0.372-1.831c0-0.673,0.112-1.283,0.336-1.831s0.561-0.969,1.009-1.26
		c0.449-0.293,0.95-0.438,1.504-0.438c0.406,0,0.769,0.086,1.086,0.257c0.317,0.172,0.576,0.395,0.774,0.67v-3.339h1.136v9.306
		H107.85z M104.238,153.701c0,0.863,0.182,1.509,0.546,1.937c0.364,0.427,0.793,0.641,1.289,0.641c0.499,0,0.923-0.204,1.272-0.612
		s0.523-1.032,0.523-1.87c0-0.922-0.178-1.6-0.533-2.031s-0.793-0.646-1.313-0.646c-0.508,0-0.933,0.207-1.273,0.621
		C104.408,152.154,104.238,152.808,104.238,153.701z"/>
	<path fill="#FFFFFF" d="M115.321,154.894l1.18,0.146c-0.186,0.69-0.531,1.226-1.034,1.606s-1.147,0.571-1.93,0.571
		c-0.985,0-1.769-0.304-2.345-0.911c-0.578-0.607-0.867-1.459-0.867-2.555c0-1.134,0.292-2.015,0.876-2.641s1.341-0.939,2.272-0.939
		c0.901,0,1.638,0.307,2.209,0.921c0.571,0.613,0.857,1.477,0.857,2.59c0,0.067-0.002,0.169-0.007,0.305h-5.027
		c0.042,0.74,0.252,1.307,0.628,1.701c0.377,0.393,0.847,0.59,1.41,0.59c0.418,0,0.775-0.11,1.072-0.33
		S115.147,155.376,115.321,154.894z M111.569,153.047h3.764c-0.051-0.567-0.194-0.993-0.432-1.276
		c-0.363-0.44-0.836-0.66-1.415-0.66c-0.524,0-0.966,0.176-1.323,0.526C111.806,151.989,111.607,152.458,111.569,153.047z"/>
	<path fill="#FFFFFF" d="M125.946,154.596l1.124,0.146c-0.122,0.774-0.437,1.381-0.942,1.818c-0.506,0.438-1.127,0.657-1.863,0.657
		c-0.922,0-1.664-0.302-2.225-0.904c-0.561-0.604-0.842-1.468-0.842-2.594c0-0.728,0.121-1.364,0.362-1.91s0.608-0.955,1.101-1.229
		c0.494-0.272,1.03-0.409,1.609-0.409c0.732,0,1.332,0.186,1.797,0.556s0.764,0.896,0.895,1.577l-1.11,0.171
		c-0.106-0.452-0.293-0.793-0.562-1.021c-0.27-0.229-0.594-0.343-0.975-0.343c-0.576,0-1.043,0.206-1.402,0.619
		c-0.36,0.412-0.54,1.065-0.54,1.958c0,0.905,0.173,1.563,0.521,1.975c0.348,0.41,0.8,0.615,1.358,0.615
		c0.448,0,0.823-0.138,1.124-0.412C125.676,155.59,125.866,155.167,125.946,154.596z"/>
	<path fill="#FFFFFF" d="M127.622,153.694c0-1.248,0.348-2.173,1.041-2.773c0.58-0.499,1.287-0.749,2.121-0.749
		c0.926,0,1.684,0.304,2.271,0.911c0.589,0.607,0.883,1.446,0.883,2.517c0,0.867-0.131,1.55-0.391,2.047s-0.639,0.884-1.137,1.159
		c-0.496,0.274-1.039,0.412-1.627,0.412c-0.944,0-1.707-0.303-2.289-0.908C127.913,155.705,127.622,154.833,127.622,153.694z
		 M128.797,153.694c0,0.863,0.188,1.51,0.565,1.939c0.376,0.43,0.85,0.645,1.422,0.645c0.566,0,1.039-0.216,1.415-0.647
		s0.565-1.09,0.565-1.974c0-0.834-0.189-1.466-0.568-1.896s-0.85-0.644-1.412-0.644c-0.572,0-1.046,0.213-1.422,0.641
		C128.985,152.186,128.797,152.831,128.797,153.694z"/>
	<path fill="#FFFFFF" d="M135.278,157.065v-6.741h1.027v0.958c0.496-0.74,1.211-1.11,2.146-1.11c0.406,0,0.779,0.073,1.119,0.219
		c0.342,0.146,0.596,0.338,0.766,0.575c0.17,0.236,0.287,0.518,0.355,0.844c0.043,0.212,0.063,0.582,0.063,1.111v4.145h-1.143
		v-4.101c0-0.466-0.044-0.813-0.134-1.044c-0.088-0.23-0.246-0.415-0.473-0.553s-0.492-0.206-0.797-0.206
		c-0.486,0-0.906,0.154-1.26,0.464c-0.354,0.309-0.529,0.895-0.529,1.758v3.682H135.278z"/>
	<path fill="#FFFFFF" d="M142.083,153.694c0-1.248,0.347-2.173,1.041-2.773c0.579-0.499,1.286-0.749,2.119-0.749
		c0.928,0,1.685,0.304,2.273,0.911c0.588,0.607,0.882,1.446,0.882,2.517c0,0.867-0.13,1.55-0.39,2.047
		c-0.262,0.497-0.64,0.884-1.137,1.159c-0.498,0.274-1.04,0.412-1.629,0.412c-0.943,0-1.706-0.303-2.287-0.908
		C142.374,155.705,142.083,154.833,142.083,153.694z M143.257,153.694c0,0.863,0.188,1.51,0.564,1.939
		c0.377,0.43,0.852,0.645,1.422,0.645c0.567,0,1.039-0.216,1.416-0.647s0.564-1.09,0.564-1.974c0-0.834-0.189-1.466-0.568-1.896
		c-0.378-0.43-0.849-0.644-1.412-0.644c-0.57,0-1.045,0.213-1.422,0.641C143.445,152.186,143.257,152.831,143.257,153.694z"/>
	<path fill="#FFFFFF" d="M154.137,154.596l1.124,0.146c-0.123,0.774-0.438,1.381-0.943,1.818c-0.506,0.438-1.127,0.657-1.863,0.657
		c-0.922,0-1.664-0.302-2.225-0.904c-0.561-0.604-0.841-1.468-0.841-2.594c0-0.728,0.12-1.364,0.362-1.91
		c0.24-0.546,0.607-0.955,1.102-1.229c0.492-0.272,1.029-0.409,1.608-0.409c0.731,0,1.331,0.186,1.796,0.556
		c0.466,0.37,0.764,0.896,0.896,1.577l-1.11,0.171c-0.106-0.452-0.293-0.793-0.563-1.021c-0.269-0.229-0.594-0.343-0.975-0.343
		c-0.575,0-1.043,0.206-1.402,0.619c-0.359,0.412-0.539,1.065-0.539,1.958c0,0.905,0.173,1.563,0.52,1.975
		c0.348,0.41,0.801,0.615,1.359,0.615c0.448,0,0.822-0.138,1.123-0.412C153.866,155.59,154.056,155.167,154.137,154.596z"/>
	<path fill="#FFFFFF" d="M156.244,149.073v-1.313h1.143v1.313H156.244z M156.244,157.065v-6.741h1.143v6.741H156.244z"/>
	<path fill="#FFFFFF" d="M159.126,157.065v-6.741h1.021v0.946c0.212-0.33,0.494-0.596,0.845-0.797s0.751-0.302,1.2-0.302
		c0.499,0,0.908,0.104,1.229,0.312c0.318,0.207,0.544,0.497,0.676,0.869c0.533-0.787,1.227-1.181,2.082-1.181
		c0.668,0,1.182,0.186,1.542,0.556s0.54,0.94,0.54,1.711v4.627h-1.137v-4.246c0-0.457-0.037-0.786-0.111-0.987
		s-0.208-0.363-0.402-0.485c-0.195-0.123-0.424-0.185-0.686-0.185c-0.475,0-0.868,0.157-1.182,0.473
		c-0.313,0.315-0.469,0.82-0.469,1.515v3.916h-1.143v-4.38c0-0.508-0.094-0.889-0.279-1.143c-0.187-0.254-0.491-0.381-0.914-0.381
		c-0.322,0-0.619,0.085-0.893,0.254s-0.471,0.417-0.594,0.743c-0.122,0.325-0.184,0.795-0.184,1.408v3.498H159.126z"/>
	<path fill="#FFFFFF" d="M169.962,149.073v-1.313h1.143v1.313H169.962z M169.962,157.065v-6.741h1.143v6.741H169.962z"/>
	<path fill="#FFFFFF" d="M177.458,154.894l1.181,0.146c-0.187,0.69-0.531,1.226-1.034,1.606c-0.504,0.381-1.147,0.571-1.93,0.571
		c-0.986,0-1.768-0.304-2.346-0.911s-0.867-1.459-0.867-2.555c0-1.134,0.293-2.015,0.877-2.641s1.341-0.939,2.271-0.939
		c0.902,0,1.639,0.307,2.209,0.921c0.572,0.613,0.857,1.477,0.857,2.59c0,0.067-0.002,0.169-0.006,0.305h-5.027
		c0.042,0.74,0.252,1.307,0.628,1.701c0.376,0.393,0.847,0.59,1.409,0.59c0.419,0,0.776-0.11,1.072-0.33
		C177.05,155.728,177.284,155.376,177.458,154.894z M173.706,153.047h3.765c-0.051-0.567-0.194-0.993-0.432-1.276
		c-0.364-0.44-0.836-0.66-1.415-0.66c-0.525,0-0.967,0.176-1.324,0.526C173.942,151.989,173.745,152.458,173.706,153.047z"/>
	<path fill="#FFFFFF" d="M180.073,157.065v-6.741h1.028v0.958c0.495-0.74,1.21-1.11,2.146-1.11c0.406,0,0.779,0.073,1.121,0.219
		c0.34,0.146,0.595,0.338,0.764,0.575c0.17,0.236,0.288,0.518,0.355,0.844c0.043,0.212,0.064,0.582,0.064,1.111v4.145h-1.143v-4.101
		c0-0.466-0.045-0.813-0.134-1.044s-0.247-0.415-0.474-0.553c-0.226-0.138-0.491-0.206-0.796-0.206
		c-0.487,0-0.907,0.154-1.261,0.464c-0.353,0.309-0.529,0.895-0.529,1.758v3.682H180.073z"/>
	<path fill="#FFFFFF" d="M189.798,156.043l0.165,1.009c-0.321,0.067-0.609,0.102-0.863,0.102c-0.415,0-0.736-0.065-0.965-0.196
		c-0.229-0.132-0.39-0.304-0.482-0.518s-0.14-0.664-0.14-1.35v-3.878h-0.838v-0.889h0.838v-1.669l1.137-0.686v2.354h1.148v0.889
		h-1.148v3.942c0,0.325,0.02,0.535,0.061,0.628c0.039,0.093,0.105,0.167,0.195,0.222c0.092,0.056,0.222,0.083,0.391,0.083
		C189.423,156.087,189.591,156.073,189.798,156.043z"/>
	<path fill="#FFFFFF" d="M190.489,153.694c0-1.248,0.348-2.173,1.041-2.773c0.58-0.499,1.287-0.749,2.121-0.749
		c0.926,0,1.684,0.304,2.271,0.911c0.589,0.607,0.883,1.446,0.883,2.517c0,0.867-0.131,1.55-0.391,2.047s-0.639,0.884-1.137,1.159
		c-0.496,0.274-1.039,0.412-1.627,0.412c-0.944,0-1.707-0.303-2.289-0.908C190.78,155.705,190.489,154.833,190.489,153.694z
		 M191.664,153.694c0,0.863,0.188,1.51,0.565,1.939c0.376,0.43,0.85,0.645,1.422,0.645c0.566,0,1.039-0.216,1.415-0.647
		s0.565-1.09,0.565-1.974c0-0.834-0.189-1.466-0.568-1.896s-0.85-0.644-1.412-0.644c-0.572,0-1.046,0.213-1.422,0.641
		C191.853,152.186,191.664,152.831,191.664,153.694z"/>
</g>
<g>
	<path fill="#FFFFFF" d="M4.918,10.047C2.207,10.047,0,7.84,0,5.128S2.207,0.21,4.918,0.21s4.918,2.206,4.918,4.918
		S7.63,10.047,4.918,10.047z M4.918,1.21C2.758,1.21,1,2.968,1,5.128c0,2.161,1.758,3.918,3.918,3.918
		c2.16,0,3.918-1.758,3.918-3.918C8.836,2.968,7.079,1.21,4.918,1.21z"/>
</g>
<g>
	<path fill="#FFFFFF" d="M4.918,40.39C2.207,40.39,0,38.183,0,35.471s2.207-4.918,4.918-4.918s4.918,2.206,4.918,4.918
		S7.63,40.39,4.918,40.39z M4.918,31.553C2.758,31.553,1,33.311,1,35.471c0,2.161,1.758,3.918,3.918,3.918
		c2.16,0,3.918-1.758,3.918-3.918C8.836,33.311,7.079,31.553,4.918,31.553z"/>
</g>
<g>
	<path fill="#FFFFFF" d="M4.918,81.735C2.207,81.735,0,79.529,0,76.817s2.207-4.918,4.918-4.918s4.918,2.206,4.918,4.918
		S7.63,81.735,4.918,81.735z M4.918,72.899C2.758,72.899,1,74.657,1,76.817c0,2.161,1.758,3.918,3.918,3.918
		c2.16,0,3.918-1.758,3.918-3.918C8.836,74.657,7.079,72.899,4.918,72.899z"/>
</g>
<g>
	<path fill="#FFFFFF" d="M4.918,116.412c-2.712,0-4.918-2.207-4.918-4.919s2.207-4.918,4.918-4.918s4.918,2.206,4.918,4.918
		S7.63,116.412,4.918,116.412z M4.918,107.575c-2.161,0-3.918,1.758-3.918,3.918c0,2.161,1.758,3.919,3.918,3.919
		c2.16,0,3.918-1.758,3.918-3.919C8.836,109.333,7.079,107.575,4.918,107.575z"/>
</g>
<g>
	<path fill="#FFFFFF" d="M4.918,149.289c-2.712,0-4.918-2.206-4.918-4.918s2.207-4.918,4.918-4.918s4.918,2.206,4.918,4.918
		S7.63,149.289,4.918,149.289z M4.918,140.453c-2.161,0-3.918,1.758-3.918,3.918s1.758,3.918,3.918,3.918
		c2.16,0,3.918-1.758,3.918-3.918S7.079,140.453,4.918,140.453z"/>
</g>
</svg>
