<?xml version="1.0" encoding="utf-8"?>
<!-- Generator: Adobe Illustrator 16.0.0, SVG Export Plug-In . SVG Version: 6.00 Build 0)  -->
<!DOCTYPE svg PUBLIC "-//W3C//DTD SVG 1.1//EN" "http://www.w3.org/Graphics/SVG/1.1/DTD/svg11.dtd">
<svg version="1.1" id="Capa_1" xmlns="http://www.w3.org/2000/svg" xmlns:xlink="http://www.w3.org/1999/xlink" x="0px" y="0px"
	 width="554.989px" height="35.968px" viewBox="0 0 554.989 35.968" enable-background="new 0 0 554.989 35.968"
	 xml:space="preserve">
<g>
	<g>
		<line fill="#0B488C" x1="0.251" y1="0.5" x2="554.989" y2="0.5"/>
		<rect x="0.251" fill="#FFCC73" width="554.738" height="1"/>
	</g>
	<g>
		<rect x="0.251" y="34.968" fill="#FFCC73" width="554.738" height="1"/>
	</g>
	<g>
		<path fill="#0C488D" stroke="#0C488D" stroke-width="0.5" stroke-miterlimit="10" d="M47.023,21.149h-6.207l-1.285,4.566h-1.832
			L43.441,6.11h0.93l5.77,19.605h-1.818L47.023,21.149z M41.294,19.468h5.264l-2.584-9.037l-0.055-0.725l-0.055,0.725L41.294,19.468
			z"/>
		<path fill="#0C488D" stroke="#0C488D" stroke-width="0.5" stroke-miterlimit="10" d="M61.72,22.161
			c0,0.565-0.114,1.083-0.342,1.552c-0.228,0.47-0.538,0.873-0.93,1.21c-0.392,0.337-0.846,0.6-1.36,0.786
			c-0.515,0.187-1.055,0.28-1.62,0.28h-1.121c-0.565,0-1.105-0.107-1.62-0.321c-0.515-0.214-0.966-0.508-1.354-0.882
			c-0.388-0.374-0.697-0.812-0.93-1.313s-0.349-1.034-0.349-1.6v-0.561l1.682-0.273v0.93c0,0.337,0.07,0.654,0.212,0.95
			c0.141,0.297,0.33,0.554,0.567,0.772c0.237,0.219,0.51,0.392,0.82,0.52c0.31,0.128,0.633,0.191,0.971,0.191h1.121
			c0.337,0,0.661-0.05,0.971-0.15c0.31-0.101,0.585-0.243,0.827-0.431c0.241-0.187,0.433-0.412,0.574-0.677
			c0.141-0.265,0.212-0.565,0.212-0.902c0-0.501-0.109-0.911-0.328-1.23s-0.508-0.585-0.868-0.8c-0.36-0.214-0.771-0.392-1.23-0.533
			c-0.46-0.141-0.932-0.282-1.415-0.424c-0.483-0.141-0.955-0.303-1.415-0.485c-0.46-0.183-0.871-0.421-1.23-0.718
			c-0.36-0.296-0.649-0.667-0.868-1.114c-0.219-0.446-0.328-1.002-0.328-1.668c0-0.565,0.109-1.082,0.328-1.552
			c0.219-0.469,0.515-0.873,0.889-1.21c0.374-0.337,0.809-0.599,1.306-0.786c0.497-0.187,1.027-0.28,1.593-0.28h0.984
			c0.565,0,1.098,0.107,1.6,0.321c0.501,0.214,0.938,0.508,1.313,0.882c0.374,0.374,0.667,0.812,0.882,1.313
			c0.214,0.501,0.321,1.035,0.321,1.6v0.055l-1.682,0.273v-0.424c0-0.337-0.064-0.654-0.191-0.95
			c-0.128-0.296-0.301-0.554-0.52-0.772s-0.477-0.392-0.772-0.52c-0.296-0.127-0.613-0.191-0.95-0.191h-0.984
			c-0.337,0-0.654,0.05-0.95,0.15c-0.296,0.101-0.554,0.244-0.772,0.431c-0.219,0.187-0.392,0.413-0.52,0.677
			c-0.128,0.265-0.191,0.565-0.191,0.902c0,0.483,0.109,0.877,0.328,1.183c0.219,0.306,0.508,0.563,0.868,0.772
			c0.36,0.21,0.77,0.385,1.23,0.526c0.46,0.142,0.93,0.287,1.408,0.438s0.948,0.321,1.408,0.513c0.46,0.191,0.87,0.438,1.23,0.738
			c0.36,0.301,0.649,0.677,0.868,1.128S61.72,21.496,61.72,22.161z"/>
		<path fill="#0C488D" stroke="#0C488D" stroke-width="0.5" stroke-miterlimit="10" d="M73.977,23.474
			c-0.214,0.501-0.508,0.938-0.882,1.313c-0.374,0.374-0.812,0.668-1.313,0.882c-0.501,0.214-1.035,0.321-1.6,0.321h-0.424
			c-0.629,0-1.212-0.128-1.75-0.383c-0.538-0.255-0.998-0.61-1.381-1.066v6.781h-1.682V11.716h0.561l0.916,1.422
			c0.383-0.52,0.863-0.932,1.442-1.237c0.579-0.305,1.21-0.458,1.894-0.458h0.424c0.565,0,1.098,0.107,1.6,0.321
			c0.501,0.214,0.938,0.508,1.313,0.882c0.374,0.374,0.667,0.812,0.882,1.313c0.214,0.501,0.321,1.035,0.321,1.6v6.316
			C74.298,22.439,74.191,22.973,73.977,23.474z M72.617,15.462c0-0.337-0.064-0.654-0.191-0.95c-0.128-0.296-0.301-0.554-0.52-0.772
			s-0.477-0.392-0.772-0.52c-0.296-0.127-0.613-0.191-0.95-0.191h-1.121c-0.337,0-0.654,0.064-0.95,0.191
			c-0.296,0.128-0.554,0.301-0.772,0.52s-0.392,0.477-0.52,0.772c-0.128,0.296-0.191,0.613-0.191,0.95v6.508
			c0,0.337,0.063,0.654,0.191,0.95c0.127,0.297,0.301,0.554,0.52,0.772s0.476,0.392,0.772,0.52c0.296,0.128,0.613,0.191,0.95,0.191
			h1.121c0.337,0,0.654-0.063,0.95-0.191c0.296-0.128,0.554-0.301,0.772-0.52s0.392-0.476,0.52-0.772
			c0.127-0.296,0.191-0.613,0.191-0.95V15.462z"/>
		<path fill="#0C488D" stroke="#0C488D" stroke-width="0.5" stroke-miterlimit="10" d="M86.692,23.474
			c-0.214,0.501-0.508,0.938-0.882,1.313c-0.374,0.374-0.812,0.668-1.313,0.882c-0.501,0.214-1.035,0.321-1.6,0.321h-1.121
			c-0.565,0-1.099-0.107-1.6-0.321c-0.501-0.214-0.939-0.508-1.313-0.882c-0.374-0.374-0.668-0.812-0.882-1.313
			c-0.214-0.501-0.321-1.034-0.321-1.6v-6.316c0-0.565,0.107-1.098,0.321-1.6c0.214-0.501,0.508-0.938,0.882-1.313
			c0.374-0.374,0.811-0.667,1.313-0.882c0.501-0.214,1.034-0.321,1.6-0.321h1.121c0.565,0,1.098,0.107,1.6,0.321
			c0.501,0.214,0.938,0.508,1.313,0.882c0.374,0.374,0.667,0.812,0.882,1.313c0.214,0.501,0.321,1.035,0.321,1.6v3.295h-7.67v3.117
			c0,0.337,0.063,0.654,0.191,0.95c0.127,0.297,0.301,0.554,0.52,0.772s0.476,0.392,0.772,0.52c0.296,0.128,0.613,0.191,0.95,0.191
			h1.121c0.337,0,0.654-0.063,0.95-0.191c0.296-0.128,0.554-0.301,0.772-0.52s0.392-0.476,0.52-0.772
			c0.127-0.296,0.191-0.613,0.191-0.95v-0.93l1.682,0.273v0.561C87.013,22.439,86.906,22.973,86.692,23.474z M85.332,15.462
			c0-0.337-0.064-0.654-0.191-0.95c-0.128-0.296-0.301-0.554-0.52-0.772s-0.477-0.392-0.772-0.52
			c-0.296-0.127-0.613-0.191-0.95-0.191h-1.121c-0.337,0-0.654,0.064-0.95,0.191c-0.296,0.128-0.554,0.301-0.772,0.52
			s-0.392,0.477-0.52,0.772c-0.128,0.296-0.191,0.613-0.191,0.95v2.078h5.988V15.462z"/>
		<path fill="#0C488D" stroke="#0C488D" stroke-width="0.5" stroke-miterlimit="10" d="M99.407,23.474
			c-0.214,0.501-0.508,0.938-0.882,1.313c-0.374,0.374-0.812,0.668-1.313,0.882c-0.501,0.214-1.035,0.321-1.6,0.321h-1.121
			c-0.565,0-1.099-0.107-1.6-0.321c-0.501-0.214-0.939-0.508-1.313-0.882c-0.374-0.374-0.668-0.812-0.882-1.313
			c-0.214-0.501-0.321-1.034-0.321-1.6v-6.316c0-0.565,0.107-1.098,0.321-1.6c0.214-0.501,0.508-0.938,0.882-1.313
			c0.374-0.374,0.811-0.667,1.313-0.882c0.501-0.214,1.034-0.321,1.6-0.321h1.121c0.565,0,1.098,0.107,1.6,0.321
			c0.501,0.214,0.938,0.508,1.313,0.882c0.374,0.374,0.667,0.812,0.882,1.313c0.214,0.501,0.321,1.035,0.321,1.6v0.561l-1.682,0.273
			v-0.93c0-0.337-0.064-0.654-0.191-0.95c-0.128-0.296-0.301-0.554-0.52-0.772s-0.477-0.392-0.772-0.52
			c-0.296-0.127-0.613-0.191-0.95-0.191h-1.121c-0.337,0-0.654,0.064-0.95,0.191c-0.296,0.128-0.554,0.301-0.772,0.52
			s-0.392,0.477-0.52,0.772c-0.128,0.296-0.191,0.613-0.191,0.95v6.508c0,0.337,0.063,0.654,0.191,0.95
			c0.127,0.297,0.301,0.554,0.52,0.772s0.476,0.392,0.772,0.52c0.296,0.128,0.613,0.191,0.95,0.191h1.121
			c0.337,0,0.654-0.063,0.95-0.191c0.296-0.128,0.554-0.301,0.772-0.52s0.392-0.476,0.52-0.772c0.127-0.296,0.191-0.613,0.191-0.95
			v-0.93l1.682,0.273v0.561C99.728,22.439,99.621,22.973,99.407,23.474z"/>
		<path fill="#0C488D" stroke="#0C488D" stroke-width="0.5" stroke-miterlimit="10" d="M108.191,25.716
			c-0.511,0-0.991-0.096-1.442-0.287s-0.843-0.456-1.176-0.793c-0.333-0.337-0.597-0.729-0.793-1.176
			c-0.196-0.446-0.294-0.925-0.294-1.436v-8.709h-2.516v-1.6h2.516V8.353l1.682-0.273v3.637h3.555v1.6h-3.555v8.791
			c0,0.282,0.052,0.545,0.157,0.786c0.104,0.242,0.248,0.453,0.431,0.636c0.182,0.183,0.396,0.326,0.643,0.431
			c0.246,0.105,0.51,0.157,0.793,0.157h1.531v1.6H108.191z"/>
		<path fill="#0C488D" stroke="#0C488D" stroke-width="0.5" stroke-miterlimit="10" d="M121.842,23.474
			c-0.214,0.501-0.508,0.938-0.882,1.313c-0.374,0.374-0.812,0.668-1.313,0.882c-0.501,0.214-1.035,0.321-1.6,0.321h-1.121
			c-0.565,0-1.099-0.107-1.6-0.321c-0.501-0.214-0.939-0.508-1.313-0.882c-0.374-0.374-0.668-0.812-0.882-1.313
			c-0.214-0.501-0.321-1.034-0.321-1.6v-6.316c0-0.565,0.107-1.098,0.321-1.6c0.214-0.501,0.508-0.938,0.882-1.313
			c0.374-0.374,0.811-0.667,1.313-0.882c0.501-0.214,1.034-0.321,1.6-0.321h1.121c0.565,0,1.098,0.107,1.6,0.321
			c0.501,0.214,0.938,0.508,1.313,0.882c0.374,0.374,0.667,0.812,0.882,1.313c0.214,0.501,0.321,1.035,0.321,1.6v6.316
			C122.164,22.439,122.056,22.973,121.842,23.474z M120.482,15.462c0-0.337-0.064-0.654-0.191-0.95
			c-0.128-0.296-0.301-0.554-0.52-0.772s-0.477-0.392-0.772-0.52c-0.296-0.127-0.613-0.191-0.95-0.191h-1.121
			c-0.337,0-0.654,0.064-0.95,0.191c-0.296,0.128-0.554,0.301-0.772,0.52s-0.392,0.477-0.52,0.772
			c-0.128,0.296-0.191,0.613-0.191,0.95v6.508c0,0.337,0.063,0.654,0.191,0.95c0.127,0.297,0.301,0.554,0.52,0.772
			s0.476,0.392,0.772,0.52c0.296,0.128,0.613,0.191,0.95,0.191h1.121c0.337,0,0.654-0.063,0.95-0.191
			c0.296-0.128,0.554-0.301,0.772-0.52s0.392-0.476,0.52-0.772c0.127-0.296,0.191-0.613,0.191-0.95V15.462z"/>
		<path fill="#0C488D" stroke="#0C488D" stroke-width="0.5" stroke-miterlimit="10" d="M135.152,22.161
			c0,0.565-0.114,1.083-0.342,1.552c-0.228,0.47-0.538,0.873-0.93,1.21c-0.392,0.337-0.846,0.6-1.36,0.786
			c-0.515,0.187-1.055,0.28-1.62,0.28h-1.121c-0.565,0-1.105-0.107-1.62-0.321c-0.515-0.214-0.966-0.508-1.354-0.882
			c-0.388-0.374-0.697-0.812-0.93-1.313s-0.349-1.034-0.349-1.6v-0.561l1.682-0.273v0.93c0,0.337,0.07,0.654,0.212,0.95
			c0.141,0.297,0.33,0.554,0.567,0.772c0.237,0.219,0.51,0.392,0.82,0.52c0.31,0.128,0.633,0.191,0.971,0.191h1.121
			c0.337,0,0.661-0.05,0.971-0.15c0.31-0.101,0.585-0.243,0.827-0.431c0.241-0.187,0.433-0.412,0.574-0.677
			c0.141-0.265,0.212-0.565,0.212-0.902c0-0.501-0.109-0.911-0.328-1.23s-0.508-0.585-0.868-0.8c-0.36-0.214-0.771-0.392-1.23-0.533
			c-0.46-0.141-0.932-0.282-1.415-0.424c-0.483-0.141-0.955-0.303-1.415-0.485c-0.46-0.183-0.871-0.421-1.23-0.718
			c-0.36-0.296-0.649-0.667-0.868-1.114c-0.219-0.446-0.328-1.002-0.328-1.668c0-0.565,0.109-1.082,0.328-1.552
			c0.219-0.469,0.515-0.873,0.889-1.21c0.374-0.337,0.809-0.599,1.306-0.786c0.497-0.187,1.027-0.28,1.593-0.28h0.984
			c0.565,0,1.098,0.107,1.6,0.321c0.501,0.214,0.938,0.508,1.313,0.882c0.374,0.374,0.667,0.812,0.882,1.313
			c0.214,0.501,0.321,1.035,0.321,1.6v0.055l-1.682,0.273v-0.424c0-0.337-0.064-0.654-0.191-0.95
			c-0.128-0.296-0.301-0.554-0.52-0.772s-0.477-0.392-0.772-0.52c-0.296-0.127-0.613-0.191-0.95-0.191h-0.984
			c-0.337,0-0.654,0.05-0.95,0.15c-0.296,0.101-0.554,0.244-0.772,0.431c-0.219,0.187-0.392,0.413-0.52,0.677
			c-0.128,0.265-0.191,0.565-0.191,0.902c0,0.483,0.109,0.877,0.328,1.183c0.219,0.306,0.508,0.563,0.868,0.772
			c0.36,0.21,0.77,0.385,1.23,0.526c0.46,0.142,0.93,0.287,1.408,0.438s0.948,0.321,1.408,0.513c0.46,0.191,0.87,0.438,1.23,0.738
			c0.36,0.301,0.649,0.677,0.868,1.128S135.152,21.496,135.152,22.161z"/>
		<path fill="#0C488D" stroke="#0C488D" stroke-width="0.5" stroke-miterlimit="10" d="M153.848,23.474
			c-0.214,0.501-0.508,0.938-0.882,1.313c-0.374,0.374-0.812,0.668-1.313,0.882c-0.501,0.214-1.035,0.321-1.6,0.321h-0.424
			c-0.629,0-1.212-0.128-1.75-0.383c-0.538-0.255-0.998-0.61-1.381-1.066v6.781h-1.682V11.716h0.561l0.916,1.422
			c0.383-0.52,0.863-0.932,1.442-1.237c0.579-0.305,1.21-0.458,1.894-0.458h0.424c0.565,0,1.098,0.107,1.6,0.321
			c0.501,0.214,0.938,0.508,1.313,0.882c0.374,0.374,0.667,0.812,0.882,1.313c0.214,0.501,0.321,1.035,0.321,1.6v6.316
			C154.169,22.439,154.062,22.973,153.848,23.474z M152.488,15.462c0-0.337-0.064-0.654-0.191-0.95
			c-0.128-0.296-0.301-0.554-0.52-0.772s-0.477-0.392-0.772-0.52c-0.296-0.127-0.613-0.191-0.95-0.191h-1.121
			c-0.337,0-0.654,0.064-0.95,0.191c-0.296,0.128-0.554,0.301-0.772,0.52s-0.392,0.477-0.52,0.772
			c-0.128,0.296-0.191,0.613-0.191,0.95v6.508c0,0.337,0.063,0.654,0.191,0.95c0.127,0.297,0.301,0.554,0.52,0.772
			s0.476,0.392,0.772,0.52c0.296,0.128,0.613,0.191,0.95,0.191h1.121c0.337,0,0.654-0.063,0.95-0.191
			c0.296-0.128,0.554-0.301,0.772-0.52s0.392-0.476,0.52-0.772c0.127-0.296,0.191-0.613,0.191-0.95V15.462z"/>
		<path fill="#0C488D" stroke="#0C488D" stroke-width="0.5" stroke-miterlimit="10" d="M166.563,23.474
			c-0.214,0.501-0.508,0.938-0.882,1.313c-0.374,0.374-0.812,0.668-1.313,0.882c-0.501,0.214-1.035,0.321-1.6,0.321h-1.121
			c-0.565,0-1.099-0.107-1.6-0.321c-0.501-0.214-0.939-0.508-1.313-0.882c-0.374-0.374-0.668-0.812-0.882-1.313
			c-0.214-0.501-0.321-1.034-0.321-1.6v-6.316c0-0.565,0.107-1.098,0.321-1.6c0.214-0.501,0.508-0.938,0.882-1.313
			c0.374-0.374,0.811-0.667,1.313-0.882c0.501-0.214,1.034-0.321,1.6-0.321h1.121c0.565,0,1.098,0.107,1.6,0.321
			c0.501,0.214,0.938,0.508,1.313,0.882c0.374,0.374,0.667,0.812,0.882,1.313c0.214,0.501,0.321,1.035,0.321,1.6v3.295h-7.67v3.117
			c0,0.337,0.063,0.654,0.191,0.95c0.127,0.297,0.301,0.554,0.52,0.772s0.476,0.392,0.772,0.52c0.296,0.128,0.613,0.191,0.95,0.191
			h1.121c0.337,0,0.654-0.063,0.95-0.191c0.296-0.128,0.554-0.301,0.772-0.52s0.392-0.476,0.52-0.772
			c0.127-0.296,0.191-0.613,0.191-0.95v-0.93l1.682,0.273v0.561C166.884,22.439,166.777,22.973,166.563,23.474z M165.203,15.462
			c0-0.337-0.064-0.654-0.191-0.95c-0.128-0.296-0.301-0.554-0.52-0.772s-0.477-0.392-0.772-0.52
			c-0.296-0.127-0.613-0.191-0.95-0.191h-1.121c-0.337,0-0.654,0.064-0.95,0.191c-0.296,0.128-0.554,0.301-0.772,0.52
			s-0.392,0.477-0.52,0.772c-0.128,0.296-0.191,0.613-0.191,0.95v2.078h5.988V15.462z"/>
		<path fill="#0C488D" stroke="#0C488D" stroke-width="0.5" stroke-miterlimit="10" d="M179.039,25.716l-0.93-1.422
			c-0.383,0.52-0.861,0.933-1.436,1.237s-1.203,0.458-1.887,0.458h-0.424c-0.565,0-1.099-0.107-1.6-0.321
			c-0.501-0.214-0.939-0.508-1.313-0.882c-0.374-0.374-0.668-0.812-0.882-1.313c-0.214-0.501-0.321-1.034-0.321-1.6v-6.316
			c0-0.565,0.107-1.098,0.321-1.6c0.214-0.501,0.508-0.938,0.882-1.313c0.374-0.374,0.811-0.667,1.313-0.882
			c0.501-0.214,1.034-0.321,1.6-0.321h0.424c0.629,0,1.212,0.128,1.75,0.383c0.538,0.255,0.998,0.611,1.381,1.066V6.11h1.682v19.605
			H179.039z M177.917,15.462c0-0.337-0.064-0.654-0.191-0.95c-0.128-0.296-0.301-0.554-0.52-0.772s-0.477-0.392-0.772-0.52
			c-0.296-0.127-0.613-0.191-0.95-0.191h-1.121c-0.337,0-0.654,0.064-0.95,0.191c-0.296,0.128-0.554,0.301-0.772,0.52
			s-0.392,0.477-0.52,0.772c-0.128,0.296-0.191,0.613-0.191,0.95v6.508c0,0.337,0.063,0.654,0.191,0.95
			c0.127,0.297,0.301,0.554,0.52,0.772s0.476,0.392,0.772,0.52c0.296,0.128,0.613,0.191,0.95,0.191h1.121
			c0.337,0,0.654-0.063,0.95-0.191c0.296-0.128,0.554-0.301,0.772-0.52s0.392-0.476,0.52-0.772c0.127-0.296,0.191-0.613,0.191-0.95
			V15.462z"/>
		<path fill="#0C488D" stroke="#0C488D" stroke-width="0.5" stroke-miterlimit="10" d="M191.753,25.716l-0.93-1.395
			c-0.383,0.501-0.861,0.905-1.436,1.21s-1.203,0.458-1.887,0.458h-0.424c-0.565,0-1.099-0.107-1.6-0.321
			c-0.501-0.214-0.939-0.508-1.313-0.882c-0.374-0.374-0.668-0.812-0.882-1.313c-0.214-0.501-0.321-1.034-0.321-1.6v-0.137
			c0-0.565,0.107-1.099,0.321-1.6c0.214-0.501,0.508-0.938,0.882-1.313c0.374-0.374,0.811-0.667,1.313-0.882
			c0.501-0.214,1.034-0.321,1.6-0.321h3.555v-2.16c0-0.337-0.064-0.654-0.191-0.95c-0.128-0.296-0.301-0.554-0.52-0.772
			s-0.477-0.392-0.772-0.52c-0.296-0.127-0.613-0.191-0.95-0.191h-0.984c-0.337,0-0.654,0.064-0.95,0.191
			c-0.296,0.128-0.554,0.301-0.772,0.52s-0.392,0.477-0.52,0.772c-0.128,0.296-0.191,0.613-0.191,0.95v0.506l-1.682-0.273v-0.137
			c0-0.565,0.107-1.098,0.321-1.6c0.214-0.501,0.508-0.938,0.882-1.313c0.374-0.374,0.811-0.667,1.313-0.882
			c0.501-0.214,1.034-0.321,1.6-0.321h0.984c0.565,0,1.098,0.107,1.6,0.321c0.501,0.214,0.938,0.508,1.313,0.882
			c0.374,0.374,0.667,0.812,0.882,1.313c0.214,0.501,0.321,1.035,0.321,1.6v10.158H191.753z M190.632,18.935h-3.555
			c-0.337,0-0.654,0.063-0.95,0.191c-0.296,0.128-0.554,0.304-0.772,0.526c-0.219,0.224-0.392,0.483-0.52,0.779
			c-0.128,0.297-0.191,0.613-0.191,0.95v0.588c0,0.337,0.063,0.654,0.191,0.95c0.127,0.297,0.301,0.554,0.52,0.772
			s0.476,0.392,0.772,0.52c0.296,0.128,0.613,0.191,0.95,0.191h1.121c0.337,0,0.654-0.063,0.95-0.191
			c0.296-0.128,0.554-0.301,0.772-0.52s0.392-0.476,0.52-0.772c0.127-0.296,0.191-0.613,0.191-0.95V18.935z"/>
		<path fill="#0C488D" stroke="#0C488D" stroke-width="0.5" stroke-miterlimit="10" d="M204.844,29.038
			c-0.214,0.474-0.508,0.88-0.882,1.217c-0.374,0.337-0.812,0.599-1.313,0.786c-0.501,0.187-1.035,0.28-1.6,0.28h-0.697
			c-0.565,0-1.099-0.094-1.6-0.28c-0.501-0.188-0.939-0.449-1.313-0.786c-0.374-0.337-0.668-0.743-0.882-1.217
			c-0.214-0.474-0.321-0.993-0.321-1.559v-0.055c0-0.547,0.1-1.048,0.301-1.504c0.2-0.456,0.474-0.853,0.82-1.189
			c-0.438-0.265-0.786-0.622-1.046-1.073s-0.39-0.95-0.39-1.497c0-0.492,0.104-0.95,0.314-1.374
			c0.209-0.424,0.497-0.768,0.861-1.032c-0.438-0.383-0.784-0.843-1.039-1.381c-0.255-0.538-0.383-1.125-0.383-1.764v-1.053
			c0-0.565,0.107-1.098,0.321-1.6c0.214-0.501,0.508-0.938,0.882-1.313c0.374-0.374,0.811-0.667,1.313-0.882
			c0.501-0.214,1.034-0.321,1.6-0.321h0.697c0.684,0,1.314,0.153,1.894,0.458c0.579,0.306,1.06,0.718,1.442,1.237l0.916-1.422h0.561
			v4.895c0,0.565-0.107,1.099-0.321,1.6c-0.214,0.501-0.508,0.938-0.882,1.313c-0.374,0.374-0.812,0.668-1.313,0.882
			c-0.501,0.215-1.035,0.321-1.6,0.321h-2.434c-0.191,0-0.374,0.039-0.547,0.116c-0.173,0.078-0.326,0.18-0.458,0.308
			c-0.132,0.128-0.235,0.28-0.308,0.458c-0.073,0.178-0.109,0.362-0.109,0.554s0.036,0.374,0.109,0.547
			c0.073,0.173,0.175,0.326,0.308,0.458c0.132,0.133,0.285,0.234,0.458,0.308c0.173,0.073,0.355,0.109,0.547,0.109h2.297
			c0.565,0,1.098,0.094,1.6,0.28c0.501,0.188,0.938,0.449,1.313,0.786c0.374,0.337,0.667,0.743,0.882,1.217
			c0.214,0.474,0.321,0.993,0.321,1.559v0.055C205.166,28.045,205.058,28.564,204.844,29.038z M203.634,15.462
			c0-0.337-0.064-0.654-0.191-0.95c-0.128-0.296-0.303-0.554-0.526-0.772c-0.224-0.219-0.483-0.392-0.779-0.52
			c-0.296-0.127-0.613-0.191-0.95-0.191h-1.395c-0.337,0-0.654,0.064-0.95,0.191c-0.296,0.128-0.554,0.301-0.772,0.52
			s-0.392,0.477-0.52,0.772c-0.128,0.296-0.191,0.613-0.191,0.95v1.244c0,0.337,0.063,0.654,0.191,0.95
			c0.127,0.296,0.301,0.554,0.52,0.772s0.476,0.392,0.772,0.52c0.296,0.128,0.613,0.191,0.95,0.191h1.395
			c0.337,0,0.654-0.063,0.95-0.191c0.296-0.128,0.556-0.301,0.779-0.52c0.223-0.219,0.398-0.476,0.526-0.772
			c0.127-0.296,0.191-0.613,0.191-0.95V15.462z M203.566,27.343c0-0.337-0.064-0.641-0.191-0.909
			c-0.128-0.27-0.301-0.494-0.52-0.677s-0.477-0.323-0.772-0.424c-0.296-0.101-0.613-0.15-0.95-0.15h-0.861
			c-0.337,0-0.654,0.05-0.95,0.15c-0.296,0.101-0.554,0.241-0.772,0.424s-0.392,0.407-0.52,0.677
			c-0.128,0.269-0.191,0.572-0.191,0.909v0.219c0,0.337,0.063,0.638,0.191,0.902c0.127,0.265,0.301,0.489,0.52,0.677
			c0.219,0.187,0.476,0.33,0.772,0.431c0.296,0.101,0.613,0.15,0.95,0.15h0.861c0.337,0,0.654-0.05,0.95-0.15
			c0.296-0.101,0.554-0.244,0.772-0.431c0.219-0.188,0.392-0.412,0.52-0.677c0.127-0.265,0.191-0.565,0.191-0.902V27.343z"/>
		<path fill="#0C488D" stroke="#0C488D" stroke-width="0.5" stroke-miterlimit="10" d="M217.422,23.474
			c-0.214,0.501-0.508,0.938-0.882,1.313c-0.374,0.374-0.812,0.668-1.313,0.882c-0.501,0.214-1.035,0.321-1.6,0.321h-1.121
			c-0.565,0-1.099-0.107-1.6-0.321c-0.501-0.214-0.939-0.508-1.313-0.882c-0.374-0.374-0.668-0.812-0.882-1.313
			c-0.214-0.501-0.321-1.034-0.321-1.6v-6.316c0-0.565,0.107-1.098,0.321-1.6c0.214-0.501,0.508-0.938,0.882-1.313
			c0.374-0.374,0.811-0.667,1.313-0.882c0.501-0.214,1.034-0.321,1.6-0.321h1.121c0.565,0,1.098,0.107,1.6,0.321
			c0.501,0.214,0.938,0.508,1.313,0.882c0.374,0.374,0.667,0.812,0.882,1.313c0.214,0.501,0.321,1.035,0.321,1.6v6.316
			C217.744,22.439,217.636,22.973,217.422,23.474z M216.062,15.462c0-0.337-0.064-0.654-0.191-0.95
			c-0.128-0.296-0.301-0.554-0.52-0.772s-0.477-0.392-0.772-0.52c-0.296-0.127-0.613-0.191-0.95-0.191h-1.121
			c-0.337,0-0.654,0.064-0.95,0.191c-0.296,0.128-0.554,0.301-0.772,0.52s-0.392,0.477-0.52,0.772
			c-0.128,0.296-0.191,0.613-0.191,0.95v6.508c0,0.337,0.063,0.654,0.191,0.95c0.127,0.297,0.301,0.554,0.52,0.772
			s0.476,0.392,0.772,0.52c0.296,0.128,0.613,0.191,0.95,0.191h1.121c0.337,0,0.654-0.063,0.95-0.191
			c0.296-0.128,0.554-0.301,0.772-0.52s0.392-0.476,0.52-0.772c0.127-0.296,0.191-0.613,0.191-0.95V15.462z M212.371,9.474h-1.258
			l2.229-3.363h2.803L212.371,9.474z"/>
		<path fill="#0C488D" stroke="#0C488D" stroke-width="0.5" stroke-miterlimit="10" d="M230.274,29.038
			c-0.214,0.474-0.508,0.88-0.882,1.217c-0.374,0.337-0.812,0.599-1.313,0.786c-0.501,0.187-1.035,0.28-1.6,0.28h-0.697
			c-0.565,0-1.099-0.094-1.6-0.28c-0.501-0.188-0.939-0.449-1.313-0.786c-0.374-0.337-0.668-0.743-0.882-1.217
			c-0.214-0.474-0.321-0.993-0.321-1.559v-0.055c0-0.547,0.1-1.048,0.301-1.504c0.2-0.456,0.474-0.853,0.82-1.189
			c-0.438-0.265-0.786-0.622-1.046-1.073s-0.39-0.95-0.39-1.497c0-0.492,0.104-0.95,0.314-1.374
			c0.209-0.424,0.497-0.768,0.861-1.032c-0.438-0.383-0.784-0.843-1.039-1.381c-0.255-0.538-0.383-1.125-0.383-1.764v-1.053
			c0-0.565,0.107-1.098,0.321-1.6c0.214-0.501,0.508-0.938,0.882-1.313c0.374-0.374,0.811-0.667,1.313-0.882
			c0.501-0.214,1.034-0.321,1.6-0.321h0.697c0.684,0,1.314,0.153,1.894,0.458c0.579,0.306,1.06,0.718,1.442,1.237l0.916-1.422h0.561
			v4.895c0,0.565-0.107,1.099-0.321,1.6c-0.214,0.501-0.508,0.938-0.882,1.313c-0.374,0.374-0.812,0.668-1.313,0.882
			c-0.501,0.215-1.035,0.321-1.6,0.321h-2.434c-0.191,0-0.374,0.039-0.547,0.116c-0.173,0.078-0.326,0.18-0.458,0.308
			c-0.132,0.128-0.235,0.28-0.308,0.458c-0.073,0.178-0.109,0.362-0.109,0.554s0.036,0.374,0.109,0.547
			c0.073,0.173,0.175,0.326,0.308,0.458c0.132,0.133,0.285,0.234,0.458,0.308c0.173,0.073,0.355,0.109,0.547,0.109h2.297
			c0.565,0,1.098,0.094,1.6,0.28c0.501,0.188,0.938,0.449,1.313,0.786c0.374,0.337,0.667,0.743,0.882,1.217
			c0.214,0.474,0.321,0.993,0.321,1.559v0.055C230.595,28.045,230.488,28.564,230.274,29.038z M229.064,15.462
			c0-0.337-0.064-0.654-0.191-0.95c-0.128-0.296-0.303-0.554-0.526-0.772c-0.224-0.219-0.483-0.392-0.779-0.52
			c-0.296-0.127-0.613-0.191-0.95-0.191h-1.395c-0.337,0-0.654,0.064-0.95,0.191c-0.296,0.128-0.554,0.301-0.772,0.52
			s-0.392,0.477-0.52,0.772c-0.128,0.296-0.191,0.613-0.191,0.95v1.244c0,0.337,0.063,0.654,0.191,0.95
			c0.127,0.296,0.301,0.554,0.52,0.772s0.476,0.392,0.772,0.52c0.296,0.128,0.613,0.191,0.95,0.191h1.395
			c0.337,0,0.654-0.063,0.95-0.191c0.296-0.128,0.556-0.301,0.779-0.52c0.223-0.219,0.398-0.476,0.526-0.772
			c0.127-0.296,0.191-0.613,0.191-0.95V15.462z M228.996,27.343c0-0.337-0.064-0.641-0.191-0.909
			c-0.128-0.27-0.301-0.494-0.52-0.677s-0.477-0.323-0.772-0.424c-0.296-0.101-0.613-0.15-0.95-0.15h-0.861
			c-0.337,0-0.654,0.05-0.95,0.15c-0.296,0.101-0.554,0.241-0.772,0.424s-0.392,0.407-0.52,0.677
			c-0.128,0.269-0.191,0.572-0.191,0.909v0.219c0,0.337,0.063,0.638,0.191,0.902c0.127,0.265,0.301,0.489,0.52,0.677
			c0.219,0.187,0.476,0.33,0.772,0.431c0.296,0.101,0.613,0.15,0.95,0.15h0.861c0.337,0,0.654-0.05,0.95-0.15
			c0.296-0.101,0.554-0.244,0.772-0.431c0.219-0.188,0.392-0.412,0.52-0.677c0.127-0.265,0.191-0.565,0.191-0.902V27.343z"/>
		<path fill="#0C488D" stroke="#0C488D" stroke-width="0.5" stroke-miterlimit="10" d="M234.246,8.353V6.11h1.955v2.242H234.246z
			 M234.382,25.716v-14h1.682v14H234.382z"/>
		<path fill="#0C488D" stroke="#0C488D" stroke-width="0.5" stroke-miterlimit="10" d="M249.018,23.474
			c-0.214,0.501-0.508,0.938-0.882,1.313c-0.374,0.374-0.812,0.668-1.313,0.882c-0.501,0.214-1.035,0.321-1.6,0.321h-1.121
			c-0.565,0-1.099-0.107-1.6-0.321c-0.501-0.214-0.939-0.508-1.313-0.882c-0.374-0.374-0.668-0.812-0.882-1.313
			c-0.214-0.501-0.321-1.034-0.321-1.6v-6.316c0-0.565,0.107-1.098,0.321-1.6c0.214-0.501,0.508-0.938,0.882-1.313
			c0.374-0.374,0.811-0.667,1.313-0.882c0.501-0.214,1.034-0.321,1.6-0.321h1.121c0.565,0,1.098,0.107,1.6,0.321
			c0.501,0.214,0.938,0.508,1.313,0.882c0.374,0.374,0.667,0.812,0.882,1.313c0.214,0.501,0.321,1.035,0.321,1.6v0.561l-1.682,0.273
			v-0.93c0-0.337-0.064-0.654-0.191-0.95c-0.128-0.296-0.301-0.554-0.52-0.772s-0.477-0.392-0.772-0.52
			c-0.296-0.127-0.613-0.191-0.95-0.191h-1.121c-0.337,0-0.654,0.064-0.95,0.191c-0.296,0.128-0.554,0.301-0.772,0.52
			s-0.392,0.477-0.52,0.772c-0.128,0.296-0.191,0.613-0.191,0.95v6.508c0,0.337,0.063,0.654,0.191,0.95
			c0.127,0.297,0.301,0.554,0.52,0.772s0.476,0.392,0.772,0.52c0.296,0.128,0.613,0.191,0.95,0.191h1.121
			c0.337,0,0.654-0.063,0.95-0.191c0.296-0.128,0.554-0.301,0.772-0.52s0.392-0.476,0.52-0.772c0.127-0.296,0.191-0.613,0.191-0.95
			v-0.93l1.682,0.273v0.561C249.339,22.439,249.232,22.973,249.018,23.474z"/>
		<path fill="#0C488D" stroke="#0C488D" stroke-width="0.5" stroke-miterlimit="10" d="M261.733,23.474
			c-0.214,0.501-0.508,0.938-0.882,1.313c-0.374,0.374-0.812,0.668-1.313,0.882c-0.501,0.214-1.035,0.321-1.6,0.321h-1.121
			c-0.565,0-1.099-0.107-1.6-0.321c-0.501-0.214-0.939-0.508-1.313-0.882c-0.374-0.374-0.668-0.812-0.882-1.313
			c-0.214-0.501-0.321-1.034-0.321-1.6v-6.316c0-0.565,0.107-1.098,0.321-1.6c0.214-0.501,0.508-0.938,0.882-1.313
			c0.374-0.374,0.811-0.667,1.313-0.882c0.501-0.214,1.034-0.321,1.6-0.321h1.121c0.565,0,1.098,0.107,1.6,0.321
			c0.501,0.214,0.938,0.508,1.313,0.882c0.374,0.374,0.667,0.812,0.882,1.313c0.214,0.501,0.321,1.035,0.321,1.6v6.316
			C262.054,22.439,261.947,22.973,261.733,23.474z M260.373,15.462c0-0.337-0.064-0.654-0.191-0.95
			c-0.128-0.296-0.301-0.554-0.52-0.772s-0.477-0.392-0.772-0.52c-0.296-0.127-0.613-0.191-0.95-0.191h-1.121
			c-0.337,0-0.654,0.064-0.95,0.191c-0.296,0.128-0.554,0.301-0.772,0.52s-0.392,0.477-0.52,0.772
			c-0.128,0.296-0.191,0.613-0.191,0.95v6.508c0,0.337,0.063,0.654,0.191,0.95c0.127,0.297,0.301,0.554,0.52,0.772
			s0.476,0.392,0.772,0.52c0.296,0.128,0.613,0.191,0.95,0.191h1.121c0.337,0,0.654-0.063,0.95-0.191
			c0.296-0.128,0.554-0.301,0.772-0.52s0.392-0.476,0.52-0.772c0.127-0.296,0.191-0.613,0.191-0.95V15.462z"/>
		<path fill="#0C488D" stroke="#0C488D" stroke-width="0.5" stroke-miterlimit="10" d="M275.042,22.161
			c0,0.565-0.114,1.083-0.342,1.552c-0.228,0.47-0.538,0.873-0.93,1.21c-0.392,0.337-0.846,0.6-1.36,0.786
			c-0.515,0.187-1.055,0.28-1.62,0.28h-1.121c-0.565,0-1.105-0.107-1.62-0.321c-0.515-0.214-0.966-0.508-1.354-0.882
			c-0.388-0.374-0.697-0.812-0.93-1.313s-0.349-1.034-0.349-1.6v-0.561l1.682-0.273v0.93c0,0.337,0.07,0.654,0.212,0.95
			c0.141,0.297,0.33,0.554,0.567,0.772c0.237,0.219,0.51,0.392,0.82,0.52c0.31,0.128,0.633,0.191,0.971,0.191h1.121
			c0.337,0,0.661-0.05,0.971-0.15c0.31-0.101,0.585-0.243,0.827-0.431c0.241-0.187,0.433-0.412,0.574-0.677
			c0.141-0.265,0.212-0.565,0.212-0.902c0-0.501-0.109-0.911-0.328-1.23s-0.508-0.585-0.868-0.8c-0.36-0.214-0.771-0.392-1.23-0.533
			c-0.46-0.141-0.932-0.282-1.415-0.424c-0.483-0.141-0.955-0.303-1.415-0.485c-0.46-0.183-0.871-0.421-1.23-0.718
			c-0.36-0.296-0.649-0.667-0.868-1.114c-0.219-0.446-0.328-1.002-0.328-1.668c0-0.565,0.109-1.082,0.328-1.552
			c0.219-0.469,0.515-0.873,0.889-1.21c0.374-0.337,0.809-0.599,1.306-0.786c0.497-0.187,1.027-0.28,1.593-0.28h0.984
			c0.565,0,1.098,0.107,1.6,0.321c0.501,0.214,0.938,0.508,1.313,0.882c0.374,0.374,0.667,0.812,0.882,1.313
			c0.214,0.501,0.321,1.035,0.321,1.6v0.055l-1.682,0.273v-0.424c0-0.337-0.064-0.654-0.191-0.95
			c-0.128-0.296-0.301-0.554-0.52-0.772s-0.477-0.392-0.772-0.52c-0.296-0.127-0.613-0.191-0.95-0.191h-0.984
			c-0.337,0-0.654,0.05-0.95,0.15c-0.296,0.101-0.554,0.244-0.772,0.431c-0.219,0.187-0.392,0.413-0.52,0.677
			c-0.128,0.265-0.191,0.565-0.191,0.902c0,0.483,0.109,0.877,0.328,1.183c0.219,0.306,0.508,0.563,0.868,0.772
			c0.36,0.21,0.77,0.385,1.23,0.526c0.46,0.142,0.93,0.287,1.408,0.438s0.948,0.321,1.408,0.513c0.46,0.191,0.87,0.438,1.23,0.738
			c0.36,0.301,0.649,0.677,0.868,1.128S275.042,21.496,275.042,22.161z"/>
		<path fill="#0C488D" stroke="#0C488D" stroke-width="0.5" stroke-miterlimit="10" d="M286.978,31.321h-1.627l2.488-6.809
			L283.3,11.716h1.682l3.65,10.609l0.055,0.725l0.055-0.725l3.637-10.609h1.682L286.978,31.321z"/>
		<path fill="#0C488D" stroke="#0C488D" stroke-width="0.5" stroke-miterlimit="10" d="M310.972,25.716l-0.93-1.422
			c-0.383,0.52-0.861,0.933-1.436,1.237s-1.203,0.458-1.887,0.458h-0.424c-0.564,0-1.098-0.107-1.6-0.321
			c-0.501-0.214-0.938-0.508-1.313-0.882c-0.373-0.374-0.668-0.812-0.881-1.313c-0.215-0.501-0.322-1.034-0.322-1.6v-6.316
			c0-0.565,0.107-1.098,0.322-1.6c0.213-0.501,0.508-0.938,0.881-1.313c0.374-0.374,0.812-0.667,1.313-0.882
			c0.502-0.214,1.035-0.321,1.6-0.321h0.424c0.629,0,1.213,0.128,1.75,0.383c0.538,0.255,0.998,0.611,1.381,1.066V6.11h1.682v19.605
			H310.972z M309.851,15.462c0-0.337-0.063-0.654-0.191-0.95c-0.127-0.296-0.301-0.554-0.52-0.772s-0.477-0.392-0.771-0.52
			c-0.297-0.127-0.613-0.191-0.951-0.191h-1.121c-0.337,0-0.654,0.064-0.949,0.191c-0.297,0.128-0.555,0.301-0.773,0.52
			s-0.392,0.477-0.52,0.772c-0.127,0.296-0.191,0.613-0.191,0.95v6.508c0,0.337,0.064,0.654,0.191,0.95
			c0.128,0.297,0.301,0.554,0.52,0.772s0.477,0.392,0.773,0.52c0.295,0.128,0.612,0.191,0.949,0.191h1.121
			c0.338,0,0.654-0.063,0.951-0.191c0.295-0.128,0.553-0.301,0.771-0.52s0.393-0.476,0.52-0.772c0.128-0.296,0.191-0.613,0.191-0.95
			V15.462z"/>
		<path fill="#0C488D" stroke="#0C488D" stroke-width="0.5" stroke-miterlimit="10" d="M315.319,8.353V6.11h1.955v2.242H315.319z
			 M315.456,25.716v-14h1.682v14H315.456z"/>
		<path fill="#0C488D" stroke="#0C488D" stroke-width="0.5" stroke-miterlimit="10" d="M329.853,25.716l-0.93-1.422
			c-0.383,0.52-0.861,0.933-1.436,1.237s-1.203,0.458-1.887,0.458h-0.424c-0.564,0-1.098-0.107-1.6-0.321
			c-0.501-0.214-0.938-0.508-1.313-0.882c-0.373-0.374-0.668-0.812-0.881-1.313c-0.215-0.501-0.322-1.034-0.322-1.6v-6.316
			c0-0.565,0.107-1.098,0.322-1.6c0.213-0.501,0.508-0.938,0.881-1.313c0.374-0.374,0.812-0.667,1.313-0.882
			c0.502-0.214,1.035-0.321,1.6-0.321h0.424c0.629,0,1.213,0.128,1.75,0.383c0.538,0.255,0.998,0.611,1.381,1.066V6.11h1.682v19.605
			H329.853z M328.731,15.462c0-0.337-0.063-0.654-0.191-0.95c-0.127-0.296-0.301-0.554-0.52-0.772s-0.477-0.392-0.771-0.52
			c-0.297-0.127-0.613-0.191-0.951-0.191h-1.121c-0.337,0-0.654,0.064-0.949,0.191c-0.297,0.128-0.555,0.301-0.773,0.52
			s-0.392,0.477-0.52,0.772c-0.127,0.296-0.191,0.613-0.191,0.95v6.508c0,0.337,0.064,0.654,0.191,0.95
			c0.128,0.297,0.301,0.554,0.52,0.772s0.477,0.392,0.773,0.52c0.295,0.128,0.612,0.191,0.949,0.191h1.121
			c0.338,0,0.654-0.063,0.951-0.191c0.295-0.128,0.553-0.301,0.771-0.52s0.393-0.476,0.52-0.772c0.128-0.296,0.191-0.613,0.191-0.95
			V15.462z"/>
		<path fill="#0C488D" stroke="#0C488D" stroke-width="0.5" stroke-miterlimit="10" d="M342.567,25.716l-0.93-1.395
			c-0.383,0.501-0.861,0.905-1.436,1.21s-1.203,0.458-1.887,0.458h-0.424c-0.564,0-1.098-0.107-1.6-0.321
			c-0.5-0.214-0.938-0.508-1.313-0.882c-0.373-0.374-0.668-0.812-0.881-1.313c-0.215-0.501-0.322-1.034-0.322-1.6v-0.137
			c0-0.565,0.107-1.099,0.322-1.6c0.213-0.501,0.508-0.938,0.881-1.313c0.375-0.374,0.813-0.667,1.313-0.882
			c0.502-0.214,1.035-0.321,1.6-0.321h3.555v-2.16c0-0.337-0.063-0.654-0.191-0.95c-0.127-0.296-0.301-0.554-0.52-0.772
			s-0.477-0.392-0.771-0.52c-0.297-0.127-0.613-0.191-0.951-0.191h-0.984c-0.336,0-0.654,0.064-0.949,0.191
			c-0.297,0.128-0.555,0.301-0.773,0.52s-0.391,0.477-0.52,0.772c-0.127,0.296-0.191,0.613-0.191,0.95v0.506l-1.682-0.273v-0.137
			c0-0.565,0.107-1.098,0.322-1.6c0.213-0.501,0.508-0.938,0.881-1.313c0.375-0.374,0.813-0.667,1.313-0.882
			c0.502-0.214,1.035-0.321,1.6-0.321h0.984c0.566,0,1.1,0.107,1.6,0.321c0.502,0.214,0.939,0.508,1.313,0.882
			c0.375,0.374,0.668,0.812,0.883,1.313c0.213,0.501,0.32,1.035,0.32,1.6v10.158H342.567z M341.446,18.935h-3.555
			c-0.336,0-0.654,0.063-0.949,0.191c-0.297,0.128-0.555,0.304-0.773,0.526c-0.219,0.224-0.391,0.483-0.52,0.779
			c-0.127,0.297-0.191,0.613-0.191,0.95v0.588c0,0.337,0.064,0.654,0.191,0.95c0.129,0.297,0.301,0.554,0.52,0.772
			s0.477,0.392,0.773,0.52c0.295,0.128,0.613,0.191,0.949,0.191h1.121c0.338,0,0.654-0.063,0.951-0.191
			c0.295-0.128,0.553-0.301,0.771-0.52s0.393-0.476,0.52-0.772c0.129-0.296,0.191-0.613,0.191-0.95V18.935z M337.755,9.474h-1.258
			l2.229-3.363h2.803L337.755,9.474z"/>
		<path fill="#0C488D" stroke="#0C488D" stroke-width="0.5" stroke-miterlimit="10" d="M355.522,23.474
			c-0.215,0.501-0.508,0.938-0.883,1.313c-0.373,0.374-0.811,0.668-1.313,0.882c-0.5,0.214-1.033,0.321-1.6,0.321h-1.121
			c-0.564,0-1.098-0.107-1.6-0.321c-0.5-0.214-0.938-0.508-1.313-0.882c-0.373-0.374-0.668-0.812-0.881-1.313
			c-0.215-0.501-0.322-1.034-0.322-1.6v-6.316c0-0.565,0.107-1.098,0.322-1.6c0.213-0.501,0.508-0.938,0.881-1.313
			c0.375-0.374,0.813-0.667,1.313-0.882c0.502-0.214,1.035-0.321,1.6-0.321h1.121c0.566,0,1.1,0.107,1.6,0.321
			c0.502,0.214,0.939,0.508,1.313,0.882c0.375,0.374,0.668,0.812,0.883,1.313c0.213,0.501,0.32,1.035,0.32,1.6v0.561l-1.682,0.273
			v-0.93c0-0.337-0.063-0.654-0.191-0.95c-0.127-0.296-0.301-0.554-0.52-0.772s-0.477-0.392-0.771-0.52
			c-0.297-0.127-0.613-0.191-0.951-0.191h-1.121c-0.336,0-0.654,0.064-0.949,0.191c-0.297,0.128-0.555,0.301-0.773,0.52
			s-0.391,0.477-0.52,0.772c-0.127,0.296-0.191,0.613-0.191,0.95v6.508c0,0.337,0.064,0.654,0.191,0.95
			c0.129,0.297,0.301,0.554,0.52,0.772s0.477,0.392,0.773,0.52c0.295,0.128,0.613,0.191,0.949,0.191h1.121
			c0.338,0,0.654-0.063,0.951-0.191c0.295-0.128,0.553-0.301,0.771-0.52s0.393-0.476,0.52-0.772c0.129-0.296,0.191-0.613,0.191-0.95
			v-0.93l1.682,0.273v0.561C355.843,22.439,355.735,22.973,355.522,23.474z"/>
		<path fill="#0C488D" stroke="#0C488D" stroke-width="0.5" stroke-miterlimit="10" d="M364.306,25.716
			c-0.51,0-0.99-0.096-1.441-0.287s-0.844-0.456-1.176-0.793c-0.334-0.337-0.598-0.729-0.793-1.176
			c-0.197-0.446-0.295-0.925-0.295-1.436v-8.709h-2.516v-1.6h2.516V8.353l1.682-0.273v3.637h3.555v1.6h-3.555v8.791
			c0,0.282,0.053,0.545,0.158,0.786c0.104,0.242,0.248,0.453,0.43,0.636c0.184,0.183,0.396,0.326,0.643,0.431
			c0.246,0.105,0.512,0.157,0.793,0.157h1.531v1.6H364.306z"/>
		<path fill="#0C488D" stroke="#0C488D" stroke-width="0.5" stroke-miterlimit="10" d="M369.351,8.353V6.11h1.955v2.242H369.351z
			 M369.487,25.716v-14h1.682v14H369.487z"/>
		<path fill="#0C488D" stroke="#0C488D" stroke-width="0.5" stroke-miterlimit="10" d="M384.124,23.474
			c-0.215,0.501-0.508,0.938-0.883,1.313c-0.373,0.374-0.811,0.668-1.313,0.882c-0.5,0.214-1.033,0.321-1.6,0.321h-1.121
			c-0.564,0-1.098-0.107-1.6-0.321c-0.5-0.214-0.938-0.508-1.313-0.882c-0.373-0.374-0.668-0.812-0.881-1.313
			c-0.215-0.501-0.322-1.034-0.322-1.6v-6.316c0-0.565,0.107-1.098,0.322-1.6c0.213-0.501,0.508-0.938,0.881-1.313
			c0.375-0.374,0.813-0.667,1.313-0.882c0.502-0.214,1.035-0.321,1.6-0.321h1.121c0.566,0,1.1,0.107,1.6,0.321
			c0.502,0.214,0.939,0.508,1.313,0.882c0.375,0.374,0.668,0.812,0.883,1.313c0.213,0.501,0.32,1.035,0.32,1.6v0.561l-1.682,0.273
			v-0.93c0-0.337-0.063-0.654-0.191-0.95c-0.127-0.296-0.301-0.554-0.52-0.772s-0.477-0.392-0.771-0.52
			c-0.297-0.127-0.613-0.191-0.951-0.191h-1.121c-0.336,0-0.654,0.064-0.949,0.191c-0.297,0.128-0.555,0.301-0.773,0.52
			s-0.391,0.477-0.52,0.772c-0.127,0.296-0.191,0.613-0.191,0.95v6.508c0,0.337,0.064,0.654,0.191,0.95
			c0.129,0.297,0.301,0.554,0.52,0.772s0.477,0.392,0.773,0.52c0.295,0.128,0.613,0.191,0.949,0.191h1.121
			c0.338,0,0.654-0.063,0.951-0.191c0.295-0.128,0.553-0.301,0.771-0.52s0.393-0.476,0.52-0.772c0.129-0.296,0.191-0.613,0.191-0.95
			v-0.93l1.682,0.273v0.561C384.444,22.439,384.337,22.973,384.124,23.474z"/>
		<path fill="#0C488D" stroke="#0C488D" stroke-width="0.5" stroke-miterlimit="10" d="M396.839,23.474
			c-0.215,0.501-0.508,0.938-0.883,1.313c-0.373,0.374-0.811,0.668-1.313,0.882c-0.5,0.214-1.033,0.321-1.6,0.321h-1.121
			c-0.564,0-1.098-0.107-1.6-0.321c-0.5-0.214-0.938-0.508-1.313-0.882c-0.373-0.374-0.668-0.812-0.881-1.313
			c-0.215-0.501-0.322-1.034-0.322-1.6v-6.316c0-0.565,0.107-1.098,0.322-1.6c0.213-0.501,0.508-0.938,0.881-1.313
			c0.375-0.374,0.813-0.667,1.313-0.882c0.502-0.214,1.035-0.321,1.6-0.321h1.121c0.566,0,1.1,0.107,1.6,0.321
			c0.502,0.214,0.939,0.508,1.313,0.882c0.375,0.374,0.668,0.812,0.883,1.313c0.213,0.501,0.32,1.035,0.32,1.6v6.316
			C397.159,22.439,397.052,22.973,396.839,23.474z M395.478,15.462c0-0.337-0.063-0.654-0.191-0.95
			c-0.127-0.296-0.301-0.554-0.52-0.772s-0.477-0.392-0.771-0.52c-0.297-0.127-0.613-0.191-0.951-0.191h-1.121
			c-0.336,0-0.654,0.064-0.949,0.191c-0.297,0.128-0.555,0.301-0.773,0.52s-0.391,0.477-0.52,0.772
			c-0.127,0.296-0.191,0.613-0.191,0.95v6.508c0,0.337,0.064,0.654,0.191,0.95c0.129,0.297,0.301,0.554,0.52,0.772
			s0.477,0.392,0.773,0.52c0.295,0.128,0.613,0.191,0.949,0.191h1.121c0.338,0,0.654-0.063,0.951-0.191
			c0.295-0.128,0.553-0.301,0.771-0.52s0.393-0.476,0.52-0.772c0.129-0.296,0.191-0.613,0.191-0.95V15.462z"/>
		<path fill="#0C488D" stroke="#0C488D" stroke-width="0.5" stroke-miterlimit="10" d="M410.147,22.161
			c0,0.565-0.113,1.083-0.342,1.552c-0.227,0.47-0.537,0.873-0.93,1.21c-0.391,0.337-0.846,0.6-1.359,0.786
			c-0.516,0.187-1.055,0.28-1.621,0.28h-1.121c-0.564,0-1.105-0.107-1.619-0.321c-0.516-0.214-0.967-0.508-1.354-0.882
			c-0.389-0.374-0.697-0.812-0.93-1.313s-0.35-1.034-0.35-1.6v-0.561l1.682-0.273v0.93c0,0.337,0.07,0.654,0.213,0.95
			c0.141,0.297,0.33,0.554,0.566,0.772c0.238,0.219,0.512,0.392,0.82,0.52c0.311,0.128,0.635,0.191,0.971,0.191h1.121
			c0.338,0,0.662-0.05,0.971-0.15c0.311-0.101,0.586-0.243,0.828-0.431c0.24-0.187,0.432-0.412,0.574-0.677
			c0.141-0.265,0.211-0.565,0.211-0.902c0-0.501-0.109-0.911-0.328-1.23s-0.508-0.585-0.867-0.8
			c-0.361-0.214-0.771-0.392-1.23-0.533c-0.461-0.141-0.932-0.282-1.416-0.424c-0.482-0.141-0.955-0.303-1.414-0.485
			c-0.461-0.183-0.871-0.421-1.23-0.718c-0.361-0.296-0.65-0.667-0.869-1.114c-0.219-0.446-0.328-1.002-0.328-1.668
			c0-0.565,0.109-1.082,0.328-1.552c0.219-0.469,0.516-0.873,0.889-1.21c0.375-0.337,0.809-0.599,1.307-0.786
			c0.496-0.187,1.027-0.28,1.592-0.28h0.984c0.566,0,1.1,0.107,1.6,0.321c0.502,0.214,0.939,0.508,1.313,0.882
			c0.375,0.374,0.668,0.812,0.883,1.313c0.213,0.501,0.32,1.035,0.32,1.6v0.055l-1.682,0.273v-0.424c0-0.337-0.063-0.654-0.191-0.95
			c-0.127-0.296-0.301-0.554-0.52-0.772s-0.477-0.392-0.771-0.52c-0.297-0.127-0.613-0.191-0.951-0.191h-0.984
			c-0.336,0-0.654,0.05-0.949,0.15c-0.297,0.101-0.555,0.244-0.773,0.431c-0.219,0.187-0.391,0.413-0.52,0.677
			c-0.127,0.265-0.191,0.565-0.191,0.902c0,0.483,0.109,0.877,0.328,1.183c0.219,0.306,0.508,0.563,0.869,0.772
			c0.359,0.21,0.77,0.385,1.23,0.526c0.459,0.142,0.93,0.287,1.408,0.438s0.947,0.321,1.408,0.513
			c0.459,0.191,0.869,0.438,1.23,0.738c0.359,0.301,0.648,0.677,0.867,1.128S410.147,21.496,410.147,22.161z"/>
		<path fill="#0C488D" stroke="#0C488D" stroke-width="0.5" stroke-miterlimit="10" d="M428.604,25.716l-0.93-1.422
			c-0.383,0.52-0.861,0.933-1.436,1.237s-1.203,0.458-1.887,0.458h-0.424c-0.564,0-1.098-0.107-1.6-0.321
			c-0.5-0.214-0.938-0.508-1.313-0.882c-0.373-0.374-0.668-0.812-0.881-1.313c-0.215-0.501-0.322-1.034-0.322-1.6v-6.316
			c0-0.565,0.107-1.098,0.322-1.6c0.213-0.501,0.508-0.938,0.881-1.313c0.375-0.374,0.813-0.667,1.313-0.882
			c0.502-0.214,1.035-0.321,1.6-0.321h0.424c0.629,0,1.213,0.128,1.75,0.383c0.539,0.255,0.998,0.611,1.381,1.066V6.11h1.682v19.605
			H428.604z M427.483,15.462c0-0.337-0.063-0.654-0.191-0.95c-0.127-0.296-0.301-0.554-0.52-0.772s-0.477-0.392-0.771-0.52
			c-0.297-0.127-0.613-0.191-0.951-0.191h-1.121c-0.336,0-0.654,0.064-0.949,0.191c-0.297,0.128-0.555,0.301-0.773,0.52
			s-0.391,0.477-0.52,0.772c-0.127,0.296-0.191,0.613-0.191,0.95v6.508c0,0.337,0.064,0.654,0.191,0.95
			c0.129,0.297,0.301,0.554,0.52,0.772s0.477,0.392,0.773,0.52c0.295,0.128,0.613,0.191,0.949,0.191h1.121
			c0.338,0,0.654-0.063,0.951-0.191c0.295-0.128,0.553-0.301,0.771-0.52s0.393-0.476,0.52-0.772c0.129-0.296,0.191-0.613,0.191-0.95
			V15.462z"/>
		<path fill="#0C488D" stroke="#0C488D" stroke-width="0.5" stroke-miterlimit="10" d="M441.56,23.474
			c-0.215,0.501-0.508,0.938-0.883,1.313c-0.373,0.374-0.811,0.668-1.313,0.882c-0.5,0.214-1.033,0.321-1.6,0.321h-1.121
			c-0.564,0-1.098-0.107-1.6-0.321c-0.5-0.214-0.938-0.508-1.313-0.882c-0.373-0.374-0.668-0.812-0.881-1.313
			c-0.215-0.501-0.322-1.034-0.322-1.6v-6.316c0-0.565,0.107-1.098,0.322-1.6c0.213-0.501,0.508-0.938,0.881-1.313
			c0.375-0.374,0.813-0.667,1.313-0.882c0.502-0.214,1.035-0.321,1.6-0.321h1.121c0.566,0,1.1,0.107,1.6,0.321
			c0.502,0.214,0.939,0.508,1.313,0.882c0.375,0.374,0.668,0.812,0.883,1.313c0.213,0.501,0.32,1.035,0.32,1.6v3.295h-7.67v3.117
			c0,0.337,0.064,0.654,0.191,0.95c0.129,0.297,0.301,0.554,0.52,0.772s0.477,0.392,0.773,0.52c0.295,0.128,0.613,0.191,0.949,0.191
			h1.121c0.338,0,0.654-0.063,0.951-0.191c0.295-0.128,0.553-0.301,0.771-0.52s0.393-0.476,0.52-0.772
			c0.129-0.296,0.191-0.613,0.191-0.95v-0.93l1.682,0.273v0.561C441.88,22.439,441.772,22.973,441.56,23.474z M440.198,15.462
			c0-0.337-0.063-0.654-0.191-0.95c-0.127-0.296-0.301-0.554-0.52-0.772s-0.477-0.392-0.771-0.52
			c-0.297-0.127-0.613-0.191-0.951-0.191h-1.121c-0.336,0-0.654,0.064-0.949,0.191c-0.297,0.128-0.555,0.301-0.773,0.52
			s-0.391,0.477-0.52,0.772c-0.127,0.296-0.191,0.613-0.191,0.95v2.078h5.988V15.462z"/>
		<path fill="#0C488D" stroke="#0C488D" stroke-width="0.5" stroke-miterlimit="10" d="M445.804,25.716V6.11h1.682v19.605H445.804z"
			/>
		<path fill="#0C488D" stroke="#0C488D" stroke-width="0.5" stroke-miterlimit="10" d="M466.88,23.474
			c-0.215,0.501-0.508,0.938-0.883,1.313c-0.373,0.374-0.811,0.668-1.313,0.882c-0.5,0.214-1.033,0.321-1.6,0.321h-0.424
			c-0.629,0-1.211-0.128-1.75-0.383c-0.537-0.255-0.998-0.61-1.381-1.066v6.781h-1.682V11.716h0.561l0.916,1.422
			c0.383-0.52,0.863-0.932,1.443-1.237c0.578-0.305,1.209-0.458,1.893-0.458h0.424c0.566,0,1.1,0.107,1.6,0.321
			c0.502,0.214,0.939,0.508,1.313,0.882c0.375,0.374,0.668,0.812,0.883,1.313c0.213,0.501,0.32,1.035,0.32,1.6v6.316
			C467.2,22.439,467.093,22.973,466.88,23.474z M465.519,15.462c0-0.337-0.063-0.654-0.191-0.95
			c-0.127-0.296-0.301-0.554-0.52-0.772s-0.477-0.392-0.771-0.52c-0.297-0.127-0.613-0.191-0.951-0.191h-1.121
			c-0.336,0-0.654,0.064-0.949,0.191c-0.297,0.128-0.555,0.301-0.773,0.52s-0.391,0.477-0.52,0.772
			c-0.127,0.296-0.191,0.613-0.191,0.95v6.508c0,0.337,0.064,0.654,0.191,0.95c0.129,0.297,0.301,0.554,0.52,0.772
			s0.477,0.392,0.773,0.52c0.295,0.128,0.613,0.191,0.949,0.191h1.121c0.338,0,0.654-0.063,0.951-0.191
			c0.295-0.128,0.553-0.301,0.771-0.52s0.393-0.476,0.52-0.772c0.129-0.296,0.191-0.613,0.191-0.95V15.462z"/>
		<path fill="#0C488D" stroke="#0C488D" stroke-width="0.5" stroke-miterlimit="10" d="M474.679,13.315
			c-0.336,0-0.654,0.064-0.949,0.191c-0.297,0.128-0.555,0.301-0.773,0.52s-0.391,0.477-0.52,0.772
			c-0.127,0.296-0.191,0.613-0.191,0.95v9.967h-1.682v-14h0.561l0.916,1.422c0.383-0.52,0.863-0.932,1.443-1.237
			c0.578-0.305,1.209-0.458,1.893-0.458h0.984v1.873H474.679z"/>
		<path fill="#0C488D" stroke="#0C488D" stroke-width="0.5" stroke-miterlimit="10" d="M487.634,23.474
			c-0.215,0.501-0.508,0.938-0.883,1.313c-0.373,0.374-0.811,0.668-1.313,0.882c-0.5,0.214-1.033,0.321-1.6,0.321h-1.121
			c-0.564,0-1.098-0.107-1.6-0.321c-0.5-0.214-0.938-0.508-1.313-0.882c-0.373-0.374-0.668-0.812-0.881-1.313
			c-0.215-0.501-0.322-1.034-0.322-1.6v-6.316c0-0.565,0.107-1.098,0.322-1.6c0.213-0.501,0.508-0.938,0.881-1.313
			c0.375-0.374,0.813-0.667,1.313-0.882c0.502-0.214,1.035-0.321,1.6-0.321h1.121c0.566,0,1.1,0.107,1.6,0.321
			c0.502,0.214,0.939,0.508,1.313,0.882c0.375,0.374,0.668,0.812,0.883,1.313c0.213,0.501,0.32,1.035,0.32,1.6v6.316
			C487.954,22.439,487.847,22.973,487.634,23.474z M486.272,15.462c0-0.337-0.063-0.654-0.191-0.95
			c-0.127-0.296-0.301-0.554-0.52-0.772s-0.477-0.392-0.771-0.52c-0.297-0.127-0.613-0.191-0.951-0.191h-1.121
			c-0.336,0-0.654,0.064-0.949,0.191c-0.297,0.128-0.555,0.301-0.773,0.52s-0.391,0.477-0.52,0.772
			c-0.127,0.296-0.191,0.613-0.191,0.95v6.508c0,0.337,0.064,0.654,0.191,0.95c0.129,0.297,0.301,0.554,0.52,0.772
			s0.477,0.392,0.773,0.52c0.295,0.128,0.613,0.191,0.949,0.191h1.121c0.338,0,0.654-0.063,0.951-0.191
			c0.295-0.128,0.553-0.301,0.771-0.52s0.393-0.476,0.52-0.772c0.129-0.296,0.191-0.613,0.191-0.95V15.462z"/>
		<path fill="#0C488D" stroke="#0C488D" stroke-width="0.5" stroke-miterlimit="10" d="M500.485,29.038
			c-0.215,0.474-0.508,0.88-0.883,1.217c-0.373,0.337-0.811,0.599-1.313,0.786c-0.5,0.187-1.033,0.28-1.6,0.28h-0.697
			c-0.564,0-1.098-0.094-1.6-0.28c-0.5-0.188-0.938-0.449-1.313-0.786c-0.373-0.337-0.668-0.743-0.881-1.217
			c-0.215-0.474-0.322-0.993-0.322-1.559v-0.055c0-0.547,0.102-1.048,0.301-1.504c0.201-0.456,0.475-0.853,0.82-1.189
			c-0.438-0.265-0.785-0.622-1.045-1.073s-0.391-0.95-0.391-1.497c0-0.492,0.105-0.95,0.314-1.374
			c0.211-0.424,0.498-0.768,0.861-1.032c-0.438-0.383-0.783-0.843-1.039-1.381c-0.254-0.538-0.383-1.125-0.383-1.764v-1.053
			c0-0.565,0.107-1.098,0.322-1.6c0.213-0.501,0.508-0.938,0.881-1.313c0.375-0.374,0.813-0.667,1.313-0.882
			c0.502-0.214,1.035-0.321,1.6-0.321h0.697c0.684,0,1.314,0.153,1.895,0.458c0.578,0.306,1.059,0.718,1.441,1.237l0.916-1.422
			h0.561v4.895c0,0.565-0.107,1.099-0.32,1.6c-0.215,0.501-0.508,0.938-0.883,1.313c-0.373,0.374-0.811,0.668-1.313,0.882
			c-0.5,0.215-1.033,0.321-1.6,0.321h-2.434c-0.191,0-0.373,0.039-0.547,0.116c-0.172,0.078-0.326,0.18-0.457,0.308
			c-0.133,0.128-0.234,0.28-0.309,0.458c-0.072,0.178-0.109,0.362-0.109,0.554s0.037,0.374,0.109,0.547
			c0.074,0.173,0.176,0.326,0.309,0.458c0.131,0.133,0.285,0.234,0.457,0.308c0.174,0.073,0.355,0.109,0.547,0.109h2.297
			c0.566,0,1.1,0.094,1.6,0.28c0.502,0.188,0.939,0.449,1.313,0.786c0.375,0.337,0.668,0.743,0.883,1.217
			c0.213,0.474,0.32,0.993,0.32,1.559v0.055C500.806,28.045,500.698,28.564,500.485,29.038z M499.274,15.462
			c0-0.337-0.063-0.654-0.191-0.95c-0.127-0.296-0.303-0.554-0.525-0.772c-0.225-0.219-0.484-0.392-0.779-0.52
			c-0.297-0.127-0.613-0.191-0.951-0.191h-1.395c-0.336,0-0.654,0.064-0.949,0.191c-0.297,0.128-0.555,0.301-0.773,0.52
			s-0.391,0.477-0.52,0.772c-0.127,0.296-0.191,0.613-0.191,0.95v1.244c0,0.337,0.064,0.654,0.191,0.95
			c0.129,0.296,0.301,0.554,0.52,0.772s0.477,0.392,0.773,0.52c0.295,0.128,0.613,0.191,0.949,0.191h1.395
			c0.338,0,0.654-0.063,0.951-0.191c0.295-0.128,0.555-0.301,0.779-0.52c0.223-0.219,0.398-0.476,0.525-0.772
			c0.129-0.296,0.191-0.613,0.191-0.95V15.462z M499.206,27.343c0-0.337-0.063-0.641-0.191-0.909
			c-0.127-0.27-0.301-0.494-0.52-0.677s-0.477-0.323-0.771-0.424c-0.297-0.101-0.613-0.15-0.951-0.15h-0.861
			c-0.336,0-0.654,0.05-0.949,0.15c-0.297,0.101-0.555,0.241-0.773,0.424s-0.391,0.407-0.52,0.677
			c-0.127,0.269-0.191,0.572-0.191,0.909v0.219c0,0.337,0.064,0.638,0.191,0.902c0.129,0.265,0.301,0.489,0.52,0.677
			c0.219,0.187,0.477,0.33,0.773,0.431c0.295,0.101,0.613,0.15,0.949,0.15h0.861c0.338,0,0.654-0.05,0.951-0.15
			c0.295-0.101,0.553-0.244,0.771-0.431c0.219-0.188,0.393-0.412,0.52-0.677c0.129-0.265,0.191-0.565,0.191-0.902V27.343z"/>
		<path fill="#0C488D" stroke="#0C488D" stroke-width="0.5" stroke-miterlimit="10" d="M508.147,13.315
			c-0.336,0-0.654,0.064-0.949,0.191c-0.297,0.128-0.555,0.301-0.773,0.52s-0.391,0.477-0.52,0.772
			c-0.127,0.296-0.191,0.613-0.191,0.95v9.967h-1.682v-14h0.561l0.916,1.422c0.383-0.52,0.863-0.932,1.443-1.237
			c0.578-0.305,1.209-0.458,1.893-0.458h0.984v1.873H508.147z"/>
		<path fill="#0C488D" stroke="#0C488D" stroke-width="0.5" stroke-miterlimit="10" d="M520.862,25.716l-0.93-1.395
			c-0.383,0.501-0.861,0.905-1.436,1.21s-1.203,0.458-1.887,0.458h-0.424c-0.564,0-1.098-0.107-1.6-0.321
			c-0.5-0.214-0.938-0.508-1.313-0.882c-0.373-0.374-0.668-0.812-0.881-1.313c-0.215-0.501-0.322-1.034-0.322-1.6v-0.137
			c0-0.565,0.107-1.099,0.322-1.6c0.213-0.501,0.508-0.938,0.881-1.313c0.375-0.374,0.813-0.667,1.313-0.882
			c0.502-0.214,1.035-0.321,1.6-0.321h3.555v-2.16c0-0.337-0.063-0.654-0.191-0.95c-0.127-0.296-0.301-0.554-0.52-0.772
			s-0.477-0.392-0.771-0.52c-0.297-0.127-0.613-0.191-0.951-0.191h-0.984c-0.336,0-0.654,0.064-0.949,0.191
			c-0.297,0.128-0.555,0.301-0.773,0.52s-0.391,0.477-0.52,0.772c-0.127,0.296-0.191,0.613-0.191,0.95v0.506l-1.682-0.273v-0.137
			c0-0.565,0.107-1.098,0.322-1.6c0.213-0.501,0.508-0.938,0.881-1.313c0.375-0.374,0.813-0.667,1.313-0.882
			c0.502-0.214,1.035-0.321,1.6-0.321h0.984c0.566,0,1.1,0.107,1.6,0.321c0.502,0.214,0.939,0.508,1.313,0.882
			c0.375,0.374,0.668,0.812,0.883,1.313c0.213,0.501,0.32,1.035,0.32,1.6v10.158H520.862z M519.741,18.935h-3.555
			c-0.336,0-0.654,0.063-0.949,0.191c-0.297,0.128-0.555,0.304-0.773,0.526c-0.219,0.224-0.391,0.483-0.52,0.779
			c-0.127,0.297-0.191,0.613-0.191,0.95v0.588c0,0.337,0.064,0.654,0.191,0.95c0.129,0.297,0.301,0.554,0.52,0.772
			s0.477,0.392,0.773,0.52c0.295,0.128,0.613,0.191,0.949,0.191h1.121c0.338,0,0.654-0.063,0.951-0.191
			c0.295-0.128,0.553-0.301,0.771-0.52s0.393-0.476,0.52-0.772c0.129-0.296,0.191-0.613,0.191-0.95V18.935z"/>
		<path fill="#0C488D" stroke="#0C488D" stroke-width="0.5" stroke-miterlimit="10" d="M539.565,25.716V15.462
			c0-0.337-0.063-0.654-0.191-0.95c-0.127-0.296-0.301-0.554-0.52-0.772s-0.477-0.392-0.771-0.52
			c-0.297-0.127-0.613-0.191-0.951-0.191h-0.834c-0.336,0-0.654,0.064-0.949,0.191c-0.297,0.128-0.557,0.301-0.779,0.52
			c-0.225,0.219-0.398,0.477-0.527,0.772c-0.127,0.296-0.191,0.613-0.191,0.95v10.254h-1.668V15.462c0-0.337-0.063-0.654-0.191-0.95
			c-0.127-0.296-0.303-0.554-0.525-0.772c-0.225-0.219-0.484-0.392-0.779-0.52c-0.297-0.127-0.613-0.191-0.951-0.191h-0.834
			c-0.336,0-0.654,0.064-0.949,0.191c-0.297,0.128-0.555,0.301-0.773,0.52s-0.391,0.477-0.52,0.772
			c-0.127,0.296-0.191,0.613-0.191,0.95v10.254h-1.682v-14h0.561l0.916,1.422c0.383-0.52,0.863-0.932,1.443-1.237
			c0.578-0.305,1.209-0.458,1.893-0.458h0.137c0.793,0,1.51,0.196,2.146,0.588c0.639,0.392,1.131,0.912,1.477,1.559
			c0.174-0.319,0.389-0.61,0.643-0.875c0.256-0.264,0.539-0.49,0.848-0.677c0.311-0.187,0.648-0.333,1.012-0.438
			c0.365-0.104,0.744-0.157,1.135-0.157h0.137c0.566,0,1.1,0.107,1.6,0.321c0.502,0.214,0.939,0.508,1.313,0.882
			c0.375,0.374,0.668,0.812,0.883,1.313c0.213,0.501,0.32,1.035,0.32,1.6v10.158H539.565z"/>
		<path fill="#0C488D" stroke="#0C488D" stroke-width="0.5" stroke-miterlimit="10" d="M553.401,25.716l-0.93-1.395
			c-0.383,0.501-0.861,0.905-1.436,1.21s-1.203,0.458-1.887,0.458h-0.424c-0.564,0-1.098-0.107-1.6-0.321
			c-0.5-0.214-0.938-0.508-1.313-0.882c-0.373-0.374-0.668-0.812-0.881-1.313c-0.215-0.501-0.322-1.034-0.322-1.6v-0.137
			c0-0.565,0.107-1.099,0.322-1.6c0.213-0.501,0.508-0.938,0.881-1.313c0.375-0.374,0.813-0.667,1.313-0.882
			c0.502-0.214,1.035-0.321,1.6-0.321h3.555v-2.16c0-0.337-0.063-0.654-0.191-0.95c-0.127-0.296-0.301-0.554-0.52-0.772
			s-0.477-0.392-0.771-0.52c-0.297-0.127-0.613-0.191-0.951-0.191h-0.984c-0.336,0-0.654,0.064-0.949,0.191
			c-0.297,0.128-0.555,0.301-0.773,0.52s-0.391,0.477-0.52,0.772c-0.127,0.296-0.191,0.613-0.191,0.95v0.506l-1.682-0.273v-0.137
			c0-0.565,0.107-1.098,0.322-1.6c0.213-0.501,0.508-0.938,0.881-1.313c0.375-0.374,0.813-0.667,1.313-0.882
			c0.502-0.214,1.035-0.321,1.6-0.321h0.984c0.566,0,1.1,0.107,1.6,0.321c0.502,0.214,0.939,0.508,1.313,0.882
			c0.375,0.374,0.668,0.812,0.883,1.313c0.213,0.501,0.32,1.035,0.32,1.6v10.158H553.401z M552.28,18.935h-3.555
			c-0.336,0-0.654,0.063-0.949,0.191c-0.297,0.128-0.555,0.304-0.773,0.526c-0.219,0.224-0.391,0.483-0.52,0.779
			c-0.127,0.297-0.191,0.613-0.191,0.95v0.588c0,0.337,0.064,0.654,0.191,0.95c0.129,0.297,0.301,0.554,0.52,0.772
			s0.477,0.392,0.773,0.52c0.295,0.128,0.613,0.191,0.949,0.191h1.121c0.338,0,0.654-0.063,0.951-0.191
			c0.295-0.128,0.553-0.301,0.771-0.52s0.393-0.476,0.52-0.772c0.129-0.296,0.191-0.613,0.191-0.95V18.935z"/>
	</g>
	<g>
		<g>
			<path fill="#0C488D" d="M12.833,20.066L3.006,27.83c-0.715,0.598-1.844,0.447-2.519-0.332c-0.677-0.779-0.643-1.891,0.072-2.482
				l9.828-7.766c0.06,0.156,0.354,0.745,1.028,1.522C12.091,19.551,12.509,19.834,12.833,20.066L12.833,20.066z"/>
			<path fill="#0C488D" d="M11.773,16.158c0,0,0.1,0.465,0.92,1.41c0.822,0.948,1.344,1.219,1.344,1.219s1.589-2.972,1.199-3.324
				C14.848,15.113,11.773,16.158,11.773,16.158z"/>
		</g>
		<g>
			<g>
				<g>
					<path fill="#FFCC73" d="M20.091,13.824l-0.82-7.795H7.913c-0.923,0-1.599,0.756-1.501,1.676l0.998,9.502l1.772-1.4
						c0.25-0.196,0.552-0.307,0.875-0.332c0.145-0.466,0.493-0.844,0.982-1.011c0.756-0.257,2.63-0.858,3.694-0.858
						c0.648,0,1.198,0.201,1.635,0.596c1.276,1.157,0.757,2.775-0.725,5.547c-0.225,0.418-0.615,0.682-1.059,0.777
						c-0.061,0.389-0.242,0.74-0.546,0.98l-5.701,4.506l0.242,2.301c0.097,0.92,0.931,1.676,1.853,1.676h17.057
						c0.923,0,1.6-0.754,1.501-1.676l-1.523-14.489H20.091L20.091,13.824z"/>
				</g>
				<polygon fill="#FFCC73" points="21.383,5.744 22.007,11.685 26.958,11.685 				"/>
			</g>
		</g>
	</g>
</g>
</svg>
