<?xml version="1.0" encoding="utf-8"?>
<!-- Generator: Adobe Illustrator 16.0.0, SVG Export Plug-In . SVG Version: 6.00 Build 0)  -->
<!DOCTYPE svg PUBLIC "-//W3C//DTD SVG 1.1//EN" "http://www.w3.org/Graphics/SVG/1.1/DTD/svg11.dtd">
<svg version="1.1" id="Capa_1" xmlns="http://www.w3.org/2000/svg" xmlns:xlink="http://www.w3.org/1999/xlink" x="0px" y="0px"
	 width="314.949px" height="35.968px" viewBox="0 0 314.949 35.968" enable-background="new 0 0 314.949 35.968"
	 xml:space="preserve">
<g>
	<g>
		<line fill="#0B488C" x1="0" y1="0.5" x2="313.404" y2="0.5"/>
		<rect fill="#FFCC73" width="313.404" height="1"/>
	</g>
	<g>
		<rect y="34.968" fill="#FFCC73" width="313.404" height="1"/>
	</g>
	<g>
		<path fill="#0C488D" stroke="#0C488D" stroke-width="0.5" stroke-miterlimit="10" d="M49.786,23.05
			c-0.251,0.583-0.595,1.094-1.032,1.531s-0.948,0.781-1.531,1.031c-0.583,0.251-1.208,0.377-1.873,0.377h-1.395
			c-0.666,0-1.292-0.126-1.88-0.377c-0.588-0.25-1.101-0.594-1.538-1.031s-0.782-0.948-1.032-1.531
			c-0.251-0.584-0.376-1.208-0.376-1.873V10.649c0-0.665,0.125-1.29,0.376-1.873c0.25-0.583,0.595-1.094,1.032-1.531
			s0.95-0.781,1.538-1.032c0.588-0.25,1.214-0.376,1.88-0.376h1.395c0.665,0,1.29,0.125,1.873,0.376
			c0.583,0.251,1.094,0.595,1.531,1.032s0.781,0.948,1.032,1.531c0.25,0.583,0.376,1.208,0.376,1.873v0.793l-1.764,0.273v-1.066
			c0-0.438-0.082-0.845-0.246-1.224c-0.164-0.378-0.388-0.708-0.67-0.991c-0.283-0.282-0.613-0.506-0.991-0.67
			c-0.378-0.164-0.786-0.246-1.224-0.246h-1.23c-0.438,0-0.846,0.082-1.224,0.246c-0.378,0.164-0.711,0.388-0.998,0.67
			c-0.287,0.283-0.513,0.613-0.677,0.991c-0.164,0.378-0.246,0.786-0.246,1.224v10.528c0,0.438,0.082,0.846,0.246,1.223
			c0.164,0.379,0.39,0.711,0.677,0.998s0.62,0.514,0.998,0.678c0.378,0.164,0.786,0.246,1.224,0.246h1.23
			c0.438,0,0.845-0.082,1.224-0.246c0.378-0.164,0.708-0.391,0.991-0.678c0.282-0.287,0.506-0.619,0.67-0.998
			c0.164-0.377,0.246-0.785,0.246-1.223v-1.066l1.764,0.287v0.779C50.162,21.842,50.037,22.466,49.786,23.05z"/>
		<path fill="#0C488D" stroke="#0C488D" stroke-width="0.5" stroke-miterlimit="10" d="M62.556,23.474
			c-0.214,0.501-0.508,0.938-0.882,1.313c-0.374,0.373-0.812,0.668-1.313,0.881c-0.501,0.215-1.035,0.322-1.6,0.322h-1.121
			c-0.565,0-1.099-0.107-1.6-0.322c-0.501-0.213-0.939-0.508-1.313-0.881c-0.374-0.374-0.668-0.812-0.882-1.313
			c-0.214-0.502-0.321-1.035-0.321-1.6v-6.317c0-0.565,0.107-1.098,0.321-1.6c0.214-0.501,0.508-0.938,0.882-1.313
			c0.374-0.374,0.811-0.667,1.313-0.882c0.501-0.214,1.034-0.321,1.6-0.321h1.121c0.565,0,1.098,0.107,1.6,0.321
			c0.501,0.214,0.938,0.508,1.313,0.882c0.374,0.374,0.667,0.812,0.882,1.313c0.214,0.501,0.321,1.035,0.321,1.6v3.295h-7.67v3.117
			c0,0.337,0.063,0.654,0.191,0.949c0.127,0.297,0.301,0.555,0.52,0.773s0.476,0.392,0.772,0.52c0.296,0.127,0.613,0.191,0.95,0.191
			h1.121c0.337,0,0.654-0.064,0.95-0.191c0.296-0.128,0.554-0.301,0.772-0.52s0.392-0.477,0.52-0.773
			c0.127-0.295,0.191-0.612,0.191-0.949v-0.93l1.682,0.273v0.561C62.877,22.439,62.77,22.972,62.556,23.474z M61.195,15.462
			c0-0.337-0.064-0.654-0.191-0.95c-0.128-0.296-0.301-0.554-0.52-0.772s-0.477-0.392-0.772-0.52
			c-0.296-0.127-0.613-0.191-0.95-0.191h-1.121c-0.337,0-0.654,0.064-0.95,0.191c-0.296,0.128-0.554,0.301-0.772,0.52
			s-0.392,0.477-0.52,0.772c-0.128,0.296-0.191,0.613-0.191,0.95v2.078h5.988V15.462z"/>
		<path fill="#0C488D" stroke="#0C488D" stroke-width="0.5" stroke-miterlimit="10" d="M70.355,13.315
			c-0.337,0-0.654,0.064-0.95,0.191c-0.296,0.128-0.554,0.301-0.772,0.52s-0.392,0.477-0.52,0.772
			c-0.128,0.296-0.191,0.613-0.191,0.95v9.967H66.24v-14h0.561l0.916,1.422c0.383-0.52,0.863-0.932,1.442-1.237
			c0.579-0.305,1.21-0.458,1.894-0.458h0.984v1.873H70.355z"/>
		<path fill="#0C488D" stroke="#0C488D" stroke-width="0.5" stroke-miterlimit="10" d="M79.379,25.716
			c-0.511,0-0.991-0.096-1.442-0.287s-0.843-0.456-1.176-0.793c-0.333-0.338-0.597-0.729-0.793-1.176
			c-0.196-0.447-0.294-0.926-0.294-1.436v-8.709h-2.516v-1.6h2.516V8.353l1.682-0.273v3.637h3.555v1.6h-3.555v8.792
			c0,0.282,0.052,0.545,0.157,0.785c0.104,0.242,0.248,0.454,0.431,0.637c0.182,0.182,0.396,0.326,0.643,0.43
			c0.246,0.105,0.51,0.158,0.793,0.158h1.531v1.6H79.379z"/>
		<path fill="#0C488D" stroke="#0C488D" stroke-width="0.5" stroke-miterlimit="10" d="M84.424,8.353V6.11h1.955v2.242H84.424z
			 M84.561,25.716v-14h1.682v14H84.561z"/>
		<path fill="#0C488D" stroke="#0C488D" stroke-width="0.5" stroke-miterlimit="10" d="M94.979,7.71
			c-0.283,0-0.545,0.053-0.786,0.157c-0.242,0.105-0.454,0.249-0.636,0.431C93.374,8.48,93.23,8.694,93.126,8.94
			c-0.105,0.246-0.157,0.511-0.157,0.793v1.982h3.268v1.6h-3.268v12.401h-1.682V13.315h-2.529v-1.6h2.529v-1.9
			c0-0.51,0.096-0.991,0.287-1.442s0.456-0.845,0.793-1.183c0.337-0.337,0.729-0.602,1.176-0.793
			c0.446-0.191,0.925-0.287,1.436-0.287h1.545v1.6H94.979z"/>
		<path fill="#0C488D" stroke="#0C488D" stroke-width="0.5" stroke-miterlimit="10" d="M98.629,8.353V6.11h1.955v2.242H98.629z
			 M98.766,25.716v-14h1.682v14H98.766z"/>
		<path fill="#0C488D" stroke="#0C488D" stroke-width="0.5" stroke-miterlimit="10" d="M113.401,23.474
			c-0.214,0.501-0.508,0.938-0.882,1.313c-0.374,0.373-0.812,0.668-1.313,0.881c-0.501,0.215-1.035,0.322-1.6,0.322h-1.121
			c-0.565,0-1.099-0.107-1.6-0.322c-0.501-0.213-0.939-0.508-1.313-0.881c-0.374-0.374-0.668-0.812-0.882-1.313
			c-0.214-0.502-0.321-1.035-0.321-1.6v-6.317c0-0.565,0.107-1.098,0.321-1.6c0.214-0.501,0.508-0.938,0.882-1.313
			c0.374-0.374,0.811-0.667,1.313-0.882c0.501-0.214,1.034-0.321,1.6-0.321h1.121c0.565,0,1.098,0.107,1.6,0.321
			c0.501,0.214,0.938,0.508,1.313,0.882c0.374,0.374,0.667,0.812,0.882,1.313c0.214,0.501,0.321,1.035,0.321,1.6v0.561l-1.682,0.273
			v-0.93c0-0.337-0.064-0.654-0.191-0.95c-0.128-0.296-0.301-0.554-0.52-0.772s-0.477-0.392-0.772-0.52
			c-0.296-0.127-0.613-0.191-0.95-0.191h-1.121c-0.337,0-0.654,0.064-0.95,0.191c-0.296,0.128-0.554,0.301-0.772,0.52
			s-0.392,0.477-0.52,0.772c-0.128,0.296-0.191,0.613-0.191,0.95v6.508c0,0.337,0.063,0.654,0.191,0.949
			c0.127,0.297,0.301,0.555,0.52,0.773s0.476,0.392,0.772,0.52c0.296,0.127,0.613,0.191,0.95,0.191h1.121
			c0.337,0,0.654-0.064,0.95-0.191c0.296-0.128,0.554-0.301,0.772-0.52s0.392-0.477,0.52-0.773c0.127-0.295,0.191-0.612,0.191-0.949
			v-0.93l1.682,0.273v0.561C113.723,22.439,113.615,22.972,113.401,23.474z"/>
		<path fill="#0C488D" stroke="#0C488D" stroke-width="0.5" stroke-miterlimit="10" d="M125.877,25.716l-0.93-1.395
			c-0.383,0.501-0.861,0.904-1.436,1.209c-0.574,0.306-1.203,0.459-1.887,0.459h-0.424c-0.565,0-1.099-0.107-1.6-0.322
			c-0.501-0.213-0.939-0.508-1.313-0.881c-0.374-0.374-0.668-0.812-0.882-1.313c-0.214-0.502-0.321-1.035-0.321-1.6v-0.137
			c0-0.565,0.107-1.099,0.321-1.6c0.214-0.502,0.508-0.939,0.882-1.313c0.374-0.374,0.811-0.668,1.313-0.882
			c0.501-0.214,1.034-0.321,1.6-0.321h3.555v-2.16c0-0.337-0.064-0.654-0.191-0.95c-0.128-0.296-0.301-0.554-0.52-0.772
			s-0.477-0.392-0.772-0.52c-0.296-0.127-0.613-0.191-0.95-0.191h-0.984c-0.337,0-0.654,0.064-0.95,0.191
			c-0.296,0.128-0.554,0.301-0.772,0.52s-0.392,0.477-0.52,0.772c-0.128,0.296-0.191,0.613-0.191,0.95v0.506l-1.682-0.273v-0.137
			c0-0.565,0.107-1.098,0.321-1.6c0.214-0.501,0.508-0.938,0.882-1.313c0.374-0.374,0.811-0.667,1.313-0.882
			c0.501-0.214,1.034-0.321,1.6-0.321h0.984c0.565,0,1.098,0.107,1.6,0.321c0.501,0.214,0.938,0.508,1.313,0.882
			c0.374,0.374,0.667,0.812,0.882,1.313c0.214,0.501,0.321,1.035,0.321,1.6v10.159H125.877z M124.756,18.935h-3.555
			c-0.337,0-0.654,0.063-0.95,0.191c-0.296,0.127-0.554,0.303-0.772,0.525c-0.219,0.225-0.392,0.484-0.52,0.779
			c-0.128,0.297-0.191,0.613-0.191,0.951v0.588c0,0.337,0.063,0.654,0.191,0.949c0.127,0.297,0.301,0.555,0.52,0.773
			s0.476,0.392,0.772,0.52c0.296,0.127,0.613,0.191,0.95,0.191h1.121c0.337,0,0.654-0.064,0.95-0.191
			c0.296-0.128,0.554-0.301,0.772-0.52s0.392-0.477,0.52-0.773c0.127-0.295,0.191-0.612,0.191-0.949V18.935z"/>
		<path fill="#0C488D" stroke="#0C488D" stroke-width="0.5" stroke-miterlimit="10" d="M138.831,23.474
			c-0.214,0.501-0.508,0.938-0.882,1.313c-0.374,0.373-0.812,0.668-1.313,0.881c-0.501,0.215-1.035,0.322-1.6,0.322h-1.121
			c-0.565,0-1.099-0.107-1.6-0.322c-0.501-0.213-0.939-0.508-1.313-0.881c-0.374-0.374-0.668-0.812-0.882-1.313
			c-0.214-0.502-0.321-1.035-0.321-1.6v-6.317c0-0.565,0.107-1.098,0.321-1.6c0.214-0.501,0.508-0.938,0.882-1.313
			c0.374-0.374,0.811-0.667,1.313-0.882c0.501-0.214,1.034-0.321,1.6-0.321h1.121c0.565,0,1.098,0.107,1.6,0.321
			c0.501,0.214,0.938,0.508,1.313,0.882c0.374,0.374,0.667,0.812,0.882,1.313c0.214,0.501,0.321,1.035,0.321,1.6v0.561l-1.682,0.273
			v-0.93c0-0.337-0.064-0.654-0.191-0.95c-0.128-0.296-0.301-0.554-0.52-0.772s-0.477-0.392-0.772-0.52
			c-0.296-0.127-0.613-0.191-0.95-0.191h-1.121c-0.337,0-0.654,0.064-0.95,0.191c-0.296,0.128-0.554,0.301-0.772,0.52
			s-0.392,0.477-0.52,0.772c-0.128,0.296-0.191,0.613-0.191,0.95v6.508c0,0.337,0.063,0.654,0.191,0.949
			c0.127,0.297,0.301,0.555,0.52,0.773s0.476,0.392,0.772,0.52c0.296,0.127,0.613,0.191,0.95,0.191h1.121
			c0.337,0,0.654-0.064,0.95-0.191c0.296-0.128,0.554-0.301,0.772-0.52s0.392-0.477,0.52-0.773c0.127-0.295,0.191-0.612,0.191-0.949
			v-0.93l1.682,0.273v0.561C139.152,22.439,139.045,22.972,138.831,23.474z"/>
		<path fill="#0C488D" stroke="#0C488D" stroke-width="0.5" stroke-miterlimit="10" d="M142.939,8.353V6.11h1.955v2.242H142.939z
			 M143.076,25.716v-14h1.682v14H143.076z"/>
		<path fill="#0C488D" stroke="#0C488D" stroke-width="0.5" stroke-miterlimit="10" d="M157.712,23.474
			c-0.215,0.501-0.508,0.938-0.882,1.313c-0.374,0.373-0.812,0.668-1.313,0.881c-0.501,0.215-1.035,0.322-1.6,0.322h-1.121
			c-0.565,0-1.099-0.107-1.6-0.322c-0.501-0.213-0.939-0.508-1.313-0.881c-0.374-0.374-0.668-0.812-0.882-1.313
			c-0.214-0.502-0.321-1.035-0.321-1.6v-6.317c0-0.565,0.107-1.098,0.321-1.6c0.214-0.501,0.508-0.938,0.882-1.313
			c0.374-0.374,0.811-0.667,1.313-0.882c0.501-0.214,1.034-0.321,1.6-0.321h1.121c0.565,0,1.098,0.107,1.6,0.321
			c0.501,0.214,0.938,0.508,1.313,0.882c0.374,0.374,0.667,0.812,0.882,1.313c0.214,0.501,0.321,1.035,0.321,1.6v6.317
			C158.033,22.439,157.926,22.972,157.712,23.474z M156.352,15.462c0-0.337-0.064-0.654-0.191-0.95
			c-0.128-0.296-0.301-0.554-0.52-0.772s-0.477-0.392-0.772-0.52c-0.296-0.127-0.613-0.191-0.95-0.191h-1.121
			c-0.337,0-0.654,0.064-0.95,0.191c-0.296,0.128-0.554,0.301-0.772,0.52s-0.392,0.477-0.52,0.772
			c-0.128,0.296-0.191,0.613-0.191,0.95v6.508c0,0.337,0.063,0.654,0.191,0.949c0.127,0.297,0.301,0.555,0.52,0.773
			s0.476,0.392,0.772,0.52c0.296,0.127,0.613,0.191,0.95,0.191h1.121c0.337,0,0.654-0.064,0.95-0.191
			c0.296-0.128,0.554-0.301,0.772-0.52s0.392-0.477,0.52-0.773c0.127-0.295,0.191-0.612,0.191-0.949V15.462z M152.66,9.474h-1.258
			l2.229-3.363h2.803L152.66,9.474z"/>
		<path fill="#0C488D" stroke="#0C488D" stroke-width="0.5" stroke-miterlimit="10" d="M169.066,25.716V15.462
			c0-0.337-0.063-0.654-0.191-0.95c-0.128-0.296-0.301-0.554-0.52-0.772s-0.477-0.392-0.772-0.52
			c-0.297-0.127-0.613-0.191-0.95-0.191h-1.121c-0.337,0-0.654,0.064-0.95,0.191c-0.297,0.128-0.554,0.301-0.772,0.52
			s-0.392,0.477-0.52,0.772c-0.128,0.296-0.191,0.613-0.191,0.95v10.254h-1.682v-14h0.561l0.916,1.422
			c0.383-0.52,0.863-0.932,1.442-1.237c0.578-0.305,1.21-0.458,1.894-0.458h0.424c0.565,0,1.099,0.107,1.6,0.321
			c0.501,0.214,0.938,0.508,1.313,0.882c0.374,0.374,0.667,0.812,0.882,1.313c0.214,0.501,0.321,1.035,0.321,1.6v10.159H169.066z"/>
		<path fill="#0C488D" stroke="#0C488D" stroke-width="0.5" stroke-miterlimit="10" d="M189.342,25.716l-0.93-1.422
			c-0.383,0.52-0.861,0.932-1.436,1.236c-0.574,0.306-1.203,0.459-1.887,0.459h-0.424c-0.565,0-1.099-0.107-1.6-0.322
			c-0.501-0.213-0.938-0.508-1.313-0.881c-0.374-0.374-0.668-0.812-0.882-1.313c-0.215-0.502-0.321-1.035-0.321-1.6v-6.317
			c0-0.565,0.106-1.098,0.321-1.6c0.214-0.501,0.508-0.938,0.882-1.313c0.374-0.374,0.812-0.667,1.313-0.882
			c0.501-0.214,1.034-0.321,1.6-0.321h0.424c0.629,0,1.212,0.128,1.75,0.383c0.538,0.255,0.998,0.611,1.381,1.066V6.11h1.682v19.606
			H189.342z M188.221,15.462c0-0.337-0.063-0.654-0.191-0.95c-0.128-0.296-0.301-0.554-0.52-0.772s-0.477-0.392-0.772-0.52
			c-0.297-0.127-0.613-0.191-0.95-0.191h-1.121c-0.337,0-0.654,0.064-0.95,0.191c-0.297,0.128-0.554,0.301-0.772,0.52
			s-0.392,0.477-0.52,0.772c-0.128,0.296-0.191,0.613-0.191,0.95v6.508c0,0.337,0.063,0.654,0.191,0.949
			c0.128,0.297,0.301,0.555,0.52,0.773s0.476,0.392,0.772,0.52c0.296,0.127,0.613,0.191,0.95,0.191h1.121
			c0.337,0,0.653-0.064,0.95-0.191c0.296-0.128,0.554-0.301,0.772-0.52s0.392-0.477,0.52-0.773c0.128-0.295,0.191-0.612,0.191-0.949
			V15.462z"/>
		<path fill="#0C488D" stroke="#0C488D" stroke-width="0.5" stroke-miterlimit="10" d="M202.296,23.474
			c-0.215,0.501-0.508,0.938-0.882,1.313c-0.374,0.373-0.812,0.668-1.313,0.881c-0.501,0.215-1.034,0.322-1.6,0.322h-1.121
			c-0.565,0-1.099-0.107-1.6-0.322c-0.501-0.213-0.938-0.508-1.313-0.881c-0.374-0.374-0.668-0.812-0.882-1.313
			c-0.215-0.502-0.321-1.035-0.321-1.6v-6.317c0-0.565,0.106-1.098,0.321-1.6c0.214-0.501,0.508-0.938,0.882-1.313
			c0.374-0.374,0.812-0.667,1.313-0.882c0.501-0.214,1.034-0.321,1.6-0.321h1.121c0.565,0,1.099,0.107,1.6,0.321
			c0.501,0.214,0.938,0.508,1.313,0.882c0.374,0.374,0.667,0.812,0.882,1.313c0.214,0.501,0.321,1.035,0.321,1.6v3.295h-7.67v3.117
			c0,0.337,0.063,0.654,0.191,0.949c0.128,0.297,0.301,0.555,0.52,0.773s0.476,0.392,0.772,0.52c0.296,0.127,0.613,0.191,0.95,0.191
			h1.121c0.337,0,0.653-0.064,0.95-0.191c0.296-0.128,0.554-0.301,0.772-0.52s0.392-0.477,0.52-0.773
			c0.128-0.295,0.191-0.612,0.191-0.949v-0.93l1.682,0.273v0.561C202.617,22.439,202.51,22.972,202.296,23.474z M200.936,15.462
			c0-0.337-0.063-0.654-0.191-0.95c-0.128-0.296-0.301-0.554-0.52-0.772s-0.477-0.392-0.772-0.52
			c-0.297-0.127-0.613-0.191-0.95-0.191h-1.121c-0.337,0-0.654,0.064-0.95,0.191c-0.297,0.128-0.554,0.301-0.772,0.52
			s-0.392,0.477-0.52,0.772c-0.128,0.296-0.191,0.613-0.191,0.95v2.078h5.988V15.462z"/>
		<path fill="#0C488D" stroke="#0C488D" stroke-width="0.5" stroke-miterlimit="10" d="M206.541,25.716V6.11h1.682v19.606H206.541z"
			/>
		<path fill="#0C488D" stroke="#0C488D" stroke-width="0.5" stroke-miterlimit="10" d="M227.616,23.474
			c-0.215,0.501-0.508,0.938-0.882,1.313c-0.374,0.373-0.812,0.668-1.313,0.881c-0.501,0.215-1.034,0.322-1.6,0.322h-0.424
			c-0.629,0-1.212-0.129-1.75-0.383c-0.538-0.256-0.998-0.611-1.381-1.066v6.781h-1.682V11.716h0.561l0.916,1.422
			c0.383-0.52,0.863-0.932,1.442-1.237c0.578-0.305,1.21-0.458,1.894-0.458h0.424c0.565,0,1.099,0.107,1.6,0.321
			c0.501,0.214,0.938,0.508,1.313,0.882c0.374,0.374,0.667,0.812,0.882,1.313c0.214,0.501,0.321,1.035,0.321,1.6v6.317
			C227.938,22.439,227.83,22.972,227.616,23.474z M226.256,15.462c0-0.337-0.063-0.654-0.191-0.95
			c-0.128-0.296-0.301-0.554-0.52-0.772s-0.477-0.392-0.772-0.52c-0.297-0.127-0.613-0.191-0.95-0.191h-1.121
			c-0.337,0-0.654,0.064-0.95,0.191c-0.297,0.128-0.554,0.301-0.772,0.52s-0.392,0.477-0.52,0.772
			c-0.128,0.296-0.191,0.613-0.191,0.95v6.508c0,0.337,0.063,0.654,0.191,0.949c0.128,0.297,0.301,0.555,0.52,0.773
			s0.476,0.392,0.772,0.52c0.296,0.127,0.613,0.191,0.95,0.191h1.121c0.337,0,0.653-0.064,0.95-0.191
			c0.296-0.128,0.554-0.301,0.772-0.52s0.392-0.477,0.52-0.773c0.128-0.295,0.191-0.612,0.191-0.949V15.462z"/>
		<path fill="#0C488D" stroke="#0C488D" stroke-width="0.5" stroke-miterlimit="10" d="M235.416,13.315
			c-0.337,0-0.654,0.064-0.95,0.191c-0.297,0.128-0.554,0.301-0.772,0.52s-0.392,0.477-0.52,0.772
			c-0.128,0.296-0.191,0.613-0.191,0.95v9.967h-1.682v-14h0.561l0.916,1.422c0.383-0.52,0.863-0.932,1.442-1.237
			c0.578-0.305,1.21-0.458,1.894-0.458h0.984v1.873H235.416z"/>
		<path fill="#0C488D" stroke="#0C488D" stroke-width="0.5" stroke-miterlimit="10" d="M248.37,23.474
			c-0.215,0.501-0.508,0.938-0.882,1.313c-0.374,0.373-0.812,0.668-1.313,0.881c-0.501,0.215-1.034,0.322-1.6,0.322h-1.121
			c-0.565,0-1.099-0.107-1.6-0.322c-0.501-0.213-0.938-0.508-1.313-0.881c-0.374-0.374-0.668-0.812-0.882-1.313
			c-0.215-0.502-0.321-1.035-0.321-1.6v-6.317c0-0.565,0.106-1.098,0.321-1.6c0.214-0.501,0.508-0.938,0.882-1.313
			c0.374-0.374,0.812-0.667,1.313-0.882c0.501-0.214,1.034-0.321,1.6-0.321h1.121c0.565,0,1.099,0.107,1.6,0.321
			c0.501,0.214,0.938,0.508,1.313,0.882c0.374,0.374,0.667,0.812,0.882,1.313c0.214,0.501,0.321,1.035,0.321,1.6v6.317
			C248.691,22.439,248.584,22.972,248.37,23.474z M247.01,15.462c0-0.337-0.063-0.654-0.191-0.95
			c-0.128-0.296-0.301-0.554-0.52-0.772s-0.477-0.392-0.772-0.52c-0.297-0.127-0.613-0.191-0.95-0.191h-1.121
			c-0.337,0-0.654,0.064-0.95,0.191c-0.297,0.128-0.554,0.301-0.772,0.52s-0.392,0.477-0.52,0.772
			c-0.128,0.296-0.191,0.613-0.191,0.95v6.508c0,0.337,0.063,0.654,0.191,0.949c0.128,0.297,0.301,0.555,0.52,0.773
			s0.476,0.392,0.772,0.52c0.296,0.127,0.613,0.191,0.95,0.191h1.121c0.337,0,0.653-0.064,0.95-0.191
			c0.296-0.128,0.554-0.301,0.772-0.52s0.392-0.477,0.52-0.773c0.128-0.295,0.191-0.612,0.191-0.949V15.462z"/>
		<path fill="#0C488D" stroke="#0C488D" stroke-width="0.5" stroke-miterlimit="10" d="M261.222,29.039
			c-0.215,0.473-0.508,0.879-0.882,1.217c-0.374,0.336-0.812,0.599-1.313,0.785c-0.501,0.188-1.034,0.281-1.6,0.281h-0.697
			c-0.565,0-1.099-0.094-1.6-0.281c-0.501-0.187-0.938-0.449-1.313-0.785c-0.374-0.338-0.668-0.744-0.882-1.217
			c-0.215-0.475-0.321-0.994-0.321-1.559v-0.055c0-0.547,0.101-1.049,0.301-1.504c0.2-0.456,0.474-0.853,0.82-1.189
			c-0.438-0.265-0.786-0.623-1.046-1.074s-0.39-0.949-0.39-1.496c0-0.492,0.104-0.951,0.314-1.375s0.497-0.768,0.861-1.031
			c-0.438-0.383-0.784-0.844-1.039-1.381c-0.255-0.538-0.383-1.126-0.383-1.764v-1.053c0-0.565,0.106-1.098,0.321-1.6
			c0.214-0.501,0.508-0.938,0.882-1.313c0.374-0.374,0.812-0.667,1.313-0.882c0.501-0.214,1.034-0.321,1.6-0.321h0.697
			c0.684,0,1.314,0.153,1.894,0.458c0.578,0.306,1.06,0.718,1.442,1.237l0.916-1.422h0.561v4.895c0,0.565-0.107,1.099-0.321,1.6
			c-0.215,0.501-0.508,0.938-0.882,1.313c-0.374,0.373-0.812,0.668-1.313,0.881c-0.501,0.215-1.034,0.322-1.6,0.322h-2.434
			c-0.191,0-0.374,0.039-0.547,0.115c-0.173,0.078-0.326,0.181-0.458,0.309c-0.133,0.127-0.234,0.279-0.308,0.457
			s-0.109,0.363-0.109,0.555s0.036,0.373,0.109,0.547c0.073,0.173,0.175,0.326,0.308,0.457c0.132,0.133,0.285,0.235,0.458,0.309
			c0.173,0.072,0.355,0.109,0.547,0.109h2.297c0.565,0,1.099,0.094,1.6,0.279c0.501,0.188,0.938,0.449,1.313,0.787
			c0.374,0.337,0.667,0.742,0.882,1.217c0.214,0.473,0.321,0.992,0.321,1.559v0.055C261.543,28.044,261.436,28.564,261.222,29.039z
			 M260.012,15.462c0-0.337-0.063-0.654-0.191-0.95c-0.128-0.296-0.304-0.554-0.526-0.772c-0.224-0.219-0.483-0.392-0.779-0.52
			c-0.297-0.127-0.613-0.191-0.95-0.191h-1.395c-0.337,0-0.654,0.064-0.95,0.191c-0.297,0.128-0.554,0.301-0.772,0.52
			s-0.392,0.477-0.52,0.772c-0.128,0.296-0.191,0.613-0.191,0.95v1.244c0,0.337,0.063,0.654,0.191,0.95
			c0.128,0.296,0.301,0.554,0.52,0.773s0.476,0.392,0.772,0.52c0.296,0.127,0.613,0.191,0.95,0.191h1.395
			c0.337,0,0.653-0.064,0.95-0.191c0.296-0.128,0.556-0.301,0.779-0.52c0.223-0.219,0.398-0.477,0.526-0.773
			c0.128-0.296,0.191-0.613,0.191-0.95V15.462z M259.943,27.343c0-0.338-0.063-0.641-0.191-0.91
			c-0.128-0.269-0.301-0.494-0.52-0.676c-0.219-0.183-0.477-0.324-0.772-0.424c-0.297-0.101-0.613-0.15-0.95-0.15h-0.861
			c-0.337,0-0.654,0.05-0.95,0.15c-0.297,0.1-0.554,0.241-0.772,0.424c-0.219,0.182-0.392,0.407-0.52,0.676
			c-0.128,0.27-0.191,0.572-0.191,0.91v0.219c0,0.336,0.063,0.637,0.191,0.902c0.128,0.264,0.301,0.489,0.52,0.676
			c0.219,0.188,0.476,0.33,0.772,0.432c0.296,0.1,0.613,0.15,0.95,0.15h0.861c0.337,0,0.653-0.051,0.95-0.15
			c0.296-0.102,0.554-0.244,0.772-0.432c0.219-0.187,0.392-0.412,0.52-0.676c0.128-0.266,0.191-0.566,0.191-0.902V27.343z"/>
		<path fill="#0C488D" stroke="#0C488D" stroke-width="0.5" stroke-miterlimit="10" d="M268.885,13.315
			c-0.337,0-0.654,0.064-0.95,0.191c-0.297,0.128-0.554,0.301-0.772,0.52s-0.392,0.477-0.52,0.772
			c-0.128,0.296-0.191,0.613-0.191,0.95v9.967h-1.682v-14h0.561l0.916,1.422c0.383-0.52,0.863-0.932,1.442-1.237
			c0.578-0.305,1.21-0.458,1.894-0.458h0.984v1.873H268.885z"/>
		<path fill="#0C488D" stroke="#0C488D" stroke-width="0.5" stroke-miterlimit="10" d="M281.6,25.716l-0.93-1.395
			c-0.383,0.501-0.861,0.904-1.436,1.209c-0.574,0.306-1.203,0.459-1.887,0.459h-0.424c-0.565,0-1.099-0.107-1.6-0.322
			c-0.501-0.213-0.938-0.508-1.313-0.881c-0.374-0.374-0.668-0.812-0.882-1.313c-0.215-0.502-0.321-1.035-0.321-1.6v-0.137
			c0-0.565,0.106-1.099,0.321-1.6c0.214-0.502,0.508-0.939,0.882-1.313c0.374-0.374,0.812-0.668,1.313-0.882
			c0.501-0.214,1.034-0.321,1.6-0.321h3.555v-2.16c0-0.337-0.063-0.654-0.191-0.95c-0.128-0.296-0.301-0.554-0.52-0.772
			s-0.477-0.392-0.772-0.52c-0.297-0.127-0.613-0.191-0.95-0.191h-0.984c-0.337,0-0.654,0.064-0.95,0.191
			c-0.297,0.128-0.554,0.301-0.772,0.52s-0.392,0.477-0.52,0.772c-0.128,0.296-0.191,0.613-0.191,0.95v0.506l-1.682-0.273v-0.137
			c0-0.565,0.106-1.098,0.321-1.6c0.214-0.501,0.508-0.938,0.882-1.313c0.374-0.374,0.812-0.667,1.313-0.882
			c0.501-0.214,1.034-0.321,1.6-0.321h0.984c0.565,0,1.099,0.107,1.6,0.321c0.501,0.214,0.938,0.508,1.313,0.882
			c0.374,0.374,0.667,0.812,0.882,1.313c0.214,0.501,0.321,1.035,0.321,1.6v10.159H281.6z M280.479,18.935h-3.555
			c-0.337,0-0.654,0.063-0.95,0.191c-0.297,0.127-0.554,0.303-0.772,0.525c-0.219,0.225-0.392,0.484-0.52,0.779
			c-0.128,0.297-0.191,0.613-0.191,0.951v0.588c0,0.337,0.063,0.654,0.191,0.949c0.128,0.297,0.301,0.555,0.52,0.773
			s0.476,0.392,0.772,0.52c0.296,0.127,0.613,0.191,0.95,0.191h1.121c0.337,0,0.653-0.064,0.95-0.191
			c0.296-0.128,0.554-0.301,0.772-0.52s0.392-0.477,0.52-0.773c0.128-0.295,0.191-0.612,0.191-0.949V18.935z"/>
		<path fill="#0C488D" stroke="#0C488D" stroke-width="0.5" stroke-miterlimit="10" d="M300.303,25.716V15.462
			c0-0.337-0.063-0.654-0.191-0.95c-0.128-0.296-0.301-0.554-0.52-0.772s-0.477-0.392-0.772-0.52
			c-0.297-0.127-0.613-0.191-0.95-0.191h-0.834c-0.337,0-0.654,0.064-0.95,0.191c-0.297,0.128-0.557,0.301-0.779,0.52
			c-0.224,0.219-0.398,0.477-0.526,0.772c-0.128,0.296-0.191,0.613-0.191,0.95v10.254h-1.668V15.462c0-0.337-0.063-0.654-0.191-0.95
			c-0.128-0.296-0.304-0.554-0.526-0.772c-0.224-0.219-0.483-0.392-0.779-0.52c-0.297-0.127-0.613-0.191-0.95-0.191h-0.834
			c-0.337,0-0.654,0.064-0.95,0.191c-0.297,0.128-0.554,0.301-0.772,0.52s-0.392,0.477-0.52,0.772
			c-0.128,0.296-0.191,0.613-0.191,0.95v10.254h-1.682v-14h0.561L287,13.138c0.383-0.52,0.863-0.932,1.442-1.237
			c0.578-0.305,1.21-0.458,1.894-0.458h0.137c0.793,0,1.509,0.196,2.146,0.588c0.638,0.392,1.13,0.912,1.477,1.559
			c0.173-0.319,0.388-0.61,0.643-0.875c0.255-0.264,0.538-0.49,0.848-0.677c0.31-0.187,0.647-0.333,1.012-0.438
			c0.364-0.104,0.743-0.157,1.135-0.157h0.137c0.565,0,1.099,0.107,1.6,0.321c0.501,0.214,0.938,0.508,1.313,0.882
			c0.374,0.374,0.667,0.812,0.882,1.313c0.214,0.501,0.321,1.035,0.321,1.6v10.159H300.303z"/>
		<path fill="#0C488D" stroke="#0C488D" stroke-width="0.5" stroke-miterlimit="10" d="M314.139,25.716l-0.93-1.395
			c-0.383,0.501-0.861,0.904-1.436,1.209c-0.574,0.306-1.203,0.459-1.887,0.459h-0.424c-0.565,0-1.099-0.107-1.6-0.322
			c-0.501-0.213-0.938-0.508-1.313-0.881c-0.374-0.374-0.668-0.812-0.882-1.313c-0.215-0.502-0.321-1.035-0.321-1.6v-0.137
			c0-0.565,0.106-1.099,0.321-1.6c0.214-0.502,0.508-0.939,0.882-1.313c0.374-0.374,0.812-0.668,1.313-0.882
			c0.501-0.214,1.034-0.321,1.6-0.321h3.555v-2.16c0-0.337-0.063-0.654-0.191-0.95c-0.128-0.296-0.301-0.554-0.52-0.772
			s-0.477-0.392-0.772-0.52c-0.297-0.127-0.613-0.191-0.95-0.191H309.6c-0.337,0-0.654,0.064-0.95,0.191
			c-0.297,0.128-0.554,0.301-0.772,0.52s-0.392,0.477-0.52,0.772c-0.128,0.296-0.191,0.613-0.191,0.95v0.506l-1.682-0.273v-0.137
			c0-0.565,0.106-1.098,0.321-1.6c0.214-0.501,0.508-0.938,0.882-1.313c0.374-0.374,0.812-0.667,1.313-0.882
			c0.501-0.214,1.034-0.321,1.6-0.321h0.984c0.565,0,1.099,0.107,1.6,0.321c0.501,0.214,0.938,0.508,1.313,0.882
			c0.374,0.374,0.667,0.812,0.882,1.313c0.214,0.501,0.321,1.035,0.321,1.6v10.159H314.139z M313.018,18.935h-3.555
			c-0.337,0-0.654,0.063-0.95,0.191c-0.297,0.127-0.554,0.303-0.772,0.525c-0.219,0.225-0.392,0.484-0.52,0.779
			c-0.128,0.297-0.191,0.613-0.191,0.951v0.588c0,0.337,0.063,0.654,0.191,0.949c0.128,0.297,0.301,0.555,0.52,0.773
			s0.476,0.392,0.772,0.52c0.296,0.127,0.613,0.191,0.95,0.191h1.121c0.337,0,0.653-0.064,0.95-0.191
			c0.296-0.128,0.554-0.301,0.772-0.52s0.392-0.477,0.52-0.773c0.128-0.295,0.191-0.612,0.191-0.949V18.935z"/>
	</g>
	<g>
		<g>
			<path fill="#FFCC73" d="M11.227,19.382c0.392,1.67-0.617,3.341-2.249,3.72c-1.628,0.376-3.259-0.68-3.652-2.354
				c-0.389-1.671,0.615-3.339,2.246-3.717C9.204,16.653,10.835,17.708,11.227,19.382z"/>
			<path fill="#FFCC73" d="M13.902,25.608c-0.371-1.614-1.734-2.689-3.046-2.383l-3.507,0.816c-1.308,0.302-2.065,1.865-1.688,3.481
				C5.661,27.522,9.873,29.151,13.902,25.608z"/>
		</g>
		<path fill="#0C488D" d="M30.937,23.102l-3.011-12.983c-0.283-1.225-1.515-1.998-2.756-1.713L1.777,13.84
			c-1.23,0.286-2.005,1.516-1.717,2.75L3.074,29.57c0.286,1.232,1.516,2.001,2.75,1.715l23.399-5.433
			C30.462,25.564,31.228,24.33,30.937,23.102z M10.274,12.294l6.844-1.586c0.362-0.084,0.75,0.253,0.866,0.762
			c0.118,0.507-0.077,0.984-0.439,1.07l-6.846,1.592c-0.368,0.084-0.755-0.261-0.875-0.766C9.708,12.863,9.906,12.38,10.274,12.294z
			 M13.721,27.84l-6.387,1.482c-1.228,0.285-2.46-0.479-2.75-1.718l-1.816-7.843c-0.291-1.229,0.478-2.46,1.709-2.751l6.387-1.478
			c1.234-0.29,2.468,0.476,2.759,1.71l1.813,7.838C15.724,26.322,14.958,27.556,13.721,27.84z M22.07,24.529l-2.521,0.59
			c-1.115,0.255-2.228-0.436-2.49-1.553c-0.254-1.113,0.437-2.231,1.551-2.493l2.522-0.581c1.112-0.259,2.227,0.434,2.482,1.555
			C23.876,23.159,23.183,24.274,22.07,24.529z M26.501,16.683l-9.553,2.216c-0.508,0.12-1.014-0.192-1.136-0.698
			c-0.112-0.512,0.198-1.019,0.707-1.139l9.558-2.217c0.507-0.115,1.015,0.198,1.13,0.706
			C27.323,16.063,27.009,16.566,26.501,16.683z"/>
		<path fill="#FFCC73" d="M14.504,4.388h-1.385c-1.276,0-2.309,1.033-2.309,2.313l0.498,4.429c0,1.068,0.861,1.925,1.928,1.925
			h1.158c1.059,0,1.923-0.856,1.923-1.925l0.5-4.429C16.818,5.421,15.786,4.388,14.504,4.388z M13.792,8.435
			c-0.763,0-1.383-0.61-1.383-1.37s0.62-1.376,1.383-1.376c0.756,0,1.37,0.616,1.37,1.376S14.549,8.435,13.792,8.435z"/>
	</g>
</g>
</svg>
