<?xml version="1.0" encoding="utf-8"?>
<!-- Generator: Adobe Illustrator 16.0.0, SVG Export Plug-In . SVG Version: 6.00 Build 0)  -->
<!DOCTYPE svg PUBLIC "-//W3C//DTD SVG 1.1//EN" "http://www.w3.org/Graphics/SVG/1.1/DTD/svg11.dtd">
<svg version="1.1" id="Capa_1" xmlns="http://www.w3.org/2000/svg" xmlns:xlink="http://www.w3.org/1999/xlink" x="0px" y="0px"
	 width="393.523px" height="35.968px" viewBox="0 0 393.523 35.968" enable-background="new 0 0 393.523 35.968"
	 xml:space="preserve">
<g opacity="0.9">
	<path fill="#0C488D" d="M28.764,31.052c0.419,0.375,0.933,0.566,1.426,0.566c0.495,0,0.969-0.188,1.307-0.566
		c0.339-0.377,0.475-0.87,0.423-1.367c-0.052-0.492-0.292-0.99-0.71-1.365l-3.116-2.824c0.232-0.674,0.325-1.422,0.243-2.209
		c-0.314-2.99-3.003-5.419-5.993-5.419c-2.987,0-5.164,2.429-4.849,5.419c0.314,2.986,3.002,5.422,5.988,5.422
		c0.79,0,1.519-0.176,2.166-0.48L28.764,31.052z M19.39,23.287c-0.207-1.945,1.21-3.525,3.153-3.525c1.945,0,3.696,1.58,3.9,3.525
		c0.206,1.941-1.213,3.524-3.159,3.524C21.342,26.812,19.593,25.229,19.39,23.287z"/>
	<g>
		<path fill="#FFCC73" d="M19.633,5.465H1.756c-1.072,0-1.859,0.877-1.746,1.949l0.242,2.291c0.112,1.071,1.084,1.951,2.155,1.951
			h17.878c1.073,0,1.859-0.879,1.745-1.951l-0.24-2.291C21.677,6.342,20.708,5.465,19.633,5.465z M6.795,9.248H2.841
			c-0.379,0-0.72-0.307-0.761-0.689c-0.04-0.38,0.236-0.686,0.616-0.686H6.65c0.38,0,0.721,0.306,0.76,0.686
			C7.451,8.941,7.175,9.248,6.795,9.248z"/>
		<g>
			<path fill="#FFCC73" d="M8.429,24.789H4.475c-0.38,0-0.656,0.309-0.616,0.688s0.381,0.688,0.76,0.688h3.954
				c0.38,0,0.656-0.309,0.616-0.688C9.148,25.097,8.808,24.789,8.429,24.789z"/>
			<path fill="#FFCC73" d="M7.499,15.953H3.546c-0.381,0-0.656,0.306-0.616,0.688c0.04,0.378,0.38,0.686,0.76,0.686h3.953
				c0.38,0,0.656-0.308,0.615-0.686C8.219,16.259,7.88,15.953,7.499,15.953z"/>
			<path fill="#FFCC73" d="M22.113,15.669c0.184,0,0.366,0.015,0.547,0.028l-0.021-0.201c-0.113-1.072-1.083-1.952-2.156-1.952
				H2.604c-1.07,0-1.856,0.88-1.744,1.952l0.241,2.289c0.112,1.071,1.083,1.95,2.153,1.95H15.81
				C16.833,17.32,19.197,15.669,22.113,15.669z M7.644,17.327H3.691c-0.38,0-0.722-0.308-0.76-0.686
				c-0.04-0.382,0.235-0.688,0.616-0.688H7.5c0.381,0,0.72,0.306,0.76,0.688C8.3,17.019,8.024,17.327,7.644,17.327z"/>
			<path fill="#FFCC73" d="M15.263,22.38H3.534c-1.071,0-1.858,0.879-1.745,1.949l0.241,2.291c0.112,1.071,1.083,1.95,2.155,1.95
				h13.709c-0.213-0.233-0.41-0.481-0.596-0.735c-1.083-1.271-1.82-2.842-1.999-4.549C15.268,22.978,15.26,22.677,15.263,22.38z
				 M8.572,26.164H4.618c-0.378,0-0.72-0.308-0.76-0.688c-0.04-0.379,0.236-0.688,0.616-0.688h3.955c0.378,0,0.719,0.31,0.758,0.688
				C9.228,25.854,8.953,26.164,8.572,26.164z"/>
		</g>
	</g>
</g>
<g>
	<line fill="none" x1="1.101" y1="0.5" x2="393.523" y2="0.5"/>
	<rect x="1.101" fill="#FFCC73" width="392.422" height="1"/>
</g>
<g>
	<rect x="1.101" y="34.968" fill="#FFCC73" width="392.422" height="1"/>
</g>
<g>
	<path fill="#0C488D" stroke="#0C488D" stroke-width="0.5" stroke-miterlimit="10" d="M47.873,21.149h-6.207l-1.285,4.565h-1.832
		L44.291,6.11h0.93l5.77,19.604h-1.818L47.873,21.149z M42.144,19.468h5.264l-2.584-9.037l-0.055-0.725l-0.055,0.725L42.144,19.468z
		"/>
	<path fill="#0C488D" stroke="#0C488D" stroke-width="0.5" stroke-miterlimit="10" d="M62.57,22.162
		c0,0.564-0.114,1.082-0.342,1.551c-0.228,0.471-0.538,0.873-0.93,1.211s-0.846,0.6-1.36,0.785c-0.515,0.188-1.055,0.281-1.62,0.281
		h-1.121c-0.565,0-1.105-0.107-1.62-0.322c-0.515-0.213-0.966-0.508-1.354-0.881c-0.388-0.373-0.697-0.812-0.93-1.313
		c-0.232-0.501-0.349-1.034-0.349-1.601v-0.561l1.682-0.273v0.93c0,0.339,0.07,0.654,0.212,0.951
		c0.141,0.295,0.33,0.554,0.567,0.771c0.237,0.219,0.51,0.393,0.82,0.52c0.31,0.129,0.633,0.191,0.971,0.191h1.121
		c0.337,0,0.661-0.05,0.971-0.15c0.31-0.1,0.585-0.244,0.827-0.431c0.241-0.187,0.433-0.411,0.574-0.677
		c0.141-0.264,0.212-0.564,0.212-0.902c0-0.5-0.109-0.91-0.328-1.229c-0.219-0.318-0.508-0.587-0.868-0.8
		c-0.36-0.215-0.771-0.393-1.23-0.533c-0.46-0.143-0.932-0.282-1.415-0.424c-0.483-0.141-0.955-0.303-1.415-0.485
		s-0.871-0.421-1.23-0.718c-0.36-0.296-0.649-0.667-0.868-1.114c-0.219-0.446-0.328-1.002-0.328-1.668
		c0-0.565,0.109-1.082,0.328-1.552c0.219-0.469,0.515-0.873,0.889-1.21s0.809-0.599,1.306-0.786c0.497-0.187,1.027-0.28,1.593-0.28
		h0.984c0.565,0,1.098,0.107,1.6,0.321c0.501,0.214,0.938,0.508,1.313,0.882c0.374,0.374,0.667,0.812,0.882,1.313
		c0.214,0.501,0.321,1.035,0.321,1.6v0.055l-1.682,0.273v-0.424c0-0.337-0.064-0.654-0.191-0.95
		c-0.128-0.296-0.301-0.554-0.52-0.772c-0.219-0.218-0.477-0.392-0.772-0.521c-0.296-0.127-0.613-0.191-0.95-0.191h-0.984
		c-0.337,0-0.654,0.05-0.95,0.15c-0.296,0.101-0.554,0.244-0.772,0.431c-0.219,0.187-0.392,0.413-0.52,0.677
		c-0.128,0.265-0.191,0.565-0.191,0.902c0,0.483,0.109,0.877,0.328,1.183c0.219,0.306,0.508,0.563,0.868,0.772
		c0.36,0.21,0.77,0.385,1.23,0.526c0.46,0.142,0.93,0.287,1.408,0.438s0.948,0.321,1.408,0.513s0.87,0.438,1.23,0.738
		c0.36,0.301,0.649,0.678,0.868,1.128C62.462,20.938,62.57,21.496,62.57,22.162z"/>
	<path fill="#0C488D" stroke="#0C488D" stroke-width="0.5" stroke-miterlimit="10" d="M74.827,23.474
		c-0.214,0.502-0.508,0.939-0.882,1.313c-0.374,0.375-0.812,0.668-1.313,0.883c-0.501,0.213-1.035,0.32-1.6,0.32h-0.424
		c-0.629,0-1.212-0.128-1.75-0.383s-0.998-0.609-1.381-1.066v6.781h-1.682V11.716h0.561l0.916,1.422
		c0.383-0.52,0.863-0.932,1.442-1.237c0.579-0.305,1.21-0.458,1.894-0.458h0.424c0.565,0,1.098,0.107,1.6,0.321
		c0.501,0.214,0.938,0.508,1.313,0.882c0.374,0.374,0.667,0.812,0.882,1.313c0.214,0.501,0.321,1.035,0.321,1.6v6.315
		C75.148,22.439,75.041,22.973,74.827,23.474z M73.466,15.462c0-0.337-0.064-0.654-0.191-0.95c-0.128-0.296-0.301-0.554-0.52-0.772
		c-0.219-0.218-0.477-0.392-0.772-0.521c-0.296-0.127-0.613-0.191-0.95-0.191h-1.121c-0.337,0-0.654,0.064-0.95,0.191
		c-0.296,0.128-0.554,0.301-0.772,0.521c-0.218,0.219-0.392,0.477-0.52,0.772c-0.128,0.296-0.191,0.613-0.191,0.95v6.508
		c0,0.338,0.063,0.654,0.191,0.949c0.127,0.297,0.301,0.555,0.52,0.772c0.219,0.218,0.476,0.394,0.772,0.521s0.613,0.19,0.95,0.19
		h1.121c0.337,0,0.654-0.063,0.95-0.19s0.554-0.301,0.772-0.521c0.218-0.219,0.392-0.478,0.52-0.772
		c0.127-0.295,0.191-0.611,0.191-0.949V15.462z"/>
	<path fill="#0C488D" stroke="#0C488D" stroke-width="0.5" stroke-miterlimit="10" d="M87.542,23.474
		c-0.214,0.502-0.508,0.939-0.882,1.313c-0.374,0.375-0.812,0.668-1.313,0.883c-0.501,0.213-1.035,0.32-1.6,0.32h-1.121
		c-0.565,0-1.099-0.107-1.6-0.32c-0.501-0.215-0.939-0.508-1.313-0.883c-0.374-0.373-0.668-0.811-0.882-1.313
		c-0.214-0.501-0.321-1.034-0.321-1.6v-6.316c0-0.565,0.107-1.098,0.321-1.6c0.214-0.501,0.508-0.938,0.882-1.313
		c0.374-0.374,0.811-0.667,1.313-0.882c0.501-0.214,1.034-0.321,1.6-0.321h1.121c0.565,0,1.098,0.107,1.6,0.321
		c0.501,0.214,0.938,0.508,1.313,0.882c0.374,0.374,0.667,0.812,0.882,1.313c0.214,0.501,0.321,1.035,0.321,1.6v3.295h-7.67v3.117
		c0,0.338,0.063,0.654,0.191,0.949c0.127,0.297,0.301,0.555,0.52,0.772c0.219,0.218,0.476,0.394,0.772,0.521
		c0.296,0.127,0.613,0.19,0.95,0.19h1.121c0.337,0,0.654-0.063,0.95-0.19c0.296-0.127,0.554-0.301,0.772-0.521
		c0.218-0.219,0.392-0.478,0.52-0.772c0.127-0.295,0.191-0.611,0.191-0.949v-0.93l1.682,0.272v0.562
		C87.863,22.439,87.755,22.973,87.542,23.474z M86.181,15.462c0-0.337-0.064-0.654-0.191-0.95c-0.128-0.296-0.301-0.554-0.52-0.772
		c-0.219-0.218-0.477-0.392-0.772-0.521c-0.296-0.127-0.613-0.191-0.95-0.191h-1.121c-0.337,0-0.654,0.064-0.95,0.191
		c-0.296,0.128-0.554,0.301-0.772,0.521c-0.218,0.219-0.392,0.477-0.52,0.772c-0.128,0.296-0.191,0.613-0.191,0.95v2.078h5.988
		L86.181,15.462L86.181,15.462z"/>
	<path fill="#0C488D" stroke="#0C488D" stroke-width="0.5" stroke-miterlimit="10" d="M100.256,23.474
		c-0.214,0.502-0.508,0.939-0.882,1.313c-0.374,0.375-0.812,0.668-1.313,0.883c-0.501,0.213-1.035,0.32-1.6,0.32H95.34
		c-0.565,0-1.099-0.107-1.6-0.32c-0.501-0.215-0.939-0.508-1.313-0.883c-0.374-0.373-0.668-0.811-0.882-1.313
		c-0.214-0.501-0.321-1.034-0.321-1.6v-6.316c0-0.565,0.107-1.098,0.321-1.6c0.214-0.501,0.508-0.938,0.882-1.313
		c0.374-0.374,0.811-0.667,1.313-0.882c0.501-0.214,1.034-0.321,1.6-0.321h1.121c0.565,0,1.098,0.107,1.6,0.321
		c0.501,0.214,0.938,0.508,1.313,0.882c0.374,0.374,0.667,0.812,0.882,1.313c0.214,0.501,0.321,1.035,0.321,1.6v0.561l-1.682,0.273
		v-0.93c0-0.337-0.064-0.654-0.191-0.95c-0.128-0.296-0.301-0.554-0.52-0.772c-0.219-0.218-0.477-0.392-0.772-0.521
		c-0.296-0.127-0.613-0.191-0.95-0.191h-1.121c-0.337,0-0.654,0.064-0.95,0.191c-0.296,0.128-0.554,0.301-0.772,0.521
		c-0.218,0.219-0.392,0.477-0.52,0.772c-0.128,0.296-0.191,0.613-0.191,0.95v6.508c0,0.338,0.063,0.654,0.191,0.949
		c0.127,0.297,0.301,0.555,0.52,0.772c0.219,0.218,0.476,0.394,0.772,0.521s0.613,0.19,0.95,0.19h1.121
		c0.337,0,0.654-0.063,0.95-0.19s0.554-0.301,0.772-0.521c0.218-0.219,0.392-0.478,0.52-0.772c0.127-0.295,0.191-0.611,0.191-0.949
		v-0.93l1.682,0.272v0.562C100.578,22.439,100.47,22.973,100.256,23.474z"/>
	<path fill="#0C488D" stroke="#0C488D" stroke-width="0.5" stroke-miterlimit="10" d="M109.041,25.716
		c-0.511,0-0.991-0.096-1.442-0.287c-0.451-0.191-0.843-0.455-1.176-0.793s-0.597-0.729-0.793-1.176
		c-0.196-0.446-0.294-0.926-0.294-1.437v-8.709h-2.516v-1.6h2.516V8.353l1.682-0.273v3.637h3.555v1.6h-3.555v8.791
		c0,0.283,0.052,0.545,0.157,0.786c0.104,0.24,0.248,0.454,0.431,0.637c0.182,0.182,0.396,0.325,0.643,0.43
		c0.247,0.105,0.51,0.158,0.793,0.158h1.531v1.6h-1.532V25.716z"/>
	<path fill="#0C488D" stroke="#0C488D" stroke-width="0.5" stroke-miterlimit="10" d="M122.692,23.474
		c-0.214,0.502-0.508,0.939-0.882,1.313c-0.374,0.375-0.812,0.668-1.313,0.883c-0.501,0.213-1.035,0.32-1.6,0.32h-1.121
		c-0.565,0-1.099-0.107-1.6-0.32c-0.501-0.215-0.939-0.508-1.313-0.883c-0.374-0.373-0.668-0.811-0.882-1.313
		c-0.214-0.501-0.321-1.034-0.321-1.6v-6.316c0-0.565,0.107-1.098,0.321-1.6c0.214-0.501,0.508-0.938,0.882-1.313
		c0.374-0.374,0.811-0.667,1.313-0.882c0.501-0.214,1.034-0.321,1.6-0.321h1.121c0.565,0,1.098,0.107,1.6,0.321
		c0.501,0.214,0.938,0.508,1.313,0.882c0.374,0.374,0.667,0.812,0.882,1.313c0.214,0.501,0.321,1.035,0.321,1.6v6.316
		C123.013,22.439,122.906,22.973,122.692,23.474z M121.332,15.462c0-0.337-0.064-0.654-0.191-0.95
		c-0.128-0.296-0.301-0.554-0.52-0.772c-0.219-0.218-0.477-0.392-0.772-0.521c-0.296-0.127-0.613-0.191-0.95-0.191h-1.121
		c-0.337,0-0.654,0.064-0.95,0.191c-0.296,0.128-0.554,0.301-0.772,0.521c-0.218,0.219-0.392,0.477-0.52,0.772
		c-0.128,0.296-0.191,0.613-0.191,0.95v6.508c0,0.338,0.063,0.654,0.191,0.949c0.127,0.297,0.301,0.555,0.52,0.772
		c0.219,0.218,0.476,0.394,0.772,0.521s0.613,0.19,0.95,0.19h1.121c0.337,0,0.654-0.063,0.95-0.19s0.554-0.301,0.772-0.521
		c0.218-0.219,0.392-0.478,0.52-0.772c0.127-0.295,0.191-0.611,0.191-0.949V15.462z"/>
	<path fill="#0C488D" stroke="#0C488D" stroke-width="0.5" stroke-miterlimit="10" d="M136.001,22.162
		c0,0.564-0.114,1.082-0.342,1.551c-0.228,0.471-0.538,0.873-0.93,1.211s-0.846,0.6-1.36,0.785c-0.515,0.188-1.055,0.281-1.62,0.281
		h-1.121c-0.565,0-1.105-0.107-1.62-0.322c-0.515-0.213-0.966-0.508-1.354-0.881c-0.388-0.373-0.697-0.812-0.93-1.313
		c-0.232-0.501-0.349-1.034-0.349-1.601v-0.561l1.682-0.273v0.93c0,0.339,0.07,0.654,0.212,0.951
		c0.141,0.295,0.33,0.554,0.567,0.771c0.237,0.219,0.51,0.393,0.82,0.52c0.31,0.129,0.633,0.191,0.971,0.191h1.121
		c0.337,0,0.661-0.05,0.971-0.15c0.31-0.1,0.585-0.244,0.827-0.431c0.241-0.187,0.433-0.411,0.574-0.677
		c0.141-0.264,0.212-0.564,0.212-0.902c0-0.5-0.109-0.91-0.328-1.229c-0.219-0.318-0.508-0.587-0.868-0.8
		c-0.36-0.215-0.771-0.393-1.23-0.533c-0.46-0.143-0.932-0.282-1.415-0.424c-0.483-0.141-0.955-0.303-1.415-0.485
		s-0.871-0.421-1.23-0.718c-0.36-0.296-0.649-0.667-0.868-1.114c-0.219-0.446-0.328-1.002-0.328-1.668
		c0-0.565,0.109-1.082,0.328-1.552c0.219-0.469,0.515-0.873,0.889-1.21s0.809-0.599,1.306-0.786c0.497-0.187,1.027-0.28,1.593-0.28
		h0.984c0.565,0,1.098,0.107,1.6,0.321c0.501,0.214,0.938,0.508,1.313,0.882c0.374,0.374,0.667,0.812,0.882,1.313
		c0.214,0.501,0.321,1.035,0.321,1.6v0.055l-1.682,0.273v-0.424c0-0.337-0.064-0.654-0.191-0.95
		c-0.128-0.296-0.301-0.554-0.52-0.772c-0.219-0.218-0.477-0.392-0.772-0.521c-0.296-0.127-0.613-0.191-0.95-0.191h-0.984
		c-0.337,0-0.654,0.05-0.95,0.15c-0.296,0.101-0.554,0.244-0.772,0.431c-0.219,0.187-0.392,0.413-0.52,0.677
		c-0.128,0.265-0.191,0.565-0.191,0.902c0,0.483,0.109,0.877,0.328,1.183c0.219,0.306,0.508,0.563,0.868,0.772
		c0.36,0.21,0.77,0.385,1.23,0.526c0.46,0.142,0.93,0.287,1.408,0.438s0.948,0.321,1.408,0.513s0.87,0.438,1.23,0.738
		c0.36,0.301,0.649,0.678,0.868,1.128C135.893,20.938,136.001,21.496,136.001,22.162z"/>
	<path fill="#0C488D" stroke="#0C488D" stroke-width="0.5" stroke-miterlimit="10" d="M169.655,23.474
		c-0.214,0.502-0.508,0.939-0.882,1.313c-0.374,0.375-0.812,0.668-1.313,0.883c-0.501,0.213-1.035,0.32-1.6,0.32h-1.121
		c-0.565,0-1.099-0.107-1.6-0.32c-0.501-0.215-0.939-0.508-1.313-0.883c-0.374-0.373-0.668-0.811-0.882-1.313
		c-0.214-0.501-0.321-1.034-0.321-1.6v-6.316c0-0.565,0.107-1.098,0.321-1.6c0.214-0.501,0.508-0.938,0.882-1.313
		c0.374-0.374,0.811-0.667,1.313-0.882c0.501-0.214,1.034-0.321,1.6-0.321h1.121c0.565,0,1.098,0.107,1.6,0.321
		c0.501,0.214,0.938,0.508,1.313,0.882c0.374,0.374,0.667,0.812,0.882,1.313c0.214,0.501,0.321,1.035,0.321,1.6v3.295h-7.67v3.117
		c0,0.338,0.063,0.654,0.191,0.949c0.127,0.297,0.301,0.555,0.52,0.772c0.219,0.218,0.476,0.394,0.772,0.521s0.613,0.19,0.95,0.19
		h1.121c0.337,0,0.654-0.063,0.95-0.19s0.554-0.301,0.772-0.521c0.218-0.219,0.392-0.478,0.52-0.772
		c0.127-0.295,0.191-0.611,0.191-0.949v-0.93l1.682,0.272v0.562C169.976,22.439,169.869,22.973,169.655,23.474z M168.294,15.462
		c0-0.337-0.064-0.654-0.191-0.95c-0.128-0.296-0.301-0.554-0.52-0.772c-0.219-0.218-0.477-0.392-0.772-0.521
		c-0.296-0.127-0.613-0.191-0.95-0.191h-1.121c-0.337,0-0.654,0.064-0.95,0.191c-0.296,0.128-0.554,0.301-0.772,0.521
		c-0.218,0.219-0.392,0.477-0.52,0.772c-0.128,0.296-0.191,0.613-0.191,0.95v2.078h5.988L168.294,15.462L168.294,15.462z"/>
	<path fill="#0C488D" stroke="#0C488D" stroke-width="0.5" stroke-miterlimit="10" d="M181.009,25.716V15.462
		c0-0.337-0.064-0.654-0.191-0.95c-0.128-0.296-0.301-0.554-0.52-0.772c-0.219-0.218-0.477-0.392-0.772-0.521
		c-0.296-0.127-0.613-0.191-0.95-0.191h-1.121c-0.337,0-0.654,0.064-0.95,0.191c-0.296,0.128-0.554,0.301-0.772,0.521
		c-0.218,0.219-0.392,0.477-0.52,0.772c-0.128,0.296-0.191,0.613-0.191,0.95v10.254h-1.682v-14h0.561l0.916,1.422
		c0.383-0.52,0.863-0.932,1.442-1.237c0.579-0.305,1.21-0.458,1.894-0.458h0.424c0.565,0,1.098,0.107,1.6,0.321
		c0.501,0.214,0.938,0.508,1.313,0.882c0.374,0.374,0.667,0.812,0.882,1.313c0.214,0.501,0.321,1.035,0.321,1.6v10.157H181.009
		L181.009,25.716z"/>
	<path fill="#0C488D" stroke="#0C488D" stroke-width="0.5" stroke-miterlimit="10" d="M195.084,23.474
		c-0.214,0.502-0.508,0.939-0.882,1.313c-0.374,0.375-0.812,0.668-1.313,0.883c-0.501,0.213-1.035,0.32-1.6,0.32h-1.121
		c-0.565,0-1.099-0.107-1.6-0.32c-0.501-0.215-0.939-0.508-1.313-0.883c-0.374-0.373-0.668-0.811-0.882-1.313
		c-0.214-0.501-0.321-1.034-0.321-1.6v-6.316c0-0.565,0.107-1.098,0.321-1.6c0.214-0.501,0.508-0.938,0.882-1.313
		c0.374-0.374,0.811-0.667,1.313-0.882c0.501-0.214,1.034-0.321,1.6-0.321h1.121c0.565,0,1.098,0.107,1.6,0.321
		c0.501,0.214,0.938,0.508,1.313,0.882c0.374,0.374,0.667,0.812,0.882,1.313c0.214,0.501,0.321,1.035,0.321,1.6v3.295h-7.67v3.117
		c0,0.338,0.063,0.654,0.191,0.949c0.127,0.297,0.301,0.555,0.52,0.772c0.219,0.218,0.476,0.394,0.772,0.521
		c0.296,0.127,0.613,0.19,0.95,0.19h1.121c0.337,0,0.654-0.063,0.95-0.19c0.296-0.127,0.554-0.301,0.772-0.521
		c0.218-0.219,0.392-0.478,0.52-0.772c0.127-0.295,0.191-0.611,0.191-0.949v-0.93l1.682,0.272v0.562
		C195.406,22.439,195.298,22.973,195.084,23.474z M193.724,15.462c0-0.337-0.064-0.654-0.191-0.95
		c-0.128-0.296-0.301-0.554-0.52-0.772c-0.219-0.218-0.477-0.392-0.772-0.521c-0.296-0.127-0.613-0.191-0.95-0.191h-1.121
		c-0.337,0-0.654,0.064-0.95,0.191c-0.296,0.128-0.554,0.301-0.772,0.521c-0.218,0.219-0.392,0.477-0.52,0.772
		c-0.128,0.296-0.191,0.613-0.191,0.95v2.078h5.988L193.724,15.462L193.724,15.462z"/>
	<path fill="#0C488D" stroke="#0C488D" stroke-width="0.5" stroke-miterlimit="10" d="M202.884,13.315
		c-0.338,0-0.654,0.064-0.95,0.191c-0.297,0.128-0.554,0.301-0.772,0.52c-0.218,0.219-0.392,0.477-0.52,0.772
		c-0.128,0.296-0.191,0.613-0.191,0.95v9.966h-1.682v-14h0.561l0.916,1.422c0.383-0.52,0.863-0.932,1.442-1.237
		c0.578-0.305,1.21-0.458,1.894-0.458h0.984v1.873H202.884z"/>
	<path fill="#0C488D" stroke="#0C488D" stroke-width="0.5" stroke-miterlimit="10" d="M215.599,25.716l-0.93-1.396
		c-0.383,0.503-0.861,0.904-1.437,1.21c-0.575,0.307-1.203,0.459-1.887,0.459h-0.425c-0.564,0-1.098-0.107-1.6-0.322
		c-0.501-0.213-0.938-0.508-1.313-0.881s-0.668-0.812-0.883-1.313c-0.215-0.501-0.32-1.034-0.32-1.601v-0.137
		c0-0.564,0.105-1.098,0.32-1.6s0.508-0.938,0.883-1.313c0.373-0.375,0.812-0.667,1.313-0.883c0.502-0.214,1.034-0.321,1.6-0.321
		h3.556v-2.16c0-0.337-0.063-0.654-0.19-0.95c-0.129-0.296-0.302-0.554-0.521-0.772c-0.22-0.218-0.478-0.392-0.772-0.52
		c-0.297-0.127-0.613-0.191-0.949-0.191h-0.984c-0.337,0-0.654,0.064-0.95,0.191c-0.297,0.128-0.554,0.301-0.772,0.52
		c-0.217,0.219-0.392,0.477-0.52,0.772c-0.128,0.296-0.191,0.613-0.191,0.95v0.506l-1.682-0.273v-0.137
		c0-0.565,0.105-1.098,0.321-1.6c0.214-0.501,0.508-0.938,0.882-1.313c0.374-0.374,0.813-0.667,1.313-0.882
		c0.502-0.214,1.035-0.321,1.601-0.321h0.983c0.565,0,1.1,0.107,1.601,0.321c0.501,0.214,0.938,0.508,1.313,0.882
		c0.373,0.374,0.666,0.812,0.881,1.313s0.322,1.035,0.322,1.6v10.158h-0.563V25.716z M214.478,18.935h-3.555
		c-0.338,0-0.654,0.064-0.95,0.191c-0.298,0.127-0.554,0.303-0.772,0.525c-0.218,0.223-0.392,0.482-0.52,0.779
		c-0.128,0.296-0.191,0.613-0.191,0.949v0.588c0,0.339,0.063,0.654,0.191,0.951c0.128,0.295,0.301,0.554,0.52,0.771
		c0.219,0.219,0.477,0.393,0.772,0.52c0.296,0.129,0.612,0.191,0.95,0.191h1.121c0.336,0,0.652-0.063,0.949-0.191
		c0.297-0.127,0.555-0.301,0.772-0.52s0.392-0.477,0.521-0.771c0.127-0.295,0.19-0.612,0.19-0.951L214.478,18.935L214.478,18.935z"
		/>
	<path fill="#0C488D" stroke="#0C488D" stroke-width="0.5" stroke-miterlimit="10" d="M220.083,25.716V6.11h1.682v19.604h-1.682
		V25.716z"/>
	<path fill="#0C488D" stroke="#0C488D" stroke-width="0.5" stroke-miterlimit="10" d="M234.718,23.474
		c-0.215,0.502-0.508,0.939-0.881,1.313c-0.375,0.375-0.813,0.668-1.313,0.883c-0.501,0.213-1.034,0.32-1.601,0.32h-1.121
		c-0.564,0-1.098-0.107-1.6-0.32c-0.5-0.215-0.938-0.508-1.313-0.883c-0.374-0.373-0.668-0.811-0.883-1.313
		c-0.215-0.501-0.32-1.034-0.32-1.6v-6.316c0-0.565,0.105-1.098,0.32-1.6c0.215-0.501,0.509-0.938,0.883-1.313
		c0.374-0.374,0.813-0.667,1.313-0.882c0.502-0.214,1.034-0.321,1.6-0.321h1.121c0.565,0,1.1,0.107,1.601,0.321
		c0.501,0.214,0.938,0.508,1.313,0.882c0.373,0.374,0.666,0.812,0.881,1.313s0.322,1.035,0.322,1.6v3.295h-7.67v3.117
		c0,0.338,0.063,0.654,0.19,0.949c0.128,0.297,0.301,0.555,0.521,0.772c0.219,0.218,0.476,0.394,0.771,0.521s0.613,0.19,0.95,0.19
		h1.12c0.338,0,0.654-0.063,0.951-0.19c0.295-0.127,0.554-0.301,0.771-0.521c0.218-0.219,0.393-0.478,0.52-0.772
		c0.129-0.295,0.191-0.611,0.191-0.949v-0.93l1.682,0.272v0.562C235.041,22.439,234.933,22.973,234.718,23.474z M233.359,15.462
		c0-0.337-0.063-0.654-0.191-0.95c-0.127-0.296-0.301-0.554-0.52-0.772c-0.219-0.218-0.477-0.392-0.771-0.521
		c-0.297-0.127-0.613-0.191-0.951-0.191h-1.12c-0.337,0-0.654,0.064-0.95,0.191c-0.297,0.128-0.555,0.301-0.771,0.521
		c-0.219,0.219-0.393,0.477-0.521,0.772c-0.128,0.296-0.19,0.613-0.19,0.95v2.078h5.987L233.359,15.462L233.359,15.462z"/>
	<path fill="#0C488D" stroke="#0C488D" stroke-width="0.5" stroke-miterlimit="10" d="M248.029,22.162
		c0,0.564-0.113,1.082-0.342,1.551c-0.229,0.471-0.538,0.873-0.93,1.211c-0.393,0.338-0.846,0.6-1.36,0.785
		c-0.517,0.188-1.056,0.281-1.62,0.281h-1.121c-0.564,0-1.105-0.107-1.619-0.322c-0.517-0.213-0.968-0.508-1.354-0.881
		c-0.388-0.373-0.697-0.812-0.931-1.313c-0.231-0.501-0.349-1.034-0.349-1.601v-0.561l1.683-0.273v0.93
		c0,0.339,0.07,0.654,0.211,0.951c0.142,0.295,0.33,0.554,0.568,0.771c0.236,0.219,0.51,0.393,0.819,0.52
		c0.31,0.129,0.634,0.191,0.972,0.191h1.12c0.337,0,0.661-0.05,0.972-0.15c0.31-0.1,0.584-0.244,0.826-0.431
		c0.241-0.187,0.434-0.411,0.574-0.677c0.141-0.264,0.212-0.564,0.212-0.902c0-0.5-0.108-0.91-0.327-1.229
		c-0.22-0.318-0.51-0.587-0.869-0.8c-0.359-0.215-0.771-0.393-1.229-0.533c-0.461-0.143-0.933-0.282-1.415-0.424
		c-0.482-0.141-0.955-0.303-1.415-0.485c-0.461-0.183-0.871-0.421-1.229-0.718c-0.36-0.296-0.649-0.667-0.869-1.114
		c-0.219-0.446-0.327-1.002-0.327-1.668c0-0.565,0.108-1.082,0.327-1.552c0.22-0.469,0.516-0.873,0.89-1.21s0.81-0.599,1.306-0.786
		s1.027-0.28,1.594-0.28h0.984c0.564,0,1.098,0.107,1.6,0.321c0.5,0.214,0.938,0.508,1.313,0.882
		c0.374,0.374,0.667,0.812,0.883,1.313c0.213,0.501,0.32,1.035,0.32,1.6v0.055l-1.682,0.273v-0.424c0-0.337-0.063-0.654-0.191-0.95
		c-0.128-0.296-0.301-0.554-0.52-0.772c-0.219-0.218-0.478-0.392-0.772-0.521c-0.297-0.127-0.612-0.191-0.95-0.191h-0.984
		c-0.336,0-0.653,0.05-0.949,0.15c-0.297,0.101-0.555,0.244-0.771,0.431c-0.22,0.187-0.393,0.413-0.521,0.677
		c-0.128,0.265-0.19,0.565-0.19,0.902c0,0.483,0.108,0.877,0.327,1.183c0.22,0.306,0.509,0.563,0.868,0.772
		c0.359,0.21,0.77,0.385,1.23,0.526c0.459,0.142,0.93,0.287,1.408,0.438c0.478,0.151,0.946,0.321,1.407,0.513
		c0.46,0.191,0.87,0.438,1.229,0.738c0.359,0.301,0.649,0.678,0.869,1.128C247.921,20.938,248.029,21.496,248.029,22.162z"/>
	<path fill="#0C488D" stroke="#0C488D" stroke-width="0.5" stroke-miterlimit="10" d="M266.486,25.716l-0.93-1.422
		c-0.383,0.52-0.861,0.932-1.436,1.236c-0.576,0.305-1.203,0.459-1.888,0.459h-0.424c-0.565,0-1.099-0.107-1.601-0.322
		c-0.5-0.213-0.938-0.508-1.313-0.881c-0.374-0.373-0.668-0.812-0.882-1.313c-0.216-0.501-0.321-1.034-0.321-1.601v-6.315
		c0-0.565,0.105-1.098,0.321-1.6c0.214-0.501,0.508-0.938,0.882-1.313c0.374-0.374,0.813-0.667,1.313-0.882
		c0.502-0.214,1.035-0.321,1.601-0.321h0.424c0.629,0,1.212,0.128,1.75,0.383c0.538,0.255,0.998,0.611,1.382,1.066V6.11h1.682
		v19.604h-0.561V25.716z M265.365,15.462c0-0.337-0.063-0.654-0.191-0.95c-0.127-0.296-0.301-0.554-0.52-0.772
		c-0.219-0.218-0.477-0.392-0.771-0.521c-0.297-0.127-0.613-0.191-0.95-0.191h-1.121c-0.337,0-0.653,0.064-0.95,0.191
		c-0.297,0.128-0.554,0.301-0.771,0.521c-0.219,0.219-0.393,0.477-0.521,0.772c-0.128,0.296-0.19,0.613-0.19,0.95v6.508
		c0,0.338,0.063,0.654,0.19,0.949c0.128,0.297,0.302,0.555,0.521,0.772s0.476,0.394,0.771,0.521s0.613,0.19,0.95,0.19h1.121
		c0.337,0,0.653-0.063,0.95-0.19c0.295-0.127,0.554-0.301,0.771-0.521c0.219-0.219,0.393-0.478,0.52-0.772
		c0.129-0.295,0.191-0.611,0.191-0.949V15.462z"/>
	<path fill="#0C488D" stroke="#0C488D" stroke-width="0.5" stroke-miterlimit="10" d="M279.44,23.474
		c-0.215,0.502-0.508,0.939-0.882,1.313c-0.374,0.375-0.813,0.668-1.313,0.883c-0.502,0.213-1.035,0.32-1.601,0.32h-1.121
		c-0.565,0-1.099-0.107-1.601-0.32c-0.5-0.215-0.938-0.508-1.313-0.883c-0.374-0.373-0.668-0.811-0.882-1.313
		c-0.215-0.501-0.321-1.034-0.321-1.6v-6.316c0-0.565,0.106-1.098,0.321-1.6c0.214-0.501,0.508-0.938,0.882-1.313
		c0.374-0.374,0.813-0.667,1.313-0.882c0.502-0.214,1.035-0.321,1.601-0.321h1.121c0.565,0,1.099,0.107,1.601,0.321
		c0.5,0.214,0.938,0.508,1.313,0.882c0.374,0.374,0.667,0.812,0.882,1.313c0.214,0.501,0.321,1.035,0.321,1.6v3.295h-7.67v3.117
		c0,0.338,0.063,0.654,0.191,0.949c0.127,0.297,0.301,0.555,0.52,0.772s0.476,0.394,0.771,0.521c0.297,0.127,0.613,0.19,0.95,0.19
		h1.121c0.337,0,0.653-0.063,0.95-0.19c0.296-0.127,0.554-0.301,0.771-0.521c0.219-0.219,0.393-0.478,0.521-0.772
		s0.19-0.611,0.19-0.949v-0.93l1.683,0.272v0.562C279.761,22.439,279.654,22.973,279.44,23.474z M278.08,15.462
		c0-0.337-0.063-0.654-0.19-0.95c-0.128-0.296-0.302-0.554-0.521-0.772c-0.219-0.218-0.477-0.392-0.771-0.521
		c-0.297-0.127-0.613-0.191-0.95-0.191h-1.121c-0.337,0-0.653,0.064-0.95,0.191c-0.297,0.128-0.554,0.301-0.771,0.521
		c-0.219,0.219-0.393,0.477-0.52,0.772c-0.129,0.296-0.191,0.613-0.191,0.95v2.078h5.988v-2.078H278.08z"/>
	<path fill="#0C488D" stroke="#0C488D" stroke-width="0.5" stroke-miterlimit="10" d="M283.685,25.716V6.11h1.682v19.604h-1.682
		V25.716z"/>
	<path fill="#0C488D" stroke="#0C488D" stroke-width="0.5" stroke-miterlimit="10" d="M304.759,23.474
		c-0.215,0.502-0.508,0.939-0.881,1.313c-0.375,0.375-0.813,0.668-1.313,0.883c-0.501,0.213-1.034,0.32-1.601,0.32h-0.424
		c-0.629,0-1.211-0.128-1.75-0.383c-0.537-0.255-0.998-0.609-1.381-1.066v6.781h-1.682V11.716h0.561l0.916,1.422
		c0.383-0.52,0.863-0.932,1.442-1.237c0.578-0.305,1.21-0.458,1.894-0.458h0.424c0.565,0,1.1,0.107,1.601,0.321
		c0.501,0.214,0.938,0.508,1.313,0.882c0.373,0.374,0.666,0.812,0.881,1.313s0.322,1.035,0.322,1.6v6.315
		C305.082,22.439,304.974,22.973,304.759,23.474z M303.4,15.462c0-0.337-0.063-0.654-0.191-0.95
		c-0.127-0.296-0.301-0.554-0.52-0.772c-0.219-0.218-0.477-0.392-0.771-0.521c-0.297-0.127-0.613-0.191-0.951-0.191h-1.12
		c-0.337,0-0.654,0.064-0.95,0.191c-0.297,0.128-0.555,0.301-0.771,0.521c-0.219,0.219-0.393,0.477-0.521,0.772
		c-0.128,0.296-0.19,0.613-0.19,0.95v6.508c0,0.338,0.063,0.654,0.19,0.949c0.128,0.297,0.301,0.555,0.521,0.772
		c0.219,0.218,0.476,0.394,0.771,0.521s0.613,0.19,0.95,0.19h1.12c0.338,0,0.654-0.063,0.951-0.19
		c0.295-0.127,0.554-0.301,0.771-0.521c0.219-0.219,0.393-0.478,0.52-0.772c0.129-0.295,0.191-0.611,0.191-0.949V15.462z"/>
	<path fill="#0C488D" stroke="#0C488D" stroke-width="0.5" stroke-miterlimit="10" d="M312.56,13.315
		c-0.338,0-0.654,0.064-0.949,0.191c-0.299,0.128-0.555,0.301-0.773,0.52c-0.217,0.219-0.391,0.477-0.52,0.772
		c-0.127,0.296-0.191,0.613-0.191,0.95v9.966h-1.682v-14h0.561l0.916,1.422c0.383-0.52,0.863-0.932,1.443-1.237
		c0.578-0.305,1.209-0.458,1.893-0.458h0.984v1.873H312.56z"/>
	<path fill="#0C488D" stroke="#0C488D" stroke-width="0.5" stroke-miterlimit="10" d="M325.513,23.474
		c-0.215,0.502-0.508,0.939-0.881,1.313c-0.375,0.375-0.813,0.668-1.313,0.883c-0.502,0.213-1.035,0.32-1.602,0.32h-1.121
		c-0.564,0-1.098-0.107-1.6-0.32c-0.5-0.215-0.938-0.508-1.313-0.883c-0.375-0.373-0.668-0.811-0.883-1.313
		c-0.215-0.501-0.32-1.034-0.32-1.6v-6.316c0-0.565,0.105-1.098,0.32-1.6c0.215-0.501,0.508-0.938,0.883-1.313
		c0.373-0.374,0.813-0.667,1.313-0.882c0.502-0.214,1.035-0.321,1.6-0.321h1.121c0.566,0,1.1,0.107,1.602,0.321
		c0.5,0.214,0.938,0.508,1.313,0.882c0.373,0.374,0.666,0.812,0.881,1.313s0.322,1.035,0.322,1.6v6.316
		C325.835,22.439,325.728,22.973,325.513,23.474z M324.154,15.462c0-0.337-0.063-0.654-0.191-0.95
		c-0.127-0.296-0.301-0.554-0.52-0.772c-0.219-0.218-0.477-0.392-0.771-0.521c-0.297-0.127-0.613-0.191-0.951-0.191h-1.121
		c-0.336,0-0.652,0.064-0.949,0.191c-0.297,0.128-0.555,0.301-0.771,0.521c-0.219,0.219-0.393,0.477-0.52,0.772
		c-0.129,0.296-0.191,0.613-0.191,0.95v6.508c0,0.338,0.063,0.654,0.191,0.949c0.127,0.297,0.301,0.555,0.52,0.772
		s0.475,0.394,0.771,0.521s0.613,0.19,0.949,0.19h1.121c0.338,0,0.654-0.063,0.951-0.19c0.295-0.127,0.553-0.301,0.771-0.521
		c0.219-0.219,0.393-0.478,0.52-0.772c0.129-0.295,0.191-0.611,0.191-0.949V15.462z"/>
	<path fill="#0C488D" stroke="#0C488D" stroke-width="0.5" stroke-miterlimit="10" d="M338.367,29.039
		c-0.215,0.474-0.508,0.879-0.883,1.217c-0.373,0.336-0.813,0.6-1.313,0.785c-0.502,0.187-1.035,0.28-1.6,0.28h-0.697
		c-0.566,0-1.1-0.094-1.6-0.28c-0.502-0.186-0.939-0.449-1.314-0.785c-0.373-0.338-0.668-0.743-0.881-1.217
		c-0.215-0.476-0.322-0.994-0.322-1.56v-0.056c0-0.547,0.102-1.049,0.301-1.504c0.201-0.455,0.475-0.852,0.82-1.188
		c-0.438-0.265-0.785-0.622-1.045-1.073s-0.391-0.949-0.391-1.496c0-0.492,0.104-0.951,0.314-1.375
		c0.209-0.424,0.496-0.768,0.861-1.031c-0.439-0.383-0.785-0.844-1.039-1.381c-0.256-0.538-0.383-1.125-0.383-1.764v-1.053
		c0-0.565,0.105-1.098,0.32-1.6c0.215-0.501,0.508-0.938,0.883-1.313c0.373-0.374,0.811-0.667,1.313-0.882
		c0.5-0.214,1.033-0.321,1.6-0.321h0.697c0.684,0,1.314,0.153,1.895,0.458c0.578,0.306,1.059,0.718,1.441,1.237l0.916-1.422h0.561
		v4.895c0,0.565-0.107,1.099-0.32,1.6c-0.215,0.501-0.508,0.939-0.883,1.313c-0.373,0.374-0.813,0.668-1.313,0.882
		c-0.502,0.215-1.033,0.321-1.6,0.321h-2.434c-0.191,0-0.375,0.039-0.549,0.116c-0.172,0.076-0.324,0.181-0.457,0.308
		c-0.133,0.128-0.234,0.28-0.309,0.458s-0.109,0.361-0.109,0.555c0,0.191,0.037,0.373,0.109,0.547
		c0.074,0.174,0.176,0.326,0.309,0.457c0.133,0.133,0.285,0.235,0.457,0.309c0.174,0.072,0.355,0.109,0.549,0.109h2.297
		c0.564,0,1.098,0.094,1.6,0.279c0.5,0.186,0.938,0.449,1.313,0.786c0.375,0.338,0.668,0.743,0.883,1.218
		c0.213,0.473,0.32,0.992,0.32,1.559v0.055C338.687,28.044,338.58,28.563,338.367,29.039z M337.156,15.462
		c0-0.337-0.063-0.654-0.191-0.95c-0.127-0.296-0.303-0.554-0.525-0.772c-0.225-0.219-0.482-0.392-0.779-0.521
		c-0.297-0.127-0.613-0.191-0.949-0.191h-1.395c-0.338,0-0.654,0.064-0.951,0.191c-0.297,0.128-0.555,0.301-0.771,0.521
		c-0.219,0.219-0.393,0.477-0.52,0.772c-0.129,0.296-0.191,0.613-0.191,0.95v1.244c0,0.337,0.063,0.654,0.191,0.95
		c0.127,0.296,0.301,0.554,0.52,0.771c0.219,0.218,0.477,0.392,0.771,0.521c0.297,0.127,0.613,0.19,0.951,0.19h1.395
		c0.336,0,0.652-0.063,0.949-0.19c0.297-0.128,0.557-0.302,0.779-0.521c0.223-0.219,0.398-0.476,0.525-0.771
		c0.129-0.296,0.191-0.613,0.191-0.95V15.462z M337.087,27.343c0-0.338-0.063-0.641-0.191-0.909s-0.301-0.495-0.52-0.677
		s-0.477-0.323-0.773-0.424s-0.611-0.15-0.949-0.15h-0.861c-0.336,0-0.654,0.051-0.949,0.15c-0.297,0.101-0.555,0.242-0.771,0.424
		c-0.219,0.182-0.393,0.408-0.521,0.677c-0.127,0.269-0.189,0.571-0.189,0.909v0.219c0,0.337,0.063,0.639,0.189,0.902
		c0.129,0.264,0.301,0.49,0.521,0.677c0.219,0.187,0.475,0.33,0.771,0.431c0.295,0.1,0.613,0.15,0.949,0.15h0.861
		c0.338,0,0.652-0.051,0.949-0.15c0.297-0.101,0.555-0.244,0.773-0.431c0.217-0.187,0.391-0.413,0.52-0.677
		c0.129-0.266,0.191-0.565,0.191-0.902V27.343z"/>
	<path fill="#0C488D" stroke="#0C488D" stroke-width="0.5" stroke-miterlimit="10" d="M346.029,13.315
		c-0.336,0-0.654,0.064-0.949,0.191c-0.297,0.128-0.555,0.301-0.773,0.52c-0.217,0.219-0.391,0.477-0.52,0.772
		c-0.127,0.296-0.191,0.613-0.191,0.95v9.966h-1.682v-14h0.561l0.916,1.422c0.385-0.52,0.863-0.932,1.443-1.237
		c0.578-0.305,1.209-0.458,1.893-0.458h0.984v1.873H346.029z"/>
	<path fill="#0C488D" stroke="#0C488D" stroke-width="0.5" stroke-miterlimit="10" d="M358.744,25.716l-0.93-1.396
		c-0.383,0.503-0.861,0.904-1.436,1.21c-0.576,0.307-1.203,0.459-1.887,0.459h-0.424c-0.566,0-1.1-0.107-1.602-0.322
		c-0.5-0.213-0.938-0.508-1.313-0.881c-0.373-0.373-0.668-0.812-0.881-1.313c-0.217-0.501-0.322-1.034-0.322-1.601v-0.137
		c0-0.564,0.105-1.098,0.322-1.6c0.213-0.502,0.508-0.938,0.881-1.313c0.375-0.375,0.813-0.667,1.313-0.883
		c0.502-0.214,1.035-0.321,1.602-0.321h3.555v-2.16c0-0.337-0.064-0.654-0.191-0.95c-0.129-0.296-0.301-0.554-0.52-0.772
		c-0.219-0.218-0.479-0.392-0.773-0.52c-0.297-0.127-0.611-0.191-0.949-0.191h-0.984c-0.336,0-0.654,0.064-0.949,0.191
		c-0.297,0.128-0.555,0.301-0.771,0.52c-0.219,0.219-0.393,0.477-0.521,0.772c-0.127,0.296-0.191,0.613-0.191,0.95v0.506
		l-1.682-0.273v-0.137c0-0.565,0.107-1.098,0.322-1.6c0.213-0.501,0.508-0.938,0.881-1.313c0.375-0.374,0.813-0.667,1.313-0.882
		c0.502-0.214,1.035-0.321,1.602-0.321h0.982c0.566,0,1.1,0.107,1.602,0.321c0.5,0.214,0.938,0.508,1.313,0.882
		c0.373,0.374,0.666,0.812,0.883,1.313c0.213,0.501,0.32,1.035,0.32,1.6v10.158h-0.563V25.716z M357.623,18.935h-3.555
		c-0.336,0-0.654,0.064-0.949,0.191c-0.297,0.127-0.555,0.303-0.773,0.525c-0.217,0.223-0.391,0.482-0.52,0.779
		c-0.127,0.296-0.191,0.613-0.191,0.949v0.588c0,0.339,0.064,0.654,0.191,0.951c0.129,0.295,0.301,0.554,0.52,0.771
		c0.221,0.219,0.477,0.393,0.773,0.52c0.295,0.129,0.613,0.191,0.949,0.191h1.121c0.338,0,0.652-0.063,0.949-0.191
		c0.297-0.127,0.555-0.301,0.773-0.52c0.217-0.219,0.391-0.477,0.52-0.771c0.127-0.295,0.191-0.612,0.191-0.951V18.935
		L357.623,18.935z"/>
	<path fill="#0C488D" stroke="#0C488D" stroke-width="0.5" stroke-miterlimit="10" d="M377.447,25.716V15.462
		c0-0.337-0.063-0.654-0.191-0.95c-0.127-0.296-0.301-0.554-0.52-0.772c-0.219-0.218-0.477-0.392-0.771-0.521
		c-0.297-0.127-0.613-0.191-0.951-0.191h-0.834c-0.336,0-0.652,0.064-0.949,0.191c-0.297,0.128-0.557,0.301-0.779,0.521
		c-0.225,0.219-0.398,0.477-0.525,0.772c-0.129,0.296-0.191,0.613-0.191,0.95v10.254h-1.668V15.462c0-0.337-0.063-0.654-0.191-0.95
		c-0.127-0.296-0.303-0.554-0.525-0.772c-0.225-0.219-0.482-0.392-0.779-0.521c-0.297-0.127-0.613-0.191-0.949-0.191h-0.834
		c-0.338,0-0.654,0.064-0.951,0.191c-0.297,0.128-0.553,0.301-0.771,0.521c-0.219,0.219-0.393,0.477-0.52,0.772
		c-0.129,0.296-0.191,0.613-0.191,0.95v10.254h-1.682v-14h0.561l0.916,1.422c0.383-0.52,0.863-0.932,1.441-1.237
		c0.578-0.305,1.211-0.458,1.895-0.458h0.137c0.793,0,1.51,0.196,2.146,0.588c0.639,0.392,1.129,0.912,1.477,1.559
		c0.174-0.319,0.389-0.61,0.643-0.875c0.256-0.264,0.539-0.49,0.848-0.677c0.311-0.187,0.648-0.333,1.014-0.438
		c0.363-0.104,0.742-0.157,1.135-0.157h0.137c0.564,0,1.1,0.107,1.6,0.321c0.502,0.214,0.938,0.508,1.313,0.882
		s0.668,0.812,0.883,1.313c0.213,0.501,0.32,1.035,0.32,1.6v10.157H377.447L377.447,25.716z"/>
	<path fill="#0C488D" stroke="#0C488D" stroke-width="0.5" stroke-miterlimit="10" d="M391.283,25.716l-0.93-1.396
		c-0.383,0.503-0.861,0.904-1.436,1.21c-0.576,0.307-1.203,0.459-1.887,0.459h-0.424c-0.566,0-1.1-0.107-1.602-0.322
		c-0.5-0.213-0.938-0.508-1.313-0.881c-0.373-0.373-0.668-0.812-0.883-1.313c-0.215-0.501-0.32-1.034-0.32-1.601v-0.137
		c0-0.564,0.105-1.098,0.32-1.6s0.51-0.938,0.883-1.313c0.375-0.375,0.813-0.667,1.313-0.883c0.502-0.214,1.035-0.321,1.602-0.321
		h3.555v-2.16c0-0.337-0.064-0.654-0.191-0.95c-0.129-0.296-0.301-0.554-0.52-0.772c-0.219-0.218-0.479-0.392-0.773-0.52
		c-0.297-0.127-0.611-0.191-0.949-0.191h-0.984c-0.336,0-0.654,0.064-0.949,0.191c-0.297,0.128-0.555,0.301-0.773,0.52
		c-0.217,0.219-0.391,0.477-0.52,0.772c-0.127,0.296-0.191,0.613-0.191,0.95v0.506l-1.682-0.273v-0.137
		c0-0.565,0.107-1.098,0.322-1.6c0.213-0.501,0.508-0.938,0.881-1.313c0.375-0.374,0.813-0.667,1.313-0.882
		c0.502-0.214,1.035-0.321,1.602-0.321h0.982c0.566,0,1.1,0.107,1.602,0.321c0.5,0.214,0.938,0.508,1.313,0.882
		c0.373,0.374,0.666,0.812,0.881,1.313s0.322,1.035,0.322,1.6v10.158h-0.563V25.716z M390.162,18.935h-3.555
		c-0.338,0-0.654,0.064-0.949,0.191c-0.297,0.127-0.555,0.303-0.773,0.525c-0.217,0.223-0.391,0.482-0.52,0.779
		c-0.127,0.296-0.191,0.613-0.191,0.949v0.588c0,0.339,0.064,0.654,0.191,0.951c0.129,0.295,0.301,0.554,0.52,0.771
		c0.219,0.219,0.477,0.393,0.773,0.52c0.295,0.129,0.611,0.191,0.949,0.191h1.121c0.338,0,0.652-0.063,0.949-0.191
		c0.297-0.127,0.555-0.301,0.773-0.52c0.217-0.219,0.391-0.477,0.52-0.771c0.127-0.295,0.191-0.612,0.191-0.951V18.935
		L390.162,18.935z"/>
</g>
<g>
	<path fill="#0C488D" stroke="#0C488D" stroke-width="0.5" stroke-miterlimit="10" d="M156.703,29.064
		c-0.217,0.48-0.515,0.892-0.894,1.234c-0.379,0.342-0.823,0.607-1.331,0.797c-0.508,0.189-1.049,0.284-1.622,0.284h-0.707
		c-0.573,0-1.114-0.095-1.622-0.284c-0.508-0.189-0.952-0.455-1.331-0.797c-0.379-0.343-0.677-0.754-0.894-1.234
		s-0.326-1.007-0.326-1.58v-0.056c0-0.554,0.102-1.063,0.305-1.524c0.203-0.462,0.48-0.864,0.832-1.206
		c-0.444-0.268-0.797-0.631-1.061-1.088c-0.263-0.458-0.395-0.964-0.395-1.519c0-0.499,0.106-0.963,0.319-1.393
		c0.212-0.43,0.503-0.778,0.873-1.047c-0.443-0.388-0.794-0.854-1.053-1.4s-0.388-1.142-0.388-1.789v-1.067
		c0-0.573,0.108-1.113,0.326-1.622s0.515-0.952,0.894-1.331c0.379-0.379,0.823-0.677,1.331-0.894
		c0.508-0.217,1.049-0.326,1.622-0.326h0.707c0.693,0,1.333,0.155,1.92,0.464s1.074,0.728,1.462,1.254l0.929-1.441h0.568v4.962
		c0,0.573-0.108,1.114-0.326,1.622c-0.217,0.508-0.515,0.952-0.894,1.331s-0.823,0.677-1.331,0.894
		c-0.508,0.218-1.049,0.326-1.622,0.326h-2.467c-0.194,0-0.379,0.039-0.555,0.118c-0.176,0.078-0.331,0.182-0.464,0.312
		c-0.134,0.13-0.238,0.284-0.312,0.464c-0.074,0.181-0.111,0.368-0.111,0.562c0,0.194,0.037,0.379,0.111,0.555
		s0.178,0.331,0.312,0.465c0.134,0.134,0.289,0.237,0.464,0.312c0.175,0.074,0.36,0.111,0.555,0.111h2.329
		c0.573,0,1.114,0.095,1.622,0.284c0.508,0.189,0.952,0.455,1.331,0.797s0.677,0.753,0.894,1.233s0.326,1.007,0.326,1.58v0.056
		C157.029,28.057,156.92,28.583,156.703,29.064z M155.477,15.299c0-0.342-0.065-0.663-0.194-0.963s-0.307-0.562-0.534-0.783
		c-0.227-0.222-0.49-0.397-0.79-0.527s-0.622-0.194-0.963-0.194h-1.414c-0.342,0-0.663,0.065-0.963,0.194s-0.562,0.305-0.783,0.527
		c-0.222,0.222-0.397,0.483-0.527,0.783s-0.194,0.622-0.194,0.963v1.261c0,0.342,0.064,0.663,0.194,0.963s0.305,0.562,0.527,0.783
		s0.483,0.397,0.783,0.527c0.3,0.129,0.622,0.193,0.963,0.193h1.414c0.342,0,0.663-0.064,0.963-0.193
		c0.3-0.13,0.563-0.306,0.79-0.527s0.404-0.483,0.534-0.783s0.194-0.621,0.194-0.963V15.299z M155.407,27.345
		c0-0.342-0.065-0.649-0.194-0.922s-0.305-0.501-0.526-0.686c-0.222-0.186-0.483-0.328-0.783-0.43
		c-0.301-0.102-0.622-0.153-0.964-0.153h-0.873c-0.342,0-0.663,0.052-0.963,0.153s-0.562,0.244-0.783,0.43
		c-0.222,0.185-0.397,0.413-0.527,0.686s-0.194,0.58-0.194,0.922v0.222c0,0.342,0.064,0.647,0.194,0.915
		c0.129,0.269,0.305,0.497,0.527,0.687s0.483,0.335,0.783,0.437s0.621,0.152,0.963,0.152h0.873c0.342,0,0.663-0.051,0.964-0.152
		c0.3-0.102,0.561-0.247,0.783-0.437c0.222-0.189,0.397-0.418,0.526-0.687c0.129-0.268,0.194-0.573,0.194-0.915V27.345z"/>
</g>
</svg>
