<?xml version="1.0" encoding="utf-8"?>
<!-- Generator: Adobe Illustrator 16.0.0, SVG Export Plug-In . SVG Version: 6.00 Build 0)  -->
<!DOCTYPE svg PUBLIC "-//W3C//DTD SVG 1.1//EN" "http://www.w3.org/Graphics/SVG/1.1/DTD/svg11.dtd">
<svg version="1.1" id="Capa_1" xmlns="http://www.w3.org/2000/svg" xmlns:xlink="http://www.w3.org/1999/xlink" x="0px" y="0px"
	 width="727.537px" height="361.805px" viewBox="-66.906 0 727.537 361.805" enable-background="new -66.906 0 727.537 361.805"
	 xml:space="preserve">
<g>
	<g>
		<path fill="#002549" d="M0,9.348v311.019h657.736L660.631,0L0,9.348z M649.469,313.856H8.374V15.573l643.561-6.681
			L649.469,313.856z"/>
		<g>
			<g>
				<g>
					<defs>
						<rect id="SVGID_1_" x="8.373" y="8.892" width="643.562" height="304.964"/>
					</defs>
					<clipPath id="SVGID_2_">
						<use xlink:href="#SVGID_1_"  overflow="visible"/>
					</clipPath>
					<path clip-path="url(#SVGID_2_)" fill="#21333D" d="M8.373,15.573v298.282h641.096l2.466-304.964L8.373,15.573z
						 M647.104,309.865H13.223L12.256,18.521l636.778-5.798L647.104,309.865z"/>
				</g>
			</g>
		</g>
		<polygon opacity="0.7" fill="#21333D" enable-background="new    " points="649.469,313.856 8.374,313.856 8.374,15.573 
			651.935,8.892 		"/>
	</g>
	<g>
		<path fill="#D2D5D8" d="M47.84,351.95c0,5.44-25.688,9.854-57.374,9.854s-57.372-4.412-57.372-9.854
			c0-5.44,25.687-9.854,57.372-9.854C22.153,342.097,47.84,346.509,47.84,351.95"/>
		<path fill="#007196" d="M41.33,260.931c0,28.604-23.188,51.787-51.789,51.787s-51.791-23.186-51.791-51.787
			c0-28.604,23.189-51.79,51.791-51.79C18.144,209.141,41.33,232.327,41.33,260.931"/>
		<path fill="#A3734E" d="M-12.674,205.402c0,0,56.912,0.831,57.327,58.16c0,51.099-59.406,52.759-59.406,52.759l-0.413,4.984
			c0,0,65.22-2.491,65.22-57.328c0-63.146-62.312-63.561-62.312-63.561L-12.674,205.402z"/>
		<path fill="#8B5E3C" d="M16.133,348.468c-7.232-7.669-17.481-12.464-28.856-12.464c-11.373,0-21.621,4.795-28.854,12.464
			c17.729,7.563,37.725,7.852,55.664,0.804L16.133,348.468z"/>
		<rect x="-13.506" y="318.397" fill="#A3734E" width="5.401" height="20.771"/>
		<line fill="none" stroke="#FFFFFF" stroke-miterlimit="10" x1="-10.459" y1="209.141" x2="-10.459" y2="312.719"/>
		<path fill="none" stroke="#FFFFFF" stroke-miterlimit="10" d="M-12.76,209.024c0,0-15.343,15.343-15.343,51.907
			c0,36.563,14.192,52.066,14.192,52.066"/>
		<path fill="none" stroke="#FFFFFF" stroke-miterlimit="10" d="M-15.828,209.281c0,0-31.452,17.388-31.452,53.185
			c0,35.8,27.616,49.769,27.616,49.769"/>
		<path fill="none" stroke="#FFFFFF" stroke-miterlimit="10" d="M-5.671,209.024c0,0,15.341,15.343,15.341,51.907
			c0,36.563-14.189,52.066-14.189,52.066"/>
		<path fill="none" stroke="#FFFFFF" stroke-miterlimit="10" d="M-2.6,209.281c0,0,31.45,17.388,31.45,53.185
			c0,35.8-27.616,49.769-27.616,49.769"/>
		<line fill="none" stroke="#FFFFFF" stroke-miterlimit="10" x1="-62.25" y1="260.931" x2="41.33" y2="260.931"/>
		<path fill="none" stroke="#FFFFFF" stroke-miterlimit="10" d="M-22.348,210.494c0,0,2.493,4.22,11.698,4.22
			s14.767-3.26,14.767-3.26"/>
		<path fill="none" stroke="#FFFFFF" stroke-miterlimit="10" d="M-24.777,310.537c0,0,6.392-3.836,14.318-3.836
			s14.318,4.092,14.318,4.092"/>
	</g>
	<g>
		<rect x="83.71" y="277.849" fill="#E2A84D" stroke="#E2A84D" stroke-miterlimit="10" width="473.098" height="4.783"/>
		<path opacity="0.7" fill="#FFFFFF" d="M77.742,280.242c0,3.869-3.137,7.006-7.01,7.006c-3.867,0-7.005-3.137-7.005-7.006
			c0-3.871,3.139-7.008,7.005-7.008C74.604,273.234,77.742,276.371,77.742,280.242z"/>
		<path opacity="0.7" fill="#FFFFFF" d="M574.991,280.242c0,3.869-3.137,7.006-7.008,7.006c-3.865,0-7.008-3.137-7.008-7.006
			c0-3.871,3.143-7.008,7.008-7.008C571.854,273.234,574.991,276.371,574.991,280.242z"/>
	</g>
	<g>
		<path fill="#FFFFFF" d="M223.193,40.825c1.372-0.229,3.168-0.424,5.455-0.424c2.808,0,4.865,0.653,6.171,1.829
			c1.208,1.044,1.927,2.646,1.927,4.604c0,1.993-0.587,3.56-1.698,4.703c-1.502,1.6-3.951,2.417-6.728,2.417
			c-0.848,0-1.632-0.032-2.285-0.196v8.817h-2.842V40.825z M226.035,51.438c0.62,0.163,1.405,0.228,2.352,0.228
			c3.428,0,5.518-1.665,5.518-4.701c0-2.907-2.058-4.312-5.191-4.312c-1.241,0-2.189,0.099-2.678,0.229V51.438z"/>
		<path fill="#FFFFFF" d="M240.57,40.857c1.437-0.293,3.495-0.456,5.455-0.456c3.036,0,4.995,0.555,6.367,1.796
			c1.111,0.979,1.73,2.481,1.73,4.18c0,2.905-1.828,4.833-4.147,5.617v0.097c1.699,0.588,2.71,2.155,3.233,4.442
			c0.718,3.069,1.241,5.191,1.697,6.041h-2.939c-0.359-0.621-0.848-2.514-1.468-5.258c-0.654-3.036-1.83-4.18-4.409-4.277h-2.677
			v9.535h-2.842V40.857z M243.412,50.883h2.907c3.036,0,4.962-1.666,4.962-4.18c0-2.842-2.058-4.083-5.063-4.115
			c-1.37,0-2.35,0.131-2.806,0.261V50.883z"/>
		<path fill="#FFFFFF" d="M269.54,52.254h-8.555v7.936h9.535v2.384h-12.377v-22.01h11.887v2.383h-9.045v6.957h8.555V52.254z"/>
		<path fill="#FFFFFF" d="M273.821,59.111c1.273,0.784,3.136,1.437,5.094,1.437c2.906,0,4.604-1.535,4.604-3.754
			c0-2.057-1.174-3.233-4.146-4.376c-3.592-1.273-5.813-3.136-5.813-6.237c0-3.428,2.842-5.976,7.119-5.976
			c2.254,0,3.886,0.522,4.865,1.078l-0.782,2.317c-0.719-0.391-2.189-1.044-4.18-1.044c-3.004,0-4.147,1.796-4.147,3.298
			c0,2.057,1.338,3.069,4.375,4.245c3.722,1.437,5.615,3.233,5.615,6.466c0,3.396-2.512,6.335-7.705,6.335
			c-2.123,0-4.44-0.621-5.615-1.405L273.821,59.111z"/>
		<path fill="#FFFFFF" d="M301.713,52.254h-8.556v7.936h9.537v2.384h-12.377v-22.01h11.887v2.383h-9.046v6.957h8.556V52.254z"/>
		<path fill="#FFFFFF" d="M306.386,62.573v-22.01h3.104l7.053,11.136c1.633,2.579,2.906,4.898,3.952,7.151l0.063-0.034
			c-0.26-2.938-0.325-5.616-0.325-9.045v-9.209h2.678v22.01h-2.874l-6.987-11.167c-1.536-2.45-3.004-4.964-4.115-7.348l-0.097,0.032
			c0.162,2.775,0.228,5.421,0.228,9.078v9.405H306.386z"/>
		<path fill="#FFFFFF" d="M332.059,42.979h-6.694v-2.416h16.294v2.416h-6.727v19.594h-2.874V42.979z"/>
		<path fill="#FFFFFF" d="M345.222,55.651l-2.285,6.922h-2.939l7.478-22.01h3.428l7.51,22.01h-3.037l-2.352-6.922H345.222z
			 M352.438,53.429l-2.155-6.334c-0.49-1.438-0.816-2.743-1.143-4.016h-0.065c-0.326,1.306-0.685,2.646-1.11,3.983l-2.155,6.367
			H352.438z"/>
		<path fill="#FFFFFF" d="M376.544,61.855c-1.045,0.521-3.135,1.044-5.813,1.044c-6.204,0-10.875-3.918-10.875-11.135
			c0-6.89,4.67-11.561,11.494-11.561c2.744,0,4.475,0.588,5.227,0.979l-0.686,2.319c-1.078-0.523-2.613-0.914-4.443-0.914
			c-5.159,0-8.587,3.298-8.587,9.078c0,5.389,3.102,8.85,8.458,8.85c1.73,0,3.494-0.359,4.637-0.915L376.544,61.855z"/>
		<path fill="#FFFFFF" d="M382.948,40.563v22.01h-2.842v-22.01H382.948z"/>
		<path fill="#FFFFFF" d="M406.724,51.339c0,7.577-4.604,11.593-10.221,11.593c-5.813,0-9.895-4.506-9.895-11.167
			c0-6.989,4.342-11.561,10.221-11.561C402.837,40.204,406.724,44.808,406.724,51.339z M389.646,51.699
			c0,4.701,2.547,8.914,7.021,8.914c4.506,0,7.053-4.146,7.053-9.142c0-4.376-2.285-8.948-7.021-8.948
			C391.997,42.523,389.646,46.865,389.646,51.699z M401.435,35.501l-4.148,3.789h-2.352l3.037-3.789H401.435z"/>
		<path fill="#FFFFFF" d="M410.417,62.573v-22.01h3.105l7.053,11.136c1.633,2.579,2.906,4.898,3.951,7.151l0.064-0.034
			c-0.26-2.938-0.326-5.616-0.326-9.045v-9.209h2.678v22.01h-2.873l-6.988-11.167c-1.535-2.45-3.004-4.964-4.115-7.348l-0.098,0.032
			c0.164,2.775,0.229,5.421,0.229,9.078v9.405H410.417z"/>
		<path fill="#FFFFFF" d="M104.464,80.053c1.731-0.262,3.789-0.457,6.042-0.457c4.081,0,6.988,0.947,8.914,2.743
			c1.96,1.796,3.104,4.342,3.104,7.902c0,3.592-1.111,6.531-3.168,8.556c-2.057,2.058-5.453,3.168-9.731,3.168
			c-2.023,0-3.722-0.099-5.16-0.262V80.053z M107.307,99.515c0.718,0.131,1.762,0.164,2.873,0.164c6.074,0,9.373-3.396,9.373-9.339
			c0.032-5.193-2.907-8.491-8.916-8.491c-1.469,0-2.58,0.131-3.33,0.294V99.515z"/>
		<path fill="#FFFFFF" d="M137.614,91.45h-8.556v7.936h9.537v2.384h-12.377V79.76h11.887v2.384h-9.046V89.1h8.556V91.45z"/>
		<path fill="#FFFFFF" d="M142.289,79.76h2.842v19.626h9.404v2.384h-12.246V79.76z"/>
		<path fill="#FFFFFF" d="M164.63,80.021c1.372-0.229,3.167-0.424,5.454-0.424c2.808,0,4.865,0.653,6.171,1.829
			c1.208,1.044,1.927,2.645,1.927,4.604c0,1.993-0.587,3.56-1.699,4.703c-1.503,1.599-3.95,2.416-6.728,2.416
			c-0.848,0-1.632-0.032-2.285-0.196v8.817h-2.841V80.021z M167.471,90.634c0.62,0.163,1.405,0.228,2.352,0.228
			c3.428,0,5.518-1.665,5.518-4.702c0-2.906-2.058-4.311-5.192-4.311c-1.241,0-2.189,0.099-2.678,0.229V90.634z"/>
		<path fill="#FFFFFF" d="M182.006,80.053c1.437-0.294,3.495-0.457,5.455-0.457c3.036,0,4.995,0.556,6.367,1.796
			c1.111,0.979,1.731,2.481,1.731,4.18c0,2.906-1.829,4.833-4.147,5.617v0.098c1.697,0.587,2.71,2.154,3.233,4.441
			c0.718,3.069,1.24,5.192,1.697,6.041h-2.939c-0.359-0.62-0.846-2.514-1.468-5.258c-0.654-3.037-1.83-4.18-4.409-4.277h-2.677
			v9.535h-2.842V80.053z M184.848,90.079h2.907c3.035,0,4.963-1.666,4.963-4.18c0-2.842-2.058-4.083-5.062-4.115
			c-1.371,0-2.352,0.132-2.808,0.262V90.079z"/>
		<path fill="#FFFFFF" d="M218.486,90.535c0,7.577-4.604,11.593-10.221,11.593c-5.812,0-9.895-4.506-9.895-11.167
			c0-6.989,4.341-11.561,10.221-11.561C214.601,79.4,218.486,84.004,218.486,90.535z M201.408,90.896
			c0,4.701,2.548,8.914,7.021,8.914c4.506,0,7.053-4.146,7.053-9.143c0-4.376-2.285-8.947-7.021-8.947
			C203.759,81.719,201.408,86.062,201.408,90.896z"/>
		<path fill="#FFFFFF" d="M238.934,100.79c-1.273,0.456-3.787,1.208-6.759,1.208c-3.33,0-6.075-0.849-8.23-2.906
			c-1.893-1.829-3.069-4.768-3.069-8.196c0.033-6.563,4.539-11.364,11.919-11.364c2.546,0,4.539,0.554,5.486,1.012l-0.686,2.318
			c-1.175-0.522-2.646-0.946-4.865-0.946c-5.355,0-8.85,3.331-8.85,8.848c0,5.585,3.363,8.883,8.49,8.883
			c1.862,0,3.134-0.261,3.789-0.588v-6.563h-4.474v-2.287h7.249V100.79z"/>
		<path fill="#FFFFFF" d="M243.282,80.053c1.437-0.294,3.495-0.457,5.453-0.457c3.038,0,4.997,0.556,6.369,1.796
			c1.111,0.979,1.731,2.481,1.731,4.18c0,2.906-1.828,4.833-4.147,5.617v0.098c1.699,0.587,2.709,2.154,3.233,4.441
			c0.718,3.069,1.239,5.192,1.697,6.041h-2.939c-0.359-0.62-0.848-2.514-1.468-5.258c-0.655-3.037-1.83-4.18-4.409-4.277h-2.678
			v9.535h-2.842V80.053z M246.124,90.079h2.907c3.037,0,4.962-1.666,4.962-4.18c0-2.842-2.057-4.083-5.062-4.115
			c-1.371,0-2.351,0.132-2.808,0.262V90.079z"/>
		<path fill="#FFFFFF" d="M264.577,94.846l-2.285,6.923h-2.938l7.477-22.01h3.428l7.511,22.01h-3.037l-2.351-6.923H264.577z
			 M271.793,92.625l-2.155-6.335c-0.489-1.437-0.817-2.742-1.143-4.016h-0.067c-0.325,1.305-0.684,2.646-1.11,3.983l-2.154,6.367
			H271.793z"/>
		<path fill="#FFFFFF" d="M299.425,92.104c-0.163-3.071-0.358-6.76-0.327-9.503H299c-0.75,2.579-1.665,5.323-2.773,8.36
			l-3.886,10.679h-2.158l-3.557-10.483c-1.045-3.102-1.927-5.942-2.55-8.555h-0.063c-0.065,2.743-0.229,6.433-0.425,9.73
			l-0.589,9.438h-2.709l1.535-22.01h3.626l3.754,10.646c0.914,2.71,1.666,5.127,2.222,7.413h0.097
			c0.555-2.221,1.338-4.638,2.319-7.413l3.918-10.646h3.625l1.372,22.01h-2.777L299.425,92.104z"/>
		<path fill="#FFFFFF" d="M310.37,94.846l-2.284,6.923h-2.939l7.478-22.01h3.428l7.511,22.01h-3.037l-2.351-6.923H310.37z
			 M317.587,92.625l-2.155-6.335c-0.489-1.437-0.817-2.742-1.143-4.016h-0.065c-0.328,1.305-0.685,2.646-1.11,3.983l-2.155,6.367
			H317.587z"/>
		<path fill="#FFFFFF" d="M333.727,80.053c1.73-0.262,3.789-0.457,6.042-0.457c4.081,0,6.987,0.947,8.913,2.743
			c1.96,1.796,3.103,4.342,3.103,7.902c0,3.592-1.11,6.531-3.168,8.556c-2.058,2.058-5.453,3.168-9.73,3.168
			c-2.025,0-3.722-0.099-5.161-0.262V80.053z M336.568,99.515c0.718,0.131,1.764,0.164,2.873,0.164c6.075,0,9.373-3.396,9.373-9.339
			c0.033-5.193-2.906-8.491-8.915-8.491c-1.47,0-2.581,0.131-3.331,0.294V99.515z"/>
		<path fill="#FFFFFF" d="M366.876,91.45h-8.555v7.936h9.536v2.384h-12.377V79.76h11.887v2.384h-9.045V89.1h8.555V91.45z"/>
		<path fill="#FFFFFF" d="M378.473,79.76h11.854v2.384h-9.012v7.315h8.326v2.351h-8.326v9.959h-2.843V79.76z"/>
		<path fill="#FFFFFF" d="M413.188,90.535c0,7.577-4.604,11.593-10.219,11.593c-5.813,0-9.895-4.506-9.895-11.167
			c0-6.989,4.342-11.561,10.221-11.561C409.304,79.4,413.188,84.004,413.188,90.535z M396.112,90.896
			c0,4.701,2.547,8.914,7.021,8.914c4.506,0,7.053-4.146,7.053-9.143c0-4.376-2.287-8.947-7.021-8.947
			C398.462,81.719,396.112,86.062,396.112,90.896z"/>
		<path fill="#FFFFFF" d="M416.886,80.053c1.438-0.294,3.496-0.457,5.455-0.457c3.037,0,4.994,0.556,6.367,1.796
			c1.111,0.979,1.73,2.481,1.73,4.18c0,2.906-1.828,4.833-4.146,5.617v0.098c1.697,0.587,2.709,2.154,3.23,4.441
			c0.721,3.069,1.242,5.192,1.699,6.041h-2.938c-0.361-0.62-0.85-2.514-1.469-5.258c-0.654-3.037-1.83-4.18-4.41-4.277h-2.678v9.535
			h-2.842V80.053z M419.728,90.079h2.908c3.035,0,4.961-1.666,4.961-4.18c0-2.842-2.057-4.083-5.061-4.115
			c-1.371,0-2.352,0.132-2.809,0.262V90.079z"/>
		<path fill="#FFFFFF" d="M453.007,92.104c-0.164-3.071-0.359-6.76-0.326-9.503h-0.098c-0.75,2.579-1.666,5.323-2.777,8.36
			l-3.885,10.679h-2.156l-3.559-10.483c-1.045-3.102-1.928-5.942-2.547-8.555h-0.066c-0.064,2.743-0.227,6.433-0.424,9.73
			l-0.588,9.438h-2.711l1.535-22.01h3.625l3.754,10.646c0.916,2.71,1.666,5.127,2.221,7.413h0.098
			c0.557-2.221,1.338-4.638,2.32-7.413l3.918-10.646h3.625l1.373,22.01h-2.777L453.007,92.104z"/>
		<path fill="#FFFFFF" d="M463.952,94.846l-2.287,6.923h-2.938l7.479-22.01h3.426l7.512,22.01h-3.035l-2.354-6.923H463.952z
			 M471.169,92.625l-2.154-6.335c-0.49-1.437-0.818-2.742-1.145-4.016h-0.064c-0.326,1.305-0.686,2.646-1.111,3.983l-2.154,6.367
			H471.169z"/>
		<path fill="#FFFFFF" d="M495.274,101.052c-1.045,0.521-3.135,1.044-5.813,1.044c-6.203,0-10.875-3.918-10.875-11.135
			c0-6.89,4.672-11.561,11.494-11.561c2.744,0,4.475,0.588,5.227,0.979l-0.686,2.319c-1.078-0.522-2.613-0.915-4.441-0.915
			c-5.16,0-8.588,3.298-8.588,9.078c0,5.389,3.102,8.85,8.455,8.85c1.732,0,3.496-0.359,4.637-0.915L495.274,101.052z"/>
		<path fill="#FFFFFF" d="M501.679,79.76v22.01h-2.842V79.76H501.679z"/>
		<path fill="#FFFFFF" d="M525.454,90.535c0,7.577-4.604,11.593-10.221,11.593c-5.813,0-9.895-4.506-9.895-11.167
			c0-6.989,4.342-11.561,10.219-11.561C521.567,79.4,525.454,84.004,525.454,90.535z M508.376,90.896
			c0,4.701,2.547,8.914,7.021,8.914c4.506,0,7.051-4.146,7.051-9.143c0-4.376-2.283-8.947-7.02-8.947
			C510.728,81.719,508.376,86.062,508.376,90.896z M520.165,74.698l-4.148,3.789h-2.352l3.037-3.789H520.165z"/>
		<path fill="#FFFFFF" d="M529.149,101.769V79.76h3.104l7.051,11.136c1.635,2.579,2.908,4.898,3.953,7.152l0.064-0.034
			c-0.26-2.938-0.326-5.615-0.326-9.045V79.76h2.68v22.01H542.8l-6.988-11.167c-1.535-2.45-3.004-4.964-4.115-7.348l-0.098,0.032
			c0.164,2.775,0.229,5.42,0.229,9.078v9.405H529.149z"/>
	</g>
	<g opacity="0.8">
		<path fill="#E2A84D" stroke="#E2A84D" stroke-miterlimit="10" d="M87.771,139.274c1.8-3.997,4.304-8.519,6.368-11.242l3.426-0.308
			c-1.625,3.207-3.47,7.598-4.567,11.154L87.771,139.274z M95.412,139.274c1.8-3.997,4.349-8.519,6.412-11.242l3.425-0.308
			c-1.625,3.207-3.512,7.598-4.567,11.154L95.412,139.274z"/>
		<path fill="#FFFFFF" d="M114.557,132.687h-8.211l0.878-4.479h21.564l-0.879,4.479h-8.256l-4.742,25.121h-5.139L114.557,132.687z"
			/>
		<path fill="#FFFFFF" d="M144.858,144.633h-10.627l-1.667,8.826h11.945l-0.834,4.349h-17.083l5.621-29.601h16.424l-0.834,4.348
			h-11.286l-1.493,7.773h10.671L144.858,144.633z"/>
		<path fill="#FFFFFF" d="M169.803,156.928c-1.58,0.703-4.26,1.318-7.729,1.318c-7.686,0-12.604-4.743-12.604-12.428
			c0-6.148,2.635-11.375,6.938-14.581c3.072-2.328,6.763-3.514,11.023-3.514c3.25,0,5.621,0.79,6.456,1.362l-1.493,4.128
			c-0.968-0.527-2.987-1.054-5.579-1.054c-2.81,0-5.532,0.965-7.552,2.724c-2.592,2.283-4.26,6.016-4.26,10.319
			c0,4.963,2.546,8.696,8.388,8.696c2.152,0,4.347-0.396,5.929-1.142L169.803,156.928z"/>
		<path fill="#FFFFFF" d="M173.447,157.808l5.622-29.601h5.886l5.183,13.746c1.273,3.602,2.019,6.325,2.678,9.267h0.087
			c0.177-2.899,0.528-5.752,1.319-10.014l2.459-12.999h4.831l-5.622,29.601h-5.227l-5.313-14.01
			c-1.362-3.865-2.109-6.28-2.811-9.531l-0.176,0.044c-0.307,2.811-0.923,6.456-1.712,10.849l-2.416,12.647H173.447z"/>
		<path fill="#FFFFFF" d="M230.668,139.977c0,5.27-1.886,10.716-5.355,14.141c-2.68,2.634-6.28,4.172-10.584,4.172
			c-7.642,0-11.639-5.577-11.639-12.208c0-5.27,1.977-10.804,5.535-14.229c2.679-2.59,6.412-4.128,10.408-4.128
			C226.938,127.724,230.668,133.214,230.668,139.977z M212.577,134.576c-2.591,2.591-4.084,7.422-4.084,11.243
			c0,4.479,2.019,8.168,6.981,8.168c2.152,0,4.217-0.922,5.754-2.503c2.546-2.546,3.996-7.598,3.996-11.33
			c0-3.91-1.362-8.125-6.806-8.125C216.133,132.029,214.156,132.994,212.577,134.576z M227.245,121.137l-5.929,5.401h-4.391
			l4.304-5.401H227.245z"/>
		<path fill="#FFFFFF" d="M237.872,128.207h5.138l-4.789,25.121h11.639l-0.834,4.48H232.25L237.872,128.207z"/>
		<path fill="#FFFFFF" d="M279.503,139.977c0,5.27-1.888,10.716-5.358,14.141c-2.678,2.634-6.279,4.172-10.583,4.172
			c-7.642,0-11.639-5.577-11.639-12.208c0-5.27,1.977-10.804,5.535-14.229c2.679-2.59,6.412-4.128,10.408-4.128
			C275.771,127.724,279.503,133.214,279.503,139.977z M261.41,134.576c-2.59,2.591-4.084,7.422-4.084,11.243
			c0,4.479,2.02,8.168,6.982,8.168c2.152,0,4.215-0.922,5.754-2.503c2.546-2.546,3.995-7.598,3.995-11.33
			c0-3.91-1.36-8.125-6.806-8.125C264.967,132.029,262.991,132.994,261.41,134.576z"/>
		<path fill="#FFFFFF" d="M304.36,156.49c-2.021,0.703-5.401,1.625-9.047,1.625c-4.085,0-7.423-1.142-9.75-3.47
			c-2.328-2.239-3.382-5.49-3.382-8.871c0-5.27,2.108-10.233,5.929-13.526c3.25-2.768,7.686-4.348,12.648-4.348
			c3.733,0,6.412,0.79,7.465,1.362l-1.582,4.304c-1.403-0.703-3.6-1.23-6.279-1.23c-3.162,0-6.06,1.01-8.256,2.899
			c-2.681,2.284-4.35,6.104-4.35,10.144c0,5.314,2.901,8.388,8.434,8.388c1.582,0,2.9-0.307,3.777-0.658l1.406-7.422h-5.226
			l0.833-4.128h10.189L304.36,156.49z"/>
		<path fill="#FFFFFF" d="M338.305,139.977c0,5.27-1.887,10.716-5.356,14.141c-2.679,2.634-6.28,4.172-10.584,4.172
			c-7.642,0-11.64-5.577-11.64-12.208c0-5.27,1.978-10.804,5.535-14.229c2.68-2.59,6.411-4.128,10.409-4.128
			C334.573,127.724,338.305,133.214,338.305,139.977z M320.212,134.576c-2.59,2.591-4.084,7.422-4.084,11.243
			c0,4.479,2.02,8.168,6.982,8.168c2.152,0,4.217-0.922,5.754-2.503c2.546-2.546,3.994-7.598,3.994-11.33
			c0-3.91-1.359-8.125-6.806-8.125C323.769,132.029,321.792,132.994,320.212,134.576z"/>
		<path fill="#FFFFFF" d="M366.19,144.633h-10.628l-1.669,8.826h11.946l-0.834,4.349h-17.083l5.621-29.601h16.425l-0.835,4.348
			h-11.286l-1.494,7.773h10.671L366.19,144.633z"/>
		<path fill="#FFFFFF" d="M369.702,157.808l5.622-29.601h5.884l5.184,13.746c1.273,3.602,2.02,6.325,2.678,9.267h0.088
			c0.176-2.899,0.527-5.752,1.318-10.014l2.459-12.999h4.83l-5.621,29.601h-5.225l-5.314-14.01c-1.361-3.865-2.109-6.28-2.811-9.531
			l-0.176,0.044c-0.307,2.811-0.924,6.456-1.713,10.849l-2.416,12.647H369.702z"/>
		<path fill="#FFFFFF" d="M413.528,149.375l-4.039,8.433h-5.447l14.846-29.601h6.412l3.73,29.601h-5.355l-0.834-8.433H413.528z
			 M422.534,145.423l-0.836-7.377c-0.133-1.582-0.307-3.865-0.439-5.622h-0.088c-0.789,1.756-1.582,3.864-2.416,5.622l-3.602,7.377
			H422.534z"/>
		<path fill="#FFFFFF" d="M432.501,157.808l5.621-29.601h5.885l5.182,13.746c1.273,3.602,2.02,6.325,2.678,9.267h0.09
			c0.176-2.899,0.527-5.752,1.316-10.014l2.459-12.999h4.832l-5.621,29.601h-5.225l-5.314-14.01
			c-1.363-3.865-2.109-6.28-2.811-9.531l-0.176,0.044c-0.309,2.811-0.926,6.456-1.715,10.849l-2.416,12.647H432.501z"/>
		<path fill="#FFFFFF" d="M468.292,149.375l-4.041,8.433h-5.445l14.844-29.601h6.412l3.732,29.601h-5.357l-0.834-8.433H468.292z
			 M477.296,145.423l-0.836-7.377c-0.133-1.582-0.307-3.865-0.439-5.622h-0.088c-0.791,1.756-1.58,3.864-2.416,5.622l-3.6,7.377
			H477.296z M484.497,121.268l-5.885,5.359h-4.393l4.26-5.359H484.497z"/>
		<path fill="#FFFFFF" d="M492.884,128.207h5.139l-4.787,25.121h11.637l-0.834,4.48h-16.775L492.884,128.207z"/>
		<path fill="#FFFFFF" d="M518.442,128.207l-5.621,29.601h-5.139l5.621-29.601H518.442z"/>
		<path fill="#FFFFFF" d="M519.935,151.966c1.67,1.099,4.084,1.889,6.678,1.889c2.854,0,5.488-1.538,5.488-4.393
			c0-1.932-1.273-3.25-4.172-4.787c-3.428-1.843-6.018-4.215-6.018-7.729c0-5.666,4.92-9.222,10.893-9.222
			c3.293,0,5.445,0.834,6.586,1.493l-1.668,4.26c-0.967-0.527-2.941-1.362-5.357-1.317c-3.25,0-5.094,1.889-5.094,3.865
			c0,2.021,1.668,3.205,4.436,4.787c3.6,1.888,5.752,4.26,5.752,7.86c0,5.929-4.789,9.574-11.418,9.574
			c-3.604,0-6.543-1.01-7.861-2.063L519.935,151.966z"/>
		<path fill="#FFFFFF" d="M551.202,128.207l-5.621,29.601h-5.137l5.621-29.601H551.202z"/>
		<path fill="#FFFFFF" d="M552.696,151.966c1.668,1.099,4.082,1.889,6.674,1.889c2.854,0,5.488-1.538,5.488-4.393
			c0-1.932-1.271-3.25-4.17-4.787c-3.426-1.843-6.018-4.215-6.018-7.729c0-5.666,4.918-9.222,10.893-9.222
			c3.293,0,5.443,0.834,6.586,1.493l-1.668,4.26c-0.967-0.527-2.943-1.362-5.357-1.317c-3.25,0-5.094,1.889-5.094,3.865
			c0,2.021,1.668,3.205,4.434,4.787c3.602,1.888,5.754,4.26,5.754,7.86c0,5.929-4.785,9.574-11.418,9.574
			c-3.602,0-6.545-1.01-7.861-2.063L552.696,151.966z"/>
		<path fill="#FFFFFF" d="M71.786,210.506l2.328-12.164l-5.753-17.435h5.446l2.328,8.431c0.658,2.549,0.966,3.865,1.229,5.184h0.088
			c0.789-1.406,1.756-3.074,3.074-5.27l5.314-8.345H91.9l-12.692,17.347l-2.329,12.252H71.786z"/>
		<path fill="#FFFFFF" d="M103.624,181.345c2.414-0.438,5.05-0.659,7.818-0.659c4.743,0,8.475,1.23,10.847,3.558
			c2.021,1.846,3.383,4.611,3.383,8.695c0,5.578-2.285,10.674-6.017,13.746c-3.425,2.811-7.774,3.996-13.833,3.996
			c-3.12,0-6.018-0.219-7.687-0.438L103.624,181.345z M104.02,206.334c1.009,0.131,2.108,0.176,3.25,0.176
			c3.997,0,7.202-1.273,9.354-3.645c2.326-2.459,3.513-5.975,3.513-9.836c0-4.922-2.59-8.215-8.784-8.215
			c-1.186,0-2.459,0.088-3.294,0.266L104.02,206.334z"/>
		<path fill="#FFFFFF" d="M145.562,197.332h-10.627l-1.667,8.826h11.944l-0.834,4.348h-17.083l5.622-29.599h16.424l-0.834,4.347
			H137.22l-1.493,7.775h10.671L145.562,197.332z"/>
		<path fill="#FFFFFF" d="M149.999,204.666c1.669,1.098,4.084,1.889,6.676,1.889c2.854,0,5.488-1.539,5.488-4.393
			c0-1.932-1.272-3.25-4.17-4.787c-3.427-1.844-6.018-4.217-6.018-7.729c0-5.666,4.918-9.223,10.891-9.223
			c3.294,0,5.446,0.834,6.588,1.493l-1.669,4.26c-0.966-0.527-2.942-1.361-5.357-1.318c-3.25,0-5.094,1.891-5.094,3.865
			c0,2.021,1.669,3.207,4.436,4.789c3.601,1.887,5.752,4.26,5.752,7.859c0,5.93-4.788,9.574-11.42,9.574
			c-3.601,0-6.542-1.012-7.86-2.064L149.999,204.666z"/>
		<path fill="#FFFFFF" d="M177.621,202.074l-4.041,8.432h-5.445l14.845-29.599h6.411l3.732,29.599h-5.359l-0.833-8.432H177.621z
			 M186.625,198.123l-0.834-7.379c-0.132-1.582-0.307-3.865-0.44-5.621h-0.087c-0.791,1.756-1.583,3.863-2.417,5.621l-3.601,7.379
			H186.625z"/>
		<path fill="#FFFFFF" d="M202.169,181.389c1.887-0.438,4.655-0.703,7.29-0.703c2.855,0,5.577,0.571,7.42,1.933
			c1.67,1.143,2.812,2.943,2.812,5.357c0,4.348-3.075,7.336-6.852,8.477l-0.043,0.131c1.932,0.748,2.767,2.811,3.029,5.623
			c0.352,3.689,0.572,7.113,1.053,8.299h-5.269c-0.22-0.703-0.527-3.514-0.791-7.068c-0.22-3.777-1.583-5.141-4.304-5.141h-2.503
			l-2.328,12.209h-5.051L202.169,181.389z M204.759,194.388h2.899c3.997,0,6.675-2.459,6.675-5.666c0-2.723-2.152-3.951-5.05-3.951
			c-1.273,0-2.107,0.086-2.723,0.262L204.759,194.388z"/>
		<path fill="#FFFFFF" d="M226.586,181.389c1.888-0.438,4.656-0.703,7.291-0.703c2.855,0,5.577,0.571,7.422,1.933
			c1.669,1.143,2.811,2.943,2.811,5.357c0,4.348-3.075,7.336-6.852,8.477l-0.043,0.131c1.932,0.748,2.766,2.811,3.028,5.623
			c0.353,3.689,0.573,7.113,1.056,8.299h-5.27c-0.22-0.703-0.527-3.514-0.79-7.068c-0.22-3.777-1.582-5.141-4.304-5.141h-2.504
			l-2.329,12.209h-5.05L226.586,181.389z M229.176,194.388h2.9c3.997,0,6.674-2.459,6.674-5.666c0-2.723-2.152-3.951-5.05-3.951
			c-1.275,0-2.108,0.086-2.724,0.262L229.176,194.388z"/>
		<path fill="#FFFFFF" d="M274.06,192.676c0,5.271-1.888,10.715-5.357,14.141c-2.679,2.635-6.28,4.174-10.585,4.174
			c-7.642,0-11.637-5.578-11.637-12.209c0-5.27,1.976-10.805,5.535-14.23c2.679-2.59,6.411-4.127,10.408-4.127
			C270.327,180.423,274.06,185.914,274.06,192.676z M255.966,187.275c-2.591,2.59-4.084,7.422-4.084,11.242
			c0,4.479,2.019,8.168,6.982,8.168c2.15,0,4.216-0.922,5.754-2.504c2.546-2.545,3.995-7.598,3.995-11.33
			c0-3.91-1.36-8.125-6.806-8.125C259.523,184.726,257.547,185.693,255.966,187.275z"/>
		<path fill="#FFFFFF" d="M281.261,180.906h5.137l-4.785,25.121h11.637l-0.834,4.479H275.64L281.261,180.906z"/>
		<path fill="#FFFFFF" d="M301.769,180.906h5.139l-4.789,25.121h11.639l-0.834,4.479h-16.776L301.769,180.906z"/>
		<path fill="#FFFFFF" d="M343.401,192.676c0,5.271-1.888,10.715-5.357,14.141c-2.679,2.635-6.28,4.174-10.584,4.174
			c-7.642,0-11.639-5.578-11.639-12.209c0-5.27,1.976-10.805,5.534-14.23c2.68-2.59,6.412-4.127,10.408-4.127
			C339.668,180.423,343.401,185.914,343.401,192.676z M325.308,187.275c-2.59,2.59-4.084,7.422-4.084,11.242
			c0,4.479,2.019,8.168,6.981,8.168c2.152,0,4.217-0.922,5.754-2.504c2.546-2.545,3.996-7.598,3.996-11.33
			c0-3.91-1.36-8.125-6.806-8.125C328.864,184.726,326.888,185.693,325.308,187.275z"/>
		<path fill="#FFFFFF" d="M358.593,181.345c2.417-0.438,5.051-0.659,7.819-0.659c4.743,0,8.475,1.23,10.847,3.558
			c2.021,1.846,3.383,4.611,3.383,8.695c0,5.578-2.287,10.674-6.018,13.746c-3.427,2.811-7.773,3.996-13.833,3.996
			c-3.12,0-6.017-0.219-7.687-0.438L358.593,181.345z M358.989,206.334c1.01,0.131,2.109,0.176,3.25,0.176
			c3.996,0,7.202-1.273,9.354-3.645c2.328-2.459,3.513-5.975,3.513-9.836c0-4.922-2.589-8.215-8.782-8.215
			c-1.186,0-2.46,0.088-3.293,0.266L358.989,206.334z"/>
		<path fill="#FFFFFF" d="M400.532,197.332h-10.627l-1.67,8.826h11.947l-0.836,4.348h-17.084l5.621-29.599h16.426l-0.834,4.347
			H392.19l-1.494,7.775h10.672L400.532,197.332z"/>
		<path fill="#FFFFFF" d="M413.005,204.666c1.668,1.098,4.084,1.889,6.676,1.889c2.854,0,5.488-1.539,5.488-4.393
			c0-1.932-1.273-3.25-4.17-4.787c-3.428-1.844-6.018-4.217-6.018-7.729c0-5.666,4.918-9.223,10.891-9.223
			c3.293,0,5.445,0.834,6.588,1.493l-1.67,4.26c-0.965-0.527-2.941-1.361-5.355-1.318c-3.25,0-5.096,1.891-5.096,3.865
			c0,2.021,1.67,3.207,4.438,4.789c3.6,1.887,5.752,4.26,5.752,7.859c0,5.93-4.787,9.574-11.42,9.574
			c-3.6,0-6.541-1.012-7.861-2.064L413.005,204.666z"/>
		<path fill="#FFFFFF" d="M444.272,180.906l-5.621,29.599h-5.139l5.621-29.599H444.272z"/>
		<path fill="#FFFFFF" d="M445.765,204.666c1.67,1.098,4.084,1.889,6.676,1.889c2.854,0,5.488-1.539,5.488-4.393
			c0-1.932-1.273-3.25-4.17-4.787c-3.428-1.844-6.018-4.217-6.018-7.729c0-5.666,4.918-9.223,10.891-9.223
			c3.295,0,5.445,0.834,6.588,1.493l-1.67,4.26c-0.965-0.527-2.941-1.361-5.357-1.318c-3.248,0-5.094,1.891-5.094,3.865
			c0,2.021,1.67,3.207,4.434,4.789c3.604,1.887,5.754,4.26,5.754,7.859c0,5.93-4.785,9.574-11.418,9.574
			c-3.6,0-6.543-1.012-7.859-2.064L445.765,204.666z"/>
		<path fill="#FFFFFF" d="M476.417,185.386h-8.213l0.879-4.48h21.564l-0.881,4.48h-8.254l-4.742,25.119h-5.141L476.417,185.386z"/>
		<path fill="#FFFFFF" d="M506.72,197.332h-10.629l-1.668,8.826h11.945l-0.834,4.348H488.45l5.621-29.599h16.426l-0.836,4.347
			h-11.285l-1.494,7.775h10.672L506.72,197.332z"/>
		<path fill="#FFFFFF" d="M535.001,210.506l1.977-13.922c0.438-3.029,1.053-7.201,1.799-10.846h-0.131
			c-1.539,3.469-3.293,7.291-4.918,10.408l-7.291,14.01h-3.951l-1.539-13.791c-0.352-3.295-0.613-7.113-0.789-10.627h-0.088
			c-0.791,3.379-1.67,7.859-2.418,10.846l-3.381,13.922h-4.742l7.51-29.599h6.764l1.58,13.833c0.221,2.635,0.527,5.709,0.572,8.52
			h0.174c1.055-2.811,2.461-5.928,3.734-8.477l7.158-13.876h6.852l-3.908,29.599H535.001z"/>
		<path fill="#FFFFFF" d="M552.653,202.074l-4.041,8.432h-5.445l14.846-29.599h6.41l3.734,29.599h-5.359l-0.834-8.432H552.653z
			 M561.657,198.123l-0.834-7.379c-0.133-1.582-0.307-3.865-0.441-5.621h-0.086c-0.791,1.756-1.582,3.863-2.416,5.621l-3.602,7.379
			H561.657z"/>
		<path fill="#FFFFFF" d="M572.548,204.666c1.666,1.098,4.084,1.889,6.676,1.889c2.854,0,5.488-1.539,5.488-4.393
			c0-1.932-1.275-3.25-4.174-4.787c-3.426-1.844-6.014-4.217-6.014-7.729c0-5.666,4.918-9.223,10.891-9.223
			c3.293,0,5.445,0.834,6.588,1.493l-1.67,4.26c-0.969-0.527-2.941-1.361-5.357-1.318c-3.25,0-5.094,1.891-5.094,3.865
			c0,2.021,1.668,3.207,4.436,4.789c3.6,1.887,5.752,4.26,5.752,7.859c0,5.93-4.785,9.574-11.418,9.574
			c-3.602,0-6.543-1.012-7.861-2.064L572.548,204.666z"/>
		<path fill="#FFFFFF" d="M161.394,234.045c2.415-0.439,5.05-0.66,7.817-0.66c4.742,0,8.475,1.23,10.847,3.559
			c2.021,1.844,3.382,4.609,3.382,8.693c0,5.58-2.285,10.674-6.017,13.748c-3.427,2.811-7.773,3.996-13.833,3.996
			c-3.119,0-6.018-0.221-7.686-0.439L161.394,234.045z M161.788,259.033c1.01,0.131,2.109,0.176,3.251,0.176
			c3.997,0,7.202-1.273,9.354-3.646c2.328-2.459,3.512-5.973,3.512-9.836c0-4.92-2.589-8.213-8.782-8.213
			c-1.186,0-2.46,0.088-3.293,0.264L161.788,259.033z"/>
		<path fill="#FFFFFF" d="M203.333,250.031h-10.628l-1.669,8.826h11.945l-0.834,4.348h-17.083l5.621-29.6h16.424l-0.834,4.348
			h-11.286l-1.493,7.773h10.671L203.333,250.031z"/>
		<path fill="#FFFFFF" d="M225.552,233.605l-5.621,29.6h-5.139l5.621-29.6H225.552z"/>
		<path fill="#FFFFFF" d="M226.124,263.205l5.622-29.6h5.884l5.183,13.746c1.273,3.602,2.02,6.324,2.679,9.266h0.087
			c0.176-2.898,0.527-5.752,1.316-10.014l2.46-12.998h4.833l-5.623,29.6h-5.227l-5.313-14.01c-1.362-3.865-2.109-6.279-2.811-9.531
			l-0.176,0.045c-0.308,2.811-0.923,6.457-1.713,10.85l-2.415,12.646H226.124z"/>
		<path fill="#FFFFFF" d="M260.333,233.605h16.338l-0.879,4.348h-11.154l-1.582,8.344h10.364l-0.832,4.305h-10.367l-2.371,12.604
			h-5.14L260.333,233.605z"/>
		<path fill="#FFFFFF" d="M304.512,245.375c0,5.27-1.887,10.715-5.359,14.141c-2.678,2.635-6.278,4.172-10.584,4.172
			c-7.64,0-11.637-5.576-11.637-12.209c0-5.27,1.977-10.803,5.535-14.229c2.679-2.59,6.412-4.129,10.408-4.129
			C300.779,233.121,304.512,238.611,304.512,245.375z M286.419,239.974c-2.591,2.59-4.084,7.42-4.084,11.242
			c0,4.479,2.019,8.168,6.982,8.168c2.152,0,4.215-0.922,5.754-2.504c2.546-2.547,3.996-7.598,3.996-11.33
			c0-3.91-1.361-8.125-6.806-8.125C289.975,237.426,287.999,238.392,286.419,239.974z"/>
		<path fill="#FFFFFF" d="M311.669,234.088c1.888-0.438,4.656-0.703,7.291-0.703c2.853,0,5.577,0.572,7.42,1.934
			c1.67,1.143,2.812,2.941,2.812,5.357c0,4.348-3.075,7.334-6.852,8.477l-0.043,0.131c1.932,0.748,2.766,2.811,3.029,5.621
			c0.352,3.689,0.572,7.115,1.053,8.301h-5.267c-0.222-0.703-0.529-3.514-0.792-7.07c-0.22-3.775-1.582-5.139-4.304-5.139h-2.504
			l-2.328,12.209h-5.053L311.669,234.088z M314.26,247.088h2.899c3.997,0,6.674-2.459,6.674-5.666c0-2.723-2.152-3.951-5.05-3.951
			c-1.273,0-2.108,0.086-2.724,0.264L314.26,247.088z"/>
		<path fill="#FFFFFF" d="M355.278,263.205l1.976-13.922c0.439-3.029,1.053-7.201,1.801-10.848h-0.131
			c-1.539,3.471-3.294,7.291-4.918,10.408l-7.291,14.01h-3.952l-1.538-13.789c-0.353-3.295-0.615-7.113-0.791-10.629h-0.088
			c-0.79,3.381-1.669,7.861-2.415,10.848l-3.384,13.922h-4.741l7.509-29.6h6.764l1.58,13.832c0.221,2.635,0.528,5.711,0.572,8.521
			h0.174c1.055-2.811,2.46-5.928,3.734-8.477l7.159-13.877h6.85l-3.909,29.6H355.278z"/>
		<path fill="#FFFFFF" d="M372.932,254.773l-4.042,8.432h-5.445l14.845-29.6h6.412l3.732,29.6h-5.357l-0.834-8.432H372.932z
			 M381.935,250.82l-0.834-7.377c-0.133-1.582-0.307-3.865-0.439-5.621h-0.088c-0.79,1.756-1.582,3.863-2.416,5.621l-3.602,7.377
			H381.935z"/>
		<path fill="#FFFFFF" d="M412.192,262.326c-1.58,0.703-4.26,1.318-7.729,1.318c-7.688,0-12.605-4.742-12.605-12.428
			c0-6.148,2.635-11.377,6.939-14.582c3.074-2.326,6.764-3.514,11.023-3.514c3.25,0,5.621,0.791,6.455,1.363l-1.494,4.127
			c-0.965-0.525-2.986-1.055-5.576-1.055c-2.811,0-5.533,0.967-7.553,2.725c-2.594,2.283-4.26,6.016-4.26,10.32
			c0,4.961,2.545,8.695,8.387,8.695c2.152,0,4.348-0.395,5.93-1.141L412.192,262.326z"/>
		<path fill="#FFFFFF" d="M426.509,233.605l-5.623,29.6h-5.139l5.621-29.6H426.509z"/>
		<path fill="#FFFFFF" d="M455.712,245.375c0,5.27-1.887,10.715-5.357,14.141c-2.68,2.635-6.279,4.172-10.584,4.172
			c-7.643,0-11.639-5.576-11.639-12.209c0-5.27,1.977-10.803,5.535-14.229c2.68-2.59,6.41-4.129,10.408-4.129
			C451.979,233.121,455.712,238.611,455.712,245.375z M437.618,239.974c-2.59,2.59-4.084,7.42-4.084,11.242
			c0,4.479,2.018,8.168,6.982,8.168c2.152,0,4.217-0.922,5.754-2.504c2.547-2.547,3.996-7.598,3.996-11.33
			c0-3.91-1.359-8.125-6.807-8.125C441.173,237.426,439.2,238.392,437.618,239.974z M452.286,226.535l-5.928,5.4h-4.393l4.305-5.4
			H452.286z"/>
		<path fill="#FFFFFF" d="M457.294,263.205l5.619-29.6h5.885l5.182,13.746c1.275,3.602,2.02,6.324,2.678,9.266h0.09
			c0.176-2.898,0.527-5.752,1.316-10.014l2.459-12.998h4.832l-5.621,29.6h-5.227l-5.313-14.01c-1.363-3.865-2.109-6.279-2.811-9.531
			l-0.178,0.045c-0.307,2.811-0.922,6.457-1.711,10.85l-2.416,12.646H457.294z"/>
		<path fill="#E2A84D" stroke="#E2A84D" stroke-miterlimit="10" d="M497.167,233.121c-1.844,3.998-4.348,8.52-6.41,11.244
			l-3.428,0.307c1.67-3.207,3.514-7.598,4.566-11.154L497.167,233.121z M504.853,233.121c-1.846,3.998-4.348,8.52-6.412,11.244
			l-3.426,0.307c1.625-3.207,3.514-7.598,4.568-11.154L504.853,233.121z"/>
	</g>
</g>
</svg>
