<?xml version="1.0" encoding="utf-8"?>
<!-- Generator: Adobe Illustrator 16.0.0, SVG Export Plug-In . SVG Version: 6.00 Build 0)  -->
<!DOCTYPE svg PUBLIC "-//W3C//DTD SVG 1.1//EN" "http://www.w3.org/Graphics/SVG/1.1/DTD/svg11.dtd">
<svg version="1.1" id="Capa_1" xmlns="http://www.w3.org/2000/svg" xmlns:xlink="http://www.w3.org/1999/xlink" x="0px" y="0px"
	 width="767.031px" height="35.968px" viewBox="0 0 767.031 35.968" enable-background="new 0 0 767.031 35.968"
	 xml:space="preserve">
<g>
	<g>
		<line fill="#0B488C" x1="0" y1="0.5" x2="767.031" y2="0.5"/>
		<rect fill="#FFCC73" width="767.031" height="1"/>
	</g>
	<g>
		<rect y="34.968" fill="#FFCC73" width="767.031" height="1"/>
	</g>
	<g>
		<path fill="#0C488D" stroke="#0C488D" stroke-width="0.5" stroke-miterlimit="10" d="M39.129,25.716V6.11h1.764v17.924h7.506
			v1.682H39.129z"/>
		<path fill="#0C488D" stroke="#0C488D" stroke-width="0.5" stroke-miterlimit="10" d="M51.064,8.353V6.11h1.955v2.242H51.064z
			 M51.201,25.716v-14h1.682v14H51.201z"/>
		<path fill="#0C488D" stroke="#0C488D" stroke-width="0.5" stroke-miterlimit="10" d="M64.477,25.716V15.462
			c0-0.337-0.064-0.654-0.191-0.95c-0.128-0.296-0.301-0.554-0.52-0.772s-0.477-0.392-0.772-0.52
			c-0.296-0.127-0.613-0.191-0.95-0.191h-1.121c-0.337,0-0.654,0.064-0.95,0.191c-0.296,0.128-0.554,0.301-0.772,0.52
			s-0.392,0.477-0.52,0.772c-0.128,0.296-0.191,0.613-0.191,0.95v10.254h-1.682v-14h0.561l0.916,1.422
			c0.383-0.52,0.863-0.932,1.442-1.237c0.579-0.305,1.21-0.458,1.894-0.458h0.424c0.565,0,1.098,0.107,1.6,0.321
			c0.501,0.214,0.938,0.508,1.313,0.882c0.374,0.374,0.667,0.812,0.882,1.313c0.214,0.501,0.321,1.035,0.321,1.6v10.159H64.477z"/>
		<path fill="#0C488D" stroke="#0C488D" stroke-width="0.5" stroke-miterlimit="10" d="M78.552,23.474
			c-0.214,0.501-0.508,0.938-0.882,1.313c-0.374,0.373-0.812,0.668-1.313,0.881c-0.501,0.215-1.035,0.322-1.6,0.322h-1.121
			c-0.565,0-1.099-0.107-1.6-0.322c-0.501-0.213-0.939-0.508-1.313-0.881c-0.374-0.374-0.668-0.812-0.882-1.313
			c-0.214-0.502-0.321-1.035-0.321-1.6v-6.317c0-0.565,0.107-1.098,0.321-1.6c0.214-0.501,0.508-0.938,0.882-1.313
			c0.374-0.374,0.811-0.667,1.313-0.882c0.501-0.214,1.034-0.321,1.6-0.321h1.121c0.565,0,1.098,0.107,1.6,0.321
			c0.501,0.214,0.938,0.508,1.313,0.882c0.374,0.374,0.667,0.812,0.882,1.313c0.214,0.501,0.321,1.035,0.321,1.6v3.295h-7.67v3.117
			c0,0.337,0.063,0.654,0.191,0.949c0.127,0.297,0.301,0.555,0.52,0.773s0.476,0.392,0.772,0.52c0.296,0.127,0.613,0.191,0.95,0.191
			h1.121c0.337,0,0.654-0.064,0.95-0.191c0.296-0.128,0.554-0.301,0.772-0.52s0.392-0.477,0.52-0.773
			c0.127-0.295,0.191-0.612,0.191-0.949v-0.93l1.682,0.273v0.561C78.873,22.439,78.766,22.972,78.552,23.474z M77.191,15.462
			c0-0.337-0.064-0.654-0.191-0.95c-0.128-0.296-0.301-0.554-0.52-0.772s-0.477-0.392-0.772-0.52
			c-0.296-0.127-0.613-0.191-0.95-0.191h-1.121c-0.337,0-0.654,0.064-0.95,0.191c-0.296,0.128-0.554,0.301-0.772,0.52
			s-0.392,0.477-0.52,0.772c-0.128,0.296-0.191,0.613-0.191,0.95v2.078h5.988V15.462z"/>
		<path fill="#0C488D" stroke="#0C488D" stroke-width="0.5" stroke-miterlimit="10" d="M91.027,25.716l-0.93-1.395
			c-0.383,0.501-0.861,0.904-1.436,1.209c-0.574,0.306-1.203,0.459-1.887,0.459h-0.424c-0.565,0-1.099-0.107-1.6-0.322
			c-0.501-0.213-0.939-0.508-1.313-0.881c-0.374-0.374-0.668-0.812-0.882-1.313c-0.214-0.502-0.321-1.035-0.321-1.6v-0.137
			c0-0.565,0.107-1.099,0.321-1.6c0.214-0.502,0.508-0.939,0.882-1.313c0.374-0.374,0.811-0.668,1.313-0.882
			c0.501-0.214,1.034-0.321,1.6-0.321h3.555v-2.16c0-0.337-0.064-0.654-0.191-0.95c-0.128-0.296-0.301-0.554-0.52-0.772
			s-0.477-0.392-0.772-0.52c-0.296-0.127-0.613-0.191-0.95-0.191h-0.984c-0.337,0-0.654,0.064-0.95,0.191
			c-0.296,0.128-0.554,0.301-0.772,0.52s-0.392,0.477-0.52,0.772c-0.128,0.296-0.191,0.613-0.191,0.95v0.506l-1.682-0.273v-0.137
			c0-0.565,0.107-1.098,0.321-1.6c0.214-0.501,0.508-0.938,0.882-1.313c0.374-0.374,0.811-0.667,1.313-0.882
			c0.501-0.214,1.034-0.321,1.6-0.321h0.984c0.565,0,1.098,0.107,1.6,0.321c0.501,0.214,0.938,0.508,1.313,0.882
			c0.374,0.374,0.667,0.812,0.882,1.313c0.214,0.501,0.321,1.035,0.321,1.6v10.159H91.027z M89.906,18.935h-3.555
			c-0.337,0-0.654,0.063-0.95,0.191c-0.296,0.127-0.554,0.303-0.772,0.525c-0.219,0.225-0.392,0.484-0.52,0.779
			c-0.128,0.297-0.191,0.613-0.191,0.951v0.588c0,0.337,0.063,0.654,0.191,0.949c0.127,0.297,0.301,0.555,0.52,0.773
			s0.476,0.392,0.772,0.52c0.296,0.127,0.613,0.191,0.95,0.191h1.121c0.337,0,0.654-0.064,0.95-0.191
			c0.296-0.128,0.554-0.301,0.772-0.52s0.392-0.477,0.52-0.773c0.127-0.295,0.191-0.612,0.191-0.949V18.935z"/>
		<path fill="#0C488D" stroke="#0C488D" stroke-width="0.5" stroke-miterlimit="10" d="M109.73,25.716V15.462
			c0-0.337-0.064-0.654-0.191-0.95c-0.128-0.296-0.301-0.554-0.52-0.772s-0.477-0.392-0.772-0.52
			c-0.296-0.127-0.613-0.191-0.95-0.191h-0.834c-0.337,0-0.654,0.064-0.95,0.191c-0.296,0.128-0.556,0.301-0.779,0.52
			c-0.224,0.219-0.399,0.477-0.526,0.772c-0.128,0.296-0.191,0.613-0.191,0.95v10.254h-1.668V15.462c0-0.337-0.064-0.654-0.191-0.95
			c-0.128-0.296-0.303-0.554-0.526-0.772c-0.224-0.219-0.483-0.392-0.779-0.52c-0.296-0.127-0.613-0.191-0.95-0.191h-0.834
			c-0.337,0-0.654,0.064-0.95,0.191c-0.296,0.128-0.554,0.301-0.772,0.52s-0.392,0.477-0.52,0.772
			c-0.128,0.296-0.191,0.613-0.191,0.95v10.254h-1.682v-14h0.561l0.916,1.422c0.383-0.52,0.863-0.932,1.442-1.237
			c0.579-0.305,1.21-0.458,1.894-0.458H99.9c0.793,0,1.508,0.196,2.146,0.588c0.638,0.392,1.13,0.912,1.477,1.559
			c0.173-0.319,0.387-0.61,0.643-0.875c0.255-0.264,0.538-0.49,0.848-0.677c0.31-0.187,0.647-0.333,1.012-0.438
			c0.364-0.104,0.743-0.157,1.135-0.157h0.137c0.565,0,1.098,0.107,1.6,0.321c0.501,0.214,0.938,0.508,1.313,0.882
			c0.374,0.374,0.667,0.812,0.882,1.313c0.214,0.501,0.321,1.035,0.321,1.6v10.159H109.73z"/>
		<path fill="#0C488D" stroke="#0C488D" stroke-width="0.5" stroke-miterlimit="10" d="M115.199,8.353V6.11h1.955v2.242H115.199z
			 M115.336,25.716v-14h1.682v14H115.336z"/>
		<path fill="#0C488D" stroke="#0C488D" stroke-width="0.5" stroke-miterlimit="10" d="M129.972,23.474
			c-0.214,0.501-0.508,0.938-0.882,1.313c-0.374,0.373-0.812,0.668-1.313,0.881c-0.501,0.215-1.035,0.322-1.6,0.322h-1.121
			c-0.565,0-1.099-0.107-1.6-0.322c-0.501-0.213-0.939-0.508-1.313-0.881c-0.374-0.374-0.668-0.812-0.882-1.313
			c-0.214-0.502-0.321-1.035-0.321-1.6v-6.317c0-0.565,0.107-1.098,0.321-1.6c0.214-0.501,0.508-0.938,0.882-1.313
			c0.374-0.374,0.811-0.667,1.313-0.882c0.501-0.214,1.034-0.321,1.6-0.321h1.121c0.565,0,1.098,0.107,1.6,0.321
			c0.501,0.214,0.938,0.508,1.313,0.882c0.374,0.374,0.667,0.812,0.882,1.313c0.214,0.501,0.321,1.035,0.321,1.6v3.295h-7.67v3.117
			c0,0.337,0.063,0.654,0.191,0.949c0.127,0.297,0.301,0.555,0.52,0.773s0.476,0.392,0.772,0.52c0.296,0.127,0.613,0.191,0.95,0.191
			h1.121c0.337,0,0.654-0.064,0.95-0.191c0.296-0.128,0.554-0.301,0.772-0.52s0.392-0.477,0.52-0.773
			c0.127-0.295,0.191-0.612,0.191-0.949v-0.93l1.682,0.273v0.561C130.293,22.439,130.186,22.972,129.972,23.474z M128.611,15.462
			c0-0.337-0.064-0.654-0.191-0.95c-0.128-0.296-0.301-0.554-0.52-0.772s-0.477-0.392-0.772-0.52
			c-0.296-0.127-0.613-0.191-0.95-0.191h-1.121c-0.337,0-0.654,0.064-0.95,0.191c-0.296,0.128-0.554,0.301-0.772,0.52
			s-0.392,0.477-0.52,0.772c-0.128,0.296-0.191,0.613-0.191,0.95v2.078h5.988V15.462z"/>
		<path fill="#0C488D" stroke="#0C488D" stroke-width="0.5" stroke-miterlimit="10" d="M141.326,25.716V15.462
			c0-0.337-0.064-0.654-0.191-0.95c-0.128-0.296-0.301-0.554-0.52-0.772s-0.477-0.392-0.772-0.52
			c-0.296-0.127-0.613-0.191-0.95-0.191h-1.121c-0.337,0-0.654,0.064-0.95,0.191c-0.296,0.128-0.554,0.301-0.772,0.52
			s-0.392,0.477-0.52,0.772c-0.128,0.296-0.191,0.613-0.191,0.95v10.254h-1.682v-14h0.561l0.916,1.422
			c0.383-0.52,0.863-0.932,1.442-1.237c0.579-0.305,1.21-0.458,1.894-0.458h0.424c0.565,0,1.098,0.107,1.6,0.321
			c0.501,0.214,0.938,0.508,1.313,0.882c0.374,0.374,0.667,0.812,0.882,1.313c0.214,0.501,0.321,1.035,0.321,1.6v10.159H141.326z"/>
		<path fill="#0C488D" stroke="#0C488D" stroke-width="0.5" stroke-miterlimit="10" d="M151.471,25.716
			c-0.511,0-0.991-0.096-1.442-0.287s-0.843-0.456-1.176-0.793c-0.333-0.338-0.597-0.729-0.793-1.176
			c-0.196-0.447-0.294-0.926-0.294-1.436v-8.709h-2.516v-1.6h2.516V8.353l1.682-0.273v3.637h3.555v1.6h-3.555v8.792
			c0,0.282,0.052,0.545,0.157,0.785c0.104,0.242,0.248,0.454,0.431,0.637c0.182,0.182,0.396,0.326,0.643,0.43
			c0.246,0.105,0.51,0.158,0.793,0.158h1.531v1.6H151.471z"/>
		<path fill="#0C488D" stroke="#0C488D" stroke-width="0.5" stroke-miterlimit="10" d="M165.122,23.474
			c-0.214,0.501-0.508,0.938-0.882,1.313c-0.374,0.373-0.812,0.668-1.313,0.881c-0.501,0.215-1.035,0.322-1.6,0.322h-1.121
			c-0.565,0-1.099-0.107-1.6-0.322c-0.501-0.213-0.939-0.508-1.313-0.881c-0.374-0.374-0.668-0.812-0.882-1.313
			c-0.214-0.502-0.321-1.035-0.321-1.6v-6.317c0-0.565,0.107-1.098,0.321-1.6c0.214-0.501,0.508-0.938,0.882-1.313
			c0.374-0.374,0.811-0.667,1.313-0.882c0.501-0.214,1.034-0.321,1.6-0.321h1.121c0.565,0,1.098,0.107,1.6,0.321
			c0.501,0.214,0.938,0.508,1.313,0.882c0.374,0.374,0.667,0.812,0.882,1.313c0.214,0.501,0.321,1.035,0.321,1.6v6.317
			C165.443,22.439,165.336,22.972,165.122,23.474z M163.762,15.462c0-0.337-0.064-0.654-0.191-0.95
			c-0.128-0.296-0.301-0.554-0.52-0.772s-0.477-0.392-0.772-0.52c-0.296-0.127-0.613-0.191-0.95-0.191h-1.121
			c-0.337,0-0.654,0.064-0.95,0.191c-0.296,0.128-0.554,0.301-0.772,0.52s-0.392,0.477-0.52,0.772
			c-0.128,0.296-0.191,0.613-0.191,0.95v6.508c0,0.337,0.063,0.654,0.191,0.949c0.127,0.297,0.301,0.555,0.52,0.773
			s0.476,0.392,0.772,0.52c0.296,0.127,0.613,0.191,0.95,0.191h1.121c0.337,0,0.654-0.064,0.95-0.191
			c0.296-0.128,0.554-0.301,0.772-0.52s0.392-0.477,0.52-0.773c0.127-0.295,0.191-0.612,0.191-0.949V15.462z"/>
		<path fill="#0C488D" stroke="#0C488D" stroke-width="0.5" stroke-miterlimit="10" d="M178.432,22.162
			c0,0.564-0.114,1.082-0.342,1.551c-0.228,0.471-0.538,0.873-0.93,1.211c-0.392,0.337-0.846,0.6-1.36,0.785
			c-0.515,0.188-1.055,0.281-1.62,0.281h-1.121c-0.565,0-1.105-0.107-1.62-0.322c-0.515-0.213-0.966-0.508-1.354-0.881
			c-0.388-0.374-0.697-0.812-0.93-1.313c-0.232-0.502-0.349-1.035-0.349-1.6v-0.561l1.682-0.273v0.93
			c0,0.337,0.07,0.654,0.212,0.949c0.141,0.297,0.33,0.555,0.567,0.773c0.237,0.219,0.51,0.392,0.82,0.52
			c0.31,0.127,0.633,0.191,0.971,0.191h1.121c0.337,0,0.661-0.051,0.971-0.15c0.31-0.101,0.585-0.244,0.827-0.432
			c0.241-0.186,0.433-0.412,0.574-0.676c0.141-0.265,0.212-0.565,0.212-0.902c0-0.502-0.109-0.912-0.328-1.23
			c-0.219-0.319-0.508-0.586-0.868-0.801c-0.36-0.213-0.771-0.391-1.23-0.533c-0.46-0.141-0.932-0.281-1.415-0.424
			c-0.483-0.141-0.955-0.303-1.415-0.484c-0.46-0.183-0.871-0.422-1.23-0.718c-0.36-0.296-0.649-0.667-0.868-1.114
			c-0.219-0.446-0.328-1.002-0.328-1.668c0-0.565,0.109-1.082,0.328-1.552c0.219-0.469,0.515-0.873,0.889-1.21
			c0.374-0.337,0.809-0.599,1.306-0.786c0.497-0.187,1.027-0.28,1.593-0.28h0.984c0.565,0,1.098,0.107,1.6,0.321
			c0.501,0.214,0.938,0.508,1.313,0.882c0.374,0.374,0.667,0.812,0.882,1.313c0.214,0.501,0.321,1.035,0.321,1.6v0.055l-1.682,0.273
			v-0.424c0-0.337-0.064-0.654-0.191-0.95c-0.128-0.296-0.301-0.554-0.52-0.772s-0.477-0.392-0.772-0.52
			c-0.296-0.127-0.613-0.191-0.95-0.191h-0.984c-0.337,0-0.654,0.05-0.95,0.15c-0.296,0.101-0.554,0.244-0.772,0.431
			c-0.219,0.187-0.392,0.413-0.52,0.677c-0.128,0.265-0.191,0.565-0.191,0.902c0,0.483,0.109,0.877,0.328,1.183
			c0.219,0.306,0.508,0.563,0.868,0.772c0.36,0.21,0.77,0.385,1.23,0.526c0.46,0.142,0.93,0.287,1.408,0.438
			s0.948,0.321,1.408,0.513c0.46,0.191,0.87,0.438,1.23,0.738c0.36,0.301,0.649,0.676,0.868,1.127S178.432,21.496,178.432,22.162z"
			/>
		<path fill="#0C488D" stroke="#0C488D" stroke-width="0.5" stroke-miterlimit="10" d="M197.265,29.039
			c-0.214,0.473-0.508,0.879-0.882,1.217c-0.374,0.336-0.812,0.599-1.313,0.785c-0.501,0.188-1.035,0.281-1.6,0.281h-0.697
			c-0.565,0-1.099-0.094-1.6-0.281c-0.501-0.187-0.939-0.449-1.313-0.785c-0.374-0.338-0.668-0.744-0.882-1.217
			c-0.214-0.475-0.321-0.994-0.321-1.559v-0.055c0-0.547,0.1-1.049,0.301-1.504c0.2-0.456,0.474-0.853,0.82-1.189
			c-0.438-0.265-0.786-0.623-1.046-1.074s-0.39-0.949-0.39-1.496c0-0.492,0.104-0.951,0.314-1.375
			c0.209-0.424,0.497-0.768,0.861-1.031c-0.438-0.383-0.784-0.844-1.039-1.381c-0.255-0.538-0.383-1.125-0.383-1.764v-1.053
			c0-0.565,0.107-1.098,0.321-1.6c0.214-0.501,0.508-0.938,0.882-1.313c0.374-0.374,0.811-0.667,1.313-0.882
			c0.501-0.214,1.034-0.321,1.6-0.321h0.697c0.684,0,1.314,0.153,1.894,0.458c0.579,0.306,1.06,0.718,1.442,1.237l0.916-1.422h0.561
			v4.895c0,0.565-0.107,1.099-0.321,1.6c-0.214,0.501-0.508,0.939-0.882,1.313c-0.374,0.373-0.812,0.668-1.313,0.881
			c-0.501,0.215-1.035,0.322-1.6,0.322h-2.434c-0.191,0-0.374,0.039-0.547,0.115c-0.173,0.078-0.326,0.181-0.458,0.309
			c-0.132,0.127-0.235,0.279-0.308,0.457c-0.073,0.178-0.109,0.363-0.109,0.555s0.036,0.373,0.109,0.547
			c0.073,0.173,0.175,0.326,0.308,0.457c0.132,0.133,0.285,0.235,0.458,0.309c0.173,0.072,0.355,0.109,0.547,0.109h2.297
			c0.565,0,1.098,0.094,1.6,0.279c0.501,0.188,0.938,0.449,1.313,0.787c0.374,0.337,0.667,0.742,0.882,1.217
			c0.214,0.473,0.321,0.992,0.321,1.559v0.055C197.586,28.044,197.479,28.564,197.265,29.039z M196.055,15.462
			c0-0.337-0.064-0.654-0.191-0.95c-0.128-0.296-0.303-0.554-0.526-0.772c-0.224-0.219-0.483-0.392-0.779-0.52
			c-0.296-0.127-0.613-0.191-0.95-0.191h-1.395c-0.337,0-0.654,0.064-0.95,0.191c-0.296,0.128-0.554,0.301-0.772,0.52
			s-0.392,0.477-0.52,0.772c-0.128,0.296-0.191,0.613-0.191,0.95v1.244c0,0.337,0.063,0.654,0.191,0.95
			c0.127,0.296,0.301,0.554,0.52,0.772c0.219,0.219,0.476,0.392,0.772,0.52c0.296,0.127,0.613,0.191,0.95,0.191h1.395
			c0.337,0,0.654-0.064,0.95-0.191c0.296-0.128,0.556-0.301,0.779-0.52c0.223-0.219,0.398-0.476,0.526-0.772
			c0.127-0.296,0.191-0.613,0.191-0.95V15.462z M195.986,27.343c0-0.338-0.064-0.641-0.191-0.91
			c-0.128-0.269-0.301-0.494-0.52-0.676c-0.219-0.183-0.477-0.324-0.772-0.424c-0.296-0.101-0.613-0.15-0.95-0.15h-0.861
			c-0.337,0-0.654,0.05-0.95,0.15c-0.296,0.1-0.554,0.241-0.772,0.424c-0.219,0.182-0.392,0.407-0.52,0.676
			c-0.128,0.27-0.191,0.572-0.191,0.91v0.219c0,0.336,0.063,0.637,0.191,0.902c0.127,0.264,0.301,0.489,0.52,0.676
			c0.219,0.188,0.476,0.33,0.772,0.432c0.296,0.1,0.613,0.15,0.95,0.15h0.861c0.337,0,0.654-0.051,0.95-0.15
			c0.296-0.102,0.554-0.244,0.772-0.432c0.219-0.187,0.392-0.412,0.52-0.676c0.127-0.266,0.191-0.566,0.191-0.902V27.343z"/>
		<path fill="#0C488D" stroke="#0C488D" stroke-width="0.5" stroke-miterlimit="10" d="M209.843,23.474
			c-0.214,0.501-0.508,0.938-0.882,1.313c-0.374,0.373-0.812,0.668-1.313,0.881c-0.501,0.215-1.035,0.322-1.6,0.322h-1.121
			c-0.565,0-1.099-0.107-1.6-0.322c-0.501-0.213-0.939-0.508-1.313-0.881c-0.374-0.374-0.668-0.812-0.882-1.313
			c-0.214-0.502-0.321-1.035-0.321-1.6v-6.317c0-0.565,0.107-1.098,0.321-1.6c0.214-0.501,0.508-0.938,0.882-1.313
			c0.374-0.374,0.811-0.667,1.313-0.882c0.501-0.214,1.034-0.321,1.6-0.321h1.121c0.565,0,1.098,0.107,1.6,0.321
			c0.501,0.214,0.938,0.508,1.313,0.882c0.374,0.374,0.667,0.812,0.882,1.313c0.214,0.501,0.321,1.035,0.321,1.6v3.295h-7.67v3.117
			c0,0.337,0.063,0.654,0.191,0.949c0.127,0.297,0.301,0.555,0.52,0.773s0.476,0.392,0.772,0.52c0.296,0.127,0.613,0.191,0.95,0.191
			h1.121c0.337,0,0.654-0.064,0.95-0.191c0.296-0.128,0.554-0.301,0.772-0.52s0.392-0.477,0.52-0.773
			c0.127-0.295,0.191-0.612,0.191-0.949v-0.93l1.682,0.273v0.561C210.164,22.439,210.057,22.972,209.843,23.474z M208.482,15.462
			c0-0.337-0.064-0.654-0.191-0.95c-0.128-0.296-0.301-0.554-0.52-0.772s-0.477-0.392-0.772-0.52
			c-0.296-0.127-0.613-0.191-0.95-0.191h-1.121c-0.337,0-0.654,0.064-0.95,0.191c-0.296,0.128-0.554,0.301-0.772,0.52
			s-0.392,0.477-0.52,0.772c-0.128,0.296-0.191,0.613-0.191,0.95v2.078h5.988V15.462z"/>
		<path fill="#0C488D" stroke="#0C488D" stroke-width="0.5" stroke-miterlimit="10" d="M221.197,25.716V15.462
			c0-0.337-0.064-0.654-0.191-0.95c-0.128-0.296-0.301-0.554-0.52-0.772s-0.477-0.392-0.772-0.52
			c-0.296-0.127-0.613-0.191-0.95-0.191h-1.121c-0.337,0-0.654,0.064-0.95,0.191c-0.296,0.128-0.554,0.301-0.772,0.52
			s-0.392,0.477-0.52,0.772c-0.128,0.296-0.191,0.613-0.191,0.95v10.254h-1.682v-14h0.561l0.916,1.422
			c0.383-0.52,0.863-0.932,1.442-1.237c0.579-0.305,1.21-0.458,1.894-0.458h0.424c0.565,0,1.098,0.107,1.6,0.321
			c0.501,0.214,0.938,0.508,1.313,0.882c0.374,0.374,0.667,0.812,0.882,1.313c0.214,0.501,0.321,1.035,0.321,1.6v10.159H221.197z"/>
		<path fill="#0C488D" stroke="#0C488D" stroke-width="0.5" stroke-miterlimit="10" d="M235.272,23.474
			c-0.214,0.501-0.508,0.938-0.882,1.313c-0.374,0.373-0.812,0.668-1.313,0.881c-0.501,0.215-1.035,0.322-1.6,0.322h-1.121
			c-0.565,0-1.099-0.107-1.6-0.322c-0.501-0.213-0.939-0.508-1.313-0.881c-0.374-0.374-0.668-0.812-0.882-1.313
			c-0.214-0.502-0.321-1.035-0.321-1.6v-6.317c0-0.565,0.107-1.098,0.321-1.6c0.214-0.501,0.508-0.938,0.882-1.313
			c0.374-0.374,0.811-0.667,1.313-0.882c0.501-0.214,1.034-0.321,1.6-0.321h1.121c0.565,0,1.098,0.107,1.6,0.321
			c0.501,0.214,0.938,0.508,1.313,0.882c0.374,0.374,0.667,0.812,0.882,1.313c0.214,0.501,0.321,1.035,0.321,1.6v3.295h-7.67v3.117
			c0,0.337,0.063,0.654,0.191,0.949c0.127,0.297,0.301,0.555,0.52,0.773s0.476,0.392,0.772,0.52c0.296,0.127,0.613,0.191,0.95,0.191
			h1.121c0.337,0,0.654-0.064,0.95-0.191c0.296-0.128,0.554-0.301,0.772-0.52s0.392-0.477,0.52-0.773
			c0.127-0.295,0.191-0.612,0.191-0.949v-0.93l1.682,0.273v0.561C235.594,22.439,235.486,22.972,235.272,23.474z M233.912,15.462
			c0-0.337-0.064-0.654-0.191-0.95c-0.128-0.296-0.301-0.554-0.52-0.772s-0.477-0.392-0.772-0.52
			c-0.296-0.127-0.613-0.191-0.95-0.191h-1.121c-0.337,0-0.654,0.064-0.95,0.191c-0.296,0.128-0.554,0.301-0.772,0.52
			s-0.392,0.477-0.52,0.772c-0.128,0.296-0.191,0.613-0.191,0.95v2.078h5.988V15.462z"/>
		<path fill="#0C488D" stroke="#0C488D" stroke-width="0.5" stroke-miterlimit="10" d="M243.072,13.315
			c-0.337,0-0.654,0.064-0.95,0.191c-0.296,0.128-0.554,0.301-0.772,0.52s-0.392,0.477-0.52,0.772
			c-0.128,0.296-0.191,0.613-0.191,0.95v9.967h-1.682v-14h0.561l0.916,1.422c0.383-0.52,0.863-0.932,1.442-1.237
			c0.579-0.305,1.21-0.458,1.894-0.458h0.984v1.873H243.072z"/>
		<path fill="#0C488D" stroke="#0C488D" stroke-width="0.5" stroke-miterlimit="10" d="M255.787,25.716l-0.93-1.395
			c-0.383,0.501-0.861,0.904-1.436,1.209c-0.574,0.306-1.203,0.459-1.887,0.459h-0.424c-0.565,0-1.099-0.107-1.6-0.322
			c-0.501-0.213-0.939-0.508-1.313-0.881c-0.374-0.374-0.668-0.812-0.882-1.313c-0.214-0.502-0.321-1.035-0.321-1.6v-0.137
			c0-0.565,0.107-1.099,0.321-1.6c0.214-0.502,0.508-0.939,0.882-1.313c0.374-0.374,0.811-0.668,1.313-0.882
			c0.501-0.214,1.034-0.321,1.6-0.321h3.555v-2.16c0-0.337-0.064-0.654-0.191-0.95c-0.128-0.296-0.301-0.554-0.52-0.772
			s-0.477-0.392-0.772-0.52c-0.296-0.127-0.613-0.191-0.95-0.191h-0.984c-0.337,0-0.654,0.064-0.95,0.191
			c-0.296,0.128-0.554,0.301-0.772,0.52s-0.392,0.477-0.52,0.772c-0.128,0.296-0.191,0.613-0.191,0.95v0.506l-1.682-0.273v-0.137
			c0-0.565,0.107-1.098,0.321-1.6c0.214-0.501,0.508-0.938,0.882-1.313c0.374-0.374,0.811-0.667,1.313-0.882
			c0.501-0.214,1.034-0.321,1.6-0.321h0.984c0.565,0,1.098,0.107,1.6,0.321c0.501,0.214,0.938,0.508,1.313,0.882
			c0.374,0.374,0.667,0.812,0.882,1.313c0.214,0.501,0.321,1.035,0.321,1.6v10.159H255.787z M254.666,18.935h-3.555
			c-0.337,0-0.654,0.063-0.95,0.191c-0.296,0.127-0.554,0.303-0.772,0.525c-0.219,0.225-0.392,0.484-0.52,0.779
			c-0.128,0.297-0.191,0.613-0.191,0.951v0.588c0,0.337,0.063,0.654,0.191,0.949c0.127,0.297,0.301,0.555,0.52,0.773
			s0.476,0.392,0.772,0.52c0.296,0.127,0.613,0.191,0.95,0.191h1.121c0.337,0,0.654-0.064,0.95-0.191
			c0.296-0.128,0.554-0.301,0.772-0.52s0.392-0.477,0.52-0.773c0.127-0.295,0.191-0.612,0.191-0.949V18.935z"/>
		<path fill="#0C488D" stroke="#0C488D" stroke-width="0.5" stroke-miterlimit="10" d="M260.271,25.716V6.11h1.682v19.606H260.271z"
			/>
		<path fill="#0C488D" stroke="#0C488D" stroke-width="0.5" stroke-miterlimit="10" d="M274.907,23.474
			c-0.214,0.501-0.508,0.938-0.882,1.313c-0.374,0.373-0.812,0.668-1.313,0.881c-0.501,0.215-1.035,0.322-1.6,0.322h-1.121
			c-0.565,0-1.099-0.107-1.6-0.322c-0.501-0.213-0.939-0.508-1.313-0.881c-0.374-0.374-0.668-0.812-0.882-1.313
			c-0.214-0.502-0.321-1.035-0.321-1.6v-6.317c0-0.565,0.107-1.098,0.321-1.6c0.214-0.501,0.508-0.938,0.882-1.313
			c0.374-0.374,0.811-0.667,1.313-0.882c0.501-0.214,1.034-0.321,1.6-0.321h1.121c0.565,0,1.098,0.107,1.6,0.321
			c0.501,0.214,0.938,0.508,1.313,0.882c0.374,0.374,0.667,0.812,0.882,1.313c0.214,0.501,0.321,1.035,0.321,1.6v3.295h-7.67v3.117
			c0,0.337,0.063,0.654,0.191,0.949c0.127,0.297,0.301,0.555,0.52,0.773s0.476,0.392,0.772,0.52c0.296,0.127,0.613,0.191,0.95,0.191
			h1.121c0.337,0,0.654-0.064,0.95-0.191c0.296-0.128,0.554-0.301,0.772-0.52s0.392-0.477,0.52-0.773
			c0.127-0.295,0.191-0.612,0.191-0.949v-0.93l1.682,0.273v0.561C275.229,22.439,275.121,22.972,274.907,23.474z M273.547,15.462
			c0-0.337-0.064-0.654-0.191-0.95c-0.128-0.296-0.301-0.554-0.52-0.772s-0.477-0.392-0.772-0.52
			c-0.296-0.127-0.613-0.191-0.95-0.191h-1.121c-0.337,0-0.654,0.064-0.95,0.191c-0.296,0.128-0.554,0.301-0.772,0.52
			s-0.392,0.477-0.52,0.772c-0.128,0.296-0.191,0.613-0.191,0.95v2.078h5.988V15.462z"/>
		<path fill="#0C488D" stroke="#0C488D" stroke-width="0.5" stroke-miterlimit="10" d="M288.217,22.162
			c0,0.564-0.114,1.082-0.342,1.551c-0.228,0.471-0.538,0.873-0.93,1.211c-0.392,0.337-0.846,0.6-1.36,0.785
			c-0.515,0.188-1.055,0.281-1.62,0.281h-1.121c-0.565,0-1.105-0.107-1.62-0.322c-0.515-0.213-0.966-0.508-1.354-0.881
			c-0.388-0.374-0.697-0.812-0.93-1.313c-0.232-0.502-0.349-1.035-0.349-1.6v-0.561l1.682-0.273v0.93
			c0,0.337,0.07,0.654,0.212,0.949c0.141,0.297,0.33,0.555,0.567,0.773c0.237,0.219,0.51,0.392,0.82,0.52
			c0.31,0.127,0.633,0.191,0.971,0.191h1.121c0.337,0,0.661-0.051,0.971-0.15c0.31-0.101,0.585-0.244,0.827-0.432
			c0.241-0.186,0.433-0.412,0.574-0.676c0.141-0.265,0.212-0.565,0.212-0.902c0-0.502-0.109-0.912-0.328-1.23
			c-0.219-0.319-0.508-0.586-0.868-0.801c-0.36-0.213-0.771-0.391-1.23-0.533c-0.46-0.141-0.932-0.281-1.415-0.424
			c-0.483-0.141-0.955-0.303-1.415-0.484c-0.46-0.183-0.871-0.422-1.23-0.718c-0.36-0.296-0.649-0.667-0.868-1.114
			c-0.219-0.446-0.328-1.002-0.328-1.668c0-0.565,0.109-1.082,0.328-1.552c0.219-0.469,0.515-0.873,0.889-1.21
			c0.374-0.337,0.809-0.599,1.306-0.786c0.497-0.187,1.027-0.28,1.593-0.28h0.984c0.565,0,1.098,0.107,1.6,0.321
			c0.501,0.214,0.938,0.508,1.313,0.882c0.374,0.374,0.667,0.812,0.882,1.313c0.214,0.501,0.321,1.035,0.321,1.6v0.055l-1.682,0.273
			v-0.424c0-0.337-0.064-0.654-0.191-0.95c-0.128-0.296-0.301-0.554-0.52-0.772s-0.477-0.392-0.772-0.52
			c-0.296-0.127-0.613-0.191-0.95-0.191h-0.984c-0.337,0-0.654,0.05-0.95,0.15c-0.296,0.101-0.554,0.244-0.772,0.431
			c-0.219,0.187-0.392,0.413-0.52,0.677c-0.128,0.265-0.191,0.565-0.191,0.902c0,0.483,0.109,0.877,0.328,1.183
			c0.219,0.306,0.508,0.563,0.868,0.772c0.36,0.21,0.77,0.385,1.23,0.526c0.46,0.142,0.93,0.287,1.408,0.438
			s0.948,0.321,1.408,0.513c0.46,0.191,0.87,0.438,1.23,0.738c0.36,0.301,0.649,0.676,0.868,1.127S288.217,21.496,288.217,22.162z"
			/>
		<path fill="#0C488D" stroke="#0C488D" stroke-width="0.5" stroke-miterlimit="10" d="M306.913,23.474
			c-0.214,0.501-0.508,0.938-0.882,1.313c-0.374,0.373-0.812,0.668-1.313,0.881c-0.501,0.215-1.035,0.322-1.6,0.322h-0.424
			c-0.629,0-1.212-0.129-1.75-0.383c-0.538-0.256-0.998-0.611-1.381-1.066v6.781h-1.682V11.716h0.561l0.916,1.422
			c0.383-0.52,0.863-0.932,1.442-1.237c0.579-0.305,1.21-0.458,1.894-0.458h0.424c0.565,0,1.098,0.107,1.6,0.321
			c0.501,0.214,0.938,0.508,1.313,0.882c0.374,0.374,0.667,0.812,0.882,1.313c0.214,0.501,0.321,1.035,0.321,1.6v6.317
			C307.234,22.439,307.127,22.972,306.913,23.474z M305.553,15.462c0-0.337-0.064-0.654-0.191-0.95
			c-0.128-0.296-0.301-0.554-0.52-0.772s-0.477-0.392-0.772-0.52c-0.296-0.127-0.613-0.191-0.95-0.191h-1.121
			c-0.337,0-0.654,0.064-0.95,0.191c-0.296,0.128-0.554,0.301-0.772,0.52s-0.392,0.477-0.52,0.772
			c-0.128,0.296-0.191,0.613-0.191,0.95v6.508c0,0.337,0.063,0.654,0.191,0.949c0.127,0.297,0.301,0.555,0.52,0.773
			s0.476,0.392,0.772,0.52c0.296,0.127,0.613,0.191,0.95,0.191h1.121c0.337,0,0.654-0.064,0.95-0.191
			c0.296-0.128,0.554-0.301,0.772-0.52s0.392-0.477,0.52-0.773c0.127-0.295,0.191-0.612,0.191-0.949V15.462z"/>
		<path fill="#0C488D" stroke="#0C488D" stroke-width="0.5" stroke-miterlimit="10" d="M319.389,25.716l-0.93-1.395
			c-0.383,0.501-0.861,0.904-1.436,1.209c-0.574,0.306-1.203,0.459-1.887,0.459h-0.424c-0.565,0-1.099-0.107-1.6-0.322
			c-0.501-0.213-0.939-0.508-1.313-0.881c-0.374-0.374-0.668-0.812-0.882-1.313c-0.214-0.502-0.321-1.035-0.321-1.6v-0.137
			c0-0.565,0.107-1.099,0.321-1.6c0.214-0.502,0.508-0.939,0.882-1.313c0.374-0.374,0.811-0.668,1.313-0.882
			c0.501-0.214,1.034-0.321,1.6-0.321h3.555v-2.16c0-0.337-0.064-0.654-0.191-0.95c-0.128-0.296-0.301-0.554-0.52-0.772
			s-0.477-0.392-0.772-0.52c-0.296-0.127-0.613-0.191-0.95-0.191h-0.984c-0.337,0-0.654,0.064-0.95,0.191
			c-0.296,0.128-0.554,0.301-0.772,0.52s-0.392,0.477-0.52,0.772c-0.128,0.296-0.191,0.613-0.191,0.95v0.506l-1.682-0.273v-0.137
			c0-0.565,0.107-1.098,0.321-1.6c0.214-0.501,0.508-0.938,0.882-1.313c0.374-0.374,0.811-0.667,1.313-0.882
			c0.501-0.214,1.034-0.321,1.6-0.321h0.984c0.565,0,1.098,0.107,1.6,0.321c0.501,0.214,0.938,0.508,1.313,0.882
			c0.374,0.374,0.667,0.812,0.882,1.313c0.214,0.501,0.321,1.035,0.321,1.6v10.159H319.389z M318.268,18.935h-3.555
			c-0.337,0-0.654,0.063-0.95,0.191c-0.296,0.127-0.554,0.303-0.772,0.525c-0.219,0.225-0.392,0.484-0.52,0.779
			c-0.128,0.297-0.191,0.613-0.191,0.951v0.588c0,0.337,0.063,0.654,0.191,0.949c0.127,0.297,0.301,0.555,0.52,0.773
			s0.476,0.392,0.772,0.52c0.296,0.127,0.613,0.191,0.95,0.191h1.121c0.337,0,0.654-0.064,0.95-0.191
			c0.296-0.128,0.554-0.301,0.772-0.52s0.392-0.477,0.52-0.773c0.127-0.295,0.191-0.612,0.191-0.949V18.935z"/>
		<path fill="#0C488D" stroke="#0C488D" stroke-width="0.5" stroke-miterlimit="10" d="M327.428,13.315
			c-0.337,0-0.654,0.064-0.95,0.191c-0.296,0.128-0.554,0.301-0.772,0.52s-0.392,0.477-0.52,0.772
			c-0.128,0.296-0.191,0.613-0.191,0.95v9.967h-1.682v-14h0.561l0.916,1.422c0.383-0.52,0.863-0.932,1.442-1.237
			c0.579-0.305,1.21-0.458,1.894-0.458h0.984v1.873H327.428z"/>
		<path fill="#0C488D" stroke="#0C488D" stroke-width="0.5" stroke-miterlimit="10" d="M340.143,25.716l-0.93-1.395
			c-0.383,0.501-0.861,0.904-1.436,1.209c-0.574,0.306-1.203,0.459-1.887,0.459h-0.424c-0.565,0-1.099-0.107-1.6-0.322
			c-0.501-0.213-0.939-0.508-1.313-0.881c-0.374-0.374-0.668-0.812-0.882-1.313c-0.214-0.502-0.321-1.035-0.321-1.6v-0.137
			c0-0.565,0.107-1.099,0.321-1.6c0.214-0.502,0.508-0.939,0.882-1.313c0.374-0.374,0.811-0.668,1.313-0.882
			c0.501-0.214,1.034-0.321,1.6-0.321h3.555v-2.16c0-0.337-0.063-0.654-0.191-0.95c-0.128-0.296-0.301-0.554-0.52-0.772
			s-0.477-0.392-0.772-0.52c-0.297-0.127-0.613-0.191-0.95-0.191h-0.984c-0.337,0-0.654,0.064-0.95,0.191
			c-0.296,0.128-0.554,0.301-0.772,0.52s-0.392,0.477-0.52,0.772c-0.128,0.296-0.191,0.613-0.191,0.95v0.506l-1.682-0.273v-0.137
			c0-0.565,0.107-1.098,0.321-1.6c0.214-0.501,0.508-0.938,0.882-1.313c0.374-0.374,0.811-0.667,1.313-0.882
			c0.501-0.214,1.034-0.321,1.6-0.321h0.984c0.565,0,1.099,0.107,1.6,0.321c0.501,0.214,0.938,0.508,1.313,0.882
			c0.374,0.374,0.667,0.812,0.882,1.313c0.214,0.501,0.321,1.035,0.321,1.6v10.159H340.143z M339.021,18.935h-3.555
			c-0.337,0-0.654,0.063-0.95,0.191c-0.296,0.127-0.554,0.303-0.772,0.525c-0.219,0.225-0.392,0.484-0.52,0.779
			c-0.128,0.297-0.191,0.613-0.191,0.951v0.588c0,0.337,0.063,0.654,0.191,0.949c0.127,0.297,0.301,0.555,0.52,0.773
			s0.476,0.392,0.772,0.52c0.296,0.127,0.613,0.191,0.95,0.191h1.121c0.337,0,0.653-0.064,0.95-0.191
			c0.296-0.128,0.554-0.301,0.772-0.52s0.392-0.477,0.52-0.773c0.128-0.295,0.191-0.612,0.191-0.949V18.935z"/>
		<path fill="#0C488D" stroke="#0C488D" stroke-width="0.5" stroke-miterlimit="10" d="M359.536,23.474
			c-0.215,0.501-0.508,0.938-0.882,1.313c-0.374,0.373-0.812,0.668-1.313,0.881c-0.501,0.215-1.034,0.322-1.6,0.322h-1.121
			c-0.565,0-1.099-0.107-1.6-0.322c-0.501-0.213-0.938-0.508-1.313-0.881c-0.374-0.374-0.668-0.812-0.882-1.313
			c-0.215-0.502-0.321-1.035-0.321-1.6v-6.317c0-0.565,0.106-1.098,0.321-1.6c0.214-0.501,0.508-0.938,0.882-1.313
			c0.374-0.374,0.812-0.667,1.313-0.882c0.501-0.214,1.034-0.321,1.6-0.321h1.121c0.565,0,1.099,0.107,1.6,0.321
			c0.501,0.214,0.938,0.508,1.313,0.882c0.374,0.374,0.667,0.812,0.882,1.313c0.214,0.501,0.321,1.035,0.321,1.6v3.295h-7.67v3.117
			c0,0.337,0.063,0.654,0.191,0.949c0.128,0.297,0.301,0.555,0.52,0.773s0.476,0.392,0.772,0.52c0.296,0.127,0.613,0.191,0.95,0.191
			h1.121c0.337,0,0.653-0.064,0.95-0.191c0.296-0.128,0.554-0.301,0.772-0.52s0.392-0.477,0.52-0.773
			c0.128-0.295,0.191-0.612,0.191-0.949v-0.93l1.682,0.273v0.561C359.857,22.439,359.75,22.972,359.536,23.474z M358.176,15.462
			c0-0.337-0.063-0.654-0.191-0.95c-0.128-0.296-0.301-0.554-0.52-0.772s-0.477-0.392-0.772-0.52
			c-0.297-0.127-0.613-0.191-0.95-0.191h-1.121c-0.337,0-0.654,0.064-0.95,0.191c-0.297,0.128-0.554,0.301-0.772,0.52
			s-0.392,0.477-0.52,0.772c-0.128,0.296-0.191,0.613-0.191,0.95v2.078h5.988V15.462z"/>
		<path fill="#0C488D" stroke="#0C488D" stroke-width="0.5" stroke-miterlimit="10" d="M363.781,25.716V6.11h1.682v19.606H363.781z"
			/>
		<path fill="#0C488D" stroke="#0C488D" stroke-width="0.5" stroke-miterlimit="10" d="M384.617,25.716l-0.93-1.422
			c-0.383,0.52-0.861,0.932-1.436,1.236c-0.574,0.306-1.203,0.459-1.887,0.459h-0.424c-0.565,0-1.099-0.107-1.6-0.322
			c-0.501-0.213-0.938-0.508-1.313-0.881c-0.374-0.374-0.668-0.812-0.882-1.313c-0.215-0.502-0.321-1.035-0.321-1.6v-6.317
			c0-0.565,0.106-1.098,0.321-1.6c0.214-0.501,0.508-0.938,0.882-1.313c0.374-0.374,0.812-0.667,1.313-0.882
			c0.501-0.214,1.034-0.321,1.6-0.321h0.424c0.629,0,1.212,0.128,1.75,0.383c0.538,0.255,0.998,0.611,1.381,1.066V6.11h1.682v19.606
			H384.617z M383.496,15.462c0-0.337-0.063-0.654-0.191-0.95c-0.128-0.296-0.301-0.554-0.52-0.772s-0.477-0.392-0.772-0.52
			c-0.297-0.127-0.613-0.191-0.95-0.191h-1.121c-0.337,0-0.654,0.064-0.95,0.191c-0.297,0.128-0.554,0.301-0.772,0.52
			s-0.392,0.477-0.52,0.772c-0.128,0.296-0.191,0.613-0.191,0.95v6.508c0,0.337,0.063,0.654,0.191,0.949
			c0.128,0.297,0.301,0.555,0.52,0.773s0.476,0.392,0.772,0.52c0.296,0.127,0.613,0.191,0.95,0.191h1.121
			c0.337,0,0.653-0.064,0.95-0.191c0.296-0.128,0.554-0.301,0.772-0.52s0.392-0.477,0.52-0.773c0.128-0.295,0.191-0.612,0.191-0.949
			V15.462z"/>
		<path fill="#0C488D" stroke="#0C488D" stroke-width="0.5" stroke-miterlimit="10" d="M397.571,23.474
			c-0.214,0.501-0.508,0.938-0.882,1.313c-0.374,0.373-0.812,0.668-1.313,0.881c-0.501,0.215-1.034,0.322-1.6,0.322h-1.121
			c-0.565,0-1.099-0.107-1.6-0.322c-0.501-0.213-0.938-0.508-1.313-0.881c-0.374-0.374-0.668-0.812-0.882-1.313
			c-0.215-0.502-0.321-1.035-0.321-1.6v-6.317c0-0.565,0.106-1.098,0.321-1.6c0.214-0.501,0.508-0.938,0.882-1.313
			c0.374-0.374,0.812-0.667,1.313-0.882c0.501-0.214,1.034-0.321,1.6-0.321h1.121c0.565,0,1.099,0.107,1.6,0.321
			c0.501,0.214,0.938,0.508,1.313,0.882c0.374,0.374,0.668,0.812,0.882,1.313c0.214,0.501,0.321,1.035,0.321,1.6v3.295h-7.67v3.117
			c0,0.337,0.063,0.654,0.191,0.949c0.128,0.297,0.301,0.555,0.52,0.773s0.477,0.392,0.772,0.52c0.296,0.127,0.613,0.191,0.95,0.191
			h1.121c0.337,0,0.654-0.064,0.95-0.191c0.296-0.128,0.554-0.301,0.772-0.52s0.392-0.477,0.52-0.773
			c0.128-0.295,0.191-0.612,0.191-0.949v-0.93l1.682,0.273v0.561C397.893,22.439,397.785,22.972,397.571,23.474z M396.211,15.462
			c0-0.337-0.063-0.654-0.191-0.95c-0.128-0.296-0.301-0.554-0.52-0.772s-0.477-0.392-0.772-0.52
			c-0.296-0.127-0.613-0.191-0.95-0.191h-1.121c-0.337,0-0.654,0.064-0.95,0.191c-0.296,0.128-0.554,0.301-0.772,0.52
			s-0.392,0.477-0.52,0.772c-0.128,0.296-0.191,0.613-0.191,0.95v2.078h5.988V15.462z"/>
		<path fill="#0C488D" stroke="#0C488D" stroke-width="0.5" stroke-miterlimit="10" d="M410.881,22.162
			c0,0.564-0.114,1.082-0.342,1.551c-0.228,0.471-0.538,0.873-0.93,1.211c-0.392,0.337-0.846,0.6-1.36,0.785
			c-0.515,0.188-1.055,0.281-1.62,0.281h-1.121c-0.565,0-1.105-0.107-1.62-0.322c-0.515-0.213-0.966-0.508-1.354-0.881
			c-0.388-0.374-0.697-0.812-0.93-1.313c-0.232-0.502-0.349-1.035-0.349-1.6v-0.561l1.682-0.273v0.93
			c0,0.337,0.07,0.654,0.212,0.949c0.142,0.297,0.33,0.555,0.567,0.773s0.511,0.392,0.82,0.52c0.31,0.127,0.634,0.191,0.971,0.191
			h1.121c0.337,0,0.661-0.051,0.971-0.15c0.31-0.101,0.586-0.244,0.827-0.432c0.241-0.186,0.433-0.412,0.574-0.676
			c0.142-0.265,0.212-0.565,0.212-0.902c0-0.502-0.109-0.912-0.328-1.23c-0.219-0.319-0.508-0.586-0.868-0.801
			c-0.36-0.213-0.771-0.391-1.23-0.533c-0.46-0.141-0.932-0.281-1.415-0.424c-0.483-0.141-0.955-0.303-1.415-0.484
			c-0.46-0.183-0.87-0.422-1.23-0.718c-0.36-0.296-0.649-0.667-0.868-1.114c-0.219-0.446-0.328-1.002-0.328-1.668
			c0-0.565,0.109-1.082,0.328-1.552c0.219-0.469,0.515-0.873,0.889-1.21c0.374-0.337,0.809-0.599,1.306-0.786
			c0.497-0.187,1.027-0.28,1.593-0.28h0.984c0.565,0,1.099,0.107,1.6,0.321c0.501,0.214,0.938,0.508,1.313,0.882
			c0.374,0.374,0.668,0.812,0.882,1.313c0.214,0.501,0.321,1.035,0.321,1.6v0.055l-1.682,0.273v-0.424
			c0-0.337-0.063-0.654-0.191-0.95c-0.128-0.296-0.301-0.554-0.52-0.772s-0.477-0.392-0.772-0.52
			c-0.296-0.127-0.613-0.191-0.95-0.191h-0.984c-0.337,0-0.654,0.05-0.95,0.15c-0.296,0.101-0.554,0.244-0.772,0.431
			c-0.219,0.187-0.392,0.413-0.52,0.677c-0.128,0.265-0.191,0.565-0.191,0.902c0,0.483,0.109,0.877,0.328,1.183
			c0.219,0.306,0.508,0.563,0.868,0.772c0.36,0.21,0.771,0.385,1.23,0.526c0.46,0.142,0.93,0.287,1.408,0.438
			s0.948,0.321,1.408,0.513c0.46,0.191,0.87,0.438,1.23,0.738s0.649,0.676,0.868,1.127S410.881,21.496,410.881,22.162z"/>
		<path fill="#0C488D" stroke="#0C488D" stroke-width="0.5" stroke-miterlimit="10" d="M422.898,25.716l-0.93-1.395
			c-0.383,0.501-0.861,0.904-1.436,1.209c-0.574,0.306-1.203,0.459-1.887,0.459h-0.424c-0.565,0-1.099-0.107-1.6-0.322
			c-0.501-0.213-0.938-0.508-1.313-0.881c-0.374-0.374-0.668-0.812-0.882-1.313c-0.214-0.502-0.321-1.035-0.321-1.6v-0.137
			c0-0.565,0.107-1.099,0.321-1.6c0.214-0.502,0.508-0.939,0.882-1.313c0.374-0.374,0.812-0.668,1.313-0.882
			c0.501-0.214,1.034-0.321,1.6-0.321h3.555v-2.16c0-0.337-0.063-0.654-0.191-0.95c-0.128-0.296-0.301-0.554-0.52-0.772
			s-0.477-0.392-0.772-0.52c-0.296-0.127-0.613-0.191-0.95-0.191h-0.984c-0.337,0-0.654,0.064-0.95,0.191
			c-0.296,0.128-0.554,0.301-0.772,0.52s-0.392,0.477-0.52,0.772c-0.128,0.296-0.191,0.613-0.191,0.95v0.506l-1.682-0.273v-0.137
			c0-0.565,0.107-1.098,0.321-1.6c0.214-0.501,0.508-0.938,0.882-1.313c0.374-0.374,0.812-0.667,1.313-0.882
			c0.501-0.214,1.034-0.321,1.6-0.321h0.984c0.565,0,1.099,0.107,1.6,0.321c0.501,0.214,0.938,0.508,1.313,0.882
			c0.374,0.374,0.668,0.812,0.882,1.313c0.214,0.501,0.321,1.035,0.321,1.6v10.159H422.898z M421.777,18.935h-3.555
			c-0.337,0-0.654,0.063-0.95,0.191c-0.296,0.127-0.554,0.303-0.772,0.525c-0.219,0.225-0.392,0.484-0.52,0.779
			c-0.128,0.297-0.191,0.613-0.191,0.951v0.588c0,0.337,0.063,0.654,0.191,0.949c0.128,0.297,0.301,0.555,0.52,0.773
			s0.477,0.392,0.772,0.52c0.296,0.127,0.613,0.191,0.95,0.191h1.121c0.337,0,0.654-0.064,0.95-0.191
			c0.296-0.128,0.554-0.301,0.772-0.52s0.392-0.477,0.52-0.773c0.128-0.295,0.191-0.612,0.191-0.949V18.935z"/>
		<path fill="#0C488D" stroke="#0C488D" stroke-width="0.5" stroke-miterlimit="10" d="M430.938,13.315
			c-0.337,0-0.654,0.064-0.95,0.191c-0.296,0.128-0.554,0.301-0.772,0.52s-0.392,0.477-0.52,0.772
			c-0.128,0.296-0.191,0.613-0.191,0.95v9.967h-1.682v-14h0.561l0.916,1.422c0.383-0.52,0.863-0.932,1.442-1.237
			c0.579-0.305,1.21-0.458,1.894-0.458h0.984v1.873H430.938z"/>
		<path fill="#0C488D" stroke="#0C488D" stroke-width="0.5" stroke-miterlimit="10" d="M438.977,13.315
			c-0.337,0-0.654,0.064-0.95,0.191c-0.296,0.128-0.554,0.301-0.772,0.52s-0.392,0.477-0.52,0.772
			c-0.128,0.296-0.191,0.613-0.191,0.95v9.967h-1.682v-14h0.561l0.916,1.422c0.383-0.52,0.863-0.932,1.442-1.237
			c0.579-0.305,1.21-0.458,1.894-0.458h0.984v1.873H438.977z"/>
		<path fill="#0C488D" stroke="#0C488D" stroke-width="0.5" stroke-miterlimit="10" d="M451.931,23.474
			c-0.214,0.501-0.508,0.938-0.882,1.313c-0.374,0.373-0.812,0.668-1.313,0.881c-0.501,0.215-1.034,0.322-1.6,0.322h-1.121
			c-0.565,0-1.099-0.107-1.6-0.322c-0.501-0.213-0.938-0.508-1.313-0.881c-0.374-0.374-0.668-0.812-0.882-1.313
			c-0.214-0.502-0.321-1.035-0.321-1.6v-6.317c0-0.565,0.107-1.098,0.321-1.6c0.214-0.501,0.508-0.938,0.882-1.313
			c0.374-0.374,0.812-0.667,1.313-0.882c0.501-0.214,1.034-0.321,1.6-0.321h1.121c0.565,0,1.099,0.107,1.6,0.321
			c0.501,0.214,0.938,0.508,1.313,0.882c0.374,0.374,0.668,0.812,0.882,1.313c0.214,0.501,0.321,1.035,0.321,1.6v6.317
			C452.252,22.439,452.145,22.972,451.931,23.474z M450.57,15.462c0-0.337-0.063-0.654-0.191-0.95
			c-0.128-0.296-0.301-0.554-0.52-0.772s-0.477-0.392-0.772-0.52c-0.296-0.127-0.613-0.191-0.95-0.191h-1.121
			c-0.337,0-0.654,0.064-0.95,0.191c-0.296,0.128-0.554,0.301-0.772,0.52s-0.392,0.477-0.52,0.772
			c-0.128,0.296-0.191,0.613-0.191,0.95v6.508c0,0.337,0.063,0.654,0.191,0.949c0.128,0.297,0.301,0.555,0.52,0.773
			s0.477,0.392,0.772,0.52c0.296,0.127,0.613,0.191,0.95,0.191h1.121c0.337,0,0.654-0.064,0.95-0.191
			c0.296-0.128,0.554-0.301,0.772-0.52s0.392-0.477,0.52-0.773c0.128-0.295,0.191-0.612,0.191-0.949V15.462z"/>
		<path fill="#0C488D" stroke="#0C488D" stroke-width="0.5" stroke-miterlimit="10" d="M456.176,25.716V6.11h1.682v19.606H456.176z"
			/>
		<path fill="#0C488D" stroke="#0C488D" stroke-width="0.5" stroke-miterlimit="10" d="M462.342,25.716V6.11h1.682v19.606H462.342z"
			/>
		<path fill="#0C488D" stroke="#0C488D" stroke-width="0.5" stroke-miterlimit="10" d="M476.978,23.474
			c-0.214,0.501-0.508,0.938-0.882,1.313c-0.374,0.373-0.812,0.668-1.313,0.881c-0.501,0.215-1.034,0.322-1.6,0.322h-1.121
			c-0.565,0-1.099-0.107-1.6-0.322c-0.501-0.213-0.938-0.508-1.313-0.881c-0.374-0.374-0.668-0.812-0.882-1.313
			c-0.214-0.502-0.321-1.035-0.321-1.6v-6.317c0-0.565,0.107-1.098,0.321-1.6c0.214-0.501,0.508-0.938,0.882-1.313
			c0.374-0.374,0.812-0.667,1.313-0.882c0.501-0.214,1.034-0.321,1.6-0.321h1.121c0.565,0,1.099,0.107,1.6,0.321
			c0.501,0.214,0.938,0.508,1.313,0.882c0.374,0.374,0.668,0.812,0.882,1.313c0.214,0.501,0.321,1.035,0.321,1.6v6.317
			C477.299,22.439,477.191,22.972,476.978,23.474z M475.617,15.462c0-0.337-0.063-0.654-0.191-0.95
			c-0.128-0.296-0.301-0.554-0.52-0.772s-0.477-0.392-0.772-0.52c-0.296-0.127-0.613-0.191-0.95-0.191h-1.121
			c-0.337,0-0.654,0.064-0.95,0.191c-0.296,0.128-0.554,0.301-0.772,0.52s-0.392,0.477-0.52,0.772
			c-0.128,0.296-0.191,0.613-0.191,0.95v6.508c0,0.337,0.063,0.654,0.191,0.949c0.128,0.297,0.301,0.555,0.52,0.773
			s0.477,0.392,0.772,0.52c0.296,0.127,0.613,0.191,0.95,0.191h1.121c0.337,0,0.654-0.064,0.95-0.191
			c0.296-0.128,0.554-0.301,0.772-0.52s0.392-0.477,0.52-0.773c0.128-0.295,0.191-0.612,0.191-0.949V15.462z"/>
		<path fill="#0C488D" stroke="#0C488D" stroke-width="0.5" stroke-miterlimit="10" d="M495.893,25.716l-0.93-1.422
			c-0.383,0.52-0.861,0.932-1.436,1.236c-0.574,0.306-1.203,0.459-1.887,0.459h-0.424c-0.565,0-1.099-0.107-1.6-0.322
			c-0.501-0.213-0.938-0.508-1.313-0.881c-0.374-0.374-0.668-0.812-0.882-1.313c-0.214-0.502-0.321-1.035-0.321-1.6v-6.317
			c0-0.565,0.107-1.098,0.321-1.6c0.214-0.501,0.508-0.938,0.882-1.313c0.374-0.374,0.812-0.667,1.313-0.882
			c0.501-0.214,1.034-0.321,1.6-0.321h0.424c0.629,0,1.212,0.128,1.75,0.383c0.538,0.255,0.998,0.611,1.381,1.066V6.11h1.682v19.606
			H495.893z M494.771,15.462c0-0.337-0.063-0.654-0.191-0.95c-0.128-0.296-0.301-0.554-0.52-0.772s-0.477-0.392-0.772-0.52
			c-0.296-0.127-0.613-0.191-0.95-0.191h-1.121c-0.337,0-0.654,0.064-0.95,0.191c-0.296,0.128-0.554,0.301-0.772,0.52
			s-0.392,0.477-0.52,0.772c-0.128,0.296-0.191,0.613-0.191,0.95v6.508c0,0.337,0.063,0.654,0.191,0.949
			c0.128,0.297,0.301,0.555,0.52,0.773s0.477,0.392,0.772,0.52c0.296,0.127,0.613,0.191,0.95,0.191h1.121
			c0.337,0,0.654-0.064,0.95-0.191c0.296-0.128,0.554-0.301,0.772-0.52s0.392-0.477,0.52-0.773c0.128-0.295,0.191-0.612,0.191-0.949
			V15.462z"/>
		<path fill="#0C488D" stroke="#0C488D" stroke-width="0.5" stroke-miterlimit="10" d="M508.847,23.474
			c-0.214,0.501-0.508,0.938-0.882,1.313c-0.374,0.373-0.812,0.668-1.313,0.881c-0.501,0.215-1.034,0.322-1.6,0.322h-1.121
			c-0.565,0-1.099-0.107-1.6-0.322c-0.501-0.213-0.938-0.508-1.313-0.881c-0.374-0.374-0.668-0.812-0.882-1.313
			c-0.214-0.502-0.321-1.035-0.321-1.6v-6.317c0-0.565,0.107-1.098,0.321-1.6c0.214-0.501,0.508-0.938,0.882-1.313
			c0.374-0.374,0.812-0.667,1.313-0.882c0.501-0.214,1.034-0.321,1.6-0.321h1.121c0.565,0,1.099,0.107,1.6,0.321
			c0.501,0.214,0.938,0.508,1.313,0.882c0.374,0.374,0.668,0.812,0.882,1.313c0.214,0.501,0.321,1.035,0.321,1.6v3.295h-7.67v3.117
			c0,0.337,0.063,0.654,0.191,0.949c0.128,0.297,0.301,0.555,0.52,0.773s0.477,0.392,0.772,0.52c0.296,0.127,0.613,0.191,0.95,0.191
			h1.121c0.337,0,0.654-0.064,0.95-0.191c0.296-0.128,0.554-0.301,0.772-0.52s0.392-0.477,0.52-0.773
			c0.128-0.295,0.191-0.612,0.191-0.949v-0.93l1.682,0.273v0.561C509.168,22.439,509.061,22.972,508.847,23.474z M507.486,15.462
			c0-0.337-0.063-0.654-0.191-0.95c-0.128-0.296-0.301-0.554-0.52-0.772s-0.477-0.392-0.772-0.52
			c-0.296-0.127-0.613-0.191-0.95-0.191h-1.121c-0.337,0-0.654,0.064-0.95,0.191c-0.296,0.128-0.554,0.301-0.772,0.52
			s-0.392,0.477-0.52,0.772c-0.128,0.296-0.191,0.613-0.191,0.95v2.078h5.988V15.462z"/>
		<path fill="#0C488D" stroke="#0C488D" stroke-width="0.5" stroke-miterlimit="10" d="M513.092,25.716V6.11h1.682v19.606H513.092z"
			/>
		<path fill="#0C488D" stroke="#0C488D" stroke-width="0.5" stroke-miterlimit="10" d="M534.167,23.474
			c-0.214,0.501-0.508,0.938-0.882,1.313c-0.374,0.373-0.812,0.668-1.313,0.881c-0.501,0.215-1.034,0.322-1.6,0.322h-0.424
			c-0.629,0-1.212-0.129-1.75-0.383c-0.538-0.256-0.998-0.611-1.381-1.066v6.781h-1.682V11.716h0.561l0.916,1.422
			c0.383-0.52,0.863-0.932,1.442-1.237c0.579-0.305,1.21-0.458,1.894-0.458h0.424c0.565,0,1.099,0.107,1.6,0.321
			c0.501,0.214,0.938,0.508,1.313,0.882c0.374,0.374,0.668,0.812,0.882,1.313c0.214,0.501,0.321,1.035,0.321,1.6v6.317
			C534.488,22.439,534.381,22.972,534.167,23.474z M532.807,15.462c0-0.337-0.063-0.654-0.191-0.95
			c-0.128-0.296-0.301-0.554-0.52-0.772s-0.477-0.392-0.772-0.52c-0.296-0.127-0.613-0.191-0.95-0.191h-1.121
			c-0.337,0-0.654,0.064-0.95,0.191c-0.296,0.128-0.554,0.301-0.772,0.52s-0.392,0.477-0.52,0.772
			c-0.128,0.296-0.191,0.613-0.191,0.95v6.508c0,0.337,0.063,0.654,0.191,0.949c0.128,0.297,0.301,0.555,0.52,0.773
			s0.477,0.392,0.772,0.52c0.296,0.127,0.613,0.191,0.95,0.191h1.121c0.337,0,0.654-0.064,0.95-0.191
			c0.296-0.128,0.554-0.301,0.772-0.52s0.392-0.477,0.52-0.773c0.128-0.295,0.191-0.612,0.191-0.949V15.462z"/>
		<path fill="#0C488D" stroke="#0C488D" stroke-width="0.5" stroke-miterlimit="10" d="M541.967,13.315
			c-0.337,0-0.654,0.064-0.95,0.191c-0.296,0.128-0.554,0.301-0.772,0.52s-0.392,0.477-0.52,0.772
			c-0.128,0.296-0.191,0.613-0.191,0.95v9.967h-1.682v-14h0.561l0.916,1.422c0.383-0.52,0.863-0.932,1.442-1.237
			c0.579-0.305,1.21-0.458,1.894-0.458h0.984v1.873H541.967z"/>
		<path fill="#0C488D" stroke="#0C488D" stroke-width="0.5" stroke-miterlimit="10" d="M554.921,23.474
			c-0.214,0.501-0.508,0.938-0.882,1.313c-0.374,0.373-0.812,0.668-1.313,0.881c-0.501,0.215-1.034,0.322-1.6,0.322h-1.121
			c-0.565,0-1.099-0.107-1.6-0.322c-0.501-0.213-0.938-0.508-1.313-0.881c-0.374-0.374-0.668-0.812-0.882-1.313
			c-0.214-0.502-0.321-1.035-0.321-1.6v-6.317c0-0.565,0.107-1.098,0.321-1.6c0.214-0.501,0.508-0.938,0.882-1.313
			c0.374-0.374,0.812-0.667,1.313-0.882c0.501-0.214,1.034-0.321,1.6-0.321h1.121c0.565,0,1.099,0.107,1.6,0.321
			c0.501,0.214,0.938,0.508,1.313,0.882c0.374,0.374,0.668,0.812,0.882,1.313c0.214,0.501,0.321,1.035,0.321,1.6v6.317
			C555.242,22.439,555.135,22.972,554.921,23.474z M553.561,15.462c0-0.337-0.063-0.654-0.191-0.95
			c-0.128-0.296-0.301-0.554-0.52-0.772s-0.477-0.392-0.772-0.52c-0.296-0.127-0.613-0.191-0.95-0.191h-1.121
			c-0.337,0-0.654,0.064-0.95,0.191c-0.296,0.128-0.554,0.301-0.772,0.52s-0.392,0.477-0.52,0.772
			c-0.128,0.296-0.191,0.613-0.191,0.95v6.508c0,0.337,0.063,0.654,0.191,0.949c0.128,0.297,0.301,0.555,0.52,0.773
			s0.477,0.392,0.772,0.52c0.296,0.127,0.613,0.191,0.95,0.191h1.121c0.337,0,0.654-0.064,0.95-0.191
			c0.296-0.128,0.554-0.301,0.772-0.52s0.392-0.477,0.52-0.773c0.128-0.295,0.191-0.612,0.191-0.949V15.462z"/>
		<path fill="#0C488D" stroke="#0C488D" stroke-width="0.5" stroke-miterlimit="10" d="M567.772,29.039
			c-0.214,0.473-0.508,0.879-0.882,1.217c-0.374,0.336-0.812,0.599-1.313,0.785c-0.501,0.188-1.034,0.281-1.6,0.281h-0.697
			c-0.565,0-1.099-0.094-1.6-0.281c-0.501-0.187-0.938-0.449-1.313-0.785c-0.374-0.338-0.668-0.744-0.882-1.217
			c-0.214-0.475-0.321-0.994-0.321-1.559v-0.055c0-0.547,0.101-1.049,0.301-1.504c0.2-0.456,0.474-0.853,0.82-1.189
			c-0.438-0.265-0.786-0.623-1.046-1.074s-0.39-0.949-0.39-1.496c0-0.492,0.104-0.951,0.314-1.375s0.497-0.768,0.861-1.031
			c-0.438-0.383-0.784-0.844-1.039-1.381s-0.383-1.125-0.383-1.764v-1.053c0-0.565,0.107-1.098,0.321-1.6
			c0.214-0.501,0.508-0.938,0.882-1.313c0.374-0.374,0.812-0.667,1.313-0.882c0.501-0.214,1.034-0.321,1.6-0.321h0.697
			c0.684,0,1.314,0.153,1.894,0.458c0.579,0.306,1.06,0.718,1.442,1.237l0.916-1.422h0.561v4.895c0,0.565-0.107,1.099-0.321,1.6
			c-0.214,0.501-0.508,0.939-0.882,1.313c-0.374,0.373-0.812,0.668-1.313,0.881c-0.501,0.215-1.034,0.322-1.6,0.322h-2.434
			c-0.191,0-0.374,0.039-0.547,0.115c-0.173,0.078-0.326,0.181-0.458,0.309c-0.132,0.127-0.234,0.279-0.308,0.457
			s-0.109,0.363-0.109,0.555s0.036,0.373,0.109,0.547c0.073,0.173,0.176,0.326,0.308,0.457c0.132,0.133,0.285,0.235,0.458,0.309
			c0.173,0.072,0.355,0.109,0.547,0.109h2.297c0.565,0,1.099,0.094,1.6,0.279c0.501,0.188,0.938,0.449,1.313,0.787
			c0.374,0.337,0.668,0.742,0.882,1.217c0.214,0.473,0.321,0.992,0.321,1.559v0.055C568.094,28.044,567.986,28.564,567.772,29.039z
			 M566.563,15.462c0-0.337-0.063-0.654-0.191-0.95c-0.128-0.296-0.303-0.554-0.526-0.772s-0.483-0.392-0.779-0.52
			c-0.296-0.127-0.613-0.191-0.95-0.191h-1.395c-0.337,0-0.654,0.064-0.95,0.191c-0.296,0.128-0.554,0.301-0.772,0.52
			s-0.392,0.477-0.52,0.772c-0.128,0.296-0.191,0.613-0.191,0.95v1.244c0,0.337,0.063,0.654,0.191,0.95
			c0.128,0.296,0.301,0.554,0.52,0.772c0.219,0.219,0.477,0.392,0.772,0.52c0.296,0.127,0.613,0.191,0.95,0.191h1.395
			c0.337,0,0.654-0.064,0.95-0.191c0.296-0.128,0.556-0.301,0.779-0.52c0.224-0.219,0.398-0.476,0.526-0.772
			c0.128-0.296,0.191-0.613,0.191-0.95V15.462z M566.494,27.343c0-0.338-0.063-0.641-0.191-0.91
			c-0.128-0.269-0.301-0.494-0.52-0.676c-0.219-0.183-0.477-0.324-0.772-0.424c-0.296-0.101-0.613-0.15-0.95-0.15h-0.861
			c-0.337,0-0.654,0.05-0.95,0.15c-0.296,0.1-0.554,0.241-0.772,0.424c-0.219,0.182-0.392,0.407-0.52,0.676
			c-0.128,0.27-0.191,0.572-0.191,0.91v0.219c0,0.336,0.063,0.637,0.191,0.902c0.128,0.264,0.301,0.489,0.52,0.676
			c0.219,0.188,0.477,0.33,0.772,0.432c0.296,0.1,0.613,0.15,0.95,0.15h0.861c0.337,0,0.654-0.051,0.95-0.15
			c0.296-0.102,0.554-0.244,0.772-0.432c0.219-0.187,0.392-0.412,0.52-0.676c0.128-0.266,0.191-0.566,0.191-0.902V27.343z"/>
		<path fill="#0C488D" stroke="#0C488D" stroke-width="0.5" stroke-miterlimit="10" d="M575.436,13.315
			c-0.337,0-0.654,0.064-0.95,0.191c-0.296,0.128-0.554,0.301-0.772,0.52s-0.392,0.477-0.52,0.772
			c-0.128,0.296-0.191,0.613-0.191,0.95v9.967h-1.682v-14h0.561l0.916,1.422c0.383-0.52,0.863-0.932,1.442-1.237
			c0.579-0.305,1.21-0.458,1.894-0.458h0.984v1.873H575.436z"/>
		<path fill="#0C488D" stroke="#0C488D" stroke-width="0.5" stroke-miterlimit="10" d="M588.15,25.716l-0.93-1.395
			c-0.383,0.501-0.861,0.904-1.436,1.209c-0.574,0.306-1.203,0.459-1.887,0.459h-0.424c-0.565,0-1.099-0.107-1.6-0.322
			c-0.501-0.213-0.938-0.508-1.313-0.881c-0.374-0.374-0.668-0.812-0.882-1.313c-0.214-0.502-0.321-1.035-0.321-1.6v-0.137
			c0-0.565,0.107-1.099,0.321-1.6c0.214-0.502,0.508-0.939,0.882-1.313c0.374-0.374,0.812-0.668,1.313-0.882
			c0.501-0.214,1.034-0.321,1.6-0.321h3.555v-2.16c0-0.337-0.063-0.654-0.191-0.95c-0.128-0.296-0.301-0.554-0.52-0.772
			s-0.477-0.392-0.772-0.52c-0.296-0.127-0.613-0.191-0.95-0.191h-0.984c-0.337,0-0.654,0.064-0.95,0.191
			c-0.296,0.128-0.554,0.301-0.772,0.52s-0.392,0.477-0.52,0.772c-0.128,0.296-0.191,0.613-0.191,0.95v0.506l-1.682-0.273v-0.137
			c0-0.565,0.107-1.098,0.321-1.6c0.214-0.501,0.508-0.938,0.882-1.313c0.374-0.374,0.812-0.667,1.313-0.882
			c0.501-0.214,1.034-0.321,1.6-0.321h0.984c0.565,0,1.099,0.107,1.6,0.321c0.501,0.214,0.938,0.508,1.313,0.882
			c0.374,0.374,0.668,0.812,0.882,1.313c0.214,0.501,0.321,1.035,0.321,1.6v10.159H588.15z M587.029,18.935h-3.555
			c-0.337,0-0.654,0.063-0.95,0.191c-0.296,0.127-0.554,0.303-0.772,0.525c-0.219,0.225-0.392,0.484-0.52,0.779
			c-0.128,0.297-0.191,0.613-0.191,0.951v0.588c0,0.337,0.063,0.654,0.191,0.949c0.128,0.297,0.301,0.555,0.52,0.773
			s0.477,0.392,0.772,0.52c0.296,0.127,0.613,0.191,0.95,0.191h1.121c0.337,0,0.654-0.064,0.95-0.191
			c0.296-0.128,0.554-0.301,0.772-0.52s0.392-0.477,0.52-0.773c0.128-0.295,0.191-0.612,0.191-0.949V18.935z"/>
		<path fill="#0C488D" stroke="#0C488D" stroke-width="0.5" stroke-miterlimit="10" d="M606.854,25.716V15.462
			c0-0.337-0.063-0.654-0.191-0.95c-0.128-0.296-0.301-0.554-0.52-0.772s-0.477-0.392-0.772-0.52
			c-0.296-0.127-0.613-0.191-0.95-0.191h-0.834c-0.337,0-0.654,0.064-0.95,0.191c-0.296,0.128-0.556,0.301-0.779,0.52
			s-0.398,0.477-0.526,0.772c-0.128,0.296-0.191,0.613-0.191,0.95v10.254h-1.668V15.462c0-0.337-0.063-0.654-0.191-0.95
			c-0.128-0.296-0.303-0.554-0.526-0.772s-0.483-0.392-0.779-0.52c-0.296-0.127-0.613-0.191-0.95-0.191h-0.834
			c-0.337,0-0.654,0.064-0.95,0.191c-0.296,0.128-0.554,0.301-0.772,0.52s-0.392,0.477-0.52,0.772
			c-0.128,0.296-0.191,0.613-0.191,0.95v10.254h-1.682v-14h0.561l0.916,1.422c0.383-0.52,0.863-0.932,1.442-1.237
			c0.579-0.305,1.21-0.458,1.894-0.458h0.137c0.793,0,1.509,0.196,2.146,0.588c0.638,0.392,1.13,0.912,1.477,1.559
			c0.173-0.319,0.388-0.61,0.643-0.875c0.255-0.264,0.538-0.49,0.848-0.677c0.31-0.187,0.647-0.333,1.012-0.438
			c0.364-0.104,0.743-0.157,1.135-0.157h0.137c0.565,0,1.099,0.107,1.6,0.321c0.501,0.214,0.938,0.508,1.313,0.882
			c0.374,0.374,0.668,0.812,0.882,1.313c0.214,0.501,0.321,1.035,0.321,1.6v10.159H606.854z"/>
		<path fill="#0C488D" stroke="#0C488D" stroke-width="0.5" stroke-miterlimit="10" d="M620.689,25.716l-0.93-1.395
			c-0.383,0.501-0.861,0.904-1.436,1.209c-0.574,0.306-1.203,0.459-1.887,0.459h-0.424c-0.565,0-1.099-0.107-1.6-0.322
			c-0.501-0.213-0.938-0.508-1.313-0.881c-0.374-0.374-0.668-0.812-0.882-1.313c-0.214-0.502-0.321-1.035-0.321-1.6v-0.137
			c0-0.565,0.107-1.099,0.321-1.6c0.214-0.502,0.508-0.939,0.882-1.313c0.374-0.374,0.812-0.668,1.313-0.882
			c0.501-0.214,1.034-0.321,1.6-0.321h3.555v-2.16c0-0.337-0.063-0.654-0.191-0.95c-0.128-0.296-0.301-0.554-0.52-0.772
			s-0.477-0.392-0.772-0.52c-0.296-0.127-0.613-0.191-0.95-0.191h-0.984c-0.337,0-0.654,0.064-0.95,0.191
			c-0.296,0.128-0.554,0.301-0.772,0.52s-0.392,0.477-0.52,0.772c-0.128,0.296-0.191,0.613-0.191,0.95v0.506l-1.682-0.273v-0.137
			c0-0.565,0.107-1.098,0.321-1.6c0.214-0.501,0.508-0.938,0.882-1.313c0.374-0.374,0.812-0.667,1.313-0.882
			c0.501-0.214,1.034-0.321,1.6-0.321h0.984c0.565,0,1.099,0.107,1.6,0.321c0.501,0.214,0.938,0.508,1.313,0.882
			c0.374,0.374,0.668,0.812,0.882,1.313c0.214,0.501,0.321,1.035,0.321,1.6v10.159H620.689z M619.568,18.935h-3.555
			c-0.337,0-0.654,0.063-0.95,0.191c-0.296,0.127-0.554,0.303-0.772,0.525c-0.219,0.225-0.392,0.484-0.52,0.779
			c-0.128,0.297-0.191,0.613-0.191,0.951v0.588c0,0.337,0.063,0.654,0.191,0.949c0.128,0.297,0.301,0.555,0.52,0.773
			s0.477,0.392,0.772,0.52c0.296,0.127,0.613,0.191,0.95,0.191h1.121c0.337,0,0.654-0.064,0.95-0.191
			c0.296-0.128,0.554-0.301,0.772-0.52s0.392-0.477,0.52-0.773c0.128-0.295,0.191-0.612,0.191-0.949V18.935z"/>
		<path fill="#0C488D" stroke="#0C488D" stroke-width="0.5" stroke-miterlimit="10" d="M639.844,25.716l-0.93-1.422
			c-0.383,0.52-0.861,0.932-1.436,1.236c-0.574,0.306-1.203,0.459-1.887,0.459h-0.424c-0.565,0-1.099-0.107-1.6-0.322
			c-0.501-0.213-0.938-0.508-1.313-0.881c-0.374-0.374-0.668-0.812-0.882-1.313c-0.214-0.502-0.321-1.035-0.321-1.6v-6.317
			c0-0.565,0.107-1.098,0.321-1.6c0.214-0.501,0.508-0.938,0.882-1.313c0.374-0.374,0.812-0.667,1.313-0.882
			c0.501-0.214,1.034-0.321,1.6-0.321h0.424c0.629,0,1.212,0.128,1.75,0.383c0.538,0.255,0.998,0.611,1.381,1.066V6.11h1.682v19.606
			H639.844z M638.723,15.462c0-0.337-0.063-0.654-0.191-0.95c-0.128-0.296-0.301-0.554-0.52-0.772s-0.477-0.392-0.772-0.52
			c-0.296-0.127-0.613-0.191-0.95-0.191h-1.121c-0.337,0-0.654,0.064-0.95,0.191c-0.296,0.128-0.554,0.301-0.772,0.52
			s-0.392,0.477-0.52,0.772c-0.128,0.296-0.191,0.613-0.191,0.95v6.508c0,0.337,0.063,0.654,0.191,0.949
			c0.128,0.297,0.301,0.555,0.52,0.773s0.477,0.392,0.772,0.52c0.296,0.127,0.613,0.191,0.95,0.191h1.121
			c0.337,0,0.654-0.064,0.95-0.191c0.296-0.128,0.554-0.301,0.772-0.52s0.392-0.477,0.52-0.773c0.128-0.295,0.191-0.612,0.191-0.949
			V15.462z"/>
		<path fill="#0C488D" stroke="#0C488D" stroke-width="0.5" stroke-miterlimit="10" d="M652.798,23.474
			c-0.214,0.501-0.508,0.938-0.882,1.313c-0.374,0.373-0.812,0.668-1.313,0.881c-0.501,0.215-1.034,0.322-1.6,0.322h-1.121
			c-0.565,0-1.099-0.107-1.6-0.322c-0.501-0.213-0.938-0.508-1.313-0.881c-0.374-0.374-0.668-0.812-0.882-1.313
			c-0.214-0.502-0.321-1.035-0.321-1.6v-6.317c0-0.565,0.107-1.098,0.321-1.6c0.214-0.501,0.508-0.938,0.882-1.313
			c0.374-0.374,0.812-0.667,1.313-0.882c0.501-0.214,1.034-0.321,1.6-0.321h1.121c0.565,0,1.099,0.107,1.6,0.321
			c0.501,0.214,0.938,0.508,1.313,0.882c0.374,0.374,0.668,0.812,0.882,1.313c0.214,0.501,0.321,1.035,0.321,1.6v3.295h-7.67v3.117
			c0,0.337,0.063,0.654,0.191,0.949c0.128,0.297,0.301,0.555,0.52,0.773s0.477,0.392,0.772,0.52c0.296,0.127,0.613,0.191,0.95,0.191
			h1.121c0.337,0,0.654-0.064,0.95-0.191c0.296-0.128,0.554-0.301,0.772-0.52s0.392-0.477,0.52-0.773
			c0.128-0.295,0.191-0.612,0.191-0.949v-0.93l1.682,0.273v0.561C653.119,22.439,653.012,22.972,652.798,23.474z M651.438,15.462
			c0-0.337-0.063-0.654-0.191-0.95c-0.128-0.296-0.301-0.554-0.52-0.772s-0.477-0.392-0.772-0.52
			c-0.296-0.127-0.613-0.191-0.95-0.191h-1.121c-0.337,0-0.654,0.064-0.95,0.191c-0.296,0.128-0.554,0.301-0.772,0.52
			s-0.392,0.477-0.52,0.772c-0.128,0.296-0.191,0.613-0.191,0.95v2.078h5.988V15.462z"/>
		<path fill="#0C488D" stroke="#0C488D" stroke-width="0.5" stroke-miterlimit="10" d="M667.734,7.71
			c-0.282,0-0.545,0.053-0.786,0.157c-0.241,0.105-0.453,0.249-0.636,0.431c-0.183,0.183-0.326,0.396-0.431,0.643
			s-0.157,0.511-0.157,0.793v1.982h3.268v1.6h-3.268v12.401h-1.682V13.315h-2.529v-1.6h2.529v-1.9c0-0.51,0.096-0.991,0.287-1.442
			s0.456-0.845,0.793-1.183c0.337-0.337,0.729-0.602,1.176-0.793s0.925-0.287,1.436-0.287h1.545v1.6H667.734z"/>
		<path fill="#0C488D" stroke="#0C488D" stroke-width="0.5" stroke-miterlimit="10" d="M679.991,23.474
			c-0.214,0.501-0.508,0.938-0.882,1.313c-0.374,0.373-0.812,0.668-1.313,0.881c-0.501,0.215-1.034,0.322-1.6,0.322h-1.121
			c-0.565,0-1.099-0.107-1.6-0.322c-0.501-0.213-0.938-0.508-1.313-0.881c-0.374-0.374-0.668-0.812-0.882-1.313
			c-0.214-0.502-0.321-1.035-0.321-1.6v-6.317c0-0.565,0.107-1.098,0.321-1.6c0.214-0.501,0.508-0.938,0.882-1.313
			c0.374-0.374,0.812-0.667,1.313-0.882c0.501-0.214,1.034-0.321,1.6-0.321h1.121c0.565,0,1.099,0.107,1.6,0.321
			c0.501,0.214,0.938,0.508,1.313,0.882c0.374,0.374,0.668,0.812,0.882,1.313c0.214,0.501,0.321,1.035,0.321,1.6v6.317
			C680.313,22.439,680.205,22.972,679.991,23.474z M678.631,15.462c0-0.337-0.063-0.654-0.191-0.95
			c-0.128-0.296-0.301-0.554-0.52-0.772s-0.477-0.392-0.772-0.52c-0.296-0.127-0.613-0.191-0.95-0.191h-1.121
			c-0.337,0-0.654,0.064-0.95,0.191c-0.296,0.128-0.554,0.301-0.772,0.52s-0.392,0.477-0.52,0.772
			c-0.128,0.296-0.191,0.613-0.191,0.95v6.508c0,0.337,0.063,0.654,0.191,0.949c0.128,0.297,0.301,0.555,0.52,0.773
			s0.477,0.392,0.772,0.52c0.296,0.127,0.613,0.191,0.95,0.191h1.121c0.337,0,0.654-0.064,0.95-0.191
			c0.296-0.128,0.554-0.301,0.772-0.52s0.392-0.477,0.52-0.773c0.128-0.295,0.191-0.612,0.191-0.949V15.462z"/>
		<path fill="#0C488D" stroke="#0C488D" stroke-width="0.5" stroke-miterlimit="10" d="M687.791,13.315
			c-0.337,0-0.654,0.064-0.95,0.191c-0.296,0.128-0.554,0.301-0.772,0.52s-0.392,0.477-0.52,0.772
			c-0.128,0.296-0.191,0.613-0.191,0.95v9.967h-1.682v-14h0.561l0.916,1.422c0.383-0.52,0.863-0.932,1.442-1.237
			c0.579-0.305,1.21-0.458,1.894-0.458h0.984v1.873H687.791z"/>
		<path fill="#0C488D" stroke="#0C488D" stroke-width="0.5" stroke-miterlimit="10" d="M706.494,25.716V15.462
			c0-0.337-0.063-0.654-0.191-0.95c-0.128-0.296-0.301-0.554-0.52-0.772s-0.477-0.392-0.772-0.52
			c-0.296-0.127-0.613-0.191-0.95-0.191h-0.834c-0.337,0-0.654,0.064-0.95,0.191c-0.296,0.128-0.556,0.301-0.779,0.52
			s-0.398,0.477-0.526,0.772c-0.128,0.296-0.191,0.613-0.191,0.95v10.254h-1.668V15.462c0-0.337-0.063-0.654-0.191-0.95
			c-0.128-0.296-0.303-0.554-0.526-0.772s-0.483-0.392-0.779-0.52c-0.296-0.127-0.613-0.191-0.95-0.191h-0.834
			c-0.337,0-0.654,0.064-0.95,0.191c-0.296,0.128-0.554,0.301-0.772,0.52s-0.392,0.477-0.52,0.772
			c-0.128,0.296-0.191,0.613-0.191,0.95v10.254h-1.682v-14h0.561l0.916,1.422c0.383-0.52,0.863-0.932,1.442-1.237
			c0.579-0.305,1.21-0.458,1.894-0.458h0.137c0.793,0,1.509,0.196,2.146,0.588c0.638,0.392,1.13,0.912,1.477,1.559
			c0.173-0.319,0.388-0.61,0.643-0.875c0.255-0.264,0.538-0.49,0.848-0.677c0.31-0.187,0.647-0.333,1.012-0.438
			c0.364-0.104,0.743-0.157,1.135-0.157h0.137c0.565,0,1.099,0.107,1.6,0.321c0.501,0.214,0.938,0.508,1.313,0.882
			c0.374,0.374,0.668,0.812,0.882,1.313c0.214,0.501,0.321,1.035,0.321,1.6v10.159H706.494z"/>
		<path fill="#0C488D" stroke="#0C488D" stroke-width="0.5" stroke-miterlimit="10" d="M720.33,25.716l-0.93-1.395
			c-0.383,0.501-0.861,0.904-1.436,1.209c-0.574,0.306-1.203,0.459-1.887,0.459h-0.424c-0.565,0-1.099-0.107-1.6-0.322
			c-0.501-0.213-0.938-0.508-1.313-0.881c-0.374-0.374-0.668-0.812-0.882-1.313c-0.214-0.502-0.321-1.035-0.321-1.6v-0.137
			c0-0.565,0.107-1.099,0.321-1.6c0.214-0.502,0.508-0.939,0.882-1.313c0.374-0.374,0.812-0.668,1.313-0.882
			c0.501-0.214,1.034-0.321,1.6-0.321h3.555v-2.16c0-0.337-0.063-0.654-0.191-0.95c-0.128-0.296-0.301-0.554-0.52-0.772
			s-0.477-0.392-0.772-0.52c-0.296-0.127-0.613-0.191-0.95-0.191h-0.984c-0.337,0-0.654,0.064-0.95,0.191
			c-0.296,0.128-0.554,0.301-0.772,0.52s-0.392,0.477-0.52,0.772c-0.128,0.296-0.191,0.613-0.191,0.95v0.506l-1.682-0.273v-0.137
			c0-0.565,0.107-1.098,0.321-1.6c0.214-0.501,0.508-0.938,0.882-1.313c0.374-0.374,0.812-0.667,1.313-0.882
			c0.501-0.214,1.034-0.321,1.6-0.321h0.984c0.565,0,1.099,0.107,1.6,0.321c0.501,0.214,0.938,0.508,1.313,0.882
			c0.374,0.374,0.668,0.812,0.882,1.313c0.214,0.501,0.321,1.035,0.321,1.6v10.159H720.33z M719.209,18.935h-3.555
			c-0.337,0-0.654,0.063-0.95,0.191c-0.296,0.127-0.554,0.303-0.772,0.525c-0.219,0.225-0.392,0.484-0.52,0.779
			c-0.128,0.297-0.191,0.613-0.191,0.951v0.588c0,0.337,0.063,0.654,0.191,0.949c0.128,0.297,0.301,0.555,0.52,0.773
			s0.477,0.392,0.772,0.52c0.296,0.127,0.613,0.191,0.95,0.191h1.121c0.337,0,0.654-0.064,0.95-0.191
			c0.296-0.128,0.554-0.301,0.772-0.52s0.392-0.477,0.52-0.773c0.128-0.295,0.191-0.612,0.191-0.949V18.935z"/>
		<path fill="#0C488D" stroke="#0C488D" stroke-width="0.5" stroke-miterlimit="10" d="M733.284,23.474
			c-0.214,0.501-0.508,0.938-0.882,1.313c-0.374,0.373-0.812,0.668-1.313,0.881c-0.501,0.215-1.034,0.322-1.6,0.322h-1.121
			c-0.565,0-1.099-0.107-1.6-0.322c-0.501-0.213-0.938-0.508-1.313-0.881c-0.374-0.374-0.668-0.812-0.882-1.313
			c-0.214-0.502-0.321-1.035-0.321-1.6v-6.317c0-0.565,0.107-1.098,0.321-1.6c0.214-0.501,0.508-0.938,0.882-1.313
			c0.374-0.374,0.812-0.667,1.313-0.882c0.501-0.214,1.034-0.321,1.6-0.321h1.121c0.565,0,1.099,0.107,1.6,0.321
			c0.501,0.214,0.938,0.508,1.313,0.882c0.374,0.374,0.668,0.812,0.882,1.313c0.214,0.501,0.321,1.035,0.321,1.6v0.561l-1.682,0.273
			v-0.93c0-0.337-0.063-0.654-0.191-0.95c-0.128-0.296-0.301-0.554-0.52-0.772s-0.477-0.392-0.772-0.52
			c-0.296-0.127-0.613-0.191-0.95-0.191h-1.121c-0.337,0-0.654,0.064-0.95,0.191c-0.296,0.128-0.554,0.301-0.772,0.52
			s-0.392,0.477-0.52,0.772c-0.128,0.296-0.191,0.613-0.191,0.95v6.508c0,0.337,0.063,0.654,0.191,0.949
			c0.128,0.297,0.301,0.555,0.52,0.773s0.477,0.392,0.772,0.52c0.296,0.127,0.613,0.191,0.95,0.191h1.121
			c0.337,0,0.654-0.064,0.95-0.191c0.296-0.128,0.554-0.301,0.772-0.52s0.392-0.477,0.52-0.773c0.128-0.295,0.191-0.612,0.191-0.949
			v-0.93l1.682,0.273v0.561C733.605,22.439,733.498,22.972,733.284,23.474z"/>
		<path fill="#0C488D" stroke="#0C488D" stroke-width="0.5" stroke-miterlimit="10" d="M737.393,8.353V6.11h1.955v2.242H737.393z
			 M737.529,25.716v-14h1.682v14H737.529z"/>
		<path fill="#0C488D" stroke="#0C488D" stroke-width="0.5" stroke-miterlimit="10" d="M752.165,23.474
			c-0.214,0.501-0.508,0.938-0.882,1.313c-0.374,0.373-0.812,0.668-1.313,0.881c-0.501,0.215-1.034,0.322-1.6,0.322h-1.121
			c-0.565,0-1.099-0.107-1.6-0.322c-0.501-0.213-0.938-0.508-1.313-0.881c-0.374-0.374-0.668-0.812-0.882-1.313
			c-0.214-0.502-0.321-1.035-0.321-1.6v-6.317c0-0.565,0.107-1.098,0.321-1.6c0.214-0.501,0.508-0.938,0.882-1.313
			c0.374-0.374,0.812-0.667,1.313-0.882c0.501-0.214,1.034-0.321,1.6-0.321h1.121c0.565,0,1.099,0.107,1.6,0.321
			c0.501,0.214,0.938,0.508,1.313,0.882c0.374,0.374,0.668,0.812,0.882,1.313c0.214,0.501,0.321,1.035,0.321,1.6v6.317
			C752.486,22.439,752.379,22.972,752.165,23.474z M750.805,15.462c0-0.337-0.063-0.654-0.191-0.95
			c-0.128-0.296-0.301-0.554-0.52-0.772s-0.477-0.392-0.772-0.52c-0.296-0.127-0.613-0.191-0.95-0.191h-1.121
			c-0.337,0-0.654,0.064-0.95,0.191c-0.296,0.128-0.554,0.301-0.772,0.52s-0.392,0.477-0.52,0.772
			c-0.128,0.296-0.191,0.613-0.191,0.95v6.508c0,0.337,0.063,0.654,0.191,0.949c0.128,0.297,0.301,0.555,0.52,0.773
			s0.477,0.392,0.772,0.52c0.296,0.127,0.613,0.191,0.95,0.191h1.121c0.337,0,0.654-0.064,0.95-0.191
			c0.296-0.128,0.554-0.301,0.772-0.52s0.392-0.477,0.52-0.773c0.128-0.295,0.191-0.612,0.191-0.949V15.462z M747.113,9.474h-1.258
			l2.229-3.363h2.803L747.113,9.474z"/>
		<path fill="#0C488D" stroke="#0C488D" stroke-width="0.5" stroke-miterlimit="10" d="M763.52,25.716V15.462
			c0-0.337-0.063-0.654-0.191-0.95c-0.128-0.296-0.301-0.554-0.52-0.772s-0.477-0.392-0.772-0.52
			c-0.296-0.127-0.613-0.191-0.95-0.191h-1.121c-0.337,0-0.654,0.064-0.95,0.191c-0.296,0.128-0.554,0.301-0.772,0.52
			s-0.392,0.477-0.52,0.772c-0.128,0.296-0.191,0.613-0.191,0.95v10.254h-1.682v-14h0.561l0.916,1.422
			c0.383-0.52,0.863-0.932,1.442-1.237c0.579-0.305,1.21-0.458,1.894-0.458h0.424c0.565,0,1.099,0.107,1.6,0.321
			c0.501,0.214,0.938,0.508,1.313,0.882c0.374,0.374,0.668,0.812,0.882,1.313c0.214,0.501,0.321,1.035,0.321,1.6v10.159H763.52z"/>
	</g>
	<g>
		<g>
			<path fill="#FFCC73" d="M7.188,23.343c0.711,0,1.289,0.582,1.289,1.291l0,0c0,0.713-0.577,1.289-1.289,1.289H5.506
				c-0.715,0-1.295-0.576-1.295-1.289l0,0c0-0.709,0.58-1.293,1.295-1.291H7.188z"/>
		</g>
		<g>
			<path fill="#FFCC73" d="M7.188,16.717c0.711,0,1.289,0.58,1.289,1.295l0,0c0,0.71-0.577,1.289-1.289,1.289H5.506
				c-0.715,0-1.295-0.578-1.295-1.289l0,0c0-0.715,0.58-1.295,1.295-1.295H7.188z"/>
		</g>
		<path fill="#FFCC73" d="M7.188,10.098c0.711,0,1.289,0.573,1.289,1.289l0,0c0,0.706-0.577,1.289-1.289,1.289H5.506
			c-0.715,0-1.295-0.583-1.295-1.289l0,0c0-0.716,0.58-1.289,1.295-1.289H7.188z"/>
		<g>
			<path fill="#0C488D" d="M7.861,6.777c-0.809,0-1.458,0.652-1.458,1.461v1.16H7.4c1.099,0,1.99,0.889,1.99,1.988
				c0,1.093-0.892,1.986-1.99,1.986H6.403v2.646H7.4c1.099,0,1.99,0.892,1.99,1.993C9.391,19.107,8.499,20,7.4,20H6.403v2.645H7.4
				c1.099,0,1.99,0.891,1.99,1.99c0,1.102-0.892,1.996-1.99,1.996H6.403v1.154c0,0.807,0.649,1.455,1.458,1.455h3.128V6.777H7.861z"
				/>
		</g>
		<g>
			<path fill="#0C488D" d="M28.461,7.242h-1.642c0.16,0.232,0.256,0.517,0.256,0.825v4.52h1.386c0.506,0,0.914-0.417,0.914-0.914
				v-3.52C29.375,7.65,28.967,7.242,28.461,7.242z"/>
			<path fill="#0C488D" d="M28.034,18.523c0.503,0,0.914-0.412,0.914-0.915v-3.514c0-0.506-0.411-0.914-0.914-0.914h-0.958v5.342
				H28.034z"/>
			<path fill="#0C488D" d="M27.459,24.798c0.505,0,0.914-0.406,0.914-0.914v-3.516c0-0.508-0.409-0.914-0.914-0.914h-0.384v5.344
				H27.459z"/>
		</g>
		<path fill="#FFCC73" d="M24.793,6.777H12.038V29.24h12.755c0.806,0,1.46-0.652,1.46-1.455V8.238
			C26.253,7.43,25.599,6.777,24.793,6.777z"/>
	</g>
</g>
</svg>
